<?xml version="1.0" encoding="UTF-8" ?>
<!DOCTYPE svg PUBLIC "-//W3C//DTD SVG 1.1//EN" "http://www.w3.org/Graphics/SVG/1.1/DTD/svg11.dtd">
<svg width="1174pt" height="828pt" viewBox="0 0 1174 828" version="1.1" xmlns="http://www.w3.org/2000/svg">
<g id="#01903cff">
<path fill="#01903c" opacity="1.00" d=" M 0.00 0.00 L 1174.00 0.00 L 1174.00 828.00 L 0.00 828.00 L 0.00 0.00 M 522.58 130.61 C 490.01 152.03 457.71 173.86 425.04 195.12 C 375.23 228.33 325.19 261.17 275.28 294.22 C 215.85 333.52 156.52 372.96 97.02 412.15 C 96.03 412.62 94.56 414.04 95.83 414.99 C 131.41 438.38 166.79 462.11 202.42 485.45 C 234.90 506.59 267.00 528.32 299.40 549.58 C 329.17 569.07 358.65 588.97 388.39 608.50 C 422.05 630.85 455.80 653.07 489.41 675.50 C 520.29 695.96 551.23 716.31 581.89 737.10 C 583.44 738.01 584.74 739.94 586.73 739.71 C 642.93 701.81 699.55 664.49 756.03 626.99 C 806.12 593.72 856.24 560.49 906.47 527.43 C 946.64 500.53 987.15 474.15 1027.35 447.30 C 1043.81 436.54 1059.87 425.12 1076.71 414.98 C 1076.62 413.11 1075.03 412.22 1073.64 411.34 C 1034.57 385.41 995.44 359.56 956.26 333.79 C 832.88 251.95 709.20 170.55 586.07 88.33 C 564.92 102.43 543.90 116.75 522.58 130.61 Z" />
</g>
<g id="#fdd902ff">
<path fill="#fdd902" opacity="1.00" d=" M 522.58 130.61 C 543.90 116.75 564.92 102.43 586.07 88.33 C 709.20 170.55 832.88 251.95 956.26 333.79 C 995.44 359.56 1034.57 385.41 1073.64 411.34 C 1075.03 412.22 1076.62 413.11 1076.71 414.98 C 1059.87 425.12 1043.81 436.54 1027.35 447.30 C 987.15 474.15 946.64 500.53 906.47 527.43 C 856.24 560.49 806.12 593.72 756.03 626.99 C 699.55 664.49 642.93 701.81 586.73 739.71 C 584.74 739.94 583.44 738.01 581.89 737.10 C 551.23 716.31 520.29 695.96 489.41 675.50 C 455.80 653.07 422.05 630.85 388.39 608.50 C 358.65 588.97 329.17 569.07 299.40 549.58 C 267.00 528.32 234.90 506.59 202.42 485.45 C 166.79 462.11 131.41 438.38 95.83 414.99 C 94.56 414.04 96.03 412.62 97.02 412.15 C 156.52 372.96 215.85 333.52 275.28 294.22 C 325.19 261.17 375.23 228.33 425.04 195.12 C 457.71 173.86 490.01 152.03 522.58 130.61 M 567.11 201.15 C 543.58 203.04 520.46 209.23 498.86 218.73 C 473.09 230.60 449.23 247.06 429.95 267.98 C 416.96 282.10 405.67 297.83 396.72 314.81 C 396.05 316.16 395.38 317.50 394.71 318.85 C 394.18 319.91 393.67 320.99 393.16 322.06 C 392.34 323.66 391.50 325.25 390.66 326.84 C 390.20 328.13 389.74 329.43 389.28 330.73 L 391.29 330.43 C 388.75 330.62 387.95 333.11 387.22 335.13 C 385.99 338.03 384.86 340.97 383.88 343.97 C 383.45 344.95 383.06 345.95 382.73 346.97 C 382.61 347.49 382.38 348.55 382.26 349.08 C 380.57 353.21 380.17 357.72 378.62 361.89 C 378.47 363.29 378.34 364.69 378.26 366.11 C 377.95 366.59 377.34 367.55 377.03 368.03 C 376.34 371.71 375.61 375.38 375.14 379.10 C 373.61 388.66 372.25 398.30 372.35 408.01 C 372.07 422.04 372.50 436.13 375.14 449.94 C 375.36 451.35 375.55 452.78 375.73 454.21 L 376.16 454.88 C 376.89 460.39 378.47 465.74 379.79 471.13 C 382.26 479.97 385.29 488.64 388.74 497.14 C 390.04 500.14 391.40 503.13 392.72 506.13 C 412.45 547.31 445.56 581.89 485.91 603.29 C 488.28 604.51 490.72 605.63 493.09 606.88 C 494.43 607.50 495.77 608.12 497.13 608.73 C 500.09 610.11 503.07 611.45 506.11 612.68 C 507.37 613.19 508.66 613.70 509.93 614.23 C 510.49 614.36 511.59 614.63 512.14 614.76 C 513.36 615.26 514.59 615.76 515.81 616.30 C 517.84 616.88 519.87 617.50 521.89 618.14 C 522.88 618.46 523.87 618.80 524.86 619.15 C 529.56 620.51 534.27 621.80 539.06 622.84 C 541.82 623.44 544.57 624.09 547.38 624.51 C 547.79 624.13 548.62 623.39 549.04 623.01 L 548.05 624.68 C 550.99 625.35 554.02 625.43 556.95 626.16 C 559.43 626.46 561.93 626.58 564.43 626.59 L 564.57 627.36 C 578.41 627.62 592.28 628.12 606.11 627.24 C 609.00 626.23 612.12 626.63 615.11 626.21 C 617.34 625.39 619.74 625.48 622.08 625.24 C 625.63 624.11 629.41 624.03 632.95 622.84 C 635.35 622.38 637.74 621.79 640.12 621.19 C 641.43 620.82 642.76 620.48 644.08 620.14 C 645.40 619.81 646.69 619.41 648.02 619.05 C 649.04 618.77 650.05 618.44 651.05 618.07 C 652.33 617.65 653.60 617.20 654.87 616.75 C 657.31 615.91 659.75 615.06 662.18 614.19 C 663.82 613.50 665.46 612.83 667.12 612.18 C 669.74 611.10 672.34 609.97 674.90 608.75 C 675.98 608.26 677.07 607.77 678.17 607.30 C 680.43 606.16 682.68 604.98 684.93 603.81 C 728.20 581.25 763.06 543.45 782.78 498.88 C 784.76 494.13 786.43 489.27 788.26 484.46 C 788.51 484.46 789.00 484.45 789.25 484.44 C 789.70 481.60 790.19 478.76 790.82 475.96 C 791.38 474.68 791.62 473.32 791.88 471.97 C 792.21 470.62 792.53 469.28 792.83 467.94 C 793.23 466.29 793.94 464.74 794.18 463.06 C 795.61 458.81 795.69 454.21 797.28 450.04 C 797.43 448.54 797.59 447.06 797.70 445.57 L 797.37 445.29 C 797.58 444.70 797.99 443.54 798.19 442.96 C 798.38 440.60 798.56 438.25 798.84 435.90 C 800.09 428.02 799.50 419.98 799.69 412.03 C 800.01 396.13 797.47 380.35 794.20 364.84 L 793.83 364.17 C 791.37 352.47 787.35 341.15 782.78 330.12 C 781.53 327.08 780.18 324.09 778.75 321.13 C 778.23 320.05 777.72 318.97 777.23 317.90 C 756.75 277.46 723.25 243.76 682.82 223.24 C 681.25 222.40 679.68 221.58 678.12 220.74 C 675.10 219.47 672.13 218.10 669.15 216.75 C 664.82 215.03 660.48 213.36 656.09 211.80 C 642.14 206.97 627.64 203.97 613.05 201.85 C 610.35 201.56 607.64 201.40 604.94 201.17 C 599.03 200.09 592.97 200.55 587.00 200.34 C 580.38 200.50 573.67 200.07 567.11 201.15 Z" />
</g>
<g id="#002e7fff">
<path fill="#002e7f" opacity="1.00" d=" M 567.11 201.15 C 573.67 200.07 580.38 200.50 587.00 200.34 C 592.97 200.55 599.03 200.09 604.94 201.17 C 607.64 201.40 610.35 201.56 613.05 201.85 C 627.64 203.97 642.14 206.97 656.09 211.80 C 660.48 213.36 664.82 215.03 669.15 216.75 C 672.13 218.10 675.10 219.47 678.12 220.74 C 679.68 221.58 681.25 222.40 682.82 223.24 C 723.25 243.76 756.75 277.46 777.23 317.90 C 777.72 318.97 778.23 320.05 778.75 321.13 C 780.18 324.09 781.53 327.08 782.78 330.12 C 787.35 341.15 791.37 352.47 793.83 364.17 L 794.20 364.84 C 797.47 380.35 800.01 396.13 799.69 412.03 C 799.50 419.98 800.09 428.02 798.84 435.90 C 798.56 438.25 798.38 440.60 798.19 442.96 C 797.99 443.54 797.58 444.70 797.37 445.29 C 783.44 433.07 768.23 422.42 752.99 411.93 C 720.07 389.98 684.88 371.34 647.88 357.27 C 608.04 342.11 566.22 332.16 523.87 327.46 C 479.80 322.43 435.12 323.93 391.29 330.43 L 389.28 330.73 C 389.74 329.43 390.20 328.13 390.66 326.84 C 391.50 325.25 392.34 323.66 393.16 322.06 C 393.67 320.99 394.18 319.91 394.71 318.85 C 395.38 317.50 396.05 316.16 396.72 314.81 C 405.67 297.83 416.96 282.10 429.95 267.98 C 449.23 247.06 473.09 230.60 498.86 218.73 C 520.46 209.23 543.58 203.04 567.11 201.15 Z" />
<path fill="#002e7f" opacity="1.00" d=" M 390.90 363.54 C 420.02 359.15 449.50 357.06 478.95 357.67 C 540.23 359.87 601.42 372.55 657.65 397.29 C 687.15 410.07 715.15 426.16 741.64 444.34 C 758.12 455.89 773.94 468.35 789.35 481.29 C 788.98 482.34 788.63 483.40 788.26 484.46 C 786.43 489.27 784.76 494.13 782.78 498.88 C 763.06 543.45 728.20 581.25 684.93 603.81 C 682.68 604.98 680.43 606.16 678.17 607.30 C 677.07 607.77 675.98 608.26 674.90 608.75 C 672.34 609.97 669.74 611.10 667.12 612.18 C 665.46 612.83 663.82 613.50 662.18 614.19 C 659.75 615.06 657.31 615.91 654.87 616.75 C 653.60 617.20 652.33 617.65 651.05 618.07 C 650.05 618.44 649.04 618.77 648.02 619.05 C 646.69 619.41 645.40 619.81 644.08 620.14 C 642.76 620.48 641.43 620.82 640.12 621.19 C 637.74 621.79 635.35 622.38 632.95 622.84 C 629.41 624.03 625.63 624.11 622.08 625.24 C 619.74 625.48 617.34 625.39 615.11 626.21 C 612.12 626.63 609.00 626.23 606.11 627.24 C 592.28 628.12 578.41 627.62 564.57 627.36 L 564.43 626.59 C 561.93 626.58 559.43 626.46 556.95 626.16 C 554.02 625.43 550.99 625.35 548.05 624.68 L 549.04 623.01 C 548.62 623.39 547.79 624.13 547.38 624.51 C 544.57 624.09 541.82 623.44 539.06 622.84 C 534.27 621.80 529.56 620.51 524.86 619.15 C 523.87 618.80 522.88 618.46 521.89 618.14 C 519.87 617.50 517.84 616.88 515.81 616.30 C 514.59 615.76 513.36 615.26 512.14 614.76 C 511.59 614.63 510.49 614.36 509.93 614.23 C 508.66 613.70 507.37 613.19 506.11 612.68 C 503.07 611.45 500.09 610.11 497.13 608.73 C 495.77 608.12 494.43 607.50 493.09 606.88 C 490.72 605.63 488.28 604.51 485.91 603.29 C 445.56 581.89 412.45 547.31 392.72 506.13 C 391.40 503.13 390.04 500.14 388.74 497.14 C 385.29 488.64 382.26 479.97 379.79 471.13 C 378.47 465.74 376.89 460.39 376.16 454.88 L 375.73 454.21 C 375.55 452.78 375.36 451.35 375.14 449.94 C 372.50 436.13 372.07 422.04 372.35 408.01 C 372.25 398.30 373.61 388.66 375.14 379.10 C 375.61 375.38 376.34 371.71 377.03 368.03 C 377.34 367.55 377.95 366.59 378.26 366.11 C 382.32 364.63 386.65 364.20 390.90 363.54 Z" />
</g>
<g id="#fdfefdff">
<path fill="#fdfefd" opacity="1.00" d=" M 391.29 330.43 C 435.12 323.93 479.80 322.43 523.87 327.46 C 566.22 332.16 608.04 342.11 647.88 357.27 C 684.88 371.34 720.07 389.98 752.99 411.93 C 768.23 422.42 783.44 433.07 797.37 445.29 L 797.70 445.57 C 797.59 447.06 797.43 448.54 797.28 450.04 C 795.69 454.21 795.61 458.81 794.18 463.06 C 793.94 464.74 793.23 466.29 792.83 467.94 C 792.53 469.28 792.21 470.62 791.88 471.97 C 791.62 473.32 791.38 474.68 790.82 475.96 C 790.19 478.76 789.70 481.60 789.25 484.44 C 789.00 484.45 788.51 484.46 788.26 484.46 C 788.63 483.40 788.98 482.34 789.35 481.29 C 773.94 468.35 758.12 455.89 741.64 444.34 C 715.15 426.16 687.15 410.07 657.65 397.29 C 601.42 372.55 540.23 359.87 478.95 357.67 C 449.50 357.06 420.02 359.15 390.90 363.54 C 386.65 364.20 382.32 364.63 378.26 366.11 C 378.34 364.69 378.47 363.29 378.62 361.89 C 380.17 357.72 380.57 353.21 382.26 349.08 C 382.38 348.55 382.61 347.49 382.73 346.97 C 383.06 345.95 383.45 344.95 383.88 343.97 C 384.86 340.97 385.99 338.03 387.22 335.13 C 387.95 333.11 388.75 330.62 391.29 330.43 Z" />
</g>
</svg>
