<?xml version="1.0" encoding="UTF-8" ?>
<!DOCTYPE svg PUBLIC "-//W3C//DTD SVG 1.1//EN" "http://www.w3.org/Graphics/SVG/1.1/DTD/svg11.dtd">
<svg width="600pt" height="350pt" viewBox="0 0 600 350" version="1.1" xmlns="http://www.w3.org/2000/svg">
<g id="#0f9d49ff">
<path fill="#0f9d49" opacity="1.00" d=" M 0.00 0.00 L 600.00 0.00 L 600.00 350.00 L 0.00 350.00 L 0.00 0.00 M 290.49 48.59 C 253.55 72.23 216.52 95.74 179.61 119.43 C 167.29 127.17 154.98 134.97 142.92 143.10 C 126.18 152.93 110.34 164.26 93.59 174.04 C 93.56 174.61 93.53 175.19 93.50 175.78 C 121.92 193.58 150.01 211.90 178.34 229.84 C 217.94 255.22 257.70 280.37 297.25 305.82 C 299.11 307.27 301.61 306.84 303.38 305.46 C 335.43 284.75 367.73 264.42 399.86 243.82 C 435.43 221.18 470.84 198.27 506.58 175.92 C 506.52 175.28 506.46 174.64 506.42 174.00 C 501.36 171.38 496.86 167.85 491.97 164.97 C 428.82 124.82 365.80 84.44 302.68 44.25 C 298.08 41.17 294.44 47.03 290.49 48.59 Z" />
<path fill="#0f9d49" opacity="1.00" d=" M 231.58 140.45 C 233.84 140.37 236.10 140.31 238.36 140.32 C 238.71 141.20 239.07 142.08 239.43 142.96 C 239.20 143.28 238.73 143.92 238.50 144.25 C 238.57 145.42 238.71 147.78 238.79 148.96 C 238.20 147.81 237.63 146.65 237.10 145.48 C 236.21 145.46 234.43 145.41 233.54 145.39 C 233.50 146.38 233.42 148.35 233.37 149.34 C 231.49 146.81 232.00 143.41 231.58 140.45 M 233.29 143.82 C 234.69 143.76 236.10 143.71 237.51 143.66 L 237.47 141.56 C 236.46 141.57 234.42 141.60 233.40 141.61 C 233.37 142.16 233.31 143.27 233.29 143.82 Z" />
<path fill="#0f9d49" opacity="1.00" d=" M 242.66 139.49 C 245.01 139.60 247.35 139.89 249.63 140.50 C 249.74 142.78 249.70 145.06 249.52 147.34 C 247.26 147.61 244.98 147.77 242.71 147.89 C 242.67 145.09 242.65 142.29 242.66 139.49 M 244.28 141.16 C 244.26 142.94 244.24 144.73 244.23 146.52 C 245.62 146.46 247.02 146.41 248.42 146.35 C 248.50 144.73 248.56 143.12 248.57 141.50 C 247.14 141.37 245.71 141.26 244.28 141.16 Z" />
<path fill="#0f9d49" opacity="1.00" d=" M 253.58 139.55 C 256.04 140.13 259.63 138.65 261.19 141.26 C 259.13 141.29 257.08 141.26 255.04 141.24 C 255.12 141.76 255.30 142.79 255.38 143.31 C 256.41 143.25 258.46 143.12 259.48 143.06 L 259.61 144.55 C 257.97 144.44 256.33 144.33 254.70 144.22 C 254.68 144.80 254.64 145.96 254.62 146.54 C 256.66 146.56 258.69 146.59 260.74 146.60 L 260.54 148.27 C 258.15 148.05 255.77 147.85 253.38 147.73 C 253.46 145.01 253.53 142.28 253.58 139.55 Z" />
<path fill="#0f9d49" opacity="1.00" d=" M 264.58 140.19 C 265.05 140.21 265.97 140.25 266.44 140.27 C 266.84 141.95 267.27 143.62 267.69 145.30 C 267.15 145.03 266.08 144.47 265.54 144.19 C 265.40 145.90 265.22 147.61 264.99 149.32 C 263.55 146.45 264.57 143.23 264.58 140.19 Z" />
<path fill="#0f9d49" opacity="1.00" d=" M 222.69 141.26 C 224.31 141.54 226.48 140.84 227.51 142.51 C 229.44 144.49 228.61 148.57 225.82 149.29 C 223.73 149.88 221.35 148.18 221.31 145.99 C 221.06 144.28 222.12 142.79 222.69 141.26 M 222.18 143.79 C 222.43 146.21 223.70 148.11 226.30 148.05 C 226.70 146.62 227.10 145.19 227.50 143.77 C 225.74 142.83 223.92 142.80 222.18 143.79 Z" />
<path fill="#0f9d49" opacity="1.00" d=" M 268.15 145.58 C 269.06 143.61 269.23 140.77 271.73 140.13 C 271.72 143.41 271.87 146.82 270.64 149.92 C 270.53 148.23 270.33 144.83 270.23 143.14 C 269.57 145.22 268.83 147.29 268.03 149.33 C 267.29 147.94 266.63 146.51 266.00 145.08 C 266.53 145.21 267.61 145.46 268.15 145.58 Z" />
<path fill="#0f9d49" opacity="1.00" d=" M 282.57 143.09 C 284.77 143.46 287.25 143.39 288.91 145.15 C 287.09 144.94 285.28 144.71 283.48 144.45 L 283.54 146.43 C 284.34 146.39 285.94 146.30 286.74 146.26 C 286.79 146.66 286.88 147.45 286.93 147.85 C 285.51 147.69 284.10 147.53 282.69 147.38 L 282.70 149.38 C 284.31 149.51 285.93 149.65 287.55 149.80 C 287.42 150.32 287.30 150.84 287.18 151.36 C 285.19 150.95 283.20 150.58 281.21 150.25 C 281.62 147.85 282.10 145.47 282.57 143.09 Z" />
<path fill="#0f9d49" opacity="1.00" d=" M 299.48 145.36 C 301.53 146.06 303.84 146.31 305.50 147.83 C 305.64 149.12 305.87 150.76 304.46 151.44 C 302.59 151.73 300.72 151.32 298.86 151.18 C 298.67 151.98 298.28 153.58 298.08 154.38 C 296.41 151.44 298.81 148.25 299.48 145.36 M 300.09 147.43 C 300.10 147.94 300.11 148.95 300.12 149.45 C 301.35 149.73 302.59 150.01 303.84 150.30 C 303.78 149.68 303.67 148.44 303.62 147.82 C 302.44 147.69 301.26 147.56 300.09 147.43 Z" />
<path fill="#0f9d49" opacity="1.00" d=" M 309.77 148.23 C 311.81 148.92 313.85 149.60 315.88 150.32 C 315.78 151.98 315.52 153.64 314.63 155.08 C 314.51 155.74 314.26 157.05 314.13 157.70 C 313.76 157.72 313.01 157.75 312.64 157.77 C 312.75 156.80 312.86 155.83 312.97 154.86 C 311.97 154.39 310.97 153.92 309.97 153.45 C 309.16 154.74 308.35 156.04 307.40 157.23 C 307.82 154.14 308.88 151.20 309.77 148.23 M 310.57 150.02 C 310.50 150.60 310.36 151.76 310.28 152.34 C 311.76 152.73 313.25 153.13 314.74 153.52 C 315.16 150.78 312.21 150.87 310.57 150.02 Z" />
<path fill="#0f9d49" opacity="1.00" d=" M 318.96 155.07 C 320.07 152.39 323.20 153.45 325.43 153.40 C 325.69 155.88 326.57 159.36 323.51 160.49 C 320.28 162.23 317.10 157.90 318.96 155.07 M 320.86 154.57 C 320.50 155.22 319.80 156.51 319.45 157.15 C 320.26 158.05 321.09 158.94 321.92 159.83 C 322.57 159.39 323.87 158.49 324.52 158.04 C 324.48 157.14 324.41 155.33 324.37 154.43 C 323.20 154.47 322.02 154.52 320.86 154.57 Z" />
<path fill="#0f9d49" opacity="1.00" d=" M 328.55 160.94 C 328.22 157.92 333.08 155.08 335.05 157.94 C 336.92 160.37 335.11 163.50 334.30 166.00 C 331.96 164.97 328.23 164.29 328.55 160.94 M 330.94 158.49 C 330.62 159.13 329.99 160.41 329.68 161.06 C 329.96 161.65 330.51 162.84 330.79 163.44 C 331.44 163.46 332.74 163.52 333.38 163.54 C 333.11 162.98 332.58 161.86 332.31 161.30 C 332.90 161.38 334.07 161.55 334.65 161.63 C 334.53 160.61 334.41 159.59 334.29 158.58 C 333.45 158.56 331.77 158.51 330.94 158.49 Z" />
<path fill="#0f9d49" opacity="1.00" d=" M 340.79 160.14 C 342.43 161.03 344.07 161.91 345.74 162.77 C 345.94 163.81 346.14 164.85 346.34 165.90 C 345.56 166.44 344.79 166.98 344.02 167.53 C 343.59 168.79 343.18 170.06 342.69 171.30 C 342.59 169.80 342.52 168.31 342.48 166.81 C 341.80 166.41 340.44 165.62 339.76 165.22 C 339.02 166.38 338.27 167.52 337.50 168.65 C 337.16 165.44 339.55 162.89 340.79 160.14 M 340.91 162.01 C 340.76 162.60 340.46 163.78 340.31 164.37 C 341.66 164.82 343.01 165.36 344.41 165.67 C 345.92 163.27 342.28 163.05 340.91 162.01 Z" />
<path fill="#0f9d49" opacity="1.00" d=" M 350.51 165.43 C 352.96 166.15 355.60 167.53 356.67 170.01 C 354.47 169.05 352.35 167.92 350.20 166.87 C 350.23 169.46 353.10 170.20 354.55 171.90 C 352.38 171.83 349.53 168.88 348.08 171.60 C 350.06 172.76 352.56 173.57 353.39 175.96 C 350.96 174.86 348.66 173.51 346.38 172.13 C 347.83 169.97 348.69 167.28 350.51 165.43 Z" />
<path fill="#0f9d49" opacity="1.00" d=" M 362.09 178.89 C 360.77 176.71 356.41 173.59 359.96 171.49 C 361.73 171.78 363.24 172.82 364.79 173.66 C 364.65 174.75 364.51 175.85 364.37 176.94 C 363.61 175.71 362.87 174.47 362.14 173.23 C 361.57 173.30 360.42 173.44 359.84 173.51 C 361.30 175.22 362.70 176.98 363.80 178.96 C 363.19 179.42 361.98 180.33 361.37 180.78 C 359.28 179.95 357.48 178.63 356.01 176.95 C 356.52 176.52 357.54 175.67 358.06 175.24 C 358.23 176.04 358.57 177.65 358.74 178.45 C 359.85 178.60 360.97 178.75 362.09 178.89 Z" />
<path fill="#0f9d49" opacity="1.00" d=" M 367.54 178.96 C 368.11 178.52 369.25 177.63 369.82 177.18 C 371.18 178.17 372.55 179.17 373.91 180.17 C 373.73 181.02 373.38 182.73 373.20 183.59 C 372.60 181.26 371.60 178.82 368.76 179.13 C 369.99 181.05 371.32 182.91 372.57 184.82 C 372.01 185.35 370.90 186.42 370.34 186.95 C 367.73 185.96 365.27 184.18 365.19 181.13 C 366.86 182.86 368.54 184.61 370.55 185.97 C 370.19 183.36 367.90 181.52 367.54 178.96 Z" />
<path fill="#0f9d49" opacity="1.00" d=" M 374.39 187.92 C 375.81 185.53 378.48 183.80 381.18 185.31 C 381.54 186.01 382.28 187.41 382.65 188.11 C 381.87 190.89 379.71 192.83 376.75 192.65 C 376.27 192.20 375.32 191.29 374.85 190.84 C 374.74 190.11 374.50 188.65 374.39 187.92 M 376.44 186.46 C 376.09 188.37 376.13 190.28 377.67 191.69 C 378.37 191.31 379.78 190.54 380.48 190.16 C 380.55 188.89 380.61 187.61 380.66 186.34 C 379.25 186.36 377.84 186.41 376.44 186.46 Z" />
</g>
<g id="#fcdf05ff">
<path fill="#fcdf05" opacity="1.00" d=" M 290.49 48.59 C 294.44 47.03 298.08 41.17 302.68 44.25 C 365.80 84.44 428.82 124.82 491.97 164.97 C 496.86 167.85 501.36 171.38 506.42 174.00 C 506.46 174.64 506.52 175.28 506.58 175.92 C 470.84 198.27 435.43 221.18 399.86 243.82 C 367.73 264.42 335.43 284.75 303.38 305.46 C 301.61 306.84 299.11 307.27 297.25 305.82 C 257.70 280.37 217.94 255.22 178.34 229.84 C 150.01 211.90 121.92 193.58 93.50 175.78 C 93.53 175.19 93.56 174.61 93.59 174.04 C 110.34 164.26 126.18 152.93 142.92 143.10 C 154.98 134.97 167.29 127.17 179.61 119.43 C 216.52 95.74 253.55 72.23 290.49 48.59 M 275.88 90.80 L 275.23 91.19 C 253.85 97.18 235.20 112.07 224.21 131.32 C 222.58 134.03 221.10 136.86 220.21 139.91 C 219.86 140.05 219.14 140.33 218.79 140.47 C 218.25 144.76 216.55 148.77 215.46 152.93 C 208.00 179.74 214.86 209.94 232.89 231.09 C 244.61 245.37 261.13 255.59 279.06 259.97 C 293.49 263.73 308.85 263.18 323.22 259.43 C 347.33 252.91 368.18 235.49 378.94 212.96 C 380.67 209.14 382.08 205.19 383.72 201.34 L 382.55 200.31 C 382.91 200.49 383.65 200.86 384.01 201.04 C 384.32 199.32 384.64 197.61 385.05 195.91 C 385.46 194.26 385.84 192.61 386.27 190.96 C 386.33 189.73 386.39 188.49 386.46 187.25 C 386.69 186.15 386.94 185.04 387.20 183.95 C 387.60 177.96 387.68 171.95 387.19 165.97 C 385.52 153.85 382.15 141.80 375.77 131.27 C 364.69 111.72 345.62 97.13 324.13 90.78 C 308.41 86.45 291.59 86.37 275.88 90.80 Z" />
</g>
<g id="#253370ff">
<path fill="#253370" opacity="1.00" d=" M 275.88 90.80 C 291.59 86.37 308.41 86.45 324.13 90.78 C 345.62 97.13 364.69 111.72 375.77 131.27 C 382.15 141.80 385.52 153.85 387.19 165.97 C 387.68 171.95 387.60 177.96 387.20 183.95 C 386.94 185.04 386.69 186.15 386.46 187.25 C 368.03 171.43 346.58 159.44 324.04 150.57 C 325.71 150.16 327.48 149.77 329.06 150.69 C 328.89 149.34 329.13 148.07 330.04 147.02 C 329.03 146.37 328.03 145.71 327.05 145.05 C 326.00 145.77 324.96 146.49 323.94 147.24 C 324.54 147.69 325.73 148.60 326.33 149.06 C 324.19 151.63 321.31 149.65 318.81 148.93 C 288.28 138.33 255.26 135.16 223.21 139.19 C 222.19 139.36 221.19 139.60 220.21 139.91 C 221.10 136.86 222.58 134.03 224.21 131.32 C 235.20 112.07 253.85 97.18 275.23 91.19 L 275.88 90.80 Z" />
<path fill="#253370" opacity="1.00" d=" M 215.46 152.93 C 238.78 149.17 262.76 149.00 286.02 153.31 C 321.70 159.74 355.45 176.23 382.55 200.31 L 383.72 201.34 C 382.08 205.19 380.67 209.14 378.94 212.96 C 368.18 235.49 347.33 252.91 323.22 259.43 C 308.85 263.18 293.49 263.73 279.06 259.97 C 261.13 255.59 244.61 245.37 232.89 231.09 C 214.86 209.94 208.00 179.74 215.46 152.93 M 228.79 155.67 C 228.18 157.46 226.91 158.40 225.04 158.36 C 225.78 158.86 226.52 159.38 227.25 159.90 C 226.97 160.55 226.40 161.85 226.12 162.51 C 226.92 161.95 227.73 161.40 228.53 160.84 C 229.22 161.26 230.59 162.09 231.28 162.50 C 230.93 161.86 230.24 160.57 229.90 159.92 C 230.60 159.47 231.31 159.02 232.02 158.57 C 230.10 158.56 229.10 157.42 228.79 155.67 M 323.62 168.41 C 323.32 168.85 322.73 169.74 322.43 170.18 C 322.44 170.85 322.45 172.18 322.46 172.84 C 323.58 172.18 324.71 171.52 325.84 170.86 C 325.09 170.04 324.36 169.23 323.62 168.41 M 266.51 176.44 C 265.92 176.80 264.74 177.53 264.15 177.89 C 264.97 178.71 265.27 179.70 264.90 180.83 C 266.17 179.93 267.52 180.33 268.79 180.97 C 267.77 179.83 268.14 178.78 269.20 177.83 C 268.30 177.37 267.40 176.91 266.51 176.44 M 300.02 186.35 C 299.34 187.31 298.44 187.96 297.33 188.32 C 298.46 189.04 298.60 190.20 298.40 191.43 C 299.49 190.48 300.63 190.65 301.73 191.49 C 301.36 190.26 301.52 189.16 302.60 188.38 C 301.54 187.95 300.70 187.24 300.02 186.35 M 244.55 189.27 C 242.62 189.58 243.37 192.75 245.22 192.23 C 247.13 191.83 246.50 188.66 244.55 189.27 M 236.38 192.74 C 235.81 194.39 234.52 195.05 232.84 194.97 C 234.48 195.86 234.76 197.49 234.74 199.21 C 235.13 198.77 235.91 197.88 236.30 197.43 C 237.04 198.07 237.79 198.71 238.54 199.35 C 238.37 198.57 238.02 197.00 237.84 196.22 C 238.56 195.80 239.27 195.38 239.99 194.96 C 238.28 194.97 236.68 194.71 236.38 192.74 M 310.12 194.48 C 309.23 195.49 308.09 196.02 306.70 196.06 C 307.50 196.33 308.29 196.61 309.09 196.90 C 308.81 197.50 308.25 198.69 307.97 199.29 C 309.38 198.42 310.74 198.46 312.05 199.41 C 310.52 197.94 312.04 197.03 312.68 195.99 C 311.72 195.66 310.87 195.15 310.12 194.48 M 289.38 196.05 C 289.71 196.80 290.05 197.56 290.39 198.32 C 291.00 198.39 292.21 198.51 292.82 198.58 C 292.54 197.43 292.26 196.29 291.97 195.15 C 291.10 195.45 290.24 195.75 289.38 196.05 M 224.22 202.74 C 224.25 203.75 224.27 204.76 224.28 205.77 C 225.05 205.61 225.82 205.47 226.59 205.35 C 226.97 204.56 227.33 203.76 227.69 202.96 C 226.54 202.80 225.38 202.68 224.22 202.74 M 251.99 203.88 C 252.66 204.80 253.01 205.83 252.87 206.98 C 254.04 206.02 255.22 206.25 256.31 207.24 C 255.97 205.85 256.40 204.57 257.09 203.37 C 256.55 203.47 255.48 203.66 254.94 203.75 L 255.15 201.93 C 254.26 202.87 253.21 203.52 251.99 203.88 M 294.50 202.10 C 293.40 203.45 295.67 205.55 296.71 203.92 C 297.73 202.55 295.58 200.48 294.50 202.10 M 357.74 205.01 C 358.47 205.36 359.20 205.72 359.94 206.08 C 359.62 206.94 359.30 207.81 358.99 208.68 C 359.60 208.33 360.80 207.63 361.40 207.27 C 362.19 207.78 362.98 208.29 363.77 208.80 C 363.40 207.92 363.03 207.05 362.66 206.18 C 363.38 205.77 364.10 205.37 364.84 204.97 C 363.27 204.60 361.85 203.96 361.16 202.42 C 360.64 203.99 359.25 204.63 357.74 205.01 M 371.50 205.99 C 371.80 206.61 372.11 207.22 372.42 207.85 C 373.08 207.81 374.40 207.74 375.07 207.71 C 374.72 206.63 374.37 205.55 374.02 204.48 C 373.18 204.99 372.34 205.49 371.50 205.99 M 249.44 212.77 C 250.25 213.62 250.50 214.67 250.24 215.82 C 251.29 215.10 252.42 215.14 253.52 215.69 C 253.54 214.60 253.57 213.50 253.61 212.42 C 253.21 212.12 252.42 211.54 252.02 211.25 C 251.16 211.76 250.30 212.27 249.44 212.77 M 296.63 213.36 C 298.50 214.24 298.58 215.81 297.75 217.59 C 298.31 217.11 299.43 216.14 299.99 215.65 C 300.56 216.14 301.69 217.12 302.25 217.61 C 301.41 215.81 301.52 214.25 303.38 213.34 C 301.68 213.26 300.55 212.43 299.99 210.84 C 299.38 212.33 298.33 213.32 296.63 213.36 M 365.09 210.72 C 364.20 211.29 362.42 212.43 361.53 212.99 C 362.10 213.20 363.25 213.62 363.83 213.83 C 363.53 214.42 362.95 215.59 362.65 216.17 C 363.27 215.79 364.50 215.03 365.12 214.65 C 365.38 215.04 365.91 215.82 366.17 216.21 C 366.57 214.64 367.38 213.19 367.60 211.58 L 366.07 213.00 C 365.82 212.43 365.33 211.29 365.09 210.72 M 264.90 217.85 C 264.53 219.80 262.89 220.34 261.19 220.67 C 263.06 221.23 263.80 222.39 262.79 224.25 C 264.04 223.28 265.35 223.18 266.73 223.95 C 266.28 222.39 267.00 221.34 268.38 220.69 C 266.60 220.50 265.47 219.47 264.90 217.85 M 357.16 219.75 C 357.61 220.80 358.04 221.85 358.50 222.92 C 358.76 222.58 359.27 221.91 359.53 221.57 C 359.90 221.94 360.64 222.68 361.01 223.05 C 361.17 221.97 361.35 220.91 361.53 219.84 C 361.04 219.34 360.07 218.35 359.59 217.86 C 358.96 218.73 358.15 219.36 357.16 219.75 M 341.62 222.84 C 341.79 223.44 341.96 224.05 342.14 224.66 C 342.87 224.66 344.33 224.64 345.06 224.64 L 344.42 223.50 C 344.76 223.37 345.43 223.11 345.77 222.98 C 344.87 222.45 343.98 221.91 343.10 221.38 C 342.73 221.74 341.99 222.47 341.62 222.84 M 317.35 223.37 C 317.69 224.07 318.02 224.78 318.37 225.49 C 318.98 225.48 320.20 225.46 320.81 225.44 C 320.66 224.99 320.37 224.09 320.22 223.63 L 322.13 224.03 C 321.20 223.46 320.28 222.90 319.37 222.33 C 318.69 222.67 318.02 223.02 317.35 223.37 M 352.46 223.20 C 351.99 223.53 351.04 224.18 350.56 224.51 C 350.91 225.16 351.25 225.83 351.60 226.49 C 352.04 226.46 352.91 226.41 353.35 226.38 C 353.73 225.71 354.10 225.03 354.44 224.34 C 353.77 223.96 353.11 223.58 352.46 223.20 M 331.44 225.75 C 331.77 226.21 332.42 227.11 332.74 227.57 C 333.21 227.60 334.14 227.66 334.61 227.69 C 335.03 226.80 335.45 225.92 335.88 225.04 L 334.52 225.63 C 334.38 225.29 334.10 224.61 333.96 224.27 C 333.12 224.77 332.28 225.27 331.44 225.75 M 341.30 231.75 C 341.67 231.83 342.40 232.00 342.76 232.09 C 342.49 232.45 341.95 233.18 341.68 233.54 C 342.81 233.54 343.94 233.55 345.08 233.57 C 345.27 233.03 345.65 231.96 345.85 231.42 C 345.17 230.67 344.50 229.91 343.85 229.15 C 343.01 230.02 342.16 230.89 341.30 231.75 M 323.49 232.90 C 324.98 233.71 324.49 235.23 324.53 236.50 C 325.71 235.34 326.92 235.38 328.16 236.61 C 327.04 234.38 327.59 233.32 329.83 233.43 C 328.13 233.07 326.32 232.42 326.04 230.44 C 325.55 231.62 325.80 233.93 323.49 232.90 M 343.34 237.95 L 343.36 239.75 C 342.87 239.71 341.89 239.64 341.40 239.61 C 341.94 240.52 342.46 241.44 342.99 242.36 C 343.86 241.92 344.74 241.48 345.62 241.05 C 344.85 240.01 344.09 238.98 343.34 237.95 M 298.77 243.27 C 299.42 244.80 300.23 244.88 301.22 243.52 C 300.56 241.98 299.74 241.90 298.77 243.27 Z" />
</g>
<g id="#f5fbf6ff">
<path fill="#f5fbf6" opacity="1.00" d=" M 223.21 139.19 C 255.26 135.16 288.28 138.33 318.81 148.93 C 321.31 149.65 324.19 151.63 326.33 149.06 C 325.73 148.60 324.54 147.69 323.94 147.24 C 324.96 146.49 326.00 145.77 327.05 145.05 C 328.03 145.71 329.03 146.37 330.04 147.02 C 329.13 148.07 328.89 149.34 329.06 150.69 C 327.48 149.77 325.71 150.16 324.04 150.57 C 346.58 159.44 368.03 171.43 386.46 187.25 C 386.39 188.49 386.33 189.73 386.27 190.96 C 385.84 192.61 385.46 194.26 385.05 195.91 C 384.64 197.61 384.32 199.32 384.01 201.04 C 383.65 200.86 382.91 200.49 382.55 200.31 C 355.45 176.23 321.70 159.74 286.02 153.31 C 262.76 149.00 238.78 149.17 215.46 152.93 C 216.55 148.77 218.25 144.76 218.79 140.47 C 219.14 140.33 219.86 140.05 220.21 139.91 C 221.19 139.60 222.19 139.36 223.21 139.19 M 231.58 140.45 C 232.00 143.41 231.49 146.81 233.37 149.34 C 233.42 148.35 233.50 146.38 233.54 145.39 C 234.43 145.41 236.21 145.46 237.10 145.48 C 237.63 146.65 238.20 147.81 238.79 148.96 C 238.71 147.78 238.57 145.42 238.50 144.25 C 238.73 143.92 239.20 143.28 239.43 142.96 C 239.07 142.08 238.71 141.20 238.36 140.32 C 236.10 140.31 233.84 140.37 231.58 140.45 M 242.66 139.49 C 242.65 142.29 242.67 145.09 242.71 147.89 C 244.98 147.77 247.26 147.61 249.52 147.34 C 249.70 145.06 249.74 142.78 249.63 140.50 C 247.35 139.89 245.01 139.60 242.66 139.49 M 253.58 139.55 C 253.53 142.28 253.46 145.01 253.38 147.73 C 255.77 147.85 258.15 148.05 260.54 148.27 L 260.74 146.60 C 258.69 146.59 256.66 146.56 254.62 146.54 C 254.64 145.96 254.68 144.80 254.70 144.22 C 256.33 144.33 257.97 144.44 259.61 144.55 L 259.48 143.06 C 258.46 143.12 256.41 143.25 255.38 143.31 C 255.30 142.79 255.12 141.76 255.04 141.24 C 257.08 141.26 259.13 141.29 261.19 141.26 C 259.63 138.65 256.04 140.13 253.58 139.55 M 264.58 140.19 C 264.57 143.23 263.55 146.45 264.99 149.32 C 265.22 147.61 265.40 145.90 265.54 144.19 C 266.08 144.47 267.15 145.03 267.69 145.30 C 267.27 143.62 266.84 141.95 266.44 140.27 C 265.97 140.25 265.05 140.21 264.58 140.19 M 222.69 141.26 C 222.12 142.79 221.06 144.28 221.31 145.99 C 221.35 148.18 223.73 149.88 225.82 149.29 C 228.61 148.57 229.44 144.49 227.51 142.51 C 226.48 140.84 224.31 141.54 222.69 141.26 M 268.15 145.58 C 267.61 145.46 266.53 145.21 266.00 145.08 C 266.63 146.51 267.29 147.94 268.03 149.33 C 268.83 147.29 269.57 145.22 270.23 143.14 C 270.33 144.83 270.53 148.23 270.64 149.92 C 271.87 146.82 271.72 143.41 271.73 140.13 C 269.23 140.77 269.06 143.61 268.15 145.58 M 282.57 143.09 C 282.10 145.47 281.62 147.85 281.21 150.25 C 283.20 150.58 285.19 150.95 287.18 151.36 C 287.30 150.84 287.42 150.32 287.55 149.80 C 285.93 149.65 284.31 149.51 282.70 149.38 L 282.69 147.38 C 284.10 147.53 285.51 147.69 286.93 147.85 C 286.88 147.45 286.79 146.66 286.74 146.26 C 285.94 146.30 284.34 146.39 283.54 146.43 L 283.48 144.45 C 285.28 144.71 287.09 144.94 288.91 145.15 C 287.25 143.39 284.77 143.46 282.57 143.09 M 299.48 145.36 C 298.81 148.25 296.41 151.44 298.08 154.38 C 298.28 153.58 298.67 151.98 298.86 151.18 C 300.72 151.32 302.59 151.73 304.46 151.44 C 305.87 150.76 305.64 149.12 305.50 147.83 C 303.84 146.31 301.53 146.06 299.48 145.36 M 309.77 148.23 C 308.88 151.20 307.82 154.14 307.40 157.23 C 308.35 156.04 309.16 154.74 309.97 153.45 C 310.97 153.92 311.97 154.39 312.97 154.86 C 312.86 155.83 312.75 156.80 312.64 157.77 C 313.01 157.75 313.76 157.72 314.13 157.70 C 314.26 157.05 314.51 155.74 314.63 155.08 C 315.52 153.64 315.78 151.98 315.88 150.32 C 313.85 149.60 311.81 148.92 309.77 148.23 M 318.96 155.07 C 317.10 157.90 320.28 162.23 323.51 160.49 C 326.57 159.36 325.69 155.88 325.43 153.40 C 323.20 153.45 320.07 152.39 318.96 155.07 M 328.55 160.94 C 328.23 164.29 331.96 164.97 334.30 166.00 C 335.11 163.50 336.92 160.37 335.05 157.94 C 333.08 155.08 328.22 157.92 328.55 160.94 M 340.79 160.14 C 339.55 162.89 337.16 165.44 337.50 168.65 C 338.27 167.52 339.02 166.38 339.76 165.22 C 340.44 165.62 341.80 166.41 342.48 166.81 C 342.52 168.31 342.59 169.80 342.69 171.30 C 343.18 170.06 343.59 168.79 344.02 167.53 C 344.79 166.98 345.56 166.44 346.34 165.90 C 346.14 164.85 345.94 163.81 345.74 162.77 C 344.07 161.91 342.43 161.03 340.79 160.14 M 350.51 165.43 C 348.69 167.28 347.83 169.97 346.38 172.13 C 348.66 173.51 350.96 174.86 353.39 175.96 C 352.56 173.57 350.06 172.76 348.08 171.60 C 349.53 168.88 352.38 171.83 354.55 171.90 C 353.10 170.20 350.23 169.46 350.20 166.87 C 352.35 167.92 354.47 169.05 356.67 170.01 C 355.60 167.53 352.96 166.15 350.51 165.43 M 362.09 178.89 C 360.97 178.75 359.85 178.60 358.74 178.45 C 358.57 177.65 358.23 176.04 358.06 175.24 C 357.54 175.67 356.52 176.52 356.01 176.95 C 357.48 178.63 359.28 179.95 361.37 180.78 C 361.98 180.33 363.19 179.42 363.80 178.96 C 362.70 176.98 361.30 175.22 359.84 173.51 C 360.42 173.44 361.57 173.30 362.14 173.23 C 362.87 174.47 363.61 175.71 364.37 176.94 C 364.51 175.85 364.65 174.75 364.79 173.66 C 363.24 172.82 361.73 171.78 359.96 171.49 C 356.41 173.59 360.77 176.71 362.09 178.89 M 367.54 178.96 C 367.90 181.52 370.19 183.36 370.55 185.97 C 368.54 184.61 366.86 182.86 365.19 181.13 C 365.27 184.18 367.73 185.96 370.34 186.95 C 370.90 186.42 372.01 185.35 372.57 184.82 C 371.32 182.91 369.99 181.05 368.76 179.13 C 371.60 178.82 372.60 181.26 373.20 183.59 C 373.38 182.73 373.73 181.02 373.91 180.17 C 372.55 179.17 371.18 178.17 369.82 177.18 C 369.25 177.63 368.11 178.52 367.54 178.96 M 374.39 187.92 C 374.50 188.65 374.74 190.11 374.85 190.84 C 375.32 191.29 376.27 192.20 376.75 192.65 C 379.71 192.83 381.87 190.89 382.65 188.11 C 382.28 187.41 381.54 186.01 381.18 185.31 C 378.48 183.80 375.81 185.53 374.39 187.92 Z" />
<path fill="#f5fbf6" opacity="1.00" d=" M 244.28 141.16 C 245.71 141.26 247.14 141.37 248.57 141.50 C 248.56 143.12 248.50 144.73 248.42 146.35 C 247.02 146.41 245.62 146.46 244.23 146.52 C 244.24 144.73 244.26 142.94 244.28 141.16 Z" />
<path fill="#f5fbf6" opacity="1.00" d=" M 233.29 143.82 C 233.31 143.27 233.37 142.16 233.40 141.61 C 234.42 141.60 236.46 141.57 237.47 141.56 L 237.51 143.66 C 236.10 143.71 234.69 143.76 233.29 143.82 Z" />
<path fill="#f5fbf6" opacity="1.00" d=" M 222.18 143.79 C 223.92 142.80 225.74 142.83 227.50 143.77 C 227.10 145.19 226.70 146.62 226.30 148.05 C 223.70 148.11 222.43 146.21 222.18 143.79 Z" />
<path fill="#f5fbf6" opacity="1.00" d=" M 300.09 147.43 C 301.26 147.56 302.44 147.69 303.62 147.82 C 303.67 148.44 303.78 149.68 303.84 150.30 C 302.59 150.01 301.35 149.73 300.12 149.45 C 300.11 148.95 300.10 147.94 300.09 147.43 Z" />
<path fill="#f5fbf6" opacity="1.00" d=" M 310.57 150.02 C 312.21 150.87 315.16 150.78 314.74 153.52 C 313.25 153.13 311.76 152.73 310.28 152.34 C 310.36 151.76 310.50 150.60 310.57 150.02 Z" />
<path fill="#f5fbf6" opacity="1.00" d=" M 320.86 154.57 C 322.02 154.52 323.20 154.47 324.37 154.43 C 324.41 155.33 324.48 157.14 324.52 158.04 C 323.87 158.49 322.57 159.39 321.92 159.83 C 321.09 158.94 320.26 158.05 319.45 157.15 C 319.80 156.51 320.50 155.22 320.86 154.57 Z" />
<path fill="#f5fbf6" opacity="1.00" d=" M 228.79 155.67 C 229.10 157.42 230.10 158.56 232.02 158.57 C 231.31 159.02 230.60 159.47 229.90 159.92 C 230.24 160.57 230.93 161.86 231.28 162.50 C 230.59 162.09 229.22 161.26 228.53 160.84 C 227.73 161.40 226.92 161.95 226.12 162.51 C 226.40 161.85 226.97 160.55 227.25 159.90 C 226.52 159.38 225.78 158.86 225.04 158.36 C 226.91 158.40 228.18 157.46 228.79 155.67 Z" />
<path fill="#f5fbf6" opacity="1.00" d=" M 330.94 158.49 C 331.77 158.51 333.45 158.56 334.29 158.58 C 334.41 159.59 334.53 160.61 334.65 161.63 C 334.07 161.55 332.90 161.38 332.31 161.30 C 332.58 161.86 333.11 162.98 333.38 163.54 C 332.74 163.52 331.44 163.46 330.79 163.44 C 330.51 162.84 329.96 161.65 329.68 161.06 C 329.99 160.41 330.62 159.13 330.94 158.49 Z" />
<path fill="#f5fbf6" opacity="1.00" d=" M 340.91 162.01 C 342.28 163.05 345.92 163.27 344.41 165.67 C 343.01 165.36 341.66 164.82 340.31 164.37 C 340.46 163.78 340.76 162.60 340.91 162.01 Z" />
<path fill="#f5fbf6" opacity="1.00" d=" M 323.62 168.41 C 324.36 169.23 325.09 170.04 325.84 170.86 C 324.71 171.52 323.58 172.18 322.46 172.84 C 322.45 172.18 322.44 170.85 322.43 170.18 C 322.73 169.74 323.32 168.85 323.62 168.41 Z" />
<path fill="#f5fbf6" opacity="1.00" d=" M 266.51 176.44 C 267.40 176.91 268.30 177.37 269.20 177.83 C 268.14 178.78 267.77 179.83 268.79 180.97 C 267.52 180.33 266.17 179.93 264.90 180.83 C 265.27 179.70 264.97 178.71 264.15 177.89 C 264.74 177.53 265.92 176.80 266.51 176.44 Z" />
<path fill="#f5fbf6" opacity="1.00" d=" M 300.02 186.35 C 300.70 187.24 301.54 187.95 302.60 188.38 C 301.52 189.16 301.36 190.26 301.73 191.49 C 300.63 190.65 299.49 190.48 298.40 191.43 C 298.60 190.20 298.46 189.04 297.33 188.32 C 298.44 187.96 299.34 187.31 300.02 186.35 Z" />
<path fill="#f5fbf6" opacity="1.00" d=" M 376.44 186.46 C 377.84 186.41 379.25 186.36 380.66 186.34 C 380.61 187.61 380.55 188.89 380.48 190.16 C 379.78 190.54 378.37 191.31 377.67 191.69 C 376.13 190.28 376.09 188.37 376.44 186.46 Z" />
<path fill="#f5fbf6" opacity="1.00" d=" M 244.55 189.27 C 246.50 188.66 247.13 191.83 245.22 192.23 C 243.37 192.75 242.62 189.58 244.55 189.27 Z" />
<path fill="#f5fbf6" opacity="1.00" d=" M 236.38 192.74 C 236.68 194.71 238.28 194.97 239.99 194.96 C 239.27 195.38 238.56 195.80 237.84 196.22 C 238.02 197.00 238.37 198.57 238.54 199.35 C 237.79 198.71 237.04 198.07 236.30 197.43 C 235.91 197.88 235.13 198.77 234.74 199.21 C 234.76 197.49 234.48 195.86 232.84 194.97 C 234.52 195.05 235.81 194.39 236.38 192.74 Z" />
<path fill="#f5fbf6" opacity="1.00" d=" M 310.12 194.48 C 310.87 195.15 311.72 195.66 312.68 195.99 C 312.04 197.03 310.52 197.94 312.05 199.41 C 310.74 198.46 309.38 198.42 307.97 199.29 C 308.25 198.69 308.81 197.50 309.09 196.90 C 308.29 196.61 307.50 196.33 306.70 196.06 C 308.09 196.02 309.23 195.49 310.12 194.48 Z" />
<path fill="#f5fbf6" opacity="1.00" d=" M 289.38 196.05 C 290.24 195.75 291.10 195.45 291.97 195.15 C 292.26 196.29 292.54 197.43 292.82 198.58 C 292.21 198.51 291.00 198.39 290.39 198.32 C 290.05 197.56 289.71 196.80 289.38 196.05 Z" />
<path fill="#f5fbf6" opacity="1.00" d=" M 224.22 202.74 C 225.38 202.68 226.54 202.80 227.69 202.96 C 227.33 203.76 226.97 204.56 226.59 205.35 C 225.82 205.47 225.05 205.61 224.28 205.77 C 224.27 204.76 224.25 203.75 224.22 202.74 Z" />
<path fill="#f5fbf6" opacity="1.00" d=" M 251.99 203.88 C 253.21 203.52 254.26 202.87 255.15 201.93 L 254.94 203.75 C 255.48 203.66 256.55 203.47 257.09 203.37 C 256.40 204.57 255.97 205.85 256.31 207.24 C 255.22 206.25 254.04 206.02 252.87 206.98 C 253.01 205.83 252.66 204.80 251.99 203.88 Z" />
<path fill="#f5fbf6" opacity="1.00" d=" M 294.50 202.10 C 295.58 200.48 297.73 202.55 296.71 203.92 C 295.67 205.55 293.40 203.45 294.50 202.10 Z" />
<path fill="#f5fbf6" opacity="1.00" d=" M 357.74 205.01 C 359.25 204.63 360.64 203.99 361.16 202.42 C 361.85 203.96 363.27 204.60 364.84 204.97 C 364.10 205.37 363.38 205.77 362.66 206.18 C 363.03 207.05 363.40 207.92 363.77 208.80 C 362.98 208.29 362.19 207.78 361.40 207.27 C 360.80 207.63 359.60 208.33 358.99 208.68 C 359.30 207.81 359.62 206.94 359.94 206.08 C 359.20 205.72 358.47 205.36 357.74 205.01 Z" />
<path fill="#f5fbf6" opacity="1.00" d=" M 371.50 205.99 C 372.34 205.49 373.18 204.99 374.02 204.48 C 374.37 205.55 374.72 206.63 375.07 207.71 C 374.40 207.74 373.08 207.81 372.42 207.85 C 372.11 207.22 371.80 206.61 371.50 205.99 Z" />
<path fill="#f5fbf6" opacity="1.00" d=" M 249.44 212.77 C 250.30 212.27 251.16 211.76 252.02 211.25 C 252.42 211.54 253.21 212.12 253.61 212.42 C 253.57 213.50 253.54 214.60 253.52 215.69 C 252.42 215.14 251.29 215.10 250.24 215.82 C 250.50 214.67 250.25 213.62 249.44 212.77 Z" />
<path fill="#f5fbf6" opacity="1.00" d=" M 296.63 213.36 C 298.33 213.32 299.38 212.33 299.99 210.84 C 300.55 212.43 301.68 213.26 303.38 213.34 C 301.52 214.25 301.41 215.81 302.25 217.61 C 301.69 217.12 300.56 216.14 299.99 215.65 C 299.43 216.14 298.31 217.11 297.75 217.59 C 298.58 215.81 298.50 214.24 296.63 213.36 Z" />
<path fill="#f5fbf6" opacity="1.00" d=" M 365.09 210.72 C 365.33 211.29 365.82 212.43 366.07 213.00 L 367.60 211.58 C 367.38 213.19 366.57 214.64 366.17 216.21 C 365.91 215.82 365.38 215.04 365.12 214.65 C 364.50 215.03 363.27 215.79 362.65 216.17 C 362.95 215.59 363.53 214.42 363.83 213.83 C 363.25 213.62 362.10 213.20 361.53 212.99 C 362.42 212.43 364.20 211.29 365.09 210.72 Z" />
<path fill="#f5fbf6" opacity="1.00" d=" M 264.90 217.85 C 265.47 219.47 266.60 220.50 268.38 220.69 C 267.00 221.34 266.28 222.39 266.73 223.95 C 265.35 223.18 264.04 223.28 262.79 224.25 C 263.80 222.39 263.06 221.23 261.19 220.67 C 262.89 220.34 264.53 219.80 264.90 217.85 Z" />
<path fill="#f5fbf6" opacity="1.00" d=" M 357.16 219.75 C 358.15 219.36 358.96 218.73 359.59 217.86 C 360.07 218.35 361.04 219.34 361.53 219.84 C 361.35 220.91 361.17 221.97 361.01 223.05 C 360.64 222.68 359.90 221.94 359.53 221.57 C 359.27 221.91 358.76 222.58 358.50 222.92 C 358.04 221.85 357.61 220.80 357.16 219.75 Z" />
<path fill="#f5fbf6" opacity="1.00" d=" M 341.62 222.84 C 341.99 222.47 342.73 221.74 343.10 221.38 C 343.98 221.91 344.87 222.45 345.77 222.98 C 345.43 223.11 344.76 223.37 344.42 223.50 L 345.06 224.64 C 344.33 224.64 342.87 224.66 342.14 224.66 C 341.96 224.05 341.79 223.44 341.62 222.84 Z" />
<path fill="#f5fbf6" opacity="1.00" d=" M 317.35 223.37 C 318.02 223.02 318.69 222.67 319.37 222.33 C 320.28 222.90 321.20 223.46 322.13 224.03 L 320.22 223.63 C 320.37 224.09 320.66 224.99 320.81 225.44 C 320.20 225.46 318.98 225.48 318.37 225.49 C 318.02 224.78 317.69 224.07 317.35 223.37 Z" />
<path fill="#f5fbf6" opacity="1.00" d=" M 352.46 223.20 C 353.11 223.58 353.77 223.96 354.44 224.34 C 354.10 225.03 353.73 225.71 353.35 226.38 C 352.91 226.41 352.04 226.46 351.60 226.49 C 351.25 225.83 350.91 225.16 350.56 224.51 C 351.04 224.18 351.99 223.53 352.46 223.20 Z" />
<path fill="#f5fbf6" opacity="1.00" d=" M 331.44 225.75 C 332.28 225.27 333.12 224.77 333.96 224.27 C 334.10 224.61 334.38 225.29 334.52 225.63 L 335.88 225.04 C 335.45 225.92 335.03 226.80 334.61 227.69 C 334.14 227.66 333.21 227.60 332.74 227.57 C 332.42 227.11 331.77 226.21 331.44 225.75 Z" />
<path fill="#f5fbf6" opacity="1.00" d=" M 341.30 231.75 C 342.16 230.89 343.01 230.02 343.85 229.15 C 344.50 229.91 345.17 230.67 345.85 231.42 C 345.65 231.96 345.27 233.03 345.08 233.57 C 343.94 233.55 342.81 233.54 341.68 233.54 C 341.95 233.18 342.49 232.45 342.76 232.09 C 342.40 232.00 341.67 231.83 341.30 231.75 Z" />
<path fill="#f5fbf6" opacity="1.00" d=" M 323.49 232.90 C 325.80 233.93 325.55 231.62 326.04 230.44 C 326.32 232.42 328.13 233.07 329.83 233.43 C 327.59 233.32 327.04 234.38 328.16 236.61 C 326.92 235.38 325.71 235.34 324.53 236.50 C 324.49 235.23 324.98 233.71 323.49 232.90 Z" />
<path fill="#f5fbf6" opacity="1.00" d=" M 343.34 237.95 C 344.09 238.98 344.85 240.01 345.62 241.05 C 344.74 241.48 343.86 241.92 342.99 242.36 C 342.46 241.44 341.94 240.52 341.40 239.61 C 341.89 239.64 342.87 239.71 343.36 239.75 L 343.34 237.95 Z" />
<path fill="#f5fbf6" opacity="1.00" d=" M 298.77 243.27 C 299.74 241.90 300.56 241.98 301.22 243.52 C 300.23 244.88 299.42 244.80 298.77 243.27 Z" />
</g>
</svg>
