<?xml version="1.0" encoding="UTF-8" ?>
<!DOCTYPE svg PUBLIC "-//W3C//DTD SVG 1.1//EN" "http://www.w3.org/Graphics/SVG/1.1/DTD/svg11.dtd">
<svg width="850pt" height="869pt" viewBox="0 0 850 869" version="1.1" xmlns="http://www.w3.org/2000/svg">
<g id="#7f3487ff">
<path fill="#7f3487" opacity="1.00" d=" M 27.35 24.49 C 28.58 24.34 29.81 24.26 31.04 24.25 C 291.04 24.26 551.04 24.24 811.04 24.26 C 823.54 23.65 833.59 36.01 832.78 48.03 C 832.75 305.68 832.74 563.32 832.78 820.97 C 833.29 830.00 827.92 838.78 820.08 843.06 C 816.67 844.82 812.72 844.63 809.01 844.92 C 780.65 844.55 752.28 844.84 723.92 844.75 C 494.96 844.75 266.00 844.75 37.04 844.75 C 32.82 844.74 28.33 845.38 24.39 843.46 C 17.66 840.62 11.99 834.47 10.99 827.09 C 10.90 565.72 11.06 304.33 10.98 42.96 C 10.85 36.15 15.79 30.74 20.76 26.72 C 22.52 25.03 25.07 24.88 27.35 24.49 M 377.46 132.36 C 368.01 135.75 358.07 137.41 348.53 140.48 C 325.38 147.07 302.68 155.39 279.05 160.14 C 278.51 160.91 277.97 161.69 277.44 162.46 C 268.24 163.60 259.52 167.05 250.33 168.26 C 249.60 169.15 249.36 170.85 247.93 170.84 C 240.12 172.43 232.20 173.72 224.73 176.61 C 218.93 179.08 212.50 179.27 206.61 181.48 C 200.00 183.58 193.86 187.01 188.32 191.16 C 181.60 196.96 174.71 203.29 171.72 211.90 C 168.77 218.90 169.59 226.60 169.22 234.00 C 169.00 239.37 169.22 244.76 169.97 250.08 C 170.80 255.59 173.08 260.72 174.49 266.08 C 177.13 275.41 178.68 285.05 181.93 294.20 C 184.56 300.61 186.06 307.40 188.08 314.00 C 196.81 343.96 205.58 373.91 213.95 403.97 C 217.10 413.25 220.33 422.62 221.07 432.47 C 221.51 431.82 222.40 430.51 222.84 429.86 C 223.93 441.23 227.41 452.13 230.93 462.94 C 233.57 471.98 236.32 481.00 239.06 490.02 C 244.92 510.45 250.36 531.00 256.54 551.34 C 260.51 565.58 265.40 579.57 268.25 594.10 C 268.74 593.47 269.74 592.22 270.24 591.59 C 269.86 598.25 270.92 605.08 274.13 611.00 C 278.43 618.85 276.91 628.51 281.67 636.18 C 284.41 650.33 289.11 664.00 292.82 677.90 C 293.87 680.95 293.61 684.59 295.60 687.22 C 295.83 686.32 296.30 684.50 296.53 683.59 C 297.38 693.18 300.18 702.45 303.55 711.42 C 311.17 730.53 331.13 744.35 351.85 743.73 C 365.73 744.80 378.60 738.54 391.96 736.00 C 393.28 735.49 395.33 735.84 395.98 734.30 C 394.96 734.09 392.91 733.68 391.88 733.47 C 398.61 732.65 405.43 732.12 411.93 730.04 C 423.11 726.29 434.30 722.55 445.78 719.79 C 460.65 715.61 475.52 711.39 490.65 708.24 C 489.26 707.57 487.88 706.92 486.49 706.29 C 492.46 706.33 498.37 705.47 504.24 704.45 C 503.08 703.71 501.94 702.96 500.75 702.31 C 508.03 702.42 514.91 699.82 521.76 697.71 C 530.77 695.20 539.80 692.74 548.83 690.27 C 560.44 686.95 571.38 681.75 582.03 676.14 C 591.00 671.04 600.10 665.96 607.84 659.07 C 631.57 639.34 649.48 613.48 663.33 586.10 C 666.80 578.14 668.65 569.61 671.47 561.42 C 676.93 543.83 675.07 525.20 675.20 507.07 C 675.55 492.12 669.97 477.91 669.00 463.09 C 668.54 463.77 667.62 465.13 667.16 465.81 C 664.76 448.28 655.35 432.80 646.30 417.96 C 626.51 387.91 598.16 362.97 564.59 349.54 C 563.61 348.93 561.22 348.75 562.04 347.02 C 564.02 336.33 569.63 326.78 572.47 316.34 C 584.36 268.71 572.50 215.75 541.24 177.86 C 532.14 165.87 519.45 157.43 507.45 148.65 C 496.71 142.86 485.70 137.36 474.07 133.54 C 467.29 131.81 460.83 128.95 453.90 127.77 C 441.83 124.91 429.33 125.41 417.02 125.42 C 403.55 125.46 390.16 127.92 377.46 132.36 Z" />
<path fill="#7f3487" opacity="1.00" d=" M 460.42 161.56 C 460.46 161.57 460.52 161.59 460.56 161.61 C 460.52 161.59 460.46 161.57 460.42 161.56 Z" />
<path fill="#7f3487" opacity="1.00" d=" M 373.40 168.46 C 373.45 168.45 373.53 168.43 373.58 168.42 C 373.53 168.43 373.45 168.45 373.40 168.46 Z" />
<path fill="#7f3487" opacity="1.00" d=" M 484.39 171.44 C 484.44 171.46 484.52 171.52 484.56 171.54 C 484.52 171.52 484.44 171.46 484.39 171.44 Z" />
<path fill="#7f3487" opacity="1.00" d=" M 356.44 172.41 C 356.49 172.39 356.58 172.37 356.62 172.36 C 356.58 172.37 356.49 172.39 356.44 172.41 Z" />
<path fill="#7f3487" opacity="1.00" d=" M 487.42 173.41 C 487.46 173.44 487.54 173.50 487.59 173.52 C 487.54 173.50 487.46 173.44 487.42 173.41 Z" />
<path fill="#7f3487" opacity="1.00" d=" M 346.40 175.48 C 346.45 175.46 346.56 175.43 346.61 175.42 C 346.56 175.43 346.45 175.46 346.40 175.48 Z" />
<path fill="#7f3487" opacity="1.00" d=" M 307.45 187.51 C 307.50 187.49 307.59 187.46 307.64 187.44 C 307.59 187.46 307.50 187.49 307.45 187.51 Z" />
<path fill="#7f3487" opacity="1.00" d=" M 287.59 189.76 C 291.18 189.88 294.95 191.29 298.40 189.73 C 298.43 189.88 298.50 190.20 298.54 190.36 C 298.49 190.60 298.39 191.09 298.34 191.34 C 295.44 190.67 292.48 190.25 289.50 190.34 L 289.31 191.66 L 289.25 192.08 C 288.84 191.50 288.01 190.34 287.59 189.76 Z" />
<path fill="#7f3487" opacity="1.00" d=" M 275.35 196.49 C 275.39 196.48 275.49 196.45 275.54 196.44 C 275.49 196.45 275.39 196.48 275.35 196.49 Z" />
<path fill="#7f3487" opacity="1.00" d=" M 374.05 198.01 C 387.53 196.29 401.19 199.33 413.69 204.32 C 430.42 210.36 445.97 219.86 458.60 232.42 C 464.25 238.91 469.02 246.11 473.53 253.42 C 479.07 262.58 484.70 271.86 487.77 282.20 C 491.49 293.07 492.32 304.58 492.98 315.97 C 493.39 333.21 489.61 350.55 481.80 365.95 C 475.50 379.15 466.22 390.52 457.08 401.80 C 462.36 403.28 467.93 403.19 473.23 404.67 C 488.94 407.70 504.52 412.44 518.29 420.76 C 541.55 435.93 562.30 456.08 574.43 481.36 C 581.36 496.49 586.84 512.50 588.72 529.10 C 589.73 543.73 588.75 558.57 584.55 572.69 C 580.18 587.29 575.13 601.92 566.76 614.78 C 555.57 632.35 540.74 648.10 522.30 658.12 C 520.95 658.92 519.76 659.95 518.59 660.98 C 523.12 660.63 527.63 659.88 532.19 660.23 C 522.85 666.10 511.25 665.61 500.93 668.66 C 476.56 676.82 452.01 684.48 427.08 690.74 C 417.73 692.91 408.94 697.32 399.31 698.27 C 399.15 698.87 398.81 700.07 398.64 700.67 C 382.98 700.99 368.90 710.69 353.04 709.13 C 347.98 709.13 343.46 706.34 339.79 703.10 C 332.38 696.22 328.52 686.22 327.81 676.28 C 327.13 676.12 325.78 675.81 325.10 675.66 C 325.06 670.96 325.38 666.04 323.45 661.64 C 322.34 659.59 321.09 657.58 320.69 655.24 C 315.57 634.34 308.56 613.98 303.30 593.12 C 299.29 577.28 293.13 562.07 289.36 546.17 C 287.15 538.05 283.74 530.28 282.09 522.01 C 278.58 505.63 272.33 489.90 269.84 473.31 C 269.10 474.22 268.38 475.15 267.65 476.08 C 267.39 472.24 267.42 468.35 266.59 464.57 C 265.87 461.23 264.16 458.24 263.24 454.97 C 255.92 429.32 247.95 403.86 240.86 378.14 C 236.51 360.63 229.50 343.79 226.89 325.86 C 226.11 326.83 225.35 327.83 224.58 328.82 C 225.38 318.89 221.15 309.66 218.83 300.23 C 217.53 299.61 216.16 298.90 216.44 297.20 C 215.00 281.29 206.92 266.89 205.17 251.04 C 204.64 249.09 205.97 245.81 203.26 245.30 C 203.45 240.90 203.30 236.49 203.76 232.11 C 203.46 236.55 203.45 241.00 203.64 245.44 C 205.78 245.09 207.92 244.76 210.00 244.13 C 223.82 239.81 237.65 235.51 251.59 231.57 C 278.73 223.71 305.84 215.71 333.10 208.28 C 346.89 205.40 359.88 198.99 374.05 198.01 Z" />
<path fill="#7f3487" opacity="1.00" d=" M 268.40 198.45 C 268.45 198.43 268.55 198.40 268.60 198.39 C 268.55 198.40 268.45 198.43 268.40 198.45 Z" />
<path fill="#7f3487" opacity="1.00" d=" M 265.35 199.37 C 265.40 199.35 265.50 199.32 265.55 199.30 C 265.50 199.32 265.40 199.35 265.35 199.37 Z" />
<path fill="#7f3487" opacity="1.00" d=" M 245.25 205.08 L 246.23 204.68 L 247.03 205.17 C 246.55 205.36 245.58 205.75 245.10 205.95 L 245.25 205.08 Z" />
<path fill="#7f3487" opacity="1.00" d=" M 536.51 235.42 C 536.53 235.47 536.57 235.57 536.58 235.62 C 536.57 235.57 536.53 235.47 536.51 235.42 Z" />
<path fill="#7f3487" opacity="1.00" d=" M 535.86 318.75 C 536.07 318.29 536.50 317.37 536.72 316.92 L 537.18 317.73 L 536.72 318.66 L 535.86 318.75 Z" />
<path fill="#7f3487" opacity="1.00" d=" M 535.65 321.62 C 535.66 321.58 535.69 321.50 535.70 321.46 C 535.69 321.50 535.66 321.58 535.65 321.62 Z" />
<path fill="#7f3487" opacity="1.00" d=" M 526.43 339.54 C 526.45 339.50 526.50 339.42 526.52 339.38 C 526.50 339.42 526.45 339.50 526.43 339.54 Z" />
<path fill="#7f3487" opacity="1.00" d=" M 524.44 342.62 C 524.47 342.57 524.52 342.48 524.55 342.44 C 524.52 342.48 524.47 342.57 524.44 342.62 Z" />
<path fill="#7f3487" opacity="1.00" d=" M 506.41 363.55 C 506.44 363.51 506.48 363.45 506.51 363.41 C 506.48 363.45 506.44 363.51 506.41 363.55 Z" />
<path fill="#7f3487" opacity="1.00" d=" M 516.95 370.24 L 517.76 369.77 L 518.69 370.20 L 518.77 371.07 C 518.31 370.86 517.41 370.45 516.95 370.24 Z" />
<path fill="#7f3487" opacity="1.00" d=" M 527.39 372.45 C 527.43 372.46 527.53 372.48 527.57 372.49 C 527.53 372.48 527.43 372.46 527.39 372.45 Z" />
<path fill="#7f3487" opacity="1.00" d=" M 531.46 373.46 C 531.50 373.47 531.59 373.50 531.64 373.51 C 531.59 373.50 531.50 373.47 531.46 373.46 Z" />
<path fill="#7f3487" opacity="1.00" d=" M 538.44 375.43 C 538.48 375.44 538.57 375.47 538.61 375.48 C 538.57 375.47 538.48 375.44 538.44 375.43 Z" />
<path fill="#7f3487" opacity="1.00" d=" M 541.42 376.39 C 541.47 376.41 541.56 376.44 541.60 376.46 C 541.56 376.44 541.47 376.41 541.42 376.39 Z" />
<path fill="#7f3487" opacity="1.00" d=" M 573.35 391.45 C 573.39 391.48 573.46 391.53 573.50 391.55 C 573.46 391.53 573.39 391.48 573.35 391.45 Z" />
<path fill="#7f3487" opacity="1.00" d=" M 614.46 430.42 C 614.49 430.46 614.55 430.54 614.58 430.58 C 614.55 430.54 614.49 430.46 614.46 430.42 Z" />
<path fill="#7f3487" opacity="1.00" d=" M 632.44 461.38 C 632.46 461.42 632.50 461.51 632.52 461.55 C 632.50 461.51 632.46 461.42 632.44 461.38 Z" />
<path fill="#7f3487" opacity="1.00" d=" M 638.42 482.44 C 638.43 482.48 638.46 482.57 638.48 482.62 C 638.46 482.57 638.43 482.48 638.42 482.44 Z" />
<path fill="#7f3487" opacity="1.00" d=" M 637.87 553.71 C 638.09 553.25 638.55 552.34 638.78 551.88 L 639.21 552.70 L 638.74 553.63 L 637.87 553.71 Z" />
<path fill="#7f3487" opacity="1.00" d=" M 637.55 556.67 C 637.57 556.63 637.59 556.54 637.61 556.49 C 637.59 556.54 637.57 556.63 637.55 556.67 Z" />
<path fill="#7f3487" opacity="1.00" d=" M 634.49 565.64 C 634.51 565.58 634.56 565.46 634.58 565.40 C 634.56 565.46 634.51 565.58 634.49 565.64 Z" />
<path fill="#7f3487" opacity="1.00" d=" M 626.46 584.52 C 626.48 584.49 626.53 584.42 626.55 584.38 C 626.53 584.42 626.48 584.49 626.46 584.52 Z" />
<path fill="#7f3487" opacity="1.00" d=" M 617.52 598.64 C 617.54 598.61 617.59 598.53 617.61 598.50 C 617.59 598.53 617.54 598.61 617.52 598.64 Z" />
<path fill="#7f3487" opacity="1.00" d=" M 615.55 601.59 C 615.58 601.55 615.64 601.46 615.67 601.42 C 615.64 601.46 615.58 601.55 615.55 601.59 Z" />
<path fill="#7f3487" opacity="1.00" d=" M 613.49 604.60 C 613.51 604.56 613.57 604.48 613.59 604.44 C 613.57 604.48 613.51 604.56 613.49 604.60 Z" />
<path fill="#7f3487" opacity="1.00" d=" M 582.45 635.59 C 582.49 635.56 582.56 635.50 582.60 635.47 C 582.56 635.50 582.49 635.56 582.45 635.59 Z" />
<path fill="#7f3487" opacity="1.00" d=" M 575.45 640.60 C 575.49 640.57 575.56 640.52 575.60 640.50 C 575.56 640.52 575.49 640.57 575.45 640.60 Z" />
<path fill="#7f3487" opacity="1.00" d=" M 550.46 654.45 C 550.50 654.43 550.58 654.40 550.62 654.38 C 550.58 654.40 550.50 654.43 550.46 654.45 Z" />
<path fill="#7f3487" opacity="1.00" d=" M 547.45 655.57 C 547.50 655.55 547.60 655.51 547.66 655.50 C 547.60 655.51 547.50 655.55 547.45 655.57 Z" />
<path fill="#7f3487" opacity="1.00" d=" M 538.43 658.56 C 538.48 658.54 538.58 658.52 538.63 658.50 C 538.58 658.52 538.48 658.54 538.43 658.56 Z" />
</g>
<g id="#fcfbfcff">
<path fill="#fcfbfc" opacity="1.00" d=" M 377.46 132.36 C 390.16 127.92 403.55 125.46 417.02 125.42 C 429.33 125.41 441.83 124.91 453.90 127.77 C 460.83 128.95 467.29 131.81 474.07 133.54 C 485.70 137.36 496.71 142.86 507.45 148.65 C 519.45 157.43 532.14 165.87 541.24 177.86 C 572.50 215.75 584.36 268.71 572.47 316.34 C 569.63 326.78 564.02 336.33 562.04 347.02 C 561.22 348.75 563.61 348.93 564.59 349.54 C 598.16 362.97 626.51 387.91 646.30 417.96 C 655.35 432.80 664.76 448.28 667.16 465.81 C 667.62 465.13 668.54 463.77 669.00 463.09 C 669.97 477.91 675.55 492.12 675.20 507.07 C 675.07 525.20 676.93 543.83 671.47 561.42 C 668.65 569.61 666.80 578.14 663.33 586.10 C 649.48 613.48 631.57 639.34 607.84 659.07 C 600.10 665.96 591.00 671.04 582.03 676.14 C 571.38 681.75 560.44 686.95 548.83 690.27 C 539.80 692.74 530.77 695.20 521.76 697.71 C 514.91 699.82 508.03 702.42 500.75 702.31 C 501.94 702.96 503.08 703.71 504.24 704.45 C 498.37 705.47 492.46 706.33 486.49 706.29 C 487.88 706.92 489.26 707.57 490.65 708.24 C 475.52 711.39 460.65 715.61 445.78 719.79 C 434.30 722.55 423.11 726.29 411.93 730.04 C 405.43 732.12 398.61 732.65 391.88 733.47 C 392.91 733.68 394.96 734.09 395.98 734.30 C 395.33 735.84 393.28 735.49 391.96 736.00 C 378.60 738.54 365.73 744.80 351.85 743.73 C 331.13 744.35 311.17 730.53 303.55 711.42 C 300.18 702.45 297.38 693.18 296.53 683.59 C 296.30 684.50 295.83 686.32 295.60 687.22 C 293.61 684.59 293.87 680.95 292.82 677.90 C 289.11 664.00 284.41 650.33 281.67 636.18 C 276.91 628.51 278.43 618.85 274.13 611.00 C 270.92 605.08 269.86 598.25 270.24 591.59 C 269.74 592.22 268.74 593.47 268.25 594.10 C 265.40 579.57 260.51 565.58 256.54 551.34 C 250.36 531.00 244.92 510.45 239.06 490.02 C 236.32 481.00 233.57 471.98 230.93 462.94 C 227.41 452.13 223.93 441.23 222.84 429.86 C 222.40 430.51 221.51 431.82 221.07 432.47 C 220.33 422.62 217.10 413.25 213.95 403.97 C 205.58 373.91 196.81 343.96 188.08 314.00 C 186.06 307.40 184.56 300.61 181.93 294.20 C 178.68 285.05 177.13 275.41 174.49 266.08 C 173.08 260.72 170.80 255.59 169.97 250.08 C 169.22 244.76 169.00 239.37 169.22 234.00 C 169.59 226.60 168.77 218.90 171.72 211.90 C 174.71 203.29 181.60 196.96 188.32 191.16 C 193.86 187.01 200.00 183.58 206.61 181.48 C 212.50 179.27 218.93 179.08 224.73 176.61 C 232.20 173.72 240.12 172.43 247.93 170.84 C 249.36 170.85 249.60 169.15 250.33 168.26 C 259.52 167.05 268.24 163.60 277.44 162.46 C 277.97 161.69 278.51 160.91 279.05 160.14 C 302.68 155.39 325.38 147.07 348.53 140.48 C 358.07 137.41 368.01 135.75 377.46 132.36 M 395.41 161.51 C 388.32 164.35 381.13 167.08 373.58 168.42 C 373.53 168.43 373.45 168.45 373.40 168.46 C 367.82 169.82 362.18 170.92 356.62 172.36 C 356.58 172.37 356.49 172.39 356.44 172.41 C 353.13 173.29 349.91 174.48 346.61 175.42 C 346.56 175.43 346.45 175.46 346.40 175.48 C 333.28 178.78 320.73 184.00 307.64 187.44 C 307.59 187.46 307.50 187.49 307.45 187.51 C 304.56 188.54 301.71 189.88 298.60 190.05 L 298.54 190.36 C 298.50 190.20 298.43 189.88 298.40 189.73 C 294.95 191.29 291.18 189.88 287.59 189.76 C 288.01 190.34 288.84 191.50 289.25 192.08 L 289.31 191.66 C 289.79 192.23 290.73 193.38 291.21 193.96 C 285.90 194.07 280.68 195.23 275.54 196.44 C 275.49 196.45 275.39 196.48 275.35 196.49 C 273.08 197.08 270.84 197.71 268.60 198.39 C 268.55 198.40 268.45 198.43 268.40 198.45 C 267.68 198.66 266.26 199.09 265.55 199.30 C 265.50 199.32 265.40 199.35 265.35 199.37 C 259.34 201.62 253.14 203.26 247.03 205.17 L 246.23 204.68 L 245.25 205.08 L 245.10 205.95 C 238.51 206.32 232.19 208.81 226.07 211.20 C 222.52 212.56 218.61 212.64 215.10 214.09 C 210.84 215.91 207.70 219.56 205.21 223.35 C 203.87 226.06 204.03 229.17 203.76 232.11 C 203.30 236.49 203.45 240.90 203.26 245.30 C 205.97 245.81 204.64 249.09 205.17 251.04 C 206.92 266.89 215.00 281.29 216.44 297.20 C 216.16 298.90 217.53 299.61 218.83 300.23 C 221.15 309.66 225.38 318.89 224.58 328.82 C 225.35 327.83 226.11 326.83 226.89 325.86 C 229.50 343.79 236.51 360.63 240.86 378.14 C 247.95 403.86 255.92 429.32 263.24 454.97 C 264.16 458.24 265.87 461.23 266.59 464.57 C 267.42 468.35 267.39 472.24 267.65 476.08 C 268.38 475.15 269.10 474.22 269.84 473.31 C 272.33 489.90 278.58 505.63 282.09 522.01 C 283.74 530.28 287.15 538.05 289.36 546.17 C 293.13 562.07 299.29 577.28 303.30 593.12 C 308.56 613.98 315.57 634.34 320.69 655.24 C 321.09 657.58 322.34 659.59 323.45 661.64 C 325.38 666.04 325.06 670.96 325.10 675.66 C 325.78 675.81 327.13 676.12 327.81 676.28 C 328.52 686.22 332.38 696.22 339.79 703.10 C 343.46 706.34 347.98 709.13 353.04 709.13 C 368.90 710.69 382.98 700.99 398.64 700.67 C 398.81 700.07 399.15 698.87 399.31 698.27 C 408.94 697.32 417.73 692.91 427.08 690.74 C 452.01 684.48 476.56 676.82 500.93 668.66 C 511.25 665.61 522.85 666.10 532.19 660.23 C 534.31 659.83 536.35 659.09 538.43 658.56 C 538.48 658.54 538.58 658.52 538.63 658.50 C 541.64 657.76 544.55 656.67 547.45 655.57 C 547.50 655.55 547.60 655.51 547.66 655.50 C 548.36 655.23 549.76 654.71 550.46 654.45 C 550.50 654.43 550.58 654.40 550.62 654.38 C 559.39 650.72 567.49 645.73 575.45 640.60 C 575.49 640.57 575.56 640.52 575.60 640.50 C 577.90 638.88 580.17 637.24 582.45 635.59 C 582.49 635.56 582.56 635.50 582.60 635.47 C 594.10 626.51 605.58 617.04 613.49 604.60 C 613.51 604.56 613.57 604.48 613.59 604.44 C 614.08 603.73 615.06 602.30 615.55 601.59 C 615.58 601.55 615.64 601.46 615.67 601.42 C 616.13 600.73 617.05 599.34 617.52 598.64 C 617.54 598.61 617.59 598.53 617.61 598.50 C 620.56 593.84 623.36 589.09 626.46 584.52 C 626.48 584.49 626.53 584.42 626.55 584.38 C 630.28 578.67 631.91 571.90 634.49 565.64 C 634.51 565.58 634.56 565.46 634.58 565.40 C 635.55 562.48 636.56 559.58 637.55 556.67 C 637.57 556.63 637.59 556.54 637.61 556.49 C 637.67 555.80 637.80 554.41 637.87 553.71 L 638.74 553.63 L 639.21 552.70 L 638.78 551.88 C 640.46 548.56 639.83 544.72 640.62 541.18 C 641.63 527.51 642.29 513.75 641.03 500.06 C 641.23 494.14 640.75 488.15 638.48 482.62 C 638.46 482.57 638.43 482.48 638.42 482.44 C 637.03 478.70 635.30 474.99 634.96 470.97 C 634.63 467.72 633.84 464.53 632.52 461.55 C 632.50 461.51 632.46 461.42 632.44 461.38 C 626.97 450.86 621.57 440.20 614.58 430.58 C 614.55 430.54 614.49 430.46 614.46 430.42 C 609.74 423.91 604.51 417.80 599.05 411.91 C 591.65 403.84 582.57 397.57 573.50 391.55 C 573.46 391.53 573.39 391.48 573.35 391.45 C 563.28 385.45 552.76 380.13 541.60 376.46 C 541.56 376.44 541.47 376.41 541.42 376.39 C 540.72 376.17 539.32 375.71 538.61 375.48 C 538.57 375.47 538.48 375.44 538.44 375.43 C 536.18 374.74 533.91 374.11 531.64 373.51 C 531.59 373.50 531.50 373.47 531.46 373.46 C 530.49 373.22 528.54 372.73 527.57 372.49 C 527.53 372.48 527.43 372.46 527.39 372.45 C 524.54 371.92 521.71 370.50 518.77 371.07 L 518.69 370.20 L 517.76 369.77 L 516.95 370.24 C 512.51 369.51 507.94 369.39 503.57 368.36 C 504.46 366.72 505.37 365.10 506.41 363.55 C 506.44 363.51 506.48 363.45 506.51 363.41 C 509.16 359.79 512.92 357.21 515.83 353.82 C 518.91 350.25 521.86 346.56 524.44 342.62 C 524.47 342.57 524.52 342.48 524.55 342.44 C 525.02 341.71 525.96 340.26 526.43 339.54 C 526.45 339.50 526.50 339.42 526.52 339.38 C 530.00 333.70 533.75 328.08 535.65 321.62 C 535.66 321.58 535.69 321.50 535.70 321.46 C 535.74 320.78 535.82 319.42 535.86 318.75 L 536.72 318.66 L 537.18 317.73 L 536.72 316.92 C 537.47 313.56 538.03 310.15 538.08 306.71 C 539.10 308.09 540.21 309.41 541.39 310.68 C 539.94 290.29 542.84 269.79 540.44 249.46 C 539.45 244.77 538.14 240.15 536.58 235.62 C 536.57 235.57 536.53 235.47 536.51 235.42 C 532.68 224.53 526.62 214.61 519.71 205.42 C 510.34 193.57 499.97 182.28 487.59 173.52 C 487.54 173.50 487.46 173.44 487.42 173.41 C 486.70 172.94 485.27 172.01 484.56 171.54 C 484.52 171.52 484.44 171.46 484.39 171.44 C 479.08 167.80 473.23 164.92 466.99 163.30 C 464.78 162.97 462.63 162.39 460.56 161.61 C 460.52 161.59 460.46 161.57 460.42 161.56 C 445.59 157.60 430.08 159.77 414.93 159.18 C 408.36 158.86 401.72 159.65 395.41 161.51 Z" />
</g>
<g id="#4c215cff">
<path fill="#4c215c" opacity="1.00" d=" M 395.41 161.51 C 401.72 159.65 408.36 158.86 414.93 159.18 C 430.08 159.77 445.59 157.60 460.42 161.56 C 460.46 161.57 460.52 161.59 460.56 161.61 C 462.63 162.39 464.78 162.97 466.99 163.30 C 473.23 164.92 479.08 167.80 484.39 171.44 C 484.44 171.46 484.52 171.52 484.56 171.54 C 485.27 172.01 486.70 172.94 487.42 173.41 C 487.46 173.44 487.54 173.50 487.59 173.52 C 499.97 182.28 510.34 193.57 519.71 205.42 C 526.62 214.61 532.68 224.53 536.51 235.42 C 536.53 235.47 536.57 235.57 536.58 235.62 C 538.14 240.15 539.45 244.77 540.44 249.46 C 542.84 269.79 539.94 290.29 541.39 310.68 C 540.21 309.41 539.10 308.09 538.08 306.71 C 538.03 310.15 537.47 313.56 536.72 316.92 C 536.50 317.37 536.07 318.29 535.86 318.75 C 535.82 319.42 535.74 320.78 535.70 321.46 C 535.69 321.50 535.66 321.58 535.65 321.62 C 533.75 328.08 530.00 333.70 526.52 339.38 C 526.50 339.42 526.45 339.50 526.43 339.54 C 525.96 340.26 525.02 341.71 524.55 342.44 C 524.52 342.48 524.47 342.57 524.44 342.62 C 521.86 346.56 518.91 350.25 515.83 353.82 C 512.92 357.21 509.16 359.79 506.51 363.41 C 506.48 363.45 506.44 363.51 506.41 363.55 C 505.37 365.10 504.46 366.72 503.57 368.36 C 507.94 369.39 512.51 369.51 516.95 370.24 C 517.41 370.45 518.31 370.86 518.77 371.07 C 521.71 370.50 524.54 371.92 527.39 372.45 C 527.43 372.46 527.53 372.48 527.57 372.49 C 528.54 372.73 530.49 373.22 531.46 373.46 C 531.50 373.47 531.59 373.50 531.64 373.51 C 533.91 374.11 536.18 374.74 538.44 375.43 C 538.48 375.44 538.57 375.47 538.61 375.48 C 539.32 375.71 540.72 376.17 541.42 376.39 C 541.47 376.41 541.56 376.44 541.60 376.46 C 552.76 380.13 563.28 385.45 573.35 391.45 C 573.39 391.48 573.46 391.53 573.50 391.55 C 582.57 397.57 591.65 403.84 599.05 411.91 C 604.51 417.80 609.74 423.91 614.46 430.42 C 614.49 430.46 614.55 430.54 614.58 430.58 C 621.57 440.20 626.97 450.86 632.44 461.38 C 632.46 461.42 632.50 461.51 632.52 461.55 C 633.84 464.53 634.63 467.72 634.96 470.97 C 635.30 474.99 637.03 478.70 638.42 482.44 C 638.43 482.48 638.46 482.57 638.48 482.62 C 640.75 488.15 641.23 494.14 641.03 500.06 C 642.29 513.75 641.63 527.51 640.62 541.18 C 639.83 544.72 640.46 548.56 638.78 551.88 C 638.55 552.34 638.09 553.25 637.87 553.71 C 637.80 554.41 637.67 555.80 637.61 556.49 C 637.59 556.54 637.57 556.63 637.55 556.67 C 636.56 559.58 635.55 562.48 634.58 565.40 C 634.56 565.46 634.51 565.58 634.49 565.64 C 631.91 571.90 630.28 578.67 626.55 584.38 C 626.53 584.42 626.48 584.49 626.46 584.52 C 623.36 589.09 620.56 593.84 617.61 598.50 C 617.59 598.53 617.54 598.61 617.52 598.64 C 617.05 599.34 616.13 600.73 615.67 601.42 C 615.64 601.46 615.58 601.55 615.55 601.59 C 615.06 602.30 614.08 603.73 613.59 604.44 C 613.57 604.48 613.51 604.56 613.49 604.60 C 605.58 617.04 594.10 626.51 582.60 635.47 C 582.56 635.50 582.49 635.56 582.45 635.59 C 580.17 637.24 577.90 638.88 575.60 640.50 C 575.56 640.52 575.49 640.57 575.45 640.60 C 567.49 645.73 559.39 650.72 550.62 654.38 C 550.58 654.40 550.50 654.43 550.46 654.45 C 549.76 654.71 548.36 655.23 547.66 655.50 C 547.60 655.51 547.50 655.55 547.45 655.57 C 544.55 656.67 541.64 657.76 538.63 658.50 C 538.58 658.52 538.48 658.54 538.43 658.56 C 536.35 659.09 534.31 659.83 532.19 660.23 C 527.63 659.88 523.12 660.63 518.59 660.98 C 519.76 659.95 520.95 658.92 522.30 658.12 C 540.74 648.10 555.57 632.35 566.76 614.78 C 575.13 601.92 580.18 587.29 584.55 572.69 C 588.75 558.57 589.73 543.73 588.72 529.10 C 586.84 512.50 581.36 496.49 574.43 481.36 C 562.30 456.08 541.55 435.93 518.29 420.76 C 504.52 412.44 488.94 407.70 473.23 404.67 C 467.93 403.19 462.36 403.28 457.08 401.80 C 466.22 390.52 475.50 379.15 481.80 365.95 C 489.61 350.55 493.39 333.21 492.98 315.97 C 492.32 304.58 491.49 293.07 487.77 282.20 C 484.70 271.86 479.07 262.58 473.53 253.42 C 469.02 246.11 464.25 238.91 458.60 232.42 C 445.97 219.86 430.42 210.36 413.69 204.32 C 401.19 199.33 387.53 196.29 374.05 198.01 C 359.88 198.99 346.89 205.40 333.10 208.28 C 305.84 215.71 278.73 223.71 251.59 231.57 C 237.65 235.51 223.82 239.81 210.00 244.13 C 207.92 244.76 205.78 245.09 203.64 245.44 C 203.45 241.00 203.46 236.55 203.76 232.11 C 204.03 229.17 203.87 226.06 205.21 223.35 C 207.70 219.56 210.84 215.91 215.10 214.09 C 218.61 212.64 222.52 212.56 226.07 211.20 C 232.19 208.81 238.51 206.32 245.10 205.95 C 245.58 205.75 246.55 205.36 247.03 205.17 C 253.14 203.26 259.34 201.62 265.35 199.37 C 265.40 199.35 265.50 199.32 265.55 199.30 C 266.26 199.09 267.68 198.66 268.40 198.45 C 268.45 198.43 268.55 198.40 268.60 198.39 C 270.84 197.71 273.08 197.08 275.35 196.49 C 275.39 196.48 275.49 196.45 275.54 196.44 C 280.68 195.23 285.90 194.07 291.21 193.96 C 290.73 193.38 289.79 192.23 289.31 191.66 L 289.50 190.34 C 292.48 190.25 295.44 190.67 298.34 191.34 C 298.39 191.09 298.49 190.60 298.54 190.36 L 298.60 190.05 C 301.71 189.88 304.56 188.54 307.45 187.51 C 307.50 187.49 307.59 187.46 307.64 187.44 C 320.73 184.00 333.28 178.78 346.40 175.48 C 346.45 175.46 346.56 175.43 346.61 175.42 C 349.91 174.48 353.13 173.29 356.44 172.41 C 356.49 172.39 356.58 172.37 356.62 172.36 C 362.18 170.92 367.82 169.82 373.40 168.46 C 373.45 168.45 373.53 168.43 373.58 168.42 C 381.13 167.08 388.32 164.35 395.41 161.51 Z" />
</g>
</svg>
