<?xml version="1.0" encoding="UTF-8" ?>
<!DOCTYPE svg PUBLIC "-//W3C//DTD SVG 1.1//EN" "http://www.w3.org/Graphics/SVG/1.1/DTD/svg11.dtd">
<svg width="1203pt" height="709pt" viewBox="0 0 1203 709" version="1.1" xmlns="http://www.w3.org/2000/svg">
<g id="#7f3487ff">
<path fill="#7f3487" opacity="1.00" d=" M 68.54 154.64 C 71.22 153.64 74.20 154.11 77.00 153.98 C 202.70 154.02 328.39 153.98 454.08 154.00 C 459.74 153.82 464.60 159.41 464.39 164.94 C 464.37 291.32 464.37 417.69 464.39 544.07 C 464.45 548.73 461.13 553.26 456.74 554.75 C 453.18 555.25 449.57 554.93 446.00 555.00 C 321.97 555.00 197.95 554.98 73.92 555.01 C 68.15 555.52 62.18 549.99 62.98 544.07 C 63.03 417.35 62.97 290.62 63.01 163.90 C 62.57 159.89 65.63 156.87 68.54 154.64 M 236.80 208.40 C 222.28 211.87 208.34 217.50 193.70 220.45 C 193.59 220.69 193.37 221.18 193.27 221.42 C 188.64 221.94 184.33 223.84 179.73 224.46 C 179.62 224.71 179.42 225.20 179.31 225.45 C 174.48 226.35 169.46 227.28 164.97 229.31 C 158.00 230.25 151.28 233.28 146.44 238.47 C 142.64 241.88 140.24 246.86 140.32 252.01 C 140.34 257.44 139.67 263.12 141.61 268.33 C 143.94 274.77 144.63 281.68 147.26 288.04 C 152.16 305.38 157.49 322.60 162.18 340.00 C 163.73 344.47 165.35 349.00 165.54 353.79 C 165.87 353.25 166.21 352.71 166.55 352.18 C 166.77 358.97 169.70 365.26 171.34 371.77 C 175.78 385.50 179.06 399.57 183.41 413.34 C 185.12 419.81 187.61 426.09 188.56 432.74 C 188.91 432.21 189.27 431.69 189.63 431.17 C 189.26 434.65 189.97 438.06 191.64 441.12 C 193.68 444.86 192.76 449.56 195.26 453.05 C 196.62 461.86 200.36 470.09 201.80 478.89 C 202.04 477.93 202.29 476.98 202.53 476.04 C 202.57 480.38 204.07 484.51 205.39 488.60 C 208.70 498.43 218.60 505.65 228.99 505.64 C 236.91 506.23 244.13 502.24 251.87 501.28 C 250.93 500.96 249.99 500.65 249.05 500.35 C 256.43 500.92 263.11 497.14 270.09 495.40 C 279.37 493.03 288.46 489.91 297.90 488.21 C 296.94 487.94 295.98 487.68 295.02 487.42 C 298.36 487.47 301.65 486.79 304.95 486.34 C 303.98 486.02 303.00 485.72 302.03 485.43 C 304.43 485.46 306.82 485.09 309.08 484.29 C 318.37 481.12 328.34 479.78 337.06 475.10 C 342.16 472.67 347.08 469.86 351.70 466.63 C 364.77 456.85 374.22 443.15 381.63 428.80 C 383.04 425.55 383.86 422.09 384.93 418.73 C 388.50 409.62 387.46 399.61 387.50 390.04 C 387.73 382.62 384.78 375.61 384.47 368.24 C 384.15 368.75 383.83 369.26 383.52 369.77 C 383.10 364.91 380.94 360.50 378.96 356.14 C 369.35 336.48 352.57 320.25 332.07 312.33 C 333.20 305.99 336.83 300.41 337.96 294.05 C 343.26 269.16 335.39 241.73 317.27 223.75 C 313.17 220.52 309.09 217.22 304.75 214.31 C 298.63 211.04 292.32 207.95 285.53 206.31 C 276.81 202.84 267.23 203.31 258.02 203.47 C 250.68 203.71 243.73 206.22 236.80 208.40 Z" />
<path fill="#7f3487" opacity="1.00" d=" M 949.40 156.64 C 958.15 154.87 967.36 155.61 975.57 159.21 C 984.63 163.36 993.56 169.97 996.33 180.04 C 998.05 187.05 989.77 193.70 983.27 190.98 C 976.26 187.81 971.89 180.04 964.08 178.54 C 959.00 178.64 952.95 177.08 948.78 180.79 C 944.80 184.20 943.75 191.40 948.12 194.89 C 955.16 199.20 962.43 203.24 970.13 206.28 C 975.76 209.02 981.47 211.77 986.43 215.65 C 993.97 222.16 998.59 232.02 998.53 242.01 C 998.58 246.68 998.73 251.56 996.63 255.87 C 992.10 266.99 980.34 273.32 969.01 275.31 C 960.92 275.83 952.54 276.18 944.77 273.46 C 936.58 271.39 929.73 266.01 923.93 260.07 C 920.62 256.98 918.07 252.67 918.46 247.99 C 918.34 242.04 924.09 236.82 930.01 237.55 C 933.29 238.19 936.18 240.12 938.44 242.55 C 943.47 247.70 949.50 252.66 956.94 253.46 C 962.15 253.90 968.00 253.57 972.35 250.36 C 976.37 247.14 975.92 241.58 975.41 236.99 C 973.95 232.84 969.74 230.91 966.33 228.65 C 962.32 226.02 957.76 224.49 953.53 222.31 C 948.14 219.31 942.06 217.70 936.99 214.11 C 930.60 209.67 924.47 203.64 923.06 195.65 C 921.12 185.78 923.02 174.55 929.96 166.93 C 934.70 161.03 942.15 158.05 949.40 156.64 Z" />
<path fill="#7f3487" opacity="1.00" d=" M 527.51 157.47 C 529.02 156.16 531.10 156.33 532.97 156.24 C 545.31 156.26 557.65 156.15 569.99 156.31 C 573.91 156.29 577.80 156.91 581.58 157.95 C 590.65 162.06 598.70 169.37 601.56 179.17 C 603.93 188.31 602.69 198.96 596.29 206.27 C 594.54 208.65 591.25 210.10 590.42 212.99 C 596.90 217.17 603.31 222.33 606.23 229.73 C 609.22 237.52 609.29 246.50 606.43 254.34 C 603.74 262.37 596.60 268.32 588.69 270.89 C 577.69 275.30 565.63 274.89 554.00 274.86 C 546.98 275.89 539.97 274.45 532.94 274.63 C 526.87 274.90 522.35 268.76 522.63 263.04 C 522.54 231.36 522.63 199.68 522.59 168.00 C 522.47 163.93 523.58 159.43 527.51 157.47 M 545.85 177.29 C 545.52 180.52 545.52 183.76 545.55 187.00 C 545.60 208.85 545.51 230.70 545.60 252.54 C 552.72 252.81 559.85 252.68 566.98 252.62 C 570.96 252.48 575.24 252.78 578.81 250.67 C 581.55 249.00 584.41 246.57 584.59 243.12 C 584.84 238.77 585.36 233.47 581.69 230.31 C 577.86 227.13 572.70 226.33 567.95 225.51 C 564.08 225.03 560.51 222.77 558.23 219.65 C 556.02 216.07 556.34 211.47 557.82 207.67 C 561.05 203.29 566.59 202.12 571.62 201.22 C 580.29 198.73 582.67 185.80 575.96 180.05 C 573.00 177.42 568.80 177.09 565.05 176.69 C 558.65 176.63 552.20 176.31 545.85 177.29 Z" />
<path fill="#7f3487" opacity="1.00" d=" M 612.36 166.96 C 612.28 158.88 623.65 154.68 629.55 159.54 C 634.99 163.84 637.24 170.66 641.08 176.21 C 645.17 182.08 648.03 188.70 652.20 194.52 C 654.39 197.57 655.11 201.83 658.84 203.53 C 666.84 190.41 674.45 177.06 682.59 164.02 C 683.90 161.97 685.34 159.82 687.59 158.72 C 693.20 155.78 701.32 158.23 703.53 164.41 C 705.57 168.24 703.98 172.66 702.07 176.20 C 692.43 192.06 682.33 207.65 672.48 223.39 C 669.99 227.08 668.87 231.54 668.75 235.95 C 668.75 245.64 668.82 255.34 668.74 265.04 C 669.23 272.55 658.88 277.58 653.04 273.05 C 650.17 270.90 647.35 267.86 647.40 264.04 C 647.16 253.68 647.44 243.31 647.26 232.95 C 647.14 230.05 646.26 227.26 645.57 224.46 C 645.27 224.77 644.98 225.08 644.71 225.39 C 642.24 219.47 638.00 214.55 635.10 208.86 C 628.58 198.08 621.32 187.76 615.31 176.68 C 613.68 173.68 611.91 170.50 612.36 166.96 Z" />
<path fill="#7f3487" opacity="1.00" d=" M 750.31 158.28 C 754.47 156.75 760.08 157.30 762.86 161.12 C 764.55 163.38 765.70 166.10 765.60 168.97 C 765.91 186.98 765.60 204.99 765.65 223.00 C 765.47 234.16 766.70 245.83 761.84 256.27 C 758.58 263.45 752.15 269.22 744.67 271.73 C 734.19 275.06 722.54 275.79 712.19 271.61 C 702.38 267.01 693.99 258.08 692.50 247.05 C 692.25 243.36 691.74 239.18 694.13 236.04 C 698.05 230.91 706.56 229.98 710.97 235.02 C 713.83 239.35 714.41 245.05 718.23 248.80 C 722.55 252.60 728.76 252.02 734.04 251.26 C 739.32 249.37 742.83 243.60 742.55 238.06 C 742.50 234.35 743.28 230.70 743.35 227.00 C 743.39 207.66 743.24 188.31 743.42 168.97 C 743.19 164.40 745.73 159.61 750.31 158.28 Z" />
<path fill="#7f3487" opacity="1.00" d=" M 793.91 158.81 C 800.89 154.72 810.60 161.08 810.48 168.98 C 810.67 186.32 810.51 203.66 810.55 221.00 C 810.36 227.97 811.00 235.04 813.11 241.70 C 814.71 246.57 819.03 250.17 824.06 251.05 C 829.42 251.91 835.17 251.90 840.31 249.95 C 844.37 247.64 847.79 243.64 848.46 238.89 C 849.12 234.61 850.26 230.38 850.42 226.04 C 850.53 206.98 850.46 187.91 850.50 168.85 C 850.33 165.57 852.27 162.67 854.41 160.38 C 857.55 156.81 863.27 156.75 867.24 158.89 C 871.13 161.08 873.58 165.50 873.42 169.97 C 873.52 187.65 873.42 205.32 873.37 223.00 C 873.53 234.81 871.55 247.04 865.49 257.34 C 859.85 266.98 849.05 272.90 838.03 273.56 C 830.10 273.93 822.13 273.84 814.32 272.39 C 814.77 272.15 815.24 271.91 815.72 271.68 C 808.66 270.75 802.73 266.05 798.13 260.89 C 790.03 251.62 787.85 238.92 787.60 227.00 C 787.59 208.32 787.59 189.63 787.59 170.95 C 787.61 166.28 789.39 160.94 793.91 158.81 Z" />
<path fill="#7f3487" opacity="1.00" d=" M 895.33 158.27 C 898.04 157.04 901.16 157.40 904.05 157.69 C 908.40 158.44 911.34 162.72 911.57 166.95 C 911.82 172.24 911.77 177.67 910.01 182.73 C 908.55 187.85 907.36 193.49 903.48 197.40 C 899.58 200.65 893.68 199.03 891.18 194.87 C 887.13 187.93 888.86 179.63 888.48 172.00 C 888.21 166.76 889.66 160.09 895.33 158.27 Z" />
<path fill="#7f3487" opacity="1.00" d=" M 219.97 243.84 C 227.65 242.13 234.97 238.43 242.99 238.52 C 248.55 238.37 254.02 239.71 259.18 241.68 C 267.71 244.71 275.78 249.41 282.08 255.97 C 286.31 260.94 289.61 266.63 292.79 272.31 C 297.09 280.14 298.78 289.12 298.42 298.00 C 299.18 313.32 291.06 327.46 281.07 338.48 C 293.61 340.02 306.49 343.31 316.42 351.52 C 327.91 360.01 337.45 371.66 341.67 385.45 C 344.07 392.04 345.82 398.94 345.45 406.00 C 345.94 416.27 342.39 426.11 338.58 435.47 C 332.69 447.72 323.34 458.75 311.08 464.93 C 313.42 464.81 315.76 464.73 318.10 464.60 C 312.84 467.82 306.29 467.36 300.58 469.42 C 289.60 472.97 278.61 476.53 267.41 479.35 C 262.39 480.43 257.71 482.78 252.57 483.38 C 252.52 483.65 252.41 484.21 252.35 484.48 C 244.08 484.82 236.42 490.18 227.97 488.40 C 221.49 485.88 218.31 479.20 217.76 472.63 C 217.44 472.55 216.79 472.40 216.47 472.32 C 216.50 469.45 216.68 466.34 214.76 463.99 C 212.05 452.44 207.98 441.28 205.23 429.75 C 203.29 422.51 200.44 415.55 198.81 408.22 C 197.96 404.99 196.53 401.94 195.81 398.67 C 194.13 390.09 190.80 381.93 189.36 373.29 C 189.04 373.80 188.73 374.32 188.42 374.84 C 188.35 371.83 188.24 368.69 186.71 366.02 C 183.10 353.26 179.10 340.62 175.57 327.84 C 173.46 318.91 169.75 310.37 168.49 301.24 C 168.12 301.76 167.76 302.28 167.40 302.81 C 167.87 297.90 165.60 293.43 164.57 288.75 C 164.31 288.64 163.79 288.40 163.53 288.29 C 163.01 279.28 157.74 271.10 157.69 262.00 C 178.35 255.63 199.16 249.74 219.97 243.84 Z" />
</g>
<g id="#fcfbfcff">
<path fill="#fcfbfc" opacity="1.00" d=" M 236.80 208.40 C 243.73 206.22 250.68 203.71 258.02 203.47 C 267.23 203.31 276.81 202.84 285.53 206.31 C 292.32 207.95 298.63 211.04 304.75 214.31 C 309.09 217.22 313.17 220.52 317.27 223.75 C 335.39 241.73 343.26 269.16 337.96 294.05 C 336.83 300.41 333.20 305.99 332.07 312.33 C 352.57 320.25 369.35 336.48 378.96 356.14 C 380.94 360.50 383.10 364.91 383.52 369.77 C 383.83 369.26 384.15 368.75 384.47 368.24 C 384.78 375.61 387.73 382.62 387.50 390.04 C 387.46 399.61 388.50 409.62 384.93 418.73 C 383.86 422.09 383.04 425.55 381.63 428.80 C 374.22 443.15 364.77 456.85 351.70 466.63 C 347.08 469.86 342.16 472.67 337.06 475.10 C 328.34 479.78 318.37 481.12 309.08 484.29 C 306.82 485.09 304.43 485.46 302.03 485.43 C 303.00 485.72 303.98 486.02 304.95 486.34 C 301.65 486.79 298.36 487.47 295.02 487.42 C 295.98 487.68 296.94 487.94 297.90 488.21 C 288.46 489.91 279.37 493.03 270.09 495.40 C 263.11 497.14 256.43 500.92 249.05 500.35 C 249.99 500.65 250.93 500.96 251.87 501.28 C 244.13 502.24 236.91 506.23 228.99 505.64 C 218.60 505.65 208.70 498.43 205.39 488.60 C 204.07 484.51 202.57 480.38 202.53 476.04 C 202.29 476.98 202.04 477.93 201.80 478.89 C 200.36 470.09 196.62 461.86 195.26 453.05 C 192.76 449.56 193.68 444.86 191.64 441.12 C 189.97 438.06 189.26 434.65 189.63 431.17 C 189.27 431.69 188.91 432.21 188.56 432.74 C 187.61 426.09 185.12 419.81 183.41 413.34 C 179.06 399.57 175.78 385.50 171.34 371.77 C 169.70 365.26 166.77 358.97 166.55 352.18 C 166.21 352.71 165.87 353.25 165.54 353.79 C 165.35 349.00 163.73 344.47 162.18 340.00 C 157.49 322.60 152.16 305.38 147.26 288.04 C 144.63 281.68 143.94 274.77 141.61 268.33 C 139.67 263.12 140.34 257.44 140.32 252.01 C 140.24 246.86 142.64 241.88 146.44 238.47 C 151.28 233.28 158.00 230.25 164.97 229.31 C 169.46 227.28 174.48 226.35 179.31 225.45 C 179.42 225.20 179.62 224.71 179.73 224.46 C 184.33 223.84 188.64 221.94 193.27 221.42 C 193.37 221.18 193.59 220.69 193.70 220.45 C 208.34 217.50 222.28 211.87 236.80 208.40 M 248.88 221.98 C 242.09 224.88 234.58 225.27 227.67 227.82 C 220.87 229.35 214.54 232.36 207.74 233.87 C 204.72 235.22 201.39 235.98 198.15 234.89 C 198.82 235.60 199.48 236.31 200.14 237.02 C 191.09 237.35 182.95 242.08 174.09 243.44 C 170.94 244.00 168.17 245.78 165.02 246.31 C 161.78 246.53 159.47 249.15 157.76 251.66 C 156.87 255.10 157.27 258.69 157.09 262.20 L 157.69 262.00 C 157.74 271.10 163.01 279.28 163.53 288.29 C 163.79 288.40 164.31 288.64 164.57 288.75 C 165.60 293.43 167.87 297.90 167.40 302.81 C 167.76 302.28 168.12 301.76 168.49 301.24 C 169.75 310.37 173.46 318.91 175.57 327.84 C 179.10 340.62 183.10 353.26 186.71 366.02 C 188.24 368.69 188.35 371.83 188.42 374.84 C 188.73 374.32 189.04 373.80 189.36 373.29 C 190.80 381.93 194.13 390.09 195.81 398.67 C 196.53 401.94 197.96 404.99 198.81 408.22 C 200.44 415.55 203.29 422.51 205.23 429.75 C 207.98 441.28 212.05 452.44 214.76 463.99 C 216.68 466.34 216.50 469.45 216.47 472.32 C 216.79 472.40 217.44 472.55 217.76 472.63 C 218.31 479.20 221.49 485.88 227.97 488.40 C 236.42 490.18 244.08 484.82 252.35 484.48 C 252.41 484.21 252.52 483.65 252.57 483.38 C 257.71 482.78 262.39 480.43 267.41 479.35 C 278.61 476.53 289.60 472.97 300.58 469.42 C 306.29 467.36 312.84 467.82 318.10 464.60 C 330.09 461.87 340.49 454.54 349.59 446.52 C 356.00 441.03 359.70 433.32 364.40 426.48 C 366.63 421.21 368.56 415.75 370.06 410.23 C 371.24 401.25 371.08 392.13 370.53 383.11 C 370.56 379.17 367.88 375.90 367.61 372.01 C 367.40 368.65 365.54 365.77 363.94 362.92 C 359.82 354.57 354.04 347.11 347.31 340.69 C 335.15 330.08 319.52 323.72 303.46 322.40 C 304.24 320.36 305.64 318.70 307.27 317.28 C 311.37 313.59 314.20 308.80 317.05 304.15 C 319.33 300.45 320.20 296.05 320.36 291.77 C 320.90 292.49 321.44 293.21 321.99 293.94 C 321.41 284.11 322.61 274.20 321.56 264.38 C 319.02 250.14 309.30 238.61 298.78 229.29 C 294.40 226.02 289.82 222.61 284.26 221.79 C 278.50 219.27 272.09 220.39 265.99 220.13 C 260.28 220.47 254.19 219.35 248.88 221.98 Z" />
</g>
<g id="#4c215cff">
<path fill="#4c215c" opacity="1.00" d=" M 248.88 221.98 C 254.19 219.35 260.28 220.47 265.99 220.13 C 272.09 220.39 278.50 219.27 284.26 221.79 C 289.82 222.61 294.40 226.02 298.78 229.29 C 309.30 238.61 319.02 250.14 321.56 264.38 C 322.61 274.20 321.41 284.11 321.99 293.94 C 321.44 293.21 320.90 292.49 320.36 291.77 C 320.20 296.05 319.33 300.45 317.05 304.15 C 314.20 308.80 311.37 313.59 307.27 317.28 C 305.64 318.70 304.24 320.36 303.46 322.40 C 319.52 323.72 335.15 330.08 347.31 340.69 C 354.04 347.11 359.82 354.57 363.94 362.92 C 365.54 365.77 367.40 368.65 367.61 372.01 C 367.88 375.90 370.56 379.17 370.53 383.11 C 371.08 392.13 371.24 401.25 370.06 410.23 C 368.56 415.75 366.63 421.21 364.40 426.48 C 359.70 433.32 356.00 441.03 349.59 446.52 C 340.49 454.54 330.09 461.87 318.10 464.60 C 315.76 464.73 313.42 464.81 311.08 464.93 C 323.34 458.75 332.69 447.72 338.58 435.47 C 342.39 426.11 345.94 416.27 345.45 406.00 C 345.82 398.94 344.07 392.04 341.67 385.45 C 337.45 371.66 327.91 360.01 316.42 351.52 C 306.49 343.31 293.61 340.02 281.07 338.48 C 291.06 327.46 299.18 313.32 298.42 298.00 C 298.78 289.12 297.09 280.14 292.79 272.31 C 289.61 266.63 286.31 260.94 282.08 255.97 C 275.78 249.41 267.71 244.71 259.18 241.68 C 254.02 239.71 248.55 238.37 242.99 238.52 C 234.97 238.43 227.65 242.13 219.97 243.84 C 199.16 249.74 178.35 255.63 157.69 262.00 L 157.09 262.20 C 157.27 258.69 156.87 255.10 157.76 251.66 C 159.47 249.15 161.78 246.53 165.02 246.31 C 168.17 245.78 170.94 244.00 174.09 243.44 C 182.95 242.08 191.09 237.35 200.14 237.02 C 199.48 236.31 198.82 235.60 198.15 234.89 C 201.39 235.98 204.72 235.22 207.74 233.87 C 214.54 232.36 220.87 229.35 227.67 227.82 C 234.58 225.27 242.09 224.88 248.88 221.98 Z" />
</g>
<g id="#ef5b81ff">
<path fill="#ef5b81" opacity="1.00" d=" M 622.38 321.30 C 627.30 319.48 633.27 320.36 637.45 323.59 C 640.50 326.50 642.48 330.70 642.35 334.95 C 642.35 350.99 642.26 367.03 642.39 383.07 C 642.17 389.42 646.13 395.45 651.39 398.75 C 655.94 400.87 661.14 400.63 666.05 400.47 C 674.43 400.13 681.80 392.46 681.72 384.06 C 681.84 369.04 681.74 354.02 681.76 339.00 C 682.00 333.88 682.20 328.02 686.45 324.43 C 693.46 316.67 708.75 320.35 710.49 330.99 C 710.82 349.31 710.58 367.65 710.61 385.98 C 710.89 393.60 708.43 401.14 704.43 407.56 C 697.96 417.76 686.90 424.59 675.03 426.42 C 666.69 426.95 658.32 426.89 649.98 426.50 C 639.12 425.30 628.97 419.40 622.20 410.86 C 616.45 402.81 613.06 392.94 613.50 382.99 C 613.49 366.65 613.46 350.31 613.51 333.98 C 613.38 328.43 617.17 323.15 622.38 321.30 Z" />
<path fill="#ef5b81" opacity="1.00" d=" M 820.37 330.98 C 821.96 320.58 836.95 316.78 844.06 323.99 C 846.90 326.86 848.68 330.89 848.56 334.96 C 848.58 350.32 848.58 365.68 848.55 381.05 C 848.31 386.47 850.51 391.91 854.03 395.99 C 858.62 400.85 865.86 400.74 872.04 400.48 C 879.04 400.34 885.23 395.23 887.41 388.70 C 888.87 384.97 888.37 380.91 888.46 377.00 C 888.45 362.97 888.44 348.95 888.46 334.92 C 888.16 331.26 889.98 327.89 892.08 325.04 C 897.87 318.45 909.70 318.80 914.85 326.02 C 917.39 329.11 916.60 333.31 916.81 337.01 C 916.67 355.34 917.09 373.69 916.55 392.02 C 914.64 404.34 906.81 415.66 895.81 421.61 C 892.81 423.15 889.67 424.71 886.22 424.62 C 886.70 424.85 887.18 425.08 887.69 425.31 C 878.63 427.38 869.25 426.73 860.04 426.66 C 848.62 426.78 837.91 420.96 830.16 412.87 C 823.85 405.08 819.79 395.10 820.24 384.98 C 820.28 366.99 820.02 348.98 820.37 330.98 Z" />
<path fill="#ef5b81" opacity="1.00" d=" M 519.17 333.99 C 518.35 326.97 525.35 321.30 531.97 321.40 C 552.98 321.33 574.00 321.36 595.02 321.39 C 599.61 321.24 603.99 323.94 606.47 327.72 C 608.25 330.12 607.78 333.26 607.86 336.06 C 608.12 340.00 605.97 343.81 602.88 346.14 C 600.30 347.99 597.00 347.76 594.00 347.90 C 581.67 347.91 569.34 347.91 557.01 347.90 C 553.52 347.92 549.76 347.42 546.64 349.32 C 546.85 354.63 546.69 359.96 546.79 365.29 C 561.20 365.67 575.62 365.16 590.03 365.56 C 596.77 365.60 601.57 372.66 600.56 379.02 C 601.25 384.89 596.08 391.07 590.00 390.64 C 575.88 390.71 561.76 390.68 547.64 390.65 C 547.23 398.12 547.64 405.60 547.39 413.07 C 546.58 418.70 542.76 424.43 536.85 425.54 C 532.24 426.09 526.80 426.19 523.26 422.69 C 520.93 420.40 518.76 417.48 519.17 414.03 C 519.12 387.35 519.14 360.67 519.17 333.99 Z" />
<path fill="#ef5b81" opacity="1.00" d=" M 719.61 324.62 C 722.07 322.19 725.63 321.27 729.02 321.37 C 753.34 321.37 777.67 321.35 801.99 321.38 C 806.83 321.03 811.29 323.95 814.00 327.78 C 816.79 333.79 816.03 342.22 810.29 346.25 C 804.03 349.61 796.79 348.38 790.01 348.58 C 786.26 348.69 782.33 347.99 778.83 349.67 C 778.98 370.11 778.84 390.55 778.90 411.00 C 778.74 414.35 779.32 418.18 776.93 420.93 C 773.16 425.90 766.15 426.74 760.47 425.18 C 755.10 423.33 751.00 417.76 751.38 412.01 C 751.35 390.90 751.40 369.79 751.35 348.68 C 743.57 348.43 735.78 348.75 728.01 348.51 C 723.58 347.88 718.65 345.94 716.69 341.59 C 714.48 335.99 714.90 328.85 719.61 324.62 Z" />
<path fill="#ef5b81" opacity="1.00" d=" M 931.24 334.01 C 930.44 326.57 938.23 321.30 944.96 321.38 C 957.64 321.33 970.32 321.38 983.00 321.37 C 991.60 321.45 1000.53 320.60 1008.70 323.92 C 1019.91 327.81 1029.09 338.85 1028.68 351.03 C 1028.57 358.31 1029.58 365.97 1026.53 372.82 C 1023.73 379.48 1017.96 384.36 1011.81 387.88 C 1013.61 391.36 1016.81 393.73 1019.24 396.74 C 1022.38 400.74 1026.73 403.99 1028.34 409.02 C 1028.69 413.16 1029.45 418.04 1026.19 421.26 C 1023.48 425.15 1018.44 426.17 1013.99 425.77 C 1010.31 426.01 1007.19 423.73 1004.76 421.23 C 998.68 414.32 991.77 408.19 985.91 401.08 C 982.58 398.07 980.02 393.99 976.01 391.87 C 970.55 391.45 964.82 390.99 959.47 392.39 C 959.13 401.07 960.70 410.04 958.12 418.46 C 955.86 421.95 952.46 425.48 948.02 425.66 C 944.55 425.79 940.76 426.22 937.66 424.36 C 934.06 422.16 930.74 418.51 931.25 413.99 C 931.06 387.33 931.09 360.67 931.24 334.01 M 959.67 348.99 C 959.75 354.24 958.61 359.86 960.46 364.87 C 971.66 364.39 982.89 365.05 994.08 364.53 C 996.76 364.56 998.79 362.46 999.62 360.07 C 999.90 356.19 1000.49 351.77 997.44 348.79 C 994.65 348.17 991.89 347.29 989.00 347.48 C 979.66 347.59 970.32 347.36 960.99 347.59 C 960.66 347.94 960.00 348.64 959.67 348.99 Z" />
<path fill="#ef5b81" opacity="1.00" d=" M 1039.54 334.97 C 1039.31 327.75 1045.67 321.13 1053.00 321.41 C 1073.66 321.30 1094.33 321.38 1114.99 321.38 C 1120.96 320.97 1127.11 325.08 1128.49 330.96 C 1128.57 334.43 1129.27 338.26 1127.45 341.43 C 1125.33 346.06 1119.99 348.82 1115.01 348.58 C 1099.48 348.56 1083.94 348.64 1068.41 348.54 C 1068.35 352.29 1068.37 356.04 1068.32 359.79 C 1083.80 360.12 1099.31 359.20 1114.74 360.59 C 1120.55 362.04 1123.67 368.33 1122.75 374.01 C 1123.55 381.01 1116.61 386.55 1110.05 386.42 C 1096.16 386.44 1082.27 386.43 1068.38 386.43 C 1068.37 390.19 1068.37 393.95 1068.33 397.72 C 1083.56 397.81 1098.79 397.75 1114.03 397.75 C 1118.74 397.70 1123.67 399.46 1126.60 403.31 C 1129.74 407.11 1128.60 412.44 1128.45 416.98 C 1126.59 421.01 1122.85 425.15 1118.00 424.68 C 1104.67 424.87 1091.33 424.71 1078.00 424.76 C 1068.33 424.63 1058.65 425.07 1049.00 424.47 C 1043.35 422.81 1039.23 416.96 1039.53 411.02 C 1039.52 385.67 1039.50 360.32 1039.54 334.97 Z" />
<path fill="#ef5b81" opacity="1.00" d=" M 520.40 455.38 C 526.31 448.94 534.73 445.74 543.11 444.03 C 558.28 441.88 574.69 444.53 587.22 453.78 C 592.18 457.89 597.84 462.94 597.55 470.00 C 598.55 478.88 587.96 485.49 580.09 482.53 C 576.52 481.73 574.30 478.59 571.68 476.33 C 566.15 471.15 558.61 467.71 550.94 468.34 C 546.40 468.48 541.04 469.82 538.56 473.99 C 537.00 478.79 542.66 481.85 546.75 481.71 C 546.21 481.94 545.68 482.17 545.16 482.41 C 550.97 482.86 556.53 484.82 562.32 485.53 C 565.57 486.43 569.28 486.17 572.13 488.20 C 579.37 488.68 585.89 492.32 591.80 496.26 C 598.25 500.68 600.97 508.58 602.35 515.93 C 602.71 523.45 600.59 531.14 596.26 537.32 C 589.15 546.75 577.61 552.13 566.01 553.13 C 552.46 554.23 538.45 551.81 526.46 545.26 C 518.18 540.67 510.92 533.33 508.48 523.99 C 507.93 519.91 508.23 515.37 511.34 512.34 C 515.33 507.25 522.85 506.34 528.56 508.72 C 533.74 510.91 536.01 516.46 539.54 520.45 C 543.82 524.84 549.85 527.50 555.99 527.67 C 561.43 527.72 567.42 528.46 572.16 525.16 C 575.24 523.69 574.79 519.76 574.59 516.94 C 573.75 514.45 571.01 513.34 568.72 512.56 C 562.32 510.65 555.72 508.78 548.98 509.47 C 551.00 509.13 553.03 508.81 555.06 508.45 C 548.97 509.00 543.14 506.95 537.34 505.48 C 531.92 503.70 526.13 502.13 521.83 498.20 C 518.25 495.05 514.46 491.64 513.29 486.81 C 509.39 476.16 511.60 462.97 520.40 455.38 Z" />
<path fill="#ef5b81" opacity="1.00" d=" M 649.43 444.40 C 655.18 443.00 661.17 443.47 667.04 443.55 C 680.59 445.12 693.93 451.69 702.18 462.77 C 705.31 467.21 708.05 472.42 707.60 478.03 C 707.67 483.78 703.13 489.87 697.01 489.70 C 693.40 489.66 689.04 490.56 686.26 487.68 C 681.25 483.25 679.61 475.79 673.47 472.50 C 667.72 468.63 660.51 469.23 653.93 469.56 C 647.27 470.22 642.00 475.12 638.10 480.19 C 632.55 488.56 632.39 499.47 634.63 508.96 C 637.26 517.06 643.41 524.62 652.00 526.58 C 657.66 526.91 663.37 526.99 669.01 526.40 C 675.97 524.06 680.27 517.72 683.73 511.64 C 688.96 503.19 703.47 504.98 706.99 514.12 C 708.55 519.64 707.44 525.73 704.46 530.60 C 697.71 542.84 684.50 550.28 671.02 552.55 C 661.48 552.87 651.61 553.70 642.42 550.52 C 624.68 545.38 610.49 530.01 606.51 512.04 C 605.98 503.06 605.96 494.02 606.49 485.04 C 607.43 480.52 609.28 476.22 611.07 471.98 C 618.77 457.62 633.29 446.94 649.43 444.40 Z" />
<path fill="#ef5b81" opacity="1.00" d=" M 871.27 443.85 C 876.82 443.15 882.47 443.42 888.05 443.65 C 894.19 444.89 900.34 446.46 906.05 449.09 C 913.76 453.28 920.95 458.81 925.85 466.20 C 931.14 472.69 933.53 480.91 935.29 488.95 C 935.97 499.61 936.03 510.71 931.67 520.68 C 926.36 533.72 915.62 544.70 902.27 549.44 C 893.98 552.85 884.88 553.60 876.00 553.33 C 861.27 552.69 846.34 546.73 836.61 535.38 C 822.80 519.38 820.07 495.58 827.61 476.16 C 832.87 463.87 842.87 453.72 855.04 448.19 C 860.18 445.85 865.74 444.80 871.27 443.85 M 868.58 470.81 C 859.35 474.47 852.09 483.84 852.30 493.99 C 852.40 499.89 851.55 506.14 854.25 511.64 C 857.60 519.85 865.64 527.35 875.02 526.76 C 881.02 526.49 887.54 527.86 893.07 524.87 C 898.97 521.93 903.69 516.56 905.54 510.19 C 909.03 499.61 908.13 486.96 900.96 478.07 C 896.38 473.10 889.90 469.32 882.99 469.41 C 878.17 469.38 873.14 468.97 868.58 470.81 Z" />
<path fill="#ef5b81" opacity="1.00" d=" M 986.42 444.41 C 999.01 442.26 1012.57 443.09 1024.16 448.87 C 1042.07 457.21 1054.58 476.18 1054.60 496.01 C 1055.09 508.28 1052.08 520.87 1045.04 531.05 C 1039.35 538.76 1031.83 545.30 1022.80 548.76 C 1009.72 554.20 994.75 554.77 981.13 551.06 C 960.99 546.25 944.94 527.69 943.32 507.02 C 943.23 500.34 943.03 493.65 943.49 486.98 C 946.83 465.53 965.31 448.18 986.42 444.41 M 987.62 470.84 C 978.29 474.38 971.01 483.86 971.34 494.02 C 971.45 500.21 970.52 506.80 973.47 512.52 C 977.08 520.37 985.02 527.10 994.01 526.76 C 1000.73 526.66 1008.07 527.81 1014.01 523.88 C 1023.94 518.19 1027.17 505.67 1026.38 494.95 C 1025.63 489.92 1024.77 484.58 1021.52 480.49 C 1017.13 474.63 1010.62 469.60 1003.01 469.46 C 997.88 469.41 992.48 468.82 987.62 470.84 Z" />
<path fill="#ef5b81" opacity="1.00" d=" M 1064.38 459.93 C 1064.04 454.02 1067.28 447.73 1073.01 445.57 C 1077.34 445.39 1082.23 444.35 1086.08 446.92 C 1090.24 449.28 1092.65 454.27 1092.53 458.97 C 1092.49 480.83 1092.56 502.69 1092.49 524.54 C 1103.67 524.55 1114.85 524.54 1126.03 524.54 C 1131.12 524.39 1135.84 527.75 1138.18 532.14 C 1138.94 535.70 1138.74 539.44 1138.30 543.04 C 1136.64 548.09 1131.12 551.05 1125.98 550.74 C 1109.66 550.74 1093.33 550.75 1077.01 550.74 C 1070.35 551.15 1063.69 544.81 1064.40 538.05 C 1064.36 512.01 1064.40 485.97 1064.38 459.93 Z" />
<path fill="#ef5b81" opacity="1.00" d=" M 723.19 447.95 C 726.29 445.65 730.39 446.12 734.03 446.24 C 739.24 446.48 743.29 451.20 744.40 456.03 C 744.87 464.67 744.44 473.35 744.59 482.01 C 744.52 483.48 745.14 484.84 745.59 486.22 C 757.75 486.09 769.90 486.18 782.06 486.18 C 783.83 486.15 785.59 485.74 787.35 485.51 C 787.41 476.33 787.24 467.15 787.45 457.98 C 787.19 451.48 793.62 445.86 799.97 446.15 C 802.96 446.16 806.30 445.83 808.86 447.73 C 811.99 450.19 815.00 453.73 814.65 457.97 C 814.73 483.98 814.64 509.99 814.69 535.99 C 814.67 538.32 814.73 540.66 814.43 542.98 C 813.06 546.51 810.56 549.96 806.94 551.38 C 803.02 551.97 798.98 551.93 795.08 551.34 C 790.93 549.15 787.39 544.91 787.46 540.02 C 787.19 529.93 787.49 519.83 787.29 509.74 C 773.09 509.60 758.88 509.67 744.68 509.70 C 744.47 519.82 744.68 529.93 744.57 540.05 C 744.59 544.63 741.38 548.59 737.76 551.06 C 733.68 552.19 729.25 551.90 725.08 551.34 C 720.92 549.19 716.97 545.03 717.34 540.01 C 717.20 512.68 717.20 485.33 717.34 457.99 C 717.02 453.76 720.00 450.30 723.19 447.95 Z" />
</g>
</svg>
