<?xml version="1.0" encoding="UTF-8" ?>
<!DOCTYPE svg PUBLIC "-//W3C//DTD SVG 1.1//EN" "http://www.w3.org/Graphics/SVG/1.1/DTD/svg11.dtd">
<svg width="1875pt" height="378pt" viewBox="0 0 1875 378" version="1.1" xmlns="http://www.w3.org/2000/svg">
<g id="#019ce6ff">
<path fill="#019ce6" opacity="1.00" d=" M 266.76 4.50 C 267.70 3.79 268.55 2.63 269.91 2.89 C 378.62 2.90 487.32 2.89 596.03 2.90 C 597.77 2.69 598.82 4.33 600.03 5.27 C 597.82 8.87 599.64 13.49 599.12 17.52 C 598.81 17.88 598.19 18.59 597.88 18.95 C 597.76 22.63 598.74 26.49 597.35 30.03 C 596.29 32.78 597.69 35.82 596.55 38.54 C 594.63 43.82 597.27 49.71 595.16 54.94 C 594.22 57.87 596.11 61.37 593.98 63.97 C 593.44 69.22 594.80 74.66 593.14 79.76 C 592.81 81.78 593.08 83.95 591.92 85.74 C 591.77 89.63 592.00 93.52 591.81 97.41 C 589.06 101.35 592.62 106.94 589.90 110.91 C 589.60 114.59 590.58 118.48 588.84 121.92 C 588.63 125.62 588.88 129.34 588.86 133.05 C 588.58 133.45 588.01 134.25 587.72 134.65 C 587.65 137.01 588.47 139.74 586.78 141.73 C 586.56 146.66 587.11 151.65 586.64 156.55 C 586.43 156.88 586.01 157.53 585.80 157.85 C 585.49 161.48 586.51 165.32 584.82 168.71 C 584.49 171.98 585.02 175.27 584.58 178.54 L 584.30 177.64 C 581.52 163.10 586.20 148.61 586.48 134.05 C 586.38 127.29 588.72 120.79 588.78 114.04 C 588.57 104.92 591.27 96.07 591.24 86.95 C 591.10 79.22 593.39 71.71 593.32 63.99 C 593.36 57.96 593.19 51.88 594.52 45.96 C 596.27 38.05 594.70 29.90 596.19 21.97 C 597.22 16.24 597.90 10.41 597.48 4.58 C 487.84 4.34 378.20 4.53 268.55 4.49 C 267.73 13.42 270.47 22.10 270.67 30.98 C 271.54 37.62 271.35 44.36 272.44 50.98 C 273.17 55.95 273.58 60.97 273.49 66.00 C 273.37 72.73 275.96 79.19 275.59 85.94 C 275.04 95.71 277.57 105.27 277.76 115.01 C 278.16 124.37 280.60 133.56 280.54 142.96 C 280.39 153.38 283.12 163.59 282.79 174.02 C 282.53 182.11 284.58 190.00 284.86 198.05 C 285.08 204.52 286.94 210.78 287.33 217.23 C 287.46 229.24 290.84 240.97 290.46 253.02 C 290.27 259.42 292.56 265.58 292.51 271.98 C 292.37 278.32 293.32 284.60 294.02 290.88 C 295.04 300.91 295.13 311.04 296.97 320.97 C 297.99 328.48 296.73 336.34 299.39 343.59 C 306.24 346.60 313.93 346.94 321.07 349.07 C 328.04 351.09 335.56 351.37 342.23 354.35 C 341.09 355.31 339.40 355.89 338.02 355.07 C 334.19 353.22 329.92 352.98 325.83 352.06 C 324.24 350.84 321.95 351.71 320.49 350.29 C 315.60 351.12 311.57 347.28 306.68 348.18 C 303.71 345.22 298.64 347.47 296.41 343.45 C 296.21 339.28 297.48 334.77 295.60 330.87 C 294.90 328.38 296.61 325.13 294.50 323.18 C 294.01 318.65 295.46 313.83 293.62 309.55 C 293.16 306.99 293.58 304.36 293.42 301.78 C 291.15 298.27 293.06 293.64 292.43 289.69 C 290.39 287.28 291.74 283.86 291.42 281.00 C 292.13 276.80 289.78 273.10 290.35 268.92 C 288.33 264.48 289.82 259.50 289.33 254.82 C 287.24 252.29 288.77 248.70 288.33 245.72 C 288.08 245.27 287.58 244.38 287.33 243.93 C 287.19 239.52 287.44 235.11 287.32 230.70 C 284.67 226.52 287.79 221.14 285.55 216.81 C 284.86 213.90 285.51 210.82 285.27 207.84 C 282.95 205.07 285.06 201.10 284.08 197.88 C 282.44 194.72 283.45 191.06 283.34 187.68 C 283.05 187.30 282.45 186.54 282.15 186.16 C 282.26 181.97 282.17 177.78 282.27 173.59 C 281.98 173.14 281.42 172.22 281.14 171.77 C 281.17 170.13 281.27 168.49 281.13 166.86 C 278.62 161.19 281.74 154.65 279.26 149.00 C 278.93 146.27 279.27 143.52 279.16 140.78 C 277.03 137.49 278.55 133.30 278.22 129.63 C 277.94 129.18 277.36 128.29 277.07 127.85 C 276.90 123.64 277.83 119.25 276.26 115.22 C 275.85 112.79 276.21 110.32 276.08 107.87 C 273.56 103.55 276.25 98.06 274.72 93.40 C 273.45 90.68 274.54 87.66 273.90 84.84 C 271.60 79.41 274.43 73.30 272.36 67.82 C 271.81 66.07 272.25 64.15 271.59 62.43 C 269.66 57.83 272.39 52.56 270.17 48.02 C 269.51 44.34 270.09 40.55 270.01 36.83 C 267.44 33.01 270.41 28.12 267.94 24.28 C 267.31 20.00 269.07 15.17 266.89 11.26 C 266.87 9.01 266.91 6.75 266.76 4.50 Z" />
<path fill="#019ce6" opacity="1.00" d=" M 432.96 20.96 C 434.85 20.11 437.01 20.46 439.03 20.33 C 484.37 20.27 529.71 20.31 575.05 20.32 C 577.56 20.01 579.70 22.55 579.21 24.98 C 578.36 33.33 577.81 41.71 576.66 50.03 C 576.21 65.06 573.82 79.94 573.35 94.96 C 573.25 99.66 571.33 104.11 571.55 108.84 C 571.63 116.61 569.58 124.19 569.69 131.95 C 568.66 145.01 567.76 158.08 566.04 171.07 C 564.56 181.11 565.41 191.36 563.52 201.34 C 562.93 206.55 562.79 211.80 561.79 216.96 C 560.76 222.27 561.71 227.71 560.93 233.05 C 559.78 240.29 560.21 247.70 558.77 254.90 C 557.54 262.01 558.48 269.37 556.60 276.38 C 555.91 284.89 554.86 293.38 554.60 301.92 C 554.49 305.45 554.22 308.97 553.53 312.44 C 552.40 318.23 552.90 324.18 552.08 330.00 C 551.82 330.26 551.30 330.78 551.04 331.04 C 545.02 333.00 538.90 334.75 532.61 335.53 C 520.79 338.54 508.73 340.54 497.00 343.97 C 490.66 345.30 484.37 346.84 478.00 347.97 C 471.94 350.23 465.32 350.00 459.29 352.32 C 455.08 353.88 450.46 353.63 446.26 355.21 C 441.85 356.58 437.00 358.72 432.51 356.42 C 431.32 352.69 432.30 348.81 432.27 345.00 C 432.30 335.99 431.97 326.97 432.54 317.97 C 432.56 316.03 431.97 313.54 429.94 312.82 C 422.43 312.07 415.20 309.68 407.86 308.00 C 395.05 305.92 382.57 302.17 369.85 299.84 C 363.99 298.10 357.62 297.74 352.20 294.76 C 350.35 291.56 351.91 287.40 351.54 283.84 C 351.70 287.04 352.48 290.18 352.54 293.39 C 362.84 297.64 374.02 298.70 384.72 301.50 C 400.78 305.34 417.07 308.05 433.02 312.28 C 445.40 309.40 457.84 306.96 470.13 303.71 C 473.05 303.42 475.94 302.85 478.69 301.81 C 482.99 300.21 487.68 300.26 492.01 298.76 C 495.35 297.91 498.73 297.22 502.02 296.16 C 504.35 295.59 506.74 295.31 509.11 294.91 C 510.44 294.56 511.79 294.22 513.14 293.89 C 514.91 293.45 516.67 292.92 518.39 292.28 C 518.26 288.84 518.51 285.41 519.12 282.02 C 520.01 276.52 518.99 270.89 520.05 265.40 C 521.76 252.99 521.99 240.47 523.59 228.07 C 523.55 223.02 524.87 218.08 524.62 213.02 C 525.28 205.67 526.73 198.39 526.73 190.99 C 527.91 182.01 528.57 172.99 529.49 163.99 C 529.25 155.91 531.78 148.05 531.55 139.97 C 531.23 132.23 533.97 124.74 533.60 116.99 C 534.15 112.34 534.54 107.69 534.81 103.02 C 536.50 96.03 534.95 88.75 536.54 81.75 C 537.78 76.93 537.48 71.89 538.51 67.02 C 538.72 65.05 539.19 61.33 536.19 61.50 C 501.50 61.43 466.80 61.49 432.11 61.46 C 431.96 50.62 432.45 39.78 432.18 28.93 C 432.40 26.31 430.05 22.69 432.96 20.96 Z" />
<path fill="#019ce6" opacity="1.00" d=" M 332.88 77.40 C 334.92 85.60 334.51 94.08 335.60 102.41 C 388.21 102.45 440.82 102.52 493.44 102.49 C 493.48 106.38 493.65 110.31 492.87 114.15 C 492.22 117.42 492.95 120.90 491.69 124.05 C 491.38 128.02 491.65 132.04 490.86 135.97 C 489.99 140.28 491.18 144.83 489.70 149.04 C 489.66 153.90 488.79 158.68 488.30 163.51 C 454.49 163.50 420.69 163.62 386.89 163.55 C 385.65 163.62 384.45 163.85 383.28 164.25 C 383.47 177.39 383.33 190.54 383.35 203.69 C 398.24 203.92 413.14 203.75 428.03 203.77 C 429.42 203.75 430.80 204.04 432.12 204.49 C 430.52 205.31 428.72 205.46 426.97 205.42 C 413.32 205.29 399.67 205.55 386.03 205.21 C 384.61 205.17 382.13 204.95 382.34 202.96 C 382.14 189.98 382.23 176.98 382.30 164.00 C 382.49 162.14 384.68 162.63 385.98 162.48 C 399.99 162.41 413.99 162.38 428.00 162.44 C 429.55 162.73 431.64 161.84 431.44 159.98 C 431.55 141.34 431.33 122.69 431.58 104.05 C 427.45 103.28 423.24 103.65 419.07 103.61 C 391.41 103.61 363.75 103.59 336.09 103.67 C 333.37 99.75 333.63 94.87 332.81 90.39 C 332.25 86.08 332.28 81.70 332.88 77.40 Z" />
<path fill="#019ce6" opacity="1.00" d=" M 577.80 230.51 C 578.79 220.37 579.15 210.15 580.56 200.04 C 580.49 204.05 581.35 207.99 581.43 211.98 C 580.76 215.68 579.07 219.15 578.86 222.94 C 578.17 227.40 579.69 231.97 578.40 236.37 C 577.34 239.64 578.53 243.13 577.51 246.42 C 576.48 250.23 576.87 254.24 576.05 258.10 C 574.84 263.07 577.12 268.12 575.81 273.11 C 575.38 275.15 575.77 277.29 575.26 279.30 C 572.92 284.10 576.31 290.17 573.50 294.70 C 573.27 297.82 574.20 301.17 572.61 304.05 C 572.19 308.35 572.69 312.69 572.43 317.01 C 570.37 319.14 571.90 322.50 571.42 325.14 C 568.58 329.02 572.31 334.78 569.41 338.66 C 569.37 340.64 569.39 342.63 569.46 344.62 C 569.05 344.99 568.23 345.74 567.82 346.11 C 567.12 346.14 565.71 346.20 565.01 346.23 C 561.83 347.57 558.35 348.14 554.93 348.34 C 552.19 349.18 549.63 350.72 546.63 350.29 C 543.44 352.08 539.25 351.20 536.09 353.21 C 535.12 353.25 534.15 353.30 533.20 353.35 C 528.52 355.28 522.91 354.74 518.30 357.29 C 516.57 357.33 514.71 357.11 513.31 358.33 C 511.70 358.51 509.83 357.92 508.53 359.17 C 507.35 359.34 506.22 359.63 505.30 360.40 C 503.33 360.52 501.14 359.90 499.43 361.17 C 497.53 362.81 495.02 362.33 492.74 362.67 C 489.48 363.50 486.27 364.54 482.91 364.74 L 482.00 365.49 C 480.99 365.52 479.98 365.55 478.98 365.59 C 475.39 367.87 470.65 366.96 466.88 368.95 C 464.99 369.99 462.78 369.55 460.72 369.66 C 459.32 371.30 456.80 369.94 455.46 371.61 C 454.11 371.64 452.77 371.65 451.44 371.69 C 450.35 373.31 448.26 372.47 446.70 372.75 C 443.60 374.60 439.95 374.49 436.68 375.71 L 436.52 375.29 C 436.45 375.10 436.30 374.70 436.23 374.51 C 424.90 374.63 414.15 370.54 403.15 368.50 C 393.73 366.34 384.22 364.72 374.86 362.32 C 375.91 362.30 376.96 362.32 378.01 362.37 C 389.34 364.47 400.52 367.40 411.84 369.62 C 421.06 371.60 430.38 375.10 439.94 373.19 C 456.46 369.15 473.07 365.53 489.65 361.73 C 515.44 356.47 540.80 349.23 566.73 344.70 C 568.17 344.13 568.40 342.41 568.66 341.09 C 570.00 331.45 568.63 321.61 570.46 312.02 C 572.12 303.60 570.76 294.90 572.85 286.54 C 574.10 276.16 573.96 265.61 575.76 255.29 C 577.02 247.07 575.79 238.65 577.80 230.51 Z" />
<path fill="#019ce6" opacity="1.00" d=" M 432.12 204.49 C 449.17 204.65 466.23 204.32 483.27 204.63 C 486.02 206.79 483.80 211.03 483.79 213.99 C 483.57 220.97 482.36 227.86 482.29 234.86 C 480.95 238.45 481.86 242.35 481.17 246.06 C 479.97 251.79 481.30 257.80 479.36 263.41 C 476.37 264.64 473.07 264.69 470.05 265.81 C 467.08 266.76 463.89 266.70 460.93 267.72 C 457.58 268.68 454.13 269.49 450.62 269.46 C 450.16 269.90 449.25 270.78 448.79 271.22 C 445.16 271.32 441.44 271.46 438.03 272.85 C 433.28 274.09 428.09 273.91 423.48 272.17 C 417.67 270.87 411.88 269.51 406.00 268.58 C 399.32 266.53 392.09 266.39 385.75 263.23 C 385.21 256.69 386.35 249.94 384.38 243.59 C 375.22 242.00 365.98 240.77 356.90 238.80 C 353.68 238.37 350.49 237.73 347.28 237.31 C 348.02 233.69 351.76 237.16 354.02 237.11 C 359.79 237.17 365.18 239.43 370.92 239.69 C 375.72 240.08 380.35 241.72 385.20 241.75 C 387.40 248.72 386.51 256.30 388.72 263.28 C 394.04 263.14 398.88 265.62 404.07 266.29 C 407.16 266.67 409.97 268.20 413.09 268.44 C 419.14 269.06 424.84 271.93 430.95 271.94 C 431.87 270.82 430.82 269.46 430.66 268.27 C 431.09 267.21 431.54 266.17 431.98 265.13 C 431.70 263.46 431.45 261.79 431.44 260.10 C 431.52 245.73 431.44 231.37 431.48 217.01 C 431.46 213.43 431.84 209.72 430.56 206.31 C 430.95 205.85 431.73 204.94 432.12 204.49 Z" />
<path fill="#019ce6" opacity="1.00" d=" M 342.99 355.92 C 344.29 354.91 345.93 354.60 347.56 354.70 C 356.21 357.62 365.26 359.05 374.02 361.54 C 372.60 361.64 371.18 361.75 369.77 361.89 C 368.26 362.12 367.31 360.67 365.94 360.48 C 362.69 360.45 359.23 359.90 356.36 358.43 C 355.13 358.39 353.91 358.37 352.70 358.36 C 351.29 357.15 349.44 357.34 347.72 357.27 C 346.20 356.62 344.62 356.17 342.99 355.92 Z" />
</g>
<g id="#017db7ff">
<path fill="#017db7" opacity="1.00" d=" M 268.55 4.49 C 378.20 4.53 487.84 4.34 597.48 4.58 C 597.90 10.41 597.22 16.24 596.19 21.97 C 594.70 29.90 596.27 38.05 594.52 45.96 C 593.19 51.88 593.36 57.96 593.32 63.99 C 593.39 71.71 591.10 79.22 591.24 86.95 C 591.27 96.07 588.57 104.92 588.78 114.04 C 588.72 120.79 586.38 127.29 586.48 134.05 C 586.20 148.61 581.52 163.10 584.30 177.64 L 584.47 178.41 C 582.48 182.30 585.29 187.11 582.78 190.81 C 582.37 193.75 583.82 197.29 581.74 199.78 C 581.70 204.77 581.79 209.77 581.70 214.77 C 580.01 216.60 581.21 219.29 580.27 221.42 C 578.31 226.63 581.38 232.81 578.68 237.74 C 578.61 240.64 578.74 243.54 578.65 246.44 C 576.15 249.79 578.84 254.51 577.18 258.24 C 575.35 262.97 578.06 268.60 575.81 273.11 C 577.12 268.12 574.84 263.07 576.05 258.10 C 576.87 254.24 576.48 250.23 577.51 246.42 C 578.53 243.13 577.34 239.64 578.40 236.37 C 579.69 231.97 578.17 227.40 578.86 222.94 C 579.07 219.15 580.76 215.68 581.43 211.98 C 581.35 207.99 580.49 204.05 580.56 200.04 C 579.15 210.15 578.79 220.37 577.80 230.51 C 575.79 238.65 577.02 247.07 575.76 255.29 C 573.96 265.61 574.10 276.16 572.85 286.54 C 570.76 294.90 572.12 303.60 570.46 312.02 C 568.63 321.61 570.00 331.45 568.66 341.09 C 568.40 342.41 568.17 344.13 566.73 344.70 C 540.80 349.23 515.44 356.47 489.65 361.73 C 473.07 365.53 456.46 369.15 439.94 373.19 C 430.38 375.10 421.06 371.60 411.84 369.62 C 400.52 367.40 389.34 364.47 378.01 362.37 C 376.96 362.32 375.91 362.30 374.86 362.32 C 384.22 364.72 393.73 366.34 403.15 368.50 C 414.15 370.54 424.90 374.63 436.23 374.51 C 436.30 374.70 436.45 375.10 436.52 375.29 C 436.51 375.55 436.47 376.07 436.45 376.32 C 434.13 375.99 431.79 375.80 429.57 375.06 C 427.25 374.43 424.66 375.37 422.51 374.09 C 421.36 373.75 420.24 373.35 419.21 372.76 C 418.33 372.78 416.56 372.82 415.68 372.84 C 415.36 372.56 414.73 372.01 414.42 371.74 C 411.63 371.56 408.70 371.03 406.20 369.76 C 403.00 369.98 399.85 369.36 397.06 367.76 C 393.95 368.08 391.24 366.22 388.15 366.50 C 386.32 365.54 384.18 365.60 382.34 364.71 C 380.95 364.59 379.57 364.43 378.38 363.67 C 376.93 363.62 375.48 363.49 374.32 362.55 C 372.47 362.51 370.62 362.52 368.78 362.43 L 369.77 361.89 C 371.18 361.75 372.60 361.64 374.02 361.54 C 365.26 359.05 356.21 357.62 347.56 354.70 C 345.82 354.12 344.00 354.38 342.23 354.35 C 335.56 351.37 328.04 351.09 321.07 349.07 C 313.93 346.94 306.24 346.60 299.39 343.59 C 296.73 336.34 297.99 328.48 296.97 320.97 C 295.13 311.04 295.04 300.91 294.02 290.88 C 293.32 284.60 292.37 278.32 292.51 271.98 C 292.56 265.58 290.27 259.42 290.46 253.02 C 290.84 240.97 287.46 229.24 287.33 217.23 C 286.94 210.78 285.08 204.52 284.86 198.05 C 284.58 190.00 282.53 182.11 282.79 174.02 C 283.12 163.59 280.39 153.38 280.54 142.96 C 280.60 133.56 278.16 124.37 277.76 115.01 C 277.57 105.27 275.04 95.71 275.59 85.94 C 275.96 79.19 273.37 72.73 273.49 66.00 C 273.58 60.97 273.17 55.95 272.44 50.98 C 271.35 44.36 271.54 37.62 270.67 30.98 C 270.47 22.10 267.73 13.42 268.55 4.49 M 432.96 20.96 C 430.05 22.69 432.40 26.31 432.18 28.93 C 432.45 39.78 431.96 50.62 432.11 61.46 C 398.89 61.48 365.67 61.45 332.46 61.48 C 332.51 66.79 332.34 72.12 332.88 77.40 C 332.28 81.70 332.25 86.08 332.81 90.39 C 333.63 94.87 333.37 99.75 336.09 103.67 C 363.75 103.59 391.41 103.61 419.07 103.61 C 423.24 103.65 427.45 103.28 431.58 104.05 C 431.33 122.69 431.55 141.34 431.44 159.98 C 431.64 161.84 429.55 162.73 428.00 162.44 C 413.99 162.38 399.99 162.41 385.98 162.48 C 384.68 162.63 382.49 162.14 382.30 164.00 C 382.23 176.98 382.14 189.98 382.34 202.96 C 382.13 204.95 384.61 205.17 386.03 205.21 C 399.67 205.55 413.32 205.29 426.97 205.42 C 428.72 205.46 430.52 205.31 432.12 204.49 C 431.73 204.94 430.95 205.85 430.56 206.31 C 431.84 209.72 431.46 213.43 431.48 217.01 C 431.44 231.37 431.52 245.73 431.44 260.10 C 431.45 261.79 431.70 263.46 431.98 265.13 C 431.54 266.17 431.09 267.21 430.66 268.27 C 430.82 269.46 431.87 270.82 430.95 271.94 C 424.84 271.93 419.14 269.06 413.09 268.44 C 409.97 268.20 407.16 266.67 404.07 266.29 C 398.88 265.62 394.04 263.14 388.72 263.28 C 386.51 256.30 387.40 248.72 385.20 241.75 C 380.35 241.72 375.72 240.08 370.92 239.69 C 365.18 239.43 359.79 237.17 354.02 237.11 C 351.76 237.16 348.02 233.69 347.28 237.31 C 347.57 241.00 347.50 244.70 347.56 248.40 L 348.52 248.52 C 348.99 252.22 347.50 256.51 349.40 259.85 C 349.56 263.26 349.62 266.68 349.65 270.10 C 349.83 271.31 349.23 272.94 350.56 273.72 C 351.05 276.29 349.62 279.61 351.52 281.73 C 351.53 282.26 351.54 283.31 351.54 283.84 C 351.91 287.40 350.35 291.56 352.20 294.76 C 357.62 297.74 363.99 298.10 369.85 299.84 C 382.57 302.17 395.05 305.92 407.86 308.00 C 415.20 309.68 422.43 312.07 429.94 312.82 C 431.97 313.54 432.56 316.03 432.54 317.97 C 431.97 326.97 432.30 335.99 432.27 345.00 C 432.30 348.81 431.32 352.69 432.51 356.42 C 437.00 358.72 441.85 356.58 446.26 355.21 C 450.46 353.63 455.08 353.88 459.29 352.32 C 465.32 350.00 471.94 350.23 478.00 347.97 C 484.37 346.84 490.66 345.30 497.00 343.97 C 508.73 340.54 520.79 338.54 532.61 335.53 C 538.90 334.75 545.02 333.00 551.04 331.04 C 551.30 330.78 551.82 330.26 552.08 330.00 C 552.90 324.18 552.40 318.23 553.53 312.44 C 554.22 308.97 554.49 305.45 554.60 301.92 C 554.86 293.38 555.91 284.89 556.60 276.38 C 558.48 269.37 557.54 262.01 558.77 254.90 C 560.21 247.70 559.78 240.29 560.93 233.05 C 561.71 227.71 560.76 222.27 561.79 216.96 C 562.79 211.80 562.93 206.55 563.52 201.34 C 565.41 191.36 564.56 181.11 566.04 171.07 C 567.76 158.08 568.66 145.01 569.69 131.95 C 569.58 124.19 571.63 116.61 571.55 108.84 C 571.33 104.11 573.25 99.66 573.35 94.96 C 573.82 79.94 576.21 65.06 576.66 50.03 C 577.81 41.71 578.36 33.33 579.21 24.98 C 579.70 22.55 577.56 20.01 575.05 20.32 C 529.71 20.31 484.37 20.27 439.03 20.33 C 437.01 20.46 434.85 20.11 432.96 20.96 Z" />
</g>
<g id="#ffffffff">
<path fill="#ffffff" opacity="1.00" d=" M 739.89 17.82 C 761.13 12.47 783.19 11.23 805.02 12.07 C 820.02 12.14 834.83 14.88 849.52 17.62 C 871.51 21.84 892.26 30.60 912.34 40.25 C 912.36 68.00 912.35 95.75 912.35 123.50 C 908.95 123.50 905.56 123.51 902.17 123.49 C 884.23 108.52 865.25 94.04 843.10 85.93 C 823.67 77.47 801.53 76.34 780.96 80.85 C 763.80 84.23 747.86 93.17 735.89 105.89 C 724.24 118.07 716.96 133.77 712.40 149.83 C 708.42 165.88 707.22 182.53 708.01 199.02 C 708.32 211.00 710.09 222.96 713.35 234.50 C 719.08 252.88 729.03 270.61 744.56 282.43 C 758.84 293.83 776.89 299.57 794.91 301.28 C 807.25 302.85 819.74 301.14 831.80 298.41 C 859.03 291.76 882.17 274.74 903.09 256.75 C 906.17 256.74 909.25 256.75 912.35 256.75 C 912.33 284.10 912.38 311.44 912.32 338.79 C 904.08 342.32 895.94 346.08 887.74 349.70 C 868.91 357.49 849.12 362.93 829.00 366.06 C 811.12 368.72 793.01 368.49 775.00 367.91 C 764.49 366.53 753.89 365.68 743.54 363.32 C 709.32 356.39 676.66 338.98 654.14 311.95 C 640.95 296.20 631.55 277.55 625.21 258.08 C 616.73 230.98 614.69 202.23 616.27 174.00 C 618.69 133.73 632.32 92.93 660.16 63.04 C 681.06 39.93 709.88 25.14 739.89 17.82 Z" />
<path fill="#ffffff" opacity="1.00" d=" M 1062.50 17.32 C 1078.82 14.34 1095.36 12.43 1111.97 12.31 C 1155.02 12.37 1198.27 19.53 1238.44 35.23 C 1238.50 61.57 1238.45 87.91 1238.46 114.25 C 1235.30 114.25 1232.14 114.25 1229.00 114.25 C 1197.85 90.44 1159.12 76.57 1119.90 75.65 C 1105.43 75.14 1090.76 76.70 1077.03 81.43 C 1068.25 84.01 1060.14 89.40 1055.12 97.13 C 1050.34 104.75 1051.06 114.92 1055.37 122.56 C 1059.50 129.76 1067.38 133.35 1074.82 136.14 C 1090.77 141.78 1107.55 144.37 1124.02 147.96 C 1147.83 152.57 1171.54 158.54 1193.83 168.23 C 1210.63 175.81 1226.80 186.31 1237.52 201.62 C 1249.06 218.23 1252.88 239.11 1251.79 259.03 C 1251.09 279.72 1243.60 300.23 1230.25 316.12 C 1210.58 339.96 1181.77 354.80 1151.94 361.50 C 1137.84 364.74 1123.45 366.66 1109.01 367.51 C 1079.93 368.08 1050.55 367.35 1022.04 361.05 C 1000.39 356.32 979.17 349.65 958.67 341.23 C 958.68 313.82 958.67 286.41 958.68 259.00 C 961.98 259.17 965.41 258.60 968.65 259.29 C 974.61 263.30 980.09 268.05 986.35 271.64 C 1006.18 284.19 1028.13 293.34 1050.92 298.89 C 1069.56 303.47 1088.93 305.64 1108.10 303.68 C 1120.44 302.72 1133.37 301.70 1144.28 295.25 C 1150.11 291.78 1156.62 287.80 1159.00 281.07 C 1162.68 271.54 1161.28 259.58 1153.61 252.38 C 1144.00 243.08 1130.65 239.34 1117.94 236.49 C 1091.47 230.01 1064.14 226.79 1038.42 217.43 C 1022.55 211.85 1006.98 204.76 993.72 194.26 C 980.05 183.61 969.88 168.60 965.05 151.95 C 960.80 137.46 959.89 122.07 961.74 107.12 C 963.81 92.22 969.77 77.90 978.94 65.97 C 999.39 39.88 1030.77 24.73 1062.50 17.32 Z" />
<path fill="#ffffff" opacity="1.00" d=" M 1412.88 14.92 C 1442.12 10.59 1471.89 12.22 1501.09 16.13 C 1525.89 19.98 1550.43 26.00 1573.80 35.25 C 1573.85 61.56 1573.70 87.88 1573.87 114.20 C 1570.43 113.92 1566.61 115.05 1563.42 113.59 C 1528.44 87.06 1483.90 73.25 1440.03 75.89 C 1428.75 76.80 1417.55 79.11 1407.06 83.37 C 1399.02 87.01 1391.50 93.12 1388.33 101.58 C 1385.72 109.96 1387.59 119.89 1393.59 126.42 C 1398.72 132.01 1406.07 134.66 1413.04 137.15 C 1437.62 144.81 1463.33 147.81 1488.19 154.38 C 1508.58 159.92 1529.12 166.37 1547.06 177.81 C 1561.26 186.64 1573.59 199.15 1580.10 214.73 C 1588.13 233.97 1588.99 255.69 1585.03 275.98 C 1581.20 294.00 1571.92 310.80 1558.71 323.64 C 1543.69 339.13 1524.37 349.86 1504.09 356.83 C 1485.02 363.12 1465.01 366.16 1445.03 367.49 C 1420.34 368.10 1395.54 367.43 1371.09 363.75 C 1344.66 359.03 1318.75 351.45 1293.95 341.17 C 1294.07 313.78 1293.97 286.39 1294.00 259.00 C 1297.25 259.00 1300.50 258.98 1303.76 259.03 C 1336.14 284.43 1375.93 300.24 1416.91 303.98 C 1430.95 305.04 1445.04 303.86 1458.97 302.06 C 1468.97 300.74 1478.61 296.86 1486.60 290.68 C 1497.76 283.09 1499.17 265.89 1491.57 255.34 C 1484.74 246.81 1474.31 242.24 1464.08 239.21 C 1445.59 234.20 1426.72 230.83 1407.97 226.99 C 1385.08 221.86 1362.26 214.90 1341.89 203.03 C 1327.56 194.67 1314.86 182.99 1307.05 168.21 C 1299.75 154.71 1296.56 139.33 1296.17 124.08 C 1295.44 103.69 1301.32 82.97 1313.73 66.66 C 1333.00 41.69 1362.39 26.43 1392.48 18.69 C 1399.12 16.66 1406.05 16.01 1412.88 14.92 Z" />
<path fill="#ffffff" opacity="1.00" d=" M 332.46 61.48 C 365.67 61.45 398.89 61.48 432.11 61.46 C 466.80 61.49 501.50 61.43 536.19 61.50 C 539.19 61.33 538.72 65.05 538.51 67.02 C 537.48 71.89 537.78 76.93 536.54 81.75 C 534.95 88.75 536.50 96.03 534.81 103.02 C 534.54 107.69 534.15 112.34 533.60 116.99 C 533.97 124.74 531.23 132.23 531.55 139.97 C 531.78 148.05 529.25 155.91 529.49 163.99 C 528.57 172.99 527.91 182.01 526.73 190.99 C 526.73 198.39 525.28 205.67 524.62 213.02 C 524.87 218.08 523.55 223.02 523.59 228.07 C 521.99 240.47 521.76 252.99 520.05 265.40 C 518.99 270.89 520.01 276.52 519.12 282.02 C 518.51 285.41 518.26 288.84 518.39 292.28 C 516.67 292.92 514.91 293.45 513.14 293.89 C 511.79 294.22 510.44 294.56 509.11 294.91 C 506.74 295.31 504.35 295.59 502.02 296.16 C 498.73 297.22 495.35 297.91 492.01 298.76 C 487.68 300.26 482.99 300.21 478.69 301.81 C 475.94 302.85 473.05 303.42 470.13 303.71 C 457.84 306.96 445.40 309.40 433.02 312.28 C 417.07 308.05 400.78 305.34 384.72 301.50 C 374.02 298.70 362.84 297.64 352.54 293.39 C 352.48 290.18 351.70 287.04 351.54 283.84 C 351.54 283.31 351.53 282.26 351.52 281.73 C 349.62 279.61 351.05 276.29 350.56 273.72 C 349.23 272.94 349.83 271.31 349.65 270.10 C 349.62 266.68 349.56 263.26 349.40 259.85 C 347.50 256.51 348.99 252.22 348.52 248.52 L 347.56 248.40 C 347.50 244.70 347.57 241.00 347.28 237.31 C 350.49 237.73 353.68 238.37 356.90 238.80 C 365.98 240.77 375.22 242.00 384.38 243.59 C 386.35 249.94 385.21 256.69 385.75 263.23 C 392.09 266.39 399.32 266.53 406.00 268.58 C 411.88 269.51 417.67 270.87 423.48 272.17 C 428.09 273.91 433.28 274.09 438.03 272.85 C 441.44 271.46 445.16 271.32 448.79 271.22 C 449.25 270.78 450.16 269.90 450.62 269.46 C 454.13 269.49 457.58 268.68 460.93 267.72 C 463.89 266.70 467.08 266.76 470.05 265.81 C 473.07 264.69 476.37 264.64 479.36 263.41 C 481.30 257.80 479.97 251.79 481.17 246.06 C 481.86 242.35 480.95 238.45 482.29 234.86 C 482.36 227.86 483.57 220.97 483.79 213.99 C 483.80 211.03 486.02 206.79 483.27 204.63 C 466.23 204.32 449.17 204.65 432.12 204.49 C 430.80 204.04 429.42 203.75 428.03 203.77 C 413.14 203.75 398.24 203.92 383.35 203.69 C 383.33 190.54 383.47 177.39 383.28 164.25 C 384.45 163.85 385.65 163.62 386.89 163.55 C 420.69 163.62 454.49 163.50 488.30 163.51 C 488.79 158.68 489.66 153.90 489.70 149.04 C 491.18 144.83 489.99 140.28 490.86 135.97 C 491.65 132.04 491.38 128.02 491.69 124.05 C 492.95 120.90 492.22 117.42 492.87 114.15 C 493.65 110.31 493.48 106.38 493.44 102.49 C 440.82 102.52 388.21 102.45 335.60 102.41 C 334.51 94.08 334.92 85.60 332.88 77.40 C 332.34 72.12 332.51 66.79 332.46 61.48 Z" />
</g>
</svg>
