<?xml version="1.0" encoding="UTF-8" ?>
<!DOCTYPE svg PUBLIC "-//W3C//DTD SVG 1.1//EN" "http://www.w3.org/Graphics/SVG/1.1/DTD/svg11.dtd">
<svg width="1135pt" height="776pt" viewBox="0 0 1135 776" version="1.1" xmlns="http://www.w3.org/2000/svg">
<g id="#b1141bff">
<path fill="#b1141b" opacity="1.00" d=" M 0.00 0.00 L 1135.00 0.00 L 1135.00 191.81 C 1122.01 191.85 1109.02 191.66 1096.05 192.16 C 1041.37 192.26 986.70 191.65 932.02 191.84 C 910.37 191.63 888.72 192.58 867.07 191.86 C 851.05 192.06 835.02 192.28 819.00 191.91 C 787.00 191.74 754.99 191.92 722.99 191.82 C 699.98 191.68 676.99 192.29 653.99 192.17 C 635.32 192.17 616.65 191.97 597.98 191.82 C 573.66 192.73 549.33 191.14 525.01 192.09 C 504.33 191.53 483.64 192.53 462.96 191.88 C 437.31 191.81 411.65 191.86 386.00 191.85 C 364.64 192.22 343.28 191.43 321.93 192.12 C 308.96 192.55 295.99 191.36 283.02 192.04 C 273.68 192.07 264.34 191.59 255.00 192.08 C 235.02 192.25 215.03 192.18 195.04 192.12 C 180.36 191.32 165.67 192.57 150.98 192.01 C 135.32 191.45 119.66 192.59 104.00 191.90 C 83.02 192.39 62.02 192.10 41.03 192.18 C 27.73 192.37 14.45 191.51 1.16 191.85 C 1.15 322.67 1.35 453.50 1.21 584.32 C 360.14 584.33 719.08 584.36 1078.02 584.31 C 1097.01 584.29 1116.01 584.31 1135.00 584.39 L 1135.00 776.00 L 0.00 776.00 L 0.00 0.00 Z" />
<path fill="#b1141b" opacity="1.00" d=" M 335.46 241.93 C 349.00 262.75 361.97 283.95 375.32 304.89 C 372.55 304.82 369.79 304.99 367.03 305.10 C 338.71 304.55 310.36 304.68 282.04 305.19 C 271.63 304.47 261.22 305.63 250.82 304.74 C 250.89 283.94 250.46 263.14 250.98 242.35 C 255.45 247.58 259.15 253.41 263.12 259.02 C 270.61 270.39 278.77 281.29 286.40 292.56 C 288.93 296.28 291.77 299.82 293.63 303.94 C 294.54 303.94 295.46 303.94 296.38 303.94 C 299.01 298.03 303.04 292.91 306.31 287.36 C 316.18 272.31 325.54 256.94 335.46 241.93 Z" />
<path fill="#b1141b" opacity="1.00" d=" M 375.77 304.77 C 390.51 283.95 404.43 262.53 419.49 241.94 C 419.65 262.88 419.44 283.82 419.61 304.76 C 405.00 305.34 390.39 304.53 375.77 304.77 Z" />
<path fill="#b1141b" opacity="1.00" d=" M 250.66 319.78 C 265.10 319.92 279.55 319.48 293.98 320.18 C 336.02 320.22 378.06 319.20 420.11 320.24 C 420.40 361.83 420.10 403.43 420.27 445.02 C 420.09 455.35 419.81 466.04 415.49 475.62 C 409.66 489.24 397.43 498.59 385.36 506.44 C 370.23 515.88 354.48 524.27 338.99 533.08 C 337.46 533.71 335.70 535.37 334.08 534.09 C 322.65 527.48 311.07 521.14 299.64 514.53 C 288.44 507.98 277.05 501.44 267.56 492.50 C 261.40 486.58 256.29 479.38 253.77 471.15 C 250.96 462.76 250.61 453.83 250.71 445.05 C 250.70 403.30 250.67 361.54 250.66 319.78 M 267.14 336.52 C 266.83 355.69 266.65 374.86 267.17 394.02 C 267.56 415.03 265.96 436.05 267.48 457.03 C 268.45 469.31 276.36 479.92 286.28 486.73 C 302.01 497.76 319.15 506.59 335.99 515.78 C 349.84 508.13 363.76 500.58 377.20 492.23 C 384.02 487.88 390.66 482.96 395.67 476.54 C 400.92 469.90 403.73 461.45 403.65 453.01 C 403.55 414.15 403.70 375.29 403.58 336.43 C 358.10 336.71 312.62 336.30 267.14 336.52 Z" />
<path fill="#b1141b" opacity="1.00" d=" M 280.95 350.39 C 296.65 350.36 312.35 350.50 328.05 350.39 C 328.29 366.15 328.22 381.91 327.98 397.67 C 312.31 397.62 296.64 397.62 280.97 397.67 C 280.72 381.91 280.66 366.14 280.95 350.39 Z" />
<path fill="#b1141b" opacity="1.00" d=" M 342.61 350.91 C 350.38 357.95 357.46 365.71 365.00 372.99 C 373.14 381.25 381.73 389.08 389.57 397.62 C 373.88 397.79 358.20 397.65 342.51 397.70 C 342.76 382.11 342.49 366.51 342.61 350.91 Z" />
<path fill="#b1141b" opacity="1.00" d=" M 281.16 412.35 C 296.82 411.99 312.50 412.36 328.16 412.24 C 327.95 428.06 328.60 443.89 327.77 459.71 C 312.13 459.60 296.50 459.68 280.86 459.71 C 280.71 445.82 280.97 431.93 280.75 418.04 C 280.74 416.14 280.69 414.21 281.16 412.35 Z" />
<path fill="#b1141b" opacity="1.00" d=" M 342.61 412.14 C 358.29 412.20 373.98 412.18 389.67 412.18 C 389.63 428.03 389.54 443.87 389.70 459.71 C 373.98 459.66 358.26 459.79 342.55 459.61 C 342.57 443.78 342.57 427.96 342.61 412.14 Z" />
<path fill="#b1141b" opacity="1.00" d=" M 292.65 474.28 C 304.49 474.06 316.34 474.32 328.18 474.20 C 328.22 481.61 328.24 489.01 328.17 496.42 C 316.08 489.47 304.18 482.14 292.65 474.28 Z" />
</g>
<g id="#f6b903ff">
<path fill="#f6b903" opacity="1.00" d=" M 1.16 191.85 C 14.45 191.51 27.73 192.37 41.03 192.18 C 62.02 192.10 83.02 192.39 104.00 191.90 C 119.66 192.59 135.32 191.45 150.98 192.01 C 165.67 192.57 180.36 191.32 195.04 192.12 C 215.03 192.18 235.02 192.25 255.00 192.08 C 264.34 191.59 273.68 192.07 283.02 192.04 C 295.99 191.36 308.96 192.55 321.93 192.12 C 343.28 191.43 364.64 192.22 386.00 191.85 C 411.65 191.86 437.31 191.81 462.96 191.88 C 483.64 192.53 504.33 191.53 525.01 192.09 C 549.33 191.14 573.66 192.73 597.98 191.82 C 616.65 191.97 635.32 192.17 653.99 192.17 C 676.99 192.29 699.98 191.68 722.99 191.82 C 754.99 191.92 787.00 191.74 819.00 191.91 C 835.02 192.28 851.05 192.06 867.07 191.86 C 888.72 192.58 910.37 191.63 932.02 191.84 C 986.70 191.65 1041.37 192.26 1096.05 192.16 C 1109.02 191.66 1122.01 191.85 1135.00 191.81 L 1135.00 584.39 C 1116.01 584.31 1097.01 584.29 1078.02 584.31 C 719.08 584.36 360.14 584.33 1.21 584.32 C 1.35 453.50 1.15 322.67 1.16 191.85 M 335.46 241.93 C 325.54 256.94 316.18 272.31 306.31 287.36 C 303.04 292.91 299.01 298.03 296.38 303.94 C 295.46 303.94 294.54 303.94 293.63 303.94 C 291.77 299.82 288.93 296.28 286.40 292.56 C 278.77 281.29 270.61 270.39 263.12 259.02 C 259.15 253.41 255.45 247.58 250.98 242.35 C 250.46 263.14 250.89 283.94 250.82 304.74 C 261.22 305.63 271.63 304.47 282.04 305.19 C 310.36 304.68 338.71 304.55 367.03 305.10 C 369.79 304.99 372.55 304.82 375.32 304.89 C 361.97 283.95 349.00 262.75 335.46 241.93 M 375.77 304.77 C 390.39 304.53 405.00 305.34 419.61 304.76 C 419.44 283.82 419.65 262.88 419.49 241.94 C 404.43 262.53 390.51 283.95 375.77 304.77 M 250.66 319.78 C 250.67 361.54 250.70 403.30 250.71 445.05 C 250.61 453.83 250.96 462.76 253.77 471.15 C 256.29 479.38 261.40 486.58 267.56 492.50 C 277.05 501.44 288.44 507.98 299.64 514.53 C 311.07 521.14 322.65 527.48 334.08 534.09 C 335.70 535.37 337.46 533.71 338.99 533.08 C 354.48 524.27 370.23 515.88 385.36 506.44 C 397.43 498.59 409.66 489.24 415.49 475.62 C 419.81 466.04 420.09 455.35 420.27 445.02 C 420.10 403.43 420.40 361.83 420.11 320.24 C 378.06 319.20 336.02 320.22 293.98 320.18 C 279.55 319.48 265.10 319.92 250.66 319.78 Z" />
<path fill="#f6b903" opacity="1.00" d=" M 267.14 336.52 C 312.62 336.30 358.10 336.71 403.58 336.43 C 403.70 375.29 403.55 414.15 403.65 453.01 C 403.73 461.45 400.92 469.90 395.67 476.54 C 390.66 482.96 384.02 487.88 377.20 492.23 C 363.76 500.58 349.84 508.13 335.99 515.78 C 319.15 506.59 302.01 497.76 286.28 486.73 C 276.36 479.92 268.45 469.31 267.48 457.03 C 265.96 436.05 267.56 415.03 267.17 394.02 C 266.65 374.86 266.83 355.69 267.14 336.52 M 280.95 350.39 C 280.66 366.14 280.72 381.91 280.97 397.67 C 296.64 397.62 312.31 397.62 327.98 397.67 C 328.22 381.91 328.29 366.15 328.05 350.39 C 312.35 350.50 296.65 350.36 280.95 350.39 M 342.61 350.91 C 342.49 366.51 342.76 382.11 342.51 397.70 C 358.20 397.65 373.88 397.79 389.57 397.62 C 381.73 389.08 373.14 381.25 365.00 372.99 C 357.46 365.71 350.38 357.95 342.61 350.91 M 281.16 412.35 C 280.69 414.21 280.74 416.14 280.75 418.04 C 280.97 431.93 280.71 445.82 280.86 459.71 C 296.50 459.68 312.13 459.60 327.77 459.71 C 328.60 443.89 327.95 428.06 328.16 412.24 C 312.50 412.36 296.82 411.99 281.16 412.35 M 342.61 412.14 C 342.57 427.96 342.57 443.78 342.55 459.61 C 358.26 459.79 373.98 459.66 389.70 459.71 C 389.54 443.87 389.63 428.03 389.67 412.18 C 373.98 412.18 358.29 412.20 342.61 412.14 M 292.65 474.28 C 304.18 482.14 316.08 489.47 328.17 496.42 C 328.24 489.01 328.22 481.61 328.18 474.20 C 316.34 474.32 304.49 474.06 292.65 474.28 Z" />
</g>
</svg>
