<?xml version="1.0" encoding="UTF-8" ?>
<!DOCTYPE svg PUBLIC "-//W3C//DTD SVG 1.1//EN" "http://www.w3.org/Graphics/SVG/1.1/DTD/svg11.dtd">
<svg width="1447pt" height="985pt" viewBox="0 0 1447 985" version="1.1" xmlns="http://www.w3.org/2000/svg">
<g id="#012d66ff">
<path fill="#012d66" opacity="1.00" d=" M 0.00 0.00 L 1447.00 0.00 L 1447.00 0.35 C 1393.68 0.84 1340.34 0.44 1287.01 0.56 C 1049.67 0.55 812.33 0.58 574.99 0.54 C 573.47 0.33 571.20 1.04 571.57 3.00 C 571.53 27.24 571.50 51.49 571.55 75.74 C 571.67 100.29 571.60 124.85 571.56 149.40 C 571.57 174.88 571.47 200.36 571.61 225.84 C 571.70 251.16 571.64 276.47 571.63 301.79 C 571.59 327.38 571.47 352.97 571.65 378.55 C 571.71 403.89 571.71 429.23 571.64 454.57 C 571.66 480.10 571.60 505.62 571.63 531.14 C 381.09 531.13 190.54 531.16 0.00 531.11 L 0.00 0.00 M 211.86 55.99 C 208.68 65.87 205.58 75.79 202.36 85.66 C 202.13 87.29 200.29 87.10 199.07 87.13 C 189.13 87.06 179.19 87.06 169.25 87.21 C 177.85 93.98 187.04 99.97 195.57 106.83 C 192.18 117.10 188.94 127.42 185.53 137.68 C 194.45 131.37 203.27 124.90 212.18 118.57 C 220.94 125.04 229.91 131.23 238.59 137.81 C 235.32 127.50 231.99 117.20 228.85 106.85 C 236.82 100.76 244.99 94.95 253.04 88.99 C 253.54 88.48 254.53 87.47 255.03 86.97 C 244.09 87.18 233.14 86.72 222.20 86.84 C 218.54 76.63 215.85 66.03 211.86 55.99 M 76.99 62.94 C 74.27 70.89 71.77 78.92 69.16 86.91 C 58.23 86.84 47.30 86.81 36.38 87.25 C 45.08 93.81 54.18 99.84 62.63 106.73 C 59.31 117.06 55.90 127.37 52.72 137.74 C 61.51 131.32 70.37 124.98 79.24 118.67 C 88.18 124.89 96.90 131.44 105.75 137.79 C 102.89 127.39 99.10 117.27 95.88 106.97 C 104.70 100.28 113.89 94.05 122.56 87.18 C 111.62 87.19 100.67 86.68 89.73 86.97 C 86.08 76.94 83.03 66.70 79.56 56.61 C 78.09 58.43 77.76 60.79 76.99 62.94 M 342.18 62.94 C 339.47 70.99 337.17 79.19 334.27 87.17 C 323.49 87.07 312.72 87.16 301.95 87.24 C 310.57 93.99 319.72 100.06 328.24 106.95 C 324.98 117.26 321.40 127.48 318.34 137.85 C 327.16 131.47 335.91 124.98 344.92 118.88 C 353.66 125.50 363.09 131.25 371.45 138.34 C 371.49 136.48 370.27 134.92 369.79 133.18 C 366.83 124.47 364.03 115.71 361.33 106.92 C 370.12 100.31 379.13 93.99 387.88 87.33 C 376.88 86.91 365.87 87.23 354.87 87.07 C 351.53 76.94 348.04 66.87 344.74 56.73 C 343.10 58.39 342.97 60.85 342.18 62.94 M 476.63 57.99 C 473.24 67.64 470.52 77.53 467.16 87.20 C 456.36 87.22 445.56 87.15 434.76 87.28 C 443.36 94.10 452.53 100.16 461.21 106.90 C 457.91 117.23 454.50 127.52 451.31 137.89 C 460.06 131.47 468.84 125.07 477.79 118.92 C 486.66 125.06 495.25 131.60 504.13 137.73 C 500.95 127.44 497.25 117.30 494.10 106.99 C 502.91 100.28 511.99 93.93 520.79 87.21 C 509.76 86.95 498.73 87.38 487.72 86.91 C 484.28 76.86 480.96 66.76 477.64 56.67 C 477.39 57.00 476.88 57.66 476.63 57.99 M 69.04 203.84 C 58.08 203.82 47.13 203.71 36.18 203.84 C 44.64 210.85 53.97 216.73 62.46 223.68 C 58.90 233.63 56.02 243.82 53.13 253.98 C 61.67 247.63 70.31 241.44 79.03 235.34 C 87.92 241.66 96.94 247.81 105.76 254.24 C 102.52 243.96 99.11 233.73 96.09 223.38 C 105.08 216.97 114.16 210.66 122.92 203.93 C 111.73 203.71 100.55 203.97 89.36 203.81 C 86.18 193.43 82.84 183.10 79.28 172.84 C 75.41 183.00 72.36 193.48 69.04 203.84 M 201.83 203.81 C 190.86 203.99 179.86 203.51 168.90 204.04 C 177.55 210.79 186.67 216.92 195.17 223.87 C 191.96 233.91 188.86 243.99 185.81 254.08 C 194.51 247.82 203.21 241.57 212.00 235.45 C 220.93 241.60 229.80 247.84 238.63 254.15 C 235.42 243.87 231.98 233.66 229.04 223.31 C 237.88 216.93 246.85 210.68 255.42 203.94 C 244.37 203.71 233.31 203.96 222.26 203.82 C 218.74 193.51 215.72 183.04 212.23 172.73 C 208.13 182.83 205.38 193.48 201.83 203.81 M 344.60 172.87 C 341.09 183.10 337.84 193.42 334.69 203.76 C 323.74 204.06 312.77 203.49 301.83 204.00 C 310.18 210.77 319.08 216.88 327.57 223.49 C 327.52 223.98 327.42 224.98 327.37 225.48 C 324.34 235.01 321.33 244.56 318.44 254.14 C 327.28 247.93 335.97 241.50 344.98 235.53 C 353.73 241.61 362.37 247.83 371.09 253.95 C 367.91 243.82 364.77 233.66 361.37 223.60 C 367.01 219.09 373.09 215.15 378.81 210.73 C 381.62 208.44 384.98 206.78 387.32 203.94 C 376.46 203.76 365.60 203.82 354.75 203.85 C 351.47 193.49 348.25 183.10 344.60 172.87 M 467.26 203.97 C 456.31 203.81 445.36 203.72 434.41 203.97 C 443.12 210.53 451.96 216.92 460.75 223.36 C 457.66 233.66 454.38 243.91 451.23 254.20 C 460.05 247.91 468.72 241.38 477.83 235.52 C 486.54 241.73 495.27 247.93 503.96 254.17 C 500.76 243.91 497.36 233.72 494.22 223.45 C 503.16 216.93 512.38 210.79 521.14 204.03 C 510.03 203.64 498.89 203.84 487.77 203.96 C 484.15 193.66 481.12 183.15 477.58 172.82 C 473.60 183.02 470.93 193.67 467.26 203.97 M 78.91 289.00 C 75.36 299.46 72.20 310.04 68.73 320.52 C 57.93 320.48 47.11 320.35 36.32 320.73 C 44.77 327.41 53.74 333.40 62.26 339.97 C 59.20 350.22 55.73 360.37 53.03 370.72 C 61.73 364.52 70.24 358.06 79.00 351.94 C 87.97 358.04 96.70 364.48 105.47 370.85 C 102.46 360.48 99.28 350.15 96.12 339.82 C 104.69 333.35 113.61 327.36 122.01 320.65 C 111.22 320.38 100.44 320.50 89.65 320.48 C 85.86 310.07 83.27 299.19 78.91 289.00 M 209.55 296.09 C 206.93 304.24 204.54 312.48 201.64 320.55 C 190.85 320.51 180.06 320.50 169.27 320.70 C 177.73 327.28 186.50 333.45 195.05 339.91 C 192.07 350.10 189.17 360.31 186.06 370.46 C 194.84 364.55 203.29 358.14 211.96 352.05 C 220.86 358.16 229.57 364.53 238.37 370.77 C 235.03 360.55 232.23 350.16 228.93 339.92 C 236.84 333.79 245.06 328.08 253.08 322.12 C 253.35 321.73 253.90 320.97 254.18 320.59 C 244.10 320.43 234.02 320.49 223.94 320.47 C 222.26 320.92 221.94 319.15 221.52 318.03 C 218.37 308.35 215.27 298.66 212.19 288.96 C 210.72 291.06 210.41 293.71 209.55 296.09 M 467.38 320.59 C 456.60 320.60 445.82 320.46 435.04 320.69 C 443.30 327.57 452.43 333.35 460.88 340.00 C 457.73 350.18 454.81 360.43 451.62 370.60 C 460.41 364.55 468.86 358.01 477.66 351.97 C 486.37 358.25 495.04 364.59 503.78 370.82 C 500.68 360.49 497.38 350.21 494.19 339.91 C 503.01 333.55 512.12 327.56 520.64 320.81 C 510.11 320.52 499.57 320.68 489.04 320.54 C 487.55 320.85 487.52 318.92 487.05 318.07 C 483.83 308.40 480.81 298.66 477.39 289.06 C 473.64 299.43 470.83 310.12 467.38 320.59 M 344.32 289.67 C 340.88 299.93 337.89 310.33 334.43 320.58 C 323.72 320.60 313.00 320.60 302.29 320.76 C 310.63 327.52 319.67 333.36 328.05 340.07 C 324.86 350.32 321.66 360.57 318.54 370.85 C 327.22 364.61 335.87 358.32 344.48 351.98 C 353.62 357.82 362.05 364.69 371.01 370.79 C 367.91 360.49 364.63 350.24 361.47 339.96 C 369.91 333.31 378.98 327.45 387.24 320.60 C 376.51 320.39 365.77 320.64 355.05 320.35 C 352.00 310.95 348.88 301.57 345.76 292.19 C 345.44 291.25 344.96 290.41 344.32 289.67 M 202.03 436.18 C 191.10 436.25 180.15 436.06 169.22 436.24 C 177.89 442.85 186.82 449.14 195.44 455.82 C 192.11 465.99 188.97 476.22 185.72 486.41 C 194.59 480.26 203.20 473.73 212.09 467.60 C 220.81 473.92 229.52 480.27 238.40 486.37 C 235.05 476.19 231.86 465.96 228.39 455.83 C 237.38 449.30 246.68 443.15 255.36 436.22 C 244.27 436.04 233.16 436.48 222.07 435.99 C 218.55 425.74 215.84 415.17 211.94 405.09 C 208.22 415.30 205.50 425.87 202.03 436.18 M 69.19 436.15 C 58.31 436.24 47.41 435.99 36.53 436.24 C 44.95 443.06 54.08 448.96 62.50 455.77 C 59.14 465.90 55.96 476.09 52.94 486.33 C 61.69 480.08 70.39 473.75 79.17 467.55 C 88.09 473.77 96.67 480.45 105.63 486.61 C 102.30 476.37 99.15 466.08 95.67 455.90 C 104.65 449.33 113.94 443.17 122.64 436.23 C 111.64 436.20 100.64 436.16 89.64 436.23 C 85.79 426.16 83.02 415.71 79.37 405.57 C 75.28 415.50 72.54 425.94 69.19 436.15 M 344.49 405.70 C 340.77 415.59 338.23 425.89 334.67 435.83 C 323.94 436.65 312.99 435.97 302.18 436.20 C 310.74 442.91 319.75 449.03 328.28 455.78 C 325.00 466.04 321.65 476.27 318.39 486.53 C 327.30 480.29 336.17 474.00 344.96 467.60 C 353.72 473.87 362.51 480.10 371.20 486.48 C 368.03 476.21 364.60 466.02 361.34 455.78 C 370.09 449.14 379.12 442.86 387.87 436.21 C 376.90 436.13 365.93 436.22 354.96 436.16 C 351.10 426.13 348.60 415.62 344.49 405.70 M 467.43 436.27 C 456.68 436.29 445.87 435.82 435.15 436.57 C 443.76 443.14 452.69 449.27 461.26 455.89 C 457.83 466.08 454.68 476.37 451.38 486.60 C 460.27 480.37 468.90 473.77 477.83 467.59 C 486.58 473.85 495.25 480.25 504.03 486.48 C 500.73 476.25 497.31 466.06 493.91 455.86 C 502.79 449.22 511.99 443.01 520.74 436.21 C 509.74 436.15 498.75 436.14 487.75 436.19 C 484.07 426.11 481.11 415.78 477.53 405.67 C 473.25 415.51 471.39 426.29 467.43 436.27 Z" />
</g>
<g id="#b30b2eff">
<path fill="#b30b2e" opacity="1.00" d=" M 571.57 3.00 C 571.20 1.04 573.47 0.33 574.99 0.54 C 812.33 0.58 1049.67 0.55 1287.01 0.56 C 1340.34 0.44 1393.68 0.84 1447.00 0.35 L 1447.00 75.73 C 1337.69 75.85 1228.38 75.70 1119.07 75.78 C 936.56 75.70 754.06 75.85 571.55 75.74 C 571.50 51.49 571.53 27.24 571.57 3.00 Z" />
<path fill="#b30b2e" opacity="1.00" d=" M 571.61 225.84 C 571.47 200.36 571.57 174.88 571.56 149.40 C 863.38 149.43 1155.19 149.38 1447.00 149.43 L 1447.00 225.77 C 1155.20 225.83 863.41 225.77 571.61 225.84 Z" />
<path fill="#b30b2e" opacity="1.00" d=" M 571.63 301.79 C 863.42 301.72 1155.21 301.74 1447.00 301.80 L 1447.00 378.53 C 1155.22 378.64 863.43 378.55 571.65 378.55 C 571.47 352.97 571.59 327.38 571.63 301.79 Z" />
<path fill="#b30b2e" opacity="1.00" d=" M 571.64 454.57 C 863.43 454.50 1155.21 454.57 1447.00 454.54 L 1447.00 531.18 C 1365.68 530.78 1284.34 530.58 1203.00 531.16 C 1084.02 531.15 965.03 531.20 846.04 531.15 C 800.03 530.56 754.01 530.94 707.99 530.85 C 662.54 531.41 617.08 531.07 571.63 531.14 C 571.60 505.62 571.66 480.10 571.64 454.57 Z" />
<path fill="#b30b2e" opacity="1.00" d=" M 0.00 607.43 C 482.33 607.33 964.67 607.38 1447.00 607.40 L 1447.00 684.12 C 964.67 684.12 482.33 684.17 0.00 684.10 L 0.00 607.43 Z" />
<path fill="#b30b2e" opacity="1.00" d=" M 0.00 759.73 C 16.32 759.35 32.66 759.71 48.99 759.58 C 514.99 759.63 981.00 759.60 1447.00 759.62 L 1447.00 836.22 C 964.67 836.20 482.33 836.26 0.00 836.19 L 0.00 759.73 Z" />
<path fill="#b30b2e" opacity="1.00" d=" M 0.00 912.56 C 482.33 912.56 964.67 912.47 1447.00 912.59 L 1447.00 985.00 L 0.00 985.00 L 0.00 912.56 Z" />
</g>
<g id="#fefefeff">
<path fill="#fefefe" opacity="1.00" d=" M 211.86 55.99 C 215.85 66.03 218.54 76.63 222.20 86.84 C 233.14 86.72 244.09 87.18 255.03 86.97 C 254.53 87.47 253.54 88.48 253.04 88.99 C 244.99 94.95 236.82 100.76 228.85 106.85 C 231.99 117.20 235.32 127.50 238.59 137.81 C 229.91 131.23 220.94 125.04 212.18 118.57 C 203.27 124.90 194.45 131.37 185.53 137.68 C 188.94 127.42 192.18 117.10 195.57 106.83 C 187.04 99.97 177.85 93.98 169.25 87.21 C 179.19 87.06 189.13 87.06 199.07 87.13 C 200.29 87.10 202.13 87.29 202.36 85.66 C 205.58 75.79 208.68 65.87 211.86 55.99 Z" />
<path fill="#fefefe" opacity="1.00" d=" M 76.99 62.94 C 77.76 60.79 78.09 58.43 79.56 56.61 C 83.03 66.70 86.08 76.94 89.73 86.97 C 100.67 86.68 111.62 87.19 122.56 87.18 C 113.89 94.05 104.70 100.28 95.88 106.97 C 99.10 117.27 102.89 127.39 105.75 137.79 C 96.90 131.44 88.18 124.89 79.24 118.67 C 70.37 124.98 61.51 131.32 52.72 137.74 C 55.90 127.37 59.31 117.06 62.63 106.73 C 54.18 99.84 45.08 93.81 36.38 87.25 C 47.30 86.81 58.23 86.84 69.16 86.91 C 71.77 78.92 74.27 70.89 76.99 62.94 Z" />
<path fill="#fefefe" opacity="1.00" d=" M 342.18 62.94 C 342.97 60.85 343.10 58.39 344.74 56.73 C 348.04 66.87 351.53 76.94 354.87 87.07 C 365.87 87.23 376.88 86.91 387.88 87.33 C 379.13 93.99 370.12 100.31 361.33 106.92 C 364.03 115.71 366.83 124.47 369.79 133.18 C 370.27 134.92 371.49 136.48 371.45 138.34 C 363.09 131.25 353.66 125.50 344.92 118.88 C 335.91 124.98 327.16 131.47 318.34 137.85 C 321.40 127.48 324.98 117.26 328.24 106.95 C 319.72 100.06 310.57 93.99 301.95 87.24 C 312.72 87.16 323.49 87.07 334.27 87.17 C 337.17 79.19 339.47 70.99 342.18 62.94 Z" />
<path fill="#fefefe" opacity="1.00" d=" M 476.63 57.99 C 476.88 57.66 477.39 57.00 477.64 56.67 C 480.96 66.76 484.28 76.86 487.72 86.91 C 498.73 87.38 509.76 86.95 520.79 87.21 C 511.99 93.93 502.91 100.28 494.10 106.99 C 497.25 117.30 500.95 127.44 504.13 137.73 C 495.25 131.60 486.66 125.06 477.79 118.92 C 468.84 125.07 460.06 131.47 451.31 137.89 C 454.50 127.52 457.91 117.23 461.21 106.90 C 452.53 100.16 443.36 94.10 434.76 87.28 C 445.56 87.15 456.36 87.22 467.16 87.20 C 470.52 77.53 473.24 67.64 476.63 57.99 Z" />
<path fill="#fefefe" opacity="1.00" d=" M 571.55 75.74 C 754.06 75.85 936.56 75.70 1119.07 75.78 C 1228.38 75.70 1337.69 75.85 1447.00 75.73 L 1447.00 149.43 C 1155.19 149.38 863.38 149.43 571.56 149.40 C 571.60 124.85 571.67 100.29 571.55 75.74 Z" />
<path fill="#fefefe" opacity="1.00" d=" M 69.04 203.84 C 72.36 193.48 75.41 183.00 79.28 172.84 C 82.84 183.10 86.18 193.43 89.36 203.81 C 100.55 203.97 111.73 203.71 122.92 203.93 C 114.16 210.66 105.08 216.97 96.09 223.38 C 99.11 233.73 102.52 243.96 105.76 254.24 C 96.94 247.81 87.92 241.66 79.03 235.34 C 70.31 241.44 61.67 247.63 53.13 253.98 C 56.02 243.82 58.90 233.63 62.46 223.68 C 53.97 216.73 44.64 210.85 36.18 203.84 C 47.13 203.71 58.08 203.82 69.04 203.84 Z" />
<path fill="#fefefe" opacity="1.00" d=" M 201.83 203.81 C 205.38 193.48 208.13 182.83 212.23 172.73 C 215.72 183.04 218.74 193.51 222.26 203.82 C 233.31 203.96 244.37 203.71 255.42 203.94 C 246.85 210.68 237.88 216.93 229.04 223.31 C 231.98 233.66 235.42 243.87 238.63 254.15 C 229.80 247.84 220.93 241.60 212.00 235.45 C 203.21 241.57 194.51 247.82 185.81 254.08 C 188.86 243.99 191.96 233.91 195.17 223.87 C 186.67 216.92 177.55 210.79 168.90 204.04 C 179.86 203.51 190.86 203.99 201.83 203.81 Z" />
<path fill="#fefefe" opacity="1.00" d=" M 344.60 172.87 C 348.25 183.10 351.47 193.49 354.75 203.85 C 365.60 203.82 376.46 203.76 387.32 203.94 C 384.98 206.78 381.62 208.44 378.81 210.73 C 373.09 215.15 367.01 219.09 361.37 223.60 C 364.77 233.66 367.91 243.82 371.09 253.95 C 362.37 247.83 353.73 241.61 344.98 235.53 C 335.97 241.50 327.28 247.93 318.44 254.14 C 321.33 244.56 324.34 235.01 327.37 225.48 C 327.42 224.98 327.52 223.98 327.57 223.49 C 319.08 216.88 310.18 210.77 301.83 204.00 C 312.77 203.49 323.74 204.06 334.69 203.76 C 337.84 193.42 341.09 183.10 344.60 172.87 Z" />
<path fill="#fefefe" opacity="1.00" d=" M 467.26 203.97 C 470.93 193.67 473.60 183.02 477.58 172.82 C 481.12 183.15 484.15 193.66 487.77 203.96 C 498.89 203.84 510.03 203.64 521.14 204.03 C 512.38 210.79 503.16 216.93 494.22 223.45 C 497.36 233.72 500.76 243.91 503.96 254.17 C 495.27 247.93 486.54 241.73 477.83 235.52 C 468.72 241.38 460.05 247.91 451.23 254.20 C 454.38 243.91 457.66 233.66 460.75 223.36 C 451.96 216.92 443.12 210.53 434.41 203.97 C 445.36 203.72 456.31 203.81 467.26 203.97 Z" />
<path fill="#fefefe" opacity="1.00" d=" M 571.61 225.84 C 863.41 225.77 1155.20 225.83 1447.00 225.77 L 1447.00 301.80 C 1155.21 301.74 863.42 301.72 571.63 301.79 C 571.64 276.47 571.70 251.16 571.61 225.84 Z" />
<path fill="#fefefe" opacity="1.00" d=" M 78.91 289.00 C 83.27 299.19 85.86 310.07 89.65 320.48 C 100.44 320.50 111.22 320.38 122.01 320.65 C 113.61 327.36 104.69 333.35 96.12 339.82 C 99.28 350.15 102.46 360.48 105.47 370.85 C 96.70 364.48 87.97 358.04 79.00 351.94 C 70.24 358.06 61.73 364.52 53.03 370.72 C 55.73 360.37 59.20 350.22 62.26 339.97 C 53.74 333.40 44.77 327.41 36.32 320.73 C 47.11 320.35 57.93 320.48 68.73 320.52 C 72.20 310.04 75.36 299.46 78.91 289.00 Z" />
<path fill="#fefefe" opacity="1.00" d=" M 209.55 296.09 C 210.41 293.71 210.72 291.06 212.19 288.96 C 215.27 298.66 218.37 308.35 221.52 318.03 C 221.94 319.15 222.26 320.92 223.94 320.47 C 234.02 320.49 244.10 320.43 254.18 320.59 C 253.90 320.97 253.35 321.73 253.08 322.12 C 245.06 328.08 236.84 333.79 228.93 339.92 C 232.23 350.16 235.03 360.55 238.37 370.77 C 229.57 364.53 220.86 358.16 211.96 352.05 C 203.29 358.14 194.84 364.55 186.06 370.46 C 189.17 360.31 192.07 350.10 195.05 339.91 C 186.50 333.45 177.73 327.28 169.27 320.70 C 180.06 320.50 190.85 320.51 201.64 320.55 C 204.54 312.48 206.93 304.24 209.55 296.09 Z" />
<path fill="#fefefe" opacity="1.00" d=" M 467.38 320.59 C 470.83 310.12 473.64 299.43 477.39 289.06 C 480.81 298.66 483.83 308.40 487.05 318.07 C 487.52 318.92 487.55 320.85 489.04 320.54 C 499.57 320.68 510.11 320.52 520.64 320.81 C 512.12 327.56 503.01 333.55 494.19 339.91 C 497.38 350.21 500.68 360.49 503.78 370.82 C 495.04 364.59 486.37 358.25 477.66 351.97 C 468.86 358.01 460.41 364.55 451.62 370.60 C 454.81 360.43 457.73 350.18 460.88 340.00 C 452.43 333.35 443.30 327.57 435.04 320.69 C 445.82 320.46 456.60 320.60 467.38 320.59 Z" />
<path fill="#fefefe" opacity="1.00" d=" M 344.32 289.67 C 344.96 290.41 345.44 291.25 345.76 292.19 C 348.88 301.57 352.00 310.95 355.05 320.35 C 365.77 320.64 376.51 320.39 387.24 320.60 C 378.98 327.45 369.91 333.31 361.47 339.96 C 364.63 350.24 367.91 360.49 371.01 370.79 C 362.05 364.69 353.62 357.82 344.48 351.98 C 335.87 358.32 327.22 364.61 318.54 370.85 C 321.66 360.57 324.86 350.32 328.05 340.07 C 319.67 333.36 310.63 327.52 302.29 320.76 C 313.00 320.60 323.72 320.60 334.43 320.58 C 337.89 310.33 340.88 299.93 344.32 289.67 Z" />
<path fill="#fefefe" opacity="1.00" d=" M 571.65 378.55 C 863.43 378.55 1155.22 378.64 1447.00 378.53 L 1447.00 454.54 C 1155.21 454.57 863.43 454.50 571.64 454.57 C 571.71 429.23 571.71 403.89 571.65 378.55 Z" />
<path fill="#fefefe" opacity="1.00" d=" M 202.03 436.18 C 205.50 425.87 208.22 415.30 211.94 405.09 C 215.84 415.17 218.55 425.74 222.07 435.99 C 233.16 436.48 244.27 436.04 255.36 436.22 C 246.68 443.15 237.38 449.30 228.39 455.83 C 231.86 465.96 235.05 476.19 238.40 486.37 C 229.52 480.27 220.81 473.92 212.09 467.60 C 203.20 473.73 194.59 480.26 185.72 486.41 C 188.97 476.22 192.11 465.99 195.44 455.82 C 186.82 449.14 177.89 442.85 169.22 436.24 C 180.15 436.06 191.10 436.25 202.03 436.18 Z" />
<path fill="#fefefe" opacity="1.00" d=" M 69.19 436.15 C 72.54 425.94 75.28 415.50 79.37 405.57 C 83.02 415.71 85.79 426.16 89.64 436.23 C 100.64 436.16 111.64 436.20 122.64 436.23 C 113.94 443.17 104.65 449.33 95.67 455.90 C 99.15 466.08 102.30 476.37 105.63 486.61 C 96.67 480.45 88.09 473.77 79.17 467.55 C 70.39 473.75 61.69 480.08 52.94 486.33 C 55.96 476.09 59.14 465.90 62.50 455.77 C 54.08 448.96 44.95 443.06 36.53 436.24 C 47.41 435.99 58.31 436.24 69.19 436.15 Z" />
<path fill="#fefefe" opacity="1.00" d=" M 344.49 405.70 C 348.60 415.62 351.10 426.13 354.96 436.16 C 365.93 436.22 376.90 436.13 387.87 436.21 C 379.12 442.86 370.09 449.14 361.34 455.78 C 364.60 466.02 368.03 476.21 371.20 486.48 C 362.51 480.10 353.72 473.87 344.96 467.60 C 336.17 474.00 327.30 480.29 318.39 486.53 C 321.65 476.27 325.00 466.04 328.28 455.78 C 319.75 449.03 310.74 442.91 302.18 436.20 C 312.99 435.97 323.94 436.65 334.67 435.83 C 338.23 425.89 340.77 415.59 344.49 405.70 Z" />
<path fill="#fefefe" opacity="1.00" d=" M 467.43 436.27 C 471.39 426.29 473.25 415.51 477.53 405.67 C 481.11 415.78 484.07 426.11 487.75 436.19 C 498.75 436.14 509.74 436.15 520.74 436.21 C 511.99 443.01 502.79 449.22 493.91 455.86 C 497.31 466.06 500.73 476.25 504.03 486.48 C 495.25 480.25 486.58 473.85 477.83 467.59 C 468.90 473.77 460.27 480.37 451.38 486.60 C 454.68 476.37 457.83 466.08 461.26 455.89 C 452.69 449.27 443.76 443.14 435.15 436.57 C 445.87 435.82 456.68 436.29 467.43 436.27 Z" />
<path fill="#fefefe" opacity="1.00" d=" M 0.00 531.11 C 190.54 531.16 381.09 531.13 571.63 531.14 C 617.08 531.07 662.54 531.41 707.99 530.85 C 754.01 530.94 800.03 530.56 846.04 531.15 C 965.03 531.20 1084.02 531.15 1203.00 531.16 C 1284.34 530.58 1365.68 530.78 1447.00 531.18 L 1447.00 607.40 C 964.67 607.38 482.33 607.33 0.00 607.43 L 0.00 531.11 Z" />
<path fill="#fefefe" opacity="1.00" d=" M 0.00 684.10 C 482.33 684.17 964.67 684.12 1447.00 684.12 L 1447.00 759.62 C 981.00 759.60 514.99 759.63 48.99 759.58 C 32.66 759.71 16.32 759.35 0.00 759.73 L 0.00 684.10 Z" />
<path fill="#fefefe" opacity="1.00" d=" M 0.00 836.19 C 482.33 836.26 964.67 836.20 1447.00 836.22 L 1447.00 912.59 C 964.67 912.47 482.33 912.56 0.00 912.56 L 0.00 836.19 Z" />
</g>
</svg>
