<?xml version="1.0" encoding="UTF-8" ?>
<!DOCTYPE svg PUBLIC "-//W3C//DTD SVG 1.1//EN" "http://www.w3.org/Graphics/SVG/1.1/DTD/svg11.dtd">
<svg width="1875pt" height="378pt" viewBox="0 0 1875 378" version="1.1" xmlns="http://www.w3.org/2000/svg">
<g id="#dd2c00ff">
<path fill="#dd2c00" opacity="1.00" d=" M 376.14 0.00 L 383.30 0.00 C 391.07 9.45 398.72 19.01 407.26 27.77 C 414.74 38.12 424.20 46.83 431.67 57.19 C 437.86 64.38 443.34 72.18 449.94 79.03 C 456.25 86.72 462.79 94.24 468.61 102.32 C 478.02 115.18 489.50 126.59 497.10 140.72 C 507.39 157.01 514.71 175.11 518.99 193.87 C 521.38 199.82 520.74 206.34 522.17 212.50 C 523.75 224.15 522.01 235.84 520.31 247.35 C 518.82 251.38 517.89 255.57 517.38 259.83 C 512.39 281.78 501.25 301.90 487.50 319.54 C 484.14 323.16 480.33 326.34 476.99 329.99 C 470.30 337.09 462.17 342.53 454.47 348.43 C 449.13 351.78 443.20 354.09 437.89 357.51 C 437.60 357.27 437.01 356.77 436.72 356.53 C 432.57 356.36 428.78 354.49 425.05 352.85 C 411.44 346.35 398.17 338.99 386.26 329.68 C 380.56 325.52 374.91 321.24 370.07 316.07 C 379.15 302.71 383.91 286.83 386.02 270.92 C 386.65 263.30 386.12 255.63 386.32 247.98 C 385.68 233.16 380.73 218.85 374.57 205.47 C 368.79 195.00 361.93 185.03 353.55 176.45 C 348.63 171.55 342.68 167.90 337.05 163.90 C 326.29 156.27 313.87 151.47 301.39 147.47 C 301.11 147.27 300.55 146.87 300.27 146.67 C 302.57 139.07 301.34 130.98 303.47 123.35 C 304.18 116.42 306.71 109.90 308.25 103.14 C 309.00 99.65 310.84 96.55 312.08 93.23 C 318.27 75.23 326.75 58.04 337.03 42.03 C 348.04 26.30 361.28 12.15 376.14 0.00 Z" />
</g>
<g id="#ffffffff">
<path fill="#ffffff" opacity="1.00" d=" M 776.50 92.80 C 781.57 91.79 786.86 91.31 791.77 93.23 C 795.79 95.68 800.65 97.74 802.65 102.33 C 803.53 104.85 805.15 107.18 805.22 109.93 C 805.30 114.10 805.84 118.68 803.37 122.33 C 801.51 126.70 797.49 129.39 793.39 131.39 C 789.12 134.20 783.76 133.41 778.94 133.23 C 772.86 132.02 767.50 127.70 765.16 121.92 C 764.16 118.85 761.89 116.31 761.69 112.98 C 762.20 111.25 763.14 109.71 763.98 108.13 C 765.60 104.30 766.39 99.72 769.87 97.05 C 771.94 95.44 774.13 93.94 776.50 92.80 Z" />
<path fill="#ffffff" opacity="1.00" d=" M 626.37 94.63 C 667.09 94.74 707.82 94.73 748.54 94.64 C 749.98 100.31 749.05 106.22 749.31 112.00 C 749.14 116.82 749.89 121.76 748.41 126.43 C 717.84 126.32 687.27 126.33 656.71 126.43 C 656.78 145.87 656.61 165.30 656.80 184.74 C 684.74 184.91 712.69 184.59 740.63 184.91 C 740.75 194.85 740.56 204.79 740.74 214.73 C 725.85 215.60 710.91 214.91 696.00 215.13 C 682.91 215.16 669.82 215.07 656.73 215.19 C 656.67 243.37 656.80 271.55 656.66 299.73 C 646.33 299.78 636.01 299.75 625.69 299.75 C 625.61 233.15 625.69 166.56 625.64 99.96 C 625.57 98.15 625.88 96.37 626.37 94.63 Z" />
<path fill="#ffffff" opacity="1.00" d=" M 1075.63 95.31 C 1085.88 95.30 1096.14 95.33 1106.40 95.30 C 1106.50 114.53 1106.42 133.77 1106.45 153.01 C 1106.38 158.68 1106.38 164.37 1105.82 170.02 C 1105.58 172.39 1105.68 174.83 1106.87 176.97 C 1110.62 169.85 1117.26 165.02 1123.92 160.83 C 1127.33 158.53 1131.33 157.39 1135.18 156.05 C 1138.51 154.29 1142.37 154.60 1146.02 154.44 C 1153.34 154.23 1160.68 154.33 1168.00 154.89 C 1169.64 157.31 1172.95 156.40 1175.31 157.57 C 1178.24 159.15 1181.35 160.35 1184.46 161.52 C 1188.43 163.80 1192.35 166.29 1195.63 169.52 C 1197.65 172.08 1199.63 174.68 1201.99 176.96 C 1207.31 182.95 1211.13 190.07 1214.66 197.23 C 1215.13 198.49 1215.37 199.80 1215.40 201.17 C 1215.95 201.26 1217.05 201.45 1217.60 201.54 C 1218.71 205.25 1217.30 209.90 1220.14 212.90 C 1220.82 223.61 1220.78 234.36 1220.16 245.07 C 1219.31 248.59 1217.77 251.91 1217.74 255.61 C 1217.19 255.57 1216.07 255.48 1215.51 255.43 C 1215.05 263.29 1209.00 269.24 1206.06 276.25 C 1201.60 282.91 1195.54 288.28 1189.25 293.16 C 1181.41 298.62 1172.03 300.93 1163.01 303.49 C 1147.43 305.87 1130.67 302.56 1118.05 292.89 C 1114.31 289.07 1109.11 286.58 1106.89 281.46 C 1105.08 283.62 1105.64 286.43 1105.59 289.00 C 1105.60 292.53 1105.56 296.05 1105.57 299.58 C 1095.60 299.94 1085.62 299.64 1075.64 299.76 C 1075.58 231.61 1075.61 163.46 1075.63 95.31 M 1136.95 184.31 C 1128.11 185.66 1120.86 191.76 1115.43 198.54 C 1113.83 200.34 1113.03 203.00 1110.56 203.86 C 1109.36 208.98 1106.19 213.56 1106.06 218.93 C 1105.21 227.12 1105.51 235.42 1106.60 243.58 C 1107.77 246.16 1108.19 249.04 1109.61 251.52 C 1110.96 254.63 1113.96 256.53 1115.71 259.40 C 1119.86 265.38 1126.07 269.62 1132.74 272.34 C 1138.39 275.14 1144.88 274.26 1150.98 274.40 C 1161.03 274.71 1170.32 269.13 1177.05 262.03 C 1179.32 259.89 1180.27 256.18 1183.44 255.17 C 1184.67 250.64 1188.04 246.83 1188.26 242.02 C 1188.23 238.93 1190.05 236.21 1189.74 233.09 C 1189.63 227.97 1190.41 222.62 1188.52 217.73 C 1187.68 212.10 1184.67 207.12 1183.28 201.63 C 1182.76 201.62 1181.70 201.60 1181.17 201.59 C 1178.40 196.38 1173.90 192.25 1169.12 188.90 C 1164.36 185.50 1158.60 184.30 1153.09 182.81 C 1147.68 182.55 1142.04 182.11 1136.95 184.31 Z" />
<path fill="#ffffff" opacity="1.00" d=" M 889.96 154.88 C 897.62 154.30 905.35 154.25 913.03 154.81 C 915.12 155.34 918.63 156.18 918.36 158.93 C 918.31 169.08 918.43 179.23 918.28 189.38 C 912.71 187.37 907.06 184.89 901.02 185.17 C 897.00 185.13 892.96 185.00 888.96 185.39 C 881.88 187.15 875.56 191.23 870.78 196.73 C 866.21 200.14 863.22 205.33 862.12 210.89 C 861.64 213.27 860.10 215.38 860.34 217.90 C 860.05 243.61 860.33 269.33 860.20 295.05 C 860.14 296.60 859.88 298.14 859.73 299.69 C 849.25 299.78 838.77 299.75 828.30 299.71 C 828.13 252.66 828.32 205.61 828.20 158.57 C 838.23 158.48 848.26 158.49 858.29 158.56 C 858.35 165.51 858.11 172.47 858.45 179.42 C 863.49 176.25 863.92 169.03 869.41 166.45 C 873.76 163.32 878.01 159.93 883.04 157.91 C 885.24 156.57 888.28 157.09 889.96 154.88 Z" />
<path fill="#ffffff" opacity="1.00" d=" M 966.80 156.51 C 968.80 155.81 970.73 154.68 972.95 154.72 C 982.30 154.27 991.68 154.20 1001.03 154.66 C 1004.15 154.59 1006.84 156.47 1009.91 156.74 C 1018.71 158.73 1026.77 163.41 1033.51 169.37 C 1036.10 172.12 1038.12 175.40 1041.08 177.82 C 1044.96 180.87 1047.02 185.44 1049.28 189.68 C 1052.25 195.09 1053.53 201.16 1055.20 207.04 C 1055.35 211.77 1057.36 216.23 1057.31 220.99 C 1057.21 225.85 1057.89 230.86 1056.36 235.57 C 1020.34 235.41 984.31 235.60 948.28 235.48 C 947.52 244.52 950.92 253.47 956.54 260.48 C 961.39 265.90 967.30 271.09 974.61 272.60 C 977.65 274.06 981.04 274.59 984.40 274.42 C 984.60 274.98 984.99 276.12 985.19 276.69 C 988.95 276.66 992.72 276.56 996.49 276.59 C 996.51 276.02 996.53 274.89 996.54 274.32 C 1001.18 275.05 1005.22 272.50 1009.59 271.53 C 1014.12 268.95 1018.42 265.76 1021.75 261.70 C 1024.05 259.10 1025.59 255.92 1027.96 253.36 C 1035.72 257.84 1044.33 260.57 1052.26 264.71 C 1053.97 265.86 1053.74 267.99 1052.65 269.50 C 1049.72 273.63 1047.57 278.31 1043.88 281.87 C 1034.60 289.26 1025.38 297.74 1013.50 300.52 C 1010.03 302.25 1006.08 301.87 1002.41 302.71 C 999.75 303.84 996.82 303.82 994.01 304.16 C 988.00 304.25 981.77 304.67 976.05 302.52 C 969.53 302.38 963.36 300.23 957.47 297.60 C 951.60 294.73 945.81 291.51 941.05 286.97 C 937.86 283.77 933.43 281.73 931.30 277.58 C 929.71 273.47 926.39 270.39 924.70 266.33 C 920.50 259.17 919.03 250.92 916.57 243.11 C 916.16 234.53 916.02 225.92 916.49 217.34 C 917.13 214.40 918.26 211.56 918.47 208.52 C 920.60 198.12 925.47 188.34 932.03 180.02 C 933.47 178.41 934.73 176.25 937.08 175.97 C 938.24 173.89 940.41 172.45 940.92 170.03 C 944.16 168.51 946.49 165.63 949.65 163.97 C 955.17 161.05 960.61 157.75 966.80 156.51 M 957.38 194.38 C 953.76 199.44 949.66 205.05 950.29 211.61 C 975.19 211.49 1000.09 211.63 1025.00 211.54 C 1025.19 205.43 1022.17 199.96 1019.17 194.86 C 1014.01 187.24 1005.09 183.92 996.65 181.40 C 991.83 180.23 986.80 180.66 981.89 180.78 C 972.63 182.61 963.00 186.36 957.38 194.38 Z" />
<path fill="#ffffff" opacity="1.00" d=" M 1274.76 155.71 C 1277.33 154.46 1280.25 154.67 1283.04 154.53 C 1291.69 154.24 1300.35 154.30 1309.00 154.62 C 1310.81 154.70 1312.70 154.76 1314.40 155.56 C 1317.44 157.19 1321.10 156.56 1324.24 157.93 C 1330.92 160.60 1337.55 164.12 1342.64 169.28 C 1347.09 175.34 1352.99 180.90 1354.52 188.55 C 1355.05 188.65 1356.09 188.85 1356.62 188.94 C 1356.97 193.76 1359.72 198.09 1359.37 203.00 C 1359.64 235.26 1359.53 267.53 1359.44 299.79 C 1349.41 299.68 1339.39 299.77 1329.36 299.74 C 1329.17 294.05 1329.47 288.35 1329.12 282.68 C 1326.55 283.76 1325.04 286.19 1323.10 288.05 C 1316.01 294.06 1308.50 300.43 1299.10 302.21 C 1286.16 306.33 1272.13 303.89 1259.71 299.22 C 1256.21 297.47 1252.91 295.37 1249.51 293.47 C 1245.46 290.57 1242.22 286.74 1239.13 282.89 C 1236.03 278.79 1234.69 273.74 1232.93 269.00 C 1232.18 264.05 1232.36 259.00 1232.32 254.01 C 1232.54 248.52 1232.04 242.69 1234.69 237.67 C 1237.77 230.23 1243.34 224.08 1249.85 219.47 C 1253.49 218.09 1256.64 215.73 1260.22 214.21 C 1266.53 211.51 1273.25 210.19 1279.95 208.79 C 1287.29 208.56 1294.66 208.60 1302.02 208.78 C 1311.33 210.10 1320.35 212.70 1329.25 215.55 C 1329.08 210.94 1329.91 206.11 1328.32 201.66 C 1326.70 198.16 1325.64 194.03 1322.37 191.66 C 1319.01 189.75 1316.56 186.55 1312.96 185.03 C 1308.23 182.90 1303.39 180.19 1298.02 180.60 C 1292.70 180.79 1287.15 179.95 1282.06 181.88 C 1276.93 183.79 1271.68 185.87 1267.49 189.49 C 1264.83 192.04 1262.15 194.58 1259.86 197.47 C 1256.09 195.12 1252.80 191.94 1248.54 190.50 C 1244.43 187.76 1240.45 184.83 1236.35 182.08 C 1237.13 177.38 1241.86 175.14 1244.47 171.56 C 1245.98 169.17 1248.05 167.13 1250.61 165.86 C 1255.85 163.94 1260.19 160.13 1265.57 158.49 C 1268.43 156.91 1271.82 157.07 1274.76 155.71 M 1283.88 233.45 C 1279.87 233.71 1276.21 235.73 1272.92 237.88 C 1269.26 240.02 1267.65 244.09 1265.37 247.45 C 1263.82 252.74 1264.24 258.50 1264.89 263.93 C 1267.14 268.62 1271.21 273.29 1276.45 274.55 C 1276.56 275.10 1276.78 276.20 1276.90 276.75 C 1279.07 277.10 1281.24 277.58 1283.30 278.41 C 1286.51 278.95 1289.81 278.75 1293.07 278.72 C 1296.67 278.83 1299.88 276.86 1303.51 276.96 C 1303.52 276.39 1303.54 275.24 1303.55 274.67 C 1310.06 273.79 1314.80 268.69 1319.11 264.17 C 1320.98 262.04 1323.92 260.76 1324.94 257.94 C 1327.40 252.34 1330.16 246.37 1329.10 240.09 C 1324.68 236.60 1318.99 235.79 1313.87 233.86 C 1308.19 233.46 1302.73 231.37 1297.00 231.57 C 1292.52 231.27 1288.24 232.77 1283.88 233.45 Z" />
<path fill="#ffffff" opacity="1.00" d=" M 1406.51 158.34 C 1411.57 156.72 1416.59 154.39 1422.04 154.54 C 1430.70 154.27 1439.38 154.23 1448.05 154.70 C 1451.17 154.89 1453.89 156.69 1457.00 157.06 C 1463.55 158.25 1469.20 161.88 1474.79 165.28 C 1478.65 167.69 1481.17 171.54 1483.86 175.10 C 1486.26 178.61 1489.30 181.91 1489.75 186.35 C 1485.44 187.48 1481.71 190.11 1477.44 191.37 C 1472.68 193.47 1468.04 196.19 1462.64 195.89 C 1462.05 192.68 1458.36 191.85 1456.66 189.33 C 1452.49 184.34 1446.03 182.52 1440.03 180.83 C 1435.03 180.46 1429.97 180.44 1425.00 180.92 C 1419.62 182.65 1413.95 184.84 1410.50 189.56 C 1407.70 195.58 1410.05 203.74 1416.66 206.03 C 1416.65 206.60 1416.63 207.73 1416.63 208.29 C 1419.36 208.31 1421.92 209.30 1424.41 210.38 C 1429.06 210.83 1433.20 213.14 1437.92 213.27 C 1441.95 215.03 1446.48 214.87 1450.52 216.62 C 1454.39 217.18 1457.88 219.07 1461.80 219.47 C 1469.98 222.89 1478.25 226.94 1484.02 233.91 C 1488.46 238.02 1489.94 243.97 1491.80 249.49 C 1493.82 253.71 1493.20 258.53 1493.20 263.06 C 1492.66 268.44 1489.94 273.27 1488.40 278.40 C 1485.38 282.34 1482.84 286.78 1478.84 289.85 C 1472.62 294.82 1465.52 299.27 1457.57 300.62 C 1453.82 302.53 1449.43 301.88 1445.60 303.50 C 1437.19 304.65 1428.34 304.83 1420.13 302.48 C 1410.53 301.77 1401.60 297.55 1393.74 292.15 C 1389.34 290.20 1386.31 286.37 1383.02 283.03 C 1379.25 279.13 1377.23 274.04 1374.64 269.38 C 1373.81 267.75 1373.22 265.85 1373.67 264.03 C 1382.67 259.95 1391.78 256.07 1401.22 253.09 C 1403.37 260.48 1408.88 266.56 1415.32 270.60 C 1419.52 273.31 1424.44 274.94 1429.50 274.45 C 1429.50 275.04 1429.49 276.21 1429.49 276.79 C 1433.74 276.80 1438.00 276.74 1442.26 276.76 C 1442.33 276.18 1442.47 275.04 1442.54 274.46 C 1447.81 274.74 1453.40 273.06 1456.98 269.03 C 1458.44 267.68 1459.50 265.62 1461.68 265.32 C 1461.97 262.03 1461.97 258.72 1461.81 255.43 C 1461.23 255.23 1460.08 254.83 1459.51 254.63 C 1456.91 248.74 1450.38 246.12 1444.64 244.30 C 1442.12 242.97 1439.30 242.44 1436.49 242.53 C 1436.47 241.97 1436.43 240.85 1436.41 240.29 C 1431.44 240.27 1426.88 238.20 1422.00 237.68 C 1415.55 235.86 1408.81 234.74 1402.82 231.57 C 1394.76 227.25 1385.97 222.86 1381.47 214.46 C 1376.99 206.76 1377.27 197.54 1377.89 188.95 C 1378.90 183.17 1381.53 177.70 1385.25 173.15 C 1386.63 170.20 1388.79 167.59 1391.75 166.11 C 1396.83 163.82 1401.03 159.81 1406.51 158.34 Z" />
<path fill="#ffffff" opacity="1.00" d=" M 1553.88 156.72 C 1556.26 156.16 1558.44 154.83 1560.95 154.72 C 1570.63 154.23 1580.35 154.21 1590.04 154.70 C 1593.18 154.84 1595.91 156.67 1599.02 157.05 C 1605.30 158.18 1610.77 161.62 1616.16 164.85 C 1621.28 168.04 1624.33 173.38 1628.63 177.45 C 1631.37 180.15 1632.61 183.97 1635.34 186.67 C 1638.21 189.23 1638.34 193.56 1641.04 196.25 C 1641.25 199.64 1642.40 202.78 1643.42 205.97 C 1643.43 210.19 1643.93 214.38 1645.28 218.40 C 1645.71 222.90 1645.46 227.45 1645.47 231.97 C 1645.77 233.89 1643.91 235.85 1641.98 235.51 C 1606.79 235.50 1571.60 235.52 1536.41 235.50 C 1536.49 239.49 1536.28 243.64 1538.12 247.32 C 1540.31 257.00 1547.41 265.02 1555.91 269.86 C 1560.59 272.73 1565.92 274.74 1571.51 274.34 C 1571.52 274.89 1571.54 275.99 1571.55 276.54 C 1575.33 276.60 1579.11 276.64 1582.90 276.71 C 1583.08 276.14 1583.44 274.99 1583.62 274.41 C 1591.56 275.32 1598.23 270.43 1604.80 266.84 C 1606.22 265.67 1607.54 264.38 1608.91 263.14 C 1610.81 259.46 1614.50 256.83 1615.93 252.99 C 1620.92 256.70 1627.17 258.25 1632.50 261.47 C 1635.48 263.50 1640.61 262.90 1641.85 266.87 C 1641.01 270.54 1637.56 272.94 1636.74 276.65 C 1634.02 277.82 1632.46 280.46 1630.44 282.48 C 1622.46 290.35 1613.30 297.75 1602.12 300.26 C 1598.37 301.48 1594.43 301.89 1590.73 303.22 C 1572.14 306.02 1552.30 302.88 1536.44 292.47 C 1533.98 290.49 1531.06 289.22 1528.55 287.36 C 1525.14 284.10 1521.43 280.97 1519.05 276.84 C 1516.50 271.84 1512.86 267.43 1510.89 262.14 C 1509.09 257.16 1506.31 252.37 1506.40 246.93 C 1503.68 238.54 1504.66 229.66 1504.57 220.99 C 1504.28 216.17 1507.04 211.86 1506.79 207.03 C 1510.15 194.59 1516.54 182.82 1525.89 173.84 C 1527.60 172.22 1528.56 169.80 1530.80 168.76 C 1538.06 164.03 1545.29 158.72 1553.88 156.72 M 1547.24 192.26 C 1542.90 197.85 1538.03 204.11 1538.45 211.59 C 1563.39 211.50 1588.33 211.65 1613.27 211.51 C 1612.21 203.35 1609.26 194.72 1602.34 189.71 C 1599.37 188.31 1596.81 186.21 1593.85 184.83 C 1578.94 177.08 1558.84 179.88 1547.24 192.26 Z" />
<path fill="#ffffff" opacity="1.00" d=" M 768.71 158.57 C 779.00 158.45 789.29 158.54 799.59 158.51 C 799.54 205.60 799.70 252.70 799.51 299.79 C 789.25 299.66 779.00 299.80 768.74 299.72 C 768.65 252.67 768.72 205.62 768.71 158.57 Z" />
</g>
<g id="#ffc400ff">
<path fill="#ffc400" opacity="1.00" d=" M 255.78 145.46 C 263.72 143.65 271.93 144.51 280.00 144.36 C 286.87 144.08 293.39 146.91 300.27 146.67 C 300.55 146.87 301.11 147.27 301.39 147.47 C 301.73 153.31 301.67 159.15 301.59 164.99 C 302.29 180.78 303.44 196.69 307.86 211.94 C 311.19 227.26 317.38 241.75 323.94 255.92 C 328.86 265.42 334.26 274.70 340.69 283.26 C 345.95 291.48 352.46 298.78 359.11 305.90 C 362.16 309.14 366.15 311.77 367.93 316.00 C 369.21 318.78 366.92 321.30 365.45 323.44 C 360.82 329.40 356.34 335.58 350.50 340.44 C 345.18 344.82 340.04 349.47 334.12 353.04 C 329.87 355.69 325.04 357.52 321.39 361.05 C 323.68 363.64 327.18 364.61 330.09 366.35 C 315.48 362.02 301.13 356.15 288.64 347.32 C 279.25 339.76 268.77 333.28 261.33 323.63 C 251.77 314.12 245.31 302.18 238.31 290.81 C 230.02 275.40 225.58 258.25 223.08 241.03 C 222.15 229.74 222.29 218.36 222.87 207.04 C 224.34 192.12 228.24 177.47 233.94 163.61 C 236.28 158.60 238.26 153.23 242.04 149.08 C 246.13 146.51 251.15 146.36 255.78 145.46 Z" />
</g>
<g id="#ff9100ff">
<path fill="#ff9100" opacity="1.00" d=" M 301.39 147.47 C 313.87 151.47 326.29 156.27 337.05 163.90 C 342.68 167.90 348.63 171.55 353.55 176.45 C 361.93 185.03 368.79 195.00 374.57 205.47 C 380.73 218.85 385.68 233.16 386.32 247.98 C 386.12 255.63 386.65 263.30 386.02 270.92 C 383.91 286.83 379.15 302.71 370.07 316.07 C 374.91 321.24 380.56 325.52 386.26 329.68 C 398.17 338.99 411.44 346.35 425.05 352.85 C 428.78 354.49 432.57 356.36 436.72 356.53 C 437.01 356.77 437.60 357.27 437.89 357.51 C 428.86 362.26 419.08 365.42 409.22 367.91 C 401.08 370.68 392.47 371.03 384.05 372.36 C 365.92 373.18 347.35 372.41 330.09 366.35 C 327.18 364.61 323.68 363.64 321.39 361.05 C 325.04 357.52 329.87 355.69 334.12 353.04 C 340.04 349.47 345.18 344.82 350.50 340.44 C 356.34 335.58 360.82 329.40 365.45 323.44 C 366.92 321.30 369.21 318.78 367.93 316.00 C 366.15 311.77 362.16 309.14 359.11 305.90 C 352.46 298.78 345.95 291.48 340.69 283.26 C 334.26 274.70 328.86 265.42 323.94 255.92 C 317.38 241.75 311.19 227.26 307.86 211.94 C 303.44 196.69 302.29 180.78 301.59 164.99 C 301.67 159.15 301.73 153.31 301.39 147.47 Z" />
</g>
</svg>
