<?xml version="1.0" encoding="UTF-8" ?>
<!DOCTYPE svg PUBLIC "-//W3C//DTD SVG 1.1//EN" "http://www.w3.org/Graphics/SVG/1.1/DTD/svg11.dtd">
<svg width="1203pt" height="709pt" viewBox="0 0 1203 709" version="1.1" xmlns="http://www.w3.org/2000/svg">
<g id="#4285f4ff">
<path fill="#4285f4" opacity="1.00" d=" M 148.99 157.43 C 166.53 155.59 184.44 156.60 201.57 160.84 C 226.19 166.57 248.66 179.87 266.83 197.28 C 266.43 198.31 265.89 199.28 265.05 200.02 C 256.26 208.65 247.67 217.48 238.87 226.10 C 234.23 223.60 230.86 219.33 226.40 216.54 C 202.97 199.56 172.33 193.86 144.13 199.41 C 120.29 203.92 98.26 217.08 82.85 235.81 C 69.07 252.51 60.37 273.43 58.49 295.02 C 58.21 305.47 57.69 316.06 59.80 326.36 C 64.27 351.51 78.00 375.01 97.96 390.99 C 117.21 406.70 142.19 415.13 167.00 414.51 C 187.03 414.44 207.37 409.33 224.10 398.06 C 234.72 390.90 244.49 381.99 250.85 370.75 C 257.34 359.61 260.58 346.93 262.41 334.26 C 233.94 334.21 205.47 334.26 177.00 334.24 C 173.08 334.18 169.13 334.51 165.24 333.88 C 164.91 332.28 164.65 330.66 164.68 329.03 C 164.73 318.67 164.71 308.30 164.69 297.94 C 164.67 296.41 164.99 294.91 165.29 293.42 C 210.99 293.40 256.70 293.33 302.41 293.45 C 304.43 305.67 305.03 318.17 303.90 330.51 C 302.13 356.14 294.22 381.88 278.58 402.51 C 265.52 419.38 248.51 433.32 229.13 442.33 C 207.92 452.28 184.21 455.67 160.97 455.43 C 150.99 454.77 141.02 453.76 131.24 451.53 C 108.10 446.10 86.19 435.31 67.94 420.05 C 38.23 395.63 18.14 359.42 14.42 321.03 C 14.02 310.69 14.02 300.33 14.46 289.99 C 16.72 269.25 23.59 249.04 34.27 231.11 C 58.27 190.50 101.99 162.18 148.99 157.43 Z" />
<path fill="#4285f4" opacity="1.00" d=" M 790.22 272.35 C 805.99 264.13 824.30 261.52 841.83 264.07 C 853.14 266.03 864.09 270.70 872.97 278.03 C 875.78 280.21 877.73 283.66 881.25 284.80 C 881.43 279.46 881.19 274.11 881.41 268.77 C 894.51 268.71 907.61 268.75 920.71 268.75 C 920.97 314.49 920.75 360.25 920.82 406.00 C 920.71 422.66 921.08 439.34 920.58 455.99 C 919.14 471.23 915.45 486.49 907.97 499.95 C 900.09 514.24 887.61 525.97 872.75 532.75 C 861.29 538.26 848.60 540.63 836.01 541.50 C 817.66 542.51 798.83 538.62 783.01 529.09 C 767.76 520.10 755.33 506.54 747.31 490.80 C 746.27 488.87 745.18 486.88 745.21 484.63 C 754.57 480.84 763.86 476.87 773.20 473.02 C 775.91 471.92 778.55 470.47 781.51 470.13 C 787.22 482.94 797.13 494.21 810.19 499.76 C 824.02 505.63 840.20 504.77 853.90 498.93 C 866.45 493.41 875.24 481.43 878.49 468.31 C 881.63 457.07 880.65 445.29 880.70 433.77 C 877.25 435.00 875.28 438.31 872.51 440.51 C 860.68 450.35 845.22 455.00 830.01 455.48 C 800.26 455.62 771.51 439.65 754.62 415.38 C 743.06 399.07 736.52 379.05 737.18 359.00 C 736.32 323.11 758.26 288.29 790.22 272.35 M 821.32 302.22 C 801.00 306.75 785.13 324.54 780.93 344.65 C 777.70 359.35 779.10 375.43 786.34 388.79 C 793.45 402.58 806.77 413.24 822.09 416.27 C 829.17 418.00 836.66 417.98 843.73 416.19 C 860.94 412.46 874.77 398.46 880.28 382.00 C 884.21 371.83 884.31 360.74 883.47 350.02 C 881.20 332.20 871.21 314.63 854.87 306.30 C 844.73 300.65 832.51 300.09 821.32 302.22 Z" />
</g>
<g id="#34a853ff">
<path fill="#34a853" opacity="1.00" d=" M 946.47 167.49 C 959.96 167.57 973.46 167.54 986.95 167.50 C 987.62 171.63 987.23 175.83 987.31 180.00 C 987.31 256.33 987.31 332.67 987.31 409.00 C 987.10 422.51 987.74 436.06 987.00 449.54 C 973.44 449.35 959.88 449.79 946.33 449.32 C 946.33 359.88 946.33 270.44 946.33 181.00 C 946.34 176.50 946.21 171.99 946.47 167.49 Z" />
</g>
<g id="#ea4335ff">
<path fill="#ea4335" opacity="1.00" d=" M 401.76 264.12 C 409.11 263.45 416.54 262.18 423.91 263.31 C 443.78 264.23 463.25 271.73 478.71 284.22 C 492.15 295.06 502.55 309.69 508.14 326.04 C 519.90 359.36 512.94 399.47 488.11 425.16 C 464.86 450.58 427.21 461.02 393.99 452.67 C 370.90 447.26 349.85 433.00 336.80 413.13 C 326.06 397.26 321.00 378.03 320.63 359.00 C 321.06 339.02 326.70 318.83 338.53 302.53 C 353.14 281.75 376.76 267.90 401.76 264.12 M 410.35 301.41 C 390.83 303.64 373.75 317.96 367.14 336.31 C 364.19 343.84 362.86 351.91 363.26 359.99 C 362.44 384.51 379.13 409.22 403.26 415.47 C 414.50 419.00 426.76 417.74 437.60 413.40 C 450.46 407.92 460.94 397.22 466.39 384.36 C 472.46 370.36 472.95 354.23 468.59 339.67 C 464.52 326.63 455.73 315.00 443.89 308.09 C 433.85 302.33 421.84 299.57 410.35 301.41 Z" />
<path fill="#ea4335" opacity="1.00" d=" M 1056.01 272.00 C 1078.59 261.05 1105.99 259.55 1129.10 269.77 C 1146.30 277.36 1160.26 291.14 1169.73 307.22 C 1174.28 314.53 1177.36 322.61 1180.57 330.57 C 1181.22 332.11 1181.66 333.75 1181.71 335.44 C 1139.16 352.93 1096.62 370.49 1054.20 388.30 C 1058.75 399.21 1067.71 408.36 1078.52 413.24 C 1097.36 421.09 1120.95 418.25 1136.15 404.16 C 1140.46 400.33 1144.10 395.83 1147.55 391.23 C 1149.94 392.03 1151.94 393.59 1154.01 395.01 C 1162.58 400.90 1171.39 406.46 1179.93 412.40 C 1179.13 415.65 1176.49 417.97 1174.53 420.56 C 1160.77 437.31 1141.22 449.32 1119.88 453.43 C 1098.03 458.05 1074.64 454.66 1054.87 444.31 C 1029.97 431.35 1011.88 406.41 1006.95 378.81 C 1004.68 368.69 1005.27 358.24 1005.54 347.95 C 1007.16 331.83 1012.31 315.92 1021.39 302.42 C 1029.98 289.46 1042.06 278.87 1056.01 272.00 M 1061.46 316.45 C 1051.23 326.76 1046.60 341.55 1046.66 355.85 C 1049.81 355.35 1052.68 353.92 1055.58 352.66 C 1081.27 341.93 1107.01 331.31 1132.68 320.56 C 1127.58 307.72 1113.23 300.69 1099.97 300.38 C 1085.51 299.37 1071.25 306.03 1061.46 316.45 Z" />
</g>
<g id="#fbbc05ff">
<path fill="#fbbc05" opacity="1.00" d=" M 551.45 296.38 C 569.81 274.58 598.54 262.08 627.00 263.23 C 661.51 262.73 695.38 283.02 710.99 313.85 C 727.61 345.91 725.00 387.27 703.49 416.45 C 690.13 434.94 669.72 448.09 647.46 452.91 C 636.51 455.24 625.11 456.52 614.00 454.62 C 611.73 454.35 609.44 454.36 607.17 454.59 C 608.03 454.23 608.92 453.90 609.77 453.46 C 606.93 453.67 604.12 453.30 601.40 452.54 C 580.45 447.42 561.18 435.13 548.19 417.84 C 537.66 404.03 531.23 387.22 529.44 369.98 C 529.04 360.33 528.66 350.54 530.45 341.01 C 533.46 324.66 540.54 308.98 551.45 296.38 M 614.29 302.06 C 596.05 305.81 580.72 319.90 574.78 337.46 C 569.31 353.35 569.95 371.58 577.32 386.77 C 586.96 407.81 611.41 421.20 634.30 416.65 C 650.31 414.08 664.38 403.30 672.10 389.20 C 680.46 373.77 681.84 354.80 676.13 338.24 C 671.38 323.80 660.46 311.36 646.46 305.33 C 636.49 300.63 625.00 300.32 614.29 302.06 Z" />
</g>
</svg>
