<?xml version="1.0" encoding="UTF-8" ?>
<!DOCTYPE svg PUBLIC "-//W3C//DTD SVG 1.1//EN" "http://www.w3.org/Graphics/SVG/1.1/DTD/svg11.dtd">
<svg width="1875pt" height="378pt" viewBox="0 0 1875 378" version="1.1" xmlns="http://www.w3.org/2000/svg">
<g id="#fe7a63ff">
<path fill="#fe7a63" opacity="1.00" d=" M 42.51 3.48 C 153.53 3.34 264.56 3.45 375.58 3.43 C 375.59 5.81 375.58 8.19 375.54 10.57 C 375.02 10.54 373.99 10.48 373.48 10.45 C 373.29 20.13 373.64 29.81 373.37 39.49 C 372.88 39.41 371.90 39.25 371.41 39.17 L 371.67 40.58 L 370.52 40.46 C 370.63 48.16 370.80 55.88 370.52 63.58 C 370.01 63.53 369.00 63.43 368.49 63.38 C 368.44 72.76 368.54 82.15 368.54 91.53 C 367.63 91.62 366.73 91.71 365.84 91.80 C 366.21 84.50 367.95 77.31 367.72 69.97 C 367.46 64.56 369.62 59.41 369.54 54.01 C 369.53 44.99 370.34 35.99 371.78 27.09 C 373.07 19.58 372.63 11.92 373.63 4.38 C 267.10 4.12 160.56 4.39 54.02 4.26 C 50.51 4.24 47.00 4.33 43.49 4.45 C 43.28 10.96 44.46 17.48 43.75 23.98 L 42.66 25.16 C 42.19 17.94 42.56 10.71 42.51 3.48 Z" />
<path fill="#fe7a63" opacity="1.00" d=" M 209.50 20.49 C 256.32 20.12 303.15 20.51 349.98 20.30 C 351.75 20.30 353.55 20.28 355.30 20.69 C 355.69 21.77 355.81 22.87 355.65 24.00 C 354.62 31.97 353.62 39.97 353.55 48.02 C 351.90 60.98 351.39 74.04 349.73 87.00 C 349.36 92.68 348.36 98.31 348.61 104.02 C 346.47 123.99 345.08 144.02 342.84 163.99 C 341.65 182.76 339.61 201.46 338.21 220.22 C 335.69 239.08 335.10 258.09 332.74 276.96 C 332.75 286.37 330.84 295.65 330.52 305.04 C 329.52 313.44 329.32 321.91 328.28 330.32 C 328.08 330.57 327.68 331.08 327.48 331.33 C 321.82 333.59 315.70 334.17 309.83 335.61 C 303.45 337.73 296.72 338.36 290.26 340.16 C 284.07 341.89 277.67 342.63 271.49 344.37 C 263.16 346.72 254.54 347.78 246.22 350.17 C 236.38 351.88 226.79 354.67 217.07 356.89 C 214.28 357.63 211.39 357.71 208.54 357.47 C 208.49 343.71 208.32 329.95 208.61 316.19 C 201.72 313.77 194.54 312.40 187.50 310.52 C 169.99 306.06 152.43 301.80 135.00 297.02 C 132.66 296.52 130.88 294.43 131.02 292.00 C 130.06 276.29 127.81 260.67 127.25 244.94 C 127.08 241.97 130.51 240.86 132.94 241.14 C 145.89 241.33 158.79 239.56 171.74 240.29 C 173.26 247.04 172.88 254.08 173.91 260.92 C 174.64 262.14 176.26 262.22 177.47 262.73 C 185.98 264.95 194.49 267.21 203.06 269.21 C 204.86 269.72 206.75 269.76 208.60 269.48 C 208.18 251.65 208.84 233.80 208.28 215.98 C 180.40 215.38 152.51 216.21 124.64 215.56 C 123.04 210.86 123.38 205.87 122.82 201.01 C 121.13 185.37 120.21 169.67 118.49 154.03 C 117.88 140.39 116.84 126.75 114.81 113.24 C 113.57 98.65 112.18 84.07 110.83 69.49 C 110.99 68.04 111.96 66.82 112.54 65.52 C 138.04 65.71 163.55 65.51 189.06 65.59 C 195.80 65.50 202.56 65.89 209.30 65.27 C 209.40 50.35 209.06 35.41 209.50 20.49 M 195.93 69.14 C 168.66 69.09 141.40 69.10 114.14 69.13 C 113.94 74.86 114.63 80.55 114.88 86.27 C 115.22 88.69 116.14 91.06 115.80 93.55 C 115.09 97.09 117.61 100.31 117.00 103.84 C 116.36 107.27 117.76 110.59 118.05 113.98 C 118.21 121.01 118.42 128.11 120.01 134.98 C 120.73 142.62 119.32 150.27 120.63 157.86 C 121.82 165.26 121.24 172.82 123.03 180.13 C 122.68 185.48 124.92 190.57 123.95 195.93 C 125.70 201.77 124.07 207.97 126.48 213.69 C 131.36 213.29 136.21 214.44 141.08 213.90 C 144.40 213.92 147.71 214.76 151.04 214.13 C 155.34 213.20 159.65 214.96 163.95 214.07 C 167.98 213.23 172.02 214.97 176.05 213.99 C 180.33 213.04 184.65 214.56 188.95 213.81 C 195.19 214.03 201.44 214.08 207.69 214.41 C 221.49 216.43 235.56 214.33 249.39 215.65 C 250.41 220.32 248.20 224.93 248.67 229.65 C 247.46 240.90 247.33 252.25 245.42 263.42 C 233.48 265.29 221.83 268.67 210.12 271.57 C 204.86 272.56 199.89 270.11 194.80 269.26 C 188.10 267.16 180.97 266.89 174.34 264.53 C 172.12 263.63 171.08 261.19 170.95 258.94 C 170.72 253.68 169.38 248.50 169.81 243.22 C 160.19 243.04 150.56 243.27 140.93 243.30 C 137.33 243.30 133.74 242.24 130.16 243.08 C 130.13 250.27 130.08 257.46 130.54 264.64 C 131.60 270.45 131.21 276.39 132.64 282.15 C 132.33 286.43 133.62 290.52 134.37 294.68 C 155.56 300.39 176.87 305.62 198.14 311.02 C 202.43 311.93 206.49 314.30 210.91 314.29 C 233.20 309.20 255.46 303.98 277.76 298.94 C 281.37 298.45 285.58 297.97 287.31 294.22 C 289.13 277.16 289.93 260.03 292.18 243.01 C 292.28 235.32 293.40 227.69 294.31 220.07 C 294.29 216.37 293.18 212.69 293.88 209.00 C 294.67 204.59 294.71 200.09 295.56 195.69 C 295.52 188.51 297.21 181.47 296.74 174.27 C 267.61 174.23 238.49 174.16 209.37 174.28 C 199.97 175.75 190.44 174.89 180.97 175.11 C 175.89 174.93 170.59 175.82 165.71 174.03 C 163.97 173.41 163.70 171.34 163.40 169.78 C 162.48 163.25 161.25 156.67 161.87 150.04 C 162.56 144.68 161.15 139.35 161.14 133.97 C 159.39 125.88 159.58 117.55 159.16 109.32 L 160.41 109.30 C 160.97 118.86 162.54 128.31 163.08 137.87 C 164.01 149.31 165.70 160.68 165.90 172.16 C 180.04 172.34 194.19 172.42 208.33 172.12 C 208.64 152.73 208.42 133.34 208.45 113.95 C 208.39 112.49 209.07 111.17 209.61 109.86 C 209.15 109.71 208.24 109.42 207.78 109.27 C 209.44 108.59 211.06 107.53 212.95 107.73 C 239.62 107.78 266.29 107.72 292.96 107.76 C 296.42 107.81 299.89 107.69 303.35 107.48 C 304.72 102.78 302.89 97.87 304.14 93.15 C 304.85 84.86 306.13 76.61 305.79 68.25 C 273.87 68.25 241.94 68.25 210.02 68.25 C 205.30 68.23 200.66 69.40 195.93 69.14 Z" />
<path fill="#fe7a63" opacity="1.00" d=" M 45.40 37.90 C 46.91 41.83 47.24 46.16 46.65 50.31 C 46.32 50.52 45.68 50.95 45.35 51.16 C 45.19 46.75 45.24 42.32 45.40 37.90 Z" />
<path fill="#fe7a63" opacity="1.00" d=" M 50.05 99.89 C 50.07 95.88 50.17 91.82 51.33 87.94 C 51.40 92.31 51.76 96.68 52.60 100.98 C 53.67 106.59 52.94 112.34 53.63 117.99 C 54.20 122.98 55.00 127.95 55.15 132.98 C 55.27 141.61 56.64 150.15 57.41 158.74 C 56.66 158.71 55.92 158.68 55.18 158.65 C 54.05 153.13 55.90 147.51 54.62 141.98 C 54.32 138.13 54.59 134.26 54.48 130.40 C 53.98 130.46 52.97 130.58 52.46 130.64 C 52.17 121.36 52.43 112.08 52.43 102.80 C 50.93 102.46 50.14 101.49 50.05 99.89 Z" />
<path fill="#fe7a63" opacity="1.00" d=" M 363.62 114.06 C 364.22 109.19 364.51 104.28 365.51 99.46 C 365.83 106.64 365.85 113.85 365.58 121.03 L 364.06 120.27 C 363.32 118.28 363.35 116.13 363.62 114.06 Z" />
<path fill="#fe7a63" opacity="1.00" d=" M 362.34 139.93 C 362.65 137.40 363.03 134.87 363.44 132.36 C 363.72 137.20 363.62 142.06 363.58 146.92 C 363.06 146.81 362.02 146.59 361.49 146.49 C 361.37 143.70 361.34 140.92 361.32 138.14 C 361.58 138.58 362.09 139.48 362.34 139.93 Z" />
<path fill="#fe7a63" opacity="1.00" d=" M 359.63 160.33 C 359.89 160.29 360.40 160.23 360.65 160.20 C 360.78 164.10 360.82 168.01 360.98 171.92 C 360.78 173.40 360.00 174.39 358.62 174.89 C 358.59 179.12 358.76 183.35 358.53 187.58 C 357.24 178.48 359.25 169.40 359.63 160.33 Z" />
<path fill="#fe7a63" opacity="1.00" d=" M 58.57 171.93 C 59.62 174.97 59.77 178.26 59.39 181.43 C 59.08 181.66 58.46 182.11 58.15 182.34 C 58.14 178.87 58.26 175.39 58.57 171.93 Z" />
<path fill="#fe7a63" opacity="1.00" d=" M 60.59 200.69 C 62.38 204.14 61.37 208.39 62.54 212.10 C 62.08 211.90 61.14 211.49 60.67 211.29 C 58.70 208.28 60.51 204.12 60.59 200.69 Z" />
<path fill="#fe7a63" opacity="1.00" d=" M 353.49 241.86 C 353.97 245.88 353.98 249.94 353.96 253.99 C 353.32 253.93 352.04 253.81 351.40 253.76 C 351.74 249.76 350.61 245.18 353.49 241.86 Z" />
<path fill="#fe7a63" opacity="1.00" d=" M 64.41 252.48 C 65.70 256.37 65.24 260.61 66.74 264.43 C 67.24 269.45 66.54 274.58 67.78 279.53 C 68.44 283.02 69.67 286.89 67.95 290.26 L 66.51 290.92 C 66.00 282.03 67.32 273.02 65.77 264.22 L 64.38 264.72 C 64.26 260.64 64.25 256.56 64.41 252.48 Z" />
<path fill="#fe7a63" opacity="1.00" d=" M 349.42 281.27 C 349.15 275.94 349.11 270.42 351.42 265.48 C 351.72 270.90 351.68 276.34 351.48 281.76 C 350.96 281.64 349.93 281.39 349.42 281.27 Z" />
<path fill="#fe7a63" opacity="1.00" d=" M 347.32 307.55 C 347.40 303.09 348.07 298.67 349.27 294.38 C 349.61 298.75 349.45 303.13 349.45 307.51 C 348.92 307.52 347.85 307.54 347.32 307.55 Z" />
<path fill="#fe7a63" opacity="1.00" d=" M 69.44 302.77 C 70.03 302.59 70.63 302.46 71.23 302.35 C 69.69 307.28 72.38 312.28 71.23 317.19 C 70.79 317.38 69.91 317.74 69.47 317.92 C 69.15 313.41 69.27 308.89 69.27 304.37 L 69.44 302.77 Z" />
<path fill="#fe7a63" opacity="1.00" d=" M 344.62 324.71 C 345.09 324.13 346.04 322.98 346.51 322.40 C 346.77 326.30 346.72 330.21 346.57 334.12 L 345.07 333.30 C 344.23 330.51 344.46 327.57 344.62 324.71 Z" />
<path fill="#fe7a63" opacity="1.00" d=" M 72.59 331.86 C 73.91 335.36 73.45 339.16 73.60 342.81 C 73.21 342.81 72.45 342.81 72.07 342.81 C 72.18 339.16 72.22 335.50 72.59 331.86 Z" />
<path fill="#fe7a63" opacity="1.00" d=" M 303.69 353.73 C 310.81 351.45 318.17 350.33 325.49 348.91 C 325.52 349.32 325.57 350.13 325.59 350.54 C 322.59 350.65 319.58 350.65 316.57 350.59 L 316.67 351.66 L 315.42 351.57 C 315.45 352.04 315.50 352.99 315.52 353.47 C 312.48 353.45 309.43 353.44 306.39 353.44 C 306.41 353.95 306.46 354.97 306.49 355.48 C 302.47 355.66 298.46 355.58 294.45 355.54 C 294.48 356.05 294.54 357.06 294.57 357.57 C 291.89 357.72 289.20 357.72 286.52 357.61 L 286.52 358.62 C 286.01 358.57 285.00 358.48 284.50 358.43 C 284.49 358.95 284.49 359.98 284.49 360.50 C 281.46 360.53 278.43 360.51 275.40 360.48 C 275.42 360.99 275.45 362.00 275.47 362.51 C 271.64 362.80 267.79 362.44 263.96 362.77 C 263.75 363.21 263.33 364.09 263.13 364.53 C 261.10 364.61 259.09 364.84 257.14 365.41 C 255.91 365.43 254.68 365.45 253.46 365.47 L 253.64 366.90 L 251.92 366.82 C 250.56 366.74 249.20 366.70 247.84 366.65 C 253.80 364.68 259.87 363.03 266.05 361.95 C 278.77 359.96 290.88 355.19 303.69 353.73 Z" />
</g>
<g id="#fe3336ff">
<path fill="#fe3336" opacity="1.00" d=" M 43.49 4.45 C 47.00 4.33 50.51 4.24 54.02 4.26 C 160.56 4.39 267.10 4.12 373.63 4.38 C 372.63 11.92 373.07 19.58 371.78 27.09 C 370.34 35.99 369.53 44.99 369.54 54.01 C 369.62 59.41 367.46 64.56 367.72 69.97 C 367.95 77.31 366.21 84.50 365.84 91.80 C 365.68 94.35 365.84 96.92 365.51 99.46 C 364.51 104.28 364.22 109.19 363.62 114.06 C 363.35 116.13 363.32 118.28 364.06 120.27 C 364.13 120.53 364.29 121.03 364.37 121.28 C 362.80 124.76 364.04 128.69 363.44 132.36 C 363.03 134.87 362.65 137.40 362.34 139.93 C 362.09 139.48 361.58 138.58 361.32 138.14 C 361.34 140.92 361.37 143.70 361.49 146.49 C 361.30 155.41 361.76 164.35 361.27 173.26 L 360.98 171.92 C 360.82 168.01 360.78 164.10 360.65 160.20 C 360.40 160.23 359.89 160.29 359.63 160.33 C 359.25 169.40 357.24 178.48 358.53 187.58 C 358.94 191.59 359.01 195.68 358.60 199.69 C 358.08 199.99 357.05 200.58 356.54 200.88 C 356.66 209.46 356.23 218.04 356.85 226.60 C 356.25 226.52 355.05 226.35 354.45 226.27 C 354.31 235.58 354.44 244.89 354.42 254.20 C 353.47 254.73 352.52 255.26 351.58 255.79 C 351.49 259.01 351.84 262.27 351.42 265.48 C 349.11 270.42 349.15 275.94 349.42 281.27 C 349.41 285.64 349.67 290.03 349.27 294.38 C 348.07 298.67 347.40 303.09 347.32 307.55 L 347.25 308.96 C 346.86 310.43 346.56 311.93 346.35 313.44 L 347.40 313.54 C 347.34 315.84 347.35 318.14 347.41 320.44 L 346.78 320.56 C 346.71 321.02 346.58 321.94 346.51 322.40 C 346.04 322.98 345.09 324.13 344.62 324.71 C 344.46 327.57 344.23 330.51 345.07 333.30 L 345.32 334.32 C 343.67 337.81 344.83 341.84 344.59 345.56 L 343.42 345.38 L 343.48 346.45 C 341.57 346.42 339.68 346.41 337.78 346.43 C 337.60 346.90 337.25 347.86 337.07 348.33 C 333.23 348.91 329.29 348.01 325.49 348.91 C 318.17 350.33 310.81 351.45 303.69 353.73 C 290.88 355.19 278.77 359.96 266.05 361.95 C 259.87 363.03 253.80 364.68 247.84 366.65 C 249.20 366.70 250.56 366.74 251.92 366.82 C 252.19 367.17 252.73 367.86 253.00 368.21 C 249.15 368.31 245.30 368.23 241.46 368.30 L 241.64 369.55 L 240.34 369.40 L 240.50 370.46 C 237.63 370.40 234.73 370.19 231.88 370.64 C 231.72 371.11 231.40 372.05 231.24 372.51 C 228.48 372.52 225.72 372.50 222.96 372.58 C 222.46 374.39 220.70 374.97 219.07 375.36 C 216.26 374.21 213.19 374.54 210.37 375.45 L 210.57 376.67 C 209.53 376.62 208.50 376.58 207.47 376.55 L 207.69 375.31 L 206.47 375.58 L 206.44 374.49 C 205.58 374.57 203.86 374.73 203.00 374.80 C 202.25 374.82 200.76 374.85 200.01 374.86 C 198.50 374.66 196.98 374.54 195.46 374.44 C 195.50 373.96 195.57 373.00 195.61 372.52 C 192.56 372.52 189.51 372.52 186.47 372.50 C 186.48 372.00 186.49 370.99 186.50 370.49 C 182.85 370.34 179.19 370.35 175.54 370.48 L 175.49 369.45 L 174.27 369.55 C 174.29 369.07 174.35 368.11 174.38 367.63 C 171.21 367.55 168.03 367.74 164.88 367.36 C 164.72 366.89 164.39 365.95 164.23 365.48 C 160.65 365.42 157.08 365.45 153.50 365.52 L 153.64 364.43 L 152.83 364.50 C 152.50 364.17 151.85 363.52 151.52 363.19 L 151.35 362.59 C 148.42 362.14 143.39 364.26 142.22 360.48 C 139.43 360.50 136.62 360.67 133.85 360.34 C 133.70 359.86 133.40 358.90 133.25 358.41 C 129.45 358.05 125.37 359.18 121.79 357.51 C 121.46 357.18 120.80 356.52 120.46 356.19 L 120.49 355.51 C 117.82 355.59 115.15 355.61 112.48 355.65 L 112.52 354.52 L 111.33 354.52 L 111.57 353.41 C 108.00 353.45 104.43 353.49 100.86 353.44 C 100.35 351.41 97.97 350.42 96.05 350.93 C 93.20 351.57 90.25 351.39 87.44 350.64 C 87.50 350.12 87.60 349.06 87.66 348.54 C 85.29 348.52 82.92 348.48 80.56 348.40 C 80.59 347.91 80.66 346.93 80.69 346.44 C 79.01 346.43 77.33 346.44 75.65 346.32 C 74.03 345.18 72.56 343.81 70.78 342.90 C 70.67 334.79 70.70 326.68 70.77 318.57 L 71.23 317.19 C 72.38 312.28 69.69 307.28 71.23 302.35 C 70.63 302.46 70.03 302.59 69.44 302.77 L 69.27 304.37 C 67.92 300.21 68.86 295.75 68.64 291.45 L 67.30 291.52 C 67.47 291.20 67.79 290.58 67.95 290.26 C 69.67 286.89 68.44 283.02 67.78 279.53 C 66.54 274.58 67.24 269.45 66.74 264.43 C 65.24 260.61 65.70 256.37 64.41 252.48 C 63.18 250.43 65.03 247.82 63.56 246.06 C 64.90 243.57 64.20 240.66 64.32 237.97 C 64.04 237.36 63.48 236.14 63.20 235.53 C 62.78 235.52 61.96 235.52 61.55 235.51 C 61.36 227.98 61.84 220.43 61.32 212.91 L 60.43 212.64 L 59.83 212.18 C 59.62 211.85 59.19 211.20 58.98 210.87 L 58.67 210.36 C 58.77 201.34 58.75 192.31 58.70 183.29 C 58.20 183.30 57.20 183.32 56.70 183.33 C 56.46 175.35 56.68 167.36 56.60 159.38 C 56.10 159.38 55.10 159.38 54.60 159.37 C 54.43 153.58 54.33 147.77 54.62 141.98 C 55.90 147.51 54.05 153.13 55.18 158.65 C 55.92 158.68 56.66 158.71 57.41 158.74 C 56.64 150.15 55.27 141.61 55.15 132.98 C 55.00 127.95 54.20 122.98 53.63 117.99 C 52.94 112.34 53.67 106.59 52.60 100.98 C 51.76 96.68 51.40 92.31 51.33 87.94 C 50.17 91.82 50.07 95.88 50.05 99.89 L 49.72 101.26 C 49.26 92.64 49.71 84.00 49.52 75.38 C 49.02 75.41 48.03 75.48 47.54 75.51 C 47.38 67.83 47.32 60.15 47.49 52.47 L 46.35 52.38 L 46.65 50.31 C 47.24 46.16 46.91 41.83 45.40 37.90 L 44.64 37.04 C 44.18 32.72 45.61 28.03 43.75 23.98 C 44.46 17.48 43.28 10.96 43.49 4.45 M 209.50 20.49 C 209.06 35.41 209.40 50.35 209.30 65.27 C 202.56 65.89 195.80 65.50 189.06 65.59 C 163.55 65.51 138.04 65.71 112.54 65.52 C 111.96 66.82 110.99 68.04 110.83 69.49 C 112.18 84.07 113.57 98.65 114.81 113.24 C 116.84 126.75 117.88 140.39 118.49 154.03 C 120.21 169.67 121.13 185.37 122.82 201.01 C 123.38 205.87 123.04 210.86 124.64 215.56 C 152.51 216.21 180.40 215.38 208.28 215.98 C 208.84 233.80 208.18 251.65 208.60 269.48 C 206.75 269.76 204.86 269.72 203.06 269.21 C 194.49 267.21 185.98 264.95 177.47 262.73 C 176.26 262.22 174.64 262.14 173.91 260.92 C 172.88 254.08 173.26 247.04 171.74 240.29 C 158.79 239.56 145.89 241.33 132.94 241.14 C 130.51 240.86 127.08 241.97 127.25 244.94 C 127.81 260.67 130.06 276.29 131.02 292.00 C 130.88 294.43 132.66 296.52 135.00 297.02 C 152.43 301.80 169.99 306.06 187.50 310.52 C 194.54 312.40 201.72 313.77 208.61 316.19 C 208.32 329.95 208.49 343.71 208.54 357.47 C 211.39 357.71 214.28 357.63 217.07 356.89 C 226.79 354.67 236.38 351.88 246.22 350.17 C 254.54 347.78 263.16 346.72 271.49 344.37 C 277.67 342.63 284.07 341.89 290.26 340.16 C 296.72 338.36 303.45 337.73 309.83 335.61 C 315.70 334.17 321.82 333.59 327.48 331.33 C 327.68 331.08 328.08 330.57 328.28 330.32 C 329.32 321.91 329.52 313.44 330.52 305.04 C 330.84 295.65 332.75 286.37 332.74 276.96 C 335.10 258.09 335.69 239.08 338.21 220.22 C 339.61 201.46 341.65 182.76 342.84 163.99 C 345.08 144.02 346.47 123.99 348.61 104.02 C 348.36 98.31 349.36 92.68 349.73 87.00 C 351.39 74.04 351.90 60.98 353.55 48.02 C 353.62 39.97 354.62 31.97 355.65 24.00 C 355.81 22.87 355.69 21.77 355.30 20.69 C 353.55 20.28 351.75 20.30 349.98 20.30 C 303.15 20.51 256.32 20.12 209.50 20.49 M 47.71 64.86 C 48.25 68.15 46.11 72.75 49.23 75.02 C 49.18 71.56 49.10 68.10 49.15 64.64 C 48.79 64.69 48.07 64.80 47.71 64.86 M 58.57 171.93 C 58.26 175.39 58.14 178.87 58.15 182.34 C 58.46 182.11 59.08 181.66 59.39 181.43 C 59.77 178.26 59.62 174.97 58.57 171.93 M 356.02 189.48 C 356.69 192.76 357.05 196.10 356.74 199.46 C 357.09 199.37 357.80 199.20 358.15 199.12 C 358.18 196.06 358.15 193.00 358.22 189.94 C 357.67 189.82 356.57 189.60 356.02 189.48 M 60.59 200.69 C 60.51 204.12 58.70 208.28 60.67 211.29 C 61.14 211.49 62.08 211.90 62.54 212.10 C 61.37 208.39 62.38 204.14 60.59 200.69 M 354.91 214.11 C 354.57 218.03 355.82 222.40 353.42 225.84 C 354.56 225.27 355.69 224.63 356.57 223.68 C 356.40 221.67 356.34 219.67 356.31 217.66 L 355.23 217.92 C 355.12 216.64 355.03 215.38 354.91 214.11 M 353.49 241.86 C 350.61 245.18 351.74 249.76 351.40 253.76 C 352.04 253.81 353.32 253.93 353.96 253.99 C 353.98 249.94 353.97 245.88 353.49 241.86 M 72.59 331.86 C 72.22 335.50 72.18 339.16 72.07 342.81 C 72.45 342.81 73.21 342.81 73.60 342.81 C 73.45 339.16 73.91 335.36 72.59 331.86 M 81.18 345.49 C 81.01 346.64 82.14 347.37 82.71 348.23 C 84.76 347.65 87.31 347.30 88.84 349.16 C 90.68 351.25 93.62 349.99 96.01 350.02 C 94.10 349.84 92.18 349.72 90.27 349.59 C 88.63 346.00 84.44 346.24 81.18 345.49 Z" />
<path fill="#fe3336" opacity="1.00" d=" M 160.41 109.30 C 176.20 109.19 191.99 109.22 207.78 109.27 C 208.24 109.42 209.15 109.71 209.61 109.86 C 209.07 111.17 208.39 112.49 208.45 113.95 C 208.42 133.34 208.64 152.73 208.33 172.12 C 194.19 172.42 180.04 172.34 165.90 172.16 C 165.70 160.68 164.01 149.31 163.08 137.87 C 162.54 128.31 160.97 118.86 160.41 109.30 Z" />
</g>
<g id="#ffffffff">
<path fill="#ffffff" opacity="1.00" d=" M 434.78 18.51 C 464.28 18.49 493.79 18.50 523.29 18.51 C 523.28 60.33 523.30 102.16 523.28 143.99 C 566.84 144.02 610.40 143.99 653.97 144.00 C 654.00 102.16 653.88 60.32 654.03 18.48 C 683.51 18.52 712.99 18.48 742.47 18.50 C 742.46 132.92 742.47 247.34 742.46 361.75 C 712.97 361.75 683.48 361.75 653.98 361.75 C 653.94 311.34 653.97 260.92 653.97 210.50 C 610.41 210.50 566.86 210.51 523.30 210.50 C 523.27 260.91 523.30 311.33 523.29 361.75 C 493.79 361.75 464.29 361.75 434.79 361.75 C 434.78 247.34 434.80 132.93 434.78 18.51 Z" />
<path fill="#ffffff" opacity="1.00" d=" M 795.70 18.51 C 896.65 18.49 997.59 18.50 1098.54 18.50 C 1098.54 40.58 1098.54 62.67 1098.54 84.75 C 1062.83 84.75 1027.11 84.76 991.40 84.74 C 991.34 177.08 991.39 269.42 991.37 361.75 C 961.87 361.75 932.37 361.75 902.87 361.75 C 902.87 269.42 902.87 177.09 902.87 84.75 C 867.15 84.75 831.43 84.75 795.71 84.75 C 795.69 62.67 795.71 40.59 795.70 18.51 Z" />
<path fill="#ffffff" opacity="1.00" d=" M 1151.77 18.51 C 1186.04 18.48 1220.30 18.51 1254.56 18.50 C 1280.30 75.80 1306.00 133.11 1331.74 190.42 C 1357.50 133.17 1383.08 75.83 1408.71 18.53 C 1442.99 18.46 1477.26 18.52 1511.54 18.50 C 1511.54 132.91 1511.54 247.33 1511.54 361.75 C 1482.19 361.76 1452.85 361.75 1423.50 361.75 C 1423.48 285.16 1423.54 208.57 1423.47 131.98 C 1402.16 181.60 1381.11 231.34 1359.89 281.00 C 1339.54 281.01 1319.19 280.98 1298.84 281.02 C 1277.58 231.29 1256.48 181.50 1235.18 131.80 C 1235.24 208.45 1235.19 285.10 1235.20 361.75 C 1207.39 361.75 1179.59 361.75 1151.78 361.75 C 1151.77 247.34 1151.79 132.93 1151.77 18.51 Z" />
<path fill="#ffffff" opacity="1.00" d=" M 1599.11 18.50 C 1628.61 18.49 1658.11 18.50 1687.61 18.49 C 1687.63 110.74 1687.61 203.00 1687.62 295.25 C 1740.63 295.25 1793.63 295.25 1846.64 295.25 C 1846.64 317.42 1846.64 339.58 1846.64 361.75 C 1764.13 361.75 1681.63 361.75 1599.12 361.75 C 1599.11 247.34 1599.12 132.92 1599.11 18.50 Z" />
<path fill="#ffffff" opacity="1.00" d=" M 47.71 64.86 C 48.07 64.80 48.79 64.69 49.15 64.64 C 49.10 68.10 49.18 71.56 49.23 75.02 C 46.11 72.75 48.25 68.15 47.71 64.86 Z" />
<path fill="#ffffff" opacity="1.00" d=" M 195.93 69.14 C 200.66 69.40 205.30 68.23 210.02 68.25 C 241.94 68.25 273.87 68.25 305.79 68.25 C 306.13 76.61 304.85 84.86 304.14 93.15 C 302.89 97.87 304.72 102.78 303.35 107.48 C 299.89 107.69 296.42 107.81 292.96 107.76 C 266.29 107.72 239.62 107.78 212.95 107.73 C 211.06 107.53 209.44 108.59 207.78 109.27 C 191.99 109.22 176.20 109.19 160.41 109.30 L 159.16 109.32 C 159.58 117.55 159.39 125.88 161.14 133.97 C 161.15 139.35 162.56 144.68 161.87 150.04 C 161.25 156.67 162.48 163.25 163.40 169.78 C 163.70 171.34 163.97 173.41 165.71 174.03 C 170.59 175.82 175.89 174.93 180.97 175.11 C 190.44 174.89 199.97 175.75 209.37 174.28 C 238.49 174.16 267.61 174.23 296.74 174.27 C 297.21 181.47 295.52 188.51 295.56 195.69 C 294.71 200.09 294.67 204.59 293.88 209.00 C 293.18 212.69 294.29 216.37 294.31 220.07 C 293.40 227.69 292.28 235.32 292.18 243.01 C 289.93 260.03 289.13 277.16 287.31 294.22 C 285.58 297.97 281.37 298.45 277.76 298.94 C 255.46 303.98 233.20 309.20 210.91 314.29 C 206.49 314.30 202.43 311.93 198.14 311.02 C 176.87 305.62 155.56 300.39 134.37 294.68 C 133.62 290.52 132.33 286.43 132.64 282.15 C 131.21 276.39 131.60 270.45 130.54 264.64 C 130.08 257.46 130.13 250.27 130.16 243.08 C 133.74 242.24 137.33 243.30 140.93 243.30 C 150.56 243.27 160.19 243.04 169.81 243.22 C 169.38 248.50 170.72 253.68 170.95 258.94 C 171.08 261.19 172.12 263.63 174.34 264.53 C 180.97 266.89 188.10 267.16 194.80 269.26 C 199.89 270.11 204.86 272.56 210.12 271.57 C 221.83 268.67 233.48 265.29 245.42 263.42 C 247.33 252.25 247.46 240.90 248.67 229.65 C 248.20 224.93 250.41 220.32 249.39 215.65 C 235.56 214.33 221.49 216.43 207.69 214.41 C 201.44 214.08 195.19 214.03 188.95 213.81 C 184.65 214.56 180.33 213.04 176.05 213.99 C 172.02 214.97 167.98 213.23 163.95 214.07 C 159.65 214.96 155.34 213.20 151.04 214.13 C 147.71 214.76 144.40 213.92 141.08 213.90 C 136.21 214.44 131.36 213.29 126.48 213.69 C 124.07 207.97 125.70 201.77 123.95 195.93 C 124.92 190.57 122.68 185.48 123.03 180.13 C 121.24 172.82 121.82 165.26 120.63 157.86 C 119.32 150.27 120.73 142.62 120.01 134.98 C 118.42 128.11 118.21 121.01 118.05 113.98 C 117.76 110.59 116.36 107.27 117.00 103.84 C 117.61 100.31 115.09 97.09 115.80 93.55 C 116.14 91.06 115.22 88.69 114.88 86.27 C 114.63 80.55 113.94 74.86 114.14 69.13 C 141.40 69.10 168.66 69.09 195.93 69.14 Z" />
<path fill="#ffffff" opacity="1.00" d=" M 356.02 189.48 C 356.57 189.60 357.67 189.82 358.22 189.94 C 358.15 193.00 358.18 196.06 358.15 199.12 C 357.80 199.20 357.09 199.37 356.74 199.46 C 357.05 196.10 356.69 192.76 356.02 189.48 Z" />
<path fill="#ffffff" opacity="1.00" d=" M 354.91 214.11 C 355.03 215.38 355.12 216.64 355.23 217.92 L 356.31 217.66 C 356.34 219.67 356.40 221.67 356.57 223.68 C 355.69 224.63 354.56 225.27 353.42 225.84 C 355.82 222.40 354.57 218.03 354.91 214.11 Z" />
<path fill="#ffffff" opacity="1.00" d=" M 81.18 345.49 C 84.44 346.24 88.63 346.00 90.27 349.59 C 92.18 349.72 94.10 349.84 96.01 350.02 C 93.62 349.99 90.68 351.25 88.84 349.16 C 87.31 347.30 84.76 347.65 82.71 348.23 C 82.14 347.37 81.01 346.64 81.18 345.49 Z" />
</g>
</svg>
