<?xml version="1.0" encoding="UTF-8" ?>
<!DOCTYPE svg PUBLIC "-//W3C//DTD SVG 1.1//EN" "http://www.w3.org/Graphics/SVG/1.1/DTD/svg11.dtd">
<svg width="1203pt" height="709pt" viewBox="0 0 1203 709" version="1.1" xmlns="http://www.w3.org/2000/svg">
<g id="#da251cff">
<path fill="#da251c" opacity="1.00" d=" M 64.82 153.90 C 72.19 147.54 81.62 144.19 91.05 142.36 C 100.33 142.40 110.14 141.18 118.69 145.65 C 124.48 149.00 131.36 150.89 135.65 156.35 C 144.21 163.85 150.31 174.04 152.76 185.17 C 152.38 191.20 154.40 197.35 152.65 203.34 C 152.47 205.12 153.10 206.91 152.79 208.70 C 150.89 215.55 148.86 222.56 144.04 228.00 C 140.62 232.58 136.74 236.82 132.21 240.32 C 130.38 241.85 128.40 243.15 126.44 244.49 C 122.10 247.74 116.61 248.57 111.67 250.49 C 104.77 250.40 97.87 250.51 90.97 250.37 C 81.09 250.50 72.01 245.49 64.46 239.53 C 60.13 234.90 54.92 230.98 51.72 225.40 C 48.43 220.55 46.49 214.95 45.27 209.25 C 43.68 205.00 44.52 200.42 44.34 196.00 C 43.68 185.89 47.38 175.97 52.43 167.35 C 56.19 162.56 59.42 157.09 64.82 153.90 Z" />
<path fill="#da251c" opacity="1.00" d=" M 835.24 423.26 C 835.80 423.79 835.80 423.79 835.24 423.26 Z" />
</g>
<g id="#68b92eff">
<path fill="#68b92e" opacity="1.00" d=" M 163.39 147.47 C 164.77 146.62 166.40 146.66 167.96 146.64 C 189.99 146.69 212.02 146.67 234.05 146.66 C 238.71 146.95 243.70 148.42 246.53 152.42 C 249.36 156.65 249.62 162.04 249.39 167.01 C 249.32 188.00 249.47 209.01 249.33 230.00 C 248.24 235.32 243.73 239.77 238.64 241.48 C 214.42 241.68 190.18 241.44 165.95 241.60 C 160.60 241.91 155.93 237.57 154.46 232.65 C 153.81 224.13 155.56 215.38 153.31 207.04 C 153.70 200.71 153.98 194.33 153.26 188.02 C 152.69 185.59 154.28 183.41 154.35 181.03 C 154.58 172.48 154.23 163.91 154.43 155.36 C 156.87 152.23 159.76 149.19 163.39 147.47 Z" />
<path fill="#68b92e" opacity="1.00" d=" M 269.37 147.34 C 272.08 146.14 275.13 146.82 278.00 146.65 C 298.68 146.68 319.36 146.67 340.04 146.65 C 345.60 146.47 349.51 151.16 352.84 154.97 C 353.62 158.60 355.04 162.17 354.83 165.95 C 354.73 185.62 354.87 205.30 354.76 224.97 C 353.56 230.02 353.16 236.22 348.46 239.44 C 346.76 240.40 345.03 241.68 342.98 241.57 C 318.42 241.49 293.85 241.62 269.29 241.51 C 262.83 239.95 258.24 233.67 258.32 227.07 C 258.36 205.04 258.35 183.02 258.32 160.99 C 258.14 158.05 260.05 155.61 261.20 153.05 C 262.63 149.77 266.48 148.91 269.37 147.34 Z" />
<path fill="#68b92e" opacity="1.00" d=" M 56.69 252.74 C 60.74 251.82 64.75 250.27 68.97 250.52 C 73.99 250.62 79.13 250.05 84.00 251.59 C 89.75 249.50 96.01 251.20 101.98 250.64 C 105.98 250.87 110.36 249.82 113.92 252.14 C 121.06 248.91 129.15 250.74 136.31 252.93 C 140.81 254.45 144.18 259.19 143.71 263.97 C 143.60 287.96 143.72 311.94 143.65 335.93 C 142.59 340.50 138.87 344.77 134.23 345.96 C 130.98 347.31 127.41 346.75 124.00 346.84 C 103.98 346.84 83.96 346.80 63.94 346.87 C 59.90 347.28 56.45 344.74 53.09 342.90 C 51.01 339.27 48.33 335.45 48.66 331.06 C 48.71 309.36 48.71 287.66 48.67 265.96 C 48.23 260.31 52.79 256.10 56.69 252.74 Z" />
<path fill="#68b92e" opacity="1.00" d=" M 168.36 251.20 C 169.85 250.71 171.40 250.51 172.96 250.53 C 191.99 250.55 211.02 250.57 230.05 250.52 C 233.93 250.43 237.61 251.90 241.36 252.70 C 245.05 255.88 249.38 259.70 249.39 264.98 C 249.38 285.98 249.36 306.99 249.40 327.99 C 249.36 331.10 249.80 334.43 248.14 337.24 C 246.83 339.69 246.09 342.98 243.17 344.02 C 240.56 345.19 238.06 347.14 235.04 346.86 C 212.70 346.79 190.36 346.85 168.02 346.83 C 161.71 346.71 155.85 342.00 154.42 335.89 C 154.35 311.91 154.48 287.92 154.36 263.93 C 153.95 259.47 156.90 254.96 161.01 253.27 C 163.33 252.16 165.94 251.97 168.36 251.20 Z" />
<path fill="#68b92e" opacity="1.00" d=" M 48.71 367.98 C 49.46 362.54 53.98 357.79 59.17 356.20 C 83.44 356.04 107.73 356.21 132.00 356.12 C 137.20 356.25 140.21 361.19 143.74 364.31 C 143.58 389.84 143.70 415.37 143.68 440.89 C 143.55 443.37 141.35 445.09 140.01 447.01 C 137.88 448.53 135.90 451.03 133.01 450.72 C 108.41 450.56 83.79 450.80 59.20 450.60 C 54.15 448.80 49.66 444.41 48.73 439.03 C 48.65 415.35 48.69 391.66 48.71 367.98 Z" />
<path fill="#68b92e" opacity="1.00" d=" M 154.33 364.34 C 157.72 361.39 160.50 357.02 165.19 356.17 C 188.47 356.09 211.75 356.19 235.03 356.12 C 240.07 356.13 245.34 358.59 247.56 363.29 C 248.46 366.11 249.62 368.94 249.41 371.96 C 249.32 394.32 249.44 416.68 249.35 439.03 C 248.42 444.40 244.00 449.04 238.81 450.60 C 213.90 450.77 188.98 450.61 164.07 450.68 C 159.27 449.98 155.09 445.82 154.39 441.03 C 154.37 415.47 154.49 389.90 154.33 364.34 Z" />
<path fill="#68b92e" opacity="1.00" d=" M 269.38 356.49 C 270.86 356.06 272.42 356.13 273.96 356.11 C 296.62 356.19 319.28 356.11 341.95 356.14 C 346.63 356.65 349.88 360.74 352.76 364.08 C 353.62 367.66 355.02 371.20 354.83 374.95 C 354.69 394.92 354.95 414.91 354.70 434.87 C 353.41 439.44 353.12 444.93 349.09 448.10 C 347.31 449.38 345.31 450.79 343.02 450.70 C 318.37 450.61 293.72 450.74 269.08 450.63 C 262.68 449.04 258.18 442.60 258.31 436.07 C 258.43 413.41 258.21 390.74 258.42 368.09 C 260.29 362.97 263.22 357.04 269.38 356.49 Z" />
<path fill="#68b92e" opacity="1.00" d=" M 62.41 460.46 C 65.18 459.50 68.12 459.65 71.00 459.67 C 89.66 459.78 108.32 459.54 126.97 459.78 C 131.13 460.83 135.67 461.20 139.32 463.67 C 141.74 465.70 143.75 468.75 143.71 472.00 C 143.61 496.31 143.70 520.62 143.66 544.93 C 142.40 551.68 135.65 556.08 129.03 556.25 C 107.33 556.28 85.64 556.23 63.94 556.28 C 59.87 556.45 56.41 553.83 52.98 551.99 C 50.78 548.38 48.27 544.45 48.66 540.04 C 48.73 518.01 48.67 495.98 48.69 473.96 C 48.73 469.23 52.53 465.76 55.77 462.80 C 57.52 461.03 60.21 461.26 62.41 460.46 Z" />
<path fill="#68b92e" opacity="1.00" d=" M 166.40 460.47 C 169.13 459.35 172.12 459.72 175.00 459.67 C 193.01 459.70 211.02 459.71 229.03 459.66 C 233.23 459.40 237.21 460.94 241.25 461.83 C 245.20 465.12 249.80 469.33 249.41 474.95 C 249.36 496.99 249.38 519.04 249.40 541.08 C 249.51 545.14 246.95 548.64 245.04 552.04 C 241.67 554.01 238.11 556.45 234.05 556.28 C 212.35 556.22 190.66 556.29 168.97 556.25 C 162.32 556.08 155.74 551.52 154.40 544.85 C 154.40 520.28 154.41 495.71 154.40 471.14 C 155.16 465.10 160.98 461.76 166.40 460.47 Z" />
<path fill="#68b92e" opacity="1.00" d=" M 401.38 499.67 C 403.85 498.59 406.51 498.08 409.13 498.96 C 412.50 500.13 416.39 496.79 419.20 499.78 C 417.54 501.39 416.02 503.21 414.01 504.41 C 409.86 504.23 405.85 502.42 401.71 504.02 C 401.59 502.57 401.48 501.12 401.38 499.67 Z" />
<path fill="#68b92e" opacity="1.00" d=" M 434.45 506.70 C 436.84 505.68 439.23 507.37 441.55 507.90 C 446.37 509.38 447.10 515.04 448.27 519.20 C 448.13 527.62 449.84 536.80 445.41 544.44 C 440.96 547.98 434.26 548.81 429.32 545.83 C 425.52 544.27 425.07 539.50 424.27 535.98 C 424.71 528.10 422.78 519.76 426.25 512.35 C 427.54 508.90 431.16 507.53 434.45 506.70 M 434.45 513.29 C 432.29 514.27 432.21 516.92 431.98 518.94 C 431.57 524.90 431.49 530.91 432.14 536.85 C 432.27 538.96 433.46 540.88 435.28 541.97 C 437.24 542.35 439.26 540.68 439.60 538.78 C 440.71 531.03 440.85 523.11 439.53 515.38 C 439.32 513.09 436.22 512.52 434.45 513.29 Z" />
<path fill="#68b92e" opacity="1.00" d=" M 463.87 507.87 C 468.84 507.57 473.83 507.51 478.81 507.67 C 482.29 508.31 485.14 511.11 486.20 514.47 C 486.62 519.08 486.85 524.09 484.04 528.06 C 480.10 530.88 474.67 529.18 470.66 531.07 C 470.36 536.47 470.92 541.90 470.18 547.28 C 468.07 547.35 465.96 547.31 463.86 547.19 C 463.50 534.09 463.49 520.97 463.87 507.87 M 471.61 514.33 C 470.86 517.52 470.00 521.96 472.51 524.54 C 476.54 525.77 479.90 522.00 479.03 518.08 C 479.46 514.27 474.28 511.92 471.61 514.33 Z" />
<path fill="#68b92e" opacity="1.00" d=" M 516.26 507.20 C 517.74 507.25 519.23 507.29 520.72 507.34 C 521.42 508.86 522.56 510.30 522.48 512.08 C 522.55 521.32 522.40 530.57 522.53 539.82 C 523.48 540.79 524.44 541.76 525.39 542.76 C 527.62 541.53 529.66 539.91 531.13 537.81 C 531.66 527.76 531.09 517.66 531.41 507.60 C 533.49 507.61 535.58 507.61 537.67 507.59 C 537.85 518.36 537.74 529.15 537.75 539.92 C 537.93 542.53 535.23 543.95 533.72 545.69 C 531.60 548.39 527.90 547.32 524.94 547.52 C 522.31 547.69 520.04 546.22 517.68 545.34 C 516.48 541.87 514.82 538.50 514.21 534.88 C 514.08 527.25 514.18 519.61 514.17 511.99 C 513.94 510.09 515.37 508.70 516.26 507.20 Z" />
<path fill="#68b92e" opacity="1.00" d=" M 373.05 523.10 C 370.20 518.11 371.26 510.20 377.10 507.88 C 381.68 507.45 387.47 506.13 390.97 510.02 C 394.06 512.29 392.37 516.56 392.70 519.81 C 391.12 519.75 389.55 519.61 387.99 519.39 C 385.93 516.63 384.71 511.51 380.19 512.71 C 378.16 514.79 378.41 518.56 380.53 520.53 C 382.90 522.89 386.04 524.23 388.69 526.23 C 391.41 527.69 392.38 530.80 393.77 533.36 C 395.83 536.87 394.11 541.01 392.02 544.07 C 387.17 548.83 378.51 548.95 373.60 544.22 C 372.08 542.15 371.67 539.49 371.06 537.06 C 371.46 535.17 372.24 533.40 372.87 531.59 C 375.54 532.43 378.26 534.24 378.88 537.16 C 379.40 539.17 380.32 541.04 381.43 542.81 C 385.40 542.39 387.62 537.78 385.73 534.36 C 382.70 529.32 376.39 527.86 373.05 523.10 Z" />
<path fill="#68b92e" opacity="1.00" d=" M 403.84 510.23 C 405.24 506.94 409.17 507.50 412.06 507.65 C 415.26 510.53 416.06 515.23 417.10 519.26 C 417.52 528.81 423.54 537.83 421.24 547.48 C 415.66 548.46 414.09 541.52 413.35 537.32 C 410.00 536.63 406.52 536.61 403.60 538.65 C 403.18 541.13 404.14 544.20 402.15 546.14 C 400.91 548.05 398.42 547.27 396.53 547.60 C 396.40 543.75 395.95 539.74 397.67 536.15 C 399.09 527.41 401.30 518.74 403.84 510.23 M 406.14 531.21 C 407.98 531.38 409.83 531.37 411.68 531.18 C 411.48 526.67 411.01 522.05 409.10 517.92 C 407.16 522.07 406.15 526.63 406.14 531.21 Z" />
<path fill="#68b92e" opacity="1.00" d=" M 493.73 510.18 C 495.15 506.90 499.15 507.56 502.03 507.64 C 505.56 511.67 506.52 517.44 507.02 522.65 C 508.68 528.83 510.44 535.00 511.78 541.26 C 512.42 544.02 511.23 546.45 508.97 548.04 C 505.00 546.03 503.68 541.42 503.26 537.32 C 500.09 536.97 496.15 536.00 493.78 538.81 C 492.82 541.62 493.63 545.29 490.90 547.23 C 489.41 547.43 487.93 547.56 486.44 547.62 C 485.03 539.49 489.26 532.11 489.96 524.17 C 491.02 519.45 492.04 514.71 493.73 510.18 M 498.33 518.39 C 496.73 522.51 496.11 526.95 495.72 531.34 C 497.71 531.39 499.71 531.36 501.70 531.18 C 501.45 526.85 500.72 522.56 499.64 518.36 C 499.32 518.37 498.66 518.38 498.33 518.39 Z" />
<path fill="#68b92e" opacity="1.00" d=" M 543.53 507.60 C 545.60 507.62 547.69 507.66 549.78 507.73 C 550.10 518.66 549.27 529.63 550.35 540.53 C 554.82 540.49 559.29 540.48 563.76 540.54 C 563.93 543.09 563.63 545.63 561.77 547.54 C 555.58 547.05 548.86 548.88 543.36 545.16 C 543.46 532.64 543.15 520.11 543.53 507.60 Z" />
<path fill="#68b92e" opacity="1.00" d=" M 572.43 508.59 C 576.34 506.75 580.82 507.33 584.96 507.87 C 587.81 508.57 588.41 511.77 589.51 514.07 C 590.28 523.06 589.85 532.09 589.63 541.10 C 588.11 543.45 585.98 545.36 583.85 547.16 C 580.63 547.84 577.25 547.49 573.98 547.41 C 570.65 545.76 568.52 542.17 567.55 538.69 C 567.31 531.45 567.56 524.20 567.44 516.96 C 567.30 513.58 568.88 509.53 572.43 508.59 M 576.09 514.07 C 574.85 516.56 574.78 519.43 574.53 522.15 C 574.45 527.68 574.22 533.28 575.32 538.73 C 575.57 540.51 577.26 541.74 578.93 542.12 C 581.22 541.48 582.75 539.19 582.81 536.86 C 583.30 530.60 583.40 524.29 582.87 518.03 C 582.89 516.08 581.70 514.48 580.80 512.87 C 579.22 513.14 577.17 512.55 576.09 514.07 Z" />
</g>
<g id="#fbfcfbfa">
<path fill="#fbfcfb" opacity="0.98" d=" M 132.21 240.32 C 136.74 236.82 140.62 232.58 144.04 228.00 C 140.99 232.82 137.30 237.57 132.21 240.32 Z" />
<path fill="#fbfcfb" opacity="0.98" d=" M 427.68 390.58 C 430.62 390.25 433.70 390.44 436.02 388.21 C 438.67 390.19 441.86 390.56 445.09 390.48 C 444.82 393.12 443.43 395.39 442.29 397.72 C 440.03 397.70 437.95 396.97 436.05 395.80 C 434.54 396.61 432.99 397.35 431.37 397.87 C 431.34 399.10 431.31 400.34 431.29 401.58 C 434.68 403.17 438.08 404.76 441.39 406.53 C 444.32 408.93 447.01 412.70 446.66 416.63 C 445.20 420.18 443.19 423.93 439.37 425.36 C 436.32 427.56 432.46 426.53 428.97 426.75 C 426.44 427.01 424.44 425.15 422.15 424.42 C 422.28 422.86 422.06 421.23 422.61 419.75 C 423.63 418.85 424.73 418.06 425.83 417.27 C 426.84 418.06 427.89 418.79 428.99 419.47 C 431.75 419.28 435.32 420.53 437.12 417.71 C 438.92 415.55 435.79 413.90 434.58 412.44 C 433.52 410.91 431.56 411.53 430.00 411.33 C 427.53 408.65 424.93 406.09 422.27 403.60 C 422.26 401.17 422.14 398.73 422.32 396.31 C 423.78 394.14 425.80 392.39 427.68 390.58 Z" />
<path fill="#fbfcfb" opacity="0.98" d=" M 589.21 393.18 C 592.35 390.52 596.71 390.44 600.09 388.24 C 602.59 389.97 605.47 390.62 608.48 390.39 C 610.94 393.04 613.96 395.34 615.15 398.91 C 616.35 402.52 618.23 406.08 617.65 410.02 C 616.87 414.91 614.64 419.63 611.07 423.09 C 608.97 424.35 606.77 425.44 604.60 426.56 C 601.19 426.90 597.74 426.79 594.32 426.64 C 590.93 425.03 587.15 423.06 585.83 419.30 C 583.84 414.19 581.37 408.69 583.09 403.17 C 585.03 399.80 586.07 395.71 589.21 393.18 M 598.48 396.53 C 594.49 397.27 592.69 401.58 592.03 405.14 C 591.23 410.14 592.45 416.24 596.99 419.12 C 599.54 419.91 602.98 420.13 604.90 417.90 C 609.44 412.60 609.60 404.16 605.34 398.64 C 603.73 396.65 600.92 395.93 598.48 396.53 Z" />
<path fill="#fbfcfb" opacity="0.98" d=" M 372.28 390.31 C 375.24 390.28 378.22 390.28 381.19 390.41 C 381.32 402.48 381.29 414.56 381.21 426.63 C 378.41 426.78 375.59 426.83 372.84 426.25 C 371.98 422.89 372.26 419.41 372.24 415.99 C 372.26 407.43 372.19 398.87 372.28 390.31 Z" />
<path fill="#fbfcfb" opacity="0.98" d=" M 387.60 391.02 C 390.42 389.39 394.48 390.70 397.79 390.33 C 399.72 394.57 401.43 399.06 404.50 402.64 C 406.64 405.54 406.85 409.30 408.64 412.38 C 409.15 412.37 410.17 412.34 410.67 412.33 C 409.90 410.54 408.33 408.98 408.38 406.93 C 408.33 401.40 408.38 395.87 408.39 390.35 C 411.30 390.67 414.95 389.41 417.39 391.04 C 417.48 401.37 417.39 411.71 417.43 422.04 C 417.70 423.88 416.32 425.20 415.47 426.66 C 413.14 426.73 410.80 426.74 408.47 426.66 C 406.20 423.09 404.91 418.94 402.00 415.80 C 399.52 411.41 397.71 406.64 394.89 402.44 C 394.55 410.52 394.89 418.62 394.72 426.71 C 392.36 426.73 389.99 426.72 387.64 426.71 C 387.48 414.82 387.55 402.92 387.60 391.02 Z" />
<path fill="#fbfcfb" opacity="0.98" d=" M 448.23 390.34 C 457.56 390.31 466.89 390.20 476.21 390.41 C 476.34 392.81 476.31 395.24 475.54 397.55 C 472.32 397.86 468.50 396.64 465.66 398.11 C 465.52 407.64 465.68 417.18 465.60 426.71 C 463.20 426.73 460.81 426.72 458.43 426.68 C 458.35 417.14 458.48 407.59 458.37 398.06 C 455.44 396.71 451.72 397.82 448.50 397.54 C 447.73 395.19 447.54 392.73 448.23 390.34 Z" />
<path fill="#fbfcfb" opacity="0.98" d=" M 479.31 390.32 C 482.29 390.28 485.27 390.28 488.26 390.38 C 488.36 402.47 488.34 414.56 488.27 426.65 C 485.28 426.74 482.29 426.74 479.31 426.70 C 479.26 414.58 479.26 402.45 479.31 390.32 Z" />
<path fill="#fbfcfb" opacity="0.98" d=" M 491.30 390.33 C 500.63 390.30 509.96 390.25 519.29 390.36 C 519.35 392.71 519.34 395.05 519.32 397.40 C 515.83 397.52 512.34 397.47 508.85 397.51 C 508.59 407.24 508.85 416.99 508.71 426.72 C 506.30 426.74 503.90 426.72 501.50 426.65 C 501.48 416.93 501.50 407.22 501.49 397.50 C 498.10 397.48 494.72 397.48 491.35 397.48 C 491.29 395.09 491.28 392.71 491.30 390.33 Z" />
<path fill="#fbfcfb" opacity="0.98" d=" M 522.36 390.35 C 525.31 390.63 528.82 389.50 531.43 390.97 C 531.57 398.86 531.31 406.76 531.51 414.65 C 532.15 416.32 533.04 417.88 533.74 419.54 C 535.45 419.49 537.18 419.47 538.90 419.44 C 540.12 418.11 541.40 416.83 542.71 415.60 C 543.08 407.18 542.13 398.69 543.26 390.33 C 546.24 390.28 549.23 390.28 552.22 390.40 C 552.34 396.62 552.22 402.84 552.30 409.06 C 552.73 413.10 550.24 416.55 549.28 420.33 C 548.47 423.94 544.92 425.62 541.75 426.67 C 538.60 426.80 535.43 426.83 532.29 426.65 C 529.44 425.36 526.53 423.94 524.61 421.39 C 524.01 419.10 523.37 416.84 522.41 414.69 C 522.23 406.58 522.38 398.46 522.36 390.35 Z" />
<path fill="#fbfcfb" opacity="0.98" d=" M 555.26 390.33 C 564.59 390.32 573.92 390.22 583.25 390.38 C 583.30 392.72 583.29 395.05 583.29 397.39 C 579.77 397.52 576.26 397.48 572.76 397.50 C 572.63 407.23 572.77 416.97 572.68 426.71 C 569.33 426.85 565.65 427.34 563.56 424.12 C 563.64 415.23 563.65 406.34 563.55 397.45 C 560.80 397.48 558.05 397.49 555.31 397.49 C 555.24 395.10 555.23 392.71 555.26 390.33 Z" />
<path fill="#fbfcfb" opacity="0.98" d=" M 632.71 390.39 C 639.74 390.24 646.77 390.28 653.80 390.35 C 654.47 392.74 654.27 395.20 653.51 397.54 C 649.10 397.44 644.70 397.50 640.30 397.47 C 640.29 399.57 640.28 401.68 640.27 403.78 C 644.69 404.45 650.88 401.80 653.66 406.49 C 655.02 407.97 653.72 409.82 653.45 411.45 C 649.80 411.38 646.16 411.40 642.52 411.41 C 641.79 412.11 641.06 412.81 640.33 413.51 C 640.24 417.88 640.35 422.27 640.24 426.65 C 637.72 426.74 635.21 426.73 632.71 426.64 C 632.61 414.56 632.62 402.47 632.71 390.39 Z" />
<path fill="#fbfcfb" opacity="0.98" d=" M 658.68 390.37 C 666.31 390.29 673.96 390.20 681.60 390.42 C 681.56 392.76 681.54 395.11 681.48 397.46 C 676.90 397.51 672.33 397.46 667.76 397.50 C 667.71 399.57 667.69 401.65 667.69 403.73 C 672.27 403.82 676.85 403.75 681.43 403.80 C 681.50 405.46 681.55 407.14 681.57 408.82 C 680.64 409.66 679.74 410.52 678.85 411.40 C 675.14 411.41 671.44 411.40 667.73 411.42 C 667.68 414.10 667.68 416.79 667.75 419.48 C 672.33 419.48 676.92 419.46 681.51 419.51 C 681.15 421.80 682.44 424.83 680.93 426.68 C 674.68 426.78 668.44 426.75 662.20 426.70 C 660.37 426.93 659.66 425.02 658.72 423.88 C 658.50 412.72 658.60 401.54 658.68 390.37 Z" />
<path fill="#fbfcfb" opacity="0.98" d=" M 686.38 392.42 C 687.55 391.63 688.51 390.15 690.11 390.31 C 695.71 390.28 701.30 390.29 706.90 390.31 C 712.26 391.17 716.85 395.73 717.72 401.10 C 717.71 405.65 717.79 410.20 717.68 414.76 C 716.42 420.19 711.57 424.23 706.15 425.24 C 700.72 427.91 694.48 426.36 688.64 426.67 C 687.90 425.88 687.15 425.11 686.40 424.36 C 686.36 413.71 686.38 403.07 686.38 392.42 M 695.74 396.53 C 695.27 404.15 695.48 411.82 695.60 419.45 C 699.00 419.72 702.79 419.93 705.59 417.59 C 710.28 413.79 710.14 406.76 708.56 401.47 C 706.27 396.71 700.45 395.85 695.74 396.53 Z" />
<path fill="#fbfcfb" opacity="0.98" d=" M 723.26 390.42 C 730.68 390.19 738.12 390.24 745.54 390.44 C 745.50 392.77 745.48 395.10 745.43 397.44 C 740.85 397.51 736.28 397.48 731.72 397.48 C 731.66 399.56 731.65 401.66 731.65 403.75 C 735.65 403.85 739.69 403.50 743.66 404.21 C 743.36 406.52 744.48 409.48 742.97 411.36 C 739.21 411.51 735.45 411.36 731.70 411.40 C 731.64 414.10 731.64 416.80 731.72 419.50 C 736.29 419.47 740.87 419.45 745.45 419.52 C 745.07 421.79 746.41 424.88 744.84 426.65 C 738.14 426.82 731.43 426.75 724.74 426.65 C 724.00 425.76 723.27 424.89 722.53 424.03 C 722.58 412.99 722.50 401.95 722.56 390.92 L 723.26 390.42 Z" />
<path fill="#fbfcfb" opacity="0.98" d=" M 750.34 390.34 C 757.11 390.28 763.88 390.29 770.65 390.32 C 772.51 392.32 774.45 394.25 776.52 396.06 C 776.55 398.39 776.64 400.72 776.55 403.06 C 775.16 405.40 772.79 407.01 771.00 409.04 C 775.36 413.54 777.22 419.94 776.56 426.13 C 773.73 427.44 769.67 427.19 767.55 424.53 C 768.49 420.43 765.56 417.15 765.46 413.19 C 763.44 413.23 761.43 413.24 759.43 413.26 C 759.42 417.53 759.52 421.80 759.43 426.08 C 757.51 427.39 754.85 426.49 752.63 426.69 C 751.88 425.90 751.12 425.13 750.35 424.38 C 750.30 413.03 750.32 401.69 750.34 390.34 M 760.34 396.04 C 758.00 398.26 759.26 401.93 759.07 404.80 C 760.79 407.18 764.43 405.82 766.35 404.29 C 768.45 403.22 767.79 400.40 767.50 398.52 C 766.16 396.09 762.79 396.01 760.34 396.04 Z" />
<path fill="#fbfcfb" opacity="0.98" d=" M 790.60 390.28 C 793.96 390.31 797.32 390.27 800.69 390.38 C 802.75 393.82 803.93 397.84 804.41 401.82 C 805.99 408.00 809.28 413.84 809.74 420.27 C 811.05 422.17 811.56 424.33 811.35 426.63 C 808.98 426.71 806.63 426.74 804.28 426.72 C 802.09 423.73 799.84 420.44 800.33 416.55 C 797.10 416.52 793.89 416.53 790.68 416.49 C 791.06 420.20 788.08 423.02 788.45 426.73 C 785.48 426.73 782.52 426.74 779.56 426.66 C 779.39 421.14 782.69 416.27 783.97 411.00 C 785.37 403.91 787.82 396.98 790.60 390.28 M 791.71 410.26 C 793.98 410.48 796.28 410.51 798.58 410.45 C 797.76 406.40 797.08 402.15 794.95 398.54 C 793.70 402.40 793.08 406.43 791.71 410.26 Z" />
<path fill="#fbfcfb" opacity="0.98" d=" M 815.81 390.41 C 818.77 390.28 821.75 390.28 824.72 390.31 C 825.02 400.03 824.29 409.79 825.12 419.48 C 829.61 419.47 834.10 419.48 838.59 419.47 C 838.95 422.12 838.87 424.90 836.58 426.70 C 829.65 426.72 822.72 426.83 815.80 426.62 C 815.70 414.55 815.68 402.48 815.81 390.41 M 835.24 423.26 C 835.80 423.79 835.80 423.79 835.24 423.26 Z" />
<path fill="#fbfcfb" opacity="0.98" d=" M 852.34 390.33 C 858.80 390.33 865.27 390.21 871.73 390.35 C 874.69 391.54 877.50 393.10 880.33 394.59 C 881.84 396.09 882.51 398.20 883.53 400.05 C 883.74 405.05 883.60 410.07 883.61 415.08 C 881.91 417.29 880.37 419.60 879.02 422.04 C 876.03 424.53 872.01 424.92 868.60 426.57 C 863.94 426.95 859.24 426.66 854.56 426.68 C 853.82 425.91 853.09 425.16 852.35 424.42 C 852.28 413.06 852.30 401.69 852.34 390.33 M 861.45 396.47 C 860.50 403.98 861.23 411.61 861.04 419.17 C 864.76 420.03 869.15 419.82 871.99 416.95 C 875.90 412.86 876.41 405.99 873.92 401.08 C 871.59 396.51 865.99 395.98 861.45 396.47 Z" />
<path fill="#fbfcfb" opacity="0.98" d=" M 888.43 390.42 C 895.90 390.23 903.38 390.23 910.85 390.39 C 912.11 392.37 911.10 395.09 911.43 397.36 C 906.79 397.59 902.15 397.43 897.51 397.51 C 897.50 399.60 897.51 401.70 897.55 403.80 C 901.51 403.76 905.47 403.77 909.43 403.80 C 909.56 406.32 909.56 408.85 909.48 411.39 C 905.48 411.43 901.48 411.36 897.48 411.47 C 897.51 414.13 897.51 416.80 897.53 419.47 C 901.91 419.57 906.30 419.31 910.69 419.58 C 912.33 421.24 911.03 424.41 911.35 426.68 C 903.94 426.72 896.53 426.82 889.13 426.66 L 888.46 426.11 C 888.42 414.21 888.50 402.31 888.43 390.42 Z" />
<path fill="#fbfcfb" opacity="0.98" d=" M 707.22 447.08 C 708.32 443.18 713.62 439.99 717.44 442.51 C 719.07 444.17 721.55 445.55 721.68 448.13 C 720.46 449.78 718.39 449.39 716.62 449.59 C 716.13 448.33 715.65 447.07 715.20 445.82 C 713.90 447.11 712.59 448.38 711.26 449.63 C 709.57 449.45 706.50 449.72 707.22 447.08 Z" />
<path fill="#fbfcfb" opacity="0.98" d=" M 574.56 449.80 C 574.41 447.33 573.37 444.02 576.04 442.49 C 578.44 441.66 581.03 442.17 582.99 443.77 C 584.93 441.87 587.64 442.08 590.15 442.28 C 588.96 444.64 587.87 447.09 586.15 449.12 C 582.57 446.20 578.12 447.86 574.56 449.80 Z" />
<path fill="#fbfcfb" opacity="0.98" d=" M 372.31 451.08 L 372.96 450.51 C 380.01 450.48 387.06 450.50 394.12 450.51 C 395.45 452.54 394.48 455.37 394.74 457.73 C 390.26 457.78 385.79 457.72 381.33 457.78 C 381.27 459.98 381.25 462.18 381.24 464.38 C 385.26 464.48 389.28 464.37 393.30 464.51 C 393.30 466.85 393.30 469.19 393.31 471.53 C 389.30 471.67 385.29 471.58 381.29 471.65 C 381.26 474.34 381.25 477.04 381.26 479.75 C 385.72 479.75 390.18 479.67 394.65 479.82 C 394.76 482.31 394.76 484.81 394.69 487.31 C 387.23 487.44 379.77 487.40 372.32 487.33 C 372.20 475.25 372.18 463.16 372.31 451.08 Z" />
<path fill="#fbfcfb" opacity="0.98" d=" M 399.62 450.58 C 406.09 450.46 412.57 450.46 419.05 450.54 C 421.77 451.84 424.52 453.14 427.07 454.78 C 428.18 457.07 430.20 458.78 431.32 461.04 C 431.37 465.68 431.42 470.34 431.29 474.99 C 429.88 478.10 428.36 481.39 425.40 483.34 C 422.10 485.14 418.44 485.98 414.96 487.31 C 410.27 487.47 405.58 487.39 400.90 487.36 C 400.57 487.05 399.92 486.44 399.59 486.14 C 399.58 474.28 399.55 462.43 399.62 450.58 M 408.84 458.16 C 408.64 465.56 408.78 472.97 408.80 480.38 C 413.18 480.89 418.41 479.99 420.80 475.87 C 422.89 473.00 422.53 469.30 422.50 465.96 C 422.50 462.03 419.62 458.09 415.61 457.53 C 413.46 457.22 410.35 455.99 408.84 458.16 Z" />
<path fill="#fbfcfb" opacity="0.98" d=" M 435.72 471.06 C 436.09 464.20 434.99 457.20 436.45 450.44 C 439.22 450.50 441.98 450.49 444.75 450.57 C 444.80 457.74 444.77 464.91 444.76 472.08 C 444.47 474.91 446.33 477.24 447.32 479.75 C 449.67 479.73 452.03 479.73 454.40 479.77 C 455.00 477.76 456.59 476.05 456.61 473.89 C 456.66 466.12 456.55 458.35 456.65 450.57 C 459.61 450.48 462.58 450.48 465.55 450.52 C 465.65 458.68 465.65 466.84 465.58 474.99 C 464.72 477.97 462.92 480.66 461.56 483.46 C 457.78 487.93 451.46 487.78 446.12 487.23 C 442.98 485.74 439.45 484.13 437.90 480.80 C 437.23 477.53 435.30 474.51 435.72 471.06 Z" />
<path fill="#fbfcfb" opacity="0.98" d=" M 470.59 462.09 C 472.85 457.01 477.00 452.87 482.10 450.64 C 486.69 450.29 491.31 450.59 495.91 450.51 C 496.75 451.38 497.62 452.23 498.50 453.08 C 497.61 454.57 496.86 456.14 496.24 457.76 C 492.09 457.73 487.94 457.81 483.79 457.69 C 482.01 459.66 480.70 461.98 479.66 464.41 C 479.54 467.65 479.27 470.99 479.81 474.21 C 481.55 476.15 483.51 477.88 485.35 479.74 C 489.09 479.75 492.84 479.61 496.58 479.92 C 496.68 482.38 496.67 484.84 496.61 487.30 C 492.07 487.40 487.52 487.44 482.98 487.35 C 477.19 485.49 472.52 480.73 470.47 475.04 C 470.46 470.72 470.28 466.39 470.59 462.09 Z" />
<path fill="#fbfcfb" opacity="0.98" d=" M 506.77 463.14 C 508.11 458.93 510.18 454.91 510.67 450.48 C 514.54 450.52 518.42 450.51 522.31 450.48 C 522.71 454.63 524.54 458.44 525.90 462.34 C 526.64 468.50 529.22 474.29 531.29 480.13 C 531.32 482.64 531.82 485.07 532.99 487.32 C 530.34 487.39 527.68 487.39 525.03 487.37 C 524.15 486.45 523.25 485.55 522.34 484.67 C 522.34 482.65 522.34 480.63 522.34 478.62 C 518.47 478.55 514.61 478.56 510.74 478.60 C 511.17 481.87 509.36 484.54 508.16 487.40 C 505.96 487.38 503.77 487.36 501.58 487.33 C 501.30 484.31 501.23 481.25 503.09 478.69 C 502.96 473.19 506.80 468.61 506.77 463.14 M 512.86 470.93 C 515.00 471.51 517.21 471.59 519.38 471.03 C 518.99 466.80 517.60 462.77 516.46 458.71 C 514.24 462.42 513.80 466.80 512.86 470.93 Z" />
<path fill="#fbfcfb" opacity="0.98" d=" M 536.42 462.34 C 538.06 456.82 542.78 452.70 548.00 450.57 C 552.80 450.39 557.62 450.52 562.43 450.55 C 562.09 452.83 563.36 455.83 561.87 457.68 C 557.91 457.94 553.94 457.57 549.98 457.82 C 548.22 458.64 546.92 460.15 545.69 461.60 C 545.06 464.12 544.34 466.62 543.22 468.98 C 544.47 471.27 545.12 473.78 545.71 476.30 C 547.25 477.89 549.39 478.68 551.34 479.65 C 555.08 479.98 558.92 479.24 562.56 480.46 C 562.49 482.75 562.46 485.05 562.38 487.35 C 559.45 487.37 556.53 487.35 553.62 487.49 C 555.70 489.53 558.12 491.52 557.47 494.79 C 556.54 495.69 555.64 496.61 554.75 497.55 C 552.00 497.60 549.26 497.58 546.52 497.53 C 546.53 496.58 546.57 494.68 546.58 493.73 C 548.48 493.63 550.39 493.53 552.30 493.32 C 550.91 492.71 549.48 492.21 548.08 491.66 C 548.25 490.20 548.83 488.88 549.78 487.75 C 544.23 486.12 539.74 482.22 536.39 477.65 C 536.46 474.83 536.16 472.08 534.14 469.94 C 535.70 467.67 536.52 465.09 536.42 462.34 Z" />
<path fill="#fbfcfb" opacity="0.98" d=" M 570.81 466.11 C 572.98 460.97 574.08 455.45 576.60 450.45 C 580.65 450.84 585.55 449.16 588.38 453.02 C 588.39 454.60 588.33 456.21 588.53 457.80 C 591.06 464.13 592.85 470.75 595.24 477.14 C 595.24 480.48 597.27 483.37 596.86 486.77 C 594.04 486.88 591.22 486.87 588.41 486.88 C 588.00 483.98 586.71 481.37 585.88 478.61 C 582.83 478.56 579.79 478.59 576.75 478.54 C 575.64 481.41 574.26 484.23 574.27 487.39 C 571.34 487.37 568.41 487.38 565.49 487.34 C 565.32 485.11 565.34 482.83 566.58 480.89 C 568.06 475.98 570.46 471.27 570.81 466.11 M 580.55 459.66 C 579.65 463.42 578.34 467.09 577.73 470.92 C 580.02 471.00 582.31 471.01 584.61 470.92 C 582.88 467.30 583.63 462.50 580.55 459.66 Z" />
<path fill="#fbfcfb" opacity="0.98" d=" M 602.47 457.70 C 605.01 454.57 608.18 452.01 611.97 450.56 C 615.33 450.41 618.70 450.49 622.07 450.51 C 628.19 451.73 633.52 457.38 633.44 463.83 C 633.34 465.42 634.45 466.66 635.11 468.02 C 632.99 470.68 633.23 474.03 633.46 477.23 C 631.76 479.02 630.26 480.98 629.11 483.16 C 626.51 484.72 623.79 486.08 621.02 487.31 C 618.04 487.45 615.05 487.49 612.08 487.27 C 608.30 485.89 605.07 483.41 602.60 480.27 C 599.20 473.25 599.35 464.69 602.47 457.70 M 614.49 457.52 C 611.82 458.37 610.68 461.20 609.44 463.45 C 608.25 468.36 608.57 474.01 611.75 478.14 C 614.33 481.19 619.70 481.34 622.24 478.18 C 624.76 475.84 624.73 472.11 625.47 468.98 C 624.94 465.57 624.72 461.52 621.96 459.06 C 620.11 457.03 616.98 456.42 614.49 457.52 Z" />
<path fill="#fbfcfb" opacity="0.98" d=" M 657.54 459.59 C 660.88 456.04 664.25 452.27 668.97 450.56 C 673.77 450.40 678.58 450.50 683.38 450.57 C 683.39 452.95 683.41 455.33 683.35 457.72 C 679.22 457.83 675.09 457.63 670.97 457.81 C 666.33 459.67 665.72 464.84 664.33 469.00 C 665.20 471.42 666.03 473.86 666.67 476.37 C 668.18 477.98 670.36 478.69 672.31 479.65 C 676.03 479.99 679.88 479.20 683.49 480.51 C 683.41 482.74 683.46 484.99 683.22 487.23 C 678.52 487.48 673.78 487.48 669.08 487.26 C 666.37 485.92 663.63 484.63 661.03 483.11 C 659.96 481.18 658.62 479.44 657.43 477.61 C 657.01 475.41 657.03 473.05 655.84 471.09 C 654.92 469.55 655.15 467.58 656.11 466.13 C 657.31 464.16 657.05 461.76 657.54 459.59 Z" />
<path fill="#fbfcfb" opacity="0.98" d=" M 688.35 451.17 C 690.48 449.58 693.93 450.96 696.57 450.44 C 697.00 451.91 697.42 453.40 697.33 454.96 C 697.25 465.29 697.42 475.63 697.26 485.96 C 695.36 488.79 691.23 486.85 688.33 487.32 C 688.23 475.27 688.17 463.21 688.35 451.17 Z" />
<path fill="#fbfcfb" opacity="0.98" d=" M 703.62 450.56 C 710.59 450.43 717.57 450.56 724.54 450.48 C 724.67 452.89 724.68 455.30 724.68 457.72 C 720.21 457.79 715.74 457.73 711.28 457.77 C 711.22 459.98 711.21 462.18 711.22 464.40 C 715.68 464.47 720.15 464.41 724.62 464.44 C 724.66 466.82 724.67 469.21 724.64 471.60 C 720.18 471.64 715.72 471.59 711.26 471.63 C 711.21 474.34 711.21 477.04 711.22 479.76 C 716.35 479.96 721.60 479.11 726.62 480.44 C 726.56 482.74 726.52 485.05 726.43 487.36 C 718.88 487.30 711.31 487.57 703.77 487.24 C 703.37 475.02 703.66 462.78 703.62 450.56 Z" />
<path fill="#fbfcfb" opacity="0.98" d=" M 731.45 450.53 C 734.06 450.50 736.69 450.51 739.32 450.43 C 740.98 452.14 743.02 453.66 743.93 455.95 C 746.38 461.18 749.27 466.21 751.35 471.62 C 753.00 464.72 751.90 457.58 752.25 450.57 C 755.01 450.49 757.77 450.50 760.54 450.44 C 761.08 452.58 761.37 454.77 761.28 456.98 C 761.14 465.95 761.42 474.93 761.15 483.88 C 760.23 487.62 756.13 487.70 753.03 487.40 C 751.60 485.78 749.87 484.39 748.75 482.52 C 745.45 475.87 742.20 469.19 738.77 462.61 C 738.30 470.85 738.82 479.11 738.49 487.36 C 736.15 487.37 733.82 487.38 731.49 487.37 C 731.29 475.09 731.37 462.81 731.45 450.53 Z" />
<path fill="#fbfcfb" opacity="0.98" d=" M 765.71 460.18 C 769.57 456.68 772.74 452.14 777.95 450.54 C 782.49 450.39 787.02 450.61 791.56 450.44 C 792.45 452.74 792.36 455.22 792.29 457.65 C 788.18 457.87 784.06 457.64 779.96 457.79 C 777.51 458.87 775.27 461.12 774.83 463.87 C 774.44 466.04 772.47 468.10 773.54 470.39 C 774.65 472.49 774.93 474.90 775.92 477.06 C 777.65 478.02 779.45 478.89 781.29 479.66 C 784.49 479.92 787.71 479.54 790.92 479.82 C 793.17 481.33 792.91 485.55 791.09 487.34 C 786.72 487.41 782.34 487.45 777.98 487.32 C 775.23 486.06 772.53 484.67 769.95 483.12 C 768.73 480.31 765.45 478.37 765.66 475.09 C 765.92 472.21 763.06 469.62 764.67 466.75 C 765.94 464.77 765.65 462.41 765.71 460.18 Z" />
<path fill="#fbfcfb" opacity="0.98" d=" M 796.67 455.98 C 796.57 454.09 796.84 452.23 797.45 450.44 C 800.13 450.52 802.83 450.52 805.53 450.46 C 805.86 452.27 806.28 454.09 806.24 455.96 C 806.20 465.32 806.25 474.67 806.22 484.03 C 806.11 485.25 805.90 487.81 804.07 487.40 C 801.66 486.98 798.18 488.58 796.76 485.96 C 796.57 475.97 796.77 465.97 796.67 455.98 Z" />
<path fill="#fbfcfb" opacity="0.98" d=" M 818.60 455.60 C 819.39 454.00 819.43 452.21 819.67 450.49 C 823.57 450.51 827.48 450.52 831.40 450.46 C 831.98 456.04 835.49 460.89 835.58 466.55 C 837.37 471.00 838.75 475.60 840.35 480.12 C 840.32 482.66 841.04 485.04 842.12 487.32 C 839.49 487.39 836.86 487.39 834.24 487.37 C 833.34 486.51 832.44 485.67 831.54 484.85 C 831.49 482.75 831.47 480.65 831.42 478.55 C 827.53 478.60 823.65 478.54 819.77 478.62 C 820.20 481.87 818.62 484.62 817.23 487.41 C 814.48 487.37 811.74 487.40 809.00 487.31 C 810.65 483.19 812.36 478.98 812.68 474.52 C 815.54 468.46 815.95 461.72 818.60 455.60 M 821.95 470.85 C 824.14 470.98 826.33 471.01 828.53 471.01 C 828.06 466.90 826.54 463.01 825.74 458.97 C 823.60 462.58 823.18 466.89 821.95 470.85 Z" />
<path fill="#fbfcfb" opacity="0.98" d=" M 855.59 450.57 C 863.20 450.44 870.82 450.50 878.44 450.53 C 878.11 452.83 879.35 455.79 877.91 457.69 C 873.94 457.93 869.97 457.58 866.01 457.81 C 863.39 458.82 865.12 462.31 864.66 464.41 C 868.52 464.45 872.39 464.39 876.25 464.48 C 876.98 465.29 877.73 466.09 878.51 466.90 C 878.50 468.43 878.50 469.96 878.52 471.50 C 873.90 471.72 869.28 471.56 864.67 471.64 C 864.64 474.33 864.64 477.02 864.67 479.72 C 869.30 479.96 874.06 479.12 878.59 480.46 C 878.51 482.75 878.48 485.05 878.39 487.36 C 871.68 487.28 864.94 487.61 858.25 487.22 C 857.05 486.02 855.14 485.02 855.54 483.04 C 855.56 472.21 855.49 461.39 855.59 450.57 Z" />
<path fill="#fbfcfb" opacity="0.98" d=" M 890.32 457.72 C 890.30 455.30 890.31 452.89 890.46 450.48 C 899.12 450.55 907.79 450.44 916.47 450.54 C 916.52 452.74 916.61 454.94 916.57 457.15 C 914.02 458.97 909.88 456.23 907.75 458.98 C 907.60 468.42 907.84 477.86 907.64 487.31 C 904.74 486.83 900.61 488.81 898.74 486.00 C 898.56 476.60 898.79 467.18 898.63 457.78 C 895.85 457.75 893.08 457.76 890.32 457.72 Z" />
<path fill="#fbfcfb" opacity="0.98" d=" M 921.45 450.52 C 928.44 450.51 935.44 450.45 942.43 450.56 C 942.45 452.95 942.47 455.34 942.40 457.73 C 937.81 457.77 933.22 457.75 928.63 457.76 C 928.58 459.97 928.57 462.19 928.59 464.41 C 933.21 464.48 937.84 464.32 942.47 464.55 C 942.45 466.71 942.52 468.87 942.43 471.04 C 938.98 472.37 934.87 471.27 931.18 471.62 C 930.28 472.51 929.38 473.39 928.48 474.27 C 928.24 476.34 929.11 478.11 930.39 479.69 C 934.55 479.85 938.73 479.56 942.90 479.83 C 945.20 481.23 944.99 485.65 943.07 487.34 C 935.88 487.45 928.68 487.35 921.48 487.37 C 921.27 475.09 921.34 462.80 921.45 450.52 Z" />
<path fill="#fbfcfb" opacity="0.98" d=" M 947.37 462.28 C 949.27 456.85 953.77 452.74 959.02 450.57 C 964.07 450.40 969.14 450.51 974.21 450.52 C 977.32 452.20 973.15 455.20 973.11 457.72 C 968.34 458.01 963.07 456.66 959.04 459.94 C 955.08 463.58 956.34 469.56 956.56 474.38 C 958.41 476.18 960.03 478.41 962.30 479.68 C 965.56 479.89 968.84 479.60 972.11 479.75 C 973.52 481.25 974.20 483.26 975.31 484.98 C 974.22 485.77 973.18 486.62 972.05 487.33 C 967.73 487.38 963.40 487.56 959.11 487.22 C 953.83 485.17 949.39 481.02 947.39 475.68 C 947.20 471.22 947.24 466.74 947.37 462.28 Z" />
<path fill="#fbfcfb" opacity="0.98" d=" M 980.25 450.58 C 982.93 450.49 985.62 450.50 988.32 450.44 C 993.30 456.92 996.76 464.31 1000.41 471.59 C 1000.92 464.61 1000.47 457.59 1000.67 450.60 C 1002.94 450.51 1005.22 450.49 1007.52 450.43 C 1007.86 451.92 1008.31 453.41 1008.28 454.97 C 1008.28 464.00 1008.26 473.03 1008.29 482.07 C 1008.35 483.87 1007.93 485.64 1007.57 487.40 C 1004.94 487.37 1002.32 487.37 999.70 487.40 C 996.07 478.96 991.52 470.93 987.61 462.61 C 987.19 469.06 987.49 475.54 987.43 482.01 C 987.20 483.85 988.22 486.34 986.08 487.33 C 984.24 487.44 982.40 487.40 980.59 487.46 C 978.85 483.07 980.67 478.50 980.15 474.00 C 979.02 466.20 980.72 458.40 980.25 450.58 Z" />
<path fill="#fbfcfb" opacity="0.98" d=" M 1014.42 463.77 C 1014.31 457.32 1019.75 451.57 1025.93 450.50 C 1030.01 450.46 1034.10 450.56 1038.19 450.46 C 1040.53 452.93 1043.12 455.15 1045.33 457.75 C 1046.03 459.95 1046.66 462.18 1047.59 464.31 C 1047.66 468.81 1048.56 473.71 1045.71 477.60 C 1044.01 482.42 1039.94 486.19 1034.97 487.34 C 1030.60 487.12 1025.80 488.41 1021.91 485.90 C 1017.84 484.15 1015.53 480.00 1014.45 475.91 C 1013.97 473.55 1012.22 471.49 1012.61 469.00 C 1012.58 467.07 1014.41 465.68 1014.42 463.77 M 1029.33 457.11 C 1027.63 457.61 1025.66 458.12 1024.81 459.85 C 1021.86 463.97 1021.54 469.46 1022.96 474.21 C 1024.09 477.54 1027.06 481.09 1030.96 480.43 C 1033.59 480.68 1035.33 478.49 1036.78 476.64 C 1039.41 471.62 1039.01 465.46 1036.69 460.41 C 1035.04 458.17 1032.14 456.52 1029.33 457.11 Z" />
<path fill="#fbfcfb" opacity="0.98" d=" M 1052.57 450.55 C 1054.90 450.51 1057.23 450.49 1059.58 450.46 C 1059.97 458.96 1059.58 467.47 1059.78 475.98 C 1059.78 477.38 1060.88 478.44 1061.48 479.65 C 1066.24 480.39 1072.81 477.72 1075.66 482.99 C 1075.68 484.88 1073.86 485.97 1072.90 487.38 C 1066.14 487.37 1059.37 487.41 1052.62 487.35 C 1052.43 475.09 1052.52 462.82 1052.57 450.55 Z" />
<path fill="#fbfcfb" opacity="0.98" d=" M 1076.92 458.34 C 1079.57 454.95 1082.90 452.10 1086.96 450.56 C 1090.32 450.41 1093.68 450.49 1097.05 450.51 C 1103.19 451.72 1108.45 457.40 1108.42 463.84 C 1108.34 465.41 1109.40 466.65 1110.03 468.01 C 1107.98 470.70 1108.22 474.04 1108.45 477.23 C 1106.74 479.02 1105.24 480.96 1104.08 483.15 C 1101.49 484.71 1098.77 486.07 1096.02 487.31 C 1093.03 487.45 1090.04 487.48 1087.07 487.28 C 1083.28 485.90 1080.05 483.43 1077.58 480.28 C 1075.47 475.28 1073.67 469.71 1075.22 464.29 C 1076.01 462.37 1076.57 460.39 1076.92 458.34 M 1089.48 457.51 C 1082.98 460.89 1082.30 470.36 1085.59 476.29 C 1087.30 480.93 1094.16 482.00 1097.24 478.17 C 1099.21 476.34 1099.53 473.49 1099.97 470.99 C 1100.13 466.90 1100.05 462.13 1096.93 459.06 C 1095.11 457.02 1091.96 456.45 1089.48 457.51 Z" />
<path fill="#fbfcfb" opacity="0.98" d=" M 1117.51 455.48 C 1119.48 453.15 1122.22 451.78 1124.97 450.56 C 1129.99 450.38 1135.03 450.59 1140.08 450.47 C 1140.95 451.32 1141.84 452.16 1142.76 453.00 C 1141.81 454.52 1141.02 456.12 1140.37 457.78 C 1136.60 457.80 1132.81 457.61 1129.06 457.84 C 1126.85 458.90 1124.35 459.74 1122.59 461.47 C 1122.32 464.44 1120.15 466.97 1120.39 469.94 C 1122.44 473.07 1123.00 477.75 1126.98 479.05 C 1129.52 480.44 1132.59 479.45 1135.37 479.74 C 1135.40 477.69 1135.40 475.63 1135.46 473.59 C 1133.74 473.49 1132.02 473.43 1130.32 473.34 C 1130.30 470.98 1130.29 468.63 1130.33 466.29 C 1134.43 466.22 1138.54 466.23 1142.66 466.27 C 1142.68 472.57 1142.69 478.87 1142.65 485.16 C 1140.70 485.75 1138.89 486.67 1136.98 487.33 C 1132.99 487.42 1128.99 487.48 1125.01 487.29 C 1119.64 485.30 1115.17 481.05 1113.23 475.64 C 1111.56 468.83 1112.00 460.52 1117.51 455.48 Z" />
<path fill="#fbfcfb" opacity="0.98" d=" M 1149.43 450.52 C 1152.40 450.49 1155.37 450.48 1158.35 450.57 C 1158.41 462.05 1158.36 473.52 1158.37 484.99 C 1156.03 487.61 1152.73 487.68 1149.47 487.37 C 1149.25 475.09 1149.33 462.80 1149.43 450.52 Z" />
<path fill="#fbfcfb" opacity="0.98" d=" M 1168.56 460.46 C 1169.85 457.11 1170.84 453.65 1172.50 450.44 C 1175.67 450.52 1178.85 450.50 1182.04 450.52 C 1185.83 455.88 1185.69 462.77 1188.20 468.69 C 1189.77 474.89 1193.65 480.69 1192.65 487.30 C 1189.93 487.39 1187.22 487.37 1184.52 487.45 C 1183.92 484.31 1182.75 481.37 1181.35 478.52 C 1178.47 478.59 1175.60 478.59 1172.74 478.54 C 1171.45 481.34 1170.02 484.13 1170.29 487.33 C 1167.29 487.40 1164.29 487.39 1161.31 487.33 C 1160.97 484.95 1162.75 483.14 1163.07 480.90 C 1163.64 473.80 1168.08 467.57 1168.56 460.46 M 1176.25 460.36 C 1175.53 463.96 1174.23 467.40 1173.59 471.02 C 1175.90 471.58 1178.29 471.56 1180.65 471.18 C 1180.08 467.24 1178.36 463.60 1177.86 459.64 C 1177.46 459.82 1176.65 460.18 1176.25 460.36 Z" />
<path fill="#fbfcfb" opacity="0.98" d=" M 636.40 478.76 C 639.29 477.46 642.09 475.77 645.42 476.47 C 645.97 482.50 641.14 487.11 639.31 492.56 C 637.72 492.50 636.13 492.44 634.56 492.39 C 633.22 487.45 637.29 483.65 636.40 478.76 Z" />
</g>
</svg>
