<?xml version="1.0" encoding="UTF-8" ?>
<!DOCTYPE svg PUBLIC "-//W3C//DTD SVG 1.1//EN" "http://www.w3.org/Graphics/SVG/1.1/DTD/svg11.dtd">
<svg width="1331pt" height="435pt" viewBox="0 0 1331 435" version="1.1" xmlns="http://www.w3.org/2000/svg">
<g id="#da251cff">
<path fill="#da251c" opacity="1.00" d=" M 9.28 47.99 C 13.82 28.56 29.61 12.12 49.16 7.62 C 58.42 7.31 67.70 7.61 76.97 7.48 C 80.74 7.17 84.07 9.15 87.32 10.75 C 90.61 12.44 94.08 13.80 97.15 15.87 C 107.63 24.23 116.42 35.59 119.00 48.99 C 119.18 54.99 120.37 61.02 119.13 66.98 C 119.48 73.92 116.69 80.55 113.51 86.57 C 109.03 93.20 104.55 100.28 97.31 104.22 C 91.38 109.12 84.17 111.72 76.84 113.72 C 73.60 112.78 70.29 113.93 67.00 113.75 C 61.70 113.59 56.37 113.88 51.08 113.39 C 40.38 111.56 30.79 105.45 23.47 97.59 C 14.57 89.94 9.54 78.60 8.19 67.09 C 8.29 60.72 7.64 54.23 9.28 47.99 Z" />
</g>
<g id="#68b92eff">
<path fill="#68b92e" opacity="1.00" d=" M 120.63 18.92 C 124.21 14.61 128.82 9.78 134.91 10.17 C 156.27 10.21 177.62 10.26 198.98 10.16 C 203.65 10.08 208.68 10.60 212.49 13.58 C 216.57 16.66 217.64 22.14 217.78 26.97 C 217.62 48.94 217.86 70.92 217.64 92.88 C 216.53 99.49 210.01 105.63 203.04 104.77 C 179.36 104.82 155.69 104.78 132.01 104.80 C 126.78 105.06 122.32 100.75 120.77 96.04 C 119.89 88.10 121.68 79.98 119.91 72.12 C 119.19 69.48 119.83 66.77 120.00 64.12 C 120.43 59.73 119.83 55.35 119.50 50.99 C 119.25 48.59 120.58 46.39 120.58 44.01 C 120.76 35.65 120.53 27.28 120.63 18.92 Z" />
<path fill="#68b92e" opacity="1.00" d=" M 240.32 10.36 C 263.20 9.97 286.11 10.36 309.00 10.16 C 315.10 9.60 320.08 14.13 323.36 18.74 C 324.61 22.38 325.56 26.19 325.43 30.06 C 325.31 49.36 325.50 68.67 325.33 87.96 C 324.37 93.43 323.53 100.18 318.19 103.22 C 315.51 105.20 312.08 104.78 308.96 104.81 C 286.32 104.76 263.68 104.83 241.04 104.77 C 233.45 105.55 227.02 98.27 226.90 91.02 C 226.81 69.34 226.92 47.66 226.84 25.98 C 226.53 21.88 228.71 18.15 230.96 14.91 C 233.64 12.70 236.96 11.18 240.32 10.36 Z" />
<path fill="#68b92e" opacity="1.00" d=" M 21.23 115.99 C 30.12 112.96 39.69 113.42 48.86 114.60 C 52.55 114.10 56.26 113.48 60.00 113.96 C 65.30 114.57 70.59 113.59 75.90 113.86 C 77.15 114.36 78.41 114.83 79.67 115.31 C 86.77 112.29 94.71 113.96 101.82 116.06 C 106.48 117.39 110.09 121.96 109.75 126.89 C 109.68 149.92 109.70 172.95 109.72 195.99 C 110.46 203.48 103.16 209.67 96.05 209.77 C 73.02 209.82 49.98 209.80 26.95 209.78 C 22.39 209.36 17.33 207.07 15.27 202.73 C 13.75 200.06 12.53 197.11 12.69 193.98 C 12.72 173.66 12.75 153.33 12.70 133.01 C 12.73 129.72 12.25 126.14 14.13 123.24 C 15.96 120.38 18.36 117.80 21.23 115.99 Z" />
<path fill="#68b92e" opacity="1.00" d=" M 134.44 114.57 C 136.60 114.04 138.82 113.72 141.06 113.76 C 159.03 113.80 177.01 113.84 194.98 113.76 C 199.98 113.61 205.06 114.45 209.71 116.25 C 213.77 119.23 217.88 123.52 217.73 128.92 C 217.75 150.61 217.68 172.29 217.78 193.97 C 217.97 198.21 215.84 202.13 213.55 205.53 C 210.31 208.04 206.24 210.11 202.02 209.82 C 179.69 209.75 157.36 209.83 135.03 209.79 C 127.67 210.11 120.06 203.63 120.62 195.99 C 120.60 173.67 120.72 151.35 120.56 129.03 C 120.29 125.61 120.90 121.95 123.40 119.42 C 126.12 116.13 130.55 115.56 134.44 114.57 Z" />
<path fill="#68b92e" opacity="1.00" d=" M 12.71 234.04 C 11.95 227.24 17.34 220.36 23.99 219.30 C 48.69 219.22 73.39 219.29 98.09 219.27 C 103.24 219.33 106.21 224.25 109.75 227.26 C 109.70 251.83 109.67 276.41 109.74 300.99 C 110.43 306.83 105.02 311.73 99.94 313.41 C 75.64 313.31 51.33 313.53 27.03 313.37 C 20.10 314.01 13.41 307.77 12.78 300.99 C 12.67 278.67 12.76 256.35 12.71 234.04 Z" />
<path fill="#68b92e" opacity="1.00" d=" M 120.63 227.23 C 124.35 224.14 127.58 219.05 132.99 219.26 C 156.66 219.27 180.34 219.27 204.02 219.27 C 208.53 219.25 213.07 221.61 215.41 225.52 C 216.80 228.47 217.79 231.68 217.78 234.97 C 217.67 256.33 217.75 277.68 217.73 299.04 C 218.23 305.53 213.16 311.52 207.09 313.22 C 183.71 313.70 160.31 313.25 136.92 313.41 C 134.62 313.41 132.30 313.58 130.00 313.33 C 124.79 312.31 120.34 307.39 120.61 301.95 C 120.65 277.04 120.60 252.13 120.63 227.23 Z" />
<path fill="#68b92e" opacity="1.00" d=" M 238.38 219.43 C 262.57 219.04 286.79 219.40 311.00 219.25 C 316.22 218.84 320.21 223.16 323.09 226.96 C 324.54 230.43 325.45 234.20 325.42 237.97 C 325.35 257.33 325.44 276.68 325.37 296.04 C 324.99 299.95 323.98 303.85 322.38 307.45 C 320.36 311.11 316.23 313.76 311.98 313.48 C 287.33 313.22 262.67 313.53 238.02 313.31 C 231.54 312.09 226.74 305.50 226.86 298.99 C 226.93 276.60 226.74 254.20 226.96 231.82 C 228.18 226.19 232.13 220.03 238.38 219.43 Z" />
<path fill="#68b92e" opacity="1.00" d=" M 440.20 314.57 C 442.79 314.37 445.38 314.51 447.98 314.52 C 447.60 317.56 447.23 320.78 445.37 323.32 C 442.72 327.13 437.10 328.04 433.11 325.92 C 430.76 324.95 428.65 323.07 426.02 322.98 C 423.89 323.00 423.79 325.38 423.36 326.91 C 420.65 327.02 417.94 327.02 415.24 326.99 C 415.43 321.82 418.30 315.97 423.90 315.12 C 428.79 313.92 432.45 318.12 436.90 319.04 C 439.33 319.08 439.37 316.17 440.20 314.57 Z" />
<path fill="#68b92e" opacity="1.00" d=" M 30.40 322.49 C 49.15 322.24 67.93 322.33 86.68 322.39 C 92.21 322.23 97.75 323.20 102.91 325.17 C 107.23 326.77 110.16 331.39 109.75 335.99 C 109.63 359.66 109.78 383.32 109.66 406.98 C 108.82 414.31 100.96 418.76 94.10 418.79 C 72.41 418.82 50.71 418.78 29.02 418.80 C 24.57 418.93 20.46 416.61 16.97 414.08 C 14.62 410.87 12.63 407.06 12.69 402.98 C 12.72 381.30 12.75 359.62 12.71 337.95 C 12.24 332.28 16.75 327.94 20.90 324.83 C 23.91 323.58 27.21 323.09 30.40 322.49 Z" />
<path fill="#68b92e" opacity="1.00" d=" M 135.43 322.59 C 137.30 322.27 139.20 322.31 141.09 322.31 C 159.06 322.38 177.04 322.40 195.02 322.31 C 199.93 322.14 204.78 323.23 209.43 324.71 C 213.67 327.82 218.08 332.27 217.78 337.96 C 217.62 360.28 217.87 382.60 217.64 404.92 C 216.62 409.52 214.39 414.74 209.67 416.57 C 207.30 417.74 204.79 418.87 202.10 418.80 C 180.05 418.80 158.00 418.80 135.95 418.80 C 128.54 418.74 120.29 413.00 120.61 404.98 C 120.70 381.30 120.53 357.62 120.70 333.95 C 121.52 326.84 129.26 323.70 135.43 322.59 Z" />
<path fill="#68b92e" opacity="1.00" d=" M 362.47 337.29 C 373.51 329.41 388.41 331.41 400.52 335.53 C 400.52 339.75 400.54 343.97 400.53 348.18 C 397.16 347.37 394.55 344.85 391.24 343.86 C 385.43 341.87 378.51 340.80 372.91 343.90 C 369.87 345.52 370.32 350.45 373.71 351.33 C 381.39 354.10 390.20 353.97 397.09 358.83 C 404.37 363.75 404.32 375.35 398.34 381.29 C 392.37 387.45 383.25 388.81 375.05 388.50 C 368.53 388.48 362.22 386.65 356.13 384.46 C 355.77 379.91 355.95 375.34 355.94 370.79 C 358.75 371.36 360.75 373.57 363.27 374.78 C 369.53 377.95 376.92 379.56 383.83 377.73 C 385.61 377.13 387.69 376.06 388.04 374.01 C 388.83 371.21 386.24 368.95 383.79 368.31 C 376.24 366.10 367.72 365.91 361.33 360.79 C 354.13 354.98 354.76 342.43 362.47 337.29 Z" />
<path fill="#68b92e" opacity="1.00" d=" M 484.39 332.58 C 494.02 330.91 505.18 332.38 512.19 339.80 C 518.65 346.34 520.26 356.17 519.24 364.99 C 518.49 372.59 514.54 380.02 508.00 384.17 C 500.92 388.69 491.98 389.30 483.89 387.82 C 476.41 386.47 469.63 381.55 466.30 374.67 C 462.52 366.75 462.36 357.32 464.95 349.01 C 467.68 340.42 475.52 333.96 484.39 332.58 M 486.34 343.47 C 481.69 345.30 479.16 350.18 478.40 354.88 C 477.41 360.88 477.72 367.55 481.15 372.78 C 485.09 378.85 494.62 379.76 499.81 374.82 C 503.25 371.54 504.62 366.68 504.77 362.05 C 505.03 356.63 504.29 350.68 500.59 346.45 C 497.14 342.49 491.09 341.51 486.34 343.47 Z" />
<path fill="#68b92e" opacity="1.00" d=" M 783.44 332.61 C 793.06 330.90 804.22 332.30 811.30 339.64 C 817.64 345.97 819.42 355.47 818.58 364.10 C 818.02 371.53 814.56 378.90 808.45 383.35 C 801.47 388.47 792.22 389.32 783.90 387.96 C 776.58 386.82 769.79 382.38 766.19 375.86 C 761.85 368.02 761.60 358.40 763.91 349.90 C 766.40 340.98 774.32 334.09 783.44 332.61 M 786.20 343.23 C 781.13 344.90 778.35 350.12 777.60 355.11 C 776.72 361.22 776.99 368.03 780.72 373.22 C 784.92 379.07 794.45 379.63 799.42 374.47 C 803.14 370.68 804.10 365.12 804.10 360.00 C 804.04 355.19 803.05 350.04 799.75 346.35 C 796.44 342.63 790.80 341.62 786.20 343.23 Z" />
<path fill="#68b92e" opacity="1.00" d=" M 424.20 333.03 C 429.66 332.99 435.11 332.95 440.57 333.06 C 447.15 351.24 453.96 369.34 460.62 387.49 C 455.74 387.50 450.86 387.51 445.99 387.48 C 444.74 383.82 443.47 380.16 442.21 376.50 C 435.51 376.51 428.82 376.48 422.12 376.52 C 420.88 380.19 419.62 383.85 418.33 387.50 C 413.58 387.50 408.84 387.50 404.09 387.50 C 410.79 369.34 417.52 351.20 424.20 333.03 M 425.53 366.49 C 429.96 366.50 434.39 366.50 438.82 366.49 C 436.62 360.10 434.46 353.70 432.21 347.32 C 429.80 353.65 427.78 360.11 425.53 366.49 Z" />
<path fill="#68b92e" opacity="1.00" d=" M 551.86 333.02 C 560.22 333.00 568.59 332.98 576.96 333.02 C 583.60 333.10 591.10 335.23 594.73 341.25 C 599.26 349.32 596.70 360.92 588.62 365.78 C 582.03 370.53 573.58 369.40 565.96 369.50 C 565.86 375.50 565.93 381.50 565.91 387.50 C 561.23 387.50 556.54 387.51 551.86 387.49 C 551.85 369.33 551.86 351.18 551.86 333.02 M 565.91 343.52 C 565.91 348.67 565.91 353.82 565.91 358.97 C 569.90 358.95 574.08 359.35 577.91 357.97 C 583.14 356.15 584.06 347.62 579.10 344.95 C 575.02 342.90 570.30 343.62 565.91 343.52 Z" />
<path fill="#68b92e" opacity="1.00" d=" M 618.89 333.01 C 624.31 332.99 629.73 333.00 635.16 333.00 C 641.86 351.17 648.59 369.32 655.29 387.49 C 650.41 387.51 645.54 387.50 640.68 387.50 C 639.40 383.85 638.14 380.19 636.91 376.52 C 630.21 376.47 623.51 376.51 616.82 376.50 C 615.54 380.16 614.28 383.82 613.02 387.49 C 608.27 387.51 603.51 387.51 598.76 387.49 C 605.46 369.33 612.18 351.17 618.89 333.01 M 626.80 347.34 C 624.54 353.71 622.40 360.11 620.20 366.49 C 624.63 366.50 629.06 366.50 633.49 366.49 C 631.23 360.12 629.22 353.66 626.80 347.34 Z" />
<path fill="#68b92e" opacity="1.00" d=" M 660.29 333.01 C 665.04 333.00 669.79 332.98 674.55 333.03 C 674.52 344.36 674.52 355.69 674.54 367.01 C 674.55 370.68 675.42 375.13 679.08 376.88 C 682.67 378.49 687.09 378.45 690.62 376.66 C 693.99 374.80 694.71 370.56 694.71 367.04 C 694.72 355.69 694.70 344.35 694.71 333.00 C 699.44 333.00 704.18 333.00 708.91 333.00 C 708.87 345.02 708.98 357.04 708.87 369.05 C 708.79 374.92 706.26 380.98 701.27 384.31 C 695.42 388.29 688.00 388.80 681.14 388.42 C 674.65 388.00 667.67 385.77 663.79 380.20 C 660.38 375.56 660.16 369.56 660.28 364.03 C 660.30 353.69 660.30 343.35 660.29 333.01 Z" />
<path fill="#68b92e" opacity="1.00" d=" M 719.93 333.04 C 724.64 332.98 729.35 332.98 734.07 333.04 C 734.07 347.69 734.07 362.34 734.07 377.00 C 742.48 377.01 750.88 376.99 759.29 377.00 C 759.29 380.50 759.29 383.99 759.29 387.49 C 746.21 387.52 733.12 387.48 720.03 387.51 C 719.78 369.36 720.00 351.19 719.93 333.04 Z" />
</g>
<g id="#ffffffff">
<path fill="#ffffff" opacity="1.00" d=" M 353.81 49.52 C 364.60 49.52 375.39 49.41 386.17 49.57 C 386.11 52.88 386.12 56.18 386.13 59.48 C 383.15 59.51 380.17 59.50 377.19 59.50 C 377.18 71.00 377.19 82.50 377.18 94.00 C 380.16 94.00 383.15 93.99 386.13 94.04 C 386.12 97.35 386.12 100.65 386.14 103.96 C 375.36 104.04 364.59 104.00 353.81 103.98 C 353.81 100.66 353.81 97.34 353.81 94.02 C 356.79 93.99 359.77 94.00 362.75 94.00 C 362.74 82.50 362.75 71.00 362.74 59.50 C 359.76 59.50 356.79 59.51 353.82 59.49 C 353.81 56.16 353.81 52.84 353.81 49.52 Z" />
<path fill="#ffffff" opacity="1.00" d=" M 455.22 60.26 C 457.58 54.55 463.38 51.11 469.12 49.57 C 478.90 47.26 489.29 48.65 498.66 52.03 C 498.64 56.27 498.71 60.51 498.60 64.76 C 495.75 64.27 493.60 62.16 490.96 61.13 C 485.04 58.64 478.06 57.39 471.94 59.89 C 470.15 60.58 469.30 62.35 468.58 63.99 C 469.27 65.67 470.19 67.46 472.12 67.94 C 479.84 70.52 488.63 70.53 495.43 75.48 C 502.61 80.62 502.37 92.29 496.15 98.10 C 490.13 104.09 481.11 105.37 472.98 105.01 C 466.37 105.04 459.92 103.23 453.82 100.82 C 453.81 96.38 453.81 91.95 453.81 87.52 C 454.27 87.52 455.18 87.52 455.64 87.52 C 462.65 93.01 471.94 96.24 480.84 94.41 C 483.10 93.90 485.94 92.61 485.98 89.92 C 486.39 86.95 483.38 85.19 480.92 84.61 C 473.86 82.74 466.11 82.32 460.00 77.91 C 454.49 74.12 452.84 66.30 455.22 60.26 Z" />
<path fill="#ffffff" opacity="1.00" d=" M 502.63 49.50 C 518.80 49.52 534.97 49.45 551.14 49.54 C 551.12 53.01 551.12 56.48 551.14 59.96 C 545.39 60.05 539.66 59.98 533.92 60.00 C 533.92 74.67 533.91 89.33 533.92 104.00 C 529.15 104.00 524.39 104.00 519.63 104.00 C 519.63 89.33 519.62 74.67 519.64 60.01 C 513.97 59.99 508.30 60.00 502.63 60.00 C 502.63 56.50 502.63 53.00 502.63 49.50 Z" />
<path fill="#ffffff" opacity="1.00" d=" M 554.74 49.51 C 565.46 49.48 576.19 49.51 586.91 49.49 C 586.92 52.83 586.92 56.17 586.91 59.51 C 583.98 59.50 581.05 59.50 578.13 59.50 C 578.13 71.00 578.13 82.50 578.13 94.00 C 581.05 94.00 583.98 94.00 586.92 94.00 C 586.91 97.33 586.91 100.66 586.92 104.00 C 576.19 104.00 565.47 104.01 554.74 103.99 C 554.74 100.66 554.74 97.34 554.74 94.01 C 557.72 94.00 560.71 94.00 563.70 93.99 C 563.69 82.50 563.70 71.00 563.69 59.50 C 560.71 59.50 557.72 59.50 554.74 59.49 C 554.74 56.17 554.74 52.84 554.74 49.51 Z" />
<path fill="#ffffff" opacity="1.00" d=" M 590.63 49.50 C 606.80 49.51 622.96 49.46 639.13 49.53 C 639.12 53.00 639.12 56.48 639.14 59.95 C 633.39 60.05 627.66 59.98 621.92 60.00 C 621.92 74.67 621.91 89.33 621.92 104.00 C 617.15 104.00 612.39 104.00 607.63 104.00 C 607.63 89.33 607.63 74.67 607.64 60.00 C 601.96 59.99 596.30 60.00 590.63 60.00 C 590.63 56.50 590.63 53.00 590.63 49.50 Z" />
<path fill="#ffffff" opacity="1.00" d=" M 678.81 49.52 C 683.64 49.48 688.47 49.50 693.31 49.50 C 693.29 61.33 693.34 73.16 693.29 84.98 C 693.27 91.24 690.60 97.82 685.11 101.19 C 678.53 105.34 670.35 105.41 662.87 104.71 C 657.03 103.99 651.04 101.45 647.70 96.38 C 645.03 92.50 644.39 87.67 644.43 83.06 C 644.42 71.87 644.42 60.68 644.43 49.50 C 649.24 49.50 654.05 49.50 658.87 49.50 C 658.86 60.66 658.87 71.81 658.86 82.97 C 658.90 86.62 659.48 91.05 662.94 93.10 C 666.37 94.87 670.60 94.90 674.15 93.45 C 677.74 91.92 678.86 87.67 678.81 84.10 C 678.83 72.57 678.81 61.05 678.81 49.52 Z" />
<path fill="#ffffff" opacity="1.00" d=" M 698.74 49.51 C 714.91 49.49 731.08 49.49 747.26 49.51 C 747.25 53.00 747.25 56.49 747.26 59.99 C 741.56 60.01 735.87 59.99 730.18 60.00 C 730.19 74.66 730.18 89.32 730.19 103.98 C 725.37 104.01 720.55 104.00 715.74 103.99 C 715.75 89.33 715.74 74.67 715.75 60.00 C 710.08 59.99 704.41 60.01 698.74 59.99 C 698.74 56.49 698.74 53.00 698.74 49.51 Z" />
<path fill="#ffffff" opacity="1.00" d=" M 768.43 49.70 C 775.87 47.81 784.06 47.87 791.25 50.76 C 798.88 53.84 804.40 61.10 805.89 69.14 C 807.66 78.58 806.49 89.43 799.73 96.76 C 794.35 102.86 785.90 105.32 777.97 105.03 C 769.87 105.22 761.34 102.31 756.20 95.82 C 749.93 88.20 749.10 77.48 751.07 68.15 C 752.93 59.43 759.77 51.99 768.43 49.70 M 774.48 59.65 C 769.07 61.14 766.12 66.68 765.41 71.90 C 764.75 77.85 764.81 84.45 768.45 89.53 C 772.40 95.24 781.43 96.09 786.53 91.46 C 790.00 88.31 791.40 83.53 791.65 78.99 C 791.96 73.78 791.34 68.17 788.20 63.83 C 785.19 59.62 779.31 58.07 774.48 59.65 Z" />
<path fill="#ffffff" opacity="1.00" d=" M 838.74 49.51 C 851.87 49.51 865.00 49.46 878.14 49.53 C 878.12 53.01 878.12 56.48 878.14 59.96 C 869.81 60.04 861.48 59.99 853.16 59.98 C 852.87 63.32 852.88 66.67 853.16 70.01 C 860.87 69.99 868.59 70.00 876.31 70.00 C 876.30 73.50 876.30 77.00 876.31 80.50 C 868.58 80.51 860.85 80.50 853.13 80.50 C 853.13 88.32 853.12 96.14 853.14 103.95 C 848.33 104.04 843.54 104.00 838.74 103.99 C 838.74 85.83 838.75 67.67 838.74 49.51 Z" />
<path fill="#ffffff" opacity="1.00" d=" M 885.58 49.50 C 898.80 49.50 912.03 49.49 925.26 49.51 C 925.25 53.00 925.25 56.50 925.26 59.99 C 916.77 60.01 908.29 59.99 899.80 60.00 C 899.80 63.17 899.80 66.33 899.80 69.50 C 907.66 69.50 915.51 69.49 923.37 69.50 C 923.36 73.00 923.36 76.50 923.37 80.00 C 915.51 80.00 907.66 80.00 899.80 80.00 C 899.80 84.50 899.80 89.00 899.80 93.50 C 908.29 93.50 916.77 93.48 925.26 93.51 C 925.25 97.00 925.25 100.49 925.26 103.99 C 912.03 104.01 898.80 103.99 885.58 104.00 C 885.58 85.83 885.58 67.67 885.58 49.50 Z" />
<path fill="#ffffff" opacity="1.00" d=" M 1286.74 49.51 C 1299.97 49.49 1313.19 49.50 1326.42 49.50 C 1326.41 53.00 1326.41 56.50 1326.42 60.00 C 1317.99 60.00 1309.55 60.00 1301.13 60.00 C 1301.12 63.17 1301.12 66.33 1301.13 69.50 C 1308.97 69.50 1316.81 69.50 1324.66 69.50 C 1324.65 73.00 1324.65 76.49 1324.66 79.99 C 1316.81 80.01 1308.97 79.99 1301.13 80.00 C 1301.12 84.50 1301.12 89.00 1301.13 93.50 C 1309.55 93.50 1317.98 93.49 1326.42 93.50 C 1326.41 97.00 1326.41 100.50 1326.42 104.00 C 1313.19 103.99 1299.97 104.01 1286.74 103.99 C 1286.74 85.83 1286.75 67.67 1286.74 49.51 Z" />
<path fill="#ffffff" opacity="1.00" d=" M 395.34 103.99 C 395.35 85.83 395.33 67.66 395.35 49.50 C 401.04 49.50 406.73 49.51 412.42 49.49 C 418.87 59.73 425.52 69.85 431.82 80.18 C 431.93 69.96 431.84 59.74 431.87 49.52 C 436.31 49.48 440.74 49.49 445.18 49.51 C 445.19 67.67 445.18 85.82 445.19 103.98 C 440.54 104.00 435.90 104.04 431.25 103.95 C 423.75 91.59 415.98 79.38 408.55 66.98 C 408.61 79.32 408.56 91.66 408.57 104.00 C 404.16 104.00 399.75 104.00 395.34 103.99 Z" />
<path fill="#ffffff" opacity="1.00" d=" M 934.74 49.51 C 944.14 49.71 953.58 49.01 962.95 49.94 C 971.94 50.84 980.50 56.33 984.14 64.74 C 988.46 74.74 987.03 87.37 979.46 95.45 C 974.10 101.47 965.83 103.83 958.00 103.97 C 950.24 104.04 942.49 103.99 934.74 103.99 C 934.75 85.83 934.74 67.67 934.74 49.51 M 949.13 59.99 C 949.13 71.16 949.13 82.33 949.13 93.51 C 954.86 93.43 961.31 93.94 966.11 90.18 C 970.26 87.23 971.76 81.89 971.72 77.01 C 971.84 71.90 970.26 66.22 965.83 63.19 C 961.05 59.61 954.77 60.05 949.13 59.99 Z" />
<path fill="#ffffff" opacity="1.00" d=" M 995.08 49.50 C 1008.30 49.50 1021.52 49.49 1034.75 49.50 C 1034.74 53.00 1034.74 56.50 1034.75 59.99 C 1026.26 60.01 1017.78 59.99 1009.30 60.00 C 1009.30 63.17 1009.30 66.34 1009.31 69.50 C 1017.16 69.49 1025.01 69.51 1032.86 69.49 C 1032.86 72.99 1032.86 76.50 1032.87 80.00 C 1025.01 80.01 1017.15 79.99 1009.30 80.01 C 1009.31 84.50 1009.29 89.00 1009.31 93.50 C 1017.79 93.49 1026.26 93.50 1034.74 93.50 C 1034.74 97.00 1034.74 100.50 1034.75 104.00 C 1021.52 104.00 1008.30 104.00 995.08 104.00 C 995.08 85.83 995.08 67.67 995.08 49.50 Z" />
<path fill="#ffffff" opacity="1.00" d=" M 1044.25 103.99 C 1044.26 85.83 1044.24 67.66 1044.26 49.49 C 1053.52 49.53 1062.77 49.44 1072.03 49.54 C 1077.11 49.63 1082.47 51.08 1086.06 54.89 C 1090.03 58.80 1090.27 65.05 1088.88 70.14 C 1087.53 75.06 1083.25 78.41 1078.92 80.70 C 1084.40 87.82 1089.97 94.87 1095.46 101.98 C 1101.95 84.50 1108.39 66.99 1114.87 49.51 C 1120.36 49.49 1125.84 49.50 1131.34 49.50 C 1138.07 67.66 1144.77 85.83 1151.48 103.99 C 1146.54 104.01 1141.60 104.00 1136.66 104.00 C 1135.39 100.36 1134.10 96.72 1132.92 93.05 C 1126.27 92.94 1119.63 93.02 1112.99 93.00 C 1111.75 96.68 1110.48 100.34 1109.19 104.00 C 1099.25 103.94 1089.31 104.11 1079.38 103.91 C 1074.61 97.20 1069.58 90.69 1064.75 84.03 C 1062.68 84.00 1060.62 84.00 1058.57 83.99 C 1058.58 90.66 1058.56 97.32 1058.59 103.98 C 1053.80 104.01 1049.02 104.00 1044.25 103.99 M 1058.57 59.50 C 1058.57 64.34 1058.57 69.17 1058.57 74.01 C 1062.63 73.91 1066.92 74.33 1070.80 72.86 C 1075.88 70.90 1076.48 62.06 1070.97 60.33 C 1066.94 59.17 1062.70 59.57 1058.57 59.50 M 1122.92 63.97 C 1120.71 70.30 1118.59 76.67 1116.37 83.00 C 1120.73 83.00 1125.09 83.01 1129.46 82.99 C 1127.27 76.65 1125.10 70.31 1122.92 63.97 Z" />
<path fill="#ffffff" opacity="1.00" d=" M 1157.13 49.50 C 1161.87 49.50 1166.62 49.50 1171.37 49.50 C 1171.37 64.17 1171.36 78.83 1171.37 93.50 C 1179.80 93.49 1188.23 93.50 1196.66 93.50 C 1196.65 97.00 1196.65 100.49 1196.66 103.99 C 1183.48 104.01 1170.31 104.00 1157.13 104.00 C 1157.13 85.83 1157.13 67.67 1157.13 49.50 Z" />
<path fill="#ffffff" opacity="1.00" d=" M 1226.58 49.50 C 1236.05 49.74 1245.57 48.97 1255.00 49.99 C 1263.41 50.93 1271.43 55.82 1275.28 63.48 C 1280.38 73.59 1279.12 86.92 1271.29 95.32 C 1266.02 101.39 1257.78 103.78 1249.98 103.97 C 1242.18 104.05 1234.38 103.97 1226.58 104.00 C 1226.58 85.83 1226.58 67.67 1226.58 49.50 M 1240.80 59.99 C 1240.80 71.16 1240.80 82.33 1240.80 93.50 C 1246.43 93.41 1252.71 93.96 1257.52 90.43 C 1261.57 87.70 1263.37 82.69 1263.42 77.96 C 1263.73 72.57 1262.29 66.48 1257.62 63.23 C 1252.82 59.60 1246.48 60.04 1240.80 59.99 Z" />
<path fill="#ffffff" opacity="1.00" d=" M 946.96 139.48 C 950.90 134.65 954.78 129.77 958.76 124.98 C 961.90 125.01 965.04 125.00 968.19 124.99 C 972.17 129.78 976.01 134.68 979.99 139.47 C 976.64 139.51 973.30 139.51 969.96 139.49 C 967.76 136.85 965.54 134.22 963.36 131.57 C 961.19 134.22 959.00 136.84 956.82 139.47 C 953.53 139.52 950.24 139.51 946.96 139.48 Z" />
<path fill="#ffffff" opacity="1.00" d=" M 715.30 127.00 C 718.03 127.00 720.75 126.99 723.49 127.02 C 723.13 130.54 722.54 134.38 719.94 137.00 C 717.63 139.34 714.10 139.86 710.98 139.39 C 707.73 138.62 705.14 136.28 701.91 135.47 C 699.60 135.31 699.16 137.78 698.83 139.47 C 696.06 139.51 693.29 139.51 690.53 139.48 C 690.90 136.18 691.67 132.67 694.15 130.26 C 697.00 127.19 701.92 126.65 705.59 128.48 C 707.74 129.44 709.70 130.86 712.00 131.47 C 714.55 131.79 714.88 128.78 715.30 127.00 Z" />
<path fill="#ffffff" opacity="1.00" d=" M 356.34 145.50 C 369.60 145.51 382.86 145.47 396.12 145.52 C 396.13 149.00 396.12 152.47 396.14 155.95 C 387.64 156.05 379.15 155.97 370.66 156.00 C 370.66 159.17 370.66 162.33 370.66 165.50 C 378.52 165.50 386.39 165.48 394.26 165.51 C 394.25 169.00 394.25 172.49 394.26 175.99 C 386.39 176.01 378.52 175.99 370.66 176.00 C 370.66 180.50 370.66 185.00 370.66 189.50 C 379.15 189.53 387.65 189.43 396.15 189.55 C 396.12 193.02 396.12 196.48 396.14 199.95 C 382.87 200.05 369.60 199.98 356.34 199.99 C 356.35 181.83 356.33 163.66 356.34 145.50 Z" />
<path fill="#ffffff" opacity="1.00" d=" M 526.78 154.82 C 530.49 149.47 536.61 146.19 542.92 145.02 C 551.72 143.53 560.99 144.83 568.92 149.00 C 568.86 153.62 569.07 158.26 568.75 162.88 C 564.91 161.60 562.38 158.05 558.57 156.66 C 551.93 153.28 542.65 155.30 538.98 162.06 C 535.64 168.27 535.57 176.21 538.48 182.60 C 541.55 189.36 550.17 191.94 556.91 189.64 C 561.41 188.55 564.60 184.96 568.68 183.04 C 569.12 187.51 568.88 192.02 568.87 196.52 C 559.13 201.31 547.44 202.76 537.16 198.89 C 529.54 196.07 524.00 189.01 522.41 181.13 C 520.63 172.28 521.39 162.35 526.78 154.82 Z" />
<path fill="#ffffff" opacity="1.00" d=" M 645.80 146.68 C 655.99 142.79 667.80 144.04 677.42 149.00 C 677.40 153.58 677.45 158.15 677.38 162.73 C 674.96 162.57 673.45 160.58 671.59 159.33 C 667.44 156.24 662.08 154.14 656.88 155.40 C 652.04 156.22 647.96 159.86 646.32 164.44 C 644.59 169.42 644.50 174.97 645.94 180.04 C 647.30 184.75 651.07 188.82 655.97 189.85 C 661.58 191.52 667.65 189.57 672.22 186.16 C 673.85 185.07 675.29 183.47 677.38 183.27 C 677.45 187.68 677.40 192.10 677.42 196.52 C 673.82 198.10 670.16 199.59 666.30 200.40 C 666.57 204.67 666.15 209.58 662.56 212.46 C 657.76 216.58 650.91 215.73 645.15 214.77 C 645.13 212.12 645.12 209.48 645.13 206.83 C 648.50 207.69 652.27 209.59 655.60 207.51 C 657.79 206.13 657.69 203.36 657.81 201.10 C 650.20 201.05 642.15 198.82 636.92 193.01 C 630.31 185.86 629.14 175.35 630.63 166.10 C 632.02 157.64 637.62 149.72 645.80 146.68 Z" />
<path fill="#ffffff" opacity="1.00" d=" M 699.55 145.49 C 705.04 145.51 710.54 145.47 716.03 145.52 C 722.74 163.67 729.40 181.83 736.18 199.96 C 731.20 200.02 726.23 200.03 721.26 199.95 C 720.08 196.33 718.73 192.77 717.67 189.12 C 711.08 188.92 704.47 188.96 697.88 189.06 C 696.13 192.46 695.29 196.35 693.91 199.95 C 689.07 200.04 684.23 199.99 679.39 199.99 C 686.12 181.83 692.81 163.65 699.55 145.49 M 707.66 159.90 C 705.37 166.23 703.26 172.62 701.06 178.99 C 705.43 179.00 709.80 179.03 714.17 178.95 C 711.91 172.63 709.69 166.30 707.66 159.90 Z" />
<path fill="#ffffff" opacity="1.00" d=" M 759.07 145.15 C 767.02 143.77 775.76 144.14 782.85 148.38 C 789.42 152.27 793.65 159.43 794.61 166.92 C 795.84 175.51 794.63 185.04 788.91 191.89 C 783.73 198.37 775.17 201.23 767.08 201.02 C 759.15 201.31 750.73 198.81 745.38 192.70 C 738.28 184.94 737.37 173.36 739.65 163.51 C 741.82 154.25 749.70 146.80 759.07 145.15 M 765.13 155.16 C 759.81 155.63 755.67 160.03 754.47 165.06 C 752.77 171.63 752.88 179.16 756.54 185.07 C 760.24 191.04 769.32 192.19 774.63 187.74 C 778.01 184.86 779.60 180.42 779.96 176.09 C 780.49 170.65 779.97 164.76 776.84 160.12 C 774.32 156.38 769.53 154.54 765.13 155.16 Z" />
<path fill="#ffffff" opacity="1.00" d=" M 854.40 154.65 C 858.27 149.24 864.55 145.98 871.03 144.91 C 879.65 143.61 888.67 144.91 896.42 149.00 C 896.40 153.58 896.46 158.16 896.38 162.74 C 893.99 162.56 892.48 160.62 890.64 159.37 C 886.47 156.24 881.05 154.12 875.81 155.42 C 870.76 156.28 866.61 160.25 865.09 165.08 C 863.55 170.21 863.48 175.88 865.26 180.95 C 866.75 185.25 870.36 188.83 874.87 189.82 C 880.50 191.53 886.59 189.60 891.18 186.19 C 892.83 185.09 894.27 183.47 896.38 183.27 C 896.45 187.66 896.40 192.05 896.42 196.44 C 886.54 201.45 874.49 202.81 864.08 198.65 C 856.52 195.65 851.22 188.42 849.77 180.52 C 848.20 171.77 849.00 162.02 854.40 154.65 Z" />
<path fill="#ffffff" opacity="1.00" d=" M 902.09 145.50 C 912.81 145.51 923.53 145.48 934.26 145.51 C 934.25 148.84 934.25 152.16 934.26 155.49 C 931.27 155.50 928.28 155.50 925.31 155.50 C 925.30 167.00 925.31 178.50 925.30 190.00 C 928.28 190.00 931.26 190.00 934.26 190.01 C 934.25 193.34 934.25 196.66 934.26 199.99 C 923.53 200.01 912.80 199.99 902.08 200.00 C 902.08 196.67 902.08 193.33 902.08 190.00 C 905.00 190.00 907.94 190.00 910.87 190.00 C 910.87 178.50 910.87 167.00 910.87 155.50 C 907.94 155.50 905.01 155.50 902.09 155.51 C 902.07 152.17 902.07 148.83 902.09 145.50 Z" />
<path fill="#ffffff" opacity="1.00" d=" M 943.58 145.50 C 956.80 145.50 970.03 145.49 983.26 145.51 C 983.25 149.00 983.25 152.49 983.26 155.99 C 974.77 156.01 966.29 155.99 957.80 156.00 C 957.80 159.17 957.80 162.33 957.80 165.50 C 965.66 165.50 973.51 165.49 981.37 165.50 C 981.36 169.00 981.36 172.50 981.37 176.00 C 973.51 176.00 965.66 176.00 957.80 176.00 C 957.80 180.50 957.80 185.00 957.80 189.50 C 966.29 189.51 974.77 189.48 983.26 189.51 C 983.25 193.00 983.25 196.49 983.26 199.99 C 970.03 200.01 956.80 199.99 943.58 200.00 C 943.58 181.83 943.58 163.67 943.58 145.50 Z" />
<path fill="#ffffff" opacity="1.00" d=" M 992.74 145.51 C 998.42 145.48 1004.10 145.52 1009.78 145.48 C 1016.37 155.75 1022.98 166.00 1029.38 176.38 C 1029.29 166.09 1029.36 155.79 1029.34 145.50 C 1033.75 145.50 1038.16 145.50 1042.57 145.50 C 1042.58 163.66 1042.56 181.83 1042.58 199.99 C 1037.96 200.01 1033.35 200.00 1028.75 200.00 C 1021.12 187.68 1013.51 175.36 1005.91 163.02 C 1005.92 175.35 1005.91 187.67 1005.92 200.00 C 1001.52 200.00 997.13 200.01 992.74 199.99 C 992.74 181.83 992.75 163.67 992.74 145.51 Z" />
<path fill="#ffffff" opacity="1.00" d=" M 1056.40 154.65 C 1060.27 149.24 1066.55 145.98 1073.03 144.91 C 1081.65 143.61 1090.67 144.91 1098.42 149.00 C 1098.40 153.56 1098.44 158.13 1098.39 162.70 C 1096.18 162.69 1094.79 160.88 1093.14 159.75 C 1088.71 156.25 1082.78 153.93 1077.13 155.56 C 1071.23 156.84 1067.08 162.36 1066.34 168.17 C 1065.31 174.63 1066.09 182.19 1071.15 186.85 C 1076.53 191.54 1084.82 191.36 1090.75 187.77 C 1093.42 186.47 1095.35 183.79 1098.38 183.27 C 1098.45 187.66 1098.40 192.05 1098.42 196.44 C 1088.35 201.54 1075.97 202.88 1065.45 198.38 C 1058.17 195.25 1053.17 188.15 1051.76 180.47 C 1050.21 171.73 1051.02 162.01 1056.40 154.65 Z" />
<path fill="#ffffff" opacity="1.00" d=" M 1104.09 145.49 C 1114.81 145.51 1125.53 145.48 1136.26 145.51 C 1136.25 148.84 1136.25 152.16 1136.26 155.49 C 1133.26 155.50 1130.28 155.50 1127.31 155.50 C 1127.30 167.00 1127.31 178.50 1127.30 189.99 C 1130.28 190.00 1133.26 190.00 1136.26 190.01 C 1136.25 193.34 1136.25 196.66 1136.26 199.99 C 1125.53 200.01 1114.80 200.00 1104.08 200.00 C 1104.08 196.66 1104.08 193.33 1104.08 190.00 C 1107.00 190.00 1109.93 190.00 1112.87 190.00 C 1112.87 178.50 1112.87 167.00 1112.87 155.50 C 1109.94 155.50 1107.01 155.50 1104.09 155.51 C 1104.07 152.17 1104.07 148.83 1104.09 145.49 Z" />
<path fill="#ffffff" opacity="1.00" d=" M 405.63 145.50 C 415.08 145.73 424.59 144.97 434.01 145.98 C 442.68 146.91 450.93 152.09 454.67 160.10 C 459.38 170.12 458.05 183.08 450.38 191.31 C 445.10 197.39 436.85 199.79 429.03 199.97 C 421.23 200.05 413.43 199.97 405.63 200.00 C 405.63 181.83 405.63 163.67 405.63 145.50 M 419.87 155.99 C 419.87 167.16 419.87 178.33 419.87 189.50 C 425.66 189.42 432.19 189.97 437.01 186.12 C 440.84 183.35 442.37 178.51 442.56 173.96 C 442.81 168.59 441.40 162.50 436.74 159.25 C 431.93 155.60 425.57 156.04 419.87 155.99 Z" />
<path fill="#ffffff" opacity="1.00" d=" M 465.08 145.50 C 469.86 145.50 474.64 145.50 479.42 145.50 C 479.43 156.68 479.40 167.87 479.43 179.05 C 479.50 182.77 480.13 187.34 483.80 189.25 C 487.34 190.92 491.70 190.91 495.23 189.20 C 498.58 187.49 499.38 183.36 499.42 179.94 C 499.44 168.46 499.41 156.98 499.43 145.50 C 504.24 145.50 509.05 145.50 513.87 145.50 C 513.84 157.33 513.91 169.17 513.84 181.00 C 513.83 186.68 511.71 192.60 507.12 196.16 C 501.76 200.40 494.61 201.22 488.00 201.01 C 481.65 200.97 474.82 199.44 470.24 194.76 C 466.65 191.17 465.07 186.01 465.09 181.02 C 465.06 169.18 465.09 157.34 465.08 145.50 Z" />
<path fill="#ffffff" opacity="1.00" d=" M 570.90 199.98 C 577.61 181.83 584.32 163.68 591.01 145.53 C 596.50 145.46 601.99 145.53 607.49 145.48 C 614.26 163.63 620.91 181.83 627.66 199.99 C 622.71 200.01 617.77 199.99 612.83 200.00 C 611.54 196.34 610.26 192.68 609.03 189.00 C 602.39 189.02 595.75 188.95 589.11 189.04 C 587.91 192.71 586.64 196.36 585.35 200.00 C 580.53 199.99 575.71 200.02 570.90 199.98 M 592.56 179.00 C 596.92 179.00 601.28 179.00 605.64 178.99 C 603.44 172.64 601.26 166.28 599.08 159.92 C 596.92 166.29 594.75 172.64 592.56 179.00 Z" />
<path fill="#ffffff" opacity="1.00" d=" M 1159.30 145.54 C 1164.82 145.46 1170.35 145.49 1175.89 145.53 C 1182.54 163.70 1189.30 181.83 1195.98 200.00 C 1191.02 199.99 1186.06 200.04 1181.11 199.96 C 1179.88 196.31 1178.58 192.69 1177.39 189.03 C 1170.73 189.00 1164.07 188.94 1157.42 189.07 C 1156.25 192.71 1154.95 196.32 1153.75 199.95 C 1148.90 200.04 1144.06 199.99 1139.22 199.99 C 1145.92 181.85 1152.69 163.73 1159.30 145.54 M 1160.86 178.96 C 1165.22 179.02 1169.58 179.01 1173.95 178.98 C 1171.75 172.62 1169.63 166.24 1167.35 159.90 C 1165.31 166.30 1163.10 172.64 1160.86 178.96 Z" />
<path fill="#ffffff" opacity="1.00" d=" M 1225.25 199.99 C 1225.27 181.83 1225.24 163.66 1225.27 145.49 C 1238.48 145.51 1251.70 145.49 1264.92 145.50 C 1264.91 149.00 1264.91 152.50 1264.92 156.00 C 1256.47 156.00 1248.02 156.00 1239.57 156.00 C 1239.57 159.16 1239.56 162.33 1239.57 165.50 C 1247.44 165.51 1255.31 165.48 1263.19 165.52 C 1263.17 169.00 1263.18 172.49 1263.19 175.98 C 1255.31 176.02 1247.44 175.99 1239.57 176.00 C 1239.57 180.50 1239.57 185.00 1239.57 189.50 C 1248.02 189.50 1256.46 189.50 1264.91 189.50 C 1264.91 193.00 1264.91 196.50 1264.92 200.00 C 1251.69 200.00 1238.47 200.01 1225.25 199.99 Z" />
<path fill="#ffffff" opacity="1.00" d=" M 797.80 213.49 C 800.19 204.17 802.63 194.86 804.98 185.52 C 809.79 185.48 814.61 185.50 819.44 185.50 C 815.04 194.84 810.66 204.18 806.25 213.50 C 803.42 213.50 800.61 213.50 797.80 213.49 Z" />
<path fill="#ffffff" opacity="1.00" d=" M 350.81 241.52 C 366.98 241.48 383.14 241.50 399.31 241.50 C 399.30 245.00 399.30 248.50 399.31 252.00 C 393.62 252.00 387.93 251.99 382.25 252.00 C 382.26 266.67 382.25 281.33 382.26 295.99 C 377.44 296.00 372.63 296.01 367.81 295.98 C 367.82 281.32 367.81 266.66 367.82 252.00 C 362.15 251.99 356.48 252.02 350.81 251.98 C 350.82 248.49 350.81 245.00 350.81 241.52 Z" />
<path fill="#ffffff" opacity="1.00" d=" M 405.58 241.50 C 418.81 241.50 432.03 241.49 445.26 241.51 C 445.25 245.00 445.25 248.49 445.26 251.99 C 436.77 252.01 428.29 251.99 419.80 252.00 C 419.80 255.16 419.80 258.33 419.80 261.50 C 427.66 261.50 435.51 261.49 443.37 261.50 C 443.37 265.00 443.37 268.50 443.37 272.00 C 435.51 272.00 427.66 272.00 419.80 272.00 C 419.80 276.50 419.80 281.00 419.80 285.50 C 428.29 285.51 436.77 285.48 445.26 285.51 C 445.25 289.00 445.25 292.49 445.26 295.99 C 432.03 296.01 418.81 295.99 405.58 296.00 C 405.58 277.83 405.58 259.67 405.58 241.50 Z" />
<path fill="#ffffff" opacity="1.00" d=" M 456.80 250.79 C 460.53 245.45 466.65 242.18 472.97 241.01 C 481.75 239.54 491.01 240.84 498.92 245.00 C 498.84 249.64 499.12 254.29 498.70 258.93 C 495.09 257.62 492.65 254.37 489.11 252.91 C 483.41 249.88 475.77 250.54 471.13 255.19 C 466.90 259.58 465.97 266.13 466.61 271.97 C 467.04 276.58 469.12 281.27 473.04 283.93 C 477.90 287.08 484.31 287.16 489.47 284.68 C 492.83 283.28 495.35 280.51 498.66 279.02 C 499.14 283.50 498.88 288.03 498.86 292.53 C 488.93 297.40 476.92 298.83 466.52 294.63 C 459.21 291.68 453.98 284.80 452.41 277.17 C 450.62 268.29 451.39 258.33 456.80 250.79 Z" />
<path fill="#ffffff" opacity="1.00" d=" M 583.49 241.74 C 590.62 239.87 598.43 239.88 605.42 242.37 C 613.46 245.21 619.43 252.63 621.01 260.95 C 622.71 269.78 621.87 279.75 616.27 287.12 C 612.24 292.56 605.79 295.86 599.14 296.71 C 591.87 297.53 584.06 297.06 577.64 293.23 C 570.86 289.27 566.54 281.86 565.66 274.14 C 564.62 266.04 565.65 257.18 570.68 250.49 C 573.84 246.26 578.42 243.17 583.49 241.74 M 589.53 251.68 C 584.19 253.22 581.32 258.71 580.58 263.88 C 579.78 270.00 580.03 276.89 583.96 281.99 C 588.03 287.25 596.56 287.95 601.53 283.59 C 605.36 280.26 606.77 274.98 606.82 270.07 C 607.04 264.95 606.29 259.41 602.95 255.31 C 599.82 251.43 594.18 250.13 589.53 251.68 Z" />
<path fill="#ffffff" opacity="1.00" d=" M 691.42 241.61 C 698.67 239.86 706.60 239.90 713.61 242.64 C 721.29 245.62 726.93 252.82 728.49 260.84 C 730.26 269.64 729.38 279.55 723.91 286.94 C 719.97 292.33 713.71 295.69 707.16 296.63 C 698.08 297.88 687.76 296.70 680.91 290.01 C 673.10 282.69 671.51 270.90 673.59 260.84 C 675.27 251.73 682.39 243.87 691.42 241.61 M 697.41 251.57 C 690.36 253.42 687.69 261.42 687.73 267.97 C 687.58 273.18 688.50 278.86 692.18 282.80 C 696.88 287.82 705.93 287.65 710.32 282.29 C 713.48 278.65 714.36 273.67 714.36 268.99 C 714.42 264.26 713.56 259.21 710.54 255.43 C 707.50 251.59 702.02 250.16 697.41 251.57 Z" />
<path fill="#ffffff" opacity="1.00" d=" M 740.51 250.42 C 744.76 245.02 751.31 241.86 758.03 240.91 C 767.56 239.66 777.58 240.79 786.15 245.34 C 786.10 249.60 786.14 253.87 786.13 258.13 C 782.40 257.84 779.92 254.54 776.52 253.31 C 768.82 249.61 758.00 250.10 752.65 257.50 C 748.08 264.37 748.31 274.33 753.14 281.02 C 757.51 286.48 765.18 287.35 771.71 286.84 C 771.69 283.39 771.69 279.95 771.69 276.50 C 768.06 276.50 764.44 276.51 760.82 276.49 C 760.81 273.00 760.81 269.51 760.81 266.02 C 769.31 265.98 777.81 266.01 786.31 266.00 C 786.31 274.95 786.29 283.90 786.32 292.86 C 775.53 296.64 763.53 298.78 752.37 295.36 C 744.03 292.84 737.33 285.70 735.49 277.16 C 733.51 268.13 734.38 257.75 740.51 250.42 Z" />
<path fill="#ffffff" opacity="1.00" d=" M 507.08 241.50 C 512.75 241.50 518.43 241.49 524.11 241.50 C 530.59 251.79 537.23 261.97 543.61 272.32 C 543.66 262.05 543.62 251.77 543.63 241.50 C 548.03 241.50 552.42 241.48 556.82 241.52 C 556.78 259.68 556.81 277.84 556.81 296.00 C 552.19 296.00 547.57 296.01 542.96 295.99 C 535.44 283.64 527.66 271.45 520.27 259.02 C 520.24 271.35 520.26 283.67 520.26 295.99 C 515.86 296.01 511.47 296.00 507.08 296.00 C 507.08 277.83 507.08 259.67 507.08 241.50 Z" />
<path fill="#ffffff" opacity="1.00" d=" M 630.25 296.00 C 630.27 277.83 630.24 259.66 630.27 241.49 C 635.03 241.50 639.80 241.50 644.57 241.50 C 644.58 256.16 644.57 270.83 644.57 285.49 C 652.98 285.50 661.39 285.49 669.81 285.50 C 669.80 289.00 669.80 292.50 669.81 296.00 C 656.62 296.00 643.44 296.00 630.25 296.00 Z" />
<path fill="#ffffff" opacity="1.00" d=" M 794.13 241.50 C 804.85 241.50 815.58 241.50 826.31 241.50 C 826.30 244.83 826.30 248.16 826.31 251.50 C 823.32 251.50 820.34 251.50 817.37 251.50 C 817.36 263.00 817.37 274.50 817.36 285.99 C 820.34 286.00 823.32 286.00 826.31 286.00 C 826.30 289.33 826.30 292.66 826.31 296.00 C 815.58 296.00 804.85 296.00 794.13 296.00 C 794.13 292.66 794.13 289.33 794.13 286.00 C 797.11 286.00 800.09 286.00 803.08 286.00 C 803.08 274.50 803.08 263.00 803.08 251.50 C 800.09 251.50 797.11 251.50 794.14 251.51 C 794.13 248.17 794.13 244.83 794.13 241.50 Z" />
<path fill="#ffffff" opacity="1.00" d=" M 849.64 241.50 C 855.12 241.50 860.62 241.49 866.11 241.51 C 872.82 259.66 879.49 277.83 886.26 295.96 C 881.27 296.00 876.28 296.06 871.30 295.93 C 870.15 292.29 868.84 288.70 867.68 285.07 C 861.04 284.92 854.40 285.04 847.77 285.00 C 846.48 288.64 845.22 292.30 844.01 295.97 C 839.16 296.03 834.32 295.99 829.49 295.99 C 836.20 277.82 842.89 259.65 849.64 241.50 M 857.75 255.83 C 855.51 262.21 853.33 268.60 851.14 275.00 C 855.51 275.00 859.87 275.02 864.24 274.97 C 862.04 268.60 859.70 262.28 857.75 255.83 Z" />
</g>
</svg>
