<?xml version="1.0" encoding="UTF-8" ?>
<!DOCTYPE svg PUBLIC "-//W3C//DTD SVG 1.1//EN" "http://www.w3.org/Graphics/SVG/1.1/DTD/svg11.dtd">
<svg width="1875pt" height="378pt" viewBox="0 0 1875 378" version="1.1" xmlns="http://www.w3.org/2000/svg">
<g id="#fa9c28ff">
<path fill="#fa9c28" opacity="1.00" d=" M 448.40 5.38 C 559.07 5.42 669.73 5.26 780.39 5.46 C 780.39 12.35 780.40 19.24 780.41 26.14 C 779.46 26.68 778.53 27.22 777.60 27.76 C 777.93 36.08 777.18 44.44 778.11 52.73 C 777.56 52.79 776.46 52.91 775.91 52.97 C 776.11 52.63 776.50 51.94 776.70 51.60 C 776.09 46.74 776.42 41.85 776.61 36.97 C 776.14 41.62 776.41 46.40 774.97 50.91 C 773.43 55.12 774.56 59.64 774.37 63.99 C 774.20 67.97 773.74 71.93 773.63 75.91 C 773.83 75.88 774.23 75.82 774.43 75.79 C 774.11 70.19 774.42 64.59 774.68 59.00 C 774.84 56.97 774.65 54.72 775.91 52.97 C 775.04 60.70 775.69 68.50 775.51 76.27 C 775.04 76.47 774.10 76.86 773.62 77.06 C 772.85 85.73 773.59 94.48 773.29 103.19 C 772.60 103.29 771.24 103.50 770.56 103.60 C 770.58 107.17 770.62 110.73 770.53 114.29 C 769.50 120.26 767.90 126.21 768.30 132.32 C 768.48 137.18 768.42 142.06 768.37 146.93 C 764.48 150.35 766.08 156.15 765.67 160.73 C 765.68 163.28 765.69 165.83 765.62 168.38 C 763.31 173.48 763.28 179.10 763.48 184.59 C 763.34 193.96 763.84 203.33 763.55 212.70 C 763.40 212.52 763.08 212.17 762.93 212.00 C 763.01 208.77 763.23 205.45 762.10 202.36 C 760.46 207.44 761.01 212.81 761.02 218.05 C 761.05 221.89 759.37 225.44 758.76 229.18 C 758.38 231.99 758.50 234.85 758.55 237.69 C 758.67 246.97 758.63 256.25 758.64 265.53 C 758.10 265.57 757.03 265.64 756.49 265.67 C 756.32 275.15 756.60 284.62 756.39 294.10 C 752.34 294.66 753.90 299.22 753.87 302.02 C 753.68 307.40 754.37 312.75 754.30 318.14 C 754.73 319.96 752.80 320.49 751.60 321.11 C 751.43 328.73 751.69 336.36 751.49 343.99 C 750.09 344.82 748.97 345.99 747.93 347.22 C 746.18 347.24 744.43 347.24 742.70 347.27 C 741.59 352.43 733.68 346.55 731.93 351.46 C 729.17 351.74 726.42 352.03 723.67 352.28 C 723.43 352.74 722.97 353.67 722.74 354.13 C 719.08 354.60 715.38 354.24 711.71 354.31 C 711.50 354.80 711.09 355.77 710.89 356.26 C 707.91 356.75 704.88 356.46 701.89 356.53 C 701.73 360.15 697.39 358.21 695.09 358.64 C 697.14 358.06 699.22 357.47 701.26 356.81 C 699.06 356.79 696.99 357.60 695.09 358.64 C 693.29 358.62 691.50 358.65 689.72 358.67 C 689.62 359.36 689.42 360.72 689.32 361.40 C 686.35 361.41 683.37 361.40 680.41 361.38 C 680.14 361.95 679.61 363.07 679.35 363.64 C 676.57 363.60 673.79 363.57 671.02 363.61 C 670.24 364.64 669.86 366.74 668.11 366.31 C 665.01 366.39 661.91 366.27 658.82 366.35 C 658.63 366.84 658.26 367.83 658.07 368.33 C 655.07 368.67 652.04 368.27 649.06 368.70 C 648.88 369.19 648.51 370.18 648.32 370.67 C 645.45 370.68 642.58 370.67 639.72 370.65 C 639.59 371.33 639.34 372.68 639.21 373.36 C 635.43 373.39 631.64 373.35 627.87 373.43 C 627.68 373.90 627.29 374.82 627.10 375.29 C 623.08 376.59 617.67 374.45 614.69 378.00 L 613.32 378.00 L 612.37 376.27 C 608.83 375.95 605.29 376.17 601.76 376.16 C 601.61 375.50 601.32 374.17 601.17 373.51 C 598.73 373.41 596.30 373.35 593.87 373.28 C 593.76 372.60 593.54 371.26 593.44 370.59 C 589.65 370.52 585.79 371.06 582.05 370.33 C 581.86 369.86 581.48 368.93 581.28 368.46 C 577.78 368.47 574.28 368.51 570.78 368.50 C 569.47 363.33 561.09 369.42 559.94 363.62 C 557.21 363.56 554.47 363.58 551.74 363.59 C 551.53 363.12 551.10 362.18 550.88 361.71 C 547.23 361.04 543.48 361.52 539.79 361.45 C 539.24 360.51 538.70 359.56 538.16 358.63 C 535.10 358.66 532.04 358.82 528.98 358.67 C 527.43 358.89 526.58 357.89 526.28 356.49 C 523.38 356.51 520.48 356.52 517.59 356.49 C 517.56 355.96 517.52 354.89 517.50 354.36 C 514.60 354.33 511.71 354.33 508.83 354.36 C 508.29 353.43 507.75 352.50 507.22 351.58 C 504.31 351.61 501.40 351.62 498.50 351.59 C 498.49 351.05 498.46 349.98 498.44 349.45 C 494.52 349.41 490.60 349.44 486.68 349.42 C 486.58 348.74 486.37 347.37 486.27 346.69 C 483.98 346.70 481.69 346.70 479.41 346.69 C 479.43 341.97 479.42 337.26 479.45 332.54 C 479.68 328.34 479.32 324.06 477.33 320.27 C 477.16 315.80 477.36 311.33 477.23 306.86 C 477.06 300.51 475.12 294.36 475.12 288.00 C 475.23 277.38 472.74 266.97 472.55 256.36 C 472.40 246.78 469.98 237.43 469.68 227.87 L 469.68 227.50 C 469.41 223.88 470.86 219.37 467.51 216.77 C 467.24 210.75 467.76 204.71 467.24 198.70 C 465.68 187.20 466.13 175.50 464.24 164.03 C 462.09 153.56 464.20 142.51 460.44 132.31 C 460.34 128.93 460.34 125.56 460.41 122.19 C 460.75 116.85 460.84 111.31 458.37 106.40 C 458.23 102.99 458.32 99.56 457.77 96.18 C 457.68 95.45 457.49 93.99 457.39 93.27 C 456.92 90.29 457.71 87.06 456.74 84.23 C 456.60 87.45 457.13 90.82 455.71 93.85 C 455.17 86.13 455.55 78.37 455.54 70.64 C 454.99 70.34 453.89 69.74 453.33 69.44 C 453.13 67.30 452.79 65.16 452.97 63.01 C 453.55 55.89 453.20 48.74 453.34 41.61 C 452.67 41.51 451.32 41.29 450.64 41.18 C 450.28 32.47 450.99 23.72 450.32 15.03 C 449.83 14.84 448.86 14.46 448.37 14.27 C 448.36 11.31 448.38 8.34 448.40 5.38 M 449.87 5.75 C 449.53 8.59 449.45 11.47 449.71 14.32 C 450.78 11.61 450.26 8.56 449.87 5.75 M 614.68 20.64 C 614.98 22.15 615.53 23.69 615.22 25.25 C 614.22 30.79 614.75 36.42 614.63 42.01 C 614.69 145.69 614.67 249.38 614.62 353.06 C 614.61 355.07 617.00 356.98 619.00 356.20 C 626.35 354.57 633.55 352.28 641.00 351.07 C 647.64 348.77 654.72 348.46 661.43 346.45 C 667.74 344.47 674.45 344.22 680.66 341.85 C 690.69 339.25 700.82 336.93 711.04 335.20 C 714.77 334.56 718.19 332.69 722.01 332.48 C 726.07 332.20 730.03 330.78 733.37 328.46 C 734.80 327.44 734.37 325.49 734.52 324.00 C 734.17 315.91 736.37 308.02 736.54 299.96 C 737.52 290.66 738.04 281.31 739.31 272.04 C 739.81 267.42 739.16 262.76 739.70 258.14 C 740.22 255.44 741.38 252.85 741.37 250.05 C 741.81 235.03 744.13 220.13 744.72 205.12 C 745.78 194.43 747.23 183.75 747.59 173.00 C 748.62 165.03 749.49 157.01 749.56 148.96 C 750.50 140.48 751.43 131.99 751.80 123.47 C 753.33 117.42 753.58 111.21 753.61 105.00 C 754.85 98.09 754.25 91.03 755.67 84.14 C 757.09 76.85 755.64 69.31 757.62 62.11 C 759.03 56.15 757.85 49.94 759.22 43.98 C 759.72 36.31 761.14 28.66 760.44 20.95 C 759.85 19.13 757.42 19.80 755.99 19.54 C 710.32 19.55 664.64 19.58 618.97 19.53 C 617.43 19.40 616.03 20.01 614.68 20.64 M 451.52 39.98 L 453.26 40.53 C 453.30 36.34 452.80 32.19 452.44 28.03 C 451.70 31.95 450.81 35.99 451.52 39.98 M 557.13 65.94 C 557.23 134.30 557.15 202.67 557.18 271.04 C 557.20 272.27 557.38 273.49 557.71 274.68 C 555.66 274.55 553.62 274.55 551.58 274.53 L 551.44 273.43 C 550.82 273.42 549.60 273.40 548.99 273.39 C 546.66 272.15 543.91 272.22 541.44 271.37 C 541.43 269.50 541.43 267.63 541.45 265.76 C 540.74 265.06 540.04 264.35 539.35 263.66 C 537.17 263.29 535.00 262.87 532.88 262.30 C 532.01 261.70 531.06 261.31 530.01 261.16 C 528.35 260.73 526.64 260.47 525.06 259.83 C 523.10 258.77 520.91 258.38 518.71 258.34 C 518.28 257.89 517.42 256.97 516.99 256.52 L 516.37 256.50 C 513.36 254.70 509.95 252.76 506.31 253.37 C 504.82 254.05 505.67 255.91 505.69 257.12 C 507.70 268.66 507.32 280.42 508.90 292.00 C 509.81 297.78 509.54 303.71 510.57 309.47 C 511.87 311.88 515.01 311.94 517.36 312.62 C 535.62 316.19 553.65 320.86 571.86 324.57 C 579.04 326.39 586.49 327.05 593.49 329.59 C 595.09 329.91 596.82 331.14 598.46 330.42 C 599.24 329.40 599.85 328.24 600.20 327.00 C 600.32 245.03 600.21 162.99 600.26 80.99 C 600.24 75.05 600.05 69.09 600.67 63.17 C 597.10 61.18 592.96 61.77 589.05 61.79 C 580.05 61.88 571.04 61.76 562.03 61.70 C 559.62 61.40 556.90 63.35 557.13 65.94 M 770.77 102.48 L 772.30 101.93 C 772.78 98.90 772.10 95.85 771.50 92.89 C 770.68 96.02 770.48 99.26 770.77 102.48 M 749.75 343.72 C 749.92 343.69 750.26 343.65 750.43 343.62 C 750.25 340.08 750.24 336.53 750.24 332.99 C 749.77 336.54 749.82 340.14 749.75 343.72 M 727.03 350.83 C 729.06 350.58 731.37 350.83 732.97 349.25 C 730.84 349.17 728.78 349.59 727.03 350.83 M 716.96 353.44 C 718.74 353.53 720.53 353.57 722.32 353.58 C 722.40 352.98 722.56 351.78 722.63 351.18 C 720.62 351.55 718.10 351.40 716.96 353.44 M 602.13 373.99 C 603.33 375.38 605.98 374.31 607.73 374.58 C 606.03 374.41 603.38 372.49 602.13 373.99 Z" />
</g>
<g id="#fefefeff">
<path fill="#fefefe" opacity="1.00" d=" M 449.87 5.75 C 450.26 8.56 450.78 11.61 449.71 14.32 C 449.45 11.47 449.53 8.59 449.87 5.75 Z" />
<path fill="#fefefe" opacity="1.00" d=" M 1199.90 10.82 C 1225.86 7.90 1252.10 9.63 1277.94 12.94 C 1303.19 16.75 1328.17 22.84 1351.95 32.24 C 1351.96 58.58 1351.95 84.91 1351.96 111.24 C 1348.51 110.89 1344.66 112.09 1341.51 110.53 C 1306.49 84.04 1261.95 70.21 1218.07 72.90 C 1206.73 73.85 1195.45 76.14 1184.93 80.51 C 1176.00 84.60 1167.42 91.99 1165.61 102.08 C 1164.60 109.75 1166.55 118.15 1172.09 123.78 C 1177.17 129.12 1184.33 131.66 1191.11 134.12 C 1216.30 141.98 1242.70 144.95 1268.15 151.86 C 1288.37 157.44 1308.73 164.00 1326.41 175.58 C 1340.56 184.58 1352.65 197.41 1358.86 213.17 C 1366.72 233.22 1367.23 255.74 1362.36 276.58 C 1357.34 296.82 1345.02 314.74 1329.01 327.92 C 1312.71 341.98 1292.70 351.20 1272.07 356.92 C 1252.12 361.94 1231.57 364.81 1210.99 364.69 C 1182.11 364.81 1152.98 363.03 1124.97 355.56 C 1106.96 351.13 1089.33 345.25 1072.16 338.25 C 1072.15 310.83 1072.16 283.42 1072.16 256.00 C 1075.37 256.00 1078.60 256.00 1081.83 256.00 C 1099.41 269.70 1119.03 280.70 1139.94 288.43 C 1166.04 297.86 1194.06 303.49 1221.89 300.65 C 1234.01 299.69 1246.69 298.70 1257.43 292.43 C 1263.59 288.86 1270.40 284.60 1272.72 277.45 C 1275.68 269.00 1274.95 258.90 1269.25 251.75 C 1262.84 244.12 1253.49 239.76 1244.18 236.79 C 1220.63 229.99 1196.24 226.81 1172.52 220.72 C 1151.15 214.96 1129.83 207.38 1111.60 194.56 C 1101.47 187.40 1092.67 178.26 1086.48 167.48 C 1078.63 154.02 1074.99 138.45 1074.40 122.97 C 1073.82 108.66 1075.90 94.06 1081.81 80.94 C 1090.55 60.75 1107.33 45.07 1126.00 34.00 C 1148.34 20.52 1174.00 13.14 1199.90 10.82 Z" />
<path fill="#fefefe" opacity="1.00" d=" M 840.54 15.50 C 896.24 15.49 951.94 15.50 1007.63 15.50 C 1007.64 91.01 1007.63 166.52 1007.64 242.02 C 1007.84 259.40 1007.82 277.23 1001.84 293.78 C 997.16 308.43 988.56 321.78 977.11 332.06 C 964.40 343.32 949.09 351.50 932.92 356.59 C 901.17 366.12 867.60 364.34 834.92 362.45 C 821.43 361.50 807.98 359.71 794.68 357.25 C 794.68 334.08 794.68 310.92 794.68 287.76 C 798.10 287.91 801.67 287.21 804.96 288.44 C 814.87 291.93 824.77 295.70 835.16 297.49 C 841.71 298.76 848.43 298.67 855.07 299.15 C 871.10 299.14 888.56 298.05 901.71 287.77 C 911.96 280.10 916.48 267.23 917.97 254.95 C 919.07 243.33 918.98 231.63 919.11 219.96 C 919.15 172.81 919.12 125.66 919.12 78.51 C 892.93 78.50 866.73 78.51 840.54 78.50 C 840.54 57.50 840.54 36.50 840.54 15.50 Z" />
<path fill="#fefefe" opacity="1.00" d=" M 776.61 36.97 C 776.42 41.85 776.09 46.74 776.70 51.60 C 776.50 51.94 776.11 52.63 775.91 52.97 C 774.65 54.72 774.84 56.97 774.68 59.00 C 774.42 64.59 774.11 70.19 774.43 75.79 C 774.23 75.82 773.83 75.88 773.63 75.91 C 773.74 71.93 774.20 67.97 774.37 63.99 C 774.56 59.64 773.43 55.12 774.97 50.91 C 776.41 46.40 776.14 41.62 776.61 36.97 Z" />
<path fill="#fefefe" opacity="1.00" d=" M 632.66 62.77 C 665.44 62.57 698.22 62.72 731.01 62.70 C 731.63 63.11 732.29 63.49 732.93 63.89 C 731.99 66.49 732.62 69.30 732.35 71.99 C 731.62 77.66 730.12 83.28 730.46 89.05 C 730.18 93.62 729.11 98.15 729.62 102.76 C 728.14 103.33 726.58 103.70 724.99 103.64 C 708.28 103.63 691.56 103.64 674.85 103.61 C 674.16 104.74 672.67 105.57 672.70 107.01 C 672.69 126.71 672.58 146.41 672.46 166.10 C 672.49 167.03 672.83 167.86 673.49 168.59 C 678.44 166.34 684.07 168.27 689.25 167.08 C 693.89 165.79 698.74 166.90 703.45 166.11 C 709.16 165.03 715.02 165.46 720.81 165.28 C 720.51 174.19 721.12 183.18 719.62 192.00 C 719.77 196.40 718.06 200.59 718.46 205.01 C 717.40 214.00 717.28 223.04 715.69 231.97 C 715.23 238.88 715.66 245.86 715.00 252.75 C 714.84 252.98 714.54 253.44 714.39 253.67 C 714.13 259.09 713.11 264.44 713.04 269.89 C 711.78 273.70 712.73 277.79 711.74 281.65 C 710.86 285.30 711.73 289.10 710.85 292.75 C 710.23 295.74 710.34 298.80 710.12 301.82 C 709.14 304.55 708.78 307.44 708.17 310.27 C 706.74 310.34 705.32 310.42 703.92 310.52 C 698.94 311.61 694.23 313.73 689.05 313.69 C 684.80 315.60 680.07 315.58 675.71 317.09 C 671.56 318.56 666.99 318.21 662.98 320.17 C 660.20 320.36 657.48 320.90 654.82 321.74 C 650.33 323.26 645.47 323.21 641.03 324.90 C 638.71 325.71 636.24 325.59 633.83 325.60 C 633.01 326.20 632.19 326.81 631.39 327.42 C 630.46 327.40 629.54 327.39 628.63 327.38 C 628.57 315.06 628.52 302.75 628.60 290.43 C 629.56 289.48 630.52 288.53 631.51 287.60 C 634.11 287.57 636.71 287.11 639.00 285.78 C 645.80 284.27 652.59 282.67 659.23 280.53 C 661.99 279.72 664.98 279.83 667.58 278.45 C 667.50 275.65 667.91 272.88 668.39 270.13 C 668.91 267.18 668.19 263.99 669.60 261.23 C 669.78 258.20 669.49 255.11 670.48 252.19 C 670.72 249.13 670.30 245.94 671.51 243.04 C 671.46 239.62 672.57 236.34 672.59 232.93 C 672.38 227.69 674.24 222.62 673.70 217.36 C 664.47 217.45 655.17 216.88 646.02 218.21 C 640.90 218.34 635.77 218.37 630.66 218.21 C 630.42 199.52 630.66 180.81 630.89 162.12 C 632.25 157.55 631.27 152.68 631.59 147.98 C 631.95 138.33 631.03 128.61 632.37 119.02 C 632.41 100.27 632.48 81.52 632.66 62.77 Z" />
<path fill="#fefefe" opacity="1.00" d=" M 558.28 64.19 C 560.77 63.44 563.38 63.28 565.98 63.39 C 576.01 63.52 586.06 63.25 596.09 63.46 C 598.17 63.05 598.81 65.36 598.57 66.94 C 598.54 153.86 598.53 240.79 598.57 327.71 C 591.42 328.56 584.80 325.67 577.91 324.45 C 556.18 319.21 534.32 314.73 512.57 309.53 C 511.70 301.67 510.53 293.84 510.38 285.93 C 509.40 276.05 508.00 266.19 508.23 256.24 C 510.94 256.34 513.65 256.44 516.37 256.50 L 516.99 256.52 C 517.42 256.97 518.28 257.89 518.71 258.34 C 520.91 258.38 523.10 258.77 525.06 259.83 C 526.64 260.47 528.35 260.73 530.01 261.16 C 531.06 261.31 532.01 261.70 532.88 262.30 C 535.00 262.87 537.17 263.29 539.35 263.66 C 540.04 264.35 540.74 265.06 541.45 265.76 C 541.43 267.63 541.43 269.50 541.44 271.37 C 543.91 272.22 546.66 272.15 548.99 273.39 C 549.60 273.40 550.82 273.42 551.44 273.43 L 551.58 274.53 C 553.62 274.55 555.66 274.55 557.71 274.68 L 558.43 274.75 C 558.27 204.57 558.57 134.38 558.28 64.19 Z" />
<path fill="#fefefe" opacity="1.00" d=" M 456.74 84.23 C 457.71 87.06 456.92 90.29 457.39 93.27 C 456.97 93.41 456.13 93.70 455.71 93.85 C 457.13 90.82 456.60 87.45 456.74 84.23 Z" />
<path fill="#fefefe" opacity="1.00" d=" M 749.75 343.72 C 749.82 340.14 749.77 336.54 750.24 332.99 C 750.24 336.53 750.25 340.08 750.43 343.62 C 750.26 343.65 749.92 343.69 749.75 343.72 Z" />
<path fill="#fefefe" opacity="1.00" d=" M 695.09 358.64 C 696.99 357.60 699.06 356.79 701.26 356.81 C 699.22 357.47 697.14 358.06 695.09 358.64 Z" />
</g>
<g id="#feca3eff">
<path fill="#feca3e" opacity="1.00" d=" M 614.68 20.64 C 616.03 20.01 617.43 19.40 618.97 19.53 C 664.64 19.58 710.32 19.55 755.99 19.54 C 757.42 19.80 759.85 19.13 760.44 20.95 C 761.14 28.66 759.72 36.31 759.22 43.98 C 757.85 49.94 759.03 56.15 757.62 62.11 C 755.64 69.31 757.09 76.85 755.67 84.14 C 754.25 91.03 754.85 98.09 753.61 105.00 C 753.58 111.21 753.33 117.42 751.80 123.47 C 751.43 131.99 750.50 140.48 749.56 148.96 C 749.49 157.01 748.62 165.03 747.59 173.00 C 747.23 183.75 745.78 194.43 744.72 205.12 C 744.13 220.13 741.81 235.03 741.37 250.05 C 741.38 252.85 740.22 255.44 739.70 258.14 C 739.16 262.76 739.81 267.42 739.31 272.04 C 738.04 281.31 737.52 290.66 736.54 299.96 C 736.37 308.02 734.17 315.91 734.52 324.00 C 734.37 325.49 734.80 327.44 733.37 328.46 C 730.03 330.78 726.07 332.20 722.01 332.48 C 718.19 332.69 714.77 334.56 711.04 335.20 C 700.82 336.93 690.69 339.25 680.66 341.85 C 674.45 344.22 667.74 344.47 661.43 346.45 C 654.72 348.46 647.64 348.77 641.00 351.07 C 633.55 352.28 626.35 354.57 619.00 356.20 C 617.00 356.98 614.61 355.07 614.62 353.06 C 614.67 249.38 614.69 145.69 614.63 42.01 C 614.75 36.42 614.22 30.79 615.22 25.25 C 615.53 23.69 614.98 22.15 614.68 20.64 M 632.66 62.77 C 632.48 81.52 632.41 100.27 632.37 119.02 C 631.03 128.61 631.95 138.33 631.59 147.98 C 631.27 152.68 632.25 157.55 630.89 162.12 C 630.66 180.81 630.42 199.52 630.66 218.21 C 635.77 218.37 640.90 218.34 646.02 218.21 C 655.17 216.88 664.47 217.45 673.70 217.36 C 674.24 222.62 672.38 227.69 672.59 232.93 C 672.57 236.34 671.46 239.62 671.51 243.04 C 670.30 245.94 670.72 249.13 670.48 252.19 C 669.49 255.11 669.78 258.20 669.60 261.23 C 668.19 263.99 668.91 267.18 668.39 270.13 C 667.91 272.88 667.50 275.65 667.58 278.45 C 664.98 279.83 661.99 279.72 659.23 280.53 C 652.59 282.67 645.80 284.27 639.00 285.78 C 636.71 287.11 634.11 287.57 631.51 287.60 C 630.52 288.53 629.56 289.48 628.60 290.43 C 628.52 302.75 628.57 315.06 628.63 327.38 C 629.54 327.39 630.46 327.40 631.39 327.42 C 632.19 326.81 633.01 326.20 633.83 325.60 C 636.24 325.59 638.71 325.71 641.03 324.90 C 645.47 323.21 650.33 323.26 654.82 321.74 C 657.48 320.90 660.20 320.36 662.98 320.17 C 666.99 318.21 671.56 318.56 675.71 317.09 C 680.07 315.58 684.80 315.60 689.05 313.69 C 694.23 313.73 698.94 311.61 703.92 310.52 C 705.32 310.42 706.74 310.34 708.17 310.27 C 708.78 307.44 709.14 304.55 710.12 301.82 C 710.34 298.80 710.23 295.74 710.85 292.75 C 711.73 289.10 710.86 285.30 711.74 281.65 C 712.73 277.79 711.78 273.70 713.04 269.89 C 713.11 264.44 714.13 259.09 714.39 253.67 C 714.54 253.44 714.84 252.98 715.00 252.75 C 715.66 245.86 715.23 238.88 715.69 231.97 C 717.28 223.04 717.40 214.00 718.46 205.01 C 718.06 200.59 719.77 196.40 719.62 192.00 C 721.12 183.18 720.51 174.19 720.81 165.28 C 715.02 165.46 709.16 165.03 703.45 166.11 C 698.74 166.90 693.89 165.79 689.25 167.08 C 684.07 168.27 678.44 166.34 673.49 168.59 C 672.83 167.86 672.49 167.03 672.46 166.10 C 672.58 146.41 672.69 126.71 672.70 107.01 C 672.67 105.57 674.16 104.74 674.85 103.61 C 691.56 103.64 708.28 103.63 724.99 103.64 C 726.58 103.70 728.14 103.33 729.62 102.76 C 729.11 98.15 730.18 93.62 730.46 89.05 C 730.12 83.28 731.62 77.66 732.35 71.99 C 732.62 69.30 731.99 66.49 732.93 63.89 C 732.29 63.49 731.63 63.11 731.01 62.70 C 698.22 62.72 665.44 62.57 632.66 62.77 Z" />
<path fill="#feca3e" opacity="1.00" d=" M 451.52 39.98 C 450.81 35.99 451.70 31.95 452.44 28.03 C 452.80 32.19 453.30 36.34 453.26 40.53 L 451.52 39.98 Z" />
<path fill="#feca3e" opacity="1.00" d=" M 557.13 65.94 C 556.90 63.35 559.62 61.40 562.03 61.70 C 571.04 61.76 580.05 61.88 589.05 61.79 C 592.96 61.77 597.10 61.18 600.67 63.17 C 600.05 69.09 600.24 75.05 600.26 80.99 C 600.21 162.99 600.32 245.03 600.20 327.00 C 599.85 328.24 599.24 329.40 598.46 330.42 C 596.82 331.14 595.09 329.91 593.49 329.59 C 586.49 327.05 579.04 326.39 571.86 324.57 C 553.65 320.86 535.62 316.19 517.36 312.62 C 515.01 311.94 511.87 311.88 510.57 309.47 C 509.54 303.71 509.81 297.78 508.90 292.00 C 507.32 280.42 507.70 268.66 505.69 257.12 C 505.67 255.91 504.82 254.05 506.31 253.37 C 509.95 252.76 513.36 254.70 516.37 256.50 C 513.65 256.44 510.94 256.34 508.23 256.24 C 508.00 266.19 509.40 276.05 510.38 285.93 C 510.53 293.84 511.70 301.67 512.57 309.53 C 534.32 314.73 556.18 319.21 577.91 324.45 C 584.80 325.67 591.42 328.56 598.57 327.71 C 598.53 240.79 598.54 153.86 598.57 66.94 C 598.81 65.36 598.17 63.05 596.09 63.46 C 586.06 63.25 576.01 63.52 565.98 63.39 C 563.38 63.28 560.77 63.44 558.28 64.19 C 558.57 134.38 558.27 204.57 558.43 274.75 L 557.71 274.68 C 557.38 273.49 557.20 272.27 557.18 271.04 C 557.15 202.67 557.23 134.30 557.13 65.94 Z" />
<path fill="#feca3e" opacity="1.00" d=" M 770.77 102.48 C 770.48 99.26 770.68 96.02 771.50 92.89 C 772.10 95.85 772.78 98.90 772.30 101.93 L 770.77 102.48 Z" />
<path fill="#feca3e" opacity="1.00" d=" M 458.37 106.40 C 460.84 111.31 460.75 116.85 460.41 122.19 C 459.97 122.38 459.07 122.77 458.62 122.96 C 457.01 119.13 457.70 114.92 457.81 110.90 C 458.09 109.42 458.23 107.91 458.37 106.40 Z" />
<path fill="#feca3e" opacity="1.00" d=" M 768.30 132.32 C 767.90 126.21 769.50 120.26 770.53 114.29 C 770.53 120.28 770.75 126.27 770.42 132.24 C 769.71 132.27 769.00 132.29 768.30 132.32 Z" />
<path fill="#feca3e" opacity="1.00" d=" M 460.44 132.31 C 464.20 142.51 462.09 153.56 464.24 164.03 C 466.13 175.50 465.68 187.20 467.24 198.70 C 466.76 198.68 465.78 198.64 465.30 198.62 C 465.27 191.01 465.32 183.40 465.35 175.79 C 464.40 175.27 463.46 174.74 462.52 174.22 C 462.55 165.67 462.62 157.11 462.54 148.56 C 462.00 148.56 460.93 148.56 460.40 148.56 C 460.33 143.14 460.37 137.72 460.44 132.31 Z" />
<path fill="#feca3e" opacity="1.00" d=" M 765.67 160.73 C 766.08 156.15 764.48 150.35 768.37 146.93 C 768.41 151.41 768.42 155.88 768.42 160.36 C 767.73 160.45 766.36 160.64 765.67 160.73 Z" />
<path fill="#feca3e" opacity="1.00" d=" M 763.48 184.59 C 763.28 179.10 763.31 173.48 765.62 168.38 C 765.66 173.75 765.74 179.12 765.63 184.49 C 765.09 184.52 764.02 184.56 763.48 184.59 Z" />
<path fill="#feca3e" opacity="1.00" d=" M 761.02 218.05 C 761.01 212.81 760.46 207.44 762.10 202.36 C 763.23 205.45 763.01 208.77 762.93 212.00 C 763.08 212.17 763.40 212.52 763.55 212.70 C 763.00 212.96 761.89 213.50 761.34 213.76 C 761.31 221.24 761.32 228.72 761.38 236.20 C 760.44 236.73 759.50 237.23 758.55 237.69 C 758.50 234.85 758.38 231.99 758.76 229.18 C 759.37 225.44 761.05 221.89 761.02 218.05 Z" />
<path fill="#feca3e" opacity="1.00" d=" M 467.51 216.77 C 470.86 219.37 469.41 223.88 469.68 227.50 C 469.13 227.49 468.03 227.47 467.48 227.46 C 467.42 223.89 467.46 220.33 467.51 216.77 Z" />
<path fill="#feca3e" opacity="1.00" d=" M 469.68 227.87 C 469.98 237.43 472.40 246.78 472.55 256.36 C 472.74 266.97 475.23 277.38 475.12 288.00 C 475.12 294.36 477.06 300.51 477.23 306.86 C 476.57 306.52 475.24 305.84 474.58 305.49 C 474.39 297.82 474.64 290.13 474.53 282.46 C 474.00 282.47 472.95 282.49 472.42 282.50 C 472.25 273.93 472.43 265.37 472.38 256.81 C 471.42 256.33 470.48 255.83 469.55 255.32 C 469.73 246.17 469.56 237.02 469.68 227.87 Z" />
<path fill="#feca3e" opacity="1.00" d=" M 477.33 320.27 C 479.32 324.06 479.68 328.34 479.45 332.54 L 477.33 332.62 C 477.21 328.50 477.27 324.38 477.33 320.27 Z" />
<path fill="#feca3e" opacity="1.00" d=" M 716.96 353.44 C 718.10 351.40 720.62 351.55 722.63 351.18 C 722.56 351.78 722.40 352.98 722.32 353.58 C 720.53 353.57 718.74 353.53 716.96 353.44 Z" />
</g>
</svg>
