<?xml version="1.0" encoding="UTF-8" ?>
<!DOCTYPE svg PUBLIC "-//W3C//DTD SVG 1.1//EN" "http://www.w3.org/Graphics/SVG/1.1/DTD/svg11.dtd">
<svg width="899pt" height="791pt" viewBox="0 0 899 791" version="1.1" xmlns="http://www.w3.org/2000/svg">
<g id="#c2aa79ff">
<path fill="#c2aa79" opacity="1.00" d=" M 448.55 0.00 L 450.48 0.00 C 451.79 3.83 455.49 6.03 458.28 8.72 C 479.03 25.72 501.80 40.32 526.06 51.78 C 539.52 57.22 553.84 64.09 568.73 60.87 C 572.43 76.48 580.43 91.02 591.29 102.80 C 605.89 118.48 625.79 128.52 646.54 133.24 C 651.29 134.25 656.34 134.77 660.43 137.65 C 679.72 149.29 699.76 159.96 717.28 174.25 C 715.64 176.95 714.03 179.66 712.48 182.42 C 705.85 177.12 698.31 173.19 691.06 168.84 C 682.44 163.71 673.59 158.99 664.83 154.11 C 661.00 152.06 657.30 149.54 652.94 148.82 C 634.46 145.68 616.29 139.03 601.21 127.72 C 585.51 116.06 573.69 99.04 568.78 80.06 C 557.70 82.22 546.83 77.82 537.10 72.96 C 523.62 65.98 511.15 57.17 499.42 47.56 C 485.48 36.65 472.48 24.60 459.99 12.07 C 456.95 9.05 454.40 5.52 450.89 2.99 C 450.06 2.08 449.25 1.14 448.39 0.26 L 448.55 0.00 Z" />
<path fill="#c2aa79" opacity="1.00" d=" M 387.43 40.33 C 408.04 28.67 428.03 15.87 446.99 1.66 C 442.16 6.95 436.70 11.60 431.52 16.51 C 415.56 31.02 399.05 44.98 381.51 57.53 C 369.63 65.76 357.31 73.77 343.54 78.42 C 337.86 80.42 331.76 81.03 325.82 80.06 C 321.25 97.55 310.87 113.42 296.94 124.90 C 281.32 137.84 261.80 145.37 241.95 148.75 C 236.60 149.54 232.46 153.26 227.89 155.83 C 213.69 164.77 199.10 173.25 185.81 183.53 C 184.10 181.04 182.35 178.59 180.57 176.16 C 186.16 171.54 191.52 166.62 197.61 162.66 C 209.72 154.02 222.16 145.85 234.58 137.65 C 240.11 133.52 247.40 134.04 253.70 131.83 C 275.21 125.91 295.41 113.88 309.07 96.02 C 316.77 85.50 322.95 73.70 325.83 60.91 C 337.85 63.02 349.60 58.16 360.44 53.54 C 369.78 49.88 378.54 44.95 387.43 40.33 Z" />
<path fill="#c2aa79" opacity="1.00" d=" M 116.88 91.13 C 132.22 90.60 147.40 98.14 156.76 110.20 C 169.78 126.59 169.22 151.17 157.31 168.02 C 159.24 158.57 150.90 151.97 146.79 144.50 C 144.39 138.95 142.57 133.14 141.38 127.21 C 138.16 112.70 129.85 98.87 116.88 91.13 Z" />
<path fill="#c2aa79" opacity="1.00" d=" M 733.22 125.84 C 738.79 105.17 759.79 90.35 781.04 91.11 C 771.22 96.95 763.89 106.35 759.73 116.90 C 755.25 127.38 755.31 139.75 748.08 149.00 C 744.27 154.66 738.67 160.67 740.64 168.08 C 732.13 155.99 729.16 140.12 733.22 125.84 Z" />
<path fill="#c2aa79" opacity="1.00" d=" M 781.57 137.27 C 777.62 147.50 785.09 157.12 789.26 165.98 C 797.03 178.78 796.71 195.57 789.18 208.40 C 791.48 207.57 793.78 206.74 796.08 205.89 C 801.81 229.86 807.78 254.17 807.05 278.99 C 806.33 298.81 801.21 319.08 789.18 335.15 C 776.96 351.44 757.77 363.70 736.93 363.60 C 745.78 351.95 749.66 336.84 747.62 322.36 C 753.03 324.87 757.07 329.87 758.09 335.79 C 764.30 334.54 770.72 337.40 774.18 342.66 C 786.78 334.40 794.27 319.12 793.39 304.13 C 792.19 284.69 774.54 267.75 755.02 267.64 C 743.89 267.57 732.07 273.22 727.43 283.78 C 721.92 273.05 722.17 259.62 727.84 249.01 C 735.52 234.72 753.51 227.00 769.16 231.29 C 780.62 234.31 790.12 243.14 794.51 254.09 C 794.85 247.64 794.25 241.11 792.07 235.00 C 786.74 218.98 774.73 206.15 769.89 189.92 C 764.47 171.90 769.16 151.37 781.57 137.27 Z" />
<path fill="#c2aa79" opacity="1.00" d=" M 116.50 137.83 C 130.16 152.94 133.98 176.15 126.17 194.93 C 120.83 208.68 110.91 220.15 106.09 234.13 C 103.72 240.47 102.92 247.29 103.36 254.03 C 107.92 242.69 118.00 233.64 130.00 230.97 C 145.55 227.36 163.03 235.36 170.33 249.60 C 175.69 260.12 175.81 273.22 170.45 283.77 C 166.07 273.92 155.40 268.26 144.95 267.71 C 124.68 266.49 105.73 283.96 104.46 304.07 C 103.57 319.08 111.05 334.43 123.71 342.66 C 127.12 337.38 133.56 334.54 139.77 335.80 C 140.78 329.87 144.80 324.86 150.24 322.36 C 148.44 335.49 151.29 349.29 158.69 360.33 C 159.11 360.77 159.95 361.64 160.38 362.08 C 159.88 362.58 159.37 363.08 158.86 363.57 C 139.76 362.94 122.30 352.00 110.46 337.47 C 97.20 321.09 91.53 299.78 90.81 279.01 C 90.04 254.18 96.05 229.87 101.76 205.90 C 104.07 206.74 106.38 207.57 108.70 208.39 C 102.57 197.88 101.06 184.72 105.20 173.23 C 108.78 163.94 115.30 155.83 117.24 145.91 C 117.89 143.18 117.33 140.44 116.50 137.83 Z" />
<path fill="#c2aa79" opacity="1.00" d=" M 512.90 186.36 C 546.27 185.87 579.65 186.33 613.02 186.24 C 611.88 187.01 610.73 187.77 609.61 188.54 C 609.00 191.23 606.84 192.07 604.25 191.83 C 605.62 194.04 605.51 196.48 603.54 198.28 C 604.13 199.19 604.72 200.11 605.32 201.04 C 604.42 201.15 602.61 201.39 601.71 201.51 C 604.74 203.28 609.06 204.76 609.14 208.97 C 610.16 214.24 605.09 217.01 601.50 219.54 C 599.12 220.83 599.95 224.23 597.93 225.68 C 594.31 226.55 594.35 220.97 590.86 221.69 C 590.85 250.78 590.82 279.86 590.88 308.95 C 587.64 308.94 584.41 308.94 581.18 308.92 C 581.29 283.96 581.17 258.99 581.25 234.03 C 581.20 231.41 581.22 228.37 579.05 226.51 C 575.84 225.54 574.78 229.64 574.80 232.03 C 574.72 257.67 574.73 283.31 574.80 308.94 C 571.28 308.96 567.76 308.97 564.24 308.93 C 564.31 289.56 564.25 270.19 564.27 250.82 C 562.11 250.85 559.95 250.85 557.80 250.84 C 557.82 270.21 557.77 289.58 557.83 308.95 C 554.31 309.06 550.79 309.04 547.27 308.90 C 547.34 283.26 547.35 257.61 547.28 231.97 C 547.31 229.58 546.17 225.48 542.99 226.55 C 540.86 228.43 540.86 231.44 540.82 234.05 C 540.90 259.01 540.79 283.98 540.88 308.94 C 537.64 308.95 534.40 308.94 531.17 308.91 C 531.30 282.60 531.17 256.29 531.24 229.98 C 531.28 226.89 531.29 223.79 530.91 220.71 C 528.46 221.99 526.69 226.49 523.54 223.98 C 523.62 218.07 516.45 217.20 514.74 212.20 C 512.94 207.31 516.66 201.63 521.91 201.40 C 520.84 201.29 519.78 201.18 518.73 201.07 C 519.27 200.10 519.81 199.13 520.36 198.17 C 519.09 196.20 519.11 193.97 520.00 191.87 C 516.15 192.59 514.49 189.12 512.90 186.36 M 538.99 207.44 C 540.72 209.36 542.51 211.23 544.36 213.04 C 545.33 211.21 546.24 209.35 547.05 207.44 C 544.36 207.45 541.67 207.45 538.99 207.44 M 576.00 207.41 C 576.75 209.28 577.59 211.13 578.43 212.97 C 580.52 211.33 582.51 209.55 584.22 207.51 C 581.47 207.45 578.74 207.44 576.00 207.41 M 522.20 209.15 C 519.91 211.59 523.60 215.28 525.95 212.98 C 528.52 210.68 524.70 206.71 522.20 209.15 M 598.13 209.00 C 595.48 210.59 598.22 215.16 600.90 213.34 C 604.31 211.95 600.88 206.54 598.13 209.00 M 553.35 210.54 C 552.55 212.03 551.76 213.52 550.99 215.02 C 552.77 214.71 554.57 214.40 556.36 214.04 C 555.37 212.85 554.38 211.68 553.35 210.54 M 566.07 213.78 C 567.98 214.59 570.04 214.94 572.11 215.14 C 571.31 213.64 570.51 212.15 569.71 210.66 C 568.49 211.70 567.27 212.74 566.07 213.78 M 532.99 214.39 C 534.05 215.64 535.10 216.91 536.15 218.18 C 538.01 218.17 539.86 218.16 541.73 218.14 C 539.74 215.86 537.68 213.65 535.60 211.47 C 534.72 212.43 533.85 213.41 532.99 214.39 M 581.79 218.14 C 583.49 218.15 585.20 218.13 586.91 218.11 C 587.91 217.22 588.92 216.33 589.95 215.45 C 589.51 214.23 589.06 213.01 588.63 211.80 C 585.99 213.49 583.78 215.74 581.79 218.14 M 549.93 216.82 C 549.48 218.44 550.07 219.00 551.68 218.52 C 552.11 216.89 551.53 216.32 549.93 216.82 M 572.13 217.27 C 572.68 217.79 572.68 217.79 572.13 217.27 M 558.72 226.96 C 559.37 227.97 559.67 229.51 561.00 229.91 C 562.48 229.87 563.72 227.57 562.29 226.61 C 561.10 226.25 559.88 226.80 558.72 226.96 M 559.71 244.30 C 561.03 245.07 562.81 244.71 563.25 243.09 C 563.38 241.04 561.95 239.41 560.97 237.77 C 559.87 239.67 557.91 242.17 559.71 244.30 Z" />
<path fill="#c2aa79" opacity="1.00" d=" M 284.99 187.57 C 318.29 187.12 351.60 187.71 384.91 187.40 C 382.74 188.67 381.09 190.50 379.80 192.62 C 378.51 192.84 377.22 192.99 375.93 193.06 C 377.88 195.36 376.85 197.80 375.45 200.07 C 375.91 200.63 376.82 201.76 377.28 202.32 C 375.87 202.41 374.47 202.51 373.06 202.60 C 375.68 204.29 379.39 205.01 380.57 208.27 C 381.28 210.93 381.29 214.15 379.30 216.29 C 377.35 218.37 374.66 219.54 372.61 221.51 C 371.13 222.99 371.46 225.55 369.92 226.96 C 366.24 227.89 366.27 222.48 362.84 222.91 C 362.62 251.58 362.77 280.25 362.76 308.92 C 359.55 308.97 356.33 309.03 353.12 309.07 C 353.10 284.05 353.14 259.03 353.10 234.02 C 353.27 231.31 352.24 228.73 350.04 227.10 C 347.46 228.44 346.48 231.22 346.65 233.99 C 346.67 258.95 346.57 283.91 346.71 308.86 C 343.19 309.03 339.67 309.08 336.15 309.02 C 336.17 290.06 336.15 271.10 336.15 252.15 C 334.00 252.21 331.85 252.21 329.71 252.16 C 329.68 271.08 329.65 290.00 329.74 308.91 C 326.23 309.06 322.71 309.10 319.20 309.02 C 319.20 284.04 319.22 259.05 319.20 234.07 C 319.34 231.33 318.44 228.59 316.00 227.11 C 313.54 228.56 312.57 231.27 312.74 234.03 C 312.74 258.99 312.69 283.95 312.78 308.91 C 309.55 308.93 306.34 308.96 303.12 309.04 C 303.11 280.14 303.11 251.24 303.13 222.34 C 300.48 222.46 299.75 226.24 297.02 225.96 C 294.22 225.33 295.44 221.22 292.98 220.02 C 289.35 217.60 284.98 214.01 286.42 209.04 C 287.01 205.20 290.57 203.30 293.95 202.32 C 293.15 202.36 291.56 202.44 290.76 202.48 C 291.22 201.40 291.68 200.33 292.15 199.26 C 290.90 197.31 291.07 195.08 292.05 193.09 C 288.22 193.81 286.22 190.62 284.99 187.57 M 311.00 208.78 C 312.58 210.79 314.42 212.59 316.47 214.13 C 317.32 212.34 318.18 210.55 319.05 208.77 C 316.37 208.73 313.68 208.71 311.00 208.78 M 347.73 208.79 C 348.60 210.57 349.47 212.36 350.33 214.16 C 352.18 212.66 354.08 211.21 355.76 209.51 C 353.91 207.68 350.26 209.18 347.73 208.79 M 294.24 210.37 C 291.87 212.55 294.96 216.32 297.58 214.54 C 300.56 212.51 296.93 207.84 294.24 210.37 M 370.14 210.15 C 367.45 211.68 369.89 216.40 372.77 214.63 C 376.01 213.24 373.03 207.98 370.14 210.15 M 325.27 211.76 C 324.46 213.24 323.67 214.73 322.90 216.24 C 324.51 215.79 326.84 216.34 327.93 214.83 C 327.18 213.69 326.20 212.73 325.27 211.76 M 338.00 215.11 C 339.94 215.76 341.92 216.29 343.93 216.65 C 343.24 214.95 342.35 213.34 341.26 211.85 C 340.18 212.94 339.09 214.03 338.00 215.11 M 304.89 215.54 C 305.94 216.84 306.99 218.16 308.02 219.48 C 309.83 219.44 311.64 219.40 313.46 219.35 C 311.63 217.21 309.93 214.89 307.65 213.21 C 306.31 212.88 305.80 214.84 304.89 215.54 M 353.89 219.52 C 355.44 219.51 357.00 219.48 358.56 219.46 C 359.71 218.49 360.87 217.54 362.04 216.59 C 361.42 215.38 360.79 214.16 360.17 212.95 C 357.96 215.02 355.54 216.94 353.89 219.52 M 322.03 218.17 C 321.57 219.54 322.05 220.07 323.47 219.77 C 323.92 218.40 323.45 217.87 322.03 218.17 M 344.17 217.99 C 342.86 218.77 342.86 219.45 344.15 220.04 C 345.45 219.26 345.46 218.58 344.17 217.99 M 331.25 228.13 C 330.68 229.67 332.11 230.62 332.92 231.70 C 333.62 230.66 335.36 229.87 334.70 228.38 C 333.61 227.51 332.46 227.43 331.25 228.13 M 330.80 244.08 C 330.84 245.74 333.23 246.54 334.39 245.49 C 336.34 243.48 333.82 240.95 332.98 239.02 C 331.98 240.56 330.69 242.13 330.80 244.08 Z" />
<path fill="#c2aa79" opacity="1.00" d=" M 672.51 369.61 C 668.59 312.55 680.45 254.33 706.93 203.59 C 708.06 207.73 709.15 211.88 710.26 216.02 C 702.79 232.93 695.30 249.87 689.58 267.46 C 685.56 278.13 683.25 289.32 680.24 300.29 C 675.09 323.07 672.77 346.48 673.31 369.83 C 683.28 372.92 692.52 379.42 697.27 388.91 C 700.34 394.43 700.72 400.91 699.74 407.04 C 698.91 404.52 697.89 401.88 695.63 400.29 C 689.54 395.59 681.34 395.93 674.67 392.45 C 674.76 393.14 674.94 394.50 675.03 395.18 C 674.82 394.20 674.61 393.22 674.39 392.25 C 669.29 388.57 668.44 382.12 666.23 376.70 C 664.96 373.29 662.11 370.93 659.34 368.77 C 663.75 368.45 668.17 368.81 672.51 369.61 Z" />
<path fill="#c2aa79" opacity="1.00" d=" M 192.31 204.62 C 218.13 247.11 229.69 297.45 228.32 346.93 C 227.61 362.62 226.69 378.41 223.35 393.79 C 223.35 393.52 223.34 392.98 223.34 392.72 C 217.02 395.27 210.01 395.78 203.98 399.06 C 200.94 400.67 198.96 403.66 198.29 407.01 C 197.55 402.67 197.14 398.14 198.59 393.90 C 202.32 381.54 213.59 372.66 225.84 369.56 C 226.72 348.60 225.16 327.53 221.03 306.96 C 216.73 286.58 210.55 266.59 202.57 247.35 C 198.87 237.76 194.26 228.54 190.49 219.00 C 190.68 214.17 191.76 209.42 192.31 204.62 Z" />
<path fill="#c2aa79" opacity="1.00" d=" M 155.63 284.99 C 157.87 301.30 148.53 318.83 133.13 325.12 C 128.37 327.05 122.98 327.70 118.03 326.08 C 124.69 325.03 127.26 317.91 128.62 312.19 C 129.87 306.04 131.94 298.72 138.46 296.30 C 144.83 293.91 153.37 292.55 155.63 284.99 Z" />
<path fill="#c2aa79" opacity="1.00" d=" M 742.06 285.03 C 744.56 292.22 752.54 293.95 758.90 296.10 C 765.59 298.33 767.97 305.65 769.16 311.91 C 770.52 317.70 773.07 325.09 779.89 326.06 C 772.55 328.48 764.57 325.95 758.42 321.72 C 746.74 313.72 740.53 299.01 742.06 285.03 Z" />
<path fill="#c2aa79" opacity="1.00" d=" M 186.19 316.34 C 193.98 312.89 203.90 317.84 205.86 326.11 C 208.17 333.81 202.88 342.60 195.02 344.20 C 187.79 346.06 179.73 341.40 177.70 334.23 C 175.33 327.23 179.33 318.98 186.19 316.34 Z" />
<path fill="#c2aa79" opacity="1.00" d=" M 700.39 316.43 C 708.13 312.85 718.13 317.65 720.23 325.89 C 722.63 333.44 717.66 342.19 709.99 344.06 C 702.59 346.29 694.08 341.52 692.09 334.07 C 689.88 327.18 693.71 319.15 700.39 316.43 Z" />
<path fill="#c2aa79" opacity="1.00" d=" M 531.20 360.19 C 534.42 360.19 537.63 360.19 540.85 360.17 C 540.83 383.79 540.87 407.41 540.83 431.03 C 540.86 432.56 541.09 434.09 541.31 435.63 C 542.91 435.75 544.51 435.87 546.13 436.01 C 545.27 437.90 543.87 439.87 544.84 442.04 C 548.11 440.55 547.26 436.90 547.34 434.00 C 547.25 409.40 547.38 384.81 547.28 360.22 C 550.79 360.18 554.31 360.18 557.83 360.19 C 557.77 379.43 557.82 398.68 557.81 417.93 C 559.96 417.71 562.13 417.78 564.28 418.16 C 564.24 398.84 564.31 379.52 564.24 360.20 C 567.75 360.18 571.27 360.18 574.79 360.19 C 574.74 386.48 574.75 412.77 574.78 439.06 C 575.79 439.90 576.81 440.75 577.85 441.60 C 578.05 441.03 578.47 439.90 578.68 439.34 C 577.86 438.21 577.07 437.06 576.32 435.90 C 577.92 435.65 579.52 435.43 581.13 435.22 C 581.35 410.20 581.16 385.18 581.22 360.17 C 584.43 360.19 587.65 360.19 590.86 360.17 C 590.83 393.59 590.86 427.00 590.85 460.42 C 592.99 460.45 595.14 460.49 597.29 460.56 C 599.06 462.21 600.99 463.68 603.01 465.02 C 602.57 465.43 601.67 466.24 601.23 466.65 C 602.59 466.68 603.97 466.74 605.34 466.80 C 604.76 467.76 604.18 468.72 603.60 469.69 C 605.57 471.49 605.58 473.92 604.21 476.09 C 605.53 476.23 606.89 476.28 608.20 476.64 C 609.86 478.30 609.05 482.34 606.10 481.66 C 577.06 481.75 548.01 481.65 518.96 481.70 C 517.15 481.89 514.79 481.40 515.04 479.06 C 514.67 476.02 517.98 476.25 520.01 476.09 C 519.11 474.00 519.09 471.76 520.34 469.81 C 519.78 468.79 519.24 467.78 518.70 466.78 C 519.49 466.76 521.08 466.72 521.87 466.70 C 521.57 466.25 520.99 465.34 520.70 464.88 C 524.22 463.25 526.96 459.63 531.23 460.29 C 531.21 426.92 531.25 393.55 531.20 360.19 M 557.79 435.92 C 557.96 440.48 557.25 445.20 558.47 449.65 C 558.93 452.05 562.40 452.74 563.32 450.28 C 565.05 445.77 564.01 440.76 564.29 436.04 C 564.83 433.44 562.59 431.83 561.05 430.18 C 559.64 431.87 557.34 433.40 557.79 435.92 M 574.68 443.90 C 574.94 446.55 574.49 450.27 577.25 451.75 C 580.05 452.59 580.77 449.04 581.23 447.09 C 578.99 446.13 576.80 445.07 574.68 443.90 M 541.04 447.76 C 541.56 449.67 542.40 452.05 544.84 451.89 C 547.28 450.34 547.21 447.16 547.34 444.61 C 545.30 445.77 543.20 446.85 541.04 447.76 Z" />
<path fill="#c2aa79" opacity="1.00" d=" M 303.11 361.13 C 306.33 361.16 309.54 361.16 312.76 361.17 C 312.67 384.09 312.80 407.02 312.70 429.94 C 312.68 431.83 312.90 433.72 313.17 435.61 C 314.78 435.75 316.39 435.91 318.01 436.07 C 317.21 437.98 315.54 439.97 316.93 442.06 C 318.09 440.96 319.58 439.88 319.20 438.04 C 319.21 412.41 319.23 386.78 319.19 361.15 C 322.70 361.15 326.21 361.16 329.72 361.17 C 329.65 380.08 329.70 398.99 329.70 417.90 C 331.86 417.71 334.03 417.80 336.17 418.20 C 336.14 399.18 336.17 380.16 336.15 361.14 C 339.66 361.15 343.17 361.16 346.69 361.19 C 346.59 387.15 346.68 413.11 346.65 439.07 C 347.69 439.91 348.74 440.75 349.80 441.59 C 350.02 441.01 350.47 439.86 350.69 439.28 C 349.81 438.37 348.95 437.46 348.09 436.55 C 349.56 435.61 351.30 435.37 353.00 435.13 C 353.27 410.46 353.03 385.80 353.11 361.13 C 356.33 361.15 359.55 361.16 362.77 361.17 C 362.69 394.25 362.76 427.33 362.74 460.41 C 365.23 460.65 368.24 459.70 370.28 461.59 C 371.81 462.75 373.33 463.92 374.89 465.05 C 374.47 465.43 373.63 466.20 373.21 466.58 C 374.57 466.68 375.94 466.79 377.31 466.92 C 376.68 467.83 376.06 468.74 375.44 469.65 C 377.48 471.43 377.47 473.90 376.12 476.08 C 377.69 476.57 380.53 475.69 380.82 477.97 C 381.53 479.84 380.23 482.11 378.06 481.66 C 347.90 481.66 317.72 481.85 287.55 481.54 C 287.21 479.93 286.57 478.08 287.73 476.63 C 289.12 476.31 290.54 476.24 291.96 476.10 C 291.03 474.02 290.95 471.80 292.20 469.84 C 291.69 468.82 291.17 467.81 290.66 466.81 C 291.46 466.78 293.05 466.72 293.85 466.69 C 293.54 466.25 292.92 465.37 292.61 464.92 C 296.09 463.24 298.84 459.59 303.11 460.35 C 303.12 427.28 303.12 394.20 303.11 361.13 M 335.35 427.32 C 335.83 427.84 335.83 427.84 335.35 427.32 M 329.63 433.86 C 329.85 438.58 329.39 443.32 329.91 448.03 C 330.12 449.88 331.47 452.56 333.74 451.75 C 335.44 450.87 335.89 448.75 336.05 447.01 C 336.28 443.00 336.21 438.97 336.14 434.96 C 336.28 432.82 334.12 431.67 332.96 430.20 C 331.84 431.41 330.73 432.63 329.63 433.86 M 346.59 443.95 C 346.78 446.70 346.38 451.27 349.93 451.93 C 352.28 451.68 352.49 448.89 353.22 447.15 C 350.97 446.16 348.76 445.09 346.59 443.95 M 313.02 447.70 C 313.38 449.60 314.31 452.28 316.77 451.78 C 319.32 450.33 318.97 446.95 319.31 444.47 C 317.28 445.68 315.20 446.79 313.02 447.70 Z" />
<path fill="#c2aa79" opacity="1.00" d=" M 171.84 397.41 C 164.88 387.48 160.96 375.52 160.83 363.38 C 172.37 372.56 187.73 376.32 202.27 374.35 C 199.70 379.74 194.77 383.71 188.89 384.88 C 189.93 391.13 187.13 397.45 181.87 400.95 C 185.07 405.12 189.01 408.62 192.94 412.07 C 197.73 415.67 203.44 417.98 209.28 419.23 C 207.31 420.83 205.51 422.65 203.96 424.66 C 202.87 423.90 201.80 423.13 200.75 422.34 C 200.43 422.35 199.79 422.36 199.47 422.36 C 200.67 424.55 201.98 426.70 202.84 429.05 C 204.45 433.69 205.25 438.56 205.26 443.47 C 203.19 442.22 201.16 440.91 199.06 439.71 C 191.45 435.66 182.65 434.57 174.14 435.40 C 176.23 431.40 179.86 428.52 184.22 427.39 C 183.57 422.82 185.63 418.55 189.02 415.60 C 185.49 412.98 182.28 409.96 179.26 406.77 C 175.49 402.51 169.45 401.55 164.08 401.02 C 147.79 399.86 132.48 414.77 133.26 431.08 C 133.47 439.18 137.98 446.98 145.22 450.77 C 137.75 453.83 129.03 454.68 121.48 451.37 C 108.77 446.16 101.82 430.34 106.49 417.44 C 109.12 409.57 115.46 403.36 123.04 400.18 C 110.45 399.03 99.37 405.93 89.06 412.14 C 82.05 415.60 74.98 419.72 66.99 420.20 C 55.76 421.29 44.42 417.42 35.71 410.36 C 44.32 412.45 51.68 406.47 59.04 403.08 C 68.39 398.45 79.74 399.23 88.75 404.27 C 88.13 402.52 87.51 400.78 86.89 399.03 C 99.46 396.04 112.05 392.97 124.91 391.55 C 140.65 389.97 157.27 390.73 171.84 397.41 Z" />
<path fill="#c2aa79" opacity="1.00" d=" M 695.60 374.36 C 710.12 376.38 725.24 372.45 736.93 363.60 C 736.97 375.87 732.71 387.85 725.76 397.86 C 734.56 393.67 744.27 391.86 753.93 391.05 C 773.65 389.68 793.04 394.50 812.08 399.03 C 811.45 400.78 810.82 402.53 810.20 404.29 C 819.22 399.22 830.58 398.45 839.94 403.08 C 847.27 406.48 854.62 412.40 863.22 410.39 C 854.55 417.42 843.26 421.26 832.09 420.21 C 824.07 419.76 816.99 415.63 809.96 412.17 C 799.64 406.00 788.57 398.99 775.99 400.23 C 783.61 403.39 789.92 409.69 792.53 417.59 C 796.83 429.79 790.88 444.55 779.40 450.47 C 771.50 454.66 761.79 454.28 753.77 450.65 C 761.42 446.86 765.80 438.40 765.74 430.04 C 765.82 414.15 750.88 399.95 734.98 401.02 C 728.57 401.52 721.71 403.33 717.21 408.22 C 714.71 410.65 712.15 413.03 709.52 415.33 C 713.28 418.17 715.13 422.59 714.92 427.27 C 719.06 428.82 722.81 431.33 724.83 435.40 C 714.76 434.32 704.24 436.31 695.84 442.15 C 695.31 442.48 694.26 443.13 693.73 443.45 C 693.80 441.52 693.87 439.59 694.04 437.67 C 694.90 431.92 696.85 426.35 699.84 421.37 C 694.11 424.89 687.70 427.02 681.44 429.38 C 680.81 426.34 680.20 423.31 679.50 420.29 C 693.68 420.11 708.09 413.12 715.73 400.95 C 713.88 398.90 711.52 397.23 710.35 394.66 C 708.73 391.66 708.80 388.17 708.98 384.87 C 703.10 383.71 698.14 379.77 695.60 374.36 Z" />
<path fill="#c2aa79" opacity="1.00" d=" M 177.14 411.06 C 179.60 419.71 174.52 428.62 167.69 433.70 C 161.61 438.42 153.74 440.23 146.15 439.68 C 152.95 437.35 152.77 429.30 156.11 424.16 C 160.94 418.38 169.94 420.40 175.15 415.16 C 176.34 414.10 176.65 412.49 177.14 411.06 Z" />
<path fill="#c2aa79" opacity="1.00" d=" M 721.44 411.19 C 722.74 414.77 725.77 417.38 729.43 418.37 C 733.82 419.81 738.95 420.11 742.38 423.58 C 745.27 426.96 745.35 431.73 747.68 435.42 C 748.76 437.24 750.55 438.45 752.16 439.77 C 740.74 440.58 728.69 434.88 723.43 424.45 C 721.17 420.41 720.89 415.69 721.44 411.19 Z" />
<path fill="#c2aa79" opacity="1.00" d=" M 0.73 410.70 C 5.37 417.20 11.43 422.79 18.88 425.87 C 27.23 429.66 37.22 429.48 44.61 435.37 C 48.78 438.26 53.53 442.45 58.97 440.34 C 49.59 447.14 37.08 449.48 25.96 446.01 C 10.98 441.55 0.28 426.25 0.73 410.70 Z" />
<path fill="#c2aa79" opacity="1.00" d=" M 880.07 425.87 C 887.53 422.81 893.58 417.21 898.23 410.72 C 898.55 422.30 892.73 433.72 883.53 440.66 C 871.02 450.25 852.55 449.56 840.01 440.39 C 845.48 442.39 850.23 438.25 854.41 435.32 C 861.80 429.48 871.75 429.66 880.07 425.87 Z" />
<path fill="#c2aa79" opacity="1.00" d=" M 205.38 443.47 C 218.25 443.44 230.39 449.74 239.31 458.75 C 249.19 468.63 254.94 482.10 256.78 495.84 C 260.56 518.00 254.74 540.16 249.88 561.66 C 248.13 561.21 246.38 560.75 244.64 560.29 C 247.57 566.04 249.48 572.53 248.59 579.04 C 248.55 581.64 246.94 584.72 249.15 586.85 C 282.23 628.36 317.44 669.05 360.47 700.61 C 374.23 711.36 388.93 720.83 403.44 730.54 C 419.12 740.66 434.51 751.25 449.98 761.70 C 476.28 743.40 503.18 725.96 528.92 706.87 C 536.69 700.66 544.52 694.53 552.19 688.21 C 588.48 657.07 619.27 620.21 648.76 582.73 C 650.93 580.31 650.00 576.87 650.31 573.93 C 650.40 569.07 652.30 564.51 654.34 560.18 C 652.60 560.70 650.85 561.21 649.12 561.73 C 645.12 544.06 640.47 526.22 641.03 507.95 C 641.54 493.15 644.91 477.94 653.72 465.76 C 662.86 453.07 677.55 443.45 693.57 443.49 C 691.08 447.59 688.51 451.73 687.18 456.38 C 685.27 462.17 685.20 468.33 685.64 474.35 C 681.47 472.58 678.88 468.78 677.61 464.55 C 672.81 465.07 668.44 462.90 665.41 459.28 C 653.26 467.72 647.23 485.17 654.22 498.72 C 660.32 511.43 676.87 519.78 690.14 513.25 C 695.80 498.81 698.34 483.26 698.94 467.80 C 699.25 482.46 697.51 497.10 694.26 511.38 C 696.93 509.27 699.12 506.63 700.85 503.70 C 706.13 514.48 704.12 528.80 694.73 536.69 C 691.50 539.87 687.06 541.13 683.20 543.26 C 678.55 552.78 673.85 562.33 668.17 571.31 C 673.28 585.39 670.10 601.80 660.45 613.19 C 662.67 605.28 657.51 598.19 654.16 591.47 C 626.47 629.81 597.56 667.55 563.90 700.90 C 553.03 711.79 541.14 721.54 529.49 731.55 C 506.43 749.99 482.20 766.87 458.51 784.46 C 455.95 786.44 453.08 788.05 450.89 790.47 L 450.74 791.00 L 449.54 791.00 C 449.12 790.56 448.28 789.67 447.86 789.23 C 431.11 776.86 414.15 764.78 397.07 752.87 C 384.58 743.74 371.83 734.93 360.01 724.92 C 342.70 711.40 326.82 696.16 311.82 680.14 C 286.88 653.43 264.48 624.47 242.96 594.97 C 239.97 600.52 236.65 606.72 238.50 613.22 C 229.96 603.03 226.54 589.07 229.26 576.07 C 222.67 565.32 217.17 553.92 212.96 542.04 C 208.35 539.94 203.92 537.18 200.82 533.10 C 194.30 524.89 193.63 513.00 198.13 503.70 C 199.75 506.35 201.67 508.81 203.96 510.92 C 200.22 492.12 197.87 472.99 198.12 453.80 C 198.64 472.97 201.44 492.08 206.63 510.55 C 207.07 513.63 210.48 514.21 212.97 514.86 C 226.19 518.03 240.15 509.54 245.37 497.39 C 251.34 484.01 245.34 467.30 233.43 459.32 C 230.50 463.03 226.08 465.02 221.35 464.55 C 220.08 468.77 217.50 472.58 213.32 474.34 C 214.70 463.44 211.69 452.40 205.38 443.47 M 241.27 536.29 C 235.39 541.82 227.10 544.51 219.09 543.53 C 223.10 551.48 227.32 559.57 233.47 566.11 C 236.86 557.68 242.83 550.55 245.96 541.99 C 248.03 536.95 248.73 531.50 248.58 526.09 C 246.55 529.75 244.47 533.50 241.27 536.29 M 664.07 562.44 C 668.67 556.68 672.68 550.34 675.90 543.72 C 664.80 543.64 654.74 536.12 650.49 526.06 C 649.29 539.66 657.51 551.30 664.07 562.44 Z" />
<path fill="#c2aa79" opacity="1.00" d=" M 178.36 458.54 C 186.05 455.24 195.11 463.14 192.78 471.20 C 191.44 478.71 181.37 482.33 175.53 477.40 C 168.79 472.70 170.56 461.09 178.36 458.54 Z" />
<path fill="#c2aa79" opacity="1.00" d=" M 712.55 458.69 C 718.80 455.85 726.86 460.35 727.55 467.22 C 728.87 474.13 722.07 480.90 715.16 479.52 C 709.30 478.85 704.85 472.69 706.07 466.92 C 706.56 463.27 709.22 460.14 712.55 458.69 Z" />
<path fill="#c2aa79" opacity="1.00" d=" M 209.19 502.02 C 207.08 486.43 220.37 468.66 237.07 471.12 C 234.75 472.70 232.22 474.35 231.20 477.12 C 228.74 482.36 229.25 489.41 224.02 493.02 C 218.96 495.81 211.85 496.01 209.19 502.02 Z" />
<path fill="#c2aa79" opacity="1.00" d=" M 661.88 471.10 C 667.00 470.50 672.30 471.38 676.62 474.30 C 685.80 480.07 690.93 491.30 689.81 502.03 C 687.10 496.06 680.06 495.80 674.99 493.05 C 669.70 489.45 670.22 482.33 667.74 477.07 C 666.70 474.32 664.18 472.69 661.88 471.10 Z" />
<path fill="#c2aa79" opacity="1.00" d=" M 328.30 522.23 C 330.43 519.89 332.18 517.26 334.14 514.79 C 333.57 518.46 330.79 521.14 329.32 524.42 C 328.33 526.60 328.68 529.07 328.67 531.40 C 330.21 530.37 332.05 529.57 333.04 527.92 C 333.98 525.97 333.27 523.77 333.17 521.74 C 333.58 522.28 334.41 523.37 334.83 523.92 C 336.04 521.50 338.19 520.01 340.73 519.27 C 337.18 521.56 335.33 525.45 334.56 529.49 C 336.83 527.94 338.04 525.38 340.11 523.62 C 339.15 525.74 338.42 528.09 336.81 529.83 C 333.98 531.26 330.01 531.30 328.51 534.57 C 326.21 539.96 328.91 547.56 335.03 548.92 C 339.60 549.63 345.04 548.90 348.52 545.62 C 352.05 541.85 346.30 536.25 350.59 532.92 C 349.38 536.08 350.15 539.46 351.77 542.32 C 351.93 538.69 353.19 534.90 357.06 533.83 C 356.12 535.05 355.13 536.21 354.15 537.40 C 354.54 537.64 355.32 538.11 355.71 538.35 C 353.45 539.93 352.73 542.66 351.69 545.06 C 354.43 544.54 357.23 544.47 360.02 544.70 C 362.46 545.11 364.30 543.18 366.28 542.12 C 364.86 544.28 362.93 546.93 359.97 546.48 C 356.37 546.47 351.46 545.74 349.13 549.06 C 350.46 550.90 352.58 552.64 354.99 552.57 C 356.63 550.91 357.65 548.59 359.95 547.68 C 358.81 549.37 357.64 551.07 357.09 553.07 C 359.52 551.74 361.79 550.15 364.20 548.79 C 362.32 551.83 358.98 553.27 355.74 554.39 C 358.19 557.28 362.91 555.95 365.40 558.93 C 363.80 558.57 362.22 558.12 360.65 557.67 C 361.51 559.43 362.36 561.22 363.08 563.06 C 361.05 561.01 359.58 558.29 356.85 557.04 C 353.58 555.47 350.95 552.93 347.94 550.97 C 343.20 548.94 337.37 554.02 338.95 559.02 C 340.74 564.04 345.12 567.80 350.10 569.49 C 353.65 568.32 355.65 565.31 356.79 561.92 C 356.63 563.51 356.42 565.09 356.23 566.69 C 359.10 565.40 362.20 565.27 365.13 566.43 C 361.48 566.51 357.92 567.35 354.78 569.25 C 356.26 570.38 357.70 571.58 359.05 572.87 C 356.39 571.63 353.60 570.50 350.60 570.81 C 353.47 574.70 357.16 578.37 362.30 578.60 C 360.67 578.85 359.01 578.81 357.37 578.72 C 357.27 580.23 357.08 581.75 356.76 583.25 C 354.60 576.12 348.47 570.09 340.97 569.00 C 335.84 569.50 335.06 576.00 336.14 580.02 C 336.98 582.33 337.57 586.58 340.92 585.56 C 343.86 587.82 346.87 590.34 348.46 593.76 C 348.37 594.35 348.18 595.53 348.09 596.12 C 348.59 595.82 349.59 595.23 350.09 594.94 C 353.93 596.49 358.98 598.77 359.05 603.59 C 359.77 603.28 361.21 602.66 361.93 602.35 C 364.85 603.85 367.45 605.92 369.73 608.28 C 370.98 609.29 371.29 610.81 371.19 612.37 C 372.39 612.31 373.59 612.26 374.80 612.21 C 377.16 615.58 379.16 619.19 380.80 622.97 C 380.47 623.48 379.82 624.52 379.49 625.04 C 382.47 631.72 386.82 638.61 394.01 641.26 C 397.89 642.44 400.89 639.11 403.15 636.50 C 404.82 636.62 404.83 638.16 405.05 639.47 C 402.34 639.76 400.13 641.31 398.26 643.17 C 402.88 646.68 408.61 641.78 413.31 644.75 C 415.02 645.37 417.34 646.84 415.62 648.84 C 413.84 649.14 413.48 647.13 412.92 645.94 C 410.46 644.36 407.61 644.99 405.22 646.38 C 409.93 648.08 412.84 652.18 415.44 656.21 C 415.25 658.35 412.56 657.79 412.62 655.94 C 411.72 649.97 405.30 648.35 400.57 646.40 C 394.95 644.21 390.02 640.74 384.91 637.62 C 387.59 644.60 391.94 652.70 399.99 654.22 C 403.21 655.01 406.28 653.57 408.27 651.05 C 412.07 654.79 405.28 655.12 402.80 655.96 C 406.03 658.82 409.01 661.94 411.97 665.08 C 411.33 665.28 410.07 665.68 409.44 665.88 C 407.20 660.53 402.05 656.89 396.75 654.94 C 399.02 659.61 403.03 664.81 401.02 670.21 C 399.19 668.87 399.87 666.82 399.85 664.96 C 396.78 656.93 390.08 651.18 385.37 644.17 C 385.96 646.52 386.60 648.88 387.69 651.06 C 389.96 655.35 390.75 660.22 391.85 664.91 C 390.98 664.39 389.08 664.40 389.41 662.93 C 389.87 657.80 387.04 653.35 384.81 648.99 C 383.46 653.61 378.88 657.45 380.61 662.66 C 379.96 662.67 378.68 662.69 378.04 662.70 C 378.29 655.85 384.95 650.62 382.89 643.52 C 381.55 645.00 380.61 646.77 379.39 648.34 C 377.54 650.26 374.98 651.50 373.57 653.83 C 373.26 657.65 374.90 661.31 374.85 665.14 C 373.85 664.53 372.89 663.88 371.96 663.20 C 372.41 662.67 373.32 661.61 373.77 661.08 C 373.05 659.47 372.22 657.92 371.19 656.49 C 370.25 659.18 371.69 664.05 368.13 665.01 C 369.37 659.95 369.25 654.44 372.78 650.24 C 368.00 650.87 365.21 655.56 365.60 660.11 C 364.87 659.70 364.14 659.30 363.42 658.90 C 364.84 656.21 365.70 653.10 367.87 650.88 C 371.02 648.86 374.97 648.26 377.83 645.75 C 381.44 640.80 380.00 634.30 378.32 628.90 C 378.08 626.55 375.23 626.64 374.16 624.88 C 371.89 621.64 368.83 618.39 369.03 614.15 C 368.54 614.36 367.55 614.77 367.05 614.98 C 363.58 612.43 358.71 610.83 357.00 606.58 C 352.63 607.71 349.60 603.69 346.26 601.64 C 346.30 600.84 346.38 599.25 346.42 598.46 C 341.55 599.04 339.18 593.56 336.13 590.67 C 336.38 589.88 336.63 589.09 336.88 588.31 C 332.61 583.65 331.53 575.79 324.99 573.59 C 322.08 574.88 318.45 576.38 318.07 580.01 C 318.64 583.79 321.19 587.10 320.76 591.08 C 319.82 587.42 317.74 584.25 315.98 580.96 C 311.79 585.83 314.94 592.44 312.66 597.94 C 312.67 595.23 312.56 592.47 311.46 589.96 C 309.58 591.56 307.74 593.22 305.83 594.79 C 306.54 592.35 308.69 590.90 310.21 589.02 C 311.32 586.76 311.99 584.31 312.80 581.94 C 308.37 581.58 307.56 586.30 305.38 589.08 C 305.70 587.60 306.10 586.14 306.51 584.71 C 302.42 586.12 298.03 585.45 293.79 585.57 C 297.97 583.14 303.52 586.03 307.15 582.27 C 308.74 581.59 307.62 579.41 306.08 579.81 C 304.31 579.59 302.53 579.60 300.75 579.49 C 304.78 576.66 308.96 580.01 313.10 580.28 C 316.32 579.30 317.98 575.88 319.14 572.98 C 318.66 569.72 315.59 567.62 313.13 565.77 C 309.65 563.18 305.07 563.73 300.99 563.72 C 298.15 563.34 298.06 566.76 297.22 568.61 C 296.93 567.14 296.63 565.68 296.32 564.23 C 293.94 566.56 291.72 569.62 288.09 569.86 C 291.84 567.46 294.34 563.22 298.87 562.13 C 295.13 560.34 291.14 558.97 286.98 558.71 C 284.46 558.56 282.26 559.97 279.96 560.75 C 282.66 557.33 287.12 556.94 291.15 557.35 C 289.56 555.30 287.01 554.51 284.85 553.28 C 291.22 552.88 294.74 559.94 300.90 560.53 C 299.61 558.13 296.90 557.37 294.75 556.01 C 300.23 555.72 303.45 562.41 309.00 561.22 C 312.68 559.84 312.89 554.99 310.96 552.07 C 309.51 549.38 306.71 545.54 303.22 547.29 C 299.53 548.22 297.97 552.76 294.00 552.94 C 295.34 551.84 296.69 550.76 298.03 549.66 C 296.12 548.48 293.94 547.90 291.82 547.25 C 294.17 547.22 296.53 547.69 298.88 547.39 C 300.80 546.69 302.60 545.70 304.44 544.81 C 303.10 543.30 301.69 541.72 299.73 541.04 C 297.41 541.76 295.20 542.89 292.73 543.01 C 294.70 541.62 296.89 540.57 298.85 539.17 C 295.90 537.68 292.67 537.10 289.39 537.19 C 290.87 535.07 293.35 535.19 295.64 535.52 C 295.18 532.98 294.78 530.25 296.39 528.03 C 296.36 529.99 296.05 532.04 296.84 533.92 C 297.81 537.35 301.04 539.23 303.63 541.34 C 303.85 537.08 304.32 532.34 308.14 529.68 C 307.26 531.97 306.33 534.25 305.69 536.62 C 307.88 535.90 309.46 534.19 311.25 532.84 C 310.06 535.70 307.32 537.39 305.65 539.91 C 305.35 543.25 308.64 545.32 311.08 546.94 C 315.03 549.56 319.86 546.64 323.03 544.05 C 326.62 541.28 327.09 534.92 322.96 532.42 C 320.19 532.58 317.34 534.08 314.66 532.59 C 317.00 531.98 319.36 531.45 321.73 530.93 C 319.71 529.38 317.72 527.74 316.48 525.48 C 314.98 522.56 311.80 521.28 309.71 518.89 C 312.13 519.66 314.18 521.60 316.78 521.73 C 317.52 520.59 318.02 519.31 318.58 518.09 C 318.85 518.21 319.40 518.46 319.68 518.58 C 318.85 520.85 315.95 523.42 317.98 525.85 C 320.81 528.39 324.05 530.45 326.75 533.16 C 327.96 527.69 327.31 522.08 325.15 516.95 C 326.75 518.34 327.74 520.20 328.30 522.23 Z" />
<path fill="#c2aa79" opacity="1.00" d=" M 559.99 514.82 C 562.17 517.04 563.83 519.69 565.80 522.09 C 566.72 520.33 567.68 518.58 568.82 516.94 C 567.57 522.22 566.35 527.58 567.68 533.01 C 570.58 529.54 575.27 528.01 577.55 524.04 C 576.30 521.84 574.90 519.52 575.20 516.88 C 576.03 518.71 576.95 520.50 578.04 522.21 C 580.26 520.87 582.54 519.52 585.14 519.04 C 582.95 520.86 580.18 522.07 578.62 524.56 C 577.06 527.04 575.07 529.21 572.70 530.94 C 575.18 531.49 577.66 532.04 580.14 532.61 C 577.90 533.49 575.56 533.45 573.33 532.61 C 570.27 531.50 568.28 535.42 568.62 537.98 C 568.30 541.56 571.08 544.34 573.96 545.97 C 576.85 547.60 580.65 549.14 583.60 546.77 C 585.86 545.11 589.73 542.67 588.38 539.41 C 586.62 537.36 584.56 535.58 583.05 533.33 C 583.37 533.37 584.01 533.44 584.34 533.48 C 585.56 534.73 586.91 535.86 588.42 536.80 C 588.34 534.19 587.16 531.88 586.09 529.58 C 589.92 532.20 590.68 536.99 590.84 541.29 C 595.42 538.54 598.72 533.91 598.54 528.38 C 599.57 530.67 599.43 533.12 598.56 535.44 C 600.94 535.23 603.86 535.02 605.22 537.47 C 601.87 537.07 598.23 537.29 595.61 539.68 C 597.75 540.73 599.95 541.69 602.12 542.73 C 598.83 543.79 595.82 539.74 592.90 541.97 C 591.73 542.72 590.80 543.77 589.83 544.76 C 591.88 545.73 593.88 546.89 596.08 547.54 C 598.34 547.48 600.62 547.24 602.90 547.39 C 600.78 547.96 598.66 548.45 596.54 548.96 C 597.64 550.44 598.82 551.85 599.99 553.29 C 595.94 551.52 593.51 547.28 588.91 546.46 C 584.80 548.66 581.29 553.50 582.60 558.31 C 583.32 561.31 587.32 562.19 589.73 560.68 C 592.82 558.91 595.61 556.31 599.30 555.88 C 597.43 557.44 594.79 558.15 593.62 560.44 C 599.68 559.78 603.11 553.25 609.33 553.04 C 607.24 554.56 604.84 555.62 602.91 557.36 C 606.87 557.09 611.77 556.98 614.19 560.80 C 608.21 556.89 601.01 559.56 595.14 562.26 C 599.86 562.76 602.42 567.27 605.98 569.88 C 602.40 569.44 600.33 566.32 597.76 564.19 C 597.65 565.84 597.54 567.49 597.44 569.15 C 596.35 567.34 596.56 564.07 593.99 563.78 C 589.60 563.69 584.65 563.09 580.96 565.99 C 578.39 567.85 574.79 570.29 575.65 573.98 C 576.63 576.52 578.43 579.03 580.95 580.22 C 585.05 580.51 589.52 576.23 593.26 579.66 C 590.69 579.80 587.84 579.11 585.74 581.02 C 587.38 582.20 588.90 583.77 590.92 584.32 C 594.08 584.71 597.58 583.71 600.40 585.64 C 596.14 585.43 591.75 586.08 587.63 584.68 C 588.07 585.89 588.48 587.12 588.88 588.36 C 586.48 585.96 585.84 581.61 581.65 581.88 C 582.42 584.22 582.93 586.70 584.15 588.87 C 585.51 590.65 587.34 592.07 588.38 594.11 C 586.41 592.89 584.57 591.50 582.71 590.15 C 582.05 592.46 581.61 594.82 581.44 597.23 C 579.26 593.05 582.33 588.17 580.09 584.04 C 579.75 583.30 579.08 581.81 578.75 581.07 C 576.39 584.12 574.72 587.59 573.15 591.09 C 573.16 587.10 575.86 583.84 576.36 580.00 C 575.80 576.53 572.27 574.32 569.00 573.90 C 566.09 574.29 564.45 576.97 563.13 579.29 C 561.45 582.35 559.68 585.35 557.58 588.14 C 557.68 588.86 557.89 590.31 557.99 591.03 C 555.60 593.86 553.00 596.52 550.16 598.92 C 549.57 598.67 548.40 598.18 547.82 597.94 C 547.99 598.71 548.34 600.25 548.51 601.02 C 545.20 603.42 541.49 608.44 536.94 606.11 C 536.88 606.75 536.75 608.03 536.69 608.67 C 533.58 610.92 530.47 613.17 527.12 615.05 C 526.62 614.76 525.62 614.17 525.12 613.88 C 526.18 617.07 523.76 619.62 522.21 622.14 C 520.82 624.08 519.58 626.61 516.88 626.82 C 514.72 632.10 513.58 638.17 515.34 643.73 C 517.24 648.08 522.68 648.38 526.27 650.73 C 528.70 653.10 530.09 656.35 530.90 659.61 C 530.31 659.64 529.13 659.70 528.54 659.73 C 529.17 655.37 526.28 650.68 521.61 650.44 C 523.03 652.75 525.02 655.00 524.78 657.91 C 524.64 659.89 525.47 661.62 526.63 663.16 C 526.24 664.04 525.34 664.48 524.62 665.06 C 523.93 662.38 523.44 659.65 523.10 656.91 C 521.93 657.91 521.48 659.42 520.92 660.79 C 521.90 662.34 522.26 665.50 519.49 664.54 C 519.06 660.73 522.11 657.00 520.57 653.24 C 518.85 651.31 516.55 650.02 514.84 648.10 C 513.72 646.69 513.07 644.85 511.45 643.92 C 511.47 646.49 510.98 649.30 512.28 651.67 C 513.89 654.70 515.48 657.78 516.42 661.11 C 516.91 662.42 514.82 662.61 514.18 663.26 C 515.46 657.66 510.87 653.71 509.62 648.69 C 507.01 653.77 504.26 659.01 504.55 664.92 C 503.76 664.58 503.03 664.17 502.34 663.69 C 503.03 661.79 503.95 659.94 504.22 657.92 C 504.71 653.43 508.18 649.93 508.41 645.37 C 503.54 651.67 497.44 657.34 494.60 664.95 C 494.49 666.68 495.13 671.04 492.27 668.92 C 493.11 663.91 494.91 659.15 497.82 654.98 C 492.54 656.67 487.42 660.32 485.21 665.54 C 484.64 665.61 483.50 665.75 482.92 665.82 C 484.30 661.51 488.82 659.16 491.71 655.88 C 489.48 655.34 487.12 655.05 485.11 653.90 C 485.28 652.91 485.54 651.94 485.88 651.01 C 487.99 653.22 490.77 655.02 493.99 654.27 C 502.33 652.98 506.84 644.54 509.57 637.39 C 504.29 641.02 498.85 644.48 492.85 646.80 C 489.26 648.38 484.91 649.35 482.74 652.97 C 481.75 654.59 482.18 657.33 479.84 657.79 C 479.68 657.35 479.36 656.47 479.20 656.03 C 481.46 651.81 484.90 648.38 489.05 646.01 C 486.52 645.00 483.78 644.55 481.31 645.95 C 480.72 646.96 480.80 648.99 479.13 648.79 C 478.49 648.11 478.13 647.27 478.04 646.28 C 480.02 645.33 481.95 644.27 484.06 643.61 C 487.77 643.83 491.51 645.21 495.20 644.05 C 496.09 640.99 491.33 639.91 489.06 639.27 C 489.20 638.02 490.13 635.50 491.77 636.94 C 493.81 639.72 497.27 642.61 500.94 641.06 C 506.96 638.42 511.31 632.88 513.95 627.00 C 515.09 624.97 513.73 622.54 514.73 620.48 C 516.00 617.54 517.85 614.92 519.50 612.20 C 520.79 612.28 522.07 612.36 523.37 612.46 C 523.37 611.68 523.37 610.11 523.36 609.33 C 526.23 606.50 529.38 603.95 532.97 602.08 C 533.47 602.45 534.49 603.18 535.00 603.55 C 536.21 598.91 541.12 594.74 546.08 595.39 C 545.72 592.54 547.97 590.66 549.74 588.84 C 551.45 587.21 553.20 584.96 555.89 585.68 C 558.27 581.66 559.41 576.65 557.75 572.15 C 556.82 569.63 553.77 568.32 551.31 569.40 C 544.92 571.47 538.53 576.77 538.26 583.93 C 537.53 582.27 537.27 580.48 537.12 578.71 C 535.32 578.74 533.52 578.77 531.73 578.63 C 533.53 578.17 535.38 577.93 537.15 577.35 C 539.79 575.62 541.78 573.11 543.79 570.72 C 541.09 570.60 538.52 571.31 536.21 572.67 C 536.25 572.42 536.32 571.93 536.35 571.69 C 537.47 570.89 538.58 570.09 539.70 569.29 C 536.67 567.48 533.27 566.52 529.74 566.50 C 532.45 565.14 535.50 565.59 538.27 566.53 C 537.75 565.06 537.47 563.55 538.16 562.10 C 538.55 565.60 541.16 569.32 545.01 569.10 C 549.76 567.65 553.80 563.72 555.35 559.00 C 556.87 554.21 551.70 549.46 547.04 550.71 C 544.00 552.25 541.69 554.91 538.62 556.43 C 535.81 557.74 533.78 560.09 531.77 562.37 C 532.30 560.76 532.94 559.18 533.63 557.64 C 532.03 558.11 530.44 558.59 528.82 558.95 C 531.21 555.89 536.36 557.54 538.30 554.23 C 535.08 553.28 532.15 551.51 529.97 548.94 C 532.70 549.80 534.68 552.46 537.66 552.51 C 536.55 550.87 535.32 549.34 534.07 547.83 C 536.61 548.27 537.76 550.67 539.01 552.64 C 541.80 552.57 543.87 550.61 545.91 548.95 C 542.18 545.90 537.30 546.17 532.81 546.64 C 530.79 545.60 529.20 544.01 528.18 541.99 C 530.04 543.02 531.70 544.93 534.00 544.72 C 536.91 544.54 539.83 544.52 542.73 544.91 C 541.53 542.58 541.03 539.47 538.29 538.46 C 541.49 537.69 538.05 535.17 537.12 533.84 C 540.84 534.68 542.23 538.09 542.63 541.56 C 544.42 539.20 544.46 536.24 544.41 533.41 C 547.45 536.73 543.05 541.15 545.28 544.72 C 546.31 546.94 548.84 547.72 550.99 548.40 C 555.17 549.68 560.24 549.74 563.64 546.60 C 566.63 543.63 566.83 538.96 566.14 535.05 C 564.95 531.55 560.91 531.25 557.98 530.09 C 555.94 528.54 555.33 525.77 554.22 523.57 C 556.41 525.20 557.41 527.98 559.85 529.33 C 559.14 525.68 557.27 522.45 554.86 519.68 C 557.03 520.33 558.46 522.05 559.37 524.07 C 559.87 523.28 560.38 522.49 560.90 521.72 C 560.91 523.93 560.23 526.44 561.66 528.39 C 562.62 529.93 564.46 530.49 565.98 531.33 C 565.69 528.51 565.85 525.44 564.32 522.94 C 562.70 520.33 560.89 517.79 559.99 514.82 Z" />
<path fill="#c2aa79" opacity="1.00" d=" M 207.83 632.96 C 198.53 620.45 199.19 602.07 208.51 589.75 C 206.07 595.28 210.69 600.17 213.57 604.44 C 219.32 611.81 219.09 621.68 222.91 629.92 C 226.02 637.38 231.60 643.51 238.24 648.01 C 226.43 648.44 214.78 642.41 207.83 632.96 Z" />
<path fill="#c2aa79" opacity="1.00" d=" M 690.18 590.56 L 691.96 590.23 C 691.87 590.50 691.68 591.05 691.59 591.32 C 698.08 601.13 699.70 614.07 695.43 625.08 C 690.15 638.95 675.49 648.56 660.68 648.02 C 667.37 643.55 672.92 637.38 676.06 629.93 C 679.35 622.76 679.65 614.60 683.31 607.58 C 685.87 603.07 690.07 599.31 691.10 594.05 C 691.86 592.65 690.84 591.60 690.18 590.56 Z" />
</g>
<g id="#252f41ff">
<path fill="#252f41" opacity="1.00" d=" M 446.99 1.66 C 447.34 1.31 448.04 0.61 448.39 0.26 C 449.25 1.14 450.06 2.08 450.89 2.99 C 454.40 5.52 456.95 9.05 459.99 12.07 C 472.48 24.60 485.48 36.65 499.42 47.56 C 511.15 57.17 523.62 65.98 537.10 72.96 C 546.83 77.82 557.70 82.22 568.78 80.06 C 573.69 99.04 585.51 116.06 601.21 127.72 C 616.29 139.03 634.46 145.68 652.94 148.82 C 657.30 149.54 661.00 152.06 664.83 154.11 C 673.59 158.99 682.44 163.71 691.06 168.84 C 698.31 173.19 705.85 177.12 712.48 182.42 C 714.05 183.59 715.63 184.77 717.22 185.95 C 713.57 191.69 710.19 197.61 706.93 203.59 C 680.45 254.33 668.59 312.55 672.51 369.61 C 668.17 368.81 663.75 368.45 659.34 368.77 C 662.11 370.93 664.96 373.29 666.23 376.70 C 668.44 382.12 669.29 388.57 674.39 392.25 C 674.61 393.22 674.82 394.20 675.03 395.18 C 676.26 403.60 677.64 411.99 679.50 420.29 C 680.20 423.31 680.81 426.34 681.44 429.38 C 684.05 431.06 687.36 431.30 689.88 433.18 C 691.47 434.46 692.71 436.12 694.04 437.67 C 693.87 439.59 693.80 441.52 693.73 443.45 C 694.26 443.13 695.31 442.48 695.84 442.15 C 698.43 450.43 699.03 459.17 698.94 467.80 C 698.34 483.26 695.80 498.81 690.14 513.25 C 676.87 519.78 660.32 511.43 654.22 498.72 C 647.23 485.17 653.26 467.72 665.41 459.28 C 668.44 462.90 672.81 465.07 677.61 464.55 C 678.88 468.78 681.47 472.58 685.64 474.35 C 685.20 468.33 685.27 462.17 687.18 456.38 C 688.51 451.73 691.08 447.59 693.57 443.49 C 677.55 443.45 662.86 453.07 653.72 465.76 C 644.91 477.94 641.54 493.15 641.03 507.95 C 640.47 526.22 645.12 544.06 649.12 561.73 C 650.85 561.21 652.60 560.70 654.34 560.18 C 652.30 564.51 650.40 569.07 650.31 573.93 C 650.00 576.87 650.93 580.31 648.76 582.73 C 619.27 620.21 588.48 657.07 552.19 688.21 C 544.52 694.53 536.69 700.66 528.92 706.87 C 503.18 725.96 476.28 743.40 449.98 761.70 C 434.51 751.25 419.12 740.66 403.44 730.54 C 388.93 720.83 374.23 711.36 360.47 700.61 C 317.44 669.05 282.23 628.36 249.15 586.85 C 246.94 584.72 248.55 581.64 248.59 579.04 C 249.48 572.53 247.57 566.04 244.64 560.29 C 246.38 560.75 248.13 561.21 249.88 561.66 C 254.74 540.16 260.56 518.00 256.78 495.84 C 254.94 482.10 249.19 468.63 239.31 458.75 C 230.39 449.74 218.25 443.44 205.38 443.47 C 211.69 452.40 214.70 463.44 213.32 474.34 C 217.50 472.58 220.08 468.77 221.35 464.55 C 226.08 465.02 230.50 463.03 233.43 459.32 C 245.34 467.30 251.34 484.01 245.37 497.39 C 240.15 509.54 226.19 518.03 212.97 514.86 C 210.48 514.21 207.07 513.63 206.63 510.55 C 201.44 492.08 198.64 472.97 198.12 453.80 C 198.04 449.08 198.58 444.39 199.06 439.71 C 201.16 440.91 203.19 442.22 205.26 443.47 C 205.25 438.56 204.45 433.69 202.84 429.05 L 202.55 427.98 C 202.98 426.85 203.44 425.74 203.96 424.66 C 205.51 422.65 207.31 420.83 209.28 419.23 C 212.29 418.02 215.42 417.10 218.64 416.62 C 220.36 409.04 222.27 401.49 223.35 393.79 C 226.69 378.41 227.61 362.62 228.32 346.93 C 229.69 297.45 218.13 247.11 192.31 204.62 C 188.68 198.84 184.85 193.18 180.65 187.80 C 182.36 186.37 184.07 184.94 185.81 183.53 C 199.10 173.25 213.69 164.77 227.89 155.83 C 232.46 153.26 236.60 149.54 241.95 148.75 C 261.80 145.37 281.32 137.84 296.94 124.90 C 310.87 113.42 321.25 97.55 325.82 80.06 C 331.76 81.03 337.86 80.42 343.54 78.42 C 357.31 73.77 369.63 65.76 381.51 57.53 C 399.05 44.98 415.56 31.02 431.52 16.51 C 436.70 11.60 442.16 6.95 446.99 1.66 M 512.90 186.36 C 514.49 189.12 516.15 192.59 520.00 191.87 C 519.11 193.97 519.09 196.20 520.36 198.17 C 519.81 199.13 519.27 200.10 518.73 201.07 C 519.78 201.18 520.84 201.29 521.91 201.40 C 516.66 201.63 512.94 207.31 514.74 212.20 C 516.45 217.20 523.62 218.07 523.54 223.98 C 526.69 226.49 528.46 221.99 530.91 220.71 C 531.29 223.79 531.28 226.89 531.24 229.98 C 531.17 256.29 531.30 282.60 531.17 308.91 C 534.40 308.94 537.64 308.95 540.88 308.94 C 540.79 283.98 540.90 259.01 540.82 234.05 C 540.86 231.44 540.86 228.43 542.99 226.55 C 546.17 225.48 547.31 229.58 547.28 231.97 C 547.35 257.61 547.34 283.26 547.27 308.90 C 550.79 309.04 554.31 309.06 557.83 308.95 C 557.77 289.58 557.82 270.21 557.80 250.84 C 559.95 250.85 562.11 250.85 564.27 250.82 C 564.25 270.19 564.31 289.56 564.24 308.93 C 567.76 308.97 571.28 308.96 574.80 308.94 C 574.73 283.31 574.72 257.67 574.80 232.03 C 574.78 229.64 575.84 225.54 579.05 226.51 C 581.22 228.37 581.20 231.41 581.25 234.03 C 581.17 258.99 581.29 283.96 581.18 308.92 C 584.41 308.94 587.64 308.94 590.88 308.95 C 590.82 279.86 590.85 250.78 590.86 221.69 C 594.35 220.97 594.31 226.55 597.93 225.68 C 599.95 224.23 599.12 220.83 601.50 219.54 C 605.09 217.01 610.16 214.24 609.14 208.97 C 609.06 204.76 604.74 203.28 601.71 201.51 C 602.61 201.39 604.42 201.15 605.32 201.04 C 604.72 200.11 604.13 199.19 603.54 198.28 C 605.51 196.48 605.62 194.04 604.25 191.83 C 606.84 192.07 609.00 191.23 609.61 188.54 C 610.73 187.77 611.88 187.01 613.02 186.24 C 579.65 186.33 546.27 185.87 512.90 186.36 M 284.99 187.57 C 286.22 190.62 288.22 193.81 292.05 193.09 C 291.07 195.08 290.90 197.31 292.15 199.26 C 291.68 200.33 291.22 201.40 290.76 202.48 C 291.56 202.44 293.15 202.36 293.95 202.32 C 290.57 203.30 287.01 205.20 286.42 209.04 C 284.98 214.01 289.35 217.60 292.98 220.02 C 295.44 221.22 294.22 225.33 297.02 225.96 C 299.75 226.24 300.48 222.46 303.13 222.34 C 303.11 251.24 303.11 280.14 303.12 309.04 C 306.34 308.96 309.55 308.93 312.78 308.91 C 312.69 283.95 312.74 258.99 312.74 234.03 C 312.57 231.27 313.54 228.56 316.00 227.11 C 318.44 228.59 319.34 231.33 319.20 234.07 C 319.22 259.05 319.20 284.04 319.20 309.02 C 322.71 309.10 326.23 309.06 329.74 308.91 C 329.65 290.00 329.68 271.08 329.71 252.16 C 331.85 252.21 334.00 252.21 336.15 252.15 C 336.15 271.10 336.17 290.06 336.15 309.02 C 339.67 309.08 343.19 309.03 346.71 308.86 C 346.57 283.91 346.67 258.95 346.65 233.99 C 346.48 231.22 347.46 228.44 350.04 227.10 C 352.24 228.73 353.27 231.31 353.10 234.02 C 353.14 259.03 353.10 284.05 353.12 309.07 C 356.33 309.03 359.55 308.97 362.76 308.92 C 362.77 280.25 362.62 251.58 362.84 222.91 C 366.27 222.48 366.24 227.89 369.92 226.96 C 371.46 225.55 371.13 222.99 372.61 221.51 C 374.66 219.54 377.35 218.37 379.30 216.29 C 381.29 214.15 381.28 210.93 380.57 208.27 C 379.39 205.01 375.68 204.29 373.06 202.60 C 374.47 202.51 375.87 202.41 377.28 202.32 C 376.82 201.76 375.91 200.63 375.45 200.07 C 376.85 197.80 377.88 195.36 375.93 193.06 C 377.22 192.99 378.51 192.84 379.80 192.62 C 381.09 190.50 382.74 188.67 384.91 187.40 C 351.60 187.71 318.29 187.12 284.99 187.57 M 308.10 317.12 C 297.06 323.87 296.21 341.93 306.45 349.77 C 313.76 355.14 323.61 354.93 332.08 353.00 C 332.94 350.05 333.48 347.02 333.58 343.96 C 332.61 345.86 331.92 347.92 330.68 349.67 C 327.43 352.32 322.86 352.25 318.92 351.71 C 311.20 350.50 304.90 343.71 303.97 336.01 C 303.44 331.44 303.72 326.42 306.27 322.45 C 310.92 315.10 321.58 314.79 328.76 318.21 C 331.81 319.37 331.97 322.94 332.66 325.63 C 333.31 322.36 333.29 319.02 333.42 315.71 C 325.08 314.34 315.85 312.75 308.10 317.12 M 353.49 314.76 C 348.42 315.68 344.03 319.04 341.37 323.38 C 336.07 331.81 337.70 344.09 345.59 350.36 C 351.82 355.11 360.88 355.47 367.75 351.86 C 378.32 346.19 381.40 330.40 373.93 321.08 C 369.18 315.07 360.73 313.23 353.49 314.76 M 427.91 314.33 C 427.24 316.57 426.70 318.84 426.31 321.15 C 427.59 319.87 428.49 317.91 430.43 317.55 C 433.84 317.01 437.31 317.28 440.76 317.24 C 440.62 327.84 441.03 338.47 440.56 349.06 C 440.68 351.43 438.89 352.53 436.83 353.03 C 441.30 353.13 445.82 353.44 450.27 352.92 C 448.52 352.23 445.39 352.58 445.30 350.02 C 444.69 339.10 445.18 328.14 445.05 317.20 C 448.66 317.34 452.43 316.86 455.93 317.99 C 457.60 318.48 457.72 320.58 458.45 321.90 C 458.58 319.34 458.74 316.79 458.82 314.24 C 453.71 315.86 448.31 315.08 443.06 315.24 C 438.00 315.11 432.84 315.78 427.91 314.33 M 495.08 313.87 C 494.26 325.87 495.15 337.93 494.62 349.94 C 494.60 351.82 492.70 352.28 491.24 352.69 C 491.24 352.84 491.25 353.16 491.25 353.32 C 495.21 352.93 499.18 353.38 503.14 353.00 C 501.64 352.45 499.92 352.34 498.61 351.38 C 497.88 349.67 497.92 347.77 497.80 345.95 C 497.64 338.22 497.25 330.49 497.20 322.76 C 507.68 333.01 516.58 344.86 527.68 354.45 C 528.56 342.32 527.60 330.13 528.18 318.00 C 528.44 316.08 530.85 316.01 532.20 315.14 C 528.19 315.49 524.17 315.52 520.18 315.07 L 520.10 315.61 C 521.95 316.07 524.98 316.19 524.83 318.84 C 525.10 328.10 525.47 337.36 525.46 346.63 C 514.95 336.07 505.59 324.43 495.08 313.87 M 577.53 315.47 C 572.85 317.49 571.60 323.74 573.75 328.03 C 576.31 333.37 582.10 335.87 585.70 340.34 C 587.72 342.83 588.30 346.67 586.32 349.36 C 584.04 352.74 579.07 352.95 575.67 351.34 C 573.19 350.05 572.69 347.16 572.07 344.72 C 571.59 347.24 571.24 349.84 571.66 352.40 C 575.17 354.80 580.10 354.62 584.10 353.47 C 590.69 351.39 593.06 342.40 589.01 337.00 C 585.64 331.54 578.16 329.48 576.09 323.18 C 574.46 316.27 584.65 313.56 588.38 318.38 C 588.97 319.66 589.38 321.03 589.89 322.36 C 590.00 320.01 590.05 317.67 590.13 315.32 C 586.01 314.41 581.50 313.49 577.53 315.47 M 386.03 350.11 C 386.20 352.47 383.46 352.22 381.93 352.90 C 386.01 353.28 390.17 353.40 394.24 352.91 C 392.93 352.56 391.64 352.17 390.36 351.75 C 389.07 349.40 389.33 346.63 389.22 344.05 C 389.16 336.99 388.79 329.95 388.73 322.91 C 399.28 333.02 408.14 344.87 419.12 354.57 C 419.85 346.08 419.32 337.55 419.48 329.04 C 419.67 324.90 418.89 320.62 420.16 316.59 C 421.25 316.17 422.32 315.71 423.38 315.21 C 419.36 315.51 415.35 315.30 411.34 315.30 C 413.30 316.01 416.40 316.31 416.38 319.08 C 416.73 328.32 416.88 337.58 416.95 346.84 C 406.68 336.04 397.10 324.58 386.65 313.97 C 385.56 325.97 386.79 338.09 386.03 350.11 M 462.67 315.20 C 464.39 316.01 467.19 316.14 467.37 318.56 C 467.75 322.66 467.42 326.80 467.52 330.92 C 467.29 337.94 468.11 345.05 466.83 352.00 C 466.19 352.17 464.91 352.52 464.27 352.69 C 464.29 352.86 464.33 353.18 464.35 353.35 C 471.00 352.75 477.68 353.43 484.35 353.29 C 485.18 350.92 485.48 348.42 485.63 345.92 C 484.71 347.51 484.23 349.58 482.60 350.61 C 480.16 351.30 477.57 351.42 475.07 351.11 C 473.80 351.03 472.08 350.51 472.02 348.99 C 471.43 344.02 471.91 339.00 471.76 334.01 C 475.10 334.10 478.61 333.70 481.78 335.04 C 481.95 335.88 482.30 337.54 482.47 338.37 C 482.99 335.97 483.23 333.53 483.57 331.11 C 479.84 332.66 475.76 332.23 471.83 332.22 C 471.71 327.15 471.77 322.08 471.76 317.01 C 474.96 317.09 478.28 316.77 481.39 317.69 C 482.65 318.59 482.98 320.25 483.68 321.55 C 483.81 319.22 484.02 316.90 484.29 314.59 C 477.17 315.94 469.87 314.95 462.67 315.20 M 536.11 314.51 C 535.70 316.76 535.24 318.99 534.88 321.25 C 536.12 319.92 537.03 317.85 539.01 317.53 C 542.37 317.04 545.78 317.26 549.16 317.22 C 549.34 325.48 549.18 333.74 549.26 342.00 C 549.22 345.22 549.37 348.51 548.50 351.64 C 547.83 351.99 546.49 352.70 545.83 353.05 C 549.96 353.09 554.14 353.41 558.25 352.92 C 556.93 352.57 555.64 352.17 554.37 351.73 C 553.31 348.93 553.48 345.88 553.45 342.95 C 553.54 334.36 553.36 325.77 553.55 317.19 C 557.08 317.32 560.73 316.89 564.15 317.92 C 565.82 318.30 566.19 320.14 566.93 321.42 C 567.09 319.06 567.23 316.70 567.34 314.34 C 562.66 315.63 557.79 315.21 553.00 315.23 C 547.36 315.17 541.68 315.61 536.11 314.51 M 531.20 360.19 C 531.25 393.55 531.21 426.92 531.23 460.29 C 526.96 459.63 524.22 463.25 520.70 464.88 C 520.99 465.34 521.57 466.25 521.87 466.70 C 521.08 466.72 519.49 466.76 518.70 466.78 C 519.24 467.78 519.78 468.79 520.34 469.81 C 519.09 471.76 519.11 474.00 520.01 476.09 C 517.98 476.25 514.67 476.02 515.04 479.06 C 514.79 481.40 517.15 481.89 518.96 481.70 C 548.01 481.65 577.06 481.75 606.10 481.66 C 609.05 482.34 609.86 478.30 608.20 476.64 C 606.89 476.28 605.53 476.23 604.21 476.09 C 605.58 473.92 605.57 471.49 603.60 469.69 C 604.18 468.72 604.76 467.76 605.34 466.80 C 603.97 466.74 602.59 466.68 601.23 466.65 C 601.67 466.24 602.57 465.43 603.01 465.02 C 600.99 463.68 599.06 462.21 597.29 460.56 C 595.14 460.49 592.99 460.45 590.85 460.42 C 590.86 427.00 590.83 393.59 590.86 360.17 C 587.65 360.19 584.43 360.19 581.22 360.17 C 581.16 385.18 581.35 410.20 581.13 435.22 C 579.52 435.43 577.92 435.65 576.32 435.90 C 577.07 437.06 577.86 438.21 578.68 439.34 C 578.47 439.90 578.05 441.03 577.85 441.60 C 576.81 440.75 575.79 439.90 574.78 439.06 C 574.75 412.77 574.74 386.48 574.79 360.19 C 571.27 360.18 567.75 360.18 564.24 360.20 C 564.31 379.52 564.24 398.84 564.28 418.16 C 562.13 417.78 559.96 417.71 557.81 417.93 C 557.82 398.68 557.77 379.43 557.83 360.19 C 554.31 360.18 550.79 360.18 547.28 360.22 C 547.38 384.81 547.25 409.40 547.34 434.00 C 547.26 436.90 548.11 440.55 544.84 442.04 C 543.87 439.87 545.27 437.90 546.13 436.01 C 544.51 435.87 542.91 435.75 541.31 435.63 C 541.09 434.09 540.86 432.56 540.83 431.03 C 540.87 407.41 540.83 383.79 540.85 360.17 C 537.63 360.19 534.42 360.19 531.20 360.19 M 303.11 361.13 C 303.12 394.20 303.12 427.28 303.11 460.35 C 298.84 459.59 296.09 463.24 292.61 464.92 C 292.92 465.37 293.54 466.25 293.85 466.69 C 293.05 466.72 291.46 466.78 290.66 466.81 C 291.17 467.81 291.69 468.82 292.20 469.84 C 290.95 471.80 291.03 474.02 291.96 476.10 C 290.54 476.24 289.12 476.31 287.73 476.63 C 286.57 478.08 287.21 479.93 287.55 481.54 C 317.72 481.85 347.90 481.66 378.06 481.66 C 380.23 482.11 381.53 479.84 380.82 477.97 C 380.53 475.69 377.69 476.57 376.12 476.08 C 377.47 473.90 377.48 471.43 375.44 469.65 C 376.06 468.74 376.68 467.83 377.31 466.92 C 375.94 466.79 374.57 466.68 373.21 466.58 C 373.63 466.20 374.47 465.43 374.89 465.05 C 373.33 463.92 371.81 462.75 370.28 461.59 C 368.24 459.70 365.23 460.65 362.74 460.41 C 362.76 427.33 362.69 394.25 362.77 361.17 C 359.55 361.16 356.33 361.15 353.11 361.13 C 353.03 385.80 353.27 410.46 353.00 435.13 C 351.30 435.37 349.56 435.61 348.09 436.55 C 348.95 437.46 349.81 438.37 350.69 439.28 C 350.47 439.86 350.02 441.01 349.80 441.59 C 348.74 440.75 347.69 439.91 346.65 439.07 C 346.68 413.11 346.59 387.15 346.69 361.19 C 343.17 361.16 339.66 361.15 336.15 361.14 C 336.17 380.16 336.14 399.18 336.17 418.20 C 334.03 417.80 331.86 417.71 329.70 417.90 C 329.70 398.99 329.65 380.08 329.72 361.17 C 326.21 361.16 322.70 361.15 319.19 361.15 C 319.23 386.78 319.21 412.41 319.20 438.04 C 319.58 439.88 318.09 440.96 316.93 442.06 C 315.54 439.97 317.21 437.98 318.01 436.07 C 316.39 435.91 314.78 435.75 313.17 435.61 C 312.90 433.72 312.68 431.83 312.70 429.94 C 312.80 407.02 312.67 384.09 312.76 361.17 C 309.54 361.16 306.33 361.16 303.11 361.13 M 209.19 502.02 C 211.85 496.01 218.96 495.81 224.02 493.02 C 229.25 489.41 228.74 482.36 231.20 477.12 C 232.22 474.35 234.75 472.70 237.07 471.12 C 220.37 468.66 207.08 486.43 209.19 502.02 M 661.88 471.10 C 664.18 472.69 666.70 474.32 667.74 477.07 C 670.22 482.33 669.70 489.45 674.99 493.05 C 680.06 495.80 687.10 496.06 689.81 502.03 C 690.93 491.30 685.80 480.07 676.62 474.30 C 672.30 471.38 667.00 470.50 661.88 471.10 M 328.30 522.23 C 327.74 520.20 326.75 518.34 325.15 516.95 C 327.31 522.08 327.96 527.69 326.75 533.16 C 324.05 530.45 320.81 528.39 317.98 525.85 C 315.95 523.42 318.85 520.85 319.68 518.58 C 319.40 518.46 318.85 518.21 318.58 518.09 C 318.02 519.31 317.52 520.59 316.78 521.73 C 314.18 521.60 312.13 519.66 309.71 518.89 C 311.80 521.28 314.98 522.56 316.48 525.48 C 317.72 527.74 319.71 529.38 321.73 530.93 C 319.36 531.45 317.00 531.98 314.66 532.59 C 317.34 534.08 320.19 532.58 322.96 532.42 C 327.09 534.92 326.62 541.28 323.03 544.05 C 319.86 546.64 315.03 549.56 311.08 546.94 C 308.64 545.32 305.35 543.25 305.65 539.91 C 307.32 537.39 310.06 535.70 311.25 532.84 C 309.46 534.19 307.88 535.90 305.69 536.62 C 306.33 534.25 307.26 531.97 308.14 529.68 C 304.32 532.34 303.85 537.08 303.63 541.34 C 301.04 539.23 297.81 537.35 296.84 533.92 C 296.05 532.04 296.36 529.99 296.39 528.03 C 294.78 530.25 295.18 532.98 295.64 535.52 C 293.35 535.19 290.87 535.07 289.39 537.19 C 292.67 537.10 295.90 537.68 298.85 539.17 C 296.89 540.57 294.70 541.62 292.73 543.01 C 295.20 542.89 297.41 541.76 299.73 541.04 C 301.69 541.72 303.10 543.30 304.44 544.81 C 302.60 545.70 300.80 546.69 298.88 547.39 C 296.53 547.69 294.17 547.22 291.82 547.25 C 293.94 547.90 296.12 548.48 298.03 549.66 C 296.69 550.76 295.34 551.84 294.00 552.94 C 297.97 552.76 299.53 548.22 303.22 547.29 C 306.71 545.54 309.51 549.38 310.96 552.07 C 312.89 554.99 312.68 559.84 309.00 561.22 C 303.45 562.41 300.23 555.72 294.75 556.01 C 296.90 557.37 299.61 558.13 300.90 560.53 C 294.74 559.94 291.22 552.88 284.85 553.28 C 287.01 554.51 289.56 555.30 291.15 557.35 C 287.12 556.94 282.66 557.33 279.96 560.75 C 282.26 559.97 284.46 558.56 286.98 558.71 C 291.14 558.97 295.13 560.34 298.87 562.13 C 294.34 563.22 291.84 567.46 288.09 569.86 C 291.72 569.62 293.94 566.56 296.32 564.23 C 296.63 565.68 296.93 567.14 297.22 568.61 C 298.06 566.76 298.15 563.34 300.99 563.72 C 305.07 563.73 309.65 563.18 313.13 565.77 C 315.59 567.62 318.66 569.72 319.14 572.98 C 317.98 575.88 316.32 579.30 313.10 580.28 C 308.96 580.01 304.78 576.66 300.75 579.49 C 302.53 579.60 304.31 579.59 306.08 579.81 C 307.62 579.41 308.74 581.59 307.15 582.27 C 303.52 586.03 297.97 583.14 293.79 585.57 C 298.03 585.45 302.42 586.12 306.51 584.71 C 306.10 586.14 305.70 587.60 305.38 589.08 C 307.56 586.30 308.37 581.58 312.80 581.94 C 311.99 584.31 311.32 586.76 310.21 589.02 C 308.69 590.90 306.54 592.35 305.83 594.79 C 307.74 593.22 309.58 591.56 311.46 589.96 C 312.56 592.47 312.67 595.23 312.66 597.94 C 314.94 592.44 311.79 585.83 315.98 580.96 C 317.74 584.25 319.82 587.42 320.76 591.08 C 321.19 587.10 318.64 583.79 318.07 580.01 C 318.45 576.38 322.08 574.88 324.99 573.59 C 331.53 575.79 332.61 583.65 336.88 588.31 C 336.63 589.09 336.38 589.88 336.13 590.67 C 339.18 593.56 341.55 599.04 346.42 598.46 C 346.38 599.25 346.30 600.84 346.26 601.64 C 349.60 603.69 352.63 607.71 357.00 606.58 C 358.71 610.83 363.58 612.43 367.05 614.98 C 367.55 614.77 368.54 614.36 369.03 614.15 C 368.83 618.39 371.89 621.64 374.16 624.88 C 375.23 626.64 378.08 626.55 378.32 628.90 C 380.00 634.30 381.44 640.80 377.83 645.75 C 374.97 648.26 371.02 648.86 367.87 650.88 C 365.70 653.10 364.84 656.21 363.42 658.90 C 364.14 659.30 364.87 659.70 365.60 660.11 C 365.21 655.56 368.00 650.87 372.78 650.24 C 369.25 654.44 369.37 659.95 368.13 665.01 C 371.69 664.05 370.25 659.18 371.19 656.49 C 372.22 657.92 373.05 659.47 373.77 661.08 C 373.32 661.61 372.41 662.67 371.96 663.20 C 372.89 663.88 373.85 664.53 374.85 665.14 C 374.90 661.31 373.26 657.65 373.57 653.83 C 374.98 651.50 377.54 650.26 379.39 648.34 C 380.61 646.77 381.55 645.00 382.89 643.52 C 384.95 650.62 378.29 655.85 378.04 662.70 C 378.68 662.69 379.96 662.67 380.61 662.66 C 378.88 657.45 383.46 653.61 384.81 648.99 C 387.04 653.35 389.87 657.80 389.41 662.93 C 389.08 664.40 390.98 664.39 391.85 664.91 C 390.75 660.22 389.96 655.35 387.69 651.06 C 386.60 648.88 385.96 646.52 385.37 644.17 C 390.08 651.18 396.78 656.93 399.85 664.96 C 399.87 666.82 399.19 668.87 401.02 670.21 C 403.03 664.81 399.02 659.61 396.75 654.94 C 402.05 656.89 407.20 660.53 409.44 665.88 C 410.07 665.68 411.33 665.28 411.97 665.08 C 409.01 661.94 406.03 658.82 402.80 655.96 C 405.28 655.12 412.07 654.79 408.27 651.05 C 406.28 653.57 403.21 655.01 399.99 654.22 C 391.94 652.70 387.59 644.60 384.91 637.62 C 390.02 640.74 394.95 644.21 400.57 646.40 C 405.30 648.35 411.72 649.97 412.62 655.94 C 412.56 657.79 415.25 658.35 415.44 656.21 C 412.84 652.18 409.93 648.08 405.22 646.38 C 407.61 644.99 410.46 644.36 412.92 645.94 C 413.48 647.13 413.84 649.14 415.62 648.84 C 417.34 646.84 415.02 645.37 413.31 644.75 C 408.61 641.78 402.88 646.68 398.26 643.17 C 400.13 641.31 402.34 639.76 405.05 639.47 C 404.83 638.16 404.82 636.62 403.15 636.50 C 400.89 639.11 397.89 642.44 394.01 641.26 C 386.82 638.61 382.47 631.72 379.49 625.04 C 379.82 624.52 380.47 623.48 380.80 622.97 C 379.16 619.19 377.16 615.58 374.80 612.21 C 373.59 612.26 372.39 612.31 371.19 612.37 C 371.29 610.81 370.98 609.29 369.73 608.28 C 367.45 605.92 364.85 603.85 361.93 602.35 C 361.21 602.66 359.77 603.28 359.05 603.59 C 358.98 598.77 353.93 596.49 350.09 594.94 C 349.59 595.23 348.59 595.82 348.09 596.12 C 348.18 595.53 348.37 594.35 348.46 593.76 C 346.87 590.34 343.86 587.82 340.92 585.56 C 337.57 586.58 336.98 582.33 336.14 580.02 C 335.06 576.00 335.84 569.50 340.97 569.00 C 348.47 570.09 354.60 576.12 356.76 583.25 C 357.08 581.75 357.27 580.23 357.37 578.72 C 359.01 578.81 360.67 578.85 362.30 578.60 C 357.16 578.37 353.47 574.70 350.60 570.81 C 353.60 570.50 356.39 571.63 359.05 572.87 C 357.70 571.58 356.26 570.38 354.78 569.25 C 357.92 567.35 361.48 566.51 365.13 566.43 C 362.20 565.27 359.10 565.40 356.23 566.69 C 356.42 565.09 356.63 563.51 356.79 561.92 C 355.65 565.31 353.65 568.32 350.10 569.49 C 345.12 567.80 340.74 564.04 338.95 559.02 C 337.37 554.02 343.20 548.94 347.94 550.97 C 350.95 552.93 353.58 555.47 356.85 557.04 C 359.58 558.29 361.05 561.01 363.08 563.06 C 362.36 561.22 361.51 559.43 360.65 557.67 C 362.22 558.12 363.80 558.57 365.40 558.93 C 362.91 555.95 358.19 557.28 355.74 554.39 C 358.98 553.27 362.32 551.83 364.20 548.79 C 361.79 550.15 359.52 551.74 357.09 553.07 C 357.64 551.07 358.81 549.37 359.95 547.68 C 357.65 548.59 356.63 550.91 354.99 552.57 C 352.58 552.64 350.46 550.90 349.13 549.06 C 351.46 545.74 356.37 546.47 359.97 546.48 C 362.93 546.93 364.86 544.28 366.28 542.12 C 364.30 543.18 362.46 545.11 360.02 544.70 C 357.23 544.47 354.43 544.54 351.69 545.06 C 352.73 542.66 353.45 539.93 355.71 538.35 C 355.32 538.11 354.54 537.64 354.15 537.40 C 355.13 536.21 356.12 535.05 357.06 533.83 C 353.19 534.90 351.93 538.69 351.77 542.32 C 350.15 539.46 349.38 536.08 350.59 532.92 C 346.30 536.25 352.05 541.85 348.52 545.62 C 345.04 548.90 339.60 549.63 335.03 548.92 C 328.91 547.56 326.21 539.96 328.51 534.57 C 330.01 531.30 333.98 531.26 336.81 529.83 C 338.42 528.09 339.15 525.74 340.11 523.62 C 338.04 525.38 336.83 527.94 334.56 529.49 C 335.33 525.45 337.18 521.56 340.73 519.27 C 338.19 520.01 336.04 521.50 334.83 523.92 C 334.41 523.37 333.58 522.28 333.17 521.74 C 333.27 523.77 333.98 525.97 333.04 527.92 C 332.05 529.57 330.21 530.37 328.67 531.40 C 328.68 529.07 328.33 526.60 329.32 524.42 C 330.79 521.14 333.57 518.46 334.14 514.79 C 332.18 517.26 330.43 519.89 328.30 522.23 M 559.99 514.82 C 560.89 517.79 562.70 520.33 564.32 522.94 C 565.85 525.44 565.69 528.51 565.98 531.33 C 564.46 530.49 562.62 529.93 561.66 528.39 C 560.23 526.44 560.91 523.93 560.90 521.72 C 560.38 522.49 559.87 523.28 559.37 524.07 C 558.46 522.05 557.03 520.33 554.86 519.68 C 557.27 522.45 559.14 525.68 559.85 529.33 C 557.41 527.98 556.41 525.20 554.22 523.57 C 555.33 525.77 555.94 528.54 557.98 530.09 C 560.91 531.25 564.95 531.55 566.14 535.05 C 566.83 538.96 566.63 543.63 563.64 546.60 C 560.24 549.74 555.17 549.68 550.99 548.40 C 548.84 547.72 546.31 546.94 545.28 544.72 C 543.05 541.15 547.45 536.73 544.41 533.41 C 544.46 536.24 544.42 539.20 542.63 541.56 C 542.23 538.09 540.84 534.68 537.12 533.84 C 538.05 535.17 541.49 537.69 538.29 538.46 C 541.03 539.47 541.53 542.58 542.73 544.91 C 539.83 544.52 536.91 544.54 534.00 544.72 C 531.70 544.93 530.04 543.02 528.18 541.99 C 529.20 544.01 530.79 545.60 532.81 546.64 C 537.30 546.17 542.18 545.90 545.91 548.95 C 543.87 550.61 541.80 552.57 539.01 552.64 C 537.76 550.67 536.61 548.27 534.07 547.83 C 535.32 549.34 536.55 550.87 537.66 552.51 C 534.68 552.46 532.70 549.80 529.97 548.94 C 532.15 551.51 535.08 553.28 538.30 554.23 C 536.36 557.54 531.21 555.89 528.82 558.95 C 530.44 558.59 532.03 558.11 533.63 557.64 C 532.94 559.18 532.30 560.76 531.77 562.37 C 533.78 560.09 535.81 557.74 538.62 556.43 C 541.69 554.91 544.00 552.25 547.04 550.71 C 551.70 549.46 556.87 554.21 555.35 559.00 C 553.80 563.72 549.76 567.65 545.01 569.10 C 541.16 569.32 538.55 565.60 538.16 562.10 C 537.47 563.55 537.75 565.06 538.27 566.53 C 535.50 565.59 532.45 565.14 529.74 566.50 C 533.27 566.52 536.67 567.48 539.70 569.29 C 538.58 570.09 537.47 570.89 536.35 571.69 C 536.32 571.93 536.25 572.42 536.21 572.67 C 538.52 571.31 541.09 570.60 543.79 570.72 C 541.78 573.11 539.79 575.62 537.15 577.35 C 535.38 577.93 533.53 578.17 531.73 578.63 C 533.52 578.77 535.32 578.74 537.12 578.71 C 537.27 580.48 537.53 582.27 538.26 583.93 C 538.53 576.77 544.92 571.47 551.31 569.40 C 553.77 568.32 556.82 569.63 557.75 572.15 C 559.41 576.65 558.27 581.66 555.89 585.68 C 553.20 584.96 551.45 587.21 549.74 588.84 C 547.97 590.66 545.72 592.54 546.08 595.39 C 541.12 594.74 536.21 598.91 535.00 603.55 C 534.49 603.18 533.47 602.45 532.97 602.08 C 529.38 603.95 526.23 606.50 523.36 609.33 C 523.37 610.11 523.37 611.68 523.37 612.46 C 522.07 612.36 520.79 612.28 519.50 612.20 C 517.85 614.92 516.00 617.54 514.73 620.48 C 513.73 622.54 515.09 624.97 513.95 627.00 C 511.31 632.88 506.96 638.42 500.94 641.06 C 497.27 642.61 493.81 639.72 491.77 636.94 C 490.13 635.50 489.20 638.02 489.06 639.27 C 491.33 639.91 496.09 640.99 495.20 644.05 C 491.51 645.21 487.77 643.83 484.06 643.61 C 481.95 644.27 480.02 645.33 478.04 646.28 C 478.13 647.27 478.49 648.11 479.13 648.79 C 480.80 648.99 480.72 646.96 481.31 645.95 C 483.78 644.55 486.52 645.00 489.05 646.01 C 484.90 648.38 481.46 651.81 479.20 656.03 C 479.36 656.47 479.68 657.35 479.84 657.79 C 482.18 657.33 481.75 654.59 482.74 652.97 C 484.91 649.35 489.26 648.38 492.85 646.80 C 498.85 644.48 504.29 641.02 509.57 637.39 C 506.84 644.54 502.33 652.98 493.99 654.27 C 490.77 655.02 487.99 653.22 485.88 651.01 C 485.54 651.94 485.28 652.91 485.11 653.90 C 487.12 655.05 489.48 655.34 491.71 655.88 C 488.82 659.16 484.30 661.51 482.92 665.82 C 483.50 665.75 484.64 665.61 485.21 665.54 C 487.42 660.32 492.54 656.67 497.82 654.98 C 494.91 659.15 493.11 663.91 492.27 668.92 C 495.13 671.04 494.49 666.68 494.60 664.95 C 497.44 657.34 503.54 651.67 508.41 645.37 C 508.18 649.93 504.71 653.43 504.22 657.92 C 503.95 659.94 503.03 661.79 502.34 663.69 C 503.03 664.17 503.76 664.58 504.55 664.92 C 504.26 659.01 507.01 653.77 509.62 648.69 C 510.87 653.71 515.46 657.66 514.18 663.26 C 514.82 662.61 516.91 662.42 516.42 661.11 C 515.48 657.78 513.89 654.70 512.28 651.67 C 510.98 649.30 511.47 646.49 511.45 643.92 C 513.07 644.85 513.72 646.69 514.84 648.10 C 516.55 650.02 518.85 651.31 520.57 653.24 C 522.11 657.00 519.06 660.73 519.49 664.54 C 522.26 665.50 521.90 662.34 520.92 660.79 C 521.48 659.42 521.93 657.91 523.10 656.91 C 523.44 659.65 523.93 662.38 524.62 665.06 C 525.34 664.48 526.24 664.04 526.63 663.16 C 525.47 661.62 524.64 659.89 524.78 657.91 C 525.02 655.00 523.03 652.75 521.61 650.44 C 526.28 650.68 529.17 655.37 528.54 659.73 C 529.13 659.70 530.31 659.64 530.90 659.61 C 530.09 656.35 528.70 653.10 526.27 650.73 C 522.68 648.38 517.24 648.08 515.34 643.73 C 513.58 638.17 514.72 632.10 516.88 626.82 C 519.58 626.61 520.82 624.08 522.21 622.14 C 523.76 619.62 526.18 617.07 525.12 613.88 C 525.62 614.17 526.62 614.76 527.12 615.05 C 530.47 613.17 533.58 610.92 536.69 608.67 C 536.75 608.03 536.88 606.75 536.94 606.11 C 541.49 608.44 545.20 603.42 548.51 601.02 C 548.34 600.25 547.99 598.71 547.82 597.94 C 548.40 598.18 549.57 598.67 550.16 598.92 C 553.00 596.52 555.60 593.86 557.99 591.03 C 557.89 590.31 557.68 588.86 557.58 588.14 C 559.68 585.35 561.45 582.35 563.13 579.29 C 564.45 576.97 566.09 574.29 569.00 573.90 C 572.27 574.32 575.80 576.53 576.36 580.00 C 575.86 583.84 573.16 587.10 573.15 591.09 C 574.72 587.59 576.39 584.12 578.75 581.07 C 579.08 581.81 579.75 583.30 580.09 584.04 C 582.33 588.17 579.26 593.05 581.44 597.23 C 581.61 594.82 582.05 592.46 582.71 590.15 C 584.57 591.50 586.41 592.89 588.38 594.11 C 587.34 592.07 585.51 590.65 584.15 588.87 C 582.93 586.70 582.42 584.22 581.65 581.88 C 585.84 581.61 586.48 585.96 588.88 588.36 C 588.48 587.12 588.07 585.89 587.63 584.68 C 591.75 586.08 596.14 585.43 600.40 585.64 C 597.58 583.71 594.08 584.71 590.92 584.32 C 588.90 583.77 587.38 582.20 585.74 581.02 C 587.84 579.11 590.69 579.80 593.26 579.66 C 589.52 576.23 585.05 580.51 580.95 580.22 C 578.43 579.03 576.63 576.52 575.65 573.98 C 574.79 570.29 578.39 567.85 580.96 565.99 C 584.65 563.09 589.60 563.69 593.99 563.78 C 596.56 564.07 596.35 567.34 597.44 569.15 C 597.54 567.49 597.65 565.84 597.76 564.19 C 600.33 566.32 602.40 569.44 605.98 569.88 C 602.42 567.27 599.86 562.76 595.14 562.26 C 601.01 559.56 608.21 556.89 614.19 560.80 C 611.77 556.98 606.87 557.09 602.91 557.36 C 604.84 555.62 607.24 554.56 609.33 553.04 C 603.11 553.25 599.68 559.78 593.62 560.44 C 594.79 558.15 597.43 557.44 599.30 555.88 C 595.61 556.31 592.82 558.91 589.73 560.68 C 587.32 562.19 583.32 561.31 582.60 558.31 C 581.29 553.50 584.80 548.66 588.91 546.46 C 593.51 547.28 595.94 551.52 599.99 553.29 C 598.82 551.85 597.64 550.44 596.54 548.96 C 598.66 548.45 600.78 547.96 602.90 547.39 C 600.62 547.24 598.34 547.48 596.08 547.54 C 593.88 546.89 591.88 545.73 589.83 544.76 C 590.80 543.77 591.73 542.72 592.90 541.97 C 595.82 539.74 598.83 543.79 602.12 542.73 C 599.95 541.69 597.75 540.73 595.61 539.68 C 598.23 537.29 601.87 537.07 605.22 537.47 C 603.86 535.02 600.94 535.23 598.56 535.44 C 599.43 533.12 599.57 530.67 598.54 528.38 C 598.72 533.91 595.42 538.54 590.84 541.29 C 590.68 536.99 589.92 532.20 586.09 529.58 C 587.16 531.88 588.34 534.19 588.42 536.80 C 586.91 535.86 585.56 534.73 584.34 533.48 C 584.01 533.44 583.37 533.37 583.05 533.33 C 584.56 535.58 586.62 537.36 588.38 539.41 C 589.73 542.67 585.86 545.11 583.60 546.77 C 580.65 549.14 576.85 547.60 573.96 545.97 C 571.08 544.34 568.30 541.56 568.62 537.98 C 568.28 535.42 570.27 531.50 573.33 532.61 C 575.56 533.45 577.90 533.49 580.14 532.61 C 577.66 532.04 575.18 531.49 572.70 530.94 C 575.07 529.21 577.06 527.04 578.62 524.56 C 580.18 522.07 582.95 520.86 585.14 519.04 C 582.54 519.52 580.26 520.87 578.04 522.21 C 576.95 520.50 576.03 518.71 575.20 516.88 C 574.90 519.52 576.30 521.84 577.55 524.04 C 575.27 528.01 570.58 529.54 567.68 533.01 C 566.35 527.58 567.57 522.22 568.82 516.94 C 567.68 518.58 566.72 520.33 565.80 522.09 C 563.83 519.69 562.17 517.04 559.99 514.82 Z" />
<path fill="#252f41" opacity="1.00" d=" M 538.99 207.44 C 541.67 207.45 544.36 207.45 547.05 207.44 C 546.24 209.35 545.33 211.21 544.36 213.04 C 542.51 211.23 540.72 209.36 538.99 207.44 Z" />
<path fill="#252f41" opacity="1.00" d=" M 576.00 207.41 C 578.74 207.44 581.47 207.45 584.22 207.51 C 582.51 209.55 580.52 211.33 578.43 212.97 C 577.59 211.13 576.75 209.28 576.00 207.41 Z" />
<path fill="#252f41" opacity="1.00" d=" M 311.00 208.78 C 313.68 208.71 316.37 208.73 319.05 208.77 C 318.18 210.55 317.32 212.34 316.47 214.13 C 314.42 212.59 312.58 210.79 311.00 208.78 Z" />
<path fill="#252f41" opacity="1.00" d=" M 347.73 208.79 C 350.26 209.18 353.91 207.68 355.76 209.51 C 354.08 211.21 352.18 212.66 350.33 214.16 C 349.47 212.36 348.60 210.57 347.73 208.79 Z" />
<path fill="#252f41" opacity="1.00" d=" M 522.20 209.15 C 524.70 206.71 528.52 210.68 525.95 212.98 C 523.60 215.28 519.91 211.59 522.20 209.15 Z" />
<path fill="#252f41" opacity="1.00" d=" M 598.13 209.00 C 600.88 206.54 604.31 211.95 600.90 213.34 C 598.22 215.16 595.48 210.59 598.13 209.00 Z" />
<path fill="#252f41" opacity="1.00" d=" M 294.24 210.37 C 296.93 207.84 300.56 212.51 297.58 214.54 C 294.96 216.32 291.87 212.55 294.24 210.37 Z" />
<path fill="#252f41" opacity="1.00" d=" M 370.14 210.15 C 373.03 207.98 376.01 213.24 372.77 214.63 C 369.89 216.40 367.45 211.68 370.14 210.15 Z" />
<path fill="#252f41" opacity="1.00" d=" M 553.35 210.54 C 554.38 211.68 555.37 212.85 556.36 214.04 C 554.57 214.40 552.77 214.71 550.99 215.02 C 551.76 213.52 552.55 212.03 553.35 210.54 Z" />
<path fill="#252f41" opacity="1.00" d=" M 566.07 213.78 C 567.27 212.74 568.49 211.70 569.71 210.66 C 570.51 212.15 571.31 213.64 572.11 215.14 C 570.04 214.94 567.98 214.59 566.07 213.78 Z" />
<path fill="#252f41" opacity="1.00" d=" M 325.27 211.76 C 326.20 212.73 327.18 213.69 327.93 214.83 C 326.84 216.34 324.51 215.79 322.90 216.24 C 323.67 214.73 324.46 213.24 325.27 211.76 Z" />
<path fill="#252f41" opacity="1.00" d=" M 338.00 215.11 C 339.09 214.03 340.18 212.94 341.26 211.85 C 342.35 213.34 343.24 214.95 343.93 216.65 C 341.92 216.29 339.94 215.76 338.00 215.11 Z" />
<path fill="#252f41" opacity="1.00" d=" M 532.99 214.39 C 533.85 213.41 534.72 212.43 535.60 211.47 C 537.68 213.65 539.74 215.86 541.73 218.14 C 539.86 218.16 538.01 218.17 536.15 218.18 C 535.10 216.91 534.05 215.64 532.99 214.39 Z" />
<path fill="#252f41" opacity="1.00" d=" M 581.79 218.14 C 583.78 215.74 585.99 213.49 588.63 211.80 C 589.06 213.01 589.51 214.23 589.95 215.45 C 588.92 216.33 587.91 217.22 586.91 218.11 C 585.20 218.13 583.49 218.15 581.79 218.14 Z" />
<path fill="#252f41" opacity="1.00" d=" M 304.89 215.54 C 305.80 214.84 306.31 212.88 307.65 213.21 C 309.93 214.89 311.63 217.21 313.46 219.35 C 311.64 219.40 309.83 219.44 308.02 219.48 C 306.99 218.16 305.94 216.84 304.89 215.54 Z" />
<path fill="#252f41" opacity="1.00" d=" M 353.89 219.52 C 355.54 216.94 357.96 215.02 360.17 212.95 C 360.79 214.16 361.42 215.38 362.04 216.59 C 360.87 217.54 359.71 218.49 358.56 219.46 C 357.00 219.48 355.44 219.51 353.89 219.52 Z" />
<path fill="#252f41" opacity="1.00" d=" M 549.93 216.82 C 551.53 216.32 552.11 216.89 551.68 218.52 C 550.07 219.00 549.48 218.44 549.93 216.82 Z" />
<path fill="#252f41" opacity="1.00" d=" M 572.13 217.27 C 572.68 217.79 572.68 217.79 572.13 217.27 Z" />
<path fill="#252f41" opacity="1.00" d=" M 558.72 226.96 C 559.88 226.80 561.10 226.25 562.29 226.61 C 563.72 227.57 562.48 229.87 561.00 229.91 C 559.67 229.51 559.37 227.97 558.72 226.96 Z" />
<path fill="#252f41" opacity="1.00" d=" M 331.25 228.13 C 332.46 227.43 333.61 227.51 334.70 228.38 C 335.36 229.87 333.62 230.66 332.92 231.70 C 332.11 230.62 330.68 229.67 331.25 228.13 Z" />
<path fill="#252f41" opacity="1.00" d=" M 559.71 244.30 C 557.91 242.17 559.87 239.67 560.97 237.77 C 561.95 239.41 563.38 241.04 563.25 243.09 C 562.81 244.71 561.03 245.07 559.71 244.30 Z" />
<path fill="#252f41" opacity="1.00" d=" M 330.80 244.08 C 330.69 242.13 331.98 240.56 332.98 239.02 C 333.82 240.95 336.34 243.48 334.39 245.49 C 333.23 246.54 330.84 245.74 330.80 244.08 Z" />
<path fill="#252f41" opacity="1.00" d=" M 353.39 316.52 C 359.14 314.86 365.76 316.87 369.31 321.75 C 374.40 328.98 374.75 339.59 369.92 347.03 C 364.68 354.44 352.50 353.68 347.33 346.56 C 342.18 339.66 341.35 329.34 345.87 321.93 C 347.61 319.29 350.34 317.34 353.39 316.52 Z" />
<path fill="#252f41" opacity="1.00" d=" M 329.63 433.86 C 330.73 432.63 331.84 431.41 332.96 430.20 C 334.12 431.67 336.28 432.82 336.14 434.96 C 336.21 438.97 336.28 443.00 336.05 447.01 C 335.89 448.75 335.44 450.87 333.74 451.75 C 331.47 452.56 330.12 449.88 329.91 448.03 C 329.39 443.32 329.85 438.58 329.63 433.86 Z" />
<path fill="#252f41" opacity="1.00" d=" M 557.79 435.92 C 557.34 433.40 559.64 431.87 561.05 430.18 C 562.59 431.83 564.83 433.44 564.29 436.04 C 564.01 440.76 565.05 445.77 563.32 450.28 C 562.40 452.74 558.93 452.05 558.47 449.65 C 557.25 445.20 557.96 440.48 557.79 435.92 Z" />
<path fill="#252f41" opacity="1.00" d=" M 346.59 443.95 C 348.76 445.09 350.97 446.16 353.22 447.15 C 352.49 448.89 352.28 451.68 349.93 451.93 C 346.38 451.27 346.78 446.70 346.59 443.95 Z" />
<path fill="#252f41" opacity="1.00" d=" M 574.68 443.90 C 576.80 445.07 578.99 446.13 581.23 447.09 C 580.77 449.04 580.05 452.59 577.25 451.75 C 574.49 450.27 574.94 446.55 574.68 443.90 Z" />
<path fill="#252f41" opacity="1.00" d=" M 313.02 447.70 C 315.20 446.79 317.28 445.68 319.31 444.47 C 318.97 446.95 319.32 450.33 316.77 451.78 C 314.31 452.28 313.38 449.60 313.02 447.70 Z" />
<path fill="#252f41" opacity="1.00" d=" M 541.04 447.76 C 543.20 446.85 545.30 445.77 547.34 444.61 C 547.21 447.16 547.28 450.34 544.84 451.89 C 542.40 452.05 541.56 449.67 541.04 447.76 Z" />
<path fill="#252f41" opacity="1.00" d=" M 241.27 536.29 C 244.47 533.50 246.55 529.75 248.58 526.09 C 248.73 531.50 248.03 536.95 245.96 541.99 C 242.83 550.55 236.86 557.68 233.47 566.11 C 227.32 559.57 223.10 551.48 219.09 543.53 C 227.10 544.51 235.39 541.82 241.27 536.29 Z" />
<path fill="#252f41" opacity="1.00" d=" M 664.07 562.44 C 657.51 551.30 649.29 539.66 650.49 526.06 C 654.74 536.12 664.80 543.64 675.90 543.72 C 672.68 550.34 668.67 556.68 664.07 562.44 Z" />
</g>
<g id="#64615aff">
<path fill="#64615a" opacity="1.00" d=" M 322.03 218.17 C 323.45 217.87 323.92 218.40 323.47 219.77 C 322.05 220.07 321.57 219.54 322.03 218.17 Z" />
<path fill="#64615a" opacity="1.00" d=" M 344.17 217.99 C 345.46 218.58 345.45 219.26 344.15 220.04 C 342.86 219.45 342.86 218.77 344.17 217.99 Z" />
<path fill="#64615a" opacity="1.00" d=" M 335.35 427.32 C 335.83 427.84 335.83 427.84 335.35 427.32 Z" />
</g>
<g id="#d4d5d7ff">
<path fill="#d4d5d7" opacity="1.00" d=" M 308.10 317.12 C 315.85 312.75 325.08 314.34 333.42 315.71 C 333.29 319.02 333.31 322.36 332.66 325.63 C 331.97 322.94 331.81 319.37 328.76 318.21 C 321.58 314.79 310.92 315.10 306.27 322.45 C 303.72 326.42 303.44 331.44 303.97 336.01 C 304.90 343.71 311.20 350.50 318.92 351.71 C 322.86 352.25 327.43 352.32 330.68 349.67 C 331.92 347.92 332.61 345.86 333.58 343.96 C 333.48 347.02 332.94 350.05 332.08 353.00 C 323.61 354.93 313.76 355.14 306.45 349.77 C 296.21 341.93 297.06 323.87 308.10 317.12 Z" />
<path fill="#d4d5d7" opacity="1.00" d=" M 353.49 314.76 C 360.73 313.23 369.18 315.07 373.93 321.08 C 381.40 330.40 378.32 346.19 367.75 351.86 C 360.88 355.47 351.82 355.11 345.59 350.36 C 337.70 344.09 336.07 331.81 341.37 323.38 C 344.03 319.04 348.42 315.68 353.49 314.76 M 353.39 316.52 C 350.34 317.34 347.61 319.29 345.87 321.93 C 341.35 329.34 342.18 339.66 347.33 346.56 C 352.50 353.68 364.68 354.44 369.92 347.03 C 374.75 339.59 374.40 328.98 369.31 321.75 C 365.76 316.87 359.14 314.86 353.39 316.52 Z" />
<path fill="#d4d5d7" opacity="1.00" d=" M 427.91 314.33 C 432.84 315.78 438.00 315.11 443.06 315.24 C 448.31 315.08 453.71 315.86 458.82 314.24 C 458.74 316.79 458.58 319.34 458.45 321.90 C 457.72 320.58 457.60 318.48 455.93 317.99 C 452.43 316.86 448.66 317.34 445.05 317.20 C 445.18 328.14 444.69 339.10 445.30 350.02 C 445.39 352.58 448.52 352.23 450.27 352.92 C 445.82 353.44 441.30 353.13 436.83 353.03 C 438.89 352.53 440.68 351.43 440.56 349.06 C 441.03 338.47 440.62 327.84 440.76 317.24 C 437.31 317.28 433.84 317.01 430.43 317.55 C 428.49 317.91 427.59 319.87 426.31 321.15 C 426.70 318.84 427.24 316.57 427.91 314.33 Z" />
<path fill="#d4d5d7" opacity="1.00" d=" M 495.08 313.87 C 505.59 324.43 514.95 336.07 525.46 346.63 C 525.47 337.36 525.10 328.10 524.83 318.84 C 524.98 316.19 521.95 316.07 520.10 315.61 L 520.18 315.07 C 524.17 315.52 528.19 315.49 532.20 315.14 C 530.85 316.01 528.44 316.08 528.18 318.00 C 527.60 330.13 528.56 342.32 527.68 354.45 C 516.58 344.86 507.68 333.01 497.20 322.76 C 497.25 330.49 497.64 338.22 497.80 345.95 C 497.92 347.77 497.88 349.67 498.61 351.38 C 499.92 352.34 501.64 352.45 503.14 353.00 C 499.18 353.38 495.21 352.93 491.25 353.32 C 491.25 353.16 491.24 352.84 491.24 352.69 C 492.70 352.28 494.60 351.82 494.62 349.94 C 495.15 337.93 494.26 325.87 495.08 313.87 Z" />
<path fill="#d4d5d7" opacity="1.00" d=" M 577.53 315.47 C 581.50 313.49 586.01 314.41 590.13 315.32 C 590.05 317.67 590.00 320.01 589.89 322.36 C 589.38 321.03 588.97 319.66 588.38 318.38 C 584.65 313.56 574.46 316.27 576.09 323.18 C 578.16 329.48 585.64 331.54 589.01 337.00 C 593.06 342.40 590.69 351.39 584.10 353.47 C 580.10 354.62 575.17 354.80 571.66 352.40 C 571.24 349.84 571.59 347.24 572.07 344.72 C 572.69 347.16 573.19 350.05 575.67 351.34 C 579.07 352.95 584.04 352.74 586.32 349.36 C 588.30 346.67 587.72 342.83 585.70 340.34 C 582.10 335.87 576.31 333.37 573.75 328.03 C 571.60 323.74 572.85 317.49 577.53 315.47 Z" />
<path fill="#d4d5d7" opacity="1.00" d=" M 386.03 350.11 C 386.79 338.09 385.56 325.97 386.65 313.97 C 397.10 324.58 406.68 336.04 416.95 346.84 C 416.88 337.58 416.73 328.32 416.38 319.08 C 416.40 316.31 413.30 316.01 411.34 315.30 C 415.35 315.30 419.36 315.51 423.38 315.21 C 422.32 315.71 421.25 316.17 420.16 316.59 C 418.89 320.62 419.67 324.90 419.48 329.04 C 419.32 337.55 419.85 346.08 419.12 354.57 C 408.14 344.87 399.28 333.02 388.73 322.91 C 388.79 329.95 389.16 336.99 389.22 344.05 C 389.33 346.63 389.07 349.40 390.36 351.75 C 391.64 352.17 392.93 352.56 394.24 352.91 C 390.17 353.40 386.01 353.28 381.93 352.90 C 383.46 352.22 386.20 352.47 386.03 350.11 Z" />
<path fill="#d4d5d7" opacity="1.00" d=" M 462.67 315.20 C 469.87 314.95 477.17 315.94 484.29 314.59 C 484.02 316.90 483.81 319.22 483.68 321.55 C 482.98 320.25 482.65 318.59 481.39 317.69 C 478.28 316.77 474.96 317.09 471.76 317.01 C 471.77 322.08 471.71 327.15 471.83 332.22 C 475.76 332.23 479.84 332.66 483.57 331.11 C 483.23 333.53 482.99 335.97 482.47 338.37 C 482.30 337.54 481.95 335.88 481.78 335.04 C 478.61 333.70 475.10 334.10 471.76 334.01 C 471.91 339.00 471.43 344.02 472.02 348.99 C 472.08 350.51 473.80 351.03 475.07 351.11 C 477.57 351.42 480.16 351.30 482.60 350.61 C 484.23 349.58 484.71 347.51 485.63 345.92 C 485.48 348.42 485.18 350.92 484.35 353.29 C 477.68 353.43 471.00 352.75 464.35 353.35 C 464.33 353.18 464.29 352.86 464.27 352.69 C 464.91 352.52 466.19 352.17 466.83 352.00 C 468.11 345.05 467.29 337.94 467.52 330.92 C 467.42 326.80 467.75 322.66 467.37 318.56 C 467.19 316.14 464.39 316.01 462.67 315.20 Z" />
<path fill="#d4d5d7" opacity="1.00" d=" M 536.11 314.51 C 541.68 315.61 547.36 315.17 553.00 315.23 C 557.79 315.21 562.66 315.63 567.34 314.34 C 567.23 316.70 567.09 319.06 566.93 321.42 C 566.19 320.14 565.82 318.30 564.15 317.92 C 560.73 316.89 557.08 317.32 553.55 317.19 C 553.36 325.77 553.54 334.36 553.45 342.95 C 553.48 345.88 553.31 348.93 554.37 351.73 C 555.64 352.17 556.93 352.57 558.25 352.92 C 554.14 353.41 549.96 353.09 545.83 353.05 C 546.49 352.70 547.83 351.99 548.50 351.64 C 549.37 348.51 549.22 345.22 549.26 342.00 C 549.18 333.74 549.34 325.48 549.16 317.22 C 545.78 317.26 542.37 317.04 539.01 317.53 C 537.03 317.85 536.12 319.92 534.88 321.25 C 535.24 318.99 535.70 316.76 536.11 314.51 Z" />
</g>
</svg>
