<?xml version="1.0" encoding="UTF-8" ?>
<!DOCTYPE svg PUBLIC "-//W3C//DTD SVG 1.1//EN" "http://www.w3.org/Graphics/SVG/1.1/DTD/svg11.dtd">
<svg width="850pt" height="869pt" viewBox="0 0 850 869" version="1.1" xmlns="http://www.w3.org/2000/svg">
<g id="#f35325ff">
<path fill="#f35325" opacity="1.00" d=" M 24.19 38.19 C 151.61 38.17 279.02 38.25 406.43 38.15 C 406.49 164.46 406.42 290.77 406.46 417.08 C 406.95 419.18 405.00 420.96 402.95 420.47 C 276.68 420.42 150.42 420.49 24.15 420.43 C 24.25 293.02 24.17 165.61 24.19 38.19 Z" />
</g>
<g id="#81bc06ff">
<path fill="#81bc06" opacity="1.00" d=" M 443.55 38.13 C 570.97 38.24 698.40 38.15 825.82 38.18 C 825.85 165.60 825.75 293.02 825.87 420.44 C 699.58 420.53 573.29 420.43 447.00 420.49 C 444.92 420.97 443.01 419.12 443.51 417.03 C 443.56 290.74 443.47 164.43 443.55 38.13 Z" />
</g>
<g id="#05a6f0ff">
<path fill="#05a6f0" opacity="1.00" d=" M 24.17 457.58 C 150.46 457.53 276.74 457.59 403.02 457.55 C 405.08 457.06 406.94 458.92 406.45 460.99 C 406.41 587.27 406.47 713.55 406.42 839.83 C 279.01 839.75 151.61 839.82 24.20 839.80 C 24.18 712.39 24.25 584.99 24.17 457.58 Z" />
</g>
<g id="#ffba08ff">
<path fill="#ffba08" opacity="1.00" d=" M 443.57 460.96 C 443.07 458.91 444.92 457.07 446.97 457.57 C 573.25 457.60 699.54 457.55 825.82 457.59 C 825.75 584.99 825.80 712.39 825.79 839.79 C 698.39 839.80 570.99 839.75 443.59 839.82 C 443.56 713.53 443.60 587.25 443.57 460.96 Z" />
</g>
</svg>
