<?xml version="1.0" encoding="UTF-8" ?>
<!DOCTYPE svg PUBLIC "-//W3C//DTD SVG 1.1//EN" "http://www.w3.org/Graphics/SVG/1.1/DTD/svg11.dtd">
<svg width="1875pt" height="378pt" viewBox="0 0 1875 378" version="1.1" xmlns="http://www.w3.org/2000/svg">
<g id="#ffffffff">
<path fill="#ffffff" opacity="1.00" d=" M 0.00 0.00 L 81.60 0.00 C 82.70 1.07 83.65 2.29 84.33 3.67 C 85.77 5.25 87.34 6.75 88.35 8.66 C 89.77 10.24 91.34 11.75 92.34 13.66 C 93.43 14.91 94.56 16.13 95.66 17.38 C 96.65 19.29 98.22 20.79 99.65 22.38 C 100.66 24.28 102.22 25.80 103.65 27.38 C 104.66 29.29 106.22 30.79 107.65 32.38 C 108.85 34.73 110.95 36.41 112.67 38.36 C 113.84 40.74 116.13 42.30 117.35 44.66 C 118.77 46.24 120.34 47.75 121.34 49.66 C 122.43 50.91 123.56 52.13 124.66 53.38 C 125.66 55.29 127.22 56.79 128.65 58.38 C 129.66 60.28 131.22 61.79 132.64 63.38 C 133.87 65.73 136.14 67.30 137.32 69.68 C 139.04 71.63 141.15 73.30 142.33 75.67 C 143.43 76.91 144.56 78.13 145.66 79.38 C 146.87 81.72 149.12 83.31 150.34 85.66 C 151.43 86.91 152.56 88.13 153.66 89.38 C 154.66 91.29 156.22 92.79 157.65 94.38 C 158.66 96.28 160.22 97.79 161.65 99.38 C 162.66 101.28 164.22 102.80 165.65 104.38 C 166.66 106.29 168.22 107.79 169.65 109.38 C 171.01 112.22 173.98 113.82 175.34 116.66 C 176.77 118.24 178.34 119.74 179.33 121.66 C 180.43 122.91 181.56 124.13 182.66 125.38 C 183.87 127.73 186.13 129.31 187.34 131.66 C 188.43 132.91 189.56 134.13 190.65 135.38 C 191.87 137.72 194.12 139.31 195.34 141.66 C 196.43 142.91 197.56 144.13 198.66 145.38 C 199.84 147.74 201.95 149.41 203.67 151.36 C 204.63 153.30 206.23 154.78 207.64 156.38 C 208.88 158.71 211.11 160.32 212.34 162.66 C 213.43 163.91 214.56 165.13 215.66 166.38 C 216.66 168.29 218.22 169.79 219.65 171.38 C 220.66 173.28 222.22 174.80 223.65 176.38 C 224.66 178.29 226.22 179.79 227.65 181.38 C 228.85 183.73 230.94 185.41 232.67 187.36 C 233.63 189.30 235.23 190.79 236.65 192.38 C 237.66 194.28 239.22 195.79 240.65 197.38 C 241.89 199.71 244.10 201.33 245.35 203.66 C 246.77 205.24 248.33 206.75 249.34 208.66 C 250.77 210.24 252.34 211.75 253.34 213.66 C 254.43 214.91 255.56 216.13 256.66 217.38 C 257.65 219.30 259.23 220.79 260.65 222.38 C 261.85 224.73 263.94 226.41 265.67 228.36 C 266.63 230.30 268.23 231.79 269.65 233.38 C 270.66 235.28 272.22 236.79 273.65 238.38 C 274.66 240.28 276.22 241.79 277.65 243.38 C 278.67 245.28 280.22 246.79 281.65 248.38 C 282.66 250.28 284.22 251.79 285.64 253.39 C 286.88 255.72 289.13 257.31 290.33 259.67 C 291.74 261.26 293.25 262.77 294.67 264.37 C 295.85 266.74 298.13 268.30 299.34 270.66 C 300.43 271.91 301.56 273.13 302.66 274.38 C 303.65 276.29 305.22 277.79 306.65 279.38 C 307.66 281.28 309.22 282.79 310.65 284.38 C 311.66 286.28 313.22 287.79 314.65 289.38 C 315.87 291.72 318.13 293.30 319.32 295.67 C 320.74 297.26 322.25 298.78 323.67 300.37 C 324.64 302.30 326.23 303.79 327.64 305.38 C 328.88 307.72 331.12 309.31 332.34 311.66 C 333.43 312.91 334.56 314.12 335.65 315.38 C 336.87 317.72 339.12 319.31 340.34 321.66 C 341.43 322.91 342.56 324.13 343.66 325.38 C 344.66 327.29 346.22 328.79 347.65 330.38 C 348.66 332.29 350.22 333.79 351.65 335.38 C 352.85 337.73 354.94 339.41 356.67 341.36 C 357.63 343.29 359.22 344.79 360.65 346.38 C 361.66 348.28 363.22 349.79 364.65 351.38 C 365.66 353.28 367.22 354.79 368.65 356.38 C 369.66 358.28 371.22 359.79 372.65 361.38 C 373.89 363.71 376.11 365.32 377.34 367.66 C 378.83 369.32 380.55 370.86 381.43 372.96 L 382.03 373.05 C 382.03 248.70 382.03 124.35 382.03 0.00 L 709.97 0.00 C 709.98 20.66 709.95 41.32 709.98 61.98 C 622.64 61.95 535.31 61.98 447.97 61.97 C 447.97 93.99 447.97 126.01 447.97 158.03 C 518.31 158.02 588.64 158.05 658.98 158.02 C 658.96 178.34 658.96 198.66 658.98 218.98 C 588.64 218.95 518.31 218.98 447.97 218.97 C 447.97 251.66 447.97 284.34 447.97 317.03 C 535.31 317.02 622.64 317.05 709.98 317.02 C 709.95 337.35 709.98 357.67 709.97 378.00 L 302.47 378.00 C 301.43 375.39 299.11 373.69 297.32 371.64 C 296.37 369.70 294.77 368.21 293.35 366.62 C 292.33 364.71 290.78 363.20 289.35 361.62 C 288.33 359.71 286.78 358.20 285.35 356.62 C 284.34 354.71 282.78 353.20 281.35 351.62 C 280.33 349.71 278.78 348.20 277.35 346.62 C 276.34 344.71 274.78 343.20 273.35 341.62 C 272.33 339.71 270.78 338.20 269.35 336.62 C 268.33 334.71 266.78 333.20 265.35 331.62 C 264.15 329.26 262.05 327.59 260.33 325.64 C 259.15 323.27 256.88 321.69 255.66 319.34 C 254.57 318.09 253.44 316.87 252.34 315.62 C 251.34 313.71 249.78 312.20 248.35 310.62 C 247.33 308.72 245.78 307.20 244.35 305.62 C 243.33 303.71 241.78 302.20 240.35 300.62 C 239.34 298.71 237.78 297.20 236.35 295.62 C 235.33 293.72 233.78 292.20 232.36 290.61 C 231.12 288.28 228.87 286.69 227.67 284.33 C 226.25 282.74 224.75 281.22 223.33 279.63 C 222.15 277.26 219.87 275.70 218.67 273.34 C 217.57 272.09 216.44 270.87 215.34 269.62 C 214.34 267.71 212.78 266.20 211.36 264.62 C 210.11 262.28 207.89 260.68 206.66 258.34 C 205.57 257.09 204.43 255.87 203.34 254.62 C 202.13 252.27 199.88 250.68 198.65 248.34 C 197.23 246.75 195.65 245.26 194.68 243.33 C 193.25 241.74 191.75 240.22 190.33 238.63 C 189.36 236.70 187.77 235.21 186.35 233.62 C 185.12 231.28 182.88 229.69 181.66 227.34 C 180.57 226.09 179.44 224.87 178.34 223.62 C 177.34 221.71 175.77 220.20 174.35 218.62 C 173.33 216.71 171.78 215.20 170.35 213.62 C 169.33 211.71 167.78 210.20 166.35 208.62 C 165.34 206.71 163.78 205.20 162.35 203.62 C 161.34 201.71 159.77 200.20 158.35 198.62 C 157.15 196.26 155.05 194.59 153.33 192.64 C 152.15 190.26 149.87 188.70 148.66 186.34 C 147.57 185.09 146.44 183.87 145.34 182.62 C 144.13 180.27 141.88 178.69 140.66 176.34 C 139.57 175.09 138.44 173.87 137.35 172.62 C 136.13 170.27 133.88 168.69 132.66 166.34 C 131.57 165.09 130.44 163.87 129.34 162.62 C 128.35 160.71 126.77 159.21 125.35 157.62 C 124.15 155.27 122.05 153.59 120.33 151.64 C 119.14 149.27 116.88 147.69 115.65 145.34 C 114.23 143.75 112.66 142.25 111.66 140.34 C 110.57 139.09 109.44 137.87 108.34 136.62 C 107.12 134.27 104.88 132.68 103.65 130.34 C 102.23 128.75 100.66 127.25 99.67 125.34 C 98.57 124.09 97.44 122.87 96.34 121.62 C 95.35 119.71 93.77 118.20 92.35 116.62 C 91.34 114.71 89.78 113.20 88.35 111.62 C 86.99 108.78 84.01 107.18 82.66 104.34 C 81.23 102.75 79.66 101.25 78.66 99.34 C 77.57 98.09 76.44 96.87 75.34 95.62 C 74.34 93.71 72.78 92.20 71.35 90.62 C 69.52 87.70 67.01 85.29 65.04 82.46 C 64.87 180.97 65.02 279.49 64.97 378.00 L 0.00 378.00 L 0.00 0.00 Z" />
<path fill="#ffffff" opacity="1.00" d=" M 786.49 0.00 L 872.60 0.00 C 873.69 1.08 874.66 2.29 875.31 3.69 C 877.04 5.63 879.15 7.30 880.33 9.67 C 881.42 10.91 882.55 12.13 883.66 13.38 C 884.65 15.29 886.22 16.79 887.65 18.38 C 888.87 20.72 891.11 22.31 892.34 24.66 C 893.42 25.91 894.55 27.13 895.66 28.38 C 896.65 30.29 898.22 31.80 899.65 33.38 C 900.65 35.29 902.22 36.79 903.65 38.38 C 904.99 41.23 908.00 42.81 909.33 45.67 C 910.42 46.91 911.55 48.13 912.66 49.38 C 913.65 51.29 915.22 52.79 916.65 54.38 C 917.66 56.28 919.21 57.80 920.65 59.38 C 921.66 61.28 923.21 62.80 924.65 64.38 C 925.65 66.29 927.22 67.79 928.65 69.38 C 929.87 71.73 932.14 73.30 933.33 75.67 C 934.74 77.26 936.24 78.78 937.67 80.37 C 938.63 82.30 940.22 83.79 941.65 85.38 C 942.66 87.28 944.21 88.80 945.65 90.38 C 946.66 92.28 948.21 93.79 949.65 95.38 C 950.87 97.72 953.11 99.31 954.34 101.66 C 955.42 102.91 956.55 104.13 957.66 105.38 C 958.65 107.29 960.22 108.79 961.65 110.38 C 962.66 112.29 964.21 113.79 965.65 115.38 C 966.84 117.74 968.94 119.41 970.67 121.36 C 971.63 123.30 973.22 124.79 974.65 126.38 C 975.65 128.29 977.21 129.79 978.66 131.37 C 979.58 133.30 981.16 134.75 982.64 136.24 C 983.29 133.40 986.15 131.95 987.35 129.38 C 988.43 128.13 989.56 126.91 990.66 125.66 C 991.88 123.31 994.11 121.72 995.36 119.38 C 996.77 117.79 998.33 116.28 999.35 114.38 C 1000.77 112.79 1002.36 111.30 1003.33 109.36 C 1005.04 107.41 1007.15 105.74 1008.35 103.38 C 1009.77 101.79 1011.33 100.29 1012.35 98.38 C 1013.77 96.79 1015.33 95.28 1016.35 93.38 C 1017.77 91.80 1019.33 90.29 1020.35 88.38 C 1021.77 86.80 1023.33 85.28 1024.35 83.38 C 1025.77 81.79 1027.33 80.28 1028.35 78.38 C 1029.77 76.79 1031.35 75.29 1032.33 73.36 C 1034.05 71.41 1036.14 69.73 1037.35 67.38 C 1038.77 65.79 1040.33 64.29 1041.35 62.38 C 1042.77 60.80 1044.33 59.28 1045.35 57.38 C 1046.77 55.79 1048.33 54.29 1049.35 52.38 C 1050.77 50.80 1052.33 49.28 1053.35 47.38 C 1054.77 45.80 1056.33 44.28 1057.35 42.38 C 1058.77 40.80 1060.33 39.28 1061.35 37.38 C 1062.77 35.79 1064.35 34.29 1065.33 32.36 C 1067.05 30.41 1069.14 28.73 1070.35 26.38 C 1071.77 24.79 1073.33 23.29 1074.35 21.38 C 1075.77 19.80 1077.33 18.29 1078.35 16.38 C 1079.77 14.79 1081.34 13.29 1082.34 11.38 C 1083.43 10.13 1084.56 8.91 1085.66 7.66 C 1086.89 5.17 1089.42 3.62 1090.46 1.02 C 1119.40 1.00 1148.34 1.13 1177.28 0.95 C 1176.30 2.12 1175.26 3.26 1174.69 4.68 C 1173.23 6.24 1171.72 7.73 1170.32 9.33 C 1169.35 11.26 1167.76 12.75 1166.35 14.34 C 1165.10 16.68 1162.88 18.28 1161.65 20.62 C 1160.21 22.21 1158.66 23.72 1157.65 25.62 C 1156.21 27.20 1154.65 28.71 1153.65 30.62 C 1152.21 32.20 1150.65 33.71 1149.65 35.62 C 1148.22 37.20 1146.65 38.71 1145.66 40.62 C 1144.55 41.87 1143.42 43.09 1142.34 44.34 C 1141.12 46.69 1138.86 48.27 1137.66 50.62 C 1136.55 51.87 1135.42 53.09 1134.33 54.33 C 1133.14 56.70 1131.04 58.37 1129.32 60.32 C 1128.14 62.70 1125.87 64.27 1124.65 66.62 C 1123.22 68.21 1121.65 69.71 1120.66 71.62 C 1119.55 72.87 1118.42 74.09 1117.34 75.34 C 1116.11 77.68 1113.88 79.28 1112.65 81.62 C 1111.21 83.20 1109.66 84.71 1108.65 86.62 C 1107.22 88.20 1105.65 89.71 1104.66 91.62 C 1103.55 92.87 1102.42 94.09 1101.34 95.34 C 1100.11 97.69 1097.87 99.28 1096.65 101.62 C 1095.22 103.21 1093.63 104.70 1092.67 106.63 C 1091.24 108.22 1089.74 109.74 1088.32 111.33 C 1087.34 113.26 1085.76 114.75 1084.35 116.34 C 1083.10 118.68 1080.88 120.29 1079.64 122.62 C 1078.21 124.21 1076.65 125.71 1075.66 127.62 C 1074.55 128.87 1073.42 130.09 1072.34 131.34 C 1071.34 133.25 1069.76 134.75 1068.35 136.34 C 1067.10 138.68 1064.88 140.28 1063.65 142.62 C 1062.21 144.20 1060.65 145.71 1059.65 147.62 C 1058.22 149.21 1056.63 150.70 1055.67 152.64 C 1053.94 154.59 1051.84 156.26 1050.65 158.62 C 1049.22 160.21 1047.65 161.71 1046.65 163.62 C 1045.21 165.20 1043.65 166.71 1042.65 168.62 C 1041.21 170.20 1039.66 171.71 1038.65 173.62 C 1037.22 175.20 1035.65 176.71 1034.66 178.62 C 1033.55 179.87 1032.42 181.09 1031.33 182.34 C 1030.04 185.27 1026.60 186.81 1026.06 190.10 C 1026.73 191.32 1027.58 192.46 1028.29 193.69 C 1030.04 195.61 1032.14 197.29 1033.33 199.66 C 1034.42 200.91 1035.55 202.13 1036.66 203.38 C 1037.87 205.72 1040.10 207.32 1041.35 209.66 C 1042.76 211.24 1044.33 212.75 1045.34 214.66 C 1046.42 215.91 1047.55 217.13 1048.66 218.38 C 1049.87 220.73 1052.12 222.31 1053.34 224.66 C 1054.42 225.91 1055.55 227.12 1056.66 228.37 C 1057.84 230.74 1059.95 232.41 1061.67 234.36 C 1062.84 236.73 1065.12 238.30 1066.34 240.66 C 1067.42 241.91 1068.55 243.13 1069.66 244.38 C 1070.65 246.29 1072.22 247.79 1073.65 249.38 C 1074.66 251.28 1076.21 252.79 1077.65 254.38 C 1078.66 256.28 1080.21 257.79 1081.64 259.38 C 1082.87 261.72 1085.11 263.31 1086.34 265.66 C 1087.42 266.91 1088.55 268.12 1089.66 269.37 C 1090.98 272.23 1094.00 273.80 1095.33 276.67 C 1096.42 277.91 1097.55 279.13 1098.66 280.38 C 1099.87 282.72 1102.11 284.31 1103.34 286.66 C 1104.42 287.91 1105.55 289.13 1106.66 290.38 C 1107.65 292.29 1109.22 293.79 1110.65 295.38 C 1111.65 297.28 1113.21 298.79 1114.65 300.38 C 1115.65 302.28 1117.21 303.79 1118.65 305.38 C 1119.84 307.73 1121.94 309.41 1123.67 311.36 C 1124.62 313.30 1126.22 314.79 1127.65 316.38 C 1128.65 318.29 1130.21 319.79 1131.65 321.38 C 1132.65 323.28 1134.21 324.79 1135.65 326.38 C 1136.66 328.28 1138.21 329.79 1139.65 331.38 C 1140.65 333.28 1142.21 334.79 1143.65 336.38 C 1144.66 338.28 1146.21 339.79 1147.65 341.38 C 1148.65 343.29 1150.21 344.79 1151.65 346.38 C 1152.99 349.22 1155.99 350.81 1157.33 353.66 C 1158.42 354.91 1159.55 356.13 1160.66 357.38 C 1161.65 359.29 1163.22 360.79 1164.65 362.38 C 1165.66 364.28 1167.21 365.79 1168.65 367.38 C 1169.66 369.28 1171.21 370.80 1172.65 372.38 C 1173.80 374.62 1175.67 376.36 1177.55 378.00 L 1090.48 378.00 C 1089.35 376.92 1088.30 375.79 1087.31 374.61 C 1086.14 372.24 1083.85 370.69 1082.66 368.34 C 1081.56 367.08 1080.43 365.87 1079.34 364.62 C 1078.34 362.71 1076.77 361.20 1075.35 359.62 C 1074.33 357.71 1072.77 356.20 1071.35 354.62 C 1070.14 352.26 1068.04 350.59 1066.33 348.64 C 1065.15 346.26 1062.86 344.70 1061.66 342.34 C 1060.56 341.09 1059.43 339.87 1058.35 338.62 C 1057.12 336.27 1054.87 334.69 1053.66 332.34 C 1052.56 331.09 1051.43 329.87 1050.34 328.62 C 1049.12 326.27 1046.87 324.68 1045.66 322.34 C 1044.56 321.09 1043.43 319.87 1042.34 318.62 C 1041.34 316.70 1039.77 315.20 1038.35 313.62 C 1037.33 311.71 1035.77 310.20 1034.35 308.62 C 1033.14 306.26 1031.04 304.59 1029.33 302.64 C 1028.36 300.70 1026.76 299.21 1025.36 297.62 C 1024.11 295.28 1021.88 293.68 1020.66 291.34 C 1019.56 290.09 1018.43 288.87 1017.34 287.62 C 1016.34 285.71 1014.77 284.20 1013.35 282.62 C 1012.33 280.72 1010.77 279.20 1009.35 277.62 C 1008.33 275.71 1006.77 274.20 1005.35 272.62 C 1004.33 270.71 1002.77 269.21 1001.35 267.62 C 1000.14 265.27 998.05 263.58 996.33 261.64 C 995.36 259.70 993.77 258.21 992.35 256.62 C 991.33 254.72 989.77 253.20 988.35 251.62 C 987.33 249.71 985.77 248.20 984.35 246.62 C 983.33 244.71 981.77 243.20 980.35 241.62 C 979.33 239.71 977.77 238.20 976.35 236.62 C 975.33 234.71 973.77 233.20 972.35 231.62 C 971.33 229.71 969.77 228.20 968.35 226.62 C 967.12 224.28 964.86 222.69 963.68 220.33 C 962.25 218.74 960.74 217.22 959.33 215.63 C 958.35 213.70 956.76 212.21 955.35 210.62 C 954.33 208.71 952.77 207.20 951.35 205.62 C 950.33 203.71 948.77 202.21 947.35 200.62 C 946.11 198.28 943.89 196.68 942.65 194.34 C 941.22 192.76 939.67 191.24 938.66 189.34 C 937.22 187.75 935.65 186.25 934.67 184.34 C 933.56 183.09 932.43 181.87 931.34 180.63 C 930.16 178.26 928.04 176.59 926.33 174.64 C 925.36 172.70 923.77 171.21 922.35 169.62 C 921.33 167.71 919.77 166.20 918.35 164.62 C 917.33 162.71 915.77 161.20 914.35 159.62 C 913.33 157.71 911.77 156.20 910.35 154.62 C 909.33 152.71 907.77 151.20 906.35 149.62 C 905.33 147.71 903.77 146.21 902.36 144.62 C 901.11 142.28 898.87 140.69 897.66 138.34 C 896.56 137.09 895.43 135.87 894.34 134.63 C 893.15 132.26 891.04 130.59 889.33 128.64 C 888.15 126.26 885.87 124.70 884.66 122.34 C 883.56 121.09 882.43 119.87 881.35 118.62 C 880.12 116.28 877.88 114.69 876.66 112.34 C 875.56 111.09 874.43 109.87 873.34 108.62 C 872.34 106.71 870.77 105.20 869.35 103.62 C 868.33 101.72 866.77 100.20 865.35 98.62 C 864.33 96.71 862.77 95.20 861.35 93.62 C 860.33 91.71 858.77 90.21 857.35 88.62 C 856.00 85.77 853.00 84.19 851.67 81.34 C 850.56 80.09 849.43 78.87 848.34 77.62 C 847.34 75.71 845.77 74.21 844.35 72.62 C 843.33 70.71 841.77 69.20 840.35 67.62 C 839.33 65.72 837.77 64.20 836.35 62.62 C 835.33 60.71 833.77 59.21 832.35 57.62 C 831.11 55.28 828.87 53.69 827.66 51.34 C 826.56 50.09 825.43 48.87 824.34 47.63 C 823.00 44.77 820.00 43.19 818.66 40.34 C 817.23 38.75 815.65 37.26 814.67 35.34 C 813.56 34.09 812.43 32.87 811.34 31.62 C 810.34 29.71 808.77 28.21 807.35 26.62 C 806.11 24.28 803.87 22.69 802.66 20.34 C 801.56 19.09 800.43 17.87 799.34 16.62 C 798.34 14.71 796.77 13.21 795.35 11.62 C 794.10 9.29 791.89 7.67 790.65 5.34 C 789.13 3.67 787.46 2.08 786.49 0.00 Z" />
<path fill="#ffffff" opacity="1.00" d=" M 1246.03 0.00 L 1573.97 0.00 C 1573.97 20.66 1573.95 41.32 1573.98 61.98 C 1530.64 61.95 1487.30 61.98 1443.97 61.97 C 1443.97 167.31 1443.97 272.66 1443.97 378.00 L 1378.03 378.00 C 1378.03 272.66 1378.03 167.31 1378.03 61.97 C 1334.03 61.98 1290.02 61.95 1246.02 61.98 C 1246.05 41.32 1246.02 20.66 1246.03 0.00 Z" />
<path fill="#ffffff" opacity="1.00" d=" M 1809.64 214.12 C 1813.53 213.98 1817.44 213.97 1821.35 214.13 C 1824.03 215.82 1827.36 214.73 1830.36 215.12 C 1831.54 215.93 1832.99 216.02 1834.39 216.32 C 1835.67 216.78 1837.02 217.03 1838.41 217.30 C 1839.39 217.63 1840.41 217.95 1841.45 218.26 C 1843.02 219.12 1844.66 219.96 1846.48 220.23 C 1847.44 220.72 1848.43 221.21 1849.45 221.70 C 1851.91 223.13 1854.11 225.00 1856.68 226.30 C 1859.42 228.89 1862.10 231.57 1864.70 234.32 C 1865.99 236.87 1867.85 239.08 1869.31 241.55 C 1869.76 242.55 1870.24 243.55 1870.75 244.54 C 1871.03 245.56 1871.34 246.58 1871.70 247.60 C 1871.95 248.97 1872.07 250.42 1872.87 251.65 C 1873.01 254.76 1872.95 257.87 1872.98 260.98 C 1863.77 260.88 1854.57 261.11 1845.38 260.89 C 1843.24 259.47 1844.37 256.65 1843.45 254.60 C 1842.28 251.89 1840.21 249.81 1838.62 247.39 C 1835.72 245.14 1832.74 243.08 1829.39 241.58 C 1828.14 241.18 1826.84 240.96 1825.61 240.70 C 1823.44 239.60 1820.94 240.05 1818.64 239.86 C 1816.52 238.47 1813.45 238.48 1811.36 239.86 C 1809.03 240.02 1806.60 239.67 1804.42 240.63 C 1803.41 240.97 1802.43 241.33 1801.46 241.69 C 1800.04 242.09 1798.67 242.64 1797.33 243.16 C 1793.77 245.13 1790.95 248.23 1788.57 251.46 C 1788.24 252.45 1787.94 253.44 1787.66 254.44 C 1786.60 257.64 1786.37 261.52 1787.81 264.63 C 1787.87 265.11 1788.00 266.06 1788.07 266.54 C 1789.31 267.76 1790.49 269.08 1791.39 270.61 C 1794.75 273.47 1798.63 275.47 1802.61 277.36 C 1803.52 277.70 1804.46 278.03 1805.42 278.36 C 1806.70 278.82 1808.04 279.02 1809.42 279.26 C 1810.39 279.64 1811.39 280.02 1812.42 280.39 C 1813.99 281.00 1815.68 281.03 1817.38 281.23 C 1818.62 281.88 1820.00 282.02 1821.39 282.30 C 1822.65 282.84 1824.01 283.03 1825.39 283.31 C 1826.66 283.78 1828.02 284.04 1829.40 284.33 C 1830.66 284.85 1832.02 285.02 1833.41 285.27 C 1834.39 285.63 1835.40 285.99 1836.43 286.33 C 1837.41 286.68 1838.41 287.02 1839.43 287.34 C 1840.42 287.66 1841.43 287.96 1842.48 288.24 C 1842.99 288.52 1844.02 289.10 1844.53 289.38 C 1845.49 289.69 1846.47 289.97 1847.49 290.23 C 1848.45 290.74 1849.43 291.25 1850.43 291.77 C 1850.94 291.99 1851.94 292.44 1852.44 292.66 C 1854.88 294.14 1857.11 295.98 1859.68 297.30 C 1862.76 300.23 1865.78 303.23 1868.70 306.34 C 1869.47 307.78 1870.41 309.14 1871.29 310.56 C 1871.76 311.55 1872.25 312.54 1872.77 313.53 C 1873.02 314.55 1873.31 315.56 1873.64 316.57 C 1874.05 317.67 1874.50 318.77 1875.00 319.86 L 1875.00 340.34 C 1873.85 341.45 1874.01 343.04 1873.82 344.46 C 1872.84 346.01 1871.98 347.67 1871.83 349.51 C 1870.30 352.35 1868.18 354.81 1866.70 357.67 C 1864.40 360.04 1862.29 362.71 1859.38 364.36 C 1858.11 365.41 1856.86 366.47 1855.50 367.37 C 1854.98 367.58 1853.95 368.02 1853.43 368.24 C 1852.93 368.49 1851.94 369.01 1851.44 369.27 C 1850.94 369.52 1849.94 370.02 1849.44 370.27 C 1848.94 370.51 1847.94 371.00 1847.44 371.25 C 1846.43 371.75 1845.44 372.25 1844.47 372.76 C 1843.41 373.05 1842.39 373.36 1841.40 373.71 C 1840.02 373.96 1838.66 374.18 1837.39 374.69 C 1835.99 374.97 1834.56 375.09 1833.35 375.85 C 1831.01 376.14 1828.38 375.40 1826.36 376.88 C 1818.78 377.02 1811.20 377.03 1803.64 376.88 C 1801.59 375.39 1798.95 376.15 1796.64 375.86 C 1795.16 374.78 1793.28 375.00 1791.61 374.80 C 1790.58 374.39 1789.57 374.01 1788.57 373.66 C 1787.55 373.31 1786.55 372.98 1785.56 372.66 C 1784.54 372.34 1783.53 372.04 1782.53 371.76 C 1781.52 371.25 1780.53 370.75 1779.56 370.24 C 1779.06 370.00 1778.06 369.50 1777.56 369.25 C 1777.06 369.02 1776.05 368.56 1775.55 368.33 C 1773.09 366.85 1770.87 365.01 1768.33 363.70 C 1766.23 361.77 1764.22 359.76 1762.30 357.67 C 1760.98 355.12 1759.13 352.91 1757.69 350.46 C 1756.89 348.78 1756.08 347.12 1755.26 345.47 C 1754.94 344.44 1754.61 343.41 1754.28 342.40 C 1753.99 341.02 1753.88 339.60 1753.18 338.36 C 1752.90 336.35 1753.42 334.10 1752.12 332.36 C 1752.02 330.58 1752.00 328.80 1752.00 327.02 C 1761.97 327.03 1771.96 327.05 1781.94 327.01 C 1782.00 329.19 1781.64 331.52 1782.65 333.56 C 1782.94 334.53 1783.26 335.50 1783.61 336.47 C 1784.51 337.86 1785.50 339.21 1786.29 340.71 C 1787.54 342.10 1788.87 343.44 1790.28 344.70 C 1792.40 345.87 1794.35 347.35 1796.58 348.38 C 1797.51 348.70 1798.47 349.01 1799.46 349.32 C 1800.42 349.68 1801.40 350.03 1802.42 350.38 C 1804.29 351.17 1806.35 351.01 1808.36 351.18 C 1811.79 352.57 1816.20 352.58 1819.64 351.17 C 1821.61 350.97 1823.75 351.27 1825.61 350.30 C 1826.90 350.02 1828.27 349.80 1829.57 349.36 C 1830.51 349.04 1831.48 348.72 1832.46 348.39 C 1833.84 347.47 1835.20 346.49 1836.69 345.70 C 1839.64 342.94 1842.88 340.26 1844.44 336.39 C 1844.80 335.15 1844.99 333.86 1845.28 332.60 C 1846.30 331.02 1846.28 328.97 1845.28 327.40 C 1845.00 326.08 1844.78 324.77 1844.51 323.47 C 1841.70 320.04 1838.76 316.25 1834.43 314.75 C 1833.47 314.24 1832.54 313.73 1831.63 313.20 C 1830.27 312.63 1828.93 312.06 1827.54 311.67 C 1826.53 311.33 1825.54 311.01 1824.57 310.70 C 1823.55 310.33 1822.55 309.97 1821.57 309.62 C 1820.26 309.21 1818.91 308.96 1817.61 308.68 C 1816.30 308.19 1814.92 307.96 1813.61 307.70 C 1812.31 307.18 1810.93 306.96 1809.61 306.68 C 1808.29 306.21 1806.93 305.96 1805.61 305.68 C 1804.30 305.19 1802.92 304.96 1801.61 304.69 C 1800.31 304.15 1798.91 303.97 1797.59 303.73 C 1796.56 303.36 1795.56 303.01 1794.57 302.68 C 1793.55 302.32 1792.54 301.98 1791.55 301.67 C 1790.54 301.32 1789.55 300.98 1788.57 300.67 C 1787.54 300.34 1786.52 300.04 1785.52 299.77 C 1784.53 299.26 1783.55 298.75 1782.60 298.25 C 1781.22 297.61 1779.88 296.95 1778.54 296.32 C 1776.09 294.84 1773.85 293.05 1771.36 291.68 C 1768.13 288.82 1764.68 286.30 1762.35 282.61 C 1761.28 280.90 1760.15 279.25 1759.19 277.50 C 1758.92 276.46 1758.65 275.43 1758.38 274.42 C 1757.97 273.39 1757.56 272.37 1757.14 271.37 C 1756.86 269.03 1757.57 266.41 1756.12 264.35 C 1755.99 262.11 1755.99 259.87 1756.12 257.64 C 1757.59 255.60 1756.84 252.96 1757.14 250.63 C 1757.55 249.62 1757.95 248.61 1758.36 247.58 C 1758.65 246.57 1758.94 245.55 1759.24 244.53 C 1759.72 243.54 1760.20 242.55 1760.69 241.56 C 1762.12 239.08 1763.99 236.88 1765.30 234.33 C 1767.21 232.23 1769.22 230.21 1771.37 228.32 C 1772.86 227.56 1774.12 226.44 1775.40 225.34 C 1776.80 224.49 1778.15 223.54 1779.56 222.67 C 1780.06 222.44 1781.06 221.98 1781.56 221.75 C 1783.20 220.90 1784.86 220.08 1786.53 219.24 C 1787.53 218.97 1788.53 218.68 1789.56 218.36 C 1790.55 218.01 1791.56 217.64 1792.59 217.26 C 1793.91 217.02 1795.32 216.87 1796.60 216.31 C 1797.95 216.01 1799.41 215.91 1800.65 215.12 C 1803.61 214.72 1806.97 215.83 1809.64 214.12 Z" />
<path fill="#ffffff" opacity="1.00" d=" M 1698.02 216.02 C 1708.00 216.04 1717.99 216.04 1727.98 216.02 C 1727.93 253.87 1728.00 291.71 1727.95 329.56 C 1725.82 331.88 1727.46 335.65 1726.95 338.56 C 1725.23 339.63 1726.21 341.92 1725.91 343.56 C 1725.10 344.36 1724.73 345.37 1724.81 346.58 C 1724.26 347.50 1723.74 348.43 1723.25 349.37 C 1723.01 349.88 1722.53 350.89 1722.29 351.40 C 1722.04 351.90 1721.53 352.89 1721.28 353.39 C 1721.03 353.89 1720.55 354.90 1720.31 355.40 C 1719.64 357.24 1717.97 358.36 1716.75 359.78 C 1714.11 364.71 1708.78 367.18 1704.41 370.33 C 1703.90 370.56 1702.88 371.01 1702.37 371.24 C 1701.42 371.75 1700.49 372.27 1699.58 372.81 C 1698.40 372.78 1697.40 373.11 1696.57 373.82 C 1695.36 373.76 1694.36 374.12 1693.56 374.88 C 1692.20 375.16 1690.36 374.45 1689.56 375.94 C 1687.59 376.29 1684.93 375.11 1683.56 376.95 C 1678.18 376.98 1672.80 376.98 1667.44 376.95 C 1666.05 375.10 1663.37 376.29 1661.44 375.94 C 1660.60 374.44 1658.75 375.16 1657.44 374.88 C 1656.60 374.12 1655.60 373.76 1654.43 373.82 C 1653.56 373.12 1652.55 372.79 1651.42 372.81 C 1650.48 372.27 1649.55 371.75 1648.63 371.25 C 1648.12 371.01 1647.11 370.53 1646.60 370.29 C 1646.10 370.04 1645.10 369.56 1644.60 369.31 C 1641.10 366.93 1637.53 364.49 1634.78 361.19 C 1633.11 358.57 1631.30 356.04 1629.64 353.42 C 1629.00 352.18 1629.09 350.66 1628.20 349.56 C 1628.22 348.37 1627.86 347.38 1627.12 346.57 C 1626.81 345.22 1627.54 343.37 1626.05 342.56 C 1625.99 339.05 1626.04 335.53 1626.02 332.02 C 1635.63 332.03 1645.25 332.06 1654.88 332.00 C 1654.67 333.36 1655.01 334.50 1655.88 335.43 C 1656.10 336.76 1655.53 338.47 1656.81 339.43 C 1656.83 340.51 1657.11 341.52 1657.66 342.45 C 1659.42 345.52 1662.18 348.15 1665.35 349.78 C 1666.67 350.43 1668.04 351.05 1669.57 351.21 C 1671.59 352.86 1674.56 351.69 1677.00 352.04 C 1679.07 351.72 1681.73 352.82 1683.43 351.19 C 1684.49 351.13 1685.50 350.85 1686.46 350.34 C 1689.21 348.48 1692.66 347.10 1693.74 343.63 C 1693.99 343.13 1694.49 342.13 1694.74 341.63 C 1695.42 340.30 1696.05 338.94 1696.21 337.43 C 1697.59 336.16 1696.81 334.08 1697.08 332.44 C 1698.63 331.48 1697.80 329.47 1698.05 328.01 C 1698.00 290.68 1698.06 253.35 1698.02 216.02 Z" />
<path fill="#ffffff" opacity="1.00" d=" M 916.61 216.62 C 919.11 218.39 920.40 221.32 922.64 223.39 C 923.67 225.28 925.21 226.80 926.65 228.38 C 927.66 230.28 929.21 231.79 930.65 233.38 C 931.65 235.28 933.21 236.79 934.65 238.38 C 935.65 240.29 937.22 241.79 938.65 243.38 C 939.85 245.73 941.94 247.41 943.67 249.36 C 944.62 251.30 946.22 252.79 947.65 254.38 C 948.65 256.28 950.21 257.79 951.65 259.38 C 952.66 261.28 954.21 262.80 955.65 264.38 C 956.65 266.41 958.34 267.95 959.99 269.46 C 959.99 269.98 959.99 271.02 959.99 271.54 C 958.35 273.05 956.64 274.58 955.66 276.62 C 954.55 277.87 953.42 279.09 952.34 280.34 C 951.33 282.25 949.76 283.75 948.35 285.34 C 947.11 287.68 944.88 289.28 943.65 291.62 C 942.21 293.20 940.65 294.71 939.65 296.62 C 938.21 298.20 936.65 299.71 935.65 301.62 C 934.21 303.20 932.66 304.71 931.65 306.62 C 930.22 308.21 928.63 309.70 927.67 311.64 C 925.94 313.59 923.85 315.26 922.65 317.62 C 921.22 319.20 919.64 320.70 918.66 322.62 C 917.55 323.87 916.42 325.09 915.34 326.34 C 914.12 328.69 911.87 330.28 910.65 332.62 C 909.21 334.20 907.66 335.71 906.65 337.62 C 905.21 339.20 903.66 340.71 902.65 342.62 C 901.21 344.20 899.66 345.71 898.65 347.62 C 897.21 349.20 895.66 350.71 894.65 352.62 C 893.22 354.21 891.63 355.70 890.67 357.64 C 888.94 359.58 886.85 361.27 885.65 363.62 C 884.21 365.20 882.65 366.71 881.65 368.62 C 880.23 370.21 878.63 371.69 877.68 373.63 C 876.34 375.17 874.93 376.64 873.42 378.00 L 787.56 378.00 C 788.57 375.39 791.12 373.86 792.34 371.38 C 793.43 370.12 794.56 368.91 795.66 367.66 C 796.65 365.74 798.22 364.24 799.66 362.66 C 800.66 360.75 802.22 359.24 803.66 357.66 C 805.01 354.82 807.99 353.22 809.35 350.38 C 810.77 348.79 812.34 347.29 813.35 345.38 C 814.77 343.79 816.33 342.28 817.35 340.38 C 818.77 338.79 820.33 337.28 821.35 335.38 C 822.77 333.79 824.33 332.28 825.35 330.38 C 826.77 328.79 828.33 327.28 829.35 325.38 C 830.77 323.79 832.36 322.30 833.33 320.36 C 835.05 318.41 837.15 316.73 838.35 314.38 C 839.77 312.79 841.34 311.29 842.35 309.38 C 843.77 307.79 845.34 306.29 846.34 304.38 C 847.43 303.13 848.56 301.91 849.66 300.66 C 850.66 298.75 852.22 297.24 853.65 295.65 C 854.89 293.32 857.10 291.71 858.36 289.38 C 859.77 287.79 861.33 286.28 862.35 284.38 C 863.77 282.79 865.35 281.30 866.33 279.37 C 867.74 277.78 869.25 276.26 870.67 274.67 C 871.86 272.30 874.12 270.72 875.35 268.38 C 876.77 266.79 878.33 265.28 879.35 263.38 C 880.77 261.79 882.34 260.29 883.34 258.38 C 884.43 257.13 885.56 255.91 886.66 254.66 C 887.88 252.31 890.11 250.72 891.35 248.38 C 892.77 246.79 894.36 245.29 895.33 243.36 C 897.05 241.41 899.14 239.73 900.35 237.38 C 901.77 235.79 903.33 234.29 904.35 232.38 C 905.77 230.79 907.33 229.28 908.35 227.38 C 909.77 225.79 911.34 224.29 912.35 222.38 C 913.93 220.59 915.82 218.96 916.61 216.62 Z" />
<path fill="#ffffff" opacity="1.00" d=" M 1582.45 342.08 C 1585.80 341.99 1589.17 342.01 1592.55 342.07 C 1596.60 343.89 1601.26 346.29 1603.26 350.64 C 1603.74 351.60 1604.29 352.54 1604.92 353.45 C 1604.57 357.37 1605.86 361.76 1604.28 365.40 C 1604.04 365.90 1603.56 366.90 1603.31 367.40 C 1601.72 370.23 1599.22 372.73 1596.40 374.31 C 1595.90 374.55 1594.90 375.04 1594.40 375.28 C 1590.75 376.86 1586.37 375.56 1582.45 375.93 C 1578.89 374.17 1574.38 372.43 1572.73 368.37 C 1572.21 367.43 1571.70 366.50 1571.19 365.58 C 1571.24 364.36 1570.86 363.35 1570.06 362.56 C 1570.00 360.18 1570.00 357.81 1570.06 355.44 C 1570.86 354.64 1571.24 353.63 1571.19 352.42 C 1571.71 351.50 1572.22 350.57 1572.73 349.63 C 1573.57 347.40 1575.46 345.68 1577.60 344.67 C 1578.11 344.45 1579.13 343.99 1579.64 343.77 C 1580.58 343.24 1581.52 342.68 1582.45 342.08 Z" />
</g>
</svg>
