<?xml version="1.0" encoding="UTF-8" ?>
<!DOCTYPE svg PUBLIC "-//W3C//DTD SVG 1.1//EN" "http://www.w3.org/Graphics/SVG/1.1/DTD/svg11.dtd">
<svg width="512pt" height="512pt" viewBox="0 0 512 512" version="1.1" xmlns="http://www.w3.org/2000/svg">
<g id="#b2b2b2ff">
<path fill="#b2b2b2" opacity="1.00" d=" M 353.72 32.72 C 364.66 22.11 375.12 10.98 386.23 0.54 C 385.80 2.23 385.21 3.88 384.76 5.57 C 384.49 6.07 383.95 7.07 383.68 7.57 C 383.17 8.89 382.74 10.23 382.21 11.53 C 382.11 12.02 381.89 12.99 381.79 13.48 C 381.24 14.79 380.80 16.15 380.29 17.48 C 379.99 18.49 379.67 19.50 379.33 20.50 C 379.02 21.50 378.69 22.50 378.34 23.49 C 377.99 24.52 377.61 25.54 377.21 26.55 C 377.11 27.03 376.90 28.00 376.80 28.48 C 376.10 30.19 375.48 31.93 374.74 33.61 C 374.19 34.90 373.74 36.23 373.20 37.51 C 373.10 38.01 372.91 39.00 372.81 39.49 C 372.23 40.82 371.76 42.18 371.19 43.51 C 371.09 44.00 370.89 44.98 370.79 45.48 C 370.25 46.79 369.81 48.14 369.29 49.46 C 368.99 50.48 368.67 51.49 368.33 52.49 C 368.02 53.50 367.69 54.50 367.34 55.49 C 367.01 56.48 366.66 57.45 366.29 58.42 C 365.51 60.09 364.88 61.81 364.19 63.51 C 364.10 64.01 363.91 64.99 363.81 65.49 C 363.23 66.82 362.76 68.18 362.19 69.52 C 362.09 70.01 361.89 70.98 361.80 71.47 C 361.25 72.79 360.81 74.14 360.29 75.46 C 359.99 76.48 359.67 77.49 359.33 78.50 C 359.02 79.50 358.68 80.50 358.34 81.50 C 358.01 82.48 357.66 83.46 357.29 84.42 C 356.51 86.09 355.88 87.81 355.19 89.51 C 355.10 90.01 354.91 90.99 354.81 91.48 C 354.23 92.81 353.76 94.18 353.19 95.52 C 353.09 96.01 352.91 97.00 352.81 97.49 C 352.23 98.82 351.76 100.19 351.19 101.52 C 351.09 102.01 350.89 102.98 350.79 103.47 C 350.24 104.79 349.81 106.14 349.30 107.47 C 348.99 108.46 348.65 109.44 348.29 110.41 C 347.66 111.75 347.07 113.11 346.68 114.53 C 346.18 115.86 345.75 117.22 345.21 118.53 C 345.11 119.02 344.91 119.99 344.81 120.48 C 344.23 121.81 343.76 123.18 343.19 124.51 C 343.09 125.01 342.91 125.99 342.81 126.49 C 342.23 127.81 341.76 129.18 341.19 130.51 C 341.09 131.00 340.90 131.99 340.81 132.48 C 340.25 133.77 339.80 135.09 339.27 136.39 C 338.51 138.07 337.89 139.80 337.20 141.51 C 337.10 141.99 336.88 142.96 336.78 143.44 C 336.38 144.46 336.02 145.49 335.69 146.53 C 335.18 147.85 334.75 149.21 334.21 150.52 C 334.11 151.01 333.89 151.97 333.79 152.45 C 333.37 153.45 332.99 154.47 332.65 155.49 C 332.30 156.50 331.99 157.51 331.71 158.53 C 331.20 159.81 330.78 161.12 330.28 162.40 C 329.51 164.07 328.88 165.80 328.20 167.51 C 328.10 168.00 327.89 168.99 327.79 169.48 C 327.24 170.79 326.81 172.14 326.31 173.47 C 325.98 174.51 325.61 175.54 325.22 176.55 C 325.12 177.04 324.91 178.00 324.81 178.49 C 324.23 179.81 323.76 181.18 323.19 182.51 C 323.09 183.00 322.90 183.99 322.81 184.49 C 322.12 186.19 321.48 187.91 320.70 189.58 C 320.34 190.55 320.00 191.54 319.70 192.54 C 319.18 193.86 318.75 195.21 318.22 196.52 C 318.11 197.00 317.89 197.97 317.78 198.45 C 317.38 199.46 317.01 200.49 316.67 201.52 C 316.19 202.83 315.80 204.16 315.33 205.47 C 314.99 206.51 314.62 207.53 314.22 208.55 C 314.11 209.04 313.91 210.00 313.80 210.49 C 313.25 211.77 312.80 213.10 312.25 214.38 C 311.66 215.74 311.10 217.10 310.68 218.52 C 310.43 219.13 309.95 220.36 309.70 220.97 C 345.93 221.04 382.16 220.98 418.39 221.00 C 412.96 226.38 407.97 232.29 401.74 236.76 C 394.24 244.24 386.76 251.75 379.26 259.23 C 375.69 262.68 372.49 266.56 368.29 269.27 C 357.88 279.52 347.62 289.94 337.26 300.24 C 335.69 301.71 333.71 302.67 332.23 304.24 C 322.77 313.77 313.23 323.22 303.77 332.76 C 302.12 334.49 299.88 335.51 298.23 337.24 C 288.44 347.11 278.56 356.89 268.77 366.76 C 267.12 368.48 264.89 369.51 263.24 371.24 C 253.77 380.77 244.22 390.23 234.75 399.77 C 233.10 401.49 230.87 402.51 229.23 404.25 C 219.76 413.79 210.21 423.25 200.74 432.79 C 199.10 434.49 196.89 435.51 195.25 437.22 C 185.45 447.09 175.57 456.89 165.77 466.76 C 164.11 468.49 161.89 469.51 160.23 471.24 C 151.93 479.60 143.57 487.91 135.24 496.26 C 133.08 498.40 131.07 500.76 128.45 502.38 C 124.88 505.04 122.27 508.77 118.71 511.46 C 118.96 510.74 119.45 509.31 119.70 508.59 C 120.33 507.25 120.92 505.89 121.32 504.47 C 121.80 503.18 122.21 501.88 122.73 500.62 C 123.34 499.25 123.91 497.88 124.32 496.46 C 124.91 494.74 125.52 493.04 126.26 491.39 C 126.78 490.13 127.21 488.85 127.74 487.60 C 128.48 485.95 129.08 484.24 129.69 482.54 C 130.00 481.54 130.34 480.56 130.71 479.59 C 131.34 478.25 131.92 476.89 132.32 475.47 C 132.91 473.75 133.51 472.04 134.28 470.39 C 134.79 469.11 135.20 467.80 135.69 466.53 C 136.00 465.53 136.34 464.56 136.71 463.60 C 137.34 462.25 137.92 460.89 138.32 459.47 C 138.79 458.18 139.21 456.87 139.72 455.61 C 140.47 453.97 141.08 452.28 141.74 450.61 C 142.48 448.95 143.09 447.24 143.68 445.53 C 144.07 444.10 144.66 442.74 145.29 441.41 C 145.66 440.43 146.00 439.45 146.31 438.47 C 146.79 437.18 147.21 435.88 147.73 434.62 C 148.34 433.26 148.91 431.89 149.32 430.46 C 149.91 428.74 150.52 427.03 151.27 425.39 C 151.78 424.11 152.20 422.81 152.69 421.53 C 153.00 420.54 153.34 419.55 153.71 418.59 C 154.49 416.94 155.10 415.23 155.69 413.52 C 156.08 412.09 156.67 410.74 157.30 409.41 C 157.65 408.42 157.98 407.42 158.26 406.42 C 158.54 405.92 159.10 404.93 159.38 404.43 C 159.70 403.44 160.01 402.45 160.29 401.46 C 160.79 400.18 161.21 398.87 161.73 397.61 C 162.48 395.95 163.09 394.24 163.72 392.53 C 163.99 391.53 164.29 390.54 164.62 389.56 C 164.90 389.06 165.48 388.07 165.76 387.58 C 166.02 386.54 166.31 385.51 166.62 384.50 C 167.09 383.09 167.67 381.74 168.29 380.41 C 168.66 379.43 169.00 378.46 169.31 377.47 C 169.79 376.18 170.21 374.88 170.72 373.61 C 171.46 371.97 172.08 370.28 172.75 368.62 C 173.34 367.26 173.90 365.89 174.32 364.46 C 174.79 363.18 175.21 361.88 175.73 360.61 C 176.34 359.26 176.91 357.89 177.32 356.47 C 177.80 355.18 178.21 353.88 178.73 352.61 C 179.34 351.25 179.91 349.88 180.32 348.46 C 180.80 347.18 181.21 345.87 181.73 344.61 C 182.34 343.26 182.91 341.89 183.32 340.46 C 183.80 339.18 184.21 337.87 184.72 336.60 C 185.64 334.56 186.36 332.43 187.28 330.39 C 187.79 329.12 188.20 327.81 188.69 326.53 C 189.00 325.54 189.34 324.56 189.71 323.59 C 190.34 322.25 190.93 320.90 191.32 319.47 C 191.79 318.18 192.21 316.88 192.73 315.61 C 193.33 314.26 193.90 312.89 194.32 311.48 C 194.79 310.19 195.21 308.88 195.73 307.61 C 196.34 306.26 196.91 304.89 197.32 303.47 C 197.90 301.75 198.51 300.05 199.29 298.41 C 199.66 297.44 199.99 296.45 200.30 295.46 C 200.86 293.94 201.38 292.41 202.06 290.94 C 165.91 291.08 129.76 290.96 93.61 291.00 C 122.04 262.30 150.74 233.86 179.24 205.23 C 180.90 203.50 183.13 202.48 184.78 200.75 C 238.90 146.55 293.11 92.44 347.23 38.25 C 349.13 36.10 351.39 34.37 353.72 32.72 Z" />
</g>
</svg>
