<?xml version="1.0" encoding="UTF-8" ?>
<!DOCTYPE svg PUBLIC "-//W3C//DTD SVG 1.1//EN" "http://www.w3.org/Graphics/SVG/1.1/DTD/svg11.dtd">
<svg width="512pt" height="512pt" viewBox="0 0 512 512" version="1.1" xmlns="http://www.w3.org/2000/svg">
<g id="#b2b2b2ff">
<path fill="#b2b2b2" opacity="1.00" d=" M 241.46 1.93 C 242.66 0.61 244.47 1.07 246.03 0.97 C 253.50 1.08 260.98 0.88 268.45 1.08 C 272.30 3.67 277.72 0.32 281.55 2.93 C 284.50 3.42 287.98 2.03 290.54 3.91 C 292.17 3.98 293.81 4.02 295.45 4.09 C 297.41 5.99 300.55 4.03 302.54 5.88 C 303.51 5.96 304.48 6.04 305.46 6.13 C 306.84 7.38 308.78 6.91 310.47 7.14 C 311.57 8.15 313.10 7.96 314.47 8.21 C 315.63 9.06 317.11 8.98 318.47 9.22 C 320.03 10.17 322.01 9.81 323.54 10.83 C 324.02 10.91 324.99 11.08 325.48 11.17 C 326.81 11.75 328.18 12.24 329.52 12.84 C 330.00 12.92 330.97 13.09 331.46 13.18 C 332.42 13.65 333.43 14.04 334.48 14.33 C 335.47 14.68 336.48 15.00 337.50 15.30 C 339.24 15.89 340.97 16.49 342.63 17.31 C 343.77 17.89 345.00 18.16 346.33 18.11 C 343.24 21.10 340.55 24.60 336.80 26.81 C 331.45 31.46 327.19 37.37 321.22 41.28 C 319.24 43.16 317.39 45.17 315.45 47.09 C 314.29 45.41 311.95 46.39 310.47 45.21 C 309.11 44.96 307.59 45.12 306.47 44.15 C 305.98 44.08 305.01 43.93 304.53 43.85 C 303.13 42.62 301.21 43.09 299.54 42.86 C 297.82 41.29 295.14 42.73 293.46 41.11 C 292.15 41.03 290.84 40.97 289.54 40.89 C 286.95 38.67 283.01 41.35 280.45 39.08 C 277.81 38.97 275.18 39.03 272.55 38.92 C 272.16 38.70 271.38 38.27 270.99 38.05 C 260.97 37.96 250.94 37.96 240.91 38.05 C 240.55 38.27 239.83 38.71 239.47 38.93 C 236.49 39.04 233.52 38.95 230.55 39.08 C 228.61 40.76 225.85 39.73 223.54 40.08 C 221.60 42.01 218.45 40.03 216.46 41.86 C 214.78 42.09 212.84 41.62 211.46 42.87 C 210.48 42.96 209.51 43.04 208.54 43.13 C 207.43 44.13 205.89 43.96 204.53 44.22 C 202.96 45.15 201.00 44.84 199.45 45.82 C 198.97 45.91 198.02 46.08 197.54 46.17 C 196.01 47.15 194.10 46.94 192.48 47.67 C 191.47 47.99 190.47 48.32 189.48 48.68 C 188.47 48.99 187.47 49.32 186.49 49.69 C 185.52 49.98 184.56 50.31 183.63 50.68 C 182.02 51.51 180.29 52.05 178.61 52.72 C 176.61 53.74 174.42 54.29 172.38 55.20 C 171.46 55.74 170.54 56.26 169.61 56.77 C 168.53 57.24 167.47 57.75 166.40 58.25 C 164.84 59.16 163.16 59.85 161.60 60.75 C 160.53 61.25 159.46 61.76 158.40 62.25 C 157.45 62.75 156.50 63.24 155.54 63.70 C 154.14 64.52 152.85 65.49 151.44 66.29 C 148.26 67.73 145.73 70.26 142.56 71.72 C 135.39 76.32 128.69 81.72 122.02 86.99 C 117.29 90.19 114.29 95.47 109.18 98.20 C 106.46 103.30 101.19 106.29 97.99 111.02 C 91.99 118.63 85.84 126.27 80.72 134.57 C 79.88 136.33 78.69 137.88 77.72 139.57 C 76.89 141.34 75.70 142.89 74.66 144.54 C 74.43 145.04 73.98 146.06 73.76 146.57 C 72.99 147.86 72.36 149.23 71.75 150.60 C 70.85 152.16 70.15 153.84 69.25 155.40 C 68.75 156.46 68.25 157.53 67.76 158.60 C 66.63 160.55 65.72 162.61 64.68 164.61 C 64.20 165.85 63.80 167.13 63.28 168.37 C 62.50 170.03 61.89 171.76 61.30 173.50 C 61.04 174.56 60.67 175.57 60.17 176.54 C 60.09 177.02 59.91 177.99 59.83 178.47 C 59.23 179.78 58.78 181.15 58.28 182.50 C 58.06 183.57 57.69 184.58 57.16 185.53 C 57.08 186.02 56.93 186.98 56.85 187.47 C 55.88 188.59 56.04 190.11 55.78 191.46 C 54.81 193.02 55.23 195.04 54.13 196.54 C 54.04 197.51 53.96 198.48 53.87 199.46 C 52.61 200.84 53.10 202.79 52.87 204.47 C 51.59 205.84 52.10 207.78 51.86 209.46 C 49.83 211.75 52.21 215.30 50.08 217.54 C 49.99 219.84 50.01 222.15 49.92 224.45 C 48.62 225.66 49.07 227.48 48.97 229.03 C 49.08 240.71 48.91 252.39 49.05 264.07 C 49.27 264.44 49.71 265.17 49.93 265.54 C 50.41 268.49 49.05 271.95 50.90 274.54 C 51.17 276.54 50.42 278.89 51.90 280.55 C 52.17 282.54 51.43 284.86 52.88 286.54 C 52.96 287.51 53.04 288.49 53.12 289.47 C 54.67 291.16 53.37 293.76 54.80 295.52 C 54.97 296.87 55.04 298.27 55.66 299.53 C 55.96 300.57 56.34 301.57 56.83 302.54 C 56.91 303.02 57.09 303.98 57.18 304.46 C 58.13 305.99 57.94 307.89 58.68 309.51 C 59.00 310.51 59.33 311.51 59.69 312.51 C 60.04 313.94 60.65 315.30 61.28 316.64 C 61.82 317.89 62.24 319.20 62.73 320.48 C 63.14 322.69 64.30 324.63 65.33 326.59 C 65.94 328.26 66.49 329.96 67.20 331.61 C 68.18 333.13 68.83 334.84 69.75 336.40 C 70.25 337.46 70.76 338.53 71.24 339.61 C 71.75 340.54 72.26 341.48 72.77 342.43 C 72.99 342.94 73.43 343.96 73.65 344.47 C 74.71 346.10 75.89 347.66 76.72 349.43 C 77.68 351.12 78.87 352.67 79.72 354.43 C 82.59 359.10 85.79 363.58 88.78 368.18 C 92.55 371.82 94.77 376.77 98.74 380.22 C 100.83 382.20 101.94 384.97 104.24 386.77 C 109.47 391.53 113.83 397.31 119.74 401.25 C 126.69 408.34 135.20 413.57 143.21 419.39 C 143.00 420.41 142.72 421.42 142.36 422.42 C 141.42 424.12 140.56 425.86 139.67 427.60 C 139.06 429.27 138.50 430.97 137.80 432.61 C 136.99 433.88 136.33 435.24 135.67 436.60 C 135.04 438.27 134.49 439.96 133.80 441.61 C 132.99 442.88 132.33 444.24 131.68 445.61 C 131.21 446.85 130.80 448.13 130.29 449.37 C 129.68 450.66 129.06 451.96 128.62 453.33 C 118.15 446.65 107.88 439.52 98.55 431.36 C 95.22 429.49 93.13 426.16 90.19 423.81 C 85.94 421.20 82.89 417.14 79.28 413.77 C 77.04 410.08 73.74 407.29 70.73 404.26 C 65.41 397.20 59.39 390.69 54.74 383.10 C 53.47 380.76 51.22 379.09 50.29 376.55 C 49.31 374.87 48.11 373.33 47.28 371.57 C 46.31 369.88 45.11 368.33 44.29 366.56 C 42.81 364.31 41.41 362.03 40.24 359.60 C 39.75 358.53 39.25 357.46 38.75 356.40 C 37.85 354.83 37.15 353.16 36.25 351.60 C 35.75 350.52 35.23 349.45 34.75 348.38 C 34.47 347.90 33.93 346.93 33.66 346.45 C 32.93 344.47 32.49 342.33 31.21 340.61 C 30.28 338.56 29.73 336.37 28.71 334.36 C 28.20 333.13 27.79 331.86 27.29 330.63 C 26.50 328.97 25.88 327.24 25.30 325.50 C 25.00 324.48 24.68 323.47 24.33 322.48 C 24.04 321.43 23.65 320.42 23.18 319.45 C 23.09 318.97 22.92 318.01 22.83 317.54 C 21.75 316.02 22.25 313.97 21.17 312.46 C 21.08 311.98 20.91 311.02 20.83 310.54 C 19.74 309.02 20.29 306.94 19.13 305.47 C 19.04 304.49 18.96 303.51 18.88 302.54 C 17.86 301.43 18.05 299.88 17.79 298.53 C 16.69 297.08 17.06 295.22 16.86 293.54 C 15.46 291.85 16.16 289.54 15.90 287.55 C 14.00 285.58 16.01 282.40 14.08 280.45 C 13.99 278.15 14.01 275.84 13.92 273.55 C 11.45 270.35 14.56 265.64 12.08 262.45 C 11.94 251.29 11.97 240.13 12.05 228.97 C 12.27 228.59 12.71 227.84 12.93 227.46 C 13.06 224.15 12.93 220.85 13.08 217.54 C 14.89 215.31 13.65 212.18 14.07 209.55 C 16.03 207.61 13.98 204.42 15.90 202.46 C 16.13 200.45 15.52 198.22 16.79 196.47 C 17.05 195.11 16.89 193.58 17.86 192.45 C 18.05 190.77 17.70 188.92 18.79 187.47 C 19.05 186.11 18.88 184.59 19.85 183.46 C 19.93 182.98 20.09 182.02 20.17 181.54 C 21.14 180.01 20.93 178.10 21.68 176.49 C 21.99 175.48 22.33 174.48 22.68 173.48 C 22.99 172.47 23.33 171.47 23.68 170.48 C 23.99 169.47 24.33 168.47 24.68 167.48 C 24.99 166.47 25.32 165.47 25.68 164.48 C 26.00 163.48 26.33 162.48 26.69 161.49 C 27.02 160.04 27.65 158.69 28.32 157.37 C 28.69 156.43 29.02 155.47 29.30 154.50 C 30.02 152.50 30.56 150.39 31.74 148.59 C 32.26 147.52 32.79 146.45 33.31 145.38 C 33.80 144.13 34.20 142.86 34.68 141.62 C 35.21 140.55 35.74 139.48 36.26 138.40 C 37.34 136.44 38.34 134.43 39.22 132.37 C 40.74 129.77 42.61 127.39 43.68 124.54 C 44.53 123.16 45.49 121.85 46.28 120.43 C 47.12 118.67 48.31 117.12 49.28 115.44 C 55.53 105.21 62.76 95.53 70.65 86.55 C 74.05 81.13 80.06 77.83 83.35 72.35 C 89.04 68.90 92.44 62.60 98.20 59.20 C 101.33 55.89 105.18 53.44 108.77 50.70 C 111.17 47.95 114.71 46.66 117.35 44.19 C 118.22 43.32 119.34 42.81 120.44 42.28 C 123.91 40.23 127.13 37.79 130.53 35.65 C 131.05 35.44 132.09 35.01 132.61 34.79 C 134.30 33.84 135.89 32.71 137.54 31.68 C 138.89 31.02 140.24 30.36 141.61 29.73 C 142.09 29.48 143.07 28.98 143.55 28.73 C 144.52 28.25 145.48 27.77 146.46 27.30 C 148.32 26.03 150.22 24.85 152.44 24.33 C 152.93 24.06 153.90 23.53 154.38 23.26 C 155.76 22.66 157.13 22.02 158.39 21.20 C 160.06 20.49 161.78 19.91 163.49 19.29 C 164.94 18.97 166.29 18.37 167.62 17.72 C 169.29 17.04 171.02 16.52 172.62 15.68 C 173.56 15.31 174.52 14.98 175.50 14.71 C 176.82 14.21 178.17 13.78 179.50 13.29 C 180.56 13.04 181.57 12.67 182.54 12.17 C 183.02 12.09 183.98 11.91 184.46 11.83 C 185.99 10.79 188.01 11.20 189.54 10.17 C 190.02 10.09 190.98 9.92 191.46 9.84 C 192.60 8.89 194.11 9.03 195.47 8.79 C 197.24 7.37 199.83 8.68 201.54 7.13 C 202.51 7.04 203.48 6.96 204.46 6.87 C 206.16 5.29 208.87 6.74 210.54 5.09 C 212.17 5.02 213.81 4.98 215.45 4.90 C 217.11 3.42 219.45 4.17 221.45 3.90 C 223.73 2.16 226.82 3.33 229.45 2.93 C 232.98 0.83 237.53 2.60 241.46 1.93 Z" />
<path fill="#b2b2b2" opacity="1.00" d=" M 353.75 32.74 C 364.65 22.10 375.09 10.95 386.25 0.59 C 386.02 1.33 385.56 2.79 385.32 3.52 C 385.02 4.49 384.69 5.44 384.32 6.37 C 383.64 7.69 383.00 9.04 382.72 10.51 C 382.21 11.83 381.78 13.18 381.29 14.50 C 381.04 15.56 380.67 16.57 380.17 17.54 C 380.09 18.02 379.91 18.98 379.83 19.46 C 379.30 20.41 378.92 21.42 378.69 22.48 C 378.33 23.47 377.99 24.47 377.68 25.48 C 377.32 26.48 377.00 27.48 376.70 28.50 C 376.11 30.24 375.50 31.98 374.69 33.63 C 374.32 34.57 373.98 35.52 373.68 36.48 C 373.32 37.48 372.99 38.48 372.71 39.50 C 372.21 40.82 371.79 42.17 371.29 43.50 C 371.00 44.52 370.67 45.52 370.32 46.52 C 370.00 47.52 369.67 48.53 369.32 49.52 C 369.01 50.53 368.67 51.53 368.31 52.51 C 368.01 53.52 367.68 54.52 367.32 55.51 C 367.01 56.48 366.68 57.43 366.32 58.37 C 365.64 59.70 365.01 61.05 364.72 62.52 C 364.21 63.83 363.78 65.17 363.29 66.49 C 363.07 67.57 362.70 68.58 362.17 69.53 C 362.08 70.02 361.91 70.99 361.83 71.47 C 361.23 72.78 360.78 74.15 360.28 75.49 C 359.99 76.51 359.68 77.52 359.33 78.52 C 359.01 79.53 358.67 80.52 358.31 81.51 C 358.01 82.48 357.68 83.43 357.32 84.37 C 356.50 86.05 355.88 87.81 355.18 89.53 C 355.09 90.02 354.91 90.99 354.82 91.48 C 354.22 92.78 353.78 94.15 353.28 95.49 C 352.99 96.51 352.67 97.52 352.33 98.52 C 352.04 99.57 351.66 100.57 351.17 101.54 C 351.09 102.02 350.91 102.98 350.82 103.46 C 350.33 104.43 349.95 105.44 349.69 106.50 C 349.11 108.24 348.50 109.98 347.68 111.63 C 347.30 112.56 346.97 113.52 346.68 114.49 C 346.31 115.47 345.98 116.47 345.69 117.48 C 345.32 118.47 344.99 119.47 344.68 120.48 C 344.32 121.47 343.99 122.47 343.68 123.48 C 343.32 124.48 343.00 125.48 342.71 126.50 C 342.20 127.82 341.78 129.17 341.29 130.50 C 341.00 131.52 340.68 132.52 340.33 133.52 C 340.02 134.48 339.68 135.43 339.31 136.37 C 338.65 137.69 338.03 139.04 337.69 140.49 C 337.31 141.48 336.99 142.48 336.72 143.50 C 336.21 144.85 335.76 146.22 335.17 147.53 C 335.09 148.01 334.91 148.98 334.83 149.46 C 334.33 150.42 333.94 151.43 333.68 152.49 C 333.29 153.47 332.97 154.48 332.71 155.50 C 332.21 156.82 331.78 158.17 331.29 159.50 C 331.01 160.47 330.69 161.43 330.33 162.37 C 329.64 163.69 329.00 165.04 328.73 166.52 C 328.21 167.85 327.75 169.21 327.17 170.53 C 327.09 171.02 326.92 172.00 326.84 172.49 C 326.23 173.81 325.75 175.19 325.17 176.52 C 325.08 177.01 324.91 177.97 324.83 178.46 C 324.33 179.42 323.95 180.44 323.70 181.50 C 323.21 182.82 322.79 184.17 322.30 185.50 C 322.02 186.47 321.69 187.43 321.32 188.37 C 320.64 189.69 320.00 191.04 319.72 192.51 C 319.21 193.83 318.78 195.17 318.29 196.50 C 317.99 197.51 317.67 198.52 317.32 199.52 C 317.03 200.56 316.65 201.57 316.17 202.54 C 316.09 203.03 315.92 204.00 315.83 204.48 C 315.21 205.78 314.78 207.15 314.28 208.49 C 314.02 209.51 313.70 210.52 313.32 211.51 C 313.02 212.47 312.69 213.42 312.32 214.37 C 311.64 215.69 311.01 217.04 310.72 218.51 C 310.47 219.13 309.96 220.36 309.70 220.97 C 345.92 221.04 382.14 220.98 418.36 221.00 C 412.96 226.38 407.98 232.31 401.75 236.72 C 391.95 246.60 382.06 256.39 372.27 266.26 C 370.93 267.65 369.06 268.35 367.73 269.74 C 357.61 279.94 347.39 290.05 337.27 300.26 C 335.93 301.64 334.07 302.35 332.73 303.74 C 322.94 313.61 313.06 323.39 303.27 333.26 C 301.94 334.65 300.07 335.35 298.74 336.74 C 288.61 346.94 278.40 357.05 268.27 367.25 C 266.94 368.64 265.07 369.35 263.73 370.74 C 253.94 380.61 244.06 390.39 234.27 400.26 C 232.93 401.64 231.06 402.35 229.73 403.74 C 219.94 413.61 210.05 423.40 200.26 433.27 C 198.93 434.64 197.07 435.34 195.75 436.73 C 185.61 446.93 175.39 457.06 165.26 467.27 C 163.92 468.65 162.06 469.36 160.72 470.75 C 150.76 480.76 140.76 490.74 130.77 500.72 C 126.09 503.49 123.03 508.14 118.74 511.40 C 118.98 510.70 119.44 509.32 119.68 508.63 C 120.36 507.30 121.00 505.95 121.28 504.48 C 121.76 503.20 122.18 501.89 122.71 500.64 C 123.36 499.30 123.98 497.95 124.28 496.49 C 124.90 494.76 125.52 493.02 126.29 491.36 C 126.80 490.13 127.21 488.86 127.72 487.64 C 128.49 485.97 129.11 484.24 129.70 482.51 C 129.97 481.52 130.29 480.56 130.67 479.63 C 131.35 478.30 131.99 476.95 132.28 475.48 C 132.76 474.20 133.18 472.89 133.72 471.63 C 134.36 470.29 134.97 468.94 135.28 467.49 C 135.90 465.76 136.51 464.02 137.28 462.36 C 137.81 461.09 138.23 459.79 138.71 458.51 C 138.97 457.52 139.30 456.56 139.67 455.62 C 140.80 453.63 141.20 451.36 142.33 449.38 C 142.69 448.43 143.01 447.47 143.29 446.50 C 143.77 445.20 144.17 443.89 144.71 442.64 C 145.36 441.30 145.99 439.94 146.28 438.48 C 146.77 437.19 147.19 435.89 147.72 434.64 C 148.49 432.97 149.11 431.24 149.70 429.51 C 149.98 428.53 150.30 427.57 150.68 426.63 C 151.35 425.30 151.98 423.95 152.28 422.49 C 152.90 420.76 153.50 419.02 154.31 417.37 C 154.69 416.42 155.02 415.46 155.30 414.49 C 155.90 412.75 156.52 411.02 157.29 409.36 C 157.80 408.13 158.21 406.86 158.72 405.64 C 159.35 404.29 159.98 402.94 160.28 401.48 C 160.76 400.20 161.18 398.89 161.71 397.64 C 162.36 396.30 162.98 394.95 163.28 393.49 C 163.76 392.20 164.18 390.89 164.72 389.63 C 165.49 387.96 166.10 386.23 166.72 384.51 C 167.01 383.04 167.64 381.69 168.32 380.37 C 168.69 379.42 169.01 378.46 169.30 377.50 C 169.89 375.76 170.51 374.03 171.27 372.37 C 171.79 371.13 172.21 369.86 172.73 368.63 C 173.49 366.96 174.11 365.23 174.70 363.50 C 174.96 362.52 175.29 361.56 175.69 360.63 C 176.50 358.98 177.11 357.24 177.70 355.50 C 177.98 354.52 178.31 353.57 178.68 352.63 C 179.35 351.30 179.98 349.95 180.28 348.48 C 180.76 347.20 181.18 345.90 181.72 344.64 C 182.35 343.30 182.97 341.94 183.29 340.49 C 183.89 338.75 184.51 337.03 185.28 335.36 C 185.79 334.13 186.21 332.87 186.72 331.64 C 187.48 329.97 188.10 328.24 188.70 326.50 C 188.98 325.52 189.31 324.57 189.68 323.63 C 190.35 322.30 191.00 320.96 191.28 319.49 C 191.76 318.20 192.18 316.89 192.73 315.63 C 193.49 313.96 194.09 312.23 194.72 310.51 C 195.01 309.04 195.64 307.69 196.32 306.37 C 196.69 305.43 197.02 304.47 197.30 303.50 C 197.89 301.76 198.50 300.03 199.27 298.37 C 199.81 297.10 200.24 295.80 200.73 294.52 C 200.92 293.18 201.43 291.96 202.23 290.88 C 166.04 291.16 129.83 290.92 93.63 291.00 C 118.20 266.12 143.07 241.52 167.75 216.75 C 173.12 211.79 177.67 205.85 183.76 201.73 C 235.43 150.08 287.08 98.41 338.75 46.75 C 343.77 42.11 348.02 36.54 353.75 32.74 Z" />
<path fill="#b2b2b2" opacity="1.00" d=" M 392.32 43.82 C 395.63 44.04 397.85 46.89 400.44 48.64 C 406.39 52.20 411.01 57.43 416.76 61.27 C 424.08 68.58 431.42 75.90 438.73 83.24 C 440.32 85.63 442.10 87.86 444.28 89.76 C 451.76 99.34 458.82 109.26 465.28 119.56 C 466.63 122.26 468.64 124.57 469.68 127.46 C 470.52 128.84 471.46 130.16 472.32 131.54 C 472.99 132.88 473.62 134.23 474.25 135.60 C 475.01 136.88 475.63 138.23 476.25 139.60 C 477.70 141.73 478.11 144.33 479.23 146.63 C 479.50 147.10 480.05 148.06 480.33 148.54 C 480.92 150.24 481.48 151.95 482.21 153.61 C 483.48 155.36 483.95 157.50 484.70 159.50 C 484.99 160.52 485.31 161.52 485.68 162.52 C 485.99 163.52 486.33 164.52 486.69 165.51 C 487.01 166.96 487.64 168.31 488.34 169.63 C 489.05 171.20 488.87 173.05 489.83 174.54 C 489.91 175.02 490.09 175.98 490.17 176.46 C 491.21 177.99 490.77 180.01 491.83 181.54 C 491.91 182.02 492.08 182.98 492.16 183.47 C 493.68 185.19 492.31 187.83 493.87 189.54 C 493.95 190.51 494.03 191.48 494.13 192.46 C 495.38 193.84 494.90 195.77 495.14 197.46 C 496.37 198.85 495.91 200.77 496.14 202.46 C 498.16 204.76 495.80 208.29 497.92 210.55 C 498.27 212.85 497.23 215.62 498.93 217.55 C 499.47 220.83 497.97 224.65 499.92 227.55 C 500.06 239.05 500.02 250.56 499.95 262.06 C 499.73 262.43 499.30 263.17 499.08 263.54 C 498.93 266.84 499.06 270.15 498.92 273.46 C 497.12 275.70 498.34 278.82 497.93 281.45 C 496.38 283.08 497.18 285.45 496.89 287.45 C 495.60 288.82 496.09 290.78 495.86 292.47 C 494.33 294.17 495.61 296.75 494.21 298.53 C 493.95 299.89 494.13 301.43 493.13 302.54 C 493.03 303.51 492.95 304.48 492.87 305.45 C 491.87 306.57 492.04 308.11 491.79 309.48 C 490.87 311.02 491.05 312.90 490.32 314.52 C 490.06 315.57 489.67 316.57 489.16 317.53 C 489.08 318.01 488.91 318.99 488.83 319.48 C 488.20 320.77 487.78 322.15 487.28 323.49 C 487.00 324.51 486.68 325.52 486.32 326.52 C 486.00 327.52 485.67 328.52 485.31 329.52 C 485.02 330.48 484.69 331.43 484.32 332.37 C 483.22 334.35 482.77 336.60 481.72 338.61 C 481.00 340.25 480.49 341.97 479.81 343.62 C 479.26 344.53 478.74 345.45 478.23 346.39 C 477.75 347.46 477.24 348.53 476.76 349.60 C 475.64 351.54 474.68 353.57 473.76 355.61 C 473.25 356.53 472.74 357.46 472.24 358.39 C 471.75 359.46 471.24 360.53 470.75 361.60 C 469.55 364.39 467.66 366.75 466.29 369.44 C 465.31 371.12 464.11 372.67 463.28 374.43 C 457.12 384.39 450.01 393.65 442.77 402.78 C 439.16 405.58 437.26 409.84 433.77 412.74 C 428.23 417.84 423.49 423.88 417.44 428.36 C 406.53 438.40 394.22 446.95 381.56 454.72 C 379.87 455.67 378.32 456.84 376.63 457.79 C 375.23 458.35 373.88 459.00 372.53 459.68 C 370.34 461.23 368.02 462.58 365.59 463.74 C 362.99 465.22 360.11 466.06 357.37 467.23 C 356.89 467.50 355.93 468.03 355.45 468.29 C 354.94 468.53 353.94 469.02 353.44 469.26 C 351.61 470.42 349.51 470.96 347.50 471.70 C 346.52 471.98 345.56 472.31 344.62 472.68 C 342.63 473.77 340.39 474.24 338.37 475.28 C 337.07 475.81 335.75 476.26 334.47 476.82 C 333.99 476.91 333.02 477.08 332.54 477.17 C 331.57 477.66 330.57 478.05 329.53 478.33 C 327.88 479.00 326.00 478.89 324.46 479.83 C 323.98 479.91 323.02 480.08 322.54 480.16 C 321.40 481.10 319.88 480.96 318.53 481.21 C 317.36 482.07 315.88 481.98 314.53 482.21 C 313.37 483.09 311.89 482.98 310.53 483.20 C 309.08 484.30 307.22 483.93 305.54 484.14 C 304.14 485.37 302.22 484.91 300.55 485.14 C 298.53 486.94 295.40 485.01 293.45 486.92 C 291.14 487.26 288.38 486.24 286.46 487.92 C 283.82 488.02 281.18 487.97 278.54 488.08 C 278.18 488.30 277.45 488.73 277.08 488.95 C 262.73 489.03 248.37 489.03 234.02 488.95 C 233.63 488.73 232.84 488.29 232.45 488.07 C 229.82 487.63 226.69 488.89 224.46 487.08 C 222.16 486.99 219.85 487.01 217.55 486.92 C 215.60 485.00 212.45 486.96 210.46 485.13 C 209.48 485.04 208.51 484.95 207.54 484.87 C 206.15 483.62 204.21 484.09 202.53 483.86 C 201.42 482.84 199.89 483.03 198.53 482.80 C 196.76 481.38 194.19 482.64 192.47 481.15 C 191.98 481.07 191.01 480.92 190.52 480.84 C 189.19 480.23 187.81 479.75 186.48 479.16 C 186.00 479.08 185.03 478.91 184.54 478.83 C 183.57 478.34 182.56 477.96 181.52 477.67 C 180.52 477.32 179.52 476.99 178.51 476.69 C 176.85 476.12 175.00 475.82 173.77 474.45 C 178.33 470.80 181.71 465.81 186.74 462.75 C 192.64 456.77 198.74 450.98 204.47 444.84 C 205.58 444.92 206.61 445.27 207.54 445.87 C 208.51 445.95 209.48 446.04 210.46 446.13 C 211.57 447.13 213.10 446.95 214.47 447.21 C 215.63 448.06 217.11 447.97 218.47 448.21 C 220.25 449.59 222.81 448.36 224.54 449.86 C 226.22 450.10 228.19 449.59 229.55 450.91 C 231.52 450.99 233.49 451.00 235.46 451.09 C 239.32 453.18 244.18 451.38 248.45 452.08 C 248.84 452.30 249.62 452.74 250.01 452.95 C 255.15 453.07 260.30 453.03 265.45 452.92 C 269.33 450.82 274.18 452.61 278.45 451.92 C 280.39 450.25 283.14 451.26 285.46 450.92 C 287.39 448.96 290.58 451.00 292.55 449.10 C 294.54 448.84 296.86 449.54 298.55 448.13 C 299.51 448.04 300.48 447.95 301.46 447.87 C 303.16 446.31 305.81 447.67 307.53 446.15 C 308.02 446.07 308.99 445.92 309.47 445.84 C 310.98 444.84 312.89 445.02 314.53 444.34 C 315.57 444.04 316.57 443.65 317.54 443.17 C 318.02 443.09 318.99 442.92 319.47 442.83 C 320.41 442.29 321.43 441.92 322.51 441.73 C 323.85 441.21 325.22 440.77 326.53 440.18 C 327.01 440.09 327.99 439.91 328.48 439.82 C 330.17 439.08 331.93 438.49 333.62 437.72 C 335.25 437.01 336.97 436.50 338.61 435.80 C 341.42 434.06 344.55 432.91 347.40 431.25 C 348.46 430.75 349.53 430.24 350.60 429.76 C 352.17 428.83 353.85 428.14 355.43 427.24 C 355.94 427.02 356.96 426.57 357.46 426.34 C 360.18 424.74 362.57 422.62 365.44 421.29 C 367.12 420.31 368.67 419.12 370.42 418.27 C 376.68 414.01 382.57 409.12 388.77 404.74 C 391.25 402.20 393.68 399.60 396.74 397.75 C 401.48 392.79 406.86 388.39 410.75 382.71 C 416.72 377.54 420.68 370.63 425.63 364.56 C 427.83 361.17 430.21 357.90 432.28 354.43 C 433.12 352.67 434.31 351.12 435.28 349.43 C 436.13 347.67 437.28 346.10 438.32 344.47 C 439.10 342.82 439.86 341.16 440.73 339.56 C 440.98 339.07 441.48 338.09 441.72 337.60 C 442.33 336.23 442.98 334.87 443.79 333.61 C 444.88 331.31 445.30 328.73 446.74 326.59 C 447.25 325.51 447.78 324.44 448.31 323.38 C 448.81 322.10 449.22 320.79 449.71 319.51 C 449.98 318.52 450.31 317.56 450.69 316.63 C 451.49 314.95 452.09 313.18 452.82 311.47 C 452.91 310.99 453.09 310.02 453.18 309.54 C 453.64 308.57 454.03 307.56 454.34 306.52 C 455.07 304.90 454.80 302.95 455.86 301.46 C 455.95 300.48 456.03 299.51 456.13 298.54 C 457.14 297.43 456.95 295.88 457.21 294.53 C 458.07 293.36 457.97 291.88 458.21 290.53 C 459.05 289.36 458.97 287.89 459.21 286.54 C 460.46 284.78 459.87 282.54 460.10 280.55 C 461.73 278.58 460.74 275.86 461.08 273.55 C 462.97 270.98 461.57 267.50 462.07 264.55 C 462.29 264.16 462.73 263.40 462.95 263.02 C 463.09 252.35 462.92 241.68 463.03 231.01 C 462.92 229.46 463.38 227.65 462.07 226.46 C 461.95 223.49 462.04 220.52 461.92 217.55 C 460.39 215.91 461.18 213.54 460.90 211.55 C 459.01 209.58 460.97 206.44 459.12 204.46 C 459.03 203.49 458.95 202.51 458.88 201.54 C 457.35 199.83 458.59 197.25 457.21 195.46 C 456.96 194.10 457.10 192.59 456.16 191.46 C 456.08 190.98 455.91 190.02 455.83 189.54 C 454.89 188.00 455.03 186.11 454.33 184.48 C 454.00 183.47 453.67 182.47 453.32 181.48 C 453.00 180.47 452.67 179.47 452.31 178.48 C 452.01 177.47 451.68 176.47 451.33 175.48 C 451.02 174.52 450.68 173.56 450.32 172.62 C 449.21 170.64 448.76 168.40 447.72 166.39 C 447.02 164.74 446.50 163.01 445.77 161.38 C 445.51 160.89 445.00 159.93 444.74 159.44 C 444.25 158.49 443.75 157.54 443.25 156.60 C 442.75 155.53 442.23 154.46 441.73 153.39 C 441.49 152.90 441.00 151.93 440.75 151.44 C 440.25 150.49 439.75 149.55 439.25 148.60 C 438.63 147.23 437.98 145.88 437.32 144.54 C 436.46 143.16 435.51 141.85 434.72 140.44 C 433.26 137.26 430.73 134.73 429.28 131.56 C 425.33 125.04 420.21 119.31 415.70 113.22 C 413.36 111.19 412.21 108.18 409.76 106.23 C 403.37 100.31 397.85 93.36 390.75 88.27 C 387.07 83.97 381.82 81.52 377.83 77.54 C 378.04 76.09 378.60 74.73 379.18 73.40 C 380.99 71.09 381.04 67.97 382.74 65.59 C 383.25 64.52 383.78 63.46 384.32 62.39 C 385.06 60.44 385.56 58.36 386.74 56.59 C 388.63 53.35 389.35 49.60 391.33 46.40 C 391.58 45.76 392.08 44.47 392.32 43.82 Z" />
</g>
</svg>
