<?xml version="1.0" encoding="UTF-8" ?>
<!DOCTYPE svg PUBLIC "-//W3C//DTD SVG 1.1//EN" "http://www.w3.org/Graphics/SVG/1.1/DTD/svg11.dtd">
<svg width="1331pt" height="784pt" viewBox="0 0 1331 784" version="1.1" xmlns="http://www.w3.org/2000/svg">
<g id="#fffffffe">
<path fill="#ffffff" opacity="1.00" d=" M 603.86 56.11 C 662.39 40.81 724.98 41.29 783.14 58.11 C 840.16 74.10 892.35 106.05 933.38 148.65 C 964.85 181.47 990.16 220.38 1006.46 262.89 C 1016.89 288.87 1023.20 316.35 1027.01 344.05 C 1033.32 395.42 1027.37 448.11 1010.88 497.15 C 997.59 537.02 976.21 574.06 949.16 606.16 C 919.79 641.38 882.90 670.12 842.20 691.13 C 819.95 702.20 796.60 711.14 772.54 717.41 C 747.15 723.40 721.18 727.45 695.08 727.50 C 622.59 728.76 549.89 705.52 491.57 662.41 C 462.28 641.04 436.22 615.19 415.24 585.58 C 363.56 514.73 341.54 423.26 354.61 336.63 C 356.30 326.52 358.49 316.50 360.62 306.47 C 373.95 250.23 401.97 197.62 440.94 154.96 C 484.44 107.55 541.58 72.57 603.86 56.11 M 607.92 63.40 C 572.92 72.54 539.33 87.31 509.22 107.39 C 493.21 118.37 477.40 129.86 463.63 143.60 C 456.14 149.78 450.02 157.36 443.35 164.36 C 412.31 199.39 388.98 241.09 374.85 285.69 C 367.58 309.14 362.14 333.27 360.32 357.80 C 357.10 393.13 359.64 429.04 368.25 463.51 C 378.01 504.85 395.87 544.27 420.48 578.90 C 459.07 634.10 515.20 676.56 578.32 699.85 C 648.31 725.45 727.13 726.14 797.47 701.44 C 838.87 686.94 877.36 664.22 910.02 634.92 C 944.94 604.04 972.93 565.48 992.22 523.08 C 1001.71 502.06 1008.53 479.94 1013.63 457.47 C 1018.24 436.30 1020.96 414.68 1021.51 393.02 C 1022.18 362.70 1018.31 332.32 1010.84 302.94 C 990.02 221.71 937.30 149.28 866.55 104.33 C 813.63 70.47 750.72 52.76 687.98 53.00 C 661.03 53.35 634.07 56.77 607.92 63.40 Z" />
<path fill="#ffffff" opacity="1.00" d=" M 673.05 76.86 C 678.18 68.18 689.22 64.41 698.84 66.42 C 701.63 67.06 704.15 68.54 706.97 69.09 C 707.81 68.29 708.58 67.40 709.42 66.59 C 709.66 71.12 709.19 75.69 709.91 80.20 C 709.50 79.90 708.67 79.31 708.25 79.01 C 706.91 75.36 705.15 71.57 701.81 69.33 C 695.89 65.25 686.90 66.83 682.79 72.76 C 675.98 82.41 674.89 96.32 681.40 106.40 C 685.38 112.78 694.79 114.69 700.80 110.10 C 703.06 106.90 703.70 102.75 702.58 99.02 C 701.53 96.86 698.87 96.68 696.88 95.92 C 703.01 95.04 709.29 95.59 715.47 95.64 C 713.45 96.90 711.27 97.98 709.99 100.09 C 709.96 103.07 710.21 106.35 709.04 109.10 C 703.68 111.57 698.11 114.53 692.01 114.03 C 684.51 113.82 676.22 110.61 672.60 103.63 C 668.14 95.44 668.47 84.93 673.05 76.86 Z" />
<path fill="#ffffff" opacity="1.00" d=" M 640.63 70.79 C 646.42 69.99 652.20 68.95 658.04 68.52 C 655.84 70.01 653.11 71.88 653.48 74.93 C 654.79 86.29 655.98 97.69 657.87 108.96 C 658.19 111.93 661.38 112.29 663.45 113.62 C 657.82 114.17 652.25 115.43 646.59 115.50 C 647.25 114.93 648.57 113.79 649.23 113.22 C 649.56 112.78 650.23 111.89 650.57 111.45 C 650.76 105.51 649.43 99.70 648.86 93.83 C 648.00 87.72 647.49 81.56 646.39 75.50 C 645.81 72.67 642.73 72.07 640.63 70.79 Z" />
<path fill="#ffffff" opacity="1.00" d=" M 726.80 67.98 C 731.26 68.79 735.66 69.91 740.09 70.86 C 743.01 83.04 744.69 95.48 747.28 107.72 C 752.88 99.54 758.80 91.58 764.16 83.23 C 764.63 83.77 765.13 84.30 765.63 84.83 C 759.08 94.42 752.14 103.76 745.84 113.54 C 744.82 115.14 743.62 116.62 742.33 117.99 C 740.10 109.25 738.48 100.36 736.63 91.54 C 735.52 86.35 734.06 81.20 733.66 75.89 C 733.33 76.81 732.99 77.71 732.63 78.61 C 730.79 88.82 728.62 98.98 726.39 109.10 C 726.88 111.64 728.69 113.39 730.45 115.13 C 726.44 114.39 722.43 113.60 718.53 112.44 C 720.98 111.35 724.09 110.58 724.71 107.52 C 726.90 97.94 728.72 88.27 730.84 78.67 C 731.18 76.56 732.06 74.28 731.02 72.22 C 730.35 70.23 728.19 69.38 726.80 67.98 Z" />
<path fill="#ffffff" opacity="1.00" d=" M 624.06 74.45 C 625.40 74.89 626.21 73.49 627.31 72.96 C 628.20 76.82 629.88 80.52 630.10 84.51 C 627.47 81.91 626.03 78.04 622.47 76.45 C 619.06 74.57 614.62 75.55 611.96 78.26 C 610.00 80.66 610.14 84.09 611.14 86.87 C 612.95 90.62 617.42 91.73 621.19 92.39 C 625.75 93.38 630.84 94.14 634.15 97.80 C 638.17 101.47 638.85 107.53 637.46 112.55 C 635.36 118.10 629.67 121.26 623.99 121.87 C 620.37 122.75 615.90 119.15 613.18 123.00 C 611.61 118.77 610.18 114.37 609.95 109.84 C 613.09 113.44 615.38 118.40 620.30 119.90 C 623.62 121.34 627.21 119.55 630.06 117.81 C 633.14 114.15 633.44 108.52 630.18 104.87 C 625.21 99.06 616.60 100.46 610.47 96.69 C 604.31 92.26 604.25 81.88 610.08 77.15 C 613.79 73.58 619.31 73.56 624.06 74.45 Z" />
<path fill="#ffffff" opacity="1.00" d=" M 766.22 80.30 C 766.99 78.92 767.97 77.67 768.84 76.34 C 772.81 77.52 777.07 77.77 780.85 79.55 C 778.43 79.96 775.27 80.42 774.68 83.34 C 772.29 92.98 770.74 102.81 768.62 112.52 C 768.03 114.94 767.94 117.44 767.91 119.92 C 769.02 121.42 770.61 122.38 772.19 123.32 C 771.81 123.44 771.05 123.69 770.67 123.82 C 765.39 122.72 760.19 121.26 754.94 120.05 C 756.45 118.99 758.41 118.94 759.96 117.97 C 761.73 114.23 762.00 110.04 762.94 106.06 C 764.20 98.87 765.87 91.75 766.94 84.53 C 766.97 83.07 765.83 81.76 766.22 80.30 Z" />
<path fill="#ffffff" opacity="1.00" d=" M 559.86 94.64 C 563.68 93.13 567.13 90.69 571.16 89.71 C 566.91 94.92 566.37 101.80 564.86 108.09 C 564.45 110.24 563.74 112.38 563.77 114.59 C 570.82 118.80 577.72 123.26 584.91 127.22 C 587.29 128.57 590.10 129.49 592.79 128.41 C 592.20 129.98 590.50 130.41 589.21 131.17 C 584.66 133.34 580.25 135.78 575.64 137.79 C 576.04 135.76 579.47 133.70 577.39 131.63 C 572.76 127.66 567.32 124.76 562.22 121.45 C 560.75 127.24 559.34 133.07 558.52 139.00 C 558.07 140.56 559.27 141.74 559.98 142.99 C 561.05 143.02 563.18 143.07 564.25 143.10 C 560.22 145.49 556.06 147.77 551.63 149.31 C 553.83 146.28 555.69 143.01 556.43 139.29 C 557.73 133.11 559.00 126.92 560.69 120.82 C 554.05 116.42 547.11 112.48 540.07 108.76 C 538.29 107.66 536.09 108.11 534.13 107.79 C 539.30 104.67 544.74 101.82 550.40 99.70 C 549.41 101.12 546.86 102.69 548.36 104.62 C 552.20 108.54 557.44 110.71 561.96 113.75 C 563.22 108.68 564.16 103.53 565.01 98.37 C 564.49 95.69 562.41 94.72 559.86 94.64 Z" />
<path fill="#ffffff" opacity="1.00" d=" M 794.89 113.84 C 801.91 106.94 808.70 99.77 815.88 93.04 L 817.13 92.92 C 818.35 101.22 816.70 109.60 817.00 117.95 C 817.29 125.00 815.61 132.09 816.98 139.11 C 817.04 141.50 819.45 142.68 820.20 144.78 C 816.00 143.48 812.18 141.27 808.14 139.60 C 806.39 138.69 804.22 138.29 803.08 136.55 C 805.01 136.97 806.98 136.92 808.86 136.25 C 811.14 131.58 808.97 126.23 810.74 121.47 C 806.45 118.58 801.41 117.04 796.71 114.95 C 793.67 118.45 789.61 121.16 787.53 125.41 C 786.84 127.74 788.84 129.43 789.89 131.27 C 785.85 129.76 781.43 128.54 778.09 125.71 C 779.95 125.37 782.21 126.11 783.79 124.75 C 788.05 121.73 791.52 117.79 794.89 113.84 M 798.19 113.72 C 802.35 115.22 806.27 117.27 810.41 118.83 C 810.19 112.63 811.12 106.49 811.00 100.29 C 806.57 104.62 802.20 109.00 798.19 113.72 Z" />
<path fill="#ffffff" opacity="1.00" d=" M 507.63 124.93 C 512.28 121.07 517.59 118.10 522.66 114.84 C 521.93 116.16 521.17 117.46 520.37 118.73 C 520.34 120.61 520.69 122.47 521.79 124.04 C 527.37 133.13 533.26 142.03 539.26 150.85 C 540.78 153.76 544.32 152.94 546.97 152.59 C 542.42 156.59 537.50 160.37 532.06 163.08 C 532.94 161.50 533.86 159.95 534.68 158.34 C 533.16 153.93 530.06 150.37 527.66 146.45 C 524.38 141.04 520.61 135.95 517.33 130.54 C 516.07 128.50 514.48 126.70 512.80 125.00 C 511.07 125.00 509.34 124.98 507.63 124.93 Z" />
<path fill="#ffffff" opacity="1.00" d=" M 861.04 127.88 C 870.93 124.06 883.29 127.90 889.05 136.88 C 890.28 138.99 891.75 141.42 894.57 141.37 C 892.64 145.61 889.81 149.63 886.42 152.81 C 887.34 147.10 889.29 140.42 885.79 135.19 C 881.98 130.26 874.88 128.72 869.15 130.85 C 860.27 134.04 853.55 142.12 850.87 151.01 C 847.67 160.86 855.62 172.10 865.92 172.53 C 869.06 172.57 871.42 170.11 874.45 169.79 C 872.63 173.18 868.40 174.05 864.89 174.03 C 857.62 173.36 850.92 168.81 847.26 162.56 C 842.55 154.61 843.74 143.96 849.55 136.89 C 852.75 133.21 856.35 129.57 861.04 127.88 Z" />
<path fill="#ffffff" opacity="1.00" d=" M 624.46 135.61 C 648.10 129.44 672.63 126.66 697.02 127.13 C 716.74 127.87 736.39 130.72 755.52 135.61 C 791.25 145.38 825.15 162.50 853.47 186.47 C 876.55 205.28 896.00 228.37 911.36 253.84 C 924.60 276.05 934.83 300.20 940.38 325.49 C 944.55 343.35 947.43 361.60 947.59 379.96 C 948.75 386.30 947.17 392.64 947.50 399.00 C 945.66 429.26 939.25 459.37 927.21 487.25 C 905.34 539.68 865.31 583.99 816.09 612.17 C 785.97 629.05 752.45 639.98 718.08 643.58 C 666.08 649.24 612.30 638.73 566.44 613.44 C 518.58 586.55 479.37 544.40 456.40 494.51 C 443.04 466.19 435.94 435.20 433.57 404.07 C 430.63 359.63 438.99 314.32 458.41 274.17 C 490.38 207.02 552.36 154.51 624.46 135.61 M 675.35 135.26 C 633.19 137.71 591.62 151.02 556.18 174.04 C 534.40 188.43 514.49 205.80 498.07 226.13 C 472.67 256.81 454.92 293.66 446.37 332.54 C 442.64 349.76 441.05 367.39 440.49 384.96 C 440.42 429.21 451.67 473.64 474.13 511.87 C 506.30 568.32 561.15 611.60 623.96 628.61 C 655.28 637.22 688.28 639.59 720.51 635.75 C 778.85 628.90 834.08 599.97 873.62 556.66 C 911.86 515.43 935.38 461.01 939.57 404.96 C 940.11 396.47 941.18 387.88 940.10 379.41 C 939.91 362.59 937.18 345.92 933.63 329.52 C 924.20 286.85 902.52 247.21 872.92 215.19 C 854.12 195.21 832.48 177.55 808.07 164.78 C 783.24 150.98 755.79 142.21 727.81 137.63 C 710.48 134.80 692.85 134.54 675.35 135.26 Z" />
<path fill="#ffffff" opacity="1.00" d=" M 485.32 140.41 C 488.17 136.39 494.51 137.36 496.77 132.88 C 499.34 136.01 502.17 138.95 504.42 142.32 C 500.56 140.74 496.91 137.68 492.52 138.21 C 488.67 138.71 485.57 141.81 484.96 145.61 C 485.31 149.53 487.81 153.33 491.90 153.99 C 499.74 154.69 507.57 149.25 515.24 152.85 C 523.89 156.36 525.32 168.74 519.15 175.17 C 516.24 178.35 511.99 179.58 508.06 180.98 C 506.58 181.41 506.11 183.04 505.56 184.27 C 502.46 181.00 499.16 177.76 497.08 173.70 C 500.83 174.81 503.74 178.32 507.92 178.03 C 513.36 178.76 519.30 174.65 519.51 168.93 C 518.92 163.75 514.29 159.38 509.07 159.17 C 502.92 159.00 497.05 163.02 490.90 161.02 C 482.42 158.74 478.99 146.66 485.32 140.41 Z" />
<path fill="#ffffff" opacity="1.00" d=" M 903.25 149.65 C 906.10 150.53 907.73 153.25 909.88 155.15 C 915.86 161.38 922.56 167.18 927.27 174.45 C 925.36 176.96 923.17 179.23 920.86 181.37 C 921.43 178.99 921.98 176.61 922.47 174.22 C 922.04 172.51 921.90 170.63 920.75 169.22 C 918.03 166.00 915.36 162.70 912.13 159.99 L 911.35 160.03 C 906.65 164.19 902.75 169.21 897.72 172.99 C 899.44 174.82 901.28 176.56 903.33 178.04 C 906.13 178.34 908.77 177.52 911.36 176.54 C 907.51 181.00 903.31 185.23 898.81 189.04 C 899.24 186.22 901.35 183.82 901.02 180.86 C 900.89 178.00 898.61 175.96 897.06 173.79 C 892.68 178.08 887.93 182.16 884.62 187.38 C 883.10 190.01 885.04 192.87 886.53 195.03 C 889.32 198.30 892.48 201.81 896.84 202.86 C 900.29 203.74 903.29 201.46 906.30 200.18 C 905.10 204.03 900.94 206.14 898.50 209.25 C 895.73 207.40 893.63 204.82 891.53 202.29 C 884.59 195.38 877.83 188.24 871.55 180.75 C 873.01 181.29 874.41 182.00 875.89 182.55 C 879.21 182.44 881.15 179.42 883.35 177.37 C 890.62 170.61 898.14 163.94 904.23 156.05 C 906.09 153.99 903.89 151.70 903.25 149.65 Z" />
<path fill="#ffffff" opacity="1.00" d=" M 440.45 188.97 C 443.90 183.65 448.72 178.44 455.47 178.02 C 460.29 178.46 464.82 181.90 465.76 186.78 C 466.62 189.71 465.32 192.63 464.43 195.38 C 469.16 194.37 473.97 195.31 478.54 196.63 C 482.85 197.61 487.26 199.12 491.72 198.08 C 489.81 200.58 487.69 202.92 485.66 205.31 C 477.86 203.89 470.33 200.64 462.29 200.93 C 460.17 201.97 458.52 203.67 456.89 205.33 C 462.39 209.18 466.86 214.87 473.37 217.03 C 474.69 216.52 476.04 216.09 477.42 215.75 C 473.91 220.02 470.94 224.82 466.69 228.42 C 467.86 223.76 464.09 220.54 460.98 217.88 C 453.58 211.74 446.47 205.13 438.51 199.72 C 436.36 198.00 434.15 199.78 432.13 200.70 C 434.05 196.25 437.76 192.93 440.45 188.97 M 440.50 191.43 C 445.10 195.57 450.04 199.31 454.71 203.38 C 455.69 204.81 456.92 203.54 457.67 202.67 C 460.61 199.55 462.20 194.67 460.24 190.62 C 458.21 187.02 454.36 183.95 450.02 184.46 C 445.68 184.41 442.81 188.26 440.50 191.43 Z" />
<path fill="#ffffff" opacity="1.00" d=" M 936.64 184.63 C 940.42 188.83 943.61 193.50 946.99 198.01 C 949.98 202.15 952.94 206.95 952.48 212.28 C 951.61 215.72 949.60 219.12 946.14 220.45 C 942.15 222.63 937.32 221.35 933.78 218.91 C 931.69 225.67 927.77 231.65 925.18 238.21 C 924.18 240.45 924.58 242.96 924.41 245.34 C 922.30 242.46 920.25 239.54 918.10 236.70 C 921.66 229.80 925.69 223.10 927.95 215.61 C 927.97 214.51 927.99 213.41 928.03 212.32 C 927.34 210.92 926.65 209.54 925.86 208.22 C 921.43 211.69 916.45 214.51 912.37 218.40 C 910.39 220.43 910.48 223.25 910.96 225.85 C 907.30 221.16 903.49 216.42 900.62 211.22 C 902.49 212.31 904.46 213.31 906.72 213.05 C 915.64 207.38 924.02 200.90 932.40 194.47 C 934.45 192.91 936.65 191.23 937.47 188.67 C 937.27 187.66 936.85 185.64 936.64 184.63 M 926.77 207.47 C 928.08 209.88 929.20 212.71 931.77 214.06 C 935.46 216.81 940.75 215.65 944.02 212.76 C 945.99 210.26 947.89 207.31 947.54 203.97 C 947.59 200.69 945.04 198.20 943.49 195.54 C 937.77 199.30 932.41 203.59 926.77 207.47 Z" />
<path fill="#ffffff" opacity="1.00" d=" M 642.86 215.11 C 660.53 209.63 677.52 200.63 690.47 187.25 C 702.85 200.14 718.94 209.06 735.91 214.39 C 764.13 223.77 794.73 223.00 823.51 216.66 C 830.09 215.21 836.66 213.51 842.89 210.91 C 844.06 217.06 844.93 223.27 845.66 229.49 C 846.08 232.51 846.59 235.55 846.53 238.62 L 846.97 239.42 C 847.46 250.12 848.86 260.77 848.50 271.50 C 743.17 271.50 637.83 271.50 532.50 271.50 C 532.36 251.18 534.58 230.88 538.06 210.87 C 550.14 215.76 563.07 218.09 575.93 219.87 C 582.13 220.51 588.34 221.29 594.59 220.98 L 595.44 221.53 C 611.44 221.66 627.48 219.61 642.86 215.11 M 644.32 236.89 C 643.01 237.42 643.14 240.04 644.88 239.53 C 646.99 239.44 646.28 236.00 644.32 236.89 M 702.39 237.31 C 700.75 238.56 703.29 240.78 704.49 239.38 C 705.77 238.05 703.67 235.52 702.39 237.31 M 746.76 236.95 C 747.18 237.49 748.01 238.56 748.43 239.10 C 748.23 244.19 748.98 249.36 747.98 254.39 C 745.94 254.43 743.16 254.48 742.81 251.86 C 741.45 248.08 743.51 244.14 747.23 242.85 C 744.73 243.51 741.26 244.07 740.55 247.04 C 738.99 249.96 740.70 253.30 743.22 254.98 C 746.42 254.67 749.63 254.91 752.84 254.91 C 751.31 254.18 750.11 252.75 750.48 250.98 C 750.33 246.36 750.62 241.76 751.01 237.17 C 749.59 237.07 748.17 237.00 746.76 236.95 M 812.19 239.98 C 811.49 241.51 810.57 242.94 809.29 244.03 C 812.28 246.75 808.80 252.09 811.82 255.21 C 813.68 254.99 815.57 254.63 817.09 253.43 C 815.64 253.71 814.18 254.03 812.76 254.34 C 812.38 251.06 812.55 247.75 812.38 244.46 C 813.36 244.36 815.33 244.16 816.31 244.05 C 815.10 243.74 813.83 243.51 812.63 243.30 C 812.46 242.18 812.34 241.09 812.19 239.98 M 689.51 243.48 C 690.63 247.29 689.20 251.43 690.84 255.14 C 692.84 254.92 695.14 255.11 696.50 253.30 C 695.09 253.64 693.65 254.54 692.21 253.81 C 691.79 250.72 692.05 247.58 692.01 244.47 C 692.74 244.49 694.19 244.53 694.91 244.55 C 694.91 244.28 694.92 243.72 694.93 243.45 C 694.20 243.47 692.76 243.52 692.04 243.54 C 692.02 242.71 692.00 241.06 691.98 240.24 C 691.14 241.31 690.32 242.39 689.51 243.48 M 563.60 243.69 C 561.18 244.22 560.31 246.61 559.31 248.57 C 559.36 251.27 560.90 253.55 563.06 255.08 C 565.92 255.29 569.47 254.97 570.34 251.63 C 569.37 252.40 568.45 253.22 567.58 254.08 C 566.06 253.99 564.57 253.76 563.14 253.28 C 562.38 251.52 561.88 249.67 561.84 247.74 C 564.48 247.83 567.13 247.97 569.79 247.93 C 569.32 246.79 568.85 245.66 568.39 244.54 C 566.84 244.09 565.21 242.73 563.60 243.69 M 583.44 243.45 C 584.47 245.42 583.03 246.74 581.46 247.70 C 580.72 246.34 580.50 244.91 580.80 243.41 C 579.58 243.45 577.15 243.55 575.94 243.59 C 578.06 245.09 579.27 247.45 580.68 249.57 C 579.14 251.49 577.45 253.29 575.75 255.07 C 577.05 254.96 578.37 254.84 579.69 254.75 C 576.74 253.54 580.25 251.53 581.05 250.15 C 581.75 251.71 584.04 253.50 581.98 255.04 C 583.70 255.00 585.43 255.00 587.17 255.00 C 586.03 253.76 584.92 252.51 583.86 251.22 C 583.39 250.24 582.44 248.30 581.97 247.32 L 583.83 248.51 C 583.70 248.00 583.42 246.97 583.28 246.46 C 584.60 245.53 585.93 244.58 587.27 243.67 C 585.97 243.98 584.65 244.14 583.44 243.45 M 592.72 243.54 C 593.32 244.20 593.93 244.86 594.55 245.52 C 594.39 249.68 594.66 253.84 594.41 258.00 C 594.04 258.50 593.30 259.51 592.93 260.02 C 594.60 260.00 596.28 260.01 597.96 260.05 C 595.97 258.80 596.57 256.38 596.24 254.42 C 597.97 254.78 599.76 254.95 601.55 255.02 C 602.12 254.66 603.26 253.93 603.83 253.57 C 605.31 250.85 605.74 247.18 603.48 244.76 C 601.41 243.00 598.69 243.42 596.39 244.39 L 596.48 243.48 C 595.22 243.49 593.97 243.51 592.72 243.54 M 611.28 248.91 C 611.70 251.42 612.93 253.66 615.09 255.08 C 617.73 255.20 620.95 255.13 622.06 252.22 C 621.19 252.81 620.35 253.43 619.54 254.07 C 618.04 253.99 616.57 253.76 615.15 253.29 C 614.44 251.58 613.89 249.80 613.84 247.94 C 616.48 247.82 619.14 247.93 621.79 247.91 C 621.32 246.78 620.85 245.65 620.38 244.53 C 616.66 241.81 611.93 244.67 611.28 248.91 M 628.10 244.39 C 628.57 244.77 629.53 245.53 630.01 245.91 C 629.99 248.27 629.99 250.64 630.00 253.01 C 629.50 253.50 628.51 254.49 628.01 254.99 C 629.85 254.99 631.70 255.00 633.56 255.03 C 630.72 252.97 632.33 248.95 632.11 245.97 C 632.52 243.54 635.03 245.06 636.46 245.68 C 637.18 242.23 632.76 243.71 631.19 244.73 C 631.23 244.35 631.30 243.59 631.34 243.21 C 630.53 243.51 628.91 244.10 628.10 244.39 M 653.25 248.91 C 653.79 251.71 655.47 255.45 658.93 255.04 C 661.35 255.48 663.57 253.94 664.33 251.67 C 663.36 252.42 662.44 253.23 661.57 254.09 C 660.05 253.99 658.57 253.76 657.15 253.28 C 656.37 251.51 655.88 249.64 655.84 247.70 C 658.47 247.57 661.25 248.45 663.80 247.58 C 663.42 246.54 662.88 245.57 662.41 244.59 C 661.23 244.09 660.07 243.59 658.91 243.09 C 656.00 243.89 654.08 246.05 653.25 248.91 M 674.76 244.45 C 676.16 244.52 677.57 244.61 678.98 244.70 C 679.01 247.79 679.00 250.87 679.00 253.95 C 678.49 254.19 677.49 254.65 676.98 254.88 C 678.98 254.95 680.97 255.00 682.99 255.06 C 679.43 252.94 681.51 248.37 681.03 245.02 C 679.26 243.42 676.73 242.84 674.76 244.45 M 700.98 244.09 C 702.05 245.17 702.78 246.45 702.53 248.04 C 702.47 250.47 703.07 253.27 700.93 255.02 C 702.61 255.00 704.30 255.00 706.01 255.04 C 705.66 254.70 704.96 254.00 704.62 253.65 C 704.31 250.31 704.55 246.93 704.53 243.57 C 703.34 243.76 702.15 243.93 700.98 244.09 M 713.13 244.13 C 713.13 244.79 713.13 246.10 713.14 246.75 C 714.33 245.85 715.25 244.67 716.15 243.47 C 718.33 244.27 718.91 246.14 718.57 248.33 C 716.41 249.13 714.15 249.75 712.28 251.14 C 712.61 252.39 712.17 254.41 713.81 254.88 C 714.67 254.94 716.38 255.04 717.24 255.09 C 717.92 254.54 718.62 254.01 719.34 253.50 L 719.08 254.94 C 720.16 254.96 722.31 254.99 723.38 255.01 C 718.51 253.70 721.45 248.28 720.19 244.88 C 718.29 242.97 715.44 243.16 713.13 244.13 M 762.75 243.86 C 759.51 244.90 757.47 249.06 759.50 252.03 C 761.37 255.85 767.40 256.00 769.73 252.55 C 770.79 251.11 770.39 249.20 770.57 247.54 C 770.00 246.68 769.44 245.81 768.91 244.94 C 766.99 244.10 764.78 242.26 762.75 243.86 M 780.74 243.81 C 776.73 245.29 775.47 251.36 779.03 253.97 C 780.77 255.50 783.10 254.74 785.17 254.58 C 783.72 254.37 782.28 254.15 780.85 253.93 C 778.79 250.55 778.53 244.96 783.00 243.43 C 783.78 244.54 784.59 245.65 785.38 246.76 C 785.87 246.27 786.37 245.79 786.88 245.30 C 785.20 243.96 782.86 242.46 780.74 243.81 M 792.98 247.07 C 792.98 248.70 792.98 250.34 792.97 251.97 C 793.92 253.04 794.94 254.06 796.01 255.03 C 797.60 255.01 799.21 255.00 800.82 255.00 C 801.74 253.98 803.13 253.20 803.24 251.65 C 802.47 252.39 801.73 253.15 801.02 253.94 C 800.18 253.98 798.51 254.05 797.67 254.09 C 795.84 252.52 795.29 250.19 794.82 247.94 C 797.42 247.61 800.27 248.55 802.72 247.55 C 802.55 244.90 799.79 242.68 797.19 243.44 C 795.27 243.92 794.18 245.67 792.98 247.07 M 642.44 244.26 C 642.83 244.72 643.62 245.65 644.01 246.12 C 643.68 249.13 645.04 252.80 642.45 255.09 C 644.30 255.00 646.16 254.92 648.03 254.81 C 647.52 254.59 646.51 254.15 646.00 253.93 C 645.99 250.44 645.98 246.94 646.02 243.45 C 645.13 243.65 643.34 244.06 642.44 244.26 M 670.38 244.13 C 670.78 244.62 671.59 245.59 671.99 246.08 C 671.59 249.11 673.33 253.22 670.00 255.07 C 671.95 255.00 673.93 254.90 675.90 254.82 C 675.44 254.56 674.54 254.04 674.09 253.78 C 673.82 250.40 674.12 247.01 674.06 243.63 C 673.14 243.75 671.30 244.01 670.38 244.13 Z" />
<path fill="#ffffff" opacity="1.00" d=" M 429.27 219.16 C 442.90 216.78 456.51 229.31 455.54 243.02 C 456.04 251.95 450.66 260.63 443.03 265.04 C 437.01 268.70 429.28 268.93 422.81 266.34 C 415.65 263.19 409.93 256.57 408.58 248.77 C 407.09 243.05 408.45 236.98 411.08 231.81 C 414.66 224.98 421.72 220.37 429.27 219.16 M 414.02 229.94 C 409.63 234.83 409.19 242.73 413.00 248.07 C 417.58 254.77 424.73 259.49 432.49 261.71 C 436.63 262.63 440.99 262.65 444.94 260.93 C 450.07 258.38 452.88 252.77 453.44 247.24 C 452.19 235.57 441.18 227.75 430.48 225.27 C 424.68 224.21 418.16 225.56 414.02 229.94 Z" />
<path fill="#ffffff" opacity="1.00" d=" M 955.54 227.74 C 958.57 226.48 961.69 225.42 964.68 224.03 C 971.38 237.29 978.23 250.49 984.46 263.98 C 981.37 265.93 978.57 268.46 975.08 269.71 C 976.26 267.32 977.88 265.16 978.88 262.69 C 979.84 257.19 976.92 252.16 974.77 247.33 C 963.58 253.68 951.81 258.99 940.64 265.37 C 938.24 266.59 938.12 269.53 937.60 271.81 C 934.90 266.76 932.00 261.73 929.98 256.39 C 931.33 257.16 932.59 258.13 934.06 258.71 C 936.45 258.96 938.74 257.88 940.84 256.85 C 951.21 251.66 961.42 246.18 971.71 240.81 C 969.62 236.90 967.83 232.47 963.97 229.95 C 961.42 228.34 958.22 228.93 955.54 227.74 Z" />
<path fill="#ffffff" opacity="1.00" d=" M 561.78 246.75 C 562.91 245.60 563.64 243.20 565.71 243.91 C 566.26 244.66 567.35 246.16 567.90 246.92 C 565.91 247.72 563.75 247.40 561.78 246.75 Z" />
<path fill="#ffffff" opacity="1.00" d=" M 599.03 244.00 C 601.87 244.04 602.49 247.20 603.07 249.41 C 602.45 251.09 602.12 252.98 600.66 254.18 C 598.95 255.08 596.72 253.94 596.59 251.99 C 596.51 249.24 595.51 245.00 599.03 244.00 Z" />
<path fill="#ffffff" opacity="1.00" d=" M 613.97 247.25 C 614.69 245.69 615.50 243.12 617.74 243.93 C 618.62 244.94 619.34 246.06 619.92 247.29 C 617.93 247.39 615.95 247.38 613.97 247.25 Z" />
<path fill="#ffffff" opacity="1.00" d=" M 655.78 246.79 C 656.93 245.65 657.58 243.14 659.68 243.81 C 660.24 244.60 661.35 246.17 661.90 246.96 C 659.90 247.71 657.77 247.29 655.78 246.79 Z" />
<path fill="#ffffff" opacity="1.00" d=" M 761.64 252.21 C 759.90 248.91 761.54 244.75 764.94 243.33 C 768.17 245.36 769.56 250.00 767.26 253.21 C 765.93 255.44 762.04 254.89 761.64 252.21 Z" />
<path fill="#ffffff" opacity="1.00" d=" M 795.01 247.34 C 795.82 245.92 796.51 244.32 798.02 243.50 C 799.10 244.41 800.15 245.38 801.16 246.40 C 799.17 247.09 797.12 247.59 795.01 247.34 Z" />
<path fill="#ffffff" opacity="1.00" d=" M 716.48 254.64 C 712.02 253.54 716.22 249.46 718.49 248.63 C 718.91 251.02 718.58 253.24 716.48 254.64 Z" />
<path fill="#ffffff" opacity="1.00" d=" M 396.80 263.13 C 399.23 263.70 401.70 264.16 404.06 264.99 L 403.96 265.90 C 401.31 267.02 398.09 267.78 396.62 270.54 C 394.38 274.40 392.88 278.66 391.77 282.97 C 397.51 285.49 403.51 287.36 409.36 289.60 C 409.99 286.85 410.83 284.05 410.44 281.20 C 410.03 278.63 407.94 276.88 406.60 274.79 C 411.63 276.78 417.25 277.78 421.81 280.69 C 419.39 281.12 416.55 280.82 414.62 282.64 C 412.25 284.40 411.41 287.34 410.31 289.93 C 415.22 291.86 420.24 293.46 425.19 295.28 C 426.98 295.95 428.89 296.05 430.79 296.04 C 431.90 295.19 433.02 294.36 434.19 293.60 C 432.38 298.73 431.21 304.07 429.03 309.08 C 428.31 307.40 427.99 305.49 426.87 304.03 C 422.34 301.27 417.07 300.16 412.18 298.20 C 405.72 296.00 399.35 293.51 392.80 291.59 C 389.89 290.54 388.15 293.21 386.18 294.77 C 389.39 284.13 392.96 273.57 396.80 263.13 Z" />
<path fill="#ffffff" opacity="1.00" d=" M 987.53 273.86 C 989.75 279.08 991.64 284.47 993.15 289.93 C 991.21 288.72 989.40 286.64 986.91 286.97 C 983.17 287.21 979.79 289.05 976.27 290.17 C 969.32 292.47 962.36 294.78 955.52 297.39 C 952.60 298.31 950.88 300.91 950.22 303.77 C 947.73 299.13 946.12 294.07 944.38 289.13 C 947.01 290.45 949.95 291.81 952.93 290.63 C 962.78 287.48 972.44 283.71 982.19 280.24 C 985.15 279.49 987.19 276.87 987.53 273.86 Z" />
<path fill="#ffffff" opacity="1.00" d=" M 532.50 282.50 C 579.05 282.47 625.60 282.55 672.15 282.46 C 671.10 283.58 670.04 284.68 668.99 285.79 C 668.99 286.54 668.99 288.04 668.99 288.80 C 670.72 291.13 673.43 292.60 676.03 290.34 C 679.51 298.47 680.44 307.31 681.99 315.93 C 684.68 332.44 685.69 349.15 686.68 365.82 C 687.22 369.85 686.94 373.92 687.00 377.98 C 687.00 405.32 687.00 432.66 687.00 460.00 C 686.76 464.87 686.13 469.72 685.96 474.60 L 685.47 475.41 C 685.48 476.18 685.51 477.73 685.52 478.50 C 686.23 478.50 687.66 478.51 688.38 478.51 C 689.91 461.74 689.43 444.88 689.50 428.05 C 689.50 409.71 689.50 391.37 689.50 373.03 C 689.40 368.04 689.80 363.03 689.09 358.07 C 688.82 352.59 689.38 347.06 688.21 341.65 C 686.74 328.55 685.38 315.41 682.64 302.51 C 680.52 295.68 680.09 287.39 674.13 282.59 C 685.05 282.42 695.98 282.47 706.90 282.56 C 700.87 287.15 700.03 295.28 698.11 302.08 C 693.24 324.73 692.44 348.00 691.49 371.04 C 691.53 402.69 691.48 434.34 691.51 465.99 C 691.89 470.06 692.15 474.14 691.99 478.23 C 692.77 478.32 694.32 478.50 695.10 478.59 C 694.43 472.72 694.64 466.81 694.00 460.95 C 693.99 432.30 694.02 403.65 693.99 375.01 C 694.87 351.35 695.45 327.47 700.61 304.24 C 701.77 299.50 702.37 294.48 704.78 290.16 C 705.60 290.56 707.25 291.37 708.07 291.77 C 708.95 291.17 709.84 290.58 710.74 290.00 C 711.09 289.37 711.78 288.11 712.13 287.48 C 711.19 285.69 709.91 284.13 708.70 282.53 C 755.46 282.44 802.22 282.54 848.98 282.48 C 849.29 292.87 848.38 303.21 847.99 313.58 L 847.48 314.40 C 846.45 353.57 835.42 391.98 819.39 427.56 C 812.20 442.85 803.96 457.66 794.42 471.62 C 787.46 482.41 779.32 492.35 771.50 502.50 C 776.27 505.01 780.98 507.62 785.60 510.41 C 795.66 505.18 806.50 500.96 817.97 500.54 C 819.33 500.34 820.86 500.78 822.15 500.18 C 823.64 493.89 824.55 487.28 827.76 481.56 C 829.27 487.70 828.18 494.13 828.48 500.39 C 831.80 500.91 835.13 501.42 838.43 502.12 C 835.79 493.66 833.33 484.87 834.07 475.92 C 834.79 468.01 836.88 460.13 840.53 453.07 C 841.20 456.34 840.98 459.70 841.00 463.02 C 841.00 473.34 840.99 483.66 841.01 493.98 C 841.14 497.15 840.05 500.32 841.13 503.44 C 843.77 501.29 845.28 498.17 847.21 495.43 C 849.60 491.54 852.30 487.84 854.28 483.71 C 849.13 471.41 845.69 457.79 848.36 444.45 C 849.62 438.46 850.65 432.04 854.29 426.97 C 854.61 438.99 854.81 451.07 853.99 463.07 C 853.84 469.57 854.04 476.07 855.18 482.49 C 859.61 475.96 862.84 468.75 866.35 461.71 C 859.06 444.78 859.22 424.96 865.68 407.79 C 866.26 406.04 866.94 404.29 868.30 402.97 C 869.48 421.84 866.28 440.60 867.08 459.46 C 870.88 452.69 873.29 445.24 876.38 438.13 C 874.10 428.47 873.07 418.42 874.74 408.57 C 876.38 399.55 878.99 390.60 883.35 382.49 L 884.42 381.51 C 884.82 385.97 883.79 390.35 883.35 394.76 C 882.06 403.88 880.69 412.98 879.17 422.07 C 878.72 425.83 877.69 429.58 878.15 433.40 C 882.48 421.38 886.25 409.15 888.83 396.63 C 889.27 389.81 889.28 382.93 890.63 376.21 C 892.51 367.81 894.68 359.48 896.88 351.16 C 897.10 350.73 897.54 349.87 897.75 349.44 C 898.60 355.94 899.45 362.54 898.54 369.07 C 898.00 378.27 894.05 386.76 890.40 395.06 C 888.72 404.13 886.71 413.15 885.01 422.22 C 892.57 411.94 895.75 399.41 900.67 387.83 C 901.25 386.30 902.15 384.91 903.16 383.63 C 903.57 394.80 901.09 406.33 895.16 415.93 C 892.60 419.73 889.10 422.82 885.08 424.99 C 882.34 426.23 882.30 429.57 881.38 432.03 C 879.98 437.85 877.31 443.26 875.91 449.07 C 886.10 440.50 892.86 428.77 899.22 417.26 C 900.51 415.13 901.37 412.56 903.55 411.12 C 902.26 424.06 897.03 437.36 886.45 445.44 C 883.28 448.04 879.43 449.56 875.54 450.70 C 871.73 457.88 869.05 465.65 865.13 472.81 C 869.28 469.70 872.92 465.98 876.87 462.61 C 882.67 457.52 888.96 452.79 893.44 446.40 C 895.98 443.13 897.94 439.35 901.15 436.65 C 899.14 447.26 893.97 457.61 885.56 464.58 C 879.13 469.34 871.69 472.56 864.08 474.91 C 860.44 481.55 856.60 488.10 852.88 494.70 C 861.85 488.52 870.45 481.81 878.85 474.88 C 882.57 472.01 885.60 468.31 889.54 465.70 C 882.97 481.82 868.35 494.61 851.03 497.63 C 849.01 500.00 847.25 502.60 845.86 505.38 C 847.61 506.48 849.37 507.60 850.87 509.06 C 860.34 503.35 868.19 495.37 876.94 488.72 C 872.69 499.19 864.47 507.93 854.63 513.40 C 855.33 515.60 856.28 517.75 856.53 520.08 C 856.48 524.10 854.73 527.80 853.38 531.51 C 849.67 541.07 846.22 550.73 842.32 560.22 C 840.53 564.67 838.72 569.82 834.05 572.01 C 827.76 575.31 820.38 573.82 813.92 571.85 C 807.13 569.57 800.63 566.50 794.34 563.09 C 792.70 565.51 791.24 568.08 790.51 570.94 C 793.47 573.21 796.74 575.09 799.55 577.57 C 801.54 580.39 800.33 584.07 798.89 586.86 C 796.85 590.95 794.68 595.85 790.00 597.43 C 788.06 597.67 785.95 597.74 784.38 596.39 C 774.84 589.56 764.46 583.92 755.37 576.48 C 750.42 571.93 750.26 564.63 751.61 558.52 C 753.11 552.38 755.70 546.58 757.56 540.56 C 752.86 537.43 747.75 535.01 742.90 532.15 C 736.36 536.75 730.80 542.58 724.44 547.42 C 713.63 555.70 702.36 563.47 690.22 569.65 C 676.00 561.71 662.25 552.82 649.81 542.26 C 645.79 538.75 641.62 535.42 637.57 531.93 C 632.18 534.50 627.11 537.65 621.93 540.58 C 625.17 549.81 630.37 559.34 628.28 569.40 C 627.66 573.62 624.44 576.72 621.21 579.19 C 612.82 585.21 603.93 590.51 595.43 596.38 C 592.75 598.60 588.82 597.94 586.40 595.68 C 582.74 592.15 580.76 587.32 579.04 582.64 C 579.00 581.44 578.97 580.25 578.95 579.07 C 581.57 575.48 585.85 573.79 589.21 571.03 C 588.93 567.99 587.34 565.30 585.30 563.11 C 578.39 566.94 571.12 570.22 563.53 572.44 C 557.75 573.67 551.48 574.94 545.86 572.46 C 542.96 571.36 540.83 568.84 539.57 566.09 C 535.08 555.47 531.10 544.64 527.23 533.78 C 525.83 529.88 524.01 526.05 523.49 521.90 C 523.13 518.75 524.57 515.81 526.05 513.14 C 518.10 508.24 511.10 501.64 506.46 493.48 C 505.63 492.00 504.99 490.41 504.75 488.73 C 512.91 495.62 520.89 502.76 529.78 508.72 C 531.55 507.45 533.43 506.34 535.13 504.97 C 533.84 502.62 532.43 500.29 530.63 498.31 C 522.93 495.80 515.10 493.06 508.63 488.02 C 501.34 482.01 495.06 474.51 491.76 465.55 C 495.40 468.16 498.11 471.83 501.75 474.46 C 510.73 481.54 519.50 488.93 528.97 495.34 C 524.88 488.87 521.01 482.24 517.73 475.33 C 511.02 472.99 504.24 470.51 498.37 466.45 C 488.67 459.48 482.07 448.53 480.25 436.74 C 485.79 442.44 489.22 450.02 495.57 455.03 C 502.77 460.67 509.07 467.34 516.22 473.02 C 513.06 465.86 509.70 458.77 506.68 451.56 C 499.11 449.44 492.32 444.78 487.67 438.44 C 481.78 430.47 478.63 420.68 477.96 410.86 C 480.93 413.83 482.25 417.92 484.42 421.44 C 489.94 432.14 497.33 441.85 506.02 450.16 C 503.43 442.65 500.98 435.08 498.53 427.54 C 495.59 423.74 490.39 422.37 487.76 418.22 C 480.78 408.40 478.11 395.86 478.69 383.98 C 479.15 384.60 480.06 385.84 480.51 386.47 C 485.78 398.49 488.39 412.12 496.91 422.45 C 494.88 414.48 492.93 406.47 491.67 398.33 C 491.27 394.65 489.13 391.55 487.81 388.18 C 482.76 376.08 480.99 362.23 484.58 349.53 C 486.87 358.93 489.03 368.35 491.12 377.79 C 492.29 383.18 491.87 388.70 492.10 394.16 C 494.26 405.31 497.87 416.10 501.08 426.97 C 501.71 428.88 502.10 430.96 503.45 432.53 C 501.87 415.46 497.19 398.71 497.03 381.52 C 499.31 383.64 500.16 386.71 501.38 389.47 C 506.71 403.77 509.47 419.62 505.81 434.66 C 505.59 436.47 504.48 438.44 505.59 440.15 C 508.60 446.27 510.29 452.98 513.81 458.85 C 515.35 449.58 513.71 440.27 513.47 430.98 C 512.60 421.39 513.11 411.73 513.05 402.11 C 516.73 407.58 517.99 414.19 519.38 420.52 C 521.93 434.32 520.30 448.82 514.85 461.74 C 518.25 468.70 521.90 475.53 525.67 482.31 C 525.86 481.59 526.23 480.16 526.42 479.44 C 527.96 467.98 526.02 456.51 526.50 445.02 C 526.83 438.94 525.67 432.70 527.40 426.78 C 534.02 440.40 535.03 456.27 531.61 470.92 C 530.53 475.38 528.63 479.57 526.42 483.58 C 530.98 490.21 534.53 497.66 540.12 503.52 C 541.19 498.72 539.76 493.90 539.98 489.08 C 540.16 477.25 539.69 465.40 540.23 453.59 C 540.90 454.23 541.42 454.97 541.82 455.81 C 548.25 470.30 548.27 487.42 542.30 502.06 C 545.66 501.23 549.07 500.62 552.51 500.16 C 552.52 493.98 552.41 487.80 552.58 481.62 C 552.85 481.85 553.39 482.29 553.66 482.51 C 556.15 487.23 557.27 492.51 558.47 497.66 C 558.47 498.22 558.46 499.34 558.45 499.90 C 563.67 500.73 568.99 501.00 574.12 502.38 C 580.84 503.91 586.97 507.18 593.30 509.82 C 594.50 510.52 595.77 509.57 596.81 508.99 C 600.67 506.63 604.61 504.40 608.57 502.22 C 584.85 473.85 565.71 441.53 553.14 406.71 C 548.05 392.94 543.87 378.83 540.60 364.51 C 534.68 337.61 531.94 310.02 532.50 282.50 M 621.09 308.86 C 620.26 311.79 623.05 314.60 621.46 317.45 C 620.05 320.21 620.86 323.19 621.11 326.09 C 619.41 325.81 617.71 325.45 616.00 325.47 C 610.96 324.99 607.56 329.43 603.04 330.77 C 600.73 330.38 599.38 328.58 598.14 326.79 C 599.18 322.68 601.25 317.98 599.14 313.89 C 597.72 311.66 595.16 311.69 593.15 313.04 C 590.36 316.92 589.04 322.22 591.60 326.56 C 594.03 330.19 596.41 334.59 594.93 339.06 C 590.25 360.25 586.35 381.64 581.49 402.78 C 582.19 405.59 583.26 408.47 585.57 410.36 C 591.73 416.46 602.63 415.65 608.31 409.32 C 610.02 406.94 611.71 403.94 610.63 400.94 C 606.49 380.20 602.18 359.49 598.26 338.70 C 602.65 340.31 607.34 339.43 611.49 337.57 C 614.75 335.92 617.99 338.06 620.93 339.36 C 621.11 344.25 620.89 349.15 621.03 354.04 C 621.07 355.81 622.77 357.12 622.51 358.96 C 622.47 368.01 622.57 377.07 622.45 386.11 C 621.93 390.38 621.65 394.74 622.40 399.01 C 620.97 406.97 623.57 415.43 620.53 423.08 C 620.36 429.22 620.67 435.38 620.42 441.53 C 619.48 448.32 615.28 455.27 608.51 457.54 C 605.51 457.47 602.50 457.43 599.52 457.68 C 599.49 459.61 599.49 461.55 599.50 463.50 C 616.37 463.36 633.26 463.77 650.11 463.29 C 649.80 461.36 649.49 459.43 649.36 457.49 C 646.41 457.50 643.46 457.49 640.52 457.53 C 633.48 455.68 629.62 448.60 628.54 441.88 C 628.37 435.55 628.61 429.23 628.47 422.91 C 628.33 420.75 626.39 419.10 626.51 416.88 C 626.51 396.88 626.44 376.88 626.55 356.89 C 630.28 353.29 627.68 347.58 628.62 343.06 C 631.68 345.49 633.91 348.71 635.98 351.98 C 639.51 357.39 644.31 362.84 651.03 363.93 C 648.42 376.11 646.01 388.33 643.39 400.51 C 641.78 408.64 639.67 416.69 638.48 424.89 C 639.26 431.21 645.44 435.76 651.46 436.68 C 658.98 437.83 668.18 432.11 667.94 423.92 C 663.46 403.12 659.45 382.22 654.98 361.42 C 657.35 358.39 659.79 354.91 659.50 350.86 C 658.83 347.81 657.33 344.83 654.82 342.90 C 653.01 341.68 650.53 342.89 650.01 344.89 C 648.18 348.37 651.49 351.99 649.87 355.55 C 646.00 355.06 644.71 350.95 642.84 348.14 C 638.96 341.68 635.22 334.16 628.02 330.89 C 627.48 325.62 629.27 319.84 626.57 315.00 C 627.26 313.60 628.09 312.25 628.52 310.73 C 628.40 308.04 626.72 305.66 623.99 305.19 C 622.98 306.37 621.58 307.32 621.09 308.86 M 778.20 314.60 C 772.08 315.66 766.42 319.41 763.36 324.85 C 760.33 318.55 753.54 315.17 746.91 314.15 C 741.28 313.36 735.65 312.61 730.11 311.37 C 727.59 319.02 725.14 326.69 722.27 334.22 C 728.80 338.19 736.64 336.89 743.77 338.60 C 750.14 339.83 756.42 342.38 761.28 346.76 C 761.85 347.54 762.45 348.33 763.06 349.11 C 770.84 341.06 782.13 338.01 793.01 337.48 C 797.13 337.40 801.10 335.95 804.62 333.87 C 801.75 326.33 799.30 318.65 796.46 311.10 C 790.48 312.77 784.31 313.56 778.20 314.60 M 721.36 337.47 C 720.88 338.95 720.44 340.46 719.94 341.94 C 726.84 343.50 733.93 344.17 741.00 343.99 C 745.92 343.92 750.76 345.13 755.35 346.83 C 749.20 342.39 741.48 340.45 733.97 340.46 C 729.58 340.34 725.44 338.93 721.36 337.47 M 794.82 340.12 C 786.79 340.76 778.23 341.87 771.62 346.88 C 775.91 345.39 780.33 343.92 784.94 343.99 C 792.22 344.11 799.56 343.54 806.67 341.85 C 806.17 340.31 805.67 338.78 805.18 337.25 C 801.86 338.62 798.47 340.07 794.82 340.12 M 719.94 345.09 C 718.34 346.15 719.21 348.31 718.95 349.91 C 721.78 350.50 724.68 351.45 727.60 350.69 C 735.78 349.21 744.03 348.03 752.37 348.49 C 747.87 346.56 742.88 345.99 738.03 345.98 C 732.00 346.65 725.92 346.00 719.94 345.09 M 774.83 348.55 C 778.86 348.53 782.91 348.24 786.91 348.90 C 793.96 349.64 801.21 352.28 808.17 349.65 C 807.96 348.05 808.57 344.46 805.96 345.09 C 795.69 347.40 784.67 343.99 774.83 348.55 M 716.33 378.15 C 716.18 378.73 715.90 379.89 715.76 380.48 C 747.34 380.53 778.92 380.48 810.50 380.50 C 810.50 379.87 810.50 378.63 810.50 378.00 C 779.11 378.10 747.70 377.81 716.33 378.15 M 757.38 396.58 C 756.94 398.90 756.97 401.27 756.95 403.62 C 750.12 404.68 743.73 409.51 742.24 416.50 C 742.05 418.07 741.98 419.65 741.91 421.25 C 741.11 421.70 739.49 422.60 738.68 423.05 C 739.24 423.28 740.36 423.74 740.92 423.97 C 752.52 424.03 764.13 424.02 775.73 423.96 C 775.68 422.19 774.80 421.30 773.07 421.29 C 773.71 413.42 768.07 406.13 760.62 404.00 C 759.97 404.00 758.67 404.00 758.02 404.00 C 758.00 401.51 758.19 398.97 757.38 396.58 M 735.00 425.00 C 734.99 426.25 734.99 427.51 735.00 428.77 C 739.02 428.89 737.03 434.07 737.52 436.62 C 738.39 436.52 740.12 436.33 740.99 436.24 C 740.98 433.69 740.95 431.14 741.23 428.62 C 743.65 430.47 742.05 433.94 742.50 436.50 C 743.38 436.50 745.12 436.50 745.99 436.50 C 745.98 433.93 745.97 431.37 746.11 428.81 C 749.11 430.19 746.23 434.34 748.13 436.39 C 748.84 436.44 750.26 436.55 750.97 436.61 C 751.02 434.20 750.88 431.80 751.12 429.41 C 751.55 429.28 752.41 429.01 752.84 428.88 C 753.01 431.48 752.99 434.09 753.10 436.69 C 754.13 436.33 756.62 436.95 756.48 435.21 C 756.54 433.04 756.48 430.87 756.54 428.71 C 759.37 430.00 757.43 434.04 758.00 436.50 C 758.88 436.50 760.62 436.50 761.50 436.50 C 762.12 434.26 759.99 429.51 763.06 428.89 C 763.87 431.38 763.38 434.04 763.52 436.61 C 764.43 436.51 766.24 436.32 767.15 436.22 C 767.35 433.92 764.75 429.14 768.49 428.79 C 768.51 431.36 768.49 433.92 768.50 436.50 C 769.37 436.50 771.11 436.50 771.98 436.50 C 772.40 434.12 770.78 430.14 773.91 429.15 C 774.01 431.59 774.00 434.04 774.00 436.50 C 774.87 436.50 776.59 436.50 777.46 436.50 C 777.42 434.07 777.50 431.64 778.05 429.27 C 780.56 429.21 779.94 426.87 779.95 425.13 C 764.97 424.83 749.98 425.08 735.00 425.00 M 733.37 438.03 C 733.27 439.63 733.66 441.11 735.00 442.12 C 734.81 447.25 734.82 452.50 733.24 457.44 C 749.57 457.56 765.90 457.49 782.23 457.48 C 782.14 455.82 781.47 454.35 780.55 453.02 C 780.54 449.68 780.54 446.33 779.99 443.03 C 780.81 441.44 781.67 439.88 781.68 438.05 C 765.58 437.96 749.47 437.99 733.37 438.03 M 733.00 458.50 C 733.00 459.13 733.00 460.38 733.00 461.00 C 747.67 460.99 762.35 461.01 777.03 460.99 C 778.37 460.96 779.68 461.14 780.98 461.54 C 781.32 460.85 781.99 459.45 782.32 458.75 C 765.90 458.18 749.44 458.66 733.00 458.50 M 621.84 497.57 C 612.30 502.76 602.98 508.34 593.60 513.81 C 578.04 522.67 562.53 532.59 544.78 536.41 C 540.25 537.45 535.49 537.14 530.95 536.36 C 531.46 538.64 533.25 540.13 535.28 541.08 C 537.34 541.04 539.42 540.96 541.44 540.46 C 540.29 543.03 537.24 542.38 534.98 542.67 C 538.76 544.79 542.99 543.57 547.06 543.50 C 543.83 545.26 540.20 545.72 536.58 545.64 C 539.42 547.84 542.99 547.61 546.37 547.27 C 543.91 548.82 540.92 548.84 538.16 549.31 C 540.24 551.01 542.83 551.67 545.48 551.80 C 543.78 553.06 541.57 552.93 539.60 553.36 C 541.78 554.79 544.42 554.64 546.92 554.67 L 546.02 553.36 C 546.69 553.39 548.04 553.45 548.71 553.48 C 547.72 554.46 546.87 555.59 545.75 556.44 C 544.18 556.55 542.60 556.53 541.04 556.61 C 544.28 559.19 548.51 558.46 552.34 558.27 C 549.25 560.30 545.44 560.14 541.93 559.77 C 545.44 563.85 551.30 562.42 555.97 561.97 C 555.65 562.35 555.02 563.10 554.70 563.48 C 551.68 564.77 548.00 564.31 545.37 566.35 C 547.72 566.49 550.11 566.47 552.47 566.67 C 550.50 567.72 548.23 567.90 546.09 568.36 C 545.09 570.87 548.61 570.93 550.20 571.40 C 560.85 572.42 570.85 567.59 580.10 562.95 C 591.43 556.85 602.45 550.19 613.26 543.22 C 628.88 533.27 645.71 524.62 664.01 520.95 C 678.81 517.71 694.16 517.91 709.12 519.83 C 726.39 522.03 742.78 528.79 757.64 537.65 C 772.55 546.34 787.13 555.58 802.20 564.00 C 811.19 568.94 821.49 573.06 831.93 571.02 C 832.87 570.23 833.80 569.39 834.41 568.30 C 832.43 567.72 829.84 568.04 828.54 566.11 C 831.09 565.78 834.06 566.66 836.12 564.56 C 831.01 564.77 825.97 564.13 820.90 563.80 C 821.73 563.43 823.39 562.70 824.22 562.33 C 823.07 562.16 820.77 561.82 819.62 561.65 C 820.88 559.98 823.05 560.48 824.86 560.55 C 829.19 561.01 833.91 563.43 837.98 560.70 C 835.63 560.52 833.30 560.37 831.00 559.95 L 831.00 559.10 C 832.54 558.89 834.09 558.65 835.65 558.46 C 836.71 557.68 837.74 556.89 838.80 556.11 C 836.81 555.87 834.64 556.38 832.84 555.30 C 835.54 554.76 838.65 555.09 840.88 553.18 C 837.16 552.74 832.90 553.49 829.70 551.14 C 833.95 551.82 838.25 551.39 842.03 549.19 C 837.92 548.60 832.92 549.72 829.49 547.02 C 834.72 547.27 841.11 549.02 845.46 545.22 C 840.29 545.62 835.03 544.92 830.01 543.71 L 830.39 542.60 C 835.26 542.86 840.09 543.71 844.99 543.54 C 844.95 543.29 844.86 542.81 844.82 542.57 C 841.35 542.21 837.84 541.80 834.57 540.54 C 838.71 540.43 842.86 540.49 847.01 540.55 C 847.80 539.20 848.56 537.85 849.29 536.48 C 846.84 536.84 844.39 537.12 841.94 537.48 C 836.52 536.71 831.09 535.79 825.89 534.02 C 793.92 522.67 768.13 498.55 735.56 488.60 C 719.81 483.95 703.48 480.58 686.99 481.00 C 664.46 482.03 642.08 487.58 621.84 497.57 M 680.86 526.44 C 680.65 529.08 677.71 533.06 681.65 534.13 C 682.97 529.80 683.89 525.34 684.11 520.82 C 680.59 520.19 681.72 524.38 680.86 526.44 M 695.99 520.99 C 697.04 525.86 697.80 530.89 699.76 535.49 C 700.43 535.74 701.78 536.23 702.46 536.48 C 701.20 531.34 699.89 526.21 699.00 521.00 C 698.25 521.00 696.74 520.99 695.99 520.99 M 679.22 532.99 C 678.76 536.05 677.80 538.99 676.81 541.91 C 675.82 541.48 673.85 540.63 672.86 540.21 C 669.73 541.28 667.84 544.65 670.19 547.44 C 670.93 547.78 672.41 548.46 673.15 548.80 C 678.44 546.15 679.42 539.70 681.34 534.67 C 680.81 534.25 679.75 533.41 679.22 532.99 M 700.19 536.78 C 702.42 540.91 703.22 547.16 708.45 548.55 C 709.03 548.32 710.17 547.87 710.75 547.64 C 711.06 547.17 711.69 546.22 712.00 545.75 C 712.00 545.07 712.00 543.71 712.00 543.03 C 711.30 542.31 710.60 541.59 709.92 540.88 C 708.09 540.95 706.29 541.26 704.61 541.96 C 703.97 540.15 703.37 538.35 702.73 536.56 C 702.10 536.61 700.83 536.72 700.19 536.78 M 591.05 572.73 C 587.77 574.93 584.02 576.69 581.54 579.86 C 580.94 584.98 583.96 589.97 587.67 593.29 C 587.54 592.51 587.28 590.94 587.15 590.16 C 588.60 591.90 590.41 593.23 592.12 594.74 C 591.89 593.88 591.42 592.17 591.19 591.32 C 591.96 591.87 593.50 592.99 594.27 593.55 C 593.90 592.51 593.15 590.43 592.77 589.39 C 594.29 590.36 595.77 591.53 597.74 591.09 C 597.21 589.96 596.69 588.84 596.18 587.73 C 597.39 588.35 598.60 588.98 599.82 589.64 C 599.56 588.97 599.04 587.63 598.78 586.95 C 599.75 587.12 601.69 587.46 602.67 587.63 C 602.54 587.00 602.30 585.74 602.18 585.11 C 602.57 585.29 603.37 585.66 603.76 585.84 C 604.60 584.84 605.63 584.13 606.88 583.70 C 605.80 582.26 604.84 580.77 604.10 579.15 C 605.83 580.50 607.37 582.06 608.83 583.71 C 608.83 583.43 608.81 582.86 608.81 582.57 C 608.26 581.49 607.73 580.41 607.22 579.33 C 608.91 579.74 611.64 582.41 612.64 580.14 C 612.31 579.27 611.64 577.53 611.31 576.66 C 612.12 577.12 613.75 578.05 614.56 578.51 C 615.27 578.48 616.69 578.42 617.40 578.40 C 611.86 574.48 610.34 567.74 607.95 561.85 C 602.18 565.26 596.87 569.39 591.05 572.73 M 771.34 561.91 C 769.52 568.07 767.08 574.10 762.70 578.91 L 765.25 577.72 C 765.37 578.21 765.62 579.19 765.74 579.69 C 766.45 579.30 767.89 578.51 768.60 578.12 C 768.78 579.42 768.97 580.73 769.17 582.04 C 770.00 581.57 771.64 580.62 772.46 580.15 C 772.08 581.15 771.31 583.14 770.93 584.14 C 772.06 583.52 773.18 582.85 772.55 581.43 C 773.47 581.27 774.41 581.12 775.35 580.97 C 774.55 582.13 773.84 583.35 773.23 584.63 C 775.12 584.79 776.66 585.89 777.70 587.44 C 778.35 587.00 779.64 586.12 780.28 585.67 C 779.90 586.58 779.13 588.39 778.75 589.29 C 779.59 588.62 781.28 587.27 782.13 586.59 C 781.83 587.47 781.23 589.22 780.93 590.09 C 781.95 591.55 783.86 588.45 785.18 588.04 C 784.88 589.07 784.28 591.12 783.98 592.14 C 784.70 591.53 786.13 590.30 786.85 589.68 C 786.49 590.60 785.76 592.44 785.40 593.35 C 786.10 592.96 787.49 592.18 788.19 591.79 L 787.09 594.76 C 788.90 593.49 790.87 592.26 791.81 590.16 C 791.88 590.99 792.03 592.63 792.10 593.45 C 795.66 590.17 797.40 585.42 798.64 580.86 C 797.33 577.23 793.39 575.79 790.48 573.73 C 783.91 570.09 777.89 565.57 771.34 561.91 Z" />
<path fill="#ffffff" opacity="1.00" d=" M 996.55 300.61 C 999.72 310.92 1001.55 321.64 1004.00 332.15 C 1001.08 333.71 997.70 334.24 994.55 335.21 C 996.15 332.95 998.36 331.12 999.45 328.52 C 1001.70 323.35 998.90 317.94 998.30 312.71 C 992.00 313.67 985.66 315.01 979.67 317.11 C 972.43 318.36 964.82 319.38 958.29 322.90 C 957.66 324.11 957.00 325.31 956.29 326.48 C 954.85 321.28 953.65 316.01 952.62 310.72 C 954.50 312.11 956.36 314.17 958.95 313.94 C 962.82 313.33 966.68 312.59 970.49 311.63 C 977.93 309.60 985.59 308.42 992.93 306.02 C 995.58 305.56 995.72 302.63 996.55 300.61 Z" />
<path fill="#ffffff" opacity="1.00" d=" M 978.75 318.86 C 979.12 318.38 979.51 317.90 979.92 317.43 C 979.64 322.97 983.79 326.74 988.49 328.68 C 983.71 329.74 978.91 330.73 974.10 331.61 C 975.96 329.45 978.13 327.47 979.03 324.66 C 979.00 322.72 979.00 320.78 978.75 318.86 Z" />
<path fill="#ffffff" opacity="1.00" d=" M 412.53 325.39 C 416.39 326.33 420.26 327.27 424.09 328.38 C 422.09 340.56 420.64 352.82 418.84 365.03 C 417.35 362.60 415.56 359.91 412.44 359.61 C 401.66 357.92 390.82 356.43 379.95 355.47 C 377.29 355.11 375.59 357.64 373.90 359.26 C 374.32 353.85 374.81 348.44 375.78 343.10 C 377.31 345.33 379.09 347.80 382.06 348.00 C 392.98 349.47 403.86 351.53 414.87 352.07 C 418.00 350.09 419.86 346.93 420.48 343.32 C 420.93 339.49 421.36 335.18 419.09 331.82 C 417.58 329.02 414.23 328.02 412.53 325.39 Z" />
<path fill="#ffffff" opacity="1.00" d=" M 1000.04 345.91 C 1002.30 345.39 1003.36 343.13 1004.83 341.57 C 1005.58 346.71 1006.17 351.88 1006.79 357.05 C 1006.53 357.21 1006.00 357.53 1005.74 357.69 C 1005.51 357.13 1005.04 355.99 1004.80 355.42 C 1004.27 355.11 1003.19 354.48 1002.65 354.16 C 1002.03 353.99 1000.77 353.65 1000.14 353.48 C 989.29 354.82 978.38 355.86 967.63 357.81 C 964.86 358.04 963.40 360.56 961.71 362.39 C 960.88 357.16 960.08 351.88 959.97 346.58 C 961.63 348.28 963.27 350.23 965.82 350.50 C 971.72 349.96 977.56 348.94 983.45 348.34 C 988.96 347.40 994.63 347.35 1000.04 345.91 Z" />
<path fill="#ffffff" opacity="1.00" d=" M 594.10 354.63 C 594.43 353.08 594.92 351.58 595.53 350.13 C 595.28 358.71 595.98 367.34 595.03 375.89 C 594.94 384.26 595.03 392.63 595.00 401.00 C 591.47 401.00 587.94 401.00 584.41 401.00 C 587.60 385.53 590.76 370.06 594.10 354.63 Z" />
<path fill="#ffffff" opacity="1.00" d=" M 597.47 400.95 C 597.60 384.07 597.35 367.18 597.59 350.30 C 598.55 352.61 598.84 355.10 599.37 357.54 C 602.19 372.03 605.30 386.46 607.83 401.00 C 604.37 401.00 600.92 401.02 597.47 400.95 Z" />
<path fill="#ffffff" opacity="1.00" d=" M 972.22 371.90 C 979.19 368.53 987.59 368.00 994.82 370.93 C 1001.84 373.79 1007.38 380.31 1008.66 387.84 C 1009.60 393.49 1009.01 399.45 1006.48 404.63 C 1005.55 405.99 1006.32 407.55 1006.53 409.01 C 1002.47 408.77 998.43 409.25 994.41 409.40 L 994.04 408.33 C 997.95 406.47 1002.67 405.16 1005.07 401.22 C 1008.81 396.15 1008.37 388.48 1003.96 383.94 C 997.47 377.19 987.36 376.00 978.51 377.27 C 973.43 378.44 968.39 380.86 965.70 385.53 C 962.32 391.13 962.30 398.51 965.67 404.10 C 967.56 407.08 971.23 407.89 974.29 409.15 C 970.22 410.92 965.75 407.07 963.42 403.86 C 958.08 393.21 960.98 377.58 972.22 371.90 Z" />
<path fill="#ffffff" opacity="1.00" d=" M 373.54 371.15 C 374.69 372.47 375.52 374.17 377.06 375.10 C 382.27 376.59 387.73 375.77 393.07 376.03 C 399.61 376.77 406.22 376.52 412.79 376.41 C 415.37 376.41 416.71 374.00 418.48 372.55 C 418.34 377.69 417.72 382.81 418.01 387.97 C 416.41 386.47 414.97 384.48 412.64 384.17 C 405.22 382.62 397.58 384.23 390.11 383.10 C 386.39 382.94 382.65 382.87 378.94 383.13 C 376.29 383.36 374.75 385.73 373.01 387.42 C 372.72 381.97 373.32 376.57 373.54 371.15 Z" />
<path fill="#ffffff" opacity="1.00" d=" M 641.33 422.96 C 644.50 405.51 648.58 388.23 651.61 370.75 C 652.29 375.12 651.91 379.56 652.00 383.98 C 651.93 396.95 652.14 409.92 651.89 422.89 C 648.37 423.05 644.85 423.02 641.33 422.96 Z" />
<path fill="#ffffff" opacity="1.00" d=" M 654.05 371.47 C 655.52 372.92 655.48 375.10 655.97 376.97 C 658.88 392.34 662.26 407.62 665.15 422.99 C 661.47 423.00 657.78 423.06 654.11 422.89 C 653.89 405.76 653.99 388.61 654.05 371.47 Z" />
<path fill="#ffffff" opacity="1.00" d=" M 407.76 396.49 C 411.55 395.13 414.88 398.32 417.21 400.93 C 424.95 411.91 420.54 429.53 407.94 434.82 C 399.81 437.94 389.95 437.63 382.61 432.61 C 373.65 426.01 369.97 413.11 374.64 402.90 C 374.27 402.10 373.53 400.51 373.16 399.71 C 377.40 398.80 381.73 398.29 386.06 397.94 C 383.96 400.73 380.23 401.48 377.96 404.13 C 372.56 409.06 373.78 417.92 378.29 423.04 C 384.27 428.09 392.50 429.91 400.15 428.69 C 406.79 427.98 413.71 424.89 416.90 418.71 C 419.85 411.87 418.78 402.05 411.74 398.16 C 410.37 397.71 409.02 397.17 407.76 396.49 Z" />
<path fill="#ffffff" opacity="1.00" d=" M 961.55 416.51 C 961.81 416.28 962.33 415.82 962.58 415.58 C 963.51 419.18 966.10 421.82 969.17 423.76 C 979.66 430.69 990.55 437.02 1001.13 443.82 C 1002.88 444.78 1001.88 447.27 999.99 447.11 C 989.69 449.21 979.43 451.47 969.14 453.62 C 963.62 454.87 957.37 455.30 953.41 459.88 C 954.19 454.33 955.63 448.90 956.70 443.40 C 956.92 443.20 957.35 442.79 957.57 442.59 C 957.85 444.83 959.17 446.62 960.76 448.15 C 965.08 447.20 969.44 446.34 973.80 445.51 C 974.77 440.52 976.13 435.57 976.46 430.48 C 972.85 428.73 969.77 426.02 966.01 424.58 C 963.14 423.56 961.26 426.20 959.37 427.82 C 960.07 424.05 960.65 420.23 961.55 416.51 M 978.17 431.75 C 977.45 436.19 976.64 440.62 975.85 445.05 C 981.92 443.71 988.03 442.52 994.10 441.12 C 988.61 438.30 983.45 434.92 978.17 431.75 Z" />
<path fill="#ffffff" opacity="1.00" d=" M 737.84 442.20 C 738.35 442.10 739.37 441.91 739.88 441.81 C 739.62 445.71 742.30 450.80 738.82 453.81 L 737.64 452.94 C 737.47 449.38 737.17 445.71 737.84 442.20 Z" />
<path fill="#ffffff" opacity="1.00" d=" M 744.02 441.82 C 744.55 441.91 745.62 442.10 746.16 442.19 C 746.91 445.72 746.32 449.39 746.51 452.98 C 745.95 453.21 744.82 453.69 744.26 453.93 C 743.80 449.90 744.03 445.85 744.02 441.82 Z" />
<path fill="#ffffff" opacity="1.00" d=" M 750.13 442.35 C 750.71 442.20 751.89 441.90 752.48 441.76 C 752.51 445.77 752.55 449.79 752.43 453.81 C 751.84 453.62 750.67 453.23 750.08 453.04 C 749.93 449.48 749.88 445.90 750.13 442.35 Z" />
<path fill="#ffffff" opacity="1.00" d=" M 756.49 441.97 C 757.10 442.02 758.31 442.13 758.92 442.18 C 758.55 446.10 760.18 450.69 757.86 454.12 C 755.03 450.86 757.13 445.94 756.49 441.97 Z" />
<path fill="#ffffff" opacity="1.00" d=" M 762.72 441.81 C 763.33 441.90 764.56 442.08 765.17 442.17 C 765.82 445.67 765.47 449.30 765.43 452.85 C 764.53 453.88 763.59 453.93 762.63 452.99 C 762.34 449.27 762.43 445.53 762.72 441.81 Z" />
<path fill="#ffffff" opacity="1.00" d=" M 769.00 441.95 C 769.64 441.99 770.91 442.06 771.54 442.09 C 770.88 446.02 772.89 450.80 770.21 454.10 C 767.68 450.71 769.56 445.93 769.00 441.95 Z" />
<path fill="#ffffff" opacity="1.00" d=" M 775.16 442.31 C 775.74 442.17 776.90 441.90 777.48 441.77 C 777.50 445.78 777.55 449.79 777.43 453.81 C 776.84 453.62 775.67 453.23 775.08 453.04 C 774.94 449.47 774.86 445.87 775.16 442.31 Z" />
<path fill="#ffffff" opacity="1.00" d=" M 387.47 454.72 C 399.55 451.37 411.51 447.64 423.55 444.19 C 423.83 444.48 424.37 445.05 424.64 445.34 C 415.42 459.58 405.12 473.11 395.33 486.97 C 402.62 485.21 409.68 482.57 416.92 480.58 C 420.77 479.22 424.84 478.44 428.56 476.71 C 430.56 475.41 430.87 472.94 431.62 470.88 C 432.79 474.81 434.30 478.69 434.84 482.79 C 433.18 481.26 431.78 478.59 429.11 479.13 C 421.68 480.42 414.65 483.28 407.37 485.19 C 402.79 486.78 397.88 487.57 393.53 489.75 C 392.31 491.34 392.22 493.60 391.42 495.44 C 390.61 491.67 389.32 488.04 387.93 484.46 C 396.39 472.63 405.06 460.94 413.36 448.99 C 404.74 451.60 396.00 453.86 387.41 456.52 C 383.93 457.40 382.81 460.97 382.55 464.17 C 380.87 460.11 380.02 455.78 378.86 451.57 C 380.36 452.67 381.75 453.90 383.19 455.09 C 384.61 454.99 386.05 454.91 387.47 454.72 Z" />
<path fill="#ffffff" opacity="1.00" d=" M 986.84 467.20 C 990.50 467.31 993.60 469.60 996.92 470.92 C 994.26 481.49 989.98 491.58 986.59 501.93 C 984.98 505.60 984.20 509.69 982.04 513.08 C 978.39 512.42 974.58 511.39 971.57 509.15 C 974.65 508.92 978.24 509.48 980.65 507.05 C 983.92 503.94 986.53 499.80 987.19 495.27 C 975.57 490.20 963.34 486.69 951.48 482.24 C 949.73 481.83 948.00 482.07 946.39 482.80 C 945.67 483.46 944.95 484.13 944.23 484.79 C 945.53 479.61 946.78 474.25 949.44 469.58 C 950.27 473.19 953.53 475.19 956.82 476.24 C 967.97 480.19 979.06 484.33 990.26 488.17 C 992.08 483.45 993.55 478.18 991.87 473.20 C 990.93 470.65 988.63 469.09 986.84 467.20 Z" />
<path fill="#ffffff" opacity="1.00" d=" M 669.54 494.89 C 672.05 488.62 678.92 484.70 685.52 484.75 C 684.12 486.77 681.44 486.97 679.51 488.29 C 676.35 489.96 674.84 493.42 673.81 496.66 C 677.25 495.50 681.74 494.35 684.63 497.34 C 688.01 501.33 688.23 508.46 683.90 511.88 C 680.26 515.45 673.47 514.50 670.59 510.41 C 667.28 506.00 667.36 499.78 669.54 494.89 M 675.37 498.56 C 673.64 499.28 673.42 501.36 673.47 502.99 C 673.39 505.81 673.37 509.25 675.90 511.10 C 678.11 513.49 681.78 510.70 681.89 508.01 C 682.28 504.77 682.62 500.40 679.45 498.43 C 678.26 497.47 676.62 498.17 675.37 498.56 Z" />
<path fill="#ffffff" opacity="1.00" d=" M 698.51 493.47 C 702.99 493.47 707.48 493.69 711.95 493.19 C 711.97 494.45 711.99 495.72 712.03 497.00 C 709.58 497.00 707.15 496.99 704.72 497.00 C 708.17 499.10 711.27 503.31 709.61 507.49 C 708.25 513.17 700.87 515.63 695.96 512.99 C 690.32 510.65 688.18 502.69 691.74 497.78 C 693.26 495.42 696.06 494.50 698.51 493.47 M 695.00 501.81 C 694.69 504.92 695.20 508.29 697.36 510.69 C 699.37 512.12 701.74 512.13 703.79 510.77 C 706.13 506.72 705.72 501.71 702.88 498.03 C 699.98 495.32 695.12 498.21 695.00 501.81 Z" />
<path fill="#ffffff" opacity="1.00" d=" M 429.89 496.28 C 433.98 494.56 439.17 495.40 442.15 498.81 C 446.68 503.41 449.69 509.59 450.49 515.99 C 451.01 520.11 449.34 524.41 445.85 526.76 C 437.29 532.27 427.68 535.89 418.92 541.02 C 416.54 542.28 415.84 544.96 415.45 547.41 C 412.56 542.49 410.50 537.13 407.69 532.15 C 408.61 532.61 410.46 533.54 411.39 534.00 C 416.52 534.66 420.98 531.64 425.41 529.55 C 430.88 526.65 436.65 524.29 441.88 520.97 C 446.25 518.38 447.56 512.60 445.96 508.01 C 444.53 503.59 441.84 498.89 437.03 497.63 C 433.48 496.14 429.79 498.13 426.53 499.47 C 419.06 503.48 411.11 506.53 403.77 510.77 C 400.98 512.27 400.90 515.70 400.76 518.47 C 398.96 514.65 397.64 510.62 395.89 506.78 C 398.23 507.64 400.50 509.85 403.13 508.63 C 412.32 505.14 420.71 499.81 429.89 496.28 Z" />
<path fill="#ffffff" opacity="1.00" d=" M 929.56 515.81 C 932.01 511.20 934.09 506.40 936.73 501.90 C 937.25 503.20 937.73 504.53 938.16 505.88 C 939.77 507.67 941.67 509.17 943.87 510.20 C 953.45 514.85 962.57 520.60 972.66 524.12 C 974.14 523.42 975.66 522.76 977.20 522.15 C 975.22 527.05 972.49 531.60 970.50 536.49 C 969.62 535.15 969.44 533.52 969.00 532.03 C 966.45 529.39 962.94 528.07 959.85 526.22 C 952.74 522.57 945.56 519.05 938.42 515.46 C 935.84 514.07 932.26 513.88 930.30 516.38 C 930.12 516.24 929.75 515.95 929.56 515.81 Z" />
<path fill="#ffffff" opacity="1.00" d=" M 915.11 538.14 C 919.90 533.46 926.26 530.76 932.95 530.52 C 938.51 530.97 944.15 532.73 948.31 536.59 C 957.72 544.76 958.58 560.31 950.83 569.89 C 943.06 580.41 926.02 582.81 916.33 573.62 C 905.87 565.04 905.91 547.63 915.11 538.14 M 922.49 536.23 C 915.39 537.74 910.71 545.04 911.02 552.06 C 912.31 560.20 919.08 565.95 925.61 570.24 C 930.95 573.16 937.52 575.68 943.55 573.43 C 949.02 571.43 953.07 565.95 953.03 560.07 C 953.39 553.19 948.92 547.22 943.82 543.10 C 937.90 538.32 930.25 534.75 922.49 536.23 Z" />
<path fill="#ffffff" opacity="1.00" d=" M 447.44 541.56 C 460.04 537.10 474.58 545.45 478.42 557.94 C 480.45 564.82 480.05 572.84 475.82 578.85 C 471.70 585.15 464.46 589.20 456.93 589.47 C 442.10 590.11 428.45 575.29 431.31 560.48 C 432.82 551.86 438.94 544.11 447.44 541.56 M 453.26 547.18 C 444.76 550.86 437.04 557.81 434.82 567.08 C 433.26 572.78 436.41 578.85 441.16 581.99 C 445.61 584.52 451.10 585.30 456.00 583.60 C 465.28 580.63 473.14 572.99 475.97 563.62 C 476.79 557.56 474.73 550.58 469.07 547.54 C 464.34 544.41 458.25 545.12 453.26 547.18 Z" />
<path fill="#ffffff" opacity="1.00" d=" M 888.89 573.04 C 891.75 570.98 893.76 568.04 896.37 565.73 C 895.17 568.66 895.04 572.15 897.69 574.37 C 903.00 579.40 907.59 585.10 912.88 590.16 C 916.21 593.54 918.91 598.00 923.64 599.58 C 924.66 599.22 926.70 598.50 927.72 598.13 C 926.05 601.34 923.04 603.45 920.68 606.10 C 906.17 604.38 891.75 601.80 877.21 600.38 C 880.80 603.94 883.93 607.94 887.66 611.37 C 891.29 614.69 893.87 619.14 898.07 621.83 C 899.99 623.45 902.20 621.68 904.25 621.31 C 902.24 624.62 899.24 627.36 895.97 629.41 C 896.21 627.10 897.31 624.41 895.37 622.51 C 889.37 614.96 881.85 608.77 875.65 601.40 C 873.14 598.79 870.50 596.32 868.02 593.69 C 869.30 591.94 871.38 592.49 873.19 592.62 C 887.68 594.18 902.14 596.04 916.55 598.21 L 918.46 598.87 C 914.84 594.74 911.16 590.67 907.17 586.90 C 902.97 583.06 899.71 578.29 895.23 574.77 C 893.99 573.56 892.20 573.55 890.62 573.32 C 889.91 573.83 889.20 574.34 888.50 574.85 C 888.60 574.40 888.79 573.49 888.89 573.04 Z" />
<path fill="#ffffff" opacity="1.00" d=" M 486.89 581.11 C 488.96 580.02 490.96 578.81 492.94 577.55 C 494.46 578.83 496.45 579.15 498.24 579.91 C 506.56 583.90 512.89 592.62 512.52 602.05 C 511.45 615.77 497.72 627.81 483.83 625.46 C 475.76 624.56 469.11 618.56 465.53 611.53 C 464.64 609.47 462.91 608.02 460.81 607.32 C 463.09 604.44 465.77 601.94 468.36 599.35 C 469.11 598.50 470.06 598.00 471.21 597.87 C 468.33 601.85 467.37 606.78 468.12 611.61 C 469.17 615.70 472.51 619.20 476.48 620.59 C 484.49 622.71 492.66 618.80 498.21 613.11 C 502.93 608.34 507.16 602.00 506.52 595.00 C 506.50 588.37 501.44 582.03 494.88 580.81 C 491.89 579.80 489.03 581.60 486.39 582.78 C 486.52 582.36 486.77 581.52 486.89 581.11 Z" />
<path fill="#ffffff" opacity="1.00" d=" M 536.80 633.22 C 537.69 634.90 538.55 636.60 539.36 638.34 C 541.30 637.96 543.23 637.53 545.17 637.07 C 544.27 638.87 543.36 640.70 542.78 642.64 C 544.27 643.71 545.65 644.92 547.01 646.19 C 545.23 646.57 543.46 646.92 541.68 647.20 C 541.52 649.15 541.49 651.11 541.53 653.09 C 540.04 651.81 538.52 650.63 537.01 649.41 C 535.52 650.68 533.99 651.89 532.46 653.11 C 532.47 651.23 532.50 649.38 532.50 647.51 C 530.68 647.05 528.85 646.58 527.04 646.13 C 528.35 644.90 529.69 643.71 531.15 642.67 C 530.34 640.72 529.43 638.82 528.68 636.86 C 530.59 637.46 532.51 638.01 534.45 638.54 C 535.19 636.75 535.98 634.98 536.80 633.22 Z" />
<path fill="#ffffff" opacity="1.00" d=" M 850.11 632.85 C 851.00 634.55 851.88 636.27 852.76 637.99 C 854.62 637.46 856.48 636.91 858.35 636.37 C 857.63 638.20 856.77 639.97 855.89 641.73 C 857.44 643.01 858.98 644.30 860.41 645.75 C 858.60 646.12 856.80 646.50 855.00 646.85 C 854.99 648.68 855.00 650.52 854.99 652.36 C 853.22 651.26 851.58 649.99 849.85 648.87 C 848.57 650.20 847.29 651.59 845.57 652.35 C 845.37 650.51 845.80 648.56 845.20 646.80 C 843.50 646.28 841.73 645.98 840.01 645.68 C 841.48 644.41 843.01 643.20 844.46 641.90 C 843.52 640.05 842.59 638.19 841.71 636.33 C 843.63 636.88 845.59 637.46 847.53 638.02 C 848.36 636.28 849.21 634.55 850.11 632.85 Z" />
<path fill="#ffffff" opacity="1.00" d=" M 792.37 642.58 C 794.55 646.96 796.27 651.66 797.18 656.48 C 793.68 653.73 791.38 649.42 786.93 647.97 C 779.88 644.67 771.52 649.90 769.64 657.03 C 766.31 668.36 770.72 681.91 780.50 688.72 C 787.49 692.70 798.35 690.31 801.54 682.45 C 802.61 680.13 802.53 677.56 802.50 675.08 C 802.76 675.06 803.26 675.02 803.51 675.00 C 803.49 677.15 803.49 679.30 803.52 681.45 C 799.44 694.16 781.77 697.70 771.46 690.62 C 762.07 683.05 758.71 668.76 763.80 657.83 C 768.42 648.98 779.10 643.67 788.91 645.48 C 790.86 646.00 791.81 644.03 792.37 642.58 Z" />
<path fill="#ffffff" opacity="1.00" d=" M 588.41 651.40 C 597.42 645.13 610.37 646.71 618.34 653.97 C 619.65 655.43 621.56 654.77 623.24 654.48 C 622.24 658.96 621.08 663.43 619.60 667.78 L 618.45 667.25 C 618.56 662.17 617.77 656.66 614.06 652.89 C 609.50 648.95 602.63 648.48 597.56 651.74 C 588.13 658.16 583.50 670.34 585.23 681.49 C 586.50 688.04 592.21 692.37 598.38 693.97 C 604.21 695.01 610.91 692.86 613.12 686.91 C 613.53 686.77 614.34 686.51 614.75 686.37 C 613.46 689.59 611.43 692.69 608.16 694.17 C 602.11 697.42 594.69 696.08 588.87 692.98 C 581.16 689.45 576.07 680.76 577.16 672.30 C 578.06 664.32 581.65 656.08 588.41 651.40 Z" />
<path fill="#ffffff" opacity="1.00" d=" M 653.38 661.95 C 657.09 658.81 662.57 658.17 666.88 660.47 C 669.17 661.31 671.98 664.45 674.05 661.44 C 673.82 665.72 674.41 670.44 672.52 674.37 C 671.35 670.51 670.94 666.09 667.91 663.13 C 665.05 659.60 659.02 659.56 656.14 663.07 C 654.04 665.09 653.31 668.49 654.63 671.14 C 655.99 675.24 660.30 677.05 663.65 679.23 C 668.67 682.10 674.04 686.62 674.03 692.92 C 674.44 697.28 672.68 701.73 669.27 704.50 C 664.79 708.59 658.17 707.80 652.70 706.86 C 655.59 705.06 659.24 706.84 662.18 705.18 C 667.31 702.42 668.54 694.80 664.73 690.47 C 661.30 686.26 655.75 684.76 652.07 680.86 C 646.41 676.05 647.62 666.19 653.38 661.95 Z" />
<path fill="#ffffff" opacity="1.00" d=" M 712.10 660.40 C 716.44 657.89 721.25 659.95 725.62 660.96 C 726.16 660.52 727.24 659.63 727.78 659.18 C 728.58 663.56 729.59 667.95 729.48 672.43 C 726.72 668.99 725.73 663.89 721.49 661.69 C 718.78 659.87 714.89 660.08 712.45 662.26 C 709.37 664.75 709.24 669.60 711.20 672.82 C 714.95 677.90 721.83 678.14 726.94 681.18 C 730.75 682.77 732.86 686.58 733.98 690.36 C 734.25 694.70 734.10 699.56 730.88 702.88 C 725.93 708.79 717.20 708.64 710.47 706.36 C 708.80 705.43 707.43 707.03 706.05 707.71 C 705.81 703.08 705.23 698.47 704.99 693.84 C 707.94 697.04 708.91 701.73 712.63 704.33 C 716.78 708.16 724.28 706.68 726.55 701.49 C 728.49 697.75 727.49 693.25 724.98 690.07 C 719.84 685.67 712.42 685.22 707.61 680.39 C 702.22 674.39 704.36 663.34 712.10 660.40 Z" />
<path fill="#ffffff" opacity="1.00" d=" M 817.71 673.53 C 819.48 669.55 826.34 671.62 825.54 675.95 C 825.41 678.86 822.22 679.82 819.79 679.64 C 818.24 678.07 815.77 675.81 817.71 673.53 Z" />
<path fill="#ffffff" opacity="1.00" d=" M 643.55 704.61 C 644.43 700.05 643.66 695.13 645.55 690.82 C 647.40 696.03 648.00 703.17 654.13 705.25 C 653.32 705.60 652.51 705.95 651.71 706.30 C 649.40 704.50 646.42 702.63 643.55 704.61 Z" />
<path fill="#ffffff" opacity="1.00" d=" M 622.83 699.84 C 622.67 697.71 623.65 695.94 625.07 694.46 C 626.29 694.46 627.52 694.47 628.75 694.49 C 629.50 695.24 630.26 696.00 631.02 696.77 C 631.02 697.63 631.01 699.37 631.00 700.24 C 630.22 701.03 629.44 701.83 628.67 702.64 C 626.27 702.74 624.10 701.96 622.83 699.84 Z" />
<path fill="#ffffff" opacity="1.00" d=" M 749.16 695.16 C 751.15 693.45 754.17 695.01 755.12 697.15 C 756.45 699.67 753.90 703.14 751.03 702.54 C 747.02 703.00 746.21 696.98 749.16 695.16 Z" />
<path fill="#ffffff" opacity="1.00" d=" M 688.04 709.03 C 684.26 707.23 684.61 700.88 689.21 700.64 C 693.80 700.42 695.09 707.20 690.97 709.03 C 690.24 709.03 688.77 709.03 688.04 709.03 Z" />
</g>
</svg>
