<?xml version="1.0" encoding="UTF-8" ?>
<!DOCTYPE svg PUBLIC "-//W3C//DTD SVG 1.1//EN" "http://www.w3.org/Graphics/SVG/1.1/DTD/svg11.dtd">
<svg width="1203pt" height="709pt" viewBox="0 0 1203 709" version="1.1" xmlns="http://www.w3.org/2000/svg">
<g id="#fefefefe">
<path fill="#fefefe" opacity="1.00" d=" M 260.96 151.58 C 265.17 151.38 269.29 150.33 273.50 150.13 C 272.49 153.02 270.77 155.81 271.30 159.00 C 271.16 164.25 274.83 168.28 278.12 171.90 C 317.33 217.37 356.40 262.96 395.56 308.47 C 397.11 310.37 398.75 312.22 400.68 313.75 C 401.27 299.50 400.06 285.18 401.49 270.99 C 401.43 238.67 401.53 206.34 401.44 174.01 C 400.79 168.50 400.26 162.13 395.60 158.37 C 393.11 155.32 388.75 155.49 385.90 152.98 C 395.92 152.54 405.96 152.93 415.99 152.78 C 420.46 152.59 424.86 151.40 429.36 151.73 C 427.81 154.53 424.32 154.46 421.74 155.75 C 419.44 156.95 416.96 158.46 416.00 161.00 C 411.12 174.53 414.57 189.07 412.63 203.00 C 412.58 224.32 412.64 245.64 412.61 266.96 C 411.33 277.59 412.14 288.32 411.92 299.00 C 411.89 313.31 411.97 327.63 411.88 341.94 C 411.24 346.30 411.41 350.70 411.27 355.10 C 388.24 328.31 365.63 301.16 342.76 274.24 C 314.97 242.78 288.86 209.85 260.84 178.60 C 260.42 192.38 261.41 206.22 260.19 219.96 C 260.21 246.97 260.19 273.98 260.20 301.00 C 260.24 306.04 259.94 311.11 260.72 316.11 C 260.70 324.70 260.96 333.31 262.24 341.81 C 264.12 348.13 270.88 350.86 276.68 352.52 C 273.85 354.68 270.19 353.03 267.00 352.96 C 259.99 352.76 252.97 352.85 245.96 352.91 C 241.70 353.39 237.41 353.96 233.13 353.33 C 236.93 350.93 241.99 350.67 244.90 346.90 C 248.95 342.62 248.38 336.45 249.07 331.04 C 249.19 314.01 249.09 296.98 249.11 279.96 C 249.08 277.30 249.71 274.69 249.64 272.03 C 249.62 254.68 249.64 237.34 249.63 219.99 C 249.61 217.31 250.41 214.69 250.29 212.01 C 250.22 196.35 250.35 180.69 250.23 165.03 C 247.84 157.43 239.31 154.93 232.76 152.04 C 235.68 150.36 238.86 151.73 241.97 151.59 C 248.30 151.56 254.63 151.60 260.96 151.58 Z" />
<path fill="#fefefe" opacity="1.00" d=" M 454.76 152.26 C 471.32 153.91 488.04 154.07 504.53 151.64 C 502.17 154.28 498.53 154.86 495.59 156.59 C 491.91 159.22 488.71 163.21 488.82 167.97 C 489.14 172.66 488.08 177.27 488.24 181.96 C 488.26 204.99 488.26 228.03 488.24 251.06 C 489.36 264.66 488.60 278.35 488.82 292.00 C 489.05 301.67 488.24 311.39 489.46 321.00 C 489.56 329.21 489.04 337.52 490.63 345.61 C 492.08 350.01 496.79 351.63 500.00 354.46 C 491.37 355.14 482.65 352.36 474.01 354.07 C 468.56 354.34 463.08 354.31 457.63 354.03 C 461.20 351.79 466.08 351.30 468.41 347.41 C 469.66 343.70 470.32 339.79 470.80 335.92 C 470.85 282.61 470.80 229.31 470.83 176.00 C 470.70 172.44 470.06 168.92 469.38 165.43 C 468.61 161.52 465.54 158.78 462.87 156.09 C 460.37 154.41 457.00 154.46 454.76 152.26 Z" />
<path fill="#fefefe" opacity="1.00" d=" M 612.62 150.91 C 638.08 150.99 663.55 150.65 688.99 151.08 C 688.19 162.04 685.86 172.83 684.55 183.73 C 677.92 229.51 671.29 275.29 664.67 321.08 C 659.98 352.17 655.93 383.38 650.90 414.42 C 637.92 326.61 625.34 238.75 612.62 150.91 Z" />
<path fill="#fefefe" opacity="1.00" d=" M 840.85 151.52 C 847.51 150.47 854.27 151.02 861.00 150.89 C 864.73 151.00 868.63 150.41 872.23 151.77 C 876.23 156.44 876.95 163.01 877.32 168.92 C 874.16 166.05 871.99 161.81 867.72 160.41 C 861.71 158.29 855.23 159.28 849.00 159.11 C 838.77 160.46 828.38 158.82 818.17 160.10 C 817.47 179.71 818.06 199.37 817.87 219.00 C 818.10 227.08 817.16 235.26 818.83 243.24 C 823.55 243.31 828.31 243.51 832.99 242.70 C 843.45 242.43 853.97 243.28 864.35 241.56 C 871.19 241.53 875.99 235.72 879.07 230.26 C 879.58 233.52 879.06 236.76 878.66 239.99 C 878.64 247.12 878.52 254.25 878.77 261.38 C 877.78 259.14 876.91 256.61 874.70 255.28 C 869.59 252.20 863.47 252.17 857.74 251.41 C 846.37 251.19 834.98 251.16 823.68 252.47 C 821.74 252.87 818.94 251.76 818.04 254.14 C 817.35 267.39 818.59 280.74 817.29 293.96 C 817.46 300.67 816.85 307.42 817.81 314.08 C 818.04 320.70 817.65 327.33 817.97 333.94 C 818.59 337.51 818.54 341.13 818.67 344.74 C 837.47 344.81 856.30 345.28 875.05 344.04 C 881.26 343.08 888.22 343.50 893.43 339.39 C 897.77 336.46 900.00 331.62 903.12 327.61 C 903.69 330.65 902.30 333.55 901.58 336.45 C 900.04 341.06 898.66 345.85 896.08 350.01 C 893.06 353.22 888.36 354.57 884.03 354.23 C 873.36 353.95 862.62 354.83 852.00 353.57 C 834.00 353.56 816.00 353.58 798.00 353.56 C 794.14 353.51 790.17 355.16 786.45 353.41 C 791.63 350.71 797.24 347.34 799.09 341.41 C 801.25 328.37 800.37 315.15 800.54 302.00 C 800.54 267.33 800.54 232.67 800.54 198.00 C 800.27 186.95 801.41 175.75 799.13 164.85 C 798.57 161.89 797.07 159.17 795.07 156.95 C 792.91 155.02 790.19 153.84 788.10 151.83 C 805.66 151.21 823.27 151.82 840.85 151.52 Z" />
<path fill="#fefefe" opacity="1.00" d=" M 1076.70 152.89 C 1091.17 153.02 1105.55 151.76 1119.96 150.88 C 1132.40 150.72 1145.18 150.57 1157.01 155.01 C 1165.90 157.74 1173.06 164.07 1178.85 171.13 C 1191.92 189.29 1191.22 215.48 1178.86 233.82 C 1171.50 244.05 1160.08 251.16 1147.78 253.72 C 1140.28 254.92 1132.66 255.48 1125.08 254.97 C 1121.30 254.37 1117.35 254.72 1113.82 253.04 C 1116.25 250.98 1119.36 252.35 1122.16 252.51 C 1129.65 252.60 1137.36 253.17 1144.56 250.60 C 1155.40 247.77 1163.74 238.85 1167.63 228.57 C 1171.80 217.82 1172.08 205.92 1170.18 194.66 C 1167.60 182.71 1162.10 170.34 1151.39 163.60 C 1143.05 157.35 1132.17 155.72 1122.03 156.79 C 1117.04 157.41 1111.92 157.70 1107.15 159.36 C 1105.85 167.07 1107.46 175.24 1106.17 183.07 C 1106.08 232.73 1106.18 282.39 1106.12 332.05 C 1105.85 337.87 1107.41 344.16 1111.64 348.38 C 1113.95 350.76 1117.28 351.50 1120.37 352.34 C 1120.54 352.78 1120.87 353.64 1121.04 354.08 C 1109.18 354.89 1097.38 351.44 1085.52 353.31 C 1081.40 353.44 1077.31 354.55 1073.19 354.02 C 1077.92 350.78 1084.83 350.06 1087.66 344.48 C 1089.91 332.46 1087.97 320.12 1088.90 308.00 C 1089.47 305.03 1089.34 302.00 1089.34 299.00 C 1089.31 257.66 1089.37 216.31 1089.31 174.97 C 1088.88 171.01 1088.76 166.81 1086.66 163.29 C 1084.41 158.92 1080.34 156.01 1076.70 152.89 Z" />
<path fill="#fefefe" opacity="1.00" d=" M 17.31 152.35 C 23.90 152.21 30.53 151.89 37.08 152.76 C 44.01 153.41 50.81 151.32 57.72 151.63 C 53.49 154.58 50.36 159.11 49.56 164.25 C 49.19 172.16 50.01 180.12 48.84 187.98 C 48.80 220.33 48.85 252.67 48.82 285.01 C 50.10 305.56 58.85 326.78 76.13 338.87 C 88.73 347.78 104.71 352.34 120.08 349.90 C 138.74 347.24 155.78 337.97 170.42 326.42 C 173.03 324.47 172.00 320.80 172.21 318.02 C 172.43 305.69 171.63 293.32 172.77 281.04 C 172.75 262.69 172.78 244.34 172.75 225.99 C 172.69 223.30 173.47 220.68 173.41 218.00 C 173.38 200.98 173.43 183.95 173.40 166.93 C 172.91 162.34 170.02 158.31 166.41 155.57 C 164.19 154.27 161.54 153.73 159.70 151.83 C 162.48 151.28 165.24 151.82 168.00 152.17 C 180.07 152.41 192.16 151.98 204.23 152.38 C 202.15 154.37 199.34 155.35 197.21 157.24 C 191.68 163.77 191.18 172.83 191.40 181.00 C 191.18 189.33 191.95 197.71 190.78 205.99 C 190.49 221.31 191.32 236.67 190.19 251.95 C 189.93 265.96 190.88 280.04 189.52 294.00 C 189.56 307.67 189.51 321.34 189.54 335.01 C 190.03 340.48 190.80 346.87 195.48 350.47 C 197.92 352.14 200.74 353.13 203.27 354.66 C 196.52 354.93 189.80 353.89 183.06 353.55 C 176.15 353.70 169.21 353.16 162.35 354.17 C 164.37 351.30 167.58 349.34 168.89 345.97 C 170.89 341.32 172.04 336.06 171.20 331.01 C 154.00 344.26 133.63 354.10 111.89 356.61 C 107.08 356.78 102.27 357.95 97.47 356.95 C 81.18 355.79 64.37 350.19 52.90 338.10 C 42.60 328.04 35.62 314.52 33.80 300.21 C 31.27 280.58 32.41 260.74 32.16 240.99 C 33.09 233.70 32.61 226.33 32.72 218.99 C 33.98 208.72 33.10 198.33 33.38 188.00 C 33.63 184.31 32.51 180.71 32.71 177.02 C 32.77 171.77 32.95 165.88 29.51 161.54 C 26.59 157.19 21.68 154.91 17.31 152.35 Z" />
<path fill="#fefefe" opacity="1.00" d=" M 953.03 166.04 C 959.98 158.41 969.79 153.68 979.92 152.09 C 996.37 149.83 1012.83 153.69 1028.48 158.56 C 1029.39 166.26 1030.16 174.37 1027.79 181.88 C 1023.49 174.59 1018.05 167.81 1010.95 163.09 C 1006.38 160.00 1000.93 158.63 995.53 157.96 C 985.38 155.91 974.56 158.37 965.88 163.89 C 959.13 168.65 953.36 175.60 952.16 183.99 C 950.44 192.27 951.69 201.10 955.26 208.74 C 959.27 214.89 964.53 220.13 970.12 224.87 C 977.97 232.85 987.51 238.86 996.42 245.55 C 1007.68 253.92 1019.17 262.07 1029.41 271.66 C 1044.17 290.25 1042.77 318.80 1027.87 336.90 C 1021.22 344.95 1012.30 351.63 1001.91 353.75 C 992.16 356.44 981.91 356.66 971.93 355.44 C 961.33 354.38 950.77 352.81 940.19 351.67 C 939.01 340.81 938.28 329.89 937.58 319.00 C 941.06 319.93 940.74 323.94 941.69 326.69 C 944.67 337.25 954.32 344.54 964.49 347.58 C 973.01 350.15 981.97 349.98 990.77 349.71 C 999.75 348.89 1008.16 344.75 1014.93 338.91 C 1021.85 332.17 1026.07 322.71 1026.22 313.02 C 1026.21 303.42 1022.65 293.89 1016.47 286.56 C 1009.20 277.39 999.28 270.98 990.21 263.78 C 978.04 254.34 964.78 246.11 954.14 234.85 C 947.86 228.18 942.79 220.13 940.66 211.14 C 937.88 195.35 941.34 177.62 953.03 166.04 Z" />
<path fill="#fefefe" opacity="1.00" d=" M 221.19 416.74 C 222.40 416.74 223.61 416.74 224.82 416.74 C 224.81 429.14 224.86 441.54 224.80 453.94 C 223.69 453.90 222.58 453.87 221.48 453.83 C 221.36 452.95 221.12 451.19 221.00 450.32 C 218.13 452.97 214.01 455.70 209.99 454.03 C 205.94 453.12 203.70 448.88 203.22 445.07 C 203.24 440.91 202.48 436.40 204.77 432.67 C 206.42 429.31 210.31 427.65 213.93 427.86 C 216.65 428.17 218.83 429.99 221.14 431.30 C 221.22 426.45 221.17 421.59 221.19 416.74 M 210.46 432.31 C 206.95 435.06 207.27 439.90 207.46 443.89 C 207.46 446.64 208.96 449.40 211.44 450.68 C 216.90 452.04 222.46 446.49 221.22 441.00 C 222.73 435.19 215.74 429.33 210.46 432.31 Z" />
<path fill="#fefefe" opacity="1.00" d=" M 467.77 416.65 C 469.21 416.40 470.68 416.39 472.14 416.64 C 472.16 429.05 472.13 441.46 472.16 453.88 C 470.68 453.88 469.21 453.88 467.75 453.90 C 467.77 441.48 467.73 429.06 467.77 416.65 Z" />
<path fill="#fefefe" opacity="1.00" d=" M 276.87 416.75 C 278.12 416.75 279.38 416.76 280.64 416.77 C 280.63 429.13 280.60 441.48 280.65 453.84 C 279.89 453.87 278.37 453.95 277.61 453.98 C 277.54 452.57 277.46 451.17 277.37 449.77 C 274.36 452.55 270.22 455.76 265.90 454.07 C 261.39 453.16 259.13 448.25 258.89 444.06 C 258.75 439.57 258.66 434.43 261.85 430.87 C 263.54 428.67 266.43 427.97 269.06 427.84 C 272.03 427.83 274.41 429.85 276.84 431.29 C 276.86 426.44 276.82 421.60 276.87 416.75 M 263.43 445.64 C 264.20 447.69 265.74 449.30 267.17 450.91 C 269.88 451.13 272.51 450.37 274.54 448.52 C 278.46 445.63 276.31 440.22 276.84 436.12 C 274.34 433.37 271.25 430.40 267.20 431.81 C 262.38 434.67 263.06 440.87 263.43 445.64 Z" />
<path fill="#fefefe" opacity="1.00" d=" M 86.23 418.35 C 87.74 418.27 89.24 418.26 90.75 418.32 C 90.83 419.81 90.84 421.30 90.82 422.80 C 89.27 422.84 87.72 422.83 86.18 422.78 C 86.15 421.30 86.16 419.82 86.23 418.35 Z" />
<path fill="#fefefe" opacity="1.00" d=" M 191.49 418.42 C 193.10 418.32 194.96 417.65 196.19 419.10 C 196.30 420.31 196.34 421.52 196.31 422.75 C 194.65 422.83 193.00 422.89 191.35 422.93 C 191.38 421.42 191.42 419.92 191.49 418.42 Z" />
<path fill="#fefefe" opacity="1.00" d=" M 360.80 422.78 C 360.37 420.92 360.65 418.08 363.16 418.17 C 365.95 417.34 366.65 420.87 365.66 422.81 C 364.04 422.85 362.42 422.83 360.80 422.78 Z" />
<path fill="#fefefe" opacity="1.00" d=" M 22.26 419.20 C 23.68 419.19 25.11 419.20 26.53 419.23 C 26.62 427.49 26.39 435.77 26.63 444.03 C 27.43 450.83 36.88 452.96 41.40 448.44 C 43.13 446.40 44.01 443.70 43.87 441.03 C 43.85 433.77 43.86 426.51 43.85 419.24 C 45.32 419.22 46.78 419.21 48.24 419.22 C 48.27 426.16 48.23 433.10 48.28 440.04 C 48.47 443.89 47.22 447.79 44.89 450.86 C 40.19 454.99 32.81 455.75 27.41 452.54 C 24.05 450.71 22.07 446.78 22.21 443.01 C 22.25 435.07 22.19 427.14 22.26 419.20 Z" />
<path fill="#fefefe" opacity="1.00" d=" M 326.33 419.24 C 327.87 419.21 329.41 419.23 330.96 419.29 C 334.81 429.16 337.44 439.49 341.42 449.31 C 345.02 439.34 348.23 429.23 351.55 419.17 C 352.98 419.20 354.41 419.23 355.85 419.31 C 352.21 430.92 347.79 442.27 344.01 453.83 C 342.17 453.87 340.33 453.89 338.50 453.92 C 334.47 442.35 330.33 430.82 326.33 419.24 Z" />
<path fill="#fefefe" opacity="1.00" d=" M 394.61 421.75 C 395.85 421.72 397.09 421.71 398.33 421.70 C 398.37 423.94 398.38 426.19 398.51 428.44 C 400.95 428.55 403.38 428.55 405.82 428.58 C 405.81 429.35 405.77 430.88 405.76 431.65 C 403.33 431.63 400.91 431.63 398.49 431.76 C 398.68 437.63 397.38 443.83 399.52 449.46 C 400.95 451.76 403.78 450.47 405.89 450.22 C 405.80 451.35 405.72 452.48 405.64 453.62 C 402.70 454.45 399.58 454.82 396.82 453.23 C 395.47 451.88 394.51 449.97 394.63 448.04 C 394.61 442.58 394.64 437.13 394.65 431.68 C 393.20 431.65 391.76 431.64 390.32 431.63 C 390.31 430.60 390.30 429.57 390.29 428.56 C 391.73 428.55 393.18 428.54 394.63 428.54 C 394.64 426.27 394.64 424.01 394.61 421.75 Z" />
<path fill="#fefefe" opacity="1.00" d=" M 61.74 431.67 C 64.55 428.95 68.55 426.68 72.53 428.30 C 75.97 429.19 77.46 432.93 77.88 436.13 C 78.00 442.05 77.86 447.97 77.93 453.89 C 76.50 453.89 75.07 453.90 73.65 453.91 C 73.61 448.29 73.70 442.67 73.63 437.06 C 73.73 434.43 71.92 431.40 68.99 431.61 C 65.53 430.94 63.53 434.24 61.26 436.19 C 61.27 442.09 61.25 447.99 61.27 453.89 C 60.33 453.89 58.46 453.91 57.52 453.91 C 57.57 445.37 57.40 436.82 57.61 428.28 C 59.95 428.22 61.50 429.27 61.74 431.67 Z" />
<path fill="#fefefe" opacity="1.00" d=" M 123.38 434.46 C 126.01 427.29 136.86 425.46 141.78 431.22 C 144.48 433.87 144.30 438.03 144.35 441.53 C 138.33 441.65 132.30 441.34 126.28 441.73 C 126.83 444.90 127.33 448.78 130.61 450.32 C 134.73 451.63 139.15 450.62 143.10 449.16 C 142.99 450.38 142.88 451.62 142.76 452.85 C 137.17 454.76 130.41 455.55 125.51 451.54 C 121.56 446.85 121.40 440.03 123.38 434.46 M 131.35 431.27 C 128.19 432.56 126.72 435.84 126.45 439.07 C 131.00 439.16 135.55 439.13 140.11 439.10 C 139.89 437.34 139.84 435.52 139.16 433.86 C 137.68 431.13 134.10 430.69 131.35 431.27 Z" />
<path fill="#fefefe" opacity="1.00" d=" M 159.57 428.43 C 161.33 427.15 163.51 428.27 165.41 428.56 C 165.38 429.54 165.33 431.51 165.30 432.50 C 163.84 432.15 162.37 431.81 160.91 431.47 C 158.72 433.06 156.63 434.91 155.59 437.47 C 155.24 442.94 155.55 448.43 155.45 453.91 C 154.51 453.90 152.64 453.89 151.70 453.89 C 151.72 445.44 151.71 437.00 151.71 428.56 C 152.63 428.56 154.47 428.55 155.40 428.55 C 155.44 429.85 155.50 431.17 155.56 432.49 C 156.75 431.00 157.84 429.34 159.57 428.43 Z" />
<path fill="#fefefe" opacity="1.00" d=" M 171.02 429.96 C 173.81 427.47 177.91 427.35 181.29 428.55 C 183.63 428.56 183.43 430.93 183.84 432.62 C 180.72 431.86 176.96 429.81 173.99 432.03 C 172.34 432.89 172.40 435.18 173.17 436.62 C 176.22 439.90 182.05 439.45 184.21 443.76 C 185.17 446.35 185.23 450.00 182.78 451.81 C 179.19 455.44 173.46 454.80 169.10 453.05 C 167.41 452.17 167.90 450.20 167.73 448.66 C 171.11 450.20 174.81 451.71 178.56 450.50 C 181.28 449.63 181.61 445.27 179.00 444.02 C 175.68 442.00 170.93 441.60 169.10 437.74 C 167.65 435.11 168.72 431.71 171.02 429.96 Z" />
<path fill="#fefefe" opacity="1.00" d=" M 233.34 433.74 C 232.24 429.39 237.05 428.63 240.18 428.01 C 244.55 427.22 250.34 428.44 251.43 433.46 C 251.67 440.25 251.40 447.05 251.54 453.84 C 250.78 453.88 249.24 453.94 248.48 453.98 C 248.45 453.22 248.40 451.69 248.37 450.93 C 245.16 453.18 241.19 455.68 237.16 454.01 C 231.05 452.95 230.30 443.20 235.69 440.74 C 239.58 439.11 243.87 439.14 248.00 438.79 C 247.68 436.30 247.57 433.12 244.96 431.86 C 241.06 429.77 237.00 432.43 233.34 433.74 M 237.26 444.35 C 235.12 446.34 236.28 450.52 239.27 450.88 C 242.44 452.62 245.34 449.52 247.71 447.75 C 247.74 445.91 247.77 444.06 247.80 442.22 C 244.28 442.52 239.72 440.98 237.26 444.35 Z" />
<path fill="#fefefe" opacity="1.00" d=" M 294.02 428.92 C 298.48 426.96 304.34 427.48 307.66 431.26 C 310.02 434.21 309.89 437.98 309.75 441.56 C 304.18 441.61 298.60 441.40 293.04 441.65 C 291.07 444.70 293.59 448.87 296.45 450.44 C 300.63 451.51 305.08 450.72 309.05 449.14 C 309.10 449.89 309.21 451.40 309.26 452.15 C 303.91 454.74 297.06 455.83 292.00 452.04 C 287.61 448.48 287.79 442.37 288.22 437.28 C 288.88 433.85 290.95 430.64 294.02 428.92 M 292.08 438.77 C 296.80 439.33 301.58 439.23 306.31 438.88 C 305.66 435.51 304.16 430.94 299.95 431.05 C 295.50 430.54 292.30 434.66 292.08 438.77 Z" />
<path fill="#fefefe" opacity="1.00" d=" M 378.17 432.36 C 380.02 428.98 383.69 427.30 387.48 427.86 C 387.65 429.20 387.81 430.56 387.96 431.92 C 386.37 431.92 384.73 431.42 383.18 431.93 C 381.05 433.56 378.94 435.52 377.96 438.09 C 377.72 443.35 377.95 448.63 377.87 453.90 C 376.65 453.89 375.43 453.88 374.22 453.89 C 374.25 445.40 374.17 436.92 374.26 428.44 C 375.43 428.49 376.60 428.58 377.78 428.72 C 377.88 429.63 378.07 431.45 378.17 432.36 Z" />
<path fill="#fefefe" opacity="1.00" d=" M 441.13 430.38 C 445.56 427.81 451.25 426.83 456.00 429.12 C 458.51 430.36 459.20 433.33 459.18 435.91 C 459.19 441.89 459.15 447.86 459.17 453.84 C 458.43 453.87 456.95 453.93 456.20 453.96 C 456.14 453.21 456.01 451.73 455.95 450.99 C 452.78 453.15 448.85 455.64 444.90 454.03 C 438.81 453.18 437.88 443.78 442.88 440.95 C 446.81 439.12 451.24 439.03 455.49 439.08 C 455.47 436.35 455.17 432.74 452.18 431.66 C 448.43 429.92 444.71 432.42 441.36 433.86 C 441.26 432.70 441.19 431.54 441.13 430.38 M 445.58 443.54 C 443.62 444.74 443.97 447.42 444.54 449.31 C 445.63 450.67 447.46 450.98 448.98 451.70 C 451.31 450.70 453.45 449.35 455.38 447.71 C 455.38 445.87 455.38 444.04 455.40 442.21 C 452.13 442.38 448.42 441.47 445.58 443.54 Z" />
<path fill="#fefefe" opacity="1.00" d=" M 86.64 428.55 C 87.58 428.55 89.44 428.55 90.38 428.55 C 90.38 437.00 90.37 445.45 90.38 453.90 C 89.45 453.90 87.58 453.90 86.64 453.89 C 86.65 445.45 86.65 437.00 86.64 428.55 Z" />
<path fill="#fefefe" opacity="1.00" d=" M 95.87 428.52 C 97.38 428.81 99.40 427.92 100.57 429.17 C 103.11 435.91 104.78 442.98 107.81 449.53 C 110.21 442.54 112.53 435.52 114.83 428.50 C 116.26 428.53 117.69 428.58 119.12 428.63 C 116.24 437.11 113.21 445.55 110.04 453.92 C 108.26 453.70 106.22 454.37 104.62 453.45 C 101.79 445.11 98.61 436.89 95.87 428.52 Z" />
<path fill="#fefefe" opacity="1.00" d=" M 191.62 428.69 C 192.63 428.63 194.66 428.52 195.67 428.46 C 195.77 436.95 195.68 445.44 195.72 453.93 C 194.41 453.89 193.10 453.84 191.79 453.79 C 191.98 445.43 192.46 437.04 191.62 428.69 Z" />
<path fill="#fefefe" opacity="1.00" d=" M 361.17 428.59 C 362.61 428.55 364.05 428.53 365.49 428.51 C 365.57 436.97 365.48 445.43 365.54 453.90 C 364.09 453.89 362.65 453.89 361.21 453.90 C 361.18 445.46 361.25 437.02 361.17 428.59 Z" />
<path fill="#fefefe" opacity="1.00" d=" M 411.92 428.58 C 413.39 428.56 414.86 428.54 416.34 428.54 C 416.36 434.01 416.32 439.48 416.33 444.95 C 416.16 447.99 418.47 451.56 421.91 450.85 C 424.61 450.13 427.45 448.31 428.59 445.64 C 428.91 439.95 428.61 434.24 428.72 428.55 C 429.65 428.55 431.52 428.55 432.46 428.55 C 432.45 437.04 432.48 445.53 432.44 454.03 C 431.53 453.93 429.71 453.74 428.80 453.65 C 428.77 452.47 428.75 451.31 428.75 450.14 C 425.76 453.01 421.38 455.86 417.15 453.88 C 413.35 452.85 412.15 448.50 411.94 445.04 C 411.85 439.55 411.94 434.06 411.92 428.58 Z" />
<path fill="#fefefe" opacity="1.00" d=" M 38.31 484.32 C 39.57 484.32 40.83 484.32 42.09 484.33 C 41.85 497.01 42.77 509.78 41.58 522.41 C 39.53 522.05 38.02 521.00 37.80 518.81 C 35.16 520.54 32.36 522.67 29.00 522.19 C 23.27 522.30 19.87 516.17 20.32 511.03 C 20.06 506.12 20.31 499.94 25.11 497.17 C 29.40 494.17 34.74 496.34 38.26 499.49 C 38.39 494.43 38.32 489.38 38.31 484.32 M 29.33 499.27 C 24.78 501.21 23.85 506.92 24.50 511.30 C 24.68 514.66 26.62 518.49 30.32 518.91 C 34.60 518.49 39.04 514.64 38.36 510.05 C 38.14 507.67 39.05 504.78 37.10 502.93 C 35.16 500.77 32.41 498.70 29.33 499.27 Z" />
<path fill="#fefefe" opacity="1.00" d=" M 202.15 484.42 C 203.48 484.40 204.82 484.40 206.17 484.44 C 206.37 496.86 206.26 509.28 206.22 521.70 C 205.39 521.85 203.72 522.14 202.88 522.29 C 202.66 520.85 202.44 519.41 202.23 517.99 C 199.47 521.14 195.28 523.21 191.07 521.88 C 185.52 520.53 183.93 514.01 183.85 509.04 C 184.20 504.06 185.69 497.59 191.31 496.25 C 195.10 494.68 199.02 496.70 201.95 499.09 C 201.86 494.20 201.64 489.29 202.15 484.42 M 193.41 499.37 C 189.19 500.82 188.09 505.93 188.27 509.89 C 188.49 513.60 189.75 518.52 194.24 518.80 C 198.06 518.76 202.64 515.33 201.88 511.05 C 201.75 508.53 202.21 505.91 201.54 503.46 C 199.53 501.20 196.71 498.47 193.41 499.37 Z" />
<path fill="#fefefe" opacity="1.00" d=" M 273.25 484.21 C 274.65 484.30 276.04 484.39 277.44 484.52 C 277.64 496.82 277.49 509.13 277.52 521.43 C 276.46 521.70 275.41 521.96 274.35 522.24 C 274.04 520.84 273.74 519.45 273.45 518.06 C 270.52 520.89 266.46 523.17 262.28 521.88 C 258.18 521.06 256.06 516.82 255.42 513.05 C 254.71 507.48 255.08 500.69 260.09 497.11 C 264.30 494.52 269.64 496.07 273.20 499.10 C 273.23 494.14 273.16 489.18 273.25 484.21 M 263.69 499.69 C 260.23 501.22 259.19 505.53 259.51 509.00 C 259.18 512.73 260.23 517.50 264.35 518.66 C 268.03 519.54 270.84 516.15 273.19 513.82 C 273.17 510.57 273.35 507.32 273.13 504.09 C 271.13 501.15 267.45 497.94 263.69 499.69 Z" />
<path fill="#fefefe" opacity="1.00" d=" M 503.73 484.23 C 505.09 484.30 506.46 484.39 507.83 484.49 C 508.48 493.64 507.97 502.83 508.13 512.00 C 507.96 515.17 508.58 518.46 507.67 521.55 C 506.40 521.86 505.14 522.12 503.86 522.33 C 503.52 509.64 503.76 496.93 503.73 484.23 Z" />
<path fill="#fefefe" opacity="1.00" d=" M 351.56 491.54 C 352.02 489.10 352.82 485.42 355.97 485.52 C 359.61 484.89 362.07 488.09 365.28 489.15 C 366.44 487.49 366.97 484.46 369.64 485.68 C 369.44 487.29 369.19 488.94 368.44 490.40 C 366.97 492.13 364.44 491.79 362.43 491.69 C 360.52 490.85 359.15 488.80 357.03 488.61 C 355.02 488.09 355.06 490.69 354.52 491.90 C 353.78 491.81 352.30 491.63 351.56 491.54 Z" />
<path fill="#fefefe" opacity="1.00" d=" M 93.60 486.85 C 99.79 486.69 105.98 486.78 112.17 486.80 C 112.12 488.03 112.06 489.27 112.01 490.52 C 107.27 490.50 102.53 490.50 97.79 490.52 C 97.79 494.22 97.79 497.93 97.79 501.63 C 101.78 501.65 105.77 501.63 109.76 501.67 C 110.00 502.88 110.21 504.11 110.42 505.34 C 106.21 505.42 102.01 505.38 97.80 505.38 C 97.78 509.71 97.79 514.04 97.80 518.38 C 102.51 518.45 107.22 518.26 111.93 518.46 C 112.56 519.47 112.53 520.47 111.85 521.44 C 105.72 521.59 99.60 521.42 93.47 521.51 C 93.55 509.95 93.31 498.40 93.60 486.85 Z" />
<path fill="#fefefe" opacity="1.00" d=" M 324.58 495.02 C 324.93 490.29 329.29 486.52 333.99 486.57 C 337.08 486.55 340.89 486.70 343.17 489.02 C 343.19 489.93 343.24 491.75 343.27 492.66 C 339.96 491.18 336.22 488.89 332.53 490.41 C 330.23 490.97 328.87 493.55 329.20 495.79 C 330.53 501.07 336.94 501.34 340.68 504.28 C 346.72 507.29 346.52 516.63 341.10 520.19 C 336.09 523.39 329.34 522.44 324.20 519.90 C 324.14 518.47 324.11 517.04 324.10 515.62 C 327.59 517.06 331.08 519.04 335.02 518.41 C 339.36 518.84 342.61 512.66 339.53 509.47 C 336.94 505.97 332.10 505.84 328.95 503.08 C 326.44 501.19 324.38 498.28 324.58 495.02 Z" />
<path fill="#fefefe" opacity="1.00" d=" M 420.64 487.44 C 425.73 486.29 431.22 486.41 436.20 487.99 C 443.11 490.63 443.76 500.99 438.37 505.43 C 434.82 508.76 429.65 508.65 425.11 508.47 C 425.11 513.07 425.36 517.70 424.60 522.27 C 423.27 522.01 421.96 521.72 420.65 521.43 C 420.66 510.10 420.68 498.77 420.64 487.44 M 425.11 490.51 C 425.14 495.26 425.12 500.00 425.12 504.76 C 428.09 504.59 431.28 505.26 434.06 503.91 C 437.65 501.53 438.94 495.54 435.49 492.51 C 432.93 489.35 428.59 490.81 425.11 490.51 Z" />
<path fill="#fefefe" opacity="1.00" d=" M 141.78 489.86 C 143.24 489.84 144.70 489.84 146.17 489.85 C 146.17 491.93 146.18 494.02 146.19 496.11 C 148.54 496.11 150.89 496.12 153.24 496.22 C 153.26 497.07 153.30 498.78 153.32 499.64 C 150.94 499.76 148.56 499.78 146.18 499.77 C 146.45 505.93 145.47 512.22 146.95 518.28 C 149.31 518.70 151.68 518.46 154.05 518.40 C 153.56 519.47 153.10 520.56 152.47 521.57 C 149.14 522.87 143.80 522.42 142.74 518.36 C 141.07 512.32 142.01 505.99 141.78 499.82 C 140.43 499.76 139.08 499.69 137.74 499.61 C 137.75 498.78 137.78 497.12 137.80 496.29 C 139.12 496.19 140.45 496.10 141.78 496.03 C 141.77 493.97 141.77 491.91 141.78 489.86 Z" />
<path fill="#fefefe" opacity="1.00" d=" M 225.17 495.71 C 228.95 495.83 233.54 496.91 235.28 500.67 C 238.47 506.49 237.88 514.36 233.38 519.35 C 228.72 523.18 221.24 523.26 216.53 519.49 C 212.20 514.42 212.24 506.80 214.96 500.99 C 217.05 497.35 221.17 495.88 225.17 495.71 M 223.37 499.32 C 217.39 500.67 216.58 508.19 217.88 513.16 C 218.69 518.90 227.00 520.81 230.62 516.61 C 233.31 512.66 233.36 507.48 231.76 503.11 C 230.27 499.99 226.72 498.38 223.37 499.32 Z" />
<path fill="#fefefe" opacity="1.00" d=" M 57.32 496.29 C 61.01 495.24 65.05 495.81 68.46 497.50 C 72.06 500.08 73.39 504.74 73.15 508.99 C 73.05 513.32 71.84 518.42 67.61 520.51 C 62.03 523.57 53.34 522.86 50.39 516.52 C 47.71 509.49 48.80 498.55 57.32 496.29 M 59.35 499.28 C 53.16 500.76 52.49 508.72 54.12 513.80 C 55.20 519.66 63.80 520.49 67.00 516.01 C 69.26 512.69 68.92 508.36 68.38 504.60 C 67.49 500.59 63.24 498.32 59.35 499.28 Z" />
<path fill="#fefefe" opacity="1.00" d=" M 120.13 498.17 C 123.44 495.39 128.28 495.14 132.18 496.76 C 133.73 497.47 133.82 499.16 133.83 500.65 C 130.66 499.32 126.99 498.38 123.67 499.74 C 122.27 501.15 121.93 503.92 123.82 505.07 C 126.92 507.85 132.45 507.58 134.26 511.79 C 136.10 515.09 134.15 519.40 130.99 521.08 C 127.04 522.74 122.24 522.65 118.55 520.37 C 118.03 519.22 117.73 518.01 117.66 516.76 C 120.93 517.68 124.23 519.78 127.74 518.65 C 130.21 518.49 131.14 515.63 130.53 513.56 C 127.56 509.80 121.34 510.34 119.16 505.76 C 117.50 503.34 118.60 500.34 120.13 498.17 Z" />
<path fill="#fefefe" opacity="1.00" d=" M 158.83 498.21 C 162.80 495.66 168.02 495.11 172.49 496.53 C 176.43 497.67 177.15 502.42 177.18 505.93 C 177.02 511.39 177.56 516.91 176.71 522.33 C 174.70 522.46 173.46 521.29 172.79 519.48 C 169.39 521.91 164.74 523.37 160.86 521.15 C 156.01 519.10 156.02 510.84 160.88 508.82 C 164.49 506.60 168.81 507.33 172.82 507.25 C 172.79 504.56 173.21 501.08 170.29 499.67 C 166.22 498.08 162.08 500.15 158.42 501.85 C 158.52 500.94 158.73 499.12 158.83 498.21 M 163.88 510.88 C 160.21 512.36 161.01 518.88 165.17 518.93 C 168.11 519.47 170.67 517.76 172.75 515.90 C 172.76 513.81 172.76 511.73 172.75 509.65 C 169.78 509.71 166.63 509.64 163.88 510.88 Z" />
<path fill="#fefefe" opacity="1.00" d=" M 287.94 498.93 C 291.21 495.26 296.86 495.23 301.17 496.83 C 305.55 499.29 307.12 504.85 306.37 509.58 C 300.42 509.86 294.47 509.62 288.53 509.73 C 288.64 512.50 288.99 515.80 291.59 517.42 C 295.70 520.52 301.05 518.56 305.32 516.89 C 305.35 517.76 305.43 519.50 305.46 520.37 C 300.38 522.16 294.39 523.33 289.42 520.63 C 286.38 519.20 285.23 515.76 284.45 512.74 C 283.98 507.99 284.18 502.39 287.94 498.93 M 293.34 499.29 C 290.22 500.35 289.22 503.67 288.34 506.48 C 293.11 506.70 297.88 506.65 302.65 506.51 C 302.06 504.51 301.73 502.32 300.41 500.63 C 298.64 498.64 295.70 499.18 293.34 499.29 Z" />
<path fill="#fefefe" opacity="1.00" d=" M 352.64 497.55 C 357.40 495.27 363.63 494.83 368.06 498.10 C 369.48 500.42 369.90 503.22 369.85 505.91 C 369.80 511.17 369.90 516.43 369.77 521.69 C 369.01 521.85 367.50 522.17 366.74 522.33 C 366.46 521.29 366.19 520.25 365.93 519.22 C 362.44 521.71 357.74 523.47 353.68 521.21 C 348.40 519.03 349.01 510.10 354.39 508.43 C 357.84 506.57 361.84 507.42 365.57 507.25 C 365.56 504.59 365.94 501.32 363.22 499.79 C 359.09 497.93 354.83 500.20 351.06 501.83 C 351.43 500.39 350.90 498.21 352.64 497.55 M 354.35 513.43 C 354.16 515.32 354.43 517.88 356.55 518.57 C 359.79 519.92 363.06 518.07 365.49 515.98 C 365.50 513.87 365.51 511.76 365.52 509.66 C 361.66 509.71 356.48 509.50 354.35 513.43 Z" />
<path fill="#fefefe" opacity="1.00" d=" M 385.29 496.26 C 389.36 495.22 394.13 495.74 397.39 498.58 C 401.95 504.18 401.93 512.90 397.60 518.63 C 393.76 522.76 387.03 523.19 382.13 520.81 C 377.40 518.56 376.46 512.65 376.64 507.96 C 376.59 502.79 379.86 497.11 385.29 496.26 M 386.33 499.28 C 380.52 501.65 380.22 509.05 381.72 514.25 C 383.41 519.06 390.20 520.38 393.83 516.90 C 397.39 512.75 397.26 506.15 394.37 501.64 C 392.59 498.95 389.19 498.90 386.33 499.28 Z" />
<path fill="#fefefe" opacity="1.00" d=" M 448.65 497.57 C 453.38 495.29 459.56 494.84 464.01 498.02 C 465.57 500.31 465.91 503.20 465.89 505.92 C 465.84 511.18 465.95 516.45 465.80 521.71 C 465.03 521.86 463.51 522.16 462.74 522.30 C 462.49 521.27 462.24 520.24 462.01 519.22 C 458.69 521.53 454.39 523.32 450.43 521.53 C 445.02 519.85 444.57 511.08 449.70 508.79 C 453.31 506.58 457.62 507.36 461.63 507.25 C 461.67 504.53 461.87 501.37 459.33 499.63 C 455.21 498.05 450.91 500.13 447.14 501.84 C 447.49 500.40 446.91 498.24 448.65 497.57 M 450.40 513.45 C 450.30 515.11 450.32 517.15 451.88 518.19 C 455.04 520.04 459.19 518.55 461.39 515.86 C 461.73 513.81 461.55 511.72 461.58 509.67 C 457.71 509.69 452.54 509.51 450.40 513.45 Z" />
<path fill="#fefefe" opacity="1.00" d=" M 474.57 496.11 C 475.51 496.11 477.39 496.12 478.33 496.12 C 478.35 501.68 478.24 507.24 478.36 512.80 C 478.66 514.93 479.40 517.72 481.82 518.30 C 485.28 519.89 488.21 516.64 490.65 514.64 C 490.78 508.52 490.58 502.40 490.78 496.29 C 492.21 496.21 493.66 496.14 495.11 496.09 C 494.91 504.77 495.56 513.50 494.69 522.15 C 493.64 522.06 492.59 521.96 491.55 521.86 C 491.40 520.56 491.26 519.26 491.13 517.97 C 488.66 520.31 485.66 522.73 482.01 522.19 C 478.05 522.40 474.72 518.88 474.60 515.05 C 474.51 508.74 474.61 502.42 474.57 496.11 Z" />
<path fill="#fefefe" opacity="1.00" d=" M 522.33 496.37 C 526.64 495.54 531.98 495.23 535.25 498.73 C 539.26 502.24 538.87 508.16 538.34 512.98 C 537.33 517.03 534.33 521.17 529.96 521.89 C 524.84 522.95 518.00 521.62 515.92 516.19 C 513.23 509.33 514.61 499.29 522.33 496.37 M 524.38 499.33 C 518.83 501.68 518.51 508.47 519.55 513.57 C 520.21 515.40 521.54 516.91 523.06 518.10 C 527.21 520.36 533.15 517.71 533.87 512.95 C 534.38 509.59 534.68 505.89 533.13 502.76 C 531.69 499.53 527.56 498.69 524.38 499.33 Z" />
</g>
<g id="#b01817ff">
<path fill="#b01817" opacity="1.00" d=" M 540.71 150.92 C 552.64 150.92 564.59 150.69 576.53 151.05 C 594.83 264.55 613.26 378.02 631.54 491.53 C 631.53 493.37 633.76 492.80 634.94 492.96 C 646.69 492.94 658.45 492.93 670.21 492.95 C 683.56 407.04 697.32 321.19 710.77 235.29 C 715.16 207.22 719.80 179.20 723.96 151.10 C 735.48 150.63 747.02 150.96 758.56 150.92 C 758.40 154.99 757.53 158.97 756.76 162.96 C 733.30 294.61 709.85 426.26 686.42 557.91 C 661.99 558.12 637.54 558.24 613.12 557.85 C 589.04 422.20 564.75 286.58 540.71 150.92 Z" />
</g>
</svg>
