<?xml version="1.0" encoding="UTF-8" ?>
<!DOCTYPE svg PUBLIC "-//W3C//DTD SVG 1.1//EN" "http://www.w3.org/Graphics/SVG/1.1/DTD/svg11.dtd">
<svg width="1280pt" height="674pt" viewBox="0 0 1280 674" version="1.1" xmlns="http://www.w3.org/2000/svg">
<g id="#0a3161ff">
<path fill="#0a3161" opacity="1.00" d=" M 0.00 0.00 L 512.00 0.00 C 512.00 17.28 512.00 34.55 512.00 51.83 C 512.00 69.10 512.00 86.38 512.00 103.66 C 512.00 120.92 512.00 138.19 512.00 155.45 C 512.00 172.73 512.00 190.00 512.00 207.28 C 512.00 224.56 512.00 241.83 512.00 259.11 C 512.00 276.38 512.00 293.66 512.00 310.94 C 511.99 328.22 512.02 345.50 511.98 362.78 C 341.32 362.83 170.66 362.78 0.00 362.80 L 0.00 0.00 M 38.01 29.86 C 33.03 29.88 28.06 29.84 23.08 29.89 C 27.05 32.92 31.17 35.76 35.15 38.78 C 33.55 43.50 32.07 48.26 30.47 52.99 C 34.59 50.13 38.61 47.13 42.67 44.19 C 46.73 47.13 50.77 50.09 54.84 53.02 C 53.30 48.25 51.75 43.49 50.20 38.74 C 54.20 35.79 58.27 32.93 62.23 29.92 C 57.25 29.82 52.28 29.89 47.30 29.85 C 45.78 25.16 44.30 20.44 42.69 15.78 C 40.98 20.42 39.58 25.17 38.01 29.86 M 123.30 29.89 C 118.35 29.86 113.40 29.83 108.44 29.91 C 112.40 32.92 116.47 35.77 120.47 38.73 C 118.93 43.49 117.34 48.23 115.87 53.01 C 119.93 50.08 123.96 47.13 128.01 44.20 C 132.05 47.12 136.08 50.07 140.12 52.99 C 138.66 48.22 137.07 43.49 135.53 38.74 C 139.53 35.78 143.60 32.95 147.54 29.92 C 142.59 29.59 137.47 30.34 132.62 29.55 C 130.89 25.13 129.81 20.48 128.10 16.05 C 126.02 20.47 125.03 25.32 123.30 29.89 M 213.32 15.69 C 211.73 20.39 210.22 25.12 208.70 29.85 C 203.74 29.90 198.78 29.81 193.82 29.94 C 197.76 32.94 201.81 35.79 205.80 38.72 C 204.25 43.49 202.70 48.26 201.16 53.03 C 205.23 50.10 209.28 47.14 213.34 44.19 C 217.40 47.12 221.43 50.10 225.51 53.00 C 223.95 48.26 222.44 43.51 220.86 38.79 C 224.83 35.77 228.95 32.94 232.91 29.90 C 227.93 29.83 222.96 29.88 217.99 29.86 C 216.43 25.14 214.96 20.39 213.32 15.69 M 298.59 15.77 C 297.05 20.47 295.55 25.17 294.01 29.86 C 289.01 29.87 284.00 29.86 278.99 29.88 C 283.03 32.87 287.15 35.75 291.15 38.79 C 289.54 43.51 288.06 48.28 286.47 53.01 C 290.58 50.13 294.60 47.13 298.68 44.19 C 302.73 47.14 306.78 50.09 310.84 53.02 C 309.30 48.25 307.75 43.50 306.20 38.74 C 310.19 35.79 314.25 32.95 318.20 29.94 C 313.23 29.80 308.27 29.89 303.30 29.86 C 301.75 25.16 300.38 20.39 298.59 15.77 M 383.94 15.87 C 382.31 20.53 380.92 25.26 379.28 29.91 C 374.38 29.86 369.48 29.81 364.58 29.94 C 368.43 33.02 372.52 35.78 376.47 38.73 C 374.94 43.48 373.33 48.22 371.88 53.00 C 375.93 50.08 379.96 47.13 384.01 44.20 C 388.05 47.12 392.08 50.07 396.13 53.00 C 394.65 48.23 393.07 43.49 391.53 38.74 C 395.47 35.79 399.57 33.05 403.40 29.95 C 398.56 29.73 393.71 30.03 388.88 29.80 C 386.75 25.37 385.93 20.39 383.94 15.87 M 464.69 29.86 C 459.73 29.89 454.76 29.81 449.80 29.93 C 453.75 32.94 457.82 35.78 461.81 38.74 C 460.24 43.50 458.70 48.27 457.16 53.03 C 461.23 50.10 465.28 47.14 469.34 44.19 C 473.40 47.11 477.40 50.12 481.52 52.97 C 479.93 48.26 478.46 43.51 476.85 38.81 C 480.82 35.76 484.96 32.92 488.95 29.89 C 483.96 29.84 478.97 29.88 473.99 29.86 C 472.44 25.16 470.93 20.44 469.39 15.73 C 467.65 20.38 466.24 25.15 464.69 29.86 M 255.96 52.02 C 254.37 56.73 252.90 61.46 251.32 66.17 C 246.35 66.15 241.39 66.14 236.42 66.17 C 240.38 69.18 244.46 72.05 248.47 74.99 C 246.94 79.75 245.36 84.49 243.86 89.26 C 247.94 86.37 251.96 83.40 256.01 80.47 C 260.05 83.38 264.03 86.36 268.12 89.21 C 266.64 84.46 265.05 79.74 263.53 75.00 C 267.57 72.06 271.64 69.15 275.65 66.17 C 270.65 66.15 265.66 66.16 260.67 66.16 C 259.09 61.45 257.68 56.68 255.96 52.02 M 85.31 51.97 C 83.74 56.67 82.21 61.40 80.71 66.13 C 75.72 66.18 70.74 66.14 65.76 66.17 C 69.72 69.18 73.79 72.05 77.80 74.99 C 76.27 79.75 74.69 84.51 73.18 89.28 C 77.24 86.37 81.29 83.43 85.31 80.47 C 89.38 83.31 93.26 86.42 97.46 89.07 C 95.92 84.38 94.38 79.70 92.87 75.00 C 96.91 72.05 100.98 69.14 105.00 66.16 C 100.00 66.15 94.99 66.16 89.99 66.15 C 88.43 61.42 86.98 56.66 85.31 51.97 M 170.63 51.92 C 169.08 56.67 167.55 61.41 166.01 66.15 C 161.03 66.17 156.05 66.12 151.07 66.19 C 155.06 69.16 159.12 72.05 163.13 74.99 C 161.62 79.70 160.07 84.40 158.54 89.10 C 162.74 86.42 166.63 83.32 170.71 80.47 C 174.72 83.42 178.76 86.36 182.81 89.27 C 181.30 84.50 179.73 79.76 178.20 75.00 C 182.22 72.06 186.30 69.19 190.26 66.17 C 185.27 66.13 180.28 66.19 175.28 66.12 C 173.77 61.37 172.28 56.62 170.63 51.92 M 336.71 66.13 C 331.70 66.18 326.70 66.14 321.70 66.16 C 325.71 69.14 329.77 72.05 333.80 74.99 C 332.26 79.76 330.69 84.51 329.18 89.28 C 333.24 86.37 337.28 83.43 341.31 80.47 C 345.37 83.33 349.30 86.37 353.44 89.13 C 351.95 84.41 350.38 79.72 348.87 75.01 C 352.88 72.05 356.95 69.19 360.92 66.18 C 355.94 66.13 350.97 66.17 345.99 66.15 C 344.44 61.41 342.91 56.66 341.36 51.91 C 339.72 56.62 338.23 61.38 336.71 66.13 M 426.61 51.98 C 425.07 56.70 423.55 61.43 422.01 66.15 C 417.01 66.16 412.02 66.15 407.02 66.16 C 411.03 69.14 415.10 72.04 419.13 74.99 C 417.60 79.60 416.27 84.28 414.47 88.80 C 414.73 88.76 415.24 88.68 415.49 88.64 C 419.20 85.87 422.95 83.15 426.73 80.46 C 430.73 83.44 434.77 86.36 438.81 89.27 C 437.30 84.50 435.73 79.76 434.20 75.00 C 438.22 72.06 442.30 69.19 446.26 66.17 C 441.26 66.13 436.27 66.19 431.28 66.12 C 429.77 61.39 428.32 56.64 426.61 51.98 M 42.64 88.13 C 41.12 92.89 39.56 97.65 38.02 102.41 C 33.01 102.43 27.99 102.42 22.97 102.41 C 27.01 105.38 31.07 108.31 35.13 111.26 C 33.61 116.02 32.02 120.76 30.53 125.54 C 34.62 122.64 38.62 119.63 42.72 116.75 C 46.71 119.65 50.63 122.64 54.74 125.37 C 53.29 120.65 51.72 115.98 50.20 111.29 C 54.19 108.32 58.31 105.52 62.20 102.41 C 57.23 102.41 52.26 102.44 47.30 102.40 C 45.77 97.64 44.24 92.87 42.64 88.13 M 123.33 102.43 C 118.45 102.43 113.56 102.40 108.68 102.44 C 112.41 105.68 116.63 108.30 120.50 111.38 C 118.87 116.07 117.35 120.80 115.87 125.53 C 119.94 122.64 123.95 119.68 128.00 116.75 C 132.06 119.66 136.07 122.64 140.14 125.53 C 138.65 120.75 137.02 116.01 135.56 111.21 C 139.56 108.35 143.61 105.55 147.43 102.45 C 142.51 102.39 137.59 102.43 132.66 102.42 C 131.12 97.84 129.73 93.20 128.11 88.64 C 126.08 93.07 124.96 97.84 123.33 102.43 M 208.73 102.39 C 203.76 102.45 198.78 102.41 193.81 102.42 C 197.70 105.52 201.82 108.31 205.80 111.29 C 204.30 115.96 202.72 120.62 201.28 125.32 C 205.41 122.68 209.28 119.68 213.22 116.78 C 217.40 119.56 221.37 122.64 225.48 125.54 C 223.97 120.77 222.39 116.03 220.87 111.27 C 224.93 108.32 229.00 105.39 233.03 102.41 C 228.02 102.43 223.00 102.43 217.99 102.42 C 216.44 97.67 214.90 92.93 213.37 88.18 C 211.73 92.88 210.22 97.63 208.73 102.39 M 294.02 102.41 C 289.01 102.43 283.99 102.40 278.98 102.44 C 283.03 105.37 287.08 108.32 291.13 111.26 C 289.60 116.03 288.02 120.79 286.51 125.57 C 290.59 122.65 294.61 119.64 298.72 116.75 C 302.71 119.64 306.62 122.64 310.73 125.36 C 309.28 120.65 307.71 115.98 306.20 111.29 C 310.22 108.32 314.31 105.46 318.28 102.42 C 313.29 102.41 308.29 102.44 303.30 102.40 C 301.78 97.65 300.22 92.91 298.69 88.15 C 297.07 92.88 295.57 97.65 294.02 102.41 M 379.34 102.42 C 374.40 102.44 369.47 102.34 364.53 102.51 C 368.30 105.53 372.43 108.07 376.14 111.15 C 375.44 116.00 373.13 120.72 371.85 125.55 C 375.93 122.65 379.95 119.68 384.00 116.75 C 388.06 119.67 392.07 122.64 396.14 125.54 C 394.65 120.75 393.00 116.00 391.57 111.19 C 395.53 108.34 399.62 105.64 403.31 102.43 C 398.43 102.40 393.54 102.43 388.66 102.42 C 387.12 97.83 385.73 93.19 384.10 88.63 C 382.09 93.07 380.95 97.84 379.34 102.42 M 464.71 102.40 C 459.73 102.45 454.75 102.41 449.78 102.41 C 453.70 105.48 457.80 108.31 461.80 111.28 C 460.29 115.98 458.70 120.66 457.26 125.38 C 461.38 122.66 465.30 119.64 469.31 116.75 C 473.39 119.65 477.41 122.63 481.48 125.55 C 479.97 120.78 478.40 116.04 476.87 111.28 C 480.92 108.32 484.99 105.39 489.04 102.41 C 484.02 102.42 479.00 102.43 473.98 102.41 C 472.46 97.79 471.01 93.15 469.46 88.54 C 467.47 93.01 466.26 97.77 464.71 102.40 M 80.68 138.69 C 75.71 138.70 70.73 138.66 65.75 138.72 C 69.71 141.72 73.76 144.60 77.78 147.50 C 76.29 152.31 74.68 157.09 73.16 161.90 C 77.18 158.92 81.27 156.01 85.29 153.03 C 89.40 155.91 93.42 158.92 97.50 161.84 C 95.99 157.02 94.27 152.27 92.94 147.40 C 97.04 144.60 101.02 141.63 105.02 138.70 C 100.01 138.68 95.01 138.69 90.01 138.70 C 88.43 133.98 86.92 129.25 85.40 124.51 C 83.68 129.19 82.24 133.96 80.68 138.69 M 170.60 124.50 C 169.07 129.24 167.59 134.00 165.96 138.71 C 160.97 138.68 155.98 138.69 150.99 138.69 C 155.00 141.63 159.00 144.59 163.08 147.43 C 161.69 152.28 160.01 157.04 158.50 161.86 C 162.67 159.09 166.44 155.62 170.81 153.23 C 174.96 155.90 178.79 159.03 182.84 161.86 C 181.31 157.08 179.72 152.31 178.21 147.52 C 182.22 144.62 186.28 141.78 190.19 138.74 C 185.23 138.65 180.28 138.70 175.32 138.69 C 173.75 133.96 172.32 129.18 170.60 124.50 M 255.93 124.77 C 254.26 129.26 253.09 133.93 251.37 138.40 C 246.53 139.14 241.53 138.37 236.63 138.82 C 240.48 141.87 244.56 144.62 248.48 147.58 C 246.91 152.32 245.34 157.05 243.89 161.82 C 247.93 158.90 251.96 155.96 256.00 153.02 C 260.03 155.92 264.04 158.87 268.07 161.78 C 266.68 157.02 265.08 152.32 263.52 147.62 C 267.37 144.59 271.58 142.02 275.25 138.77 C 270.36 138.60 265.46 138.78 260.57 138.61 C 259.10 133.97 257.78 129.27 255.93 124.77 M 336.68 138.69 C 331.74 138.71 326.80 138.64 321.86 138.74 C 325.74 141.79 329.79 144.61 333.78 147.50 C 332.29 152.30 330.68 157.07 329.17 161.87 C 333.24 158.92 337.28 155.92 341.39 153.02 C 345.41 155.99 349.45 158.92 353.50 161.83 C 351.97 157.04 350.34 152.29 348.91 147.47 C 352.98 144.60 357.00 141.66 361.01 138.70 C 356.01 138.68 351.02 138.68 346.03 138.70 C 344.42 134.02 342.96 129.30 341.41 124.61 C 339.62 129.23 338.25 133.99 336.68 138.69 M 426.58 124.67 C 425.02 129.34 423.56 134.03 422.00 138.69 C 417.00 138.69 412.00 138.68 407.01 138.69 C 411.00 141.65 415.02 144.59 419.09 147.45 C 417.67 152.29 416.01 157.06 414.49 161.86 C 418.52 158.93 422.59 156.05 426.57 153.03 C 430.73 155.88 434.77 158.91 438.84 161.89 C 437.31 157.10 435.72 152.32 434.21 147.53 C 438.22 144.61 442.28 141.76 446.21 138.74 C 441.24 138.65 436.28 138.70 431.32 138.69 C 429.74 134.02 428.42 129.25 426.58 124.67 M 42.61 160.75 C 41.10 165.50 39.55 170.24 38.01 174.97 C 33.01 174.98 28.02 174.96 23.02 175.00 C 27.05 177.97 31.13 180.86 35.14 183.85 C 33.58 188.58 32.05 193.32 30.51 198.06 C 34.63 195.22 38.62 192.20 42.70 189.30 C 46.73 192.24 50.77 195.19 54.82 198.10 C 53.30 193.33 51.74 188.58 50.20 183.82 C 54.21 180.89 58.27 178.02 62.24 175.04 C 57.26 174.93 52.28 175.01 47.29 174.96 C 45.77 170.21 44.30 165.44 42.61 160.75 M 123.32 174.99 C 118.39 174.98 113.47 174.93 108.55 175.03 C 112.42 178.10 116.50 180.88 120.47 183.82 C 118.94 188.58 117.35 193.31 115.87 198.09 C 119.94 195.19 123.96 192.22 128.01 189.30 C 132.05 192.21 136.07 195.17 140.12 198.09 C 138.66 193.31 137.06 188.58 135.53 183.83 C 139.56 180.89 143.62 178.00 147.61 175.01 C 142.63 174.95 137.65 174.98 132.67 174.98 C 131.10 170.28 129.66 165.53 127.99 160.85 C 126.35 165.54 124.91 170.29 123.32 174.99 M 208.71 174.95 C 203.73 175.01 198.74 174.93 193.76 175.04 C 197.75 178.00 201.80 180.88 205.80 183.82 C 204.26 188.58 202.70 193.34 201.17 198.11 C 205.24 195.20 209.28 192.24 213.32 189.30 C 217.40 192.19 221.38 195.21 225.49 198.05 C 223.94 193.32 222.42 188.58 220.86 183.86 C 224.84 180.88 228.92 178.04 232.89 175.04 C 227.92 174.93 222.96 174.99 217.99 174.97 C 216.45 170.26 214.93 165.53 213.39 160.81 C 211.67 165.47 210.23 170.22 208.71 174.95 M 298.60 160.81 C 297.08 165.53 295.55 170.26 294.01 174.97 C 289.06 174.99 284.10 174.92 279.16 175.05 C 283.10 178.06 287.18 180.88 291.14 183.85 C 289.58 188.59 288.04 193.33 286.51 198.07 C 290.64 195.21 294.62 192.15 298.76 189.30 C 302.74 192.29 306.79 195.19 310.83 198.10 C 309.30 193.34 307.74 188.59 306.20 183.83 C 310.22 180.90 314.25 177.99 318.27 175.06 C 313.28 174.92 308.29 175.00 303.30 174.96 C 301.76 170.23 300.34 165.47 298.60 160.81 M 383.94 160.92 C 382.35 165.59 380.89 170.30 379.33 174.98 C 374.35 174.98 369.37 174.95 364.39 175.01 C 368.39 177.98 372.44 180.88 376.47 183.82 C 374.94 188.58 373.35 193.32 371.87 198.10 C 375.93 195.19 379.95 192.23 384.01 189.30 C 388.06 192.21 392.08 195.17 396.13 198.09 C 394.65 193.32 393.06 188.58 391.53 183.83 C 395.58 180.88 399.64 177.95 403.67 174.99 C 398.67 174.97 393.68 174.97 388.68 174.99 C 387.07 170.31 385.74 165.54 383.94 160.92 M 464.71 174.95 C 459.72 175.01 454.74 174.93 449.77 175.04 C 453.75 178.01 457.81 180.88 461.81 183.83 C 460.25 188.59 458.70 193.34 457.17 198.11 C 461.23 195.20 465.27 192.27 469.29 189.30 C 473.40 192.13 477.29 195.27 481.52 197.95 C 479.89 193.28 478.42 188.55 476.86 183.85 C 480.86 180.88 484.95 178.02 488.93 175.01 C 483.94 174.94 478.96 174.99 473.99 174.97 C 472.44 170.24 470.91 165.50 469.38 160.76 C 467.70 165.45 466.23 170.21 464.71 174.95 M 251.33 211.25 C 246.35 211.24 241.38 211.23 236.40 211.26 C 240.37 214.25 244.41 217.15 248.45 220.05 C 246.97 224.83 245.35 229.57 243.87 234.35 C 247.95 231.47 251.95 228.49 256.01 225.58 C 260.04 228.46 263.99 231.47 268.10 234.26 C 266.83 229.47 264.60 224.85 263.84 220.01 C 267.62 216.88 271.78 214.27 275.65 211.26 C 270.66 211.23 265.66 211.24 260.67 211.25 C 259.10 206.52 257.61 201.77 256.01 197.05 C 254.38 201.76 252.91 206.52 251.33 211.25 M 80.71 211.22 C 75.71 211.26 70.71 211.23 65.71 211.25 C 69.69 214.25 73.76 217.14 77.80 220.08 C 76.30 224.80 74.72 229.49 73.23 234.21 C 77.39 231.50 81.30 228.45 85.33 225.57 C 89.36 228.45 93.31 231.43 97.39 234.25 C 95.99 229.50 94.37 224.82 92.87 220.11 C 96.92 217.14 100.99 214.22 105.04 211.25 C 100.02 211.24 95.00 211.25 89.98 211.24 C 88.44 206.49 86.90 201.75 85.36 197.00 C 83.73 201.72 82.22 206.47 80.71 211.22 M 170.62 197.01 C 169.10 201.76 167.55 206.49 166.02 211.24 C 161.01 211.25 156.00 211.23 150.98 211.25 C 155.02 214.22 159.10 217.14 163.14 220.10 C 161.62 224.82 160.01 229.50 158.61 234.26 C 162.70 231.45 166.65 228.46 170.68 225.57 C 174.71 228.45 178.63 231.49 182.77 234.21 C 181.28 229.49 179.69 224.80 178.21 220.08 C 182.22 217.18 186.24 214.29 190.22 211.34 C 185.25 211.15 180.28 211.28 175.31 211.24 C 173.77 206.49 172.28 201.72 170.62 197.01 M 336.71 211.22 C 331.73 211.27 326.75 211.22 321.78 211.25 C 325.70 214.31 329.80 217.14 333.80 220.09 C 332.29 224.81 330.70 229.51 329.23 234.24 C 333.36 231.49 337.30 228.47 341.33 225.57 C 345.34 228.43 349.27 231.42 353.34 234.20 C 352.00 229.45 350.36 224.81 348.87 220.11 C 352.92 217.14 356.99 214.21 361.05 211.25 C 356.03 211.24 351.01 211.25 345.99 211.24 C 344.44 206.49 342.89 201.75 341.37 197.00 C 339.72 201.71 338.23 206.47 336.71 211.22 M 426.64 196.99 C 425.10 201.74 423.56 206.49 422.01 211.24 C 417.00 211.25 412.00 211.23 406.99 211.25 C 411.02 214.22 415.09 217.14 419.13 220.10 C 417.63 224.82 416.00 229.51 414.61 234.27 C 418.69 231.44 422.65 228.46 426.69 225.57 C 430.71 228.45 434.62 231.49 438.76 234.20 C 437.28 229.49 435.70 224.81 434.20 220.10 C 438.22 217.15 442.31 214.29 446.26 211.26 C 441.26 211.22 436.26 211.29 431.26 211.20 C 429.79 206.44 428.24 201.70 426.64 196.99 M 42.60 233.26 C 41.14 238.01 39.54 242.73 38.05 247.48 C 33.04 247.53 28.02 247.52 23.01 247.49 C 26.99 250.51 31.07 253.41 35.12 256.34 C 33.62 261.12 32.03 265.88 30.51 270.66 C 34.54 267.76 38.59 264.89 42.53 261.87 C 46.91 264.54 50.70 268.15 55.12 270.69 C 53.08 266.06 51.85 261.15 50.20 256.38 C 54.19 253.42 58.32 250.64 62.17 247.50 C 57.21 247.50 52.24 247.54 47.27 247.48 C 45.78 242.72 44.27 237.96 42.60 233.26 M 127.71 234.21 C 126.12 238.60 124.86 243.10 123.34 247.51 C 118.44 247.53 113.53 247.46 108.63 247.57 C 112.43 250.74 116.60 253.41 120.49 256.47 C 118.89 261.16 117.32 265.87 115.92 270.64 C 119.95 267.71 123.97 264.76 128.01 261.85 C 132.05 264.77 136.07 267.72 140.12 270.63 C 138.65 265.90 137.13 261.18 135.51 256.50 C 139.37 253.41 143.59 250.80 147.33 247.56 C 142.44 247.46 137.55 247.53 132.66 247.51 C 131.14 243.11 129.90 238.62 128.29 234.25 C 128.15 234.24 127.86 234.22 127.71 234.21 M 208.71 247.49 C 203.75 247.53 198.78 247.50 193.81 247.51 C 197.69 250.61 201.80 253.42 205.80 256.36 C 204.26 261.14 202.70 265.92 201.15 270.70 C 205.26 267.76 209.28 264.70 213.46 261.86 C 217.42 264.86 221.45 267.74 225.49 270.64 C 223.97 265.87 222.38 261.13 220.88 256.35 C 224.94 253.42 229.01 250.49 233.03 247.50 C 228.01 247.51 222.99 247.52 217.98 247.50 C 216.46 242.86 215.00 238.21 213.44 233.58 C 211.52 238.09 210.26 242.85 208.71 247.49 M 298.59 233.49 C 297.02 238.14 295.55 242.83 294.02 247.50 C 289.01 247.52 284.00 247.52 278.99 247.50 C 283.00 250.49 287.07 253.41 291.13 256.35 C 289.61 261.13 288.03 265.89 286.50 270.67 C 290.53 267.76 294.59 264.88 298.54 261.87 C 302.73 264.67 306.74 267.75 310.84 270.68 C 309.30 265.91 307.74 261.14 306.20 256.37 C 310.20 253.42 314.31 250.62 318.19 247.51 C 313.21 247.49 308.24 247.55 303.26 247.47 C 301.77 242.79 300.39 238.06 298.59 233.49 M 383.92 233.67 C 382.28 238.25 380.88 242.90 379.34 247.51 C 374.45 247.53 369.56 247.46 364.67 247.56 C 368.40 250.71 372.46 253.43 376.43 256.27 C 375.01 261.10 373.34 265.85 371.85 270.66 C 375.91 267.74 379.95 264.79 384.00 261.85 C 388.06 264.76 392.08 267.73 396.15 270.65 C 394.63 265.91 393.12 261.17 391.52 256.46 C 395.40 253.42 399.59 250.78 403.33 247.56 C 398.44 247.45 393.55 247.53 388.66 247.51 C 387.05 242.91 385.86 238.15 383.92 233.67 M 464.72 247.49 C 459.74 247.54 454.77 247.50 449.80 247.51 C 453.69 250.60 457.79 253.42 461.80 256.36 C 460.27 261.14 458.66 265.89 457.20 270.69 C 461.26 267.72 465.29 264.72 469.43 261.86 C 473.41 264.83 477.44 267.74 481.48 270.63 C 479.97 265.86 478.37 261.12 476.89 256.33 C 480.95 253.42 485.01 250.49 489.02 247.50 C 484.00 247.51 478.99 247.52 473.97 247.50 C 472.46 242.86 471.00 238.20 469.44 233.58 C 467.53 238.09 466.25 242.84 464.72 247.49 M 80.69 283.79 C 75.75 283.82 70.80 283.74 65.86 283.86 C 69.75 286.88 73.79 289.71 77.78 292.60 C 76.30 297.40 74.69 302.16 73.17 306.96 C 77.21 304.03 81.26 301.12 85.27 298.13 C 89.40 300.99 93.41 304.02 97.50 306.94 C 95.99 302.13 94.28 297.38 92.94 292.52 C 97.02 289.70 100.99 286.76 104.98 283.82 C 99.98 283.78 94.99 283.80 89.99 283.80 C 88.45 279.10 86.94 274.39 85.41 269.69 C 83.63 274.32 82.24 279.08 80.69 283.79 M 170.60 269.68 C 169.06 274.38 167.55 279.09 166.01 283.80 C 161.01 283.80 156.01 283.79 151.01 283.81 C 155.01 286.73 158.98 289.69 163.06 292.51 C 161.72 297.38 160.00 302.14 158.49 306.97 C 162.57 304.03 166.61 301.04 170.70 298.13 C 174.74 301.08 178.78 304.01 182.83 306.94 C 181.31 302.15 179.68 297.40 178.23 292.59 C 182.23 289.73 186.24 286.87 190.15 283.90 C 185.21 283.71 180.26 283.83 175.31 283.79 C 173.76 279.08 172.36 274.32 170.60 269.68 M 255.94 269.81 C 254.33 274.45 252.89 279.14 251.34 283.80 C 246.41 283.82 241.48 283.74 236.56 283.87 C 240.43 286.93 244.51 289.71 248.47 292.65 C 246.94 297.41 245.33 302.13 243.90 306.91 C 247.95 303.99 251.96 301.04 256.02 298.13 C 260.04 301.04 264.05 303.97 268.07 306.89 C 266.68 302.11 265.05 297.40 263.53 292.67 C 267.46 289.72 271.56 287.00 275.36 283.89 C 270.47 283.72 265.57 283.82 260.68 283.81 C 259.07 279.15 257.77 274.39 255.94 269.81 M 336.68 283.80 C 331.75 283.82 326.81 283.74 321.88 283.87 C 325.75 286.89 329.77 289.72 333.77 292.57 C 332.32 297.39 330.68 302.16 329.16 306.96 C 333.22 304.03 337.27 301.08 341.32 298.13 C 345.40 301.04 349.43 304.02 353.50 306.94 C 352.09 302.25 350.31 297.68 349.05 292.95 C 352.50 289.37 357.14 286.98 361.01 283.81 C 356.01 283.79 351.00 283.80 345.99 283.80 C 344.45 279.09 342.92 274.37 341.41 269.65 C 339.65 274.30 338.25 279.08 336.68 283.80 M 426.58 269.74 C 425.04 274.42 423.54 279.12 422.01 283.80 C 417.02 283.81 412.03 283.78 407.05 283.82 C 411.01 286.75 414.97 289.69 419.05 292.48 C 417.75 297.37 415.99 302.12 414.50 306.95 C 418.59 304.03 422.61 301.00 426.75 298.13 C 430.75 301.11 434.80 304.02 438.84 306.95 C 437.31 302.16 435.68 297.40 434.23 292.58 C 438.25 289.73 442.25 286.86 446.18 283.88 C 441.22 283.73 436.26 283.82 431.31 283.79 C 429.74 279.10 428.41 274.33 426.58 269.74 M 123.33 320.08 C 118.32 320.06 113.31 320.06 108.30 320.08 C 112.36 323.03 116.42 325.96 120.47 328.92 C 118.93 333.68 117.36 338.43 115.85 343.20 C 119.92 340.30 123.95 337.33 128.01 334.40 C 132.05 337.30 136.04 340.29 140.12 343.14 C 138.64 338.39 137.06 333.67 135.53 328.93 C 139.51 325.98 143.62 323.21 147.47 320.09 C 142.55 320.03 137.63 320.06 132.71 320.09 C 131.05 315.44 129.74 310.67 128.01 306.05 C 126.26 310.66 124.93 315.42 123.33 320.08 M 213.31 305.88 C 211.74 310.59 210.22 315.31 208.71 320.04 C 203.72 320.10 198.74 320.03 193.75 320.09 C 197.71 323.11 201.79 325.97 205.80 328.92 C 204.26 333.68 202.69 338.44 201.18 343.22 C 205.23 340.30 209.28 337.35 213.31 334.40 C 217.39 337.27 221.34 340.34 225.50 343.10 C 223.92 338.38 222.40 333.66 220.87 328.93 C 224.91 325.97 228.99 323.05 233.02 320.08 C 228.01 320.05 223.00 320.07 217.99 320.06 C 216.42 315.34 214.97 310.58 213.31 305.88 M 294.01 320.07 C 289.02 320.07 284.03 320.05 279.04 320.09 C 283.04 323.08 287.11 325.97 291.14 328.93 C 289.59 333.64 288.12 338.38 286.46 343.06 C 290.70 340.41 294.60 337.27 298.69 334.40 C 302.73 337.34 306.76 340.29 310.82 343.21 C 309.30 338.44 307.74 333.69 306.20 328.93 C 310.22 325.98 314.30 323.11 318.28 320.09 C 313.27 320.02 308.26 320.14 303.26 319.99 C 301.78 315.25 300.23 310.53 298.68 305.82 C 297.07 310.55 295.57 315.31 294.01 320.07 M 383.95 305.99 C 382.36 310.67 380.90 315.39 379.32 320.08 C 374.40 320.07 369.48 320.03 364.56 320.09 C 368.39 323.21 372.50 325.97 376.47 328.92 C 374.95 333.66 373.35 338.38 371.88 343.14 C 375.98 340.30 379.96 337.31 384.01 334.40 C 388.06 337.32 392.08 340.28 396.14 343.19 C 394.64 338.42 393.07 333.68 391.53 328.93 C 395.56 325.98 399.64 323.08 403.64 320.08 C 398.66 320.05 393.68 320.05 388.71 320.09 C 387.05 315.41 385.72 310.63 383.95 305.99 M 464.72 320.02 C 459.72 320.11 454.72 320.03 449.72 320.09 C 453.71 323.09 457.78 325.97 461.80 328.92 C 460.26 333.68 458.69 338.44 457.18 343.22 C 461.23 340.30 465.28 337.36 469.31 334.40 C 472.88 336.91 476.37 339.55 479.91 342.11 C 480.40 342.65 480.98 342.80 481.65 342.54 C 479.50 338.21 478.47 333.46 476.88 328.92 C 480.93 325.97 484.99 323.04 489.02 320.07 C 484.01 320.06 479.00 320.07 473.99 320.07 C 472.44 315.33 470.91 310.60 469.38 305.86 C 467.70 310.54 466.24 315.29 464.72 320.02 M 42.60 305.94 C 41.06 310.65 39.55 315.36 38.01 320.07 C 33.04 320.08 28.08 320.03 23.11 320.10 C 27.06 323.13 31.13 325.97 35.14 328.92 C 33.61 333.64 32.07 338.36 30.52 343.07 C 34.69 340.35 38.62 337.27 42.69 334.40 C 46.73 337.34 50.77 340.29 54.82 343.21 C 53.30 338.44 51.74 333.69 50.20 328.93 C 54.23 325.98 58.31 323.11 62.28 320.09 C 57.28 320.03 52.29 320.10 47.29 320.03 C 45.76 315.32 44.35 310.57 42.60 305.94 Z" />
</g>
<g id="#b31942ff">
<path fill="#b31942" opacity="1.00" d=" M 512.00 0.00 L 1280.00 0.00 L 1280.00 51.82 C 1024.00 51.82 768.00 51.81 512.00 51.83 C 512.00 34.55 512.00 17.28 512.00 0.00 Z" />
<path fill="#b31942" opacity="1.00" d=" M 512.00 103.66 C 768.00 103.63 1024.00 103.65 1280.00 103.65 L 1280.00 155.32 C 1228.66 155.66 1177.31 155.37 1125.97 155.47 C 921.31 155.46 716.66 155.48 512.00 155.45 C 512.00 138.19 512.00 120.92 512.00 103.66 Z" />
<path fill="#b31942" opacity="1.00" d=" M 512.00 207.28 C 768.00 207.30 1024.00 207.28 1280.00 207.29 L 1280.00 259.11 C 1024.00 259.11 768.00 259.11 512.00 259.11 C 512.00 241.83 512.00 224.56 512.00 207.28 Z" />
<path fill="#b31942" opacity="1.00" d=" M 512.00 310.94 C 768.00 310.93 1024.00 310.94 1280.00 310.93 L 1280.00 362.75 C 1023.99 362.77 767.99 362.72 511.98 362.78 C 512.02 345.50 511.99 328.22 512.00 310.94 Z" />
<path fill="#b31942" opacity="1.00" d=" M 0.00 414.69 C 103.34 414.43 206.69 414.65 310.04 414.58 C 633.36 414.58 956.68 414.58 1280.00 414.58 L 1280.00 466.28 C 1170.02 466.55 1060.03 466.32 950.05 466.40 C 633.37 466.40 316.68 466.40 0.00 466.39 L 0.00 414.69 Z" />
<path fill="#b31942" opacity="1.00" d=" M 0.00 518.22 C 426.67 518.22 853.33 518.22 1280.00 518.22 L 1280.00 570.04 C 853.33 570.04 426.67 570.04 0.00 570.04 L 0.00 518.22 Z" />
<path fill="#b31942" opacity="1.00" d=" M 0.00 621.86 C 426.67 621.87 853.33 621.86 1280.00 621.86 L 1280.00 674.00 L 0.00 674.00 L 0.00 621.86 Z" />
</g>
<g id="#ffffffff">
<path fill="#ffffff" opacity="1.00" d=" M 38.01 29.86 C 39.58 25.17 40.98 20.42 42.69 15.78 C 44.30 20.44 45.78 25.16 47.30 29.85 C 52.28 29.89 57.25 29.82 62.23 29.92 C 58.27 32.93 54.20 35.79 50.20 38.74 C 51.75 43.49 53.30 48.25 54.84 53.02 C 50.77 50.09 46.73 47.13 42.67 44.19 C 38.61 47.13 34.59 50.13 30.47 52.99 C 32.07 48.26 33.55 43.50 35.15 38.78 C 31.17 35.76 27.05 32.92 23.08 29.89 C 28.06 29.84 33.03 29.88 38.01 29.86 Z" />
<path fill="#ffffff" opacity="1.00" d=" M 123.30 29.89 C 125.03 25.32 126.02 20.47 128.10 16.05 C 129.81 20.48 130.89 25.13 132.62 29.55 C 137.47 30.34 142.59 29.59 147.54 29.92 C 143.60 32.95 139.53 35.78 135.53 38.74 C 137.07 43.49 138.66 48.22 140.12 52.99 C 136.08 50.07 132.05 47.12 128.01 44.20 C 123.96 47.13 119.93 50.08 115.87 53.01 C 117.34 48.23 118.93 43.49 120.47 38.73 C 116.47 35.77 112.40 32.92 108.44 29.91 C 113.40 29.83 118.35 29.86 123.30 29.89 Z" />
<path fill="#ffffff" opacity="1.00" d=" M 213.32 15.69 C 214.96 20.39 216.43 25.14 217.99 29.86 C 222.96 29.88 227.93 29.83 232.91 29.90 C 228.95 32.94 224.83 35.77 220.86 38.79 C 222.44 43.51 223.95 48.26 225.51 53.00 C 221.43 50.10 217.40 47.12 213.34 44.19 C 209.28 47.14 205.23 50.10 201.16 53.03 C 202.70 48.26 204.25 43.49 205.80 38.72 C 201.81 35.79 197.76 32.94 193.82 29.94 C 198.78 29.81 203.74 29.90 208.70 29.85 C 210.22 25.12 211.73 20.39 213.32 15.69 Z" />
<path fill="#ffffff" opacity="1.00" d=" M 298.59 15.77 C 300.38 20.39 301.75 25.16 303.30 29.86 C 308.27 29.89 313.23 29.80 318.20 29.94 C 314.25 32.95 310.19 35.79 306.20 38.74 C 307.75 43.50 309.30 48.25 310.84 53.02 C 306.78 50.09 302.73 47.14 298.68 44.19 C 294.60 47.13 290.58 50.13 286.47 53.01 C 288.06 48.28 289.54 43.51 291.15 38.79 C 287.15 35.75 283.03 32.87 278.99 29.88 C 284.00 29.86 289.01 29.87 294.01 29.86 C 295.55 25.17 297.05 20.47 298.59 15.77 Z" />
<path fill="#ffffff" opacity="1.00" d=" M 383.94 15.87 C 385.93 20.39 386.75 25.37 388.88 29.80 C 393.71 30.03 398.56 29.73 403.40 29.95 C 399.57 33.05 395.47 35.79 391.53 38.74 C 393.07 43.49 394.65 48.23 396.13 53.00 C 392.08 50.07 388.05 47.12 384.01 44.20 C 379.96 47.13 375.93 50.08 371.88 53.00 C 373.33 48.22 374.94 43.48 376.47 38.73 C 372.52 35.78 368.43 33.02 364.58 29.94 C 369.48 29.81 374.38 29.86 379.28 29.91 C 380.92 25.26 382.31 20.53 383.94 15.87 Z" />
<path fill="#ffffff" opacity="1.00" d=" M 464.69 29.86 C 466.24 25.15 467.65 20.38 469.39 15.73 C 470.93 20.44 472.44 25.16 473.99 29.86 C 478.97 29.88 483.96 29.84 488.95 29.89 C 484.96 32.92 480.82 35.76 476.85 38.81 C 478.46 43.51 479.93 48.26 481.52 52.97 C 477.40 50.12 473.40 47.11 469.34 44.19 C 465.28 47.14 461.23 50.10 457.16 53.03 C 458.70 48.27 460.24 43.50 461.81 38.74 C 457.82 35.78 453.75 32.94 449.80 29.93 C 454.76 29.81 459.73 29.89 464.69 29.86 Z" />
<path fill="#ffffff" opacity="1.00" d=" M 255.96 52.02 C 257.68 56.68 259.09 61.45 260.67 66.16 C 265.66 66.16 270.65 66.15 275.65 66.17 C 271.64 69.15 267.57 72.06 263.53 75.00 C 265.05 79.74 266.64 84.46 268.12 89.21 C 264.03 86.36 260.05 83.38 256.01 80.47 C 251.96 83.40 247.94 86.37 243.86 89.26 C 245.36 84.49 246.94 79.75 248.47 74.99 C 244.46 72.05 240.38 69.18 236.42 66.17 C 241.39 66.14 246.35 66.15 251.32 66.17 C 252.90 61.46 254.37 56.73 255.96 52.02 Z" />
<path fill="#ffffff" opacity="1.00" d=" M 512.00 51.83 C 768.00 51.81 1024.00 51.82 1280.00 51.82 L 1280.00 103.65 C 1024.00 103.65 768.00 103.63 512.00 103.66 C 512.00 86.38 512.00 69.10 512.00 51.83 Z" />
<path fill="#ffffff" opacity="1.00" d=" M 85.31 51.97 C 86.98 56.66 88.43 61.42 89.99 66.15 C 94.99 66.16 100.00 66.15 105.00 66.16 C 100.98 69.14 96.91 72.05 92.87 75.00 C 94.38 79.70 95.92 84.38 97.46 89.07 C 93.26 86.42 89.38 83.31 85.31 80.47 C 81.29 83.43 77.24 86.37 73.18 89.28 C 74.69 84.51 76.27 79.75 77.80 74.99 C 73.79 72.05 69.72 69.18 65.76 66.17 C 70.74 66.14 75.72 66.18 80.71 66.13 C 82.21 61.40 83.74 56.67 85.31 51.97 Z" />
<path fill="#ffffff" opacity="1.00" d=" M 170.63 51.92 C 172.28 56.62 173.77 61.37 175.28 66.12 C 180.28 66.19 185.27 66.13 190.26 66.17 C 186.30 69.19 182.22 72.06 178.20 75.00 C 179.73 79.76 181.30 84.50 182.81 89.27 C 178.76 86.36 174.72 83.42 170.71 80.47 C 166.63 83.32 162.74 86.42 158.54 89.10 C 160.07 84.40 161.62 79.70 163.13 74.99 C 159.12 72.05 155.06 69.16 151.07 66.19 C 156.05 66.12 161.03 66.17 166.01 66.15 C 167.55 61.41 169.08 56.67 170.63 51.92 Z" />
<path fill="#ffffff" opacity="1.00" d=" M 336.71 66.13 C 338.23 61.38 339.72 56.62 341.36 51.91 C 342.91 56.66 344.44 61.41 345.99 66.15 C 350.97 66.17 355.94 66.13 360.92 66.18 C 356.95 69.19 352.88 72.05 348.87 75.01 C 350.38 79.72 351.95 84.41 353.44 89.13 C 349.30 86.37 345.37 83.33 341.31 80.47 C 337.28 83.43 333.24 86.37 329.18 89.28 C 330.69 84.51 332.26 79.76 333.80 74.99 C 329.77 72.05 325.71 69.14 321.70 66.16 C 326.70 66.14 331.70 66.18 336.71 66.13 Z" />
<path fill="#ffffff" opacity="1.00" d=" M 426.61 51.98 C 428.32 56.64 429.77 61.39 431.28 66.12 C 436.27 66.19 441.26 66.13 446.26 66.17 C 442.30 69.19 438.22 72.06 434.20 75.00 C 435.73 79.76 437.30 84.50 438.81 89.27 C 434.77 86.36 430.73 83.44 426.73 80.46 C 422.95 83.15 419.20 85.87 415.49 88.64 C 415.24 88.68 414.73 88.76 414.47 88.80 C 416.27 84.28 417.60 79.60 419.13 74.99 C 415.10 72.04 411.03 69.14 407.02 66.16 C 412.02 66.15 417.01 66.16 422.01 66.15 C 423.55 61.43 425.07 56.70 426.61 51.98 Z" />
<path fill="#ffffff" opacity="1.00" d=" M 42.64 88.13 C 44.24 92.87 45.77 97.64 47.30 102.40 C 52.26 102.44 57.23 102.41 62.20 102.41 C 58.31 105.52 54.19 108.32 50.20 111.29 C 51.72 115.98 53.29 120.65 54.74 125.37 C 50.63 122.64 46.71 119.65 42.72 116.75 C 38.62 119.63 34.62 122.64 30.53 125.54 C 32.02 120.76 33.61 116.02 35.13 111.26 C 31.07 108.31 27.01 105.38 22.97 102.41 C 27.99 102.42 33.01 102.43 38.02 102.41 C 39.56 97.65 41.12 92.89 42.64 88.13 Z" />
<path fill="#ffffff" opacity="1.00" d=" M 123.33 102.43 C 124.96 97.84 126.08 93.07 128.11 88.64 C 129.73 93.20 131.12 97.84 132.66 102.42 C 137.59 102.43 142.51 102.39 147.43 102.45 C 143.61 105.55 139.56 108.35 135.56 111.21 C 137.02 116.01 138.65 120.75 140.14 125.53 C 136.07 122.64 132.06 119.66 128.00 116.75 C 123.95 119.68 119.94 122.64 115.87 125.53 C 117.35 120.80 118.87 116.07 120.50 111.38 C 116.63 108.30 112.41 105.68 108.68 102.44 C 113.56 102.40 118.45 102.43 123.33 102.43 Z" />
<path fill="#ffffff" opacity="1.00" d=" M 208.73 102.39 C 210.22 97.63 211.73 92.88 213.37 88.18 C 214.90 92.93 216.44 97.67 217.99 102.42 C 223.00 102.43 228.02 102.43 233.03 102.41 C 229.00 105.39 224.93 108.32 220.87 111.27 C 222.39 116.03 223.97 120.77 225.48 125.54 C 221.37 122.64 217.40 119.56 213.22 116.78 C 209.28 119.68 205.41 122.68 201.28 125.32 C 202.72 120.62 204.30 115.96 205.80 111.29 C 201.82 108.31 197.70 105.52 193.81 102.42 C 198.78 102.41 203.76 102.45 208.73 102.39 Z" />
<path fill="#ffffff" opacity="1.00" d=" M 294.02 102.41 C 295.57 97.65 297.07 92.88 298.69 88.15 C 300.22 92.91 301.78 97.65 303.30 102.40 C 308.29 102.44 313.29 102.41 318.28 102.42 C 314.31 105.46 310.22 108.32 306.20 111.29 C 307.71 115.98 309.28 120.65 310.73 125.36 C 306.62 122.64 302.71 119.64 298.72 116.75 C 294.61 119.64 290.59 122.65 286.51 125.57 C 288.02 120.79 289.60 116.03 291.13 111.26 C 287.08 108.32 283.03 105.37 278.98 102.44 C 283.99 102.40 289.01 102.43 294.02 102.41 Z" />
<path fill="#ffffff" opacity="1.00" d=" M 379.34 102.42 C 380.95 97.84 382.09 93.07 384.10 88.63 C 385.73 93.19 387.12 97.83 388.66 102.42 C 393.54 102.43 398.43 102.40 403.31 102.43 C 399.62 105.64 395.53 108.34 391.57 111.19 C 393.00 116.00 394.65 120.75 396.14 125.54 C 392.07 122.64 388.06 119.67 384.00 116.75 C 379.95 119.68 375.93 122.65 371.85 125.55 C 373.13 120.72 375.44 116.00 376.14 111.15 C 372.43 108.07 368.30 105.53 364.53 102.51 C 369.47 102.34 374.40 102.44 379.34 102.42 Z" />
<path fill="#ffffff" opacity="1.00" d=" M 464.71 102.40 C 466.26 97.77 467.47 93.01 469.46 88.54 C 471.01 93.15 472.46 97.79 473.98 102.41 C 479.00 102.43 484.02 102.42 489.04 102.41 C 484.99 105.39 480.92 108.32 476.87 111.28 C 478.40 116.04 479.97 120.78 481.48 125.55 C 477.41 122.63 473.39 119.65 469.31 116.75 C 465.30 119.64 461.38 122.66 457.26 125.38 C 458.70 120.66 460.29 115.98 461.80 111.28 C 457.80 108.31 453.70 105.48 449.78 102.41 C 454.75 102.41 459.73 102.45 464.71 102.40 Z" />
<path fill="#ffffff" opacity="1.00" d=" M 80.68 138.69 C 82.24 133.96 83.68 129.19 85.40 124.51 C 86.92 129.25 88.43 133.98 90.01 138.70 C 95.01 138.69 100.01 138.68 105.02 138.70 C 101.02 141.63 97.04 144.60 92.94 147.40 C 94.27 152.27 95.99 157.02 97.50 161.84 C 93.42 158.92 89.40 155.91 85.29 153.03 C 81.27 156.01 77.18 158.92 73.16 161.90 C 74.68 157.09 76.29 152.31 77.78 147.50 C 73.76 144.60 69.71 141.72 65.75 138.72 C 70.73 138.66 75.71 138.70 80.68 138.69 Z" />
<path fill="#ffffff" opacity="1.00" d=" M 170.60 124.50 C 172.32 129.18 173.75 133.96 175.32 138.69 C 180.28 138.70 185.23 138.65 190.19 138.74 C 186.28 141.78 182.22 144.62 178.21 147.52 C 179.72 152.31 181.31 157.08 182.84 161.86 C 178.79 159.03 174.96 155.90 170.81 153.23 C 166.44 155.62 162.67 159.09 158.50 161.86 C 160.01 157.04 161.69 152.28 163.08 147.43 C 159.00 144.59 155.00 141.63 150.99 138.69 C 155.98 138.69 160.97 138.68 165.96 138.71 C 167.59 134.00 169.07 129.24 170.60 124.50 Z" />
<path fill="#ffffff" opacity="1.00" d=" M 255.93 124.77 C 257.78 129.27 259.10 133.97 260.57 138.61 C 265.46 138.78 270.36 138.60 275.25 138.77 C 271.58 142.02 267.37 144.59 263.52 147.62 C 265.08 152.32 266.68 157.02 268.07 161.78 C 264.04 158.87 260.03 155.92 256.00 153.02 C 251.96 155.96 247.93 158.90 243.89 161.82 C 245.34 157.05 246.91 152.32 248.48 147.58 C 244.56 144.62 240.48 141.87 236.63 138.82 C 241.53 138.37 246.53 139.14 251.37 138.40 C 253.09 133.93 254.26 129.26 255.93 124.77 Z" />
<path fill="#ffffff" opacity="1.00" d=" M 336.68 138.69 C 338.25 133.99 339.62 129.23 341.41 124.61 C 342.96 129.30 344.42 134.02 346.03 138.70 C 351.02 138.68 356.01 138.68 361.01 138.70 C 357.00 141.66 352.98 144.60 348.91 147.47 C 350.34 152.29 351.97 157.04 353.50 161.83 C 349.45 158.92 345.41 155.99 341.39 153.02 C 337.28 155.92 333.24 158.92 329.17 161.87 C 330.68 157.07 332.29 152.30 333.78 147.50 C 329.79 144.61 325.74 141.79 321.86 138.74 C 326.80 138.64 331.74 138.71 336.68 138.69 Z" />
<path fill="#ffffff" opacity="1.00" d=" M 426.58 124.67 C 428.42 129.25 429.74 134.02 431.32 138.69 C 436.28 138.70 441.24 138.65 446.21 138.74 C 442.28 141.76 438.22 144.61 434.21 147.53 C 435.72 152.32 437.31 157.10 438.84 161.89 C 434.77 158.91 430.73 155.88 426.57 153.03 C 422.59 156.05 418.52 158.93 414.49 161.86 C 416.01 157.06 417.67 152.29 419.09 147.45 C 415.02 144.59 411.00 141.65 407.01 138.69 C 412.00 138.68 417.00 138.69 422.00 138.69 C 423.56 134.03 425.02 129.34 426.58 124.67 Z" />
<path fill="#ffffff" opacity="1.00" d=" M 512.00 155.45 C 716.66 155.48 921.31 155.46 1125.97 155.47 C 1177.31 155.37 1228.66 155.66 1280.00 155.32 L 1280.00 207.29 C 1024.00 207.28 768.00 207.30 512.00 207.28 C 512.00 190.00 512.00 172.73 512.00 155.45 Z" />
<path fill="#ffffff" opacity="1.00" d=" M 42.61 160.75 C 44.30 165.44 45.77 170.21 47.29 174.96 C 52.28 175.01 57.26 174.93 62.24 175.04 C 58.27 178.02 54.21 180.89 50.20 183.82 C 51.74 188.58 53.30 193.33 54.82 198.10 C 50.77 195.19 46.73 192.24 42.70 189.30 C 38.62 192.20 34.63 195.22 30.51 198.06 C 32.05 193.32 33.58 188.58 35.14 183.85 C 31.13 180.86 27.05 177.97 23.02 175.00 C 28.02 174.96 33.01 174.98 38.01 174.97 C 39.55 170.24 41.10 165.50 42.61 160.75 Z" />
<path fill="#ffffff" opacity="1.00" d=" M 123.32 174.99 C 124.91 170.29 126.35 165.54 127.99 160.85 C 129.66 165.53 131.10 170.28 132.67 174.98 C 137.65 174.98 142.63 174.95 147.61 175.01 C 143.62 178.00 139.56 180.89 135.53 183.83 C 137.06 188.58 138.66 193.31 140.12 198.09 C 136.07 195.17 132.05 192.21 128.01 189.30 C 123.96 192.22 119.94 195.19 115.87 198.09 C 117.35 193.31 118.94 188.58 120.47 183.82 C 116.50 180.88 112.42 178.10 108.55 175.03 C 113.47 174.93 118.39 174.98 123.32 174.99 Z" />
<path fill="#ffffff" opacity="1.00" d=" M 208.71 174.95 C 210.23 170.22 211.67 165.47 213.39 160.81 C 214.93 165.53 216.45 170.26 217.99 174.97 C 222.96 174.99 227.92 174.93 232.89 175.04 C 228.92 178.04 224.84 180.88 220.86 183.86 C 222.42 188.58 223.94 193.32 225.49 198.05 C 221.38 195.21 217.40 192.19 213.32 189.30 C 209.28 192.24 205.24 195.20 201.17 198.11 C 202.70 193.34 204.26 188.58 205.80 183.82 C 201.80 180.88 197.75 178.00 193.76 175.04 C 198.74 174.93 203.73 175.01 208.71 174.95 Z" />
<path fill="#ffffff" opacity="1.00" d=" M 298.60 160.81 C 300.34 165.47 301.76 170.23 303.30 174.96 C 308.29 175.00 313.28 174.92 318.27 175.06 C 314.25 177.99 310.22 180.90 306.20 183.83 C 307.74 188.59 309.30 193.34 310.83 198.10 C 306.79 195.19 302.74 192.29 298.76 189.30 C 294.62 192.15 290.64 195.21 286.51 198.07 C 288.04 193.33 289.58 188.59 291.14 183.85 C 287.18 180.88 283.10 178.06 279.16 175.05 C 284.10 174.92 289.06 174.99 294.01 174.97 C 295.55 170.26 297.08 165.53 298.60 160.81 Z" />
<path fill="#ffffff" opacity="1.00" d=" M 383.94 160.92 C 385.74 165.54 387.07 170.31 388.68 174.99 C 393.68 174.97 398.67 174.97 403.67 174.99 C 399.64 177.95 395.58 180.88 391.53 183.83 C 393.06 188.58 394.65 193.32 396.13 198.09 C 392.08 195.17 388.06 192.21 384.01 189.30 C 379.95 192.23 375.93 195.19 371.87 198.10 C 373.35 193.32 374.94 188.58 376.47 183.82 C 372.44 180.88 368.39 177.98 364.39 175.01 C 369.37 174.95 374.35 174.98 379.33 174.98 C 380.89 170.30 382.35 165.59 383.94 160.92 Z" />
<path fill="#ffffff" opacity="1.00" d=" M 464.71 174.95 C 466.23 170.21 467.70 165.45 469.38 160.76 C 470.91 165.50 472.44 170.24 473.99 174.97 C 478.96 174.99 483.94 174.94 488.93 175.01 C 484.95 178.02 480.86 180.88 476.86 183.85 C 478.42 188.55 479.89 193.28 481.52 197.95 C 477.29 195.27 473.40 192.13 469.29 189.30 C 465.27 192.27 461.23 195.20 457.17 198.11 C 458.70 193.34 460.25 188.59 461.81 183.83 C 457.81 180.88 453.75 178.01 449.77 175.04 C 454.74 174.93 459.72 175.01 464.71 174.95 Z" />
<path fill="#ffffff" opacity="1.00" d=" M 251.33 211.25 C 252.91 206.52 254.38 201.76 256.01 197.05 C 257.61 201.77 259.10 206.52 260.67 211.25 C 265.66 211.24 270.66 211.23 275.65 211.26 C 271.78 214.27 267.62 216.88 263.84 220.01 C 264.60 224.85 266.83 229.47 268.10 234.26 C 263.99 231.47 260.04 228.46 256.01 225.58 C 251.95 228.49 247.95 231.47 243.87 234.35 C 245.35 229.57 246.97 224.83 248.45 220.05 C 244.41 217.15 240.37 214.25 236.40 211.26 C 241.38 211.23 246.35 211.24 251.33 211.25 Z" />
<path fill="#ffffff" opacity="1.00" d=" M 80.71 211.22 C 82.22 206.47 83.73 201.72 85.36 197.00 C 86.90 201.75 88.44 206.49 89.98 211.24 C 95.00 211.25 100.02 211.24 105.04 211.25 C 100.99 214.22 96.92 217.14 92.87 220.11 C 94.37 224.82 95.99 229.50 97.39 234.25 C 93.31 231.43 89.36 228.45 85.33 225.57 C 81.30 228.45 77.39 231.50 73.23 234.21 C 74.72 229.49 76.30 224.80 77.80 220.08 C 73.76 217.14 69.69 214.25 65.71 211.25 C 70.71 211.23 75.71 211.26 80.71 211.22 Z" />
<path fill="#ffffff" opacity="1.00" d=" M 170.62 197.01 C 172.28 201.72 173.77 206.49 175.31 211.24 C 180.28 211.28 185.25 211.15 190.22 211.34 C 186.24 214.29 182.22 217.18 178.21 220.08 C 179.69 224.80 181.28 229.49 182.77 234.21 C 178.63 231.49 174.71 228.45 170.68 225.57 C 166.65 228.46 162.70 231.45 158.61 234.26 C 160.01 229.50 161.62 224.82 163.14 220.10 C 159.10 217.14 155.02 214.22 150.98 211.25 C 156.00 211.23 161.01 211.25 166.02 211.24 C 167.55 206.49 169.10 201.76 170.62 197.01 Z" />
<path fill="#ffffff" opacity="1.00" d=" M 336.71 211.22 C 338.23 206.47 339.72 201.71 341.37 197.00 C 342.89 201.75 344.44 206.49 345.99 211.24 C 351.01 211.25 356.03 211.24 361.05 211.25 C 356.99 214.21 352.92 217.14 348.87 220.11 C 350.36 224.81 352.00 229.45 353.34 234.20 C 349.27 231.42 345.34 228.43 341.33 225.57 C 337.30 228.47 333.36 231.49 329.23 234.24 C 330.70 229.51 332.29 224.81 333.80 220.09 C 329.80 217.14 325.70 214.31 321.78 211.25 C 326.75 211.22 331.73 211.27 336.71 211.22 Z" />
<path fill="#ffffff" opacity="1.00" d=" M 426.64 196.99 C 428.24 201.70 429.79 206.44 431.26 211.20 C 436.26 211.29 441.26 211.22 446.26 211.26 C 442.31 214.29 438.22 217.15 434.20 220.10 C 435.70 224.81 437.28 229.49 438.76 234.20 C 434.62 231.49 430.71 228.45 426.69 225.57 C 422.65 228.46 418.69 231.44 414.61 234.27 C 416.00 229.51 417.63 224.82 419.13 220.10 C 415.09 217.14 411.02 214.22 406.99 211.25 C 412.00 211.23 417.00 211.25 422.01 211.24 C 423.56 206.49 425.10 201.74 426.64 196.99 Z" />
<path fill="#ffffff" opacity="1.00" d=" M 42.60 233.26 C 44.27 237.96 45.78 242.72 47.27 247.48 C 52.24 247.54 57.21 247.50 62.17 247.50 C 58.32 250.64 54.19 253.42 50.20 256.38 C 51.85 261.15 53.08 266.06 55.12 270.69 C 50.70 268.15 46.91 264.54 42.53 261.87 C 38.59 264.89 34.54 267.76 30.51 270.66 C 32.03 265.88 33.62 261.12 35.12 256.34 C 31.07 253.41 26.99 250.51 23.01 247.49 C 28.02 247.52 33.04 247.53 38.05 247.48 C 39.54 242.73 41.14 238.01 42.60 233.26 Z" />
<path fill="#ffffff" opacity="1.00" d=" M 127.71 234.21 C 127.86 234.22 128.15 234.24 128.29 234.25 C 129.90 238.62 131.14 243.11 132.66 247.51 C 137.55 247.53 142.44 247.46 147.33 247.56 C 143.59 250.80 139.37 253.41 135.51 256.50 C 137.13 261.18 138.65 265.90 140.12 270.63 C 136.07 267.72 132.05 264.77 128.01 261.85 C 123.97 264.76 119.95 267.71 115.92 270.64 C 117.32 265.87 118.89 261.16 120.49 256.47 C 116.60 253.41 112.43 250.74 108.63 247.57 C 113.53 247.46 118.44 247.53 123.34 247.51 C 124.86 243.10 126.12 238.60 127.71 234.21 Z" />
<path fill="#ffffff" opacity="1.00" d=" M 208.71 247.49 C 210.26 242.85 211.52 238.09 213.44 233.58 C 215.00 238.21 216.46 242.86 217.98 247.50 C 222.99 247.52 228.01 247.51 233.03 247.50 C 229.01 250.49 224.94 253.42 220.88 256.35 C 222.38 261.13 223.97 265.87 225.49 270.64 C 221.45 267.74 217.42 264.86 213.46 261.86 C 209.28 264.70 205.26 267.76 201.15 270.70 C 202.70 265.92 204.26 261.14 205.80 256.36 C 201.80 253.42 197.69 250.61 193.81 247.51 C 198.78 247.50 203.75 247.53 208.71 247.49 Z" />
<path fill="#ffffff" opacity="1.00" d=" M 298.59 233.49 C 300.39 238.06 301.77 242.79 303.26 247.47 C 308.24 247.55 313.21 247.49 318.19 247.51 C 314.31 250.62 310.20 253.42 306.20 256.37 C 307.74 261.14 309.30 265.91 310.84 270.68 C 306.74 267.75 302.73 264.67 298.54 261.87 C 294.59 264.88 290.53 267.76 286.50 270.67 C 288.03 265.89 289.61 261.13 291.13 256.35 C 287.07 253.41 283.00 250.49 278.99 247.50 C 284.00 247.52 289.01 247.52 294.02 247.50 C 295.55 242.83 297.02 238.14 298.59 233.49 Z" />
<path fill="#ffffff" opacity="1.00" d=" M 383.92 233.67 C 385.86 238.15 387.05 242.91 388.66 247.51 C 393.55 247.53 398.44 247.45 403.33 247.56 C 399.59 250.78 395.40 253.42 391.52 256.46 C 393.12 261.17 394.63 265.91 396.15 270.65 C 392.08 267.73 388.06 264.76 384.00 261.85 C 379.95 264.79 375.91 267.74 371.85 270.66 C 373.34 265.85 375.01 261.10 376.43 256.27 C 372.46 253.43 368.40 250.71 364.67 247.56 C 369.56 247.46 374.45 247.53 379.34 247.51 C 380.88 242.90 382.28 238.25 383.92 233.67 Z" />
<path fill="#ffffff" opacity="1.00" d=" M 464.72 247.49 C 466.25 242.84 467.53 238.09 469.44 233.58 C 471.00 238.20 472.46 242.86 473.97 247.50 C 478.99 247.52 484.00 247.51 489.02 247.50 C 485.01 250.49 480.95 253.42 476.89 256.33 C 478.37 261.12 479.97 265.86 481.48 270.63 C 477.44 267.74 473.41 264.83 469.43 261.86 C 465.29 264.72 461.26 267.72 457.20 270.69 C 458.66 265.89 460.27 261.14 461.80 256.36 C 457.79 253.42 453.69 250.60 449.80 247.51 C 454.77 247.50 459.74 247.54 464.72 247.49 Z" />
<path fill="#ffffff" opacity="1.00" d=" M 512.00 259.11 C 768.00 259.11 1024.00 259.11 1280.00 259.11 L 1280.00 310.93 C 1024.00 310.94 768.00 310.93 512.00 310.94 C 512.00 293.66 512.00 276.38 512.00 259.11 Z" />
<path fill="#ffffff" opacity="1.00" d=" M 80.69 283.79 C 82.24 279.08 83.63 274.32 85.41 269.69 C 86.94 274.39 88.45 279.10 89.99 283.80 C 94.99 283.80 99.98 283.78 104.98 283.82 C 100.99 286.76 97.02 289.70 92.94 292.52 C 94.28 297.38 95.99 302.13 97.50 306.94 C 93.41 304.02 89.40 300.99 85.27 298.13 C 81.26 301.12 77.21 304.03 73.17 306.96 C 74.69 302.16 76.30 297.40 77.78 292.60 C 73.79 289.71 69.75 286.88 65.86 283.86 C 70.80 283.74 75.75 283.82 80.69 283.79 Z" />
<path fill="#ffffff" opacity="1.00" d=" M 170.60 269.68 C 172.36 274.32 173.76 279.08 175.31 283.79 C 180.26 283.83 185.21 283.71 190.15 283.90 C 186.24 286.87 182.23 289.73 178.23 292.59 C 179.68 297.40 181.31 302.15 182.83 306.94 C 178.78 304.01 174.74 301.08 170.70 298.13 C 166.61 301.04 162.57 304.03 158.49 306.97 C 160.00 302.14 161.72 297.38 163.06 292.51 C 158.98 289.69 155.01 286.73 151.01 283.81 C 156.01 283.79 161.01 283.80 166.01 283.80 C 167.55 279.09 169.06 274.38 170.60 269.68 Z" />
<path fill="#ffffff" opacity="1.00" d=" M 255.94 269.81 C 257.77 274.39 259.07 279.15 260.68 283.81 C 265.57 283.82 270.47 283.72 275.36 283.89 C 271.56 287.00 267.46 289.72 263.53 292.67 C 265.05 297.40 266.68 302.11 268.07 306.89 C 264.05 303.97 260.04 301.04 256.02 298.13 C 251.96 301.04 247.95 303.99 243.90 306.91 C 245.33 302.13 246.94 297.41 248.47 292.65 C 244.51 289.71 240.43 286.93 236.56 283.87 C 241.48 283.74 246.41 283.82 251.34 283.80 C 252.89 279.14 254.33 274.45 255.94 269.81 Z" />
<path fill="#ffffff" opacity="1.00" d=" M 336.68 283.80 C 338.25 279.08 339.65 274.30 341.41 269.65 C 342.92 274.37 344.45 279.09 345.99 283.80 C 351.00 283.80 356.01 283.79 361.01 283.81 C 357.14 286.98 352.50 289.37 349.05 292.95 C 350.31 297.68 352.09 302.25 353.50 306.94 C 349.43 304.02 345.40 301.04 341.32 298.13 C 337.27 301.08 333.22 304.03 329.16 306.96 C 330.68 302.16 332.32 297.39 333.77 292.57 C 329.77 289.72 325.75 286.89 321.88 283.87 C 326.81 283.74 331.75 283.82 336.68 283.80 Z" />
<path fill="#ffffff" opacity="1.00" d=" M 426.58 269.74 C 428.41 274.33 429.74 279.10 431.31 283.79 C 436.26 283.82 441.22 283.73 446.18 283.88 C 442.25 286.86 438.25 289.73 434.23 292.58 C 435.68 297.40 437.31 302.16 438.84 306.95 C 434.80 304.02 430.75 301.11 426.75 298.13 C 422.61 301.00 418.59 304.03 414.50 306.95 C 415.99 302.12 417.75 297.37 419.05 292.48 C 414.97 289.69 411.01 286.75 407.05 283.82 C 412.03 283.78 417.02 283.81 422.01 283.80 C 423.54 279.12 425.04 274.42 426.58 269.74 Z" />
<path fill="#ffffff" opacity="1.00" d=" M 123.33 320.08 C 124.93 315.42 126.26 310.66 128.01 306.05 C 129.74 310.67 131.05 315.44 132.71 320.09 C 137.63 320.06 142.55 320.03 147.47 320.09 C 143.62 323.21 139.51 325.98 135.53 328.93 C 137.06 333.67 138.64 338.39 140.12 343.14 C 136.04 340.29 132.05 337.30 128.01 334.40 C 123.95 337.33 119.92 340.30 115.85 343.20 C 117.36 338.43 118.93 333.68 120.47 328.92 C 116.42 325.96 112.36 323.03 108.30 320.08 C 113.31 320.06 118.32 320.06 123.33 320.08 Z" />
<path fill="#ffffff" opacity="1.00" d=" M 213.31 305.88 C 214.97 310.58 216.42 315.34 217.99 320.06 C 223.00 320.07 228.01 320.05 233.02 320.08 C 228.99 323.05 224.91 325.97 220.87 328.93 C 222.40 333.66 223.92 338.38 225.50 343.10 C 221.34 340.34 217.39 337.27 213.31 334.40 C 209.28 337.35 205.23 340.30 201.18 343.22 C 202.69 338.44 204.26 333.68 205.80 328.92 C 201.79 325.97 197.71 323.11 193.75 320.09 C 198.74 320.03 203.72 320.10 208.71 320.04 C 210.22 315.31 211.74 310.59 213.31 305.88 Z" />
<path fill="#ffffff" opacity="1.00" d=" M 294.01 320.07 C 295.57 315.31 297.07 310.55 298.68 305.82 C 300.23 310.53 301.78 315.25 303.26 319.99 C 308.26 320.14 313.27 320.02 318.28 320.09 C 314.30 323.11 310.22 325.98 306.20 328.93 C 307.74 333.69 309.30 338.44 310.82 343.21 C 306.76 340.29 302.73 337.34 298.69 334.40 C 294.60 337.27 290.70 340.41 286.46 343.06 C 288.12 338.38 289.59 333.64 291.14 328.93 C 287.11 325.97 283.04 323.08 279.04 320.09 C 284.03 320.05 289.02 320.07 294.01 320.07 Z" />
<path fill="#ffffff" opacity="1.00" d=" M 383.95 305.99 C 385.72 310.63 387.05 315.41 388.71 320.09 C 393.68 320.05 398.66 320.05 403.64 320.08 C 399.64 323.08 395.56 325.98 391.53 328.93 C 393.07 333.68 394.64 338.42 396.14 343.19 C 392.08 340.28 388.06 337.32 384.01 334.40 C 379.96 337.31 375.98 340.30 371.88 343.14 C 373.35 338.38 374.95 333.66 376.47 328.92 C 372.50 325.97 368.39 323.21 364.56 320.09 C 369.48 320.03 374.40 320.07 379.32 320.08 C 380.90 315.39 382.36 310.67 383.95 305.99 Z" />
<path fill="#ffffff" opacity="1.00" d=" M 464.72 320.02 C 466.24 315.29 467.70 310.54 469.38 305.86 C 470.91 310.60 472.44 315.33 473.99 320.07 C 479.00 320.07 484.01 320.06 489.02 320.07 C 484.99 323.04 480.93 325.97 476.88 328.92 C 478.47 333.46 479.50 338.21 481.65 342.54 C 480.98 342.80 480.40 342.65 479.91 342.11 C 476.37 339.55 472.88 336.91 469.31 334.40 C 465.28 337.36 461.23 340.30 457.18 343.22 C 458.69 338.44 460.26 333.68 461.80 328.92 C 457.78 325.97 453.71 323.09 449.72 320.09 C 454.72 320.03 459.72 320.11 464.72 320.02 Z" />
<path fill="#ffffff" opacity="1.00" d=" M 42.60 305.94 C 44.35 310.57 45.76 315.32 47.29 320.03 C 52.29 320.10 57.28 320.03 62.28 320.09 C 58.31 323.11 54.23 325.98 50.20 328.93 C 51.74 333.69 53.30 338.44 54.82 343.21 C 50.77 340.29 46.73 337.34 42.69 334.40 C 38.62 337.27 34.69 340.35 30.52 343.07 C 32.07 338.36 33.61 333.64 35.14 328.92 C 31.13 325.97 27.06 323.13 23.11 320.10 C 28.08 320.03 33.04 320.08 38.01 320.07 C 39.55 315.36 41.06 310.65 42.60 305.94 Z" />
<path fill="#ffffff" opacity="1.00" d=" M 0.00 362.80 C 170.66 362.78 341.32 362.83 511.98 362.78 C 767.99 362.72 1023.99 362.77 1280.00 362.75 L 1280.00 414.58 C 956.68 414.58 633.36 414.58 310.04 414.58 C 206.69 414.65 103.34 414.43 0.00 414.69 L 0.00 362.80 Z" />
<path fill="#ffffff" opacity="1.00" d=" M 0.00 466.39 C 316.68 466.40 633.37 466.40 950.05 466.40 C 1060.03 466.32 1170.02 466.55 1280.00 466.28 L 1280.00 518.22 C 853.33 518.22 426.67 518.22 0.00 518.22 L 0.00 466.39 Z" />
<path fill="#ffffff" opacity="1.00" d=" M 0.00 570.04 C 426.67 570.04 853.33 570.04 1280.00 570.04 L 1280.00 621.86 C 853.33 621.86 426.67 621.87 0.00 621.86 L 0.00 570.04 Z" />
</g>
</svg>
