<?xml version="1.0" encoding="UTF-8" ?>
<!DOCTYPE svg PUBLIC "-//W3C//DTD SVG 1.1//EN" "http://www.w3.org/Graphics/SVG/1.1/DTD/svg11.dtd">
<svg width="1576pt" height="262pt" viewBox="0 0 1576 262" version="1.1" xmlns="http://www.w3.org/2000/svg">
<g id="#ffffffff">
<path fill="#ffffff" opacity="1.00" d=" M 825.01 11.01 C 836.34 10.99 847.66 10.99 858.99 11.01 C 859.01 91.00 859.01 171.00 858.99 250.99 C 848.03 250.96 837.06 251.10 826.10 250.93 C 823.98 249.85 822.79 247.56 821.25 245.82 C 816.29 240.44 811.15 235.23 805.95 230.08 C 799.78 222.31 791.83 216.14 785.78 208.26 C 774.86 197.21 763.77 186.33 753.05 175.09 C 748.32 168.87 742.35 163.78 737.05 158.08 C 734.09 154.06 730.12 150.93 727.26 146.82 C 719.35 138.39 710.60 130.72 703.29 121.73 C 698.50 116.56 693.46 111.63 688.51 106.61 C 684.00 100.79 678.37 95.96 673.79 90.21 C 665.06 82.05 657.94 72.38 649.05 64.39 C 648.92 126.59 649.04 188.79 648.99 250.99 C 636.99 251.01 625.00 251.01 613.01 250.99 C 612.99 171.33 612.99 91.67 613.01 12.01 C 624.57 12.00 636.14 11.97 647.70 12.03 C 650.61 17.64 656.15 21.17 659.71 26.30 C 665.15 31.88 670.11 37.87 675.75 43.25 C 681.02 48.64 686.56 53.80 691.24 59.73 C 695.10 63.83 699.17 67.75 702.96 71.92 C 708.43 79.08 715.37 84.90 721.53 91.44 C 726.38 97.57 732.51 102.52 737.66 108.38 C 743.76 116.15 751.45 122.47 757.83 129.99 C 763.29 136.84 770.03 142.52 775.96 148.93 C 779.60 153.60 784.23 157.41 787.78 162.17 C 796.54 171.40 805.84 180.12 814.52 189.43 C 817.58 193.07 820.45 197.27 825.00 199.15 C 825.01 136.44 824.98 73.72 825.01 11.01 Z" />
<path fill="#ffffff" opacity="1.00" d=" M 1315.01 11.01 C 1326.00 10.99 1336.99 10.99 1347.99 11.01 C 1348.00 91.00 1348.01 171.00 1347.99 250.99 C 1336.99 251.01 1326.00 251.01 1315.01 250.99 C 1314.99 171.00 1314.99 91.00 1315.01 11.01 Z" />
<path fill="#ffffff" opacity="1.00" d=" M 10.45 11.99 C 94.96 12.02 179.48 11.98 263.99 12.01 C 263.92 21.24 264.19 30.49 263.85 39.71 C 258.31 43.80 253.28 48.51 247.97 52.88 C 240.89 58.82 233.68 64.62 227.16 71.18 C 221.68 74.94 217.70 80.41 212.28 84.26 C 205.72 90.75 198.29 96.25 191.60 102.59 C 186.77 106.00 183.21 110.87 178.40 114.31 C 166.54 124.77 155.17 135.78 142.97 145.87 C 138.62 149.18 135.42 153.78 130.82 156.79 C 126.17 161.16 121.19 165.14 116.61 169.59 C 111.53 173.11 107.84 178.17 103.09 182.05 C 97.83 185.70 94.03 191.03 88.84 194.78 C 85.52 198.18 81.44 200.71 78.23 204.25 C 73.76 208.88 68.87 213.10 64.66 217.97 C 131.37 218.03 198.08 217.98 264.80 218.00 C 265.62 218.84 266.02 219.85 265.99 221.02 C 266.00 230.01 266.02 239.01 265.98 248.00 C 266.18 249.29 265.33 250.98 263.84 250.80 C 223.23 250.81 182.61 250.97 142.00 250.90 C 97.77 250.87 53.55 251.19 9.33 250.90 C 9.46 247.36 9.21 243.81 9.50 240.28 C 10.77 233.05 9.30 225.62 10.34 218.38 C 12.08 216.12 14.41 214.40 16.66 212.68 C 79.50 156.39 142.58 100.37 205.37 44.05 C 200.55 43.53 195.84 44.97 191.02 44.80 C 131.04 44.83 71.06 44.76 11.08 44.93 C 11.28 40.55 9.64 36.22 10.86 31.88 C 10.90 25.28 11.56 18.52 10.45 11.99 Z" />
<path fill="#ffffff" opacity="1.00" d=" M 323.01 12.01 C 396.34 12.00 469.66 11.99 542.99 12.01 C 543.01 22.67 543.01 33.33 542.99 43.99 C 469.66 44.01 396.34 44.01 323.01 43.99 C 322.99 33.33 322.99 22.67 323.01 12.01 Z" />
<path fill="#ffffff" opacity="1.00" d=" M 931.01 12.01 C 941.67 11.99 952.33 11.99 962.99 12.01 C 963.00 91.67 963.01 171.33 962.99 250.99 C 952.33 251.01 941.67 251.01 931.01 250.99 C 930.99 171.33 930.99 91.67 931.01 12.01 Z" />
<path fill="#ffffff" opacity="1.00" d=" M 1039.01 13.01 C 1112.34 12.99 1185.66 12.99 1258.99 13.01 C 1259.01 23.00 1259.01 33.00 1258.99 42.99 C 1185.66 43.01 1112.34 43.01 1039.01 42.99 C 1038.99 33.00 1038.99 23.00 1039.01 13.01 Z" />
<path fill="#ffffff" opacity="1.00" d=" M 1531.01 13.01 C 1541.67 12.99 1552.33 12.99 1562.99 13.01 C 1563.01 92.00 1563.00 171.00 1562.99 249.99 C 1552.33 250.01 1541.67 250.01 1531.01 249.99 C 1530.98 215.33 1531.02 180.67 1530.99 146.01 C 1482.00 145.98 1433.00 146.02 1384.01 145.99 C 1383.99 136.33 1383.99 126.67 1384.01 117.01 C 1433.00 116.98 1482.00 117.02 1530.99 116.99 C 1531.02 82.33 1530.98 47.67 1531.01 13.01 Z" />
<path fill="#ffffff" opacity="1.00" d=" M 1127.01 91.01 C 1138.67 90.99 1150.33 90.99 1161.99 91.01 C 1162.01 144.34 1162.01 197.66 1161.99 250.99 C 1150.33 251.01 1138.67 251.01 1127.01 250.99 C 1126.99 197.66 1126.99 144.34 1127.01 91.01 Z" />
<path fill="#ffffff" opacity="1.00" d=" M 350.01 115.01 C 407.67 114.99 465.33 114.99 522.99 115.01 C 523.01 125.34 523.01 135.66 522.99 145.99 C 465.33 146.01 407.67 146.01 350.01 145.99 C 349.99 135.66 349.99 125.34 350.01 115.01 Z" />
<path fill="#ffffff" opacity="1.00" d=" M 322.01 218.01 C 396.34 217.99 470.66 217.99 544.99 218.01 C 545.01 229.00 545.01 240.00 544.99 250.99 C 470.66 251.01 396.34 251.01 322.01 250.99 C 321.99 240.00 321.99 229.00 322.01 218.01 Z" />
</g>
</svg>
